M48
;DRILL file {KiCad (5.0.0)} date 10/20/18 13:21:47
;FORMAT={-:-/ absolute / metric / decimal}
FMAT,2
METRIC,TZ
T1C0.400
T2C0.800
T3C0.900
T4C1.000
T5C1.100
T6C1.200
T7C1.500
T8C2.200
%
G90
G05
M71
T1
X54.61Y-94.996
X68.834Y-224.282
X68.834Y-210.82
X71.882Y-158.115
X77.216Y-158.115
X90.805Y-218.44
X90.932Y-194.31
X93.218Y-176.784
X94.488Y-182.118
X97.79Y-90.941
X97.79Y-176.784
X98.552Y-213.868
X99.314Y-190.5
X100.33Y-216.535
X101.6Y-223.52
X102.87Y-196.85
X102.87Y-201.93
X104.394Y-71.374
X107.442Y-71.374
X108.585Y-137.795
X108.585Y-139.7
X109.982Y-198.12
X114.3Y-165.354
X114.3Y-172.974
X114.3Y-175.514
X114.427Y-137.795
X114.427Y-139.7
X121.666Y-175.514
X124.714Y-172.974
X128.524Y-151.13
T2
X109.855Y-92.71
X109.855Y-95.25
X109.855Y-97.79
X109.855Y-100.33
X109.855Y-102.87
X109.855Y-105.41
X109.855Y-107.95
X109.855Y-110.49
X109.855Y-113.03
X109.855Y-115.57
X109.855Y-118.11
X109.855Y-120.65
X109.855Y-123.19
X109.855Y-125.73
X109.855Y-128.27
X125.095Y-92.71
X125.095Y-95.25
X125.095Y-97.79
X125.095Y-100.33
X125.095Y-102.87
X125.095Y-105.41
X125.095Y-107.95
X125.095Y-110.49
X125.095Y-113.03
X125.095Y-115.57
X125.095Y-118.11
X125.095Y-120.65
X125.095Y-123.19
X125.095Y-125.73
X125.095Y-128.27
T3
X78.9Y-207.01
X81.4Y-202.01
X83.9Y-207.01
X71.2Y-207.01
X73.7Y-202.01
X76.2Y-207.01
T4
X79.576Y-71.211
X79.576Y-73.751
X79.576Y-76.291
X79.576Y-78.831
X79.576Y-81.371
X82.116Y-71.211
X82.116Y-73.751
X82.116Y-76.291
X82.116Y-78.831
X82.116Y-81.371
X65.71Y-69.256
X68.25Y-69.256
X70.79Y-69.256
X73.33Y-69.256
X96.52Y-96.52
X96.52Y-99.06
X96.52Y-101.6
X96.52Y-104.14
X96.52Y-106.68
X99.06Y-96.52
X99.06Y-99.06
X99.06Y-101.6
X99.06Y-104.14
X99.06Y-106.68
X111.194Y-162.822
X111.194Y-165.362
X111.194Y-167.902
X111.194Y-170.442
X111.194Y-172.982
X111.194Y-175.522
X111.194Y-178.062
X124.46Y-68.834
X124.46Y-71.374
X124.46Y-73.914
X124.46Y-76.454
X124.46Y-78.994
X127.Y-68.834
X127.Y-71.374
X127.Y-73.914
X127.Y-76.454
X127.Y-78.994
X90.424Y-204.47
X92.964Y-204.47
T5
X95.25Y-85.598
X97.79Y-85.598
X100.33Y-85.598
X53.414Y-98.516
X53.414Y-103.016
X59.914Y-98.516
X59.914Y-103.016
X78.56Y-98.516
X78.56Y-103.016
X85.06Y-98.516
X85.06Y-103.016
X66.114Y-98.516
X66.114Y-103.016
X72.614Y-98.516
X72.614Y-103.016
T6
X71.882Y-139.7
X71.882Y-142.24
X71.882Y-144.78
X77.216Y-139.7
X77.216Y-142.24
X77.216Y-144.78
X71.882Y-190.5
X71.882Y-193.04
X71.882Y-195.58
X77.216Y-190.5
X77.216Y-193.04
X77.216Y-195.58
X71.882Y-165.1
X71.882Y-167.64
X71.882Y-170.18
X77.216Y-165.1
X77.216Y-167.64
X77.216Y-170.18
T7
X80.264Y-114.015
X80.264Y-120.015
X84.264Y-114.015
X84.264Y-120.015
X88.264Y-114.015
X88.264Y-120.015
T8
X85.799Y-106.898
X85.799Y-67.528
X52.779Y-67.528
X52.779Y-106.898
T0
M30
