G04 #@! TF.GenerationSoftware,KiCad,Pcbnew,(5.0.0)*
G04 #@! TF.CreationDate,2018-10-20T13:21:43+01:00*
G04 #@! TF.ProjectId,AD9833FunctionGenerator,41443938333346756E6374696F6E4765,rev?*
G04 #@! TF.SameCoordinates,Original*
G04 #@! TF.FileFunction,Legend,Top*
G04 #@! TF.FilePolarity,Positive*
%FSLAX46Y46*%
G04 Gerber Fmt 4.6, Leading zero omitted, Abs format (unit mm)*
G04 Created by KiCad (PCBNEW (5.0.0)) date 10/20/18 13:21:43*
%MOMM*%
%LPD*%
G01*
G04 APERTURE LIST*
%ADD10C,0.300000*%
%ADD11C,0.250000*%
%ADD12C,0.200000*%
%ADD13C,1.000000*%
%ADD14C,0.120000*%
%ADD15C,0.150000*%
%ADD16C,0.050000*%
G04 APERTURE END LIST*
D10*
X89372857Y-161958571D02*
X89372857Y-160458571D01*
X89730000Y-160458571D01*
X89944285Y-160530000D01*
X90087142Y-160672857D01*
X90158571Y-160815714D01*
X90230000Y-161101428D01*
X90230000Y-161315714D01*
X90158571Y-161601428D01*
X90087142Y-161744285D01*
X89944285Y-161887142D01*
X89730000Y-161958571D01*
X89372857Y-161958571D01*
X90872857Y-161958571D02*
X90872857Y-160458571D01*
X91230000Y-160458571D01*
X91444285Y-160530000D01*
X91587142Y-160672857D01*
X91658571Y-160815714D01*
X91730000Y-161101428D01*
X91730000Y-161315714D01*
X91658571Y-161601428D01*
X91587142Y-161744285D01*
X91444285Y-161887142D01*
X91230000Y-161958571D01*
X90872857Y-161958571D01*
X92301428Y-161887142D02*
X92515714Y-161958571D01*
X92872857Y-161958571D01*
X93015714Y-161887142D01*
X93087142Y-161815714D01*
X93158571Y-161672857D01*
X93158571Y-161530000D01*
X93087142Y-161387142D01*
X93015714Y-161315714D01*
X92872857Y-161244285D01*
X92587142Y-161172857D01*
X92444285Y-161101428D01*
X92372857Y-161030000D01*
X92301428Y-160887142D01*
X92301428Y-160744285D01*
X92372857Y-160601428D01*
X92444285Y-160530000D01*
X92587142Y-160458571D01*
X92944285Y-160458571D01*
X93158571Y-160530000D01*
X94730000Y-160458571D02*
X95230000Y-161958571D01*
X95730000Y-160458571D01*
X97087142Y-161815714D02*
X97015714Y-161887142D01*
X96801428Y-161958571D01*
X96658571Y-161958571D01*
X96444285Y-161887142D01*
X96301428Y-161744285D01*
X96230000Y-161601428D01*
X96158571Y-161315714D01*
X96158571Y-161101428D01*
X96230000Y-160815714D01*
X96301428Y-160672857D01*
X96444285Y-160530000D01*
X96658571Y-160458571D01*
X96801428Y-160458571D01*
X97015714Y-160530000D01*
X97087142Y-160601428D01*
X98015714Y-160458571D02*
X98301428Y-160458571D01*
X98444285Y-160530000D01*
X98587142Y-160672857D01*
X98658571Y-160958571D01*
X98658571Y-161458571D01*
X98587142Y-161744285D01*
X98444285Y-161887142D01*
X98301428Y-161958571D01*
X98015714Y-161958571D01*
X97872857Y-161887142D01*
X97730000Y-161744285D01*
X97658571Y-161458571D01*
X97658571Y-160958571D01*
X97730000Y-160672857D01*
X97872857Y-160530000D01*
X98015714Y-160458571D01*
X88158571Y-164365714D02*
X88087142Y-164437142D01*
X87872857Y-164508571D01*
X87730000Y-164508571D01*
X87515714Y-164437142D01*
X87372857Y-164294285D01*
X87301428Y-164151428D01*
X87230000Y-163865714D01*
X87230000Y-163651428D01*
X87301428Y-163365714D01*
X87372857Y-163222857D01*
X87515714Y-163080000D01*
X87730000Y-163008571D01*
X87872857Y-163008571D01*
X88087142Y-163080000D01*
X88158571Y-163151428D01*
X88801428Y-164508571D02*
X88801428Y-163008571D01*
X89444285Y-164508571D02*
X89444285Y-163722857D01*
X89372857Y-163580000D01*
X89230000Y-163508571D01*
X89015714Y-163508571D01*
X88872857Y-163580000D01*
X88801428Y-163651428D01*
X90158571Y-164508571D02*
X90158571Y-163508571D01*
X90158571Y-163794285D02*
X90230000Y-163651428D01*
X90301428Y-163580000D01*
X90444285Y-163508571D01*
X90587142Y-163508571D01*
X91087142Y-164508571D02*
X91087142Y-163508571D01*
X91087142Y-163008571D02*
X91015714Y-163080000D01*
X91087142Y-163151428D01*
X91158571Y-163080000D01*
X91087142Y-163008571D01*
X91087142Y-163151428D01*
X91730000Y-164437142D02*
X91872857Y-164508571D01*
X92158571Y-164508571D01*
X92301428Y-164437142D01*
X92372857Y-164294285D01*
X92372857Y-164222857D01*
X92301428Y-164080000D01*
X92158571Y-164008571D01*
X91944285Y-164008571D01*
X91801428Y-163937142D01*
X91730000Y-163794285D01*
X91730000Y-163722857D01*
X91801428Y-163580000D01*
X91944285Y-163508571D01*
X92158571Y-163508571D01*
X92301428Y-163580000D01*
X94087142Y-164437142D02*
X94301428Y-164508571D01*
X94658571Y-164508571D01*
X94801428Y-164437142D01*
X94872857Y-164365714D01*
X94944285Y-164222857D01*
X94944285Y-164080000D01*
X94872857Y-163937142D01*
X94801428Y-163865714D01*
X94658571Y-163794285D01*
X94372857Y-163722857D01*
X94230000Y-163651428D01*
X94158571Y-163580000D01*
X94087142Y-163437142D01*
X94087142Y-163294285D01*
X94158571Y-163151428D01*
X94230000Y-163080000D01*
X94372857Y-163008571D01*
X94730000Y-163008571D01*
X94944285Y-163080000D01*
X96230000Y-163508571D02*
X96230000Y-164508571D01*
X95587142Y-163508571D02*
X95587142Y-164294285D01*
X95658571Y-164437142D01*
X95801428Y-164508571D01*
X96015714Y-164508571D01*
X96158571Y-164437142D01*
X96230000Y-164365714D01*
X96730000Y-163508571D02*
X97301428Y-163508571D01*
X96944285Y-163008571D02*
X96944285Y-164294285D01*
X97015714Y-164437142D01*
X97158571Y-164508571D01*
X97301428Y-164508571D01*
X97587142Y-163508571D02*
X98158571Y-163508571D01*
X97801428Y-163008571D02*
X97801428Y-164294285D01*
X97872857Y-164437142D01*
X98015714Y-164508571D01*
X98158571Y-164508571D01*
X98872857Y-164508571D02*
X98730000Y-164437142D01*
X98658571Y-164365714D01*
X98587142Y-164222857D01*
X98587142Y-163794285D01*
X98658571Y-163651428D01*
X98730000Y-163580000D01*
X98872857Y-163508571D01*
X99087142Y-163508571D01*
X99230000Y-163580000D01*
X99301428Y-163651428D01*
X99372857Y-163794285D01*
X99372857Y-164222857D01*
X99301428Y-164365714D01*
X99230000Y-164437142D01*
X99087142Y-164508571D01*
X98872857Y-164508571D01*
X100015714Y-163508571D02*
X100015714Y-164508571D01*
X100015714Y-163651428D02*
X100087142Y-163580000D01*
X100230000Y-163508571D01*
X100444285Y-163508571D01*
X100587142Y-163580000D01*
X100658571Y-163722857D01*
X100658571Y-164508571D01*
X85872857Y-167058571D02*
X85372857Y-166344285D01*
X85015714Y-167058571D02*
X85015714Y-165558571D01*
X85587142Y-165558571D01*
X85730000Y-165630000D01*
X85801428Y-165701428D01*
X85872857Y-165844285D01*
X85872857Y-166058571D01*
X85801428Y-166201428D01*
X85730000Y-166272857D01*
X85587142Y-166344285D01*
X85015714Y-166344285D01*
X87087142Y-166987142D02*
X86944285Y-167058571D01*
X86658571Y-167058571D01*
X86515714Y-166987142D01*
X86444285Y-166844285D01*
X86444285Y-166272857D01*
X86515714Y-166130000D01*
X86658571Y-166058571D01*
X86944285Y-166058571D01*
X87087142Y-166130000D01*
X87158571Y-166272857D01*
X87158571Y-166415714D01*
X86444285Y-166558571D01*
X87658571Y-166058571D02*
X88015714Y-167058571D01*
X88372857Y-166058571D01*
X88872857Y-166630000D02*
X89587142Y-166630000D01*
X88730000Y-167058571D02*
X89230000Y-165558571D01*
X89730000Y-167058571D01*
X91301428Y-165701428D02*
X91372857Y-165630000D01*
X91515714Y-165558571D01*
X91872857Y-165558571D01*
X92015714Y-165630000D01*
X92087142Y-165701428D01*
X92158571Y-165844285D01*
X92158571Y-165987142D01*
X92087142Y-166201428D01*
X91230000Y-167058571D01*
X92158571Y-167058571D01*
X93087142Y-165558571D02*
X93230000Y-165558571D01*
X93372857Y-165630000D01*
X93444285Y-165701428D01*
X93515714Y-165844285D01*
X93587142Y-166130000D01*
X93587142Y-166487142D01*
X93515714Y-166772857D01*
X93444285Y-166915714D01*
X93372857Y-166987142D01*
X93230000Y-167058571D01*
X93087142Y-167058571D01*
X92944285Y-166987142D01*
X92872857Y-166915714D01*
X92801428Y-166772857D01*
X92730000Y-166487142D01*
X92730000Y-166130000D01*
X92801428Y-165844285D01*
X92872857Y-165701428D01*
X92944285Y-165630000D01*
X93087142Y-165558571D01*
X94230000Y-166487142D02*
X95372857Y-166487142D01*
X96872857Y-167058571D02*
X96015714Y-167058571D01*
X96444285Y-167058571D02*
X96444285Y-165558571D01*
X96301428Y-165772857D01*
X96158571Y-165915714D01*
X96015714Y-165987142D01*
X97801428Y-165558571D02*
X97944285Y-165558571D01*
X98087142Y-165630000D01*
X98158571Y-165701428D01*
X98230000Y-165844285D01*
X98301428Y-166130000D01*
X98301428Y-166487142D01*
X98230000Y-166772857D01*
X98158571Y-166915714D01*
X98087142Y-166987142D01*
X97944285Y-167058571D01*
X97801428Y-167058571D01*
X97658571Y-166987142D01*
X97587142Y-166915714D01*
X97515714Y-166772857D01*
X97444285Y-166487142D01*
X97444285Y-166130000D01*
X97515714Y-165844285D01*
X97587142Y-165701428D01*
X97658571Y-165630000D01*
X97801428Y-165558571D01*
X98944285Y-166487142D02*
X100087142Y-166487142D01*
X101587142Y-167058571D02*
X100730000Y-167058571D01*
X101158571Y-167058571D02*
X101158571Y-165558571D01*
X101015714Y-165772857D01*
X100872857Y-165915714D01*
X100730000Y-165987142D01*
X102444285Y-166201428D02*
X102301428Y-166130000D01*
X102230000Y-166058571D01*
X102158571Y-165915714D01*
X102158571Y-165844285D01*
X102230000Y-165701428D01*
X102301428Y-165630000D01*
X102444285Y-165558571D01*
X102730000Y-165558571D01*
X102872857Y-165630000D01*
X102944285Y-165701428D01*
X103015714Y-165844285D01*
X103015714Y-165915714D01*
X102944285Y-166058571D01*
X102872857Y-166130000D01*
X102730000Y-166201428D01*
X102444285Y-166201428D01*
X102301428Y-166272857D01*
X102230000Y-166344285D01*
X102158571Y-166487142D01*
X102158571Y-166772857D01*
X102230000Y-166915714D01*
X102301428Y-166987142D01*
X102444285Y-167058571D01*
X102730000Y-167058571D01*
X102872857Y-166987142D01*
X102944285Y-166915714D01*
X103015714Y-166772857D01*
X103015714Y-166487142D01*
X102944285Y-166344285D01*
X102872857Y-166272857D01*
X102730000Y-166201428D01*
D11*
X71136000Y-217638380D02*
X71326476Y-217638380D01*
X71421714Y-217686000D01*
X71516952Y-217781238D01*
X71564571Y-217971714D01*
X71564571Y-218305047D01*
X71516952Y-218495523D01*
X71421714Y-218590761D01*
X71326476Y-218638380D01*
X71136000Y-218638380D01*
X71040761Y-218590761D01*
X70945523Y-218495523D01*
X70897904Y-218305047D01*
X70897904Y-217971714D01*
X70945523Y-217781238D01*
X71040761Y-217686000D01*
X71136000Y-217638380D01*
X71993142Y-217638380D02*
X71993142Y-218447904D01*
X72040761Y-218543142D01*
X72088380Y-218590761D01*
X72183619Y-218638380D01*
X72374095Y-218638380D01*
X72469333Y-218590761D01*
X72516952Y-218543142D01*
X72564571Y-218447904D01*
X72564571Y-217638380D01*
X72897904Y-217638380D02*
X73469333Y-217638380D01*
X73183619Y-218638380D02*
X73183619Y-217638380D01*
D12*
X74422000Y-218186000D02*
X75438000Y-219202000D01*
X74422000Y-218186000D02*
X75438000Y-217170000D01*
X80772000Y-218186000D02*
X74422000Y-218186000D01*
X91440000Y-210566000D02*
X80772000Y-218186000D01*
X91440000Y-208026000D02*
X91440000Y-210566000D01*
D11*
X63262666Y-72588380D02*
X63262666Y-71588380D01*
X63596000Y-72302666D01*
X63929333Y-71588380D01*
X63929333Y-72588380D01*
X64596000Y-71588380D02*
X64786476Y-71588380D01*
X64881714Y-71636000D01*
X64976952Y-71731238D01*
X65024571Y-71921714D01*
X65024571Y-72255047D01*
X64976952Y-72445523D01*
X64881714Y-72540761D01*
X64786476Y-72588380D01*
X64596000Y-72588380D01*
X64500761Y-72540761D01*
X64405523Y-72445523D01*
X64357904Y-72255047D01*
X64357904Y-71921714D01*
X64405523Y-71731238D01*
X64500761Y-71636000D01*
X64596000Y-71588380D01*
X65453142Y-71588380D02*
X65453142Y-72397904D01*
X65500761Y-72493142D01*
X65548380Y-72540761D01*
X65643619Y-72588380D01*
X65834095Y-72588380D01*
X65929333Y-72540761D01*
X65976952Y-72493142D01*
X66024571Y-72397904D01*
X66024571Y-71588380D01*
X66500761Y-72588380D02*
X66500761Y-71588380D01*
X67072190Y-72588380D01*
X67072190Y-71588380D01*
X67405523Y-71588380D02*
X67976952Y-71588380D01*
X67691238Y-72588380D02*
X67691238Y-71588380D01*
X68929333Y-71588380D02*
X69500761Y-71588380D01*
X69215047Y-72588380D02*
X69215047Y-71588380D01*
X69834095Y-72588380D02*
X69834095Y-71588380D01*
X69834095Y-72064571D02*
X70405523Y-72064571D01*
X70405523Y-72588380D02*
X70405523Y-71588380D01*
X70881714Y-72588380D02*
X70881714Y-71588380D01*
X71310285Y-72540761D02*
X71453142Y-72588380D01*
X71691238Y-72588380D01*
X71786476Y-72540761D01*
X71834095Y-72493142D01*
X71881714Y-72397904D01*
X71881714Y-72302666D01*
X71834095Y-72207428D01*
X71786476Y-72159809D01*
X71691238Y-72112190D01*
X71500761Y-72064571D01*
X71405523Y-72016952D01*
X71357904Y-71969333D01*
X71310285Y-71874095D01*
X71310285Y-71778857D01*
X71357904Y-71683619D01*
X71405523Y-71636000D01*
X71500761Y-71588380D01*
X71738857Y-71588380D01*
X71881714Y-71636000D01*
X73024571Y-72540761D02*
X73167428Y-72588380D01*
X73405523Y-72588380D01*
X73500761Y-72540761D01*
X73548380Y-72493142D01*
X73596000Y-72397904D01*
X73596000Y-72302666D01*
X73548380Y-72207428D01*
X73500761Y-72159809D01*
X73405523Y-72112190D01*
X73215047Y-72064571D01*
X73119809Y-72016952D01*
X73072190Y-71969333D01*
X73024571Y-71874095D01*
X73024571Y-71778857D01*
X73072190Y-71683619D01*
X73119809Y-71636000D01*
X73215047Y-71588380D01*
X73453142Y-71588380D01*
X73596000Y-71636000D01*
X74024571Y-72588380D02*
X74024571Y-71588380D01*
X74500761Y-72588380D02*
X74500761Y-71588380D01*
X74738857Y-71588380D01*
X74881714Y-71636000D01*
X74976952Y-71731238D01*
X75024571Y-71826476D01*
X75072190Y-72016952D01*
X75072190Y-72159809D01*
X75024571Y-72350285D01*
X74976952Y-72445523D01*
X74881714Y-72540761D01*
X74738857Y-72588380D01*
X74500761Y-72588380D01*
X75500761Y-72064571D02*
X75834095Y-72064571D01*
X75976952Y-72588380D02*
X75500761Y-72588380D01*
X75500761Y-71588380D01*
X75976952Y-71588380D01*
X93035380Y-107211095D02*
X92035380Y-107211095D01*
X92035380Y-106830142D01*
X92083000Y-106734904D01*
X92130619Y-106687285D01*
X92225857Y-106639666D01*
X92368714Y-106639666D01*
X92463952Y-106687285D01*
X92511571Y-106734904D01*
X92559190Y-106830142D01*
X92559190Y-107211095D01*
X93035380Y-105734904D02*
X93035380Y-106211095D01*
X92035380Y-106211095D01*
X92035380Y-105401571D02*
X92844904Y-105401571D01*
X92940142Y-105353952D01*
X92987761Y-105306333D01*
X93035380Y-105211095D01*
X93035380Y-105020619D01*
X92987761Y-104925380D01*
X92940142Y-104877761D01*
X92844904Y-104830142D01*
X92035380Y-104830142D01*
X92083000Y-103830142D02*
X92035380Y-103925380D01*
X92035380Y-104068238D01*
X92083000Y-104211095D01*
X92178238Y-104306333D01*
X92273476Y-104353952D01*
X92463952Y-104401571D01*
X92606809Y-104401571D01*
X92797285Y-104353952D01*
X92892523Y-104306333D01*
X92987761Y-104211095D01*
X93035380Y-104068238D01*
X93035380Y-103973000D01*
X92987761Y-103830142D01*
X92940142Y-103782523D01*
X92606809Y-103782523D01*
X92606809Y-103973000D01*
X92035380Y-102734904D02*
X92035380Y-102163476D01*
X93035380Y-102449190D02*
X92035380Y-102449190D01*
X93035380Y-101830142D02*
X92035380Y-101830142D01*
X92511571Y-101830142D02*
X92511571Y-101258714D01*
X93035380Y-101258714D02*
X92035380Y-101258714D01*
X93035380Y-100782523D02*
X92035380Y-100782523D01*
X92987761Y-100353952D02*
X93035380Y-100211095D01*
X93035380Y-99973000D01*
X92987761Y-99877761D01*
X92940142Y-99830142D01*
X92844904Y-99782523D01*
X92749666Y-99782523D01*
X92654428Y-99830142D01*
X92606809Y-99877761D01*
X92559190Y-99973000D01*
X92511571Y-100163476D01*
X92463952Y-100258714D01*
X92416333Y-100306333D01*
X92321095Y-100353952D01*
X92225857Y-100353952D01*
X92130619Y-100306333D01*
X92083000Y-100258714D01*
X92035380Y-100163476D01*
X92035380Y-99925380D01*
X92083000Y-99782523D01*
X92987761Y-98639666D02*
X93035380Y-98496809D01*
X93035380Y-98258714D01*
X92987761Y-98163476D01*
X92940142Y-98115857D01*
X92844904Y-98068238D01*
X92749666Y-98068238D01*
X92654428Y-98115857D01*
X92606809Y-98163476D01*
X92559190Y-98258714D01*
X92511571Y-98449190D01*
X92463952Y-98544428D01*
X92416333Y-98592047D01*
X92321095Y-98639666D01*
X92225857Y-98639666D01*
X92130619Y-98592047D01*
X92083000Y-98544428D01*
X92035380Y-98449190D01*
X92035380Y-98211095D01*
X92083000Y-98068238D01*
X93035380Y-97639666D02*
X92035380Y-97639666D01*
X93035380Y-97163476D02*
X92035380Y-97163476D01*
X92035380Y-96925380D01*
X92083000Y-96782523D01*
X92178238Y-96687285D01*
X92273476Y-96639666D01*
X92463952Y-96592047D01*
X92606809Y-96592047D01*
X92797285Y-96639666D01*
X92892523Y-96687285D01*
X92987761Y-96782523D01*
X93035380Y-96925380D01*
X93035380Y-97163476D01*
X92511571Y-96163476D02*
X92511571Y-95830142D01*
X93035380Y-95687285D02*
X93035380Y-96163476D01*
X92035380Y-96163476D01*
X92035380Y-95687285D01*
D12*
X83820000Y-221488000D02*
X76708000Y-221488000D01*
X76708000Y-214884000D02*
X83820000Y-214884000D01*
X76708000Y-223520000D02*
X55880000Y-223520000D01*
X76708000Y-213360000D02*
X76708000Y-223520000D01*
X55880000Y-213360000D02*
X76708000Y-213360000D01*
X109924407Y-183649772D02*
X127958407Y-183649772D01*
D11*
X116784380Y-176767333D02*
X115784380Y-176767333D01*
X116498666Y-176434000D01*
X115784380Y-176100666D01*
X116784380Y-176100666D01*
X115784380Y-175434000D02*
X115784380Y-175243523D01*
X115832000Y-175148285D01*
X115927238Y-175053047D01*
X116117714Y-175005428D01*
X116451047Y-175005428D01*
X116641523Y-175053047D01*
X116736761Y-175148285D01*
X116784380Y-175243523D01*
X116784380Y-175434000D01*
X116736761Y-175529238D01*
X116641523Y-175624476D01*
X116451047Y-175672095D01*
X116117714Y-175672095D01*
X115927238Y-175624476D01*
X115832000Y-175529238D01*
X115784380Y-175434000D01*
X115784380Y-174576857D02*
X116593904Y-174576857D01*
X116689142Y-174529238D01*
X116736761Y-174481619D01*
X116784380Y-174386380D01*
X116784380Y-174195904D01*
X116736761Y-174100666D01*
X116689142Y-174053047D01*
X116593904Y-174005428D01*
X115784380Y-174005428D01*
X116784380Y-173529238D02*
X115784380Y-173529238D01*
X116784380Y-172957809D01*
X115784380Y-172957809D01*
X115784380Y-172624476D02*
X115784380Y-172053047D01*
X116784380Y-172338761D02*
X115784380Y-172338761D01*
X115784380Y-171100666D02*
X115784380Y-170529238D01*
X116784380Y-170814952D02*
X115784380Y-170814952D01*
X116784380Y-170195904D02*
X115784380Y-170195904D01*
X116260571Y-170195904D02*
X116260571Y-169624476D01*
X116784380Y-169624476D02*
X115784380Y-169624476D01*
X116784380Y-169148285D02*
X115784380Y-169148285D01*
X116736761Y-168719714D02*
X116784380Y-168576857D01*
X116784380Y-168338761D01*
X116736761Y-168243523D01*
X116689142Y-168195904D01*
X116593904Y-168148285D01*
X116498666Y-168148285D01*
X116403428Y-168195904D01*
X116355809Y-168243523D01*
X116308190Y-168338761D01*
X116260571Y-168529238D01*
X116212952Y-168624476D01*
X116165333Y-168672095D01*
X116070095Y-168719714D01*
X115974857Y-168719714D01*
X115879619Y-168672095D01*
X115832000Y-168624476D01*
X115784380Y-168529238D01*
X115784380Y-168291142D01*
X115832000Y-168148285D01*
X116736761Y-167005428D02*
X116784380Y-166862571D01*
X116784380Y-166624476D01*
X116736761Y-166529238D01*
X116689142Y-166481619D01*
X116593904Y-166434000D01*
X116498666Y-166434000D01*
X116403428Y-166481619D01*
X116355809Y-166529238D01*
X116308190Y-166624476D01*
X116260571Y-166814952D01*
X116212952Y-166910190D01*
X116165333Y-166957809D01*
X116070095Y-167005428D01*
X115974857Y-167005428D01*
X115879619Y-166957809D01*
X115832000Y-166910190D01*
X115784380Y-166814952D01*
X115784380Y-166576857D01*
X115832000Y-166434000D01*
X116784380Y-166005428D02*
X115784380Y-166005428D01*
X116784380Y-165529238D02*
X115784380Y-165529238D01*
X115784380Y-165291142D01*
X115832000Y-165148285D01*
X115927238Y-165053047D01*
X116022476Y-165005428D01*
X116212952Y-164957809D01*
X116355809Y-164957809D01*
X116546285Y-165005428D01*
X116641523Y-165053047D01*
X116736761Y-165148285D01*
X116784380Y-165291142D01*
X116784380Y-165529238D01*
X116260571Y-164529238D02*
X116260571Y-164195904D01*
X116784380Y-164053047D02*
X116784380Y-164529238D01*
X115784380Y-164529238D01*
X115784380Y-164053047D01*
D12*
X116713000Y-93218000D02*
X117856000Y-91948000D01*
X116713000Y-93218000D02*
X115570000Y-91948000D01*
X116713000Y-89408000D02*
X116713000Y-93218000D01*
D11*
X119086380Y-92447904D02*
X119895904Y-92447904D01*
X119991142Y-92400285D01*
X120038761Y-92352666D01*
X120086380Y-92257428D01*
X120086380Y-92066952D01*
X120038761Y-91971714D01*
X119991142Y-91924095D01*
X119895904Y-91876476D01*
X119086380Y-91876476D01*
X120038761Y-91447904D02*
X120086380Y-91305047D01*
X120086380Y-91066952D01*
X120038761Y-90971714D01*
X119991142Y-90924095D01*
X119895904Y-90876476D01*
X119800666Y-90876476D01*
X119705428Y-90924095D01*
X119657809Y-90971714D01*
X119610190Y-91066952D01*
X119562571Y-91257428D01*
X119514952Y-91352666D01*
X119467333Y-91400285D01*
X119372095Y-91447904D01*
X119276857Y-91447904D01*
X119181619Y-91400285D01*
X119134000Y-91352666D01*
X119086380Y-91257428D01*
X119086380Y-91019333D01*
X119134000Y-90876476D01*
X119562571Y-90114571D02*
X119610190Y-89971714D01*
X119657809Y-89924095D01*
X119753047Y-89876476D01*
X119895904Y-89876476D01*
X119991142Y-89924095D01*
X120038761Y-89971714D01*
X120086380Y-90066952D01*
X120086380Y-90447904D01*
X119086380Y-90447904D01*
X119086380Y-90114571D01*
X119134000Y-90019333D01*
X119181619Y-89971714D01*
X119276857Y-89924095D01*
X119372095Y-89924095D01*
X119467333Y-89971714D01*
X119514952Y-90019333D01*
X119562571Y-90114571D01*
X119562571Y-90447904D01*
X118054380Y-116061333D02*
X117054380Y-116061333D01*
X117768666Y-115728000D01*
X117054380Y-115394666D01*
X118054380Y-115394666D01*
X117054380Y-114728000D02*
X117054380Y-114537523D01*
X117102000Y-114442285D01*
X117197238Y-114347047D01*
X117387714Y-114299428D01*
X117721047Y-114299428D01*
X117911523Y-114347047D01*
X118006761Y-114442285D01*
X118054380Y-114537523D01*
X118054380Y-114728000D01*
X118006761Y-114823238D01*
X117911523Y-114918476D01*
X117721047Y-114966095D01*
X117387714Y-114966095D01*
X117197238Y-114918476D01*
X117102000Y-114823238D01*
X117054380Y-114728000D01*
X117054380Y-113870857D02*
X117863904Y-113870857D01*
X117959142Y-113823238D01*
X118006761Y-113775619D01*
X118054380Y-113680380D01*
X118054380Y-113489904D01*
X118006761Y-113394666D01*
X117959142Y-113347047D01*
X117863904Y-113299428D01*
X117054380Y-113299428D01*
X118054380Y-112823238D02*
X117054380Y-112823238D01*
X118054380Y-112251809D01*
X117054380Y-112251809D01*
X117054380Y-111918476D02*
X117054380Y-111347047D01*
X118054380Y-111632761D02*
X117054380Y-111632761D01*
X117054380Y-110394666D02*
X117054380Y-109823238D01*
X118054380Y-110108952D02*
X117054380Y-110108952D01*
X118054380Y-109489904D02*
X117054380Y-109489904D01*
X117530571Y-109489904D02*
X117530571Y-108918476D01*
X118054380Y-108918476D02*
X117054380Y-108918476D01*
X118054380Y-108442285D02*
X117054380Y-108442285D01*
X118006761Y-108013714D02*
X118054380Y-107870857D01*
X118054380Y-107632761D01*
X118006761Y-107537523D01*
X117959142Y-107489904D01*
X117863904Y-107442285D01*
X117768666Y-107442285D01*
X117673428Y-107489904D01*
X117625809Y-107537523D01*
X117578190Y-107632761D01*
X117530571Y-107823238D01*
X117482952Y-107918476D01*
X117435333Y-107966095D01*
X117340095Y-108013714D01*
X117244857Y-108013714D01*
X117149619Y-107966095D01*
X117102000Y-107918476D01*
X117054380Y-107823238D01*
X117054380Y-107585142D01*
X117102000Y-107442285D01*
X118006761Y-106299428D02*
X118054380Y-106156571D01*
X118054380Y-105918476D01*
X118006761Y-105823238D01*
X117959142Y-105775619D01*
X117863904Y-105728000D01*
X117768666Y-105728000D01*
X117673428Y-105775619D01*
X117625809Y-105823238D01*
X117578190Y-105918476D01*
X117530571Y-106108952D01*
X117482952Y-106204190D01*
X117435333Y-106251809D01*
X117340095Y-106299428D01*
X117244857Y-106299428D01*
X117149619Y-106251809D01*
X117102000Y-106204190D01*
X117054380Y-106108952D01*
X117054380Y-105870857D01*
X117102000Y-105728000D01*
X118054380Y-105299428D02*
X117054380Y-105299428D01*
X118054380Y-104823238D02*
X117054380Y-104823238D01*
X117054380Y-104585142D01*
X117102000Y-104442285D01*
X117197238Y-104347047D01*
X117292476Y-104299428D01*
X117482952Y-104251809D01*
X117625809Y-104251809D01*
X117816285Y-104299428D01*
X117911523Y-104347047D01*
X118006761Y-104442285D01*
X118054380Y-104585142D01*
X118054380Y-104823238D01*
X117530571Y-103823238D02*
X117530571Y-103489904D01*
X118054380Y-103347047D02*
X118054380Y-103823238D01*
X117054380Y-103823238D01*
X117054380Y-103347047D01*
D13*
X95250000Y-109728000D02*
X100330000Y-109728000D01*
D12*
X109924407Y-157741772D02*
X109924407Y-183649772D01*
X127958407Y-157741772D02*
X109924407Y-157741772D01*
X127958407Y-183649772D02*
X127958407Y-157741772D01*
X55511629Y-67828464D02*
X55511629Y-94752464D01*
X83451629Y-67828464D02*
X55511629Y-67828464D01*
X83451629Y-94752464D02*
X83451629Y-67828464D01*
X55511629Y-94752464D02*
X83451629Y-94752464D01*
D14*
G04 #@! TO.C,RV_UPOFF1*
X84670075Y-204453137D02*
G75*
G02X84314000Y-205995000I-3270075J-56863D01*
G01*
X82885202Y-207423387D02*
G75*
G02X79916000Y-207424000I-1485202J2913387D01*
G01*
X78486171Y-205993968D02*
G75*
G02X80336000Y-201418000I2913829J1483968D01*
G01*
X82464608Y-201418154D02*
G75*
G02X84670000Y-204510000I-1064608J-3091846D01*
G01*
G04 #@! TO.C,A1*
X108455000Y-132210000D02*
X126495000Y-132210000D01*
X108455000Y-88770000D02*
X108455000Y-132210000D01*
X126495000Y-88770000D02*
X108455000Y-88770000D01*
X123825000Y-91440000D02*
X126495000Y-91440000D01*
X123825000Y-127000000D02*
X123825000Y-91440000D01*
X123825000Y-127000000D02*
X126495000Y-127000000D01*
X111125000Y-91440000D02*
X108455000Y-91440000D01*
X111125000Y-129540000D02*
X111125000Y-91440000D01*
X111125000Y-129540000D02*
X108455000Y-129540000D01*
X126495000Y-132210000D02*
X126495000Y-129540000D01*
X126495000Y-127000000D02*
X126495000Y-88770000D01*
X123825000Y-129540000D02*
X126495000Y-129540000D01*
X123825000Y-127000000D02*
X123825000Y-129540000D01*
D15*
G04 #@! TO.C,RV_FREQ1*
X67310000Y-147066000D02*
X67310000Y-137414000D01*
X67310000Y-137414000D02*
X79375000Y-137414000D01*
X79375000Y-137414000D02*
X79375000Y-147066000D01*
X79375000Y-147066000D02*
X67310000Y-147066000D01*
X67310000Y-146812000D02*
X57150000Y-146812000D01*
X57150000Y-146812000D02*
X57150000Y-137668000D01*
X57150000Y-137668000D02*
X67310000Y-137668000D01*
X57150000Y-145288000D02*
X46990000Y-145288000D01*
X46990000Y-145288000D02*
X46990000Y-139192000D01*
X46990000Y-139192000D02*
X57150000Y-139192000D01*
X46990000Y-144018000D02*
X36830000Y-144018000D01*
X36830000Y-144018000D02*
X36830000Y-140462000D01*
X36830000Y-140462000D02*
X46990000Y-140462000D01*
D14*
G04 #@! TO.C,RG1*
X95242748Y-182932000D02*
X95765252Y-182932000D01*
X95242748Y-184352000D02*
X95765252Y-184352000D01*
G04 #@! TO.C,RF1*
X95242748Y-189940000D02*
X95765252Y-189940000D01*
X95242748Y-188520000D02*
X95765252Y-188520000D01*
D15*
G04 #@! TO.C,SW_PWR1*
X80264000Y-111887000D02*
X69342000Y-111887000D01*
X69342000Y-111887000D02*
X69342000Y-122047000D01*
X69342000Y-122047000D02*
X80264000Y-122047000D01*
X80264000Y-121539000D02*
X94234000Y-121539000D01*
X94234000Y-121412000D02*
X94234000Y-112522000D01*
X94234000Y-112395000D02*
X80264000Y-112395000D01*
X80264000Y-112395000D02*
X80264000Y-111887000D01*
X80264000Y-121539000D02*
X80264000Y-122047000D01*
X69342000Y-120777000D02*
X66294000Y-120777000D01*
X66294000Y-121285000D02*
X66294000Y-112649000D01*
X66294000Y-113157000D02*
X69342000Y-113157000D01*
X66040000Y-115443000D02*
X56896000Y-115443000D01*
X66040000Y-118491000D02*
X56896000Y-118491000D01*
X56896000Y-115443000D02*
X56896000Y-118491000D01*
X66040000Y-121285000D02*
X66040000Y-112649000D01*
X66040000Y-112649000D02*
X66294000Y-112649000D01*
X66294000Y-121285000D02*
X66040000Y-121285000D01*
D14*
G04 #@! TO.C,J_OUT1*
X91694000Y-205800000D02*
X91694000Y-203140000D01*
X91694000Y-205800000D02*
X94294000Y-205800000D01*
X94294000Y-205800000D02*
X94294000Y-203140000D01*
X91694000Y-203140000D02*
X94294000Y-203140000D01*
X89094000Y-203140000D02*
X90424000Y-203140000D01*
X89094000Y-204470000D02*
X89094000Y-203140000D01*
G04 #@! TO.C,J_PWR1*
X95190000Y-108010000D02*
X100390000Y-108010000D01*
X95190000Y-97790000D02*
X95190000Y-108010000D01*
X100390000Y-95190000D02*
X100390000Y-108010000D01*
X95190000Y-97790000D02*
X97790000Y-97790000D01*
X97790000Y-97790000D02*
X97790000Y-95190000D01*
X97790000Y-95190000D02*
X100390000Y-95190000D01*
X95190000Y-96520000D02*
X95190000Y-95190000D01*
X95190000Y-95190000D02*
X96520000Y-95190000D01*
D15*
G04 #@! TO.C,U_POT1*
X110787000Y-202570000D02*
X110787000Y-202545000D01*
X106637000Y-202570000D02*
X106637000Y-202455000D01*
X106637000Y-193670000D02*
X106637000Y-193785000D01*
X110787000Y-193670000D02*
X110787000Y-193785000D01*
X110787000Y-202570000D02*
X106637000Y-202570000D01*
X110787000Y-193670000D02*
X106637000Y-193670000D01*
X110787000Y-202545000D02*
X112162000Y-202545000D01*
D14*
G04 #@! TO.C,R_LOFF1*
X73398748Y-210110000D02*
X73921252Y-210110000D01*
X73398748Y-211530000D02*
X73921252Y-211530000D01*
G04 #@! TO.C,C1*
X95960000Y-89654748D02*
X95960000Y-90177252D01*
X94540000Y-89654748D02*
X94540000Y-90177252D01*
G04 #@! TO.C,C2*
X99620000Y-89654748D02*
X99620000Y-90177252D01*
X101040000Y-89654748D02*
X101040000Y-90177252D01*
G04 #@! TO.C,J_AD9833*
X111194407Y-161491772D02*
X112524407Y-161491772D01*
X112524407Y-161491772D02*
X112524407Y-162821772D01*
X112524407Y-164091772D02*
X112524407Y-179391772D01*
X109864407Y-179391772D02*
X112524407Y-179391772D01*
X109864407Y-164091772D02*
X109864407Y-179391772D01*
X109864407Y-164091772D02*
X112524407Y-164091772D01*
G04 #@! TO.C,J_AUX2MAIN2*
X83445681Y-69880698D02*
X78245681Y-69880698D01*
X83445681Y-80100698D02*
X83445681Y-69880698D01*
X78245681Y-82700698D02*
X78245681Y-69880698D01*
X83445681Y-80100698D02*
X80845681Y-80100698D01*
X80845681Y-80100698D02*
X80845681Y-82700698D01*
X80845681Y-82700698D02*
X78245681Y-82700698D01*
X83445681Y-81370698D02*
X83445681Y-82700698D01*
X83445681Y-82700698D02*
X82115681Y-82700698D01*
G04 #@! TO.C,J_MAIN2AUX1*
X128330000Y-67504000D02*
X123130000Y-67504000D01*
X128330000Y-77724000D02*
X128330000Y-67504000D01*
X123130000Y-80324000D02*
X123130000Y-67504000D01*
X128330000Y-77724000D02*
X125730000Y-77724000D01*
X125730000Y-77724000D02*
X125730000Y-80324000D01*
X125730000Y-80324000D02*
X123130000Y-80324000D01*
X128330000Y-78994000D02*
X128330000Y-80324000D01*
X128330000Y-80324000D02*
X127000000Y-80324000D01*
G04 #@! TO.C,J_OLEDCONNECTOR1*
X66979646Y-70586447D02*
X66979646Y-67926447D01*
X66979646Y-70586447D02*
X74659646Y-70586447D01*
X74659646Y-70586447D02*
X74659646Y-67926447D01*
X66979646Y-67926447D02*
X74659646Y-67926447D01*
X64379646Y-67926447D02*
X65709646Y-67926447D01*
X64379646Y-69256447D02*
X64379646Y-67926447D01*
G04 #@! TO.C,R_ISO1*
X89714000Y-215130748D02*
X89714000Y-215653252D01*
X91134000Y-215130748D02*
X91134000Y-215653252D01*
G04 #@! TO.C,R_MIX1*
X82176252Y-193750000D02*
X81653748Y-193750000D01*
X82176252Y-192330000D02*
X81653748Y-192330000D01*
G04 #@! TO.C,R_MIX2*
X74160748Y-186130000D02*
X74683252Y-186130000D01*
X74160748Y-184710000D02*
X74683252Y-184710000D01*
G04 #@! TO.C,R_VEL1*
X72592000Y-160266748D02*
X72592000Y-160789252D01*
X71172000Y-160266748D02*
X71172000Y-160789252D01*
G04 #@! TO.C,SW_FUNC1*
X60163681Y-101515698D02*
X60163681Y-100015698D01*
X58913681Y-97515698D02*
X54413681Y-97515698D01*
X53163681Y-100015698D02*
X53163681Y-101515698D01*
X54413681Y-104015698D02*
X58913681Y-104015698D01*
G04 #@! TO.C,SW_MODE1*
X67113681Y-104015698D02*
X71613681Y-104015698D01*
X65863681Y-100015698D02*
X65863681Y-101515698D01*
X71613681Y-97515698D02*
X67113681Y-97515698D01*
X72863681Y-101515698D02*
X72863681Y-100015698D01*
G04 #@! TO.C,SW_RANGE1*
X79559681Y-104015698D02*
X84059681Y-104015698D01*
X78309681Y-100015698D02*
X78309681Y-101515698D01*
X84059681Y-97515698D02*
X79559681Y-97515698D01*
X85309681Y-101515698D02*
X85309681Y-100015698D01*
G04 #@! TO.C,U1*
X92670000Y-82328000D02*
X102910000Y-82328000D01*
X92670000Y-86969000D02*
X102910000Y-86969000D01*
X92670000Y-82328000D02*
X92670000Y-86969000D01*
X102910000Y-82328000D02*
X102910000Y-86969000D01*
X92670000Y-83838000D02*
X102910000Y-83838000D01*
X95940000Y-82328000D02*
X95940000Y-83838000D01*
X99641000Y-82328000D02*
X99641000Y-83838000D01*
G04 #@! TO.C,C_GAIN1*
X100405000Y-222623748D02*
X100405000Y-223146252D01*
X98985000Y-222623748D02*
X98985000Y-223146252D01*
G04 #@! TO.C,R_HIOFF1*
X81541252Y-210110000D02*
X81018748Y-210110000D01*
X81541252Y-211530000D02*
X81018748Y-211530000D01*
G04 #@! TO.C,TP_OFF1*
X76130000Y-180340000D02*
G75*
G03X76130000Y-180340000I-1200000J0D01*
G01*
G04 #@! TO.C,R_MIX3*
X113590000Y-194825252D02*
X113590000Y-194302748D01*
X115010000Y-194825252D02*
X115010000Y-194302748D01*
G04 #@! TO.C,RF2*
X95623748Y-220905000D02*
X96146252Y-220905000D01*
X95623748Y-222325000D02*
X96146252Y-222325000D01*
G04 #@! TO.C,ROFF1*
X108846252Y-203760000D02*
X108323748Y-203760000D01*
X108846252Y-205180000D02*
X108323748Y-205180000D01*
G04 #@! TO.C,ROFF2*
X116892000Y-194302748D02*
X116892000Y-194825252D01*
X118312000Y-194302748D02*
X118312000Y-194825252D01*
G04 #@! TO.C,CF2*
X95623748Y-223445000D02*
X96146252Y-223445000D01*
X95623748Y-224865000D02*
X96146252Y-224865000D01*
D15*
G04 #@! TO.C,U_BUFF1*
X97579000Y-196200000D02*
X98979000Y-196200000D01*
X97579000Y-191100000D02*
X93429000Y-191100000D01*
X97579000Y-196250000D02*
X93429000Y-196250000D01*
X97579000Y-191100000D02*
X97579000Y-191245000D01*
X93429000Y-191100000D02*
X93429000Y-191245000D01*
X93429000Y-196250000D02*
X93429000Y-196105000D01*
X97579000Y-196250000D02*
X97579000Y-196200000D01*
G04 #@! TO.C,U_MIX1*
X97960000Y-219745000D02*
X97960000Y-219695000D01*
X93810000Y-219745000D02*
X93810000Y-219600000D01*
X93810000Y-214595000D02*
X93810000Y-214740000D01*
X97960000Y-214595000D02*
X97960000Y-214740000D01*
X97960000Y-219745000D02*
X93810000Y-219745000D01*
X97960000Y-214595000D02*
X93810000Y-214595000D01*
X97960000Y-219695000D02*
X99360000Y-219695000D01*
D14*
G04 #@! TO.C,R_PHASE1*
X77926000Y-160266748D02*
X77926000Y-160789252D01*
X76506000Y-160266748D02*
X76506000Y-160789252D01*
D15*
G04 #@! TO.C,RV_AMP1*
X67310000Y-197866000D02*
X67310000Y-188214000D01*
X67310000Y-188214000D02*
X79375000Y-188214000D01*
X79375000Y-188214000D02*
X79375000Y-197866000D01*
X79375000Y-197866000D02*
X67310000Y-197866000D01*
X67310000Y-197612000D02*
X57150000Y-197612000D01*
X57150000Y-197612000D02*
X57150000Y-188468000D01*
X57150000Y-188468000D02*
X67310000Y-188468000D01*
X57150000Y-196088000D02*
X46990000Y-196088000D01*
X46990000Y-196088000D02*
X46990000Y-189992000D01*
X46990000Y-189992000D02*
X57150000Y-189992000D01*
X46990000Y-194818000D02*
X36830000Y-194818000D01*
X36830000Y-194818000D02*
X36830000Y-191262000D01*
X36830000Y-191262000D02*
X46990000Y-191262000D01*
G04 #@! TO.C,RV_TIME1*
X36830000Y-165862000D02*
X46990000Y-165862000D01*
X36830000Y-169418000D02*
X36830000Y-165862000D01*
X46990000Y-169418000D02*
X36830000Y-169418000D01*
X46990000Y-164592000D02*
X57150000Y-164592000D01*
X46990000Y-170688000D02*
X46990000Y-164592000D01*
X57150000Y-170688000D02*
X46990000Y-170688000D01*
X57150000Y-163068000D02*
X67310000Y-163068000D01*
X57150000Y-172212000D02*
X57150000Y-163068000D01*
X67310000Y-172212000D02*
X57150000Y-172212000D01*
X79375000Y-172466000D02*
X67310000Y-172466000D01*
X79375000Y-162814000D02*
X79375000Y-172466000D01*
X67310000Y-162814000D02*
X79375000Y-162814000D01*
X67310000Y-172466000D02*
X67310000Y-162814000D01*
D14*
G04 #@! TO.C,RV_LOWOFF1*
X74764608Y-201418154D02*
G75*
G02X76970000Y-204510000I-1064608J-3091846D01*
G01*
X70786171Y-205993968D02*
G75*
G02X72636000Y-201418000I2913829J1483968D01*
G01*
X75185202Y-207423387D02*
G75*
G02X72216000Y-207424000I-1485202J2913387D01*
G01*
X76970075Y-204453137D02*
G75*
G02X76614000Y-205995000I-3270075J-56863D01*
G01*
G04 #@! TO.C,CF1*
X95242748Y-185726000D02*
X95765252Y-185726000D01*
X95242748Y-187146000D02*
X95765252Y-187146000D01*
G04 #@! TO.C,RV_UPOFF1*
D16*
X79669523Y-200124190D02*
X79502857Y-199886095D01*
X79383809Y-200124190D02*
X79383809Y-199624190D01*
X79574285Y-199624190D01*
X79621904Y-199648000D01*
X79645714Y-199671809D01*
X79669523Y-199719428D01*
X79669523Y-199790857D01*
X79645714Y-199838476D01*
X79621904Y-199862285D01*
X79574285Y-199886095D01*
X79383809Y-199886095D01*
X79812380Y-199624190D02*
X79979047Y-200124190D01*
X80145714Y-199624190D01*
X80193333Y-200171809D02*
X80574285Y-200171809D01*
X80693333Y-199624190D02*
X80693333Y-200028952D01*
X80717142Y-200076571D01*
X80740952Y-200100380D01*
X80788571Y-200124190D01*
X80883809Y-200124190D01*
X80931428Y-200100380D01*
X80955238Y-200076571D01*
X80979047Y-200028952D01*
X80979047Y-199624190D01*
X81217142Y-200124190D02*
X81217142Y-199624190D01*
X81407619Y-199624190D01*
X81455238Y-199648000D01*
X81479047Y-199671809D01*
X81502857Y-199719428D01*
X81502857Y-199790857D01*
X81479047Y-199838476D01*
X81455238Y-199862285D01*
X81407619Y-199886095D01*
X81217142Y-199886095D01*
X81812380Y-199624190D02*
X81907619Y-199624190D01*
X81955238Y-199648000D01*
X82002857Y-199695619D01*
X82026666Y-199790857D01*
X82026666Y-199957523D01*
X82002857Y-200052761D01*
X81955238Y-200100380D01*
X81907619Y-200124190D01*
X81812380Y-200124190D01*
X81764761Y-200100380D01*
X81717142Y-200052761D01*
X81693333Y-199957523D01*
X81693333Y-199790857D01*
X81717142Y-199695619D01*
X81764761Y-199648000D01*
X81812380Y-199624190D01*
X82407619Y-199862285D02*
X82240952Y-199862285D01*
X82240952Y-200124190D02*
X82240952Y-199624190D01*
X82479047Y-199624190D01*
X82836190Y-199862285D02*
X82669523Y-199862285D01*
X82669523Y-200124190D02*
X82669523Y-199624190D01*
X82907619Y-199624190D01*
X83360000Y-200124190D02*
X83074285Y-200124190D01*
X83217142Y-200124190D02*
X83217142Y-199624190D01*
X83169523Y-199695619D01*
X83121904Y-199743238D01*
X83074285Y-199767047D01*
G04 #@! TO.C,A1*
X109116857Y-87967333D02*
X109354952Y-87967333D01*
X109069238Y-88110190D02*
X109235904Y-87610190D01*
X109402571Y-88110190D01*
X109831142Y-88110190D02*
X109545428Y-88110190D01*
X109688285Y-88110190D02*
X109688285Y-87610190D01*
X109640666Y-87681619D01*
X109593047Y-87729238D01*
X109545428Y-87753047D01*
G04 #@! TO.C,RV_FREQ1*
X76537523Y-136878190D02*
X76370857Y-136640095D01*
X76251809Y-136878190D02*
X76251809Y-136378190D01*
X76442285Y-136378190D01*
X76489904Y-136402000D01*
X76513714Y-136425809D01*
X76537523Y-136473428D01*
X76537523Y-136544857D01*
X76513714Y-136592476D01*
X76489904Y-136616285D01*
X76442285Y-136640095D01*
X76251809Y-136640095D01*
X76680380Y-136378190D02*
X76847047Y-136878190D01*
X77013714Y-136378190D01*
X77061333Y-136925809D02*
X77442285Y-136925809D01*
X77728000Y-136616285D02*
X77561333Y-136616285D01*
X77561333Y-136878190D02*
X77561333Y-136378190D01*
X77799428Y-136378190D01*
X78275619Y-136878190D02*
X78108952Y-136640095D01*
X77989904Y-136878190D02*
X77989904Y-136378190D01*
X78180380Y-136378190D01*
X78228000Y-136402000D01*
X78251809Y-136425809D01*
X78275619Y-136473428D01*
X78275619Y-136544857D01*
X78251809Y-136592476D01*
X78228000Y-136616285D01*
X78180380Y-136640095D01*
X77989904Y-136640095D01*
X78489904Y-136616285D02*
X78656571Y-136616285D01*
X78728000Y-136878190D02*
X78489904Y-136878190D01*
X78489904Y-136378190D01*
X78728000Y-136378190D01*
X79275619Y-136925809D02*
X79228000Y-136902000D01*
X79180380Y-136854380D01*
X79108952Y-136782952D01*
X79061333Y-136759142D01*
X79013714Y-136759142D01*
X79037523Y-136878190D02*
X78989904Y-136854380D01*
X78942285Y-136806761D01*
X78918476Y-136711523D01*
X78918476Y-136544857D01*
X78942285Y-136449619D01*
X78989904Y-136402000D01*
X79037523Y-136378190D01*
X79132761Y-136378190D01*
X79180380Y-136402000D01*
X79228000Y-136449619D01*
X79251809Y-136544857D01*
X79251809Y-136711523D01*
X79228000Y-136806761D01*
X79180380Y-136854380D01*
X79132761Y-136878190D01*
X79037523Y-136878190D01*
X79728000Y-136878190D02*
X79442285Y-136878190D01*
X79585142Y-136878190D02*
X79585142Y-136378190D01*
X79537523Y-136449619D01*
X79489904Y-136497238D01*
X79442285Y-136521047D01*
G04 #@! TO.C,RG1*
X92122666Y-183868190D02*
X91956000Y-183630095D01*
X91836952Y-183868190D02*
X91836952Y-183368190D01*
X92027428Y-183368190D01*
X92075047Y-183392000D01*
X92098857Y-183415809D01*
X92122666Y-183463428D01*
X92122666Y-183534857D01*
X92098857Y-183582476D01*
X92075047Y-183606285D01*
X92027428Y-183630095D01*
X91836952Y-183630095D01*
X92598857Y-183392000D02*
X92551238Y-183368190D01*
X92479809Y-183368190D01*
X92408380Y-183392000D01*
X92360761Y-183439619D01*
X92336952Y-183487238D01*
X92313142Y-183582476D01*
X92313142Y-183653904D01*
X92336952Y-183749142D01*
X92360761Y-183796761D01*
X92408380Y-183844380D01*
X92479809Y-183868190D01*
X92527428Y-183868190D01*
X92598857Y-183844380D01*
X92622666Y-183820571D01*
X92622666Y-183653904D01*
X92527428Y-183653904D01*
X93098857Y-183868190D02*
X92813142Y-183868190D01*
X92956000Y-183868190D02*
X92956000Y-183368190D01*
X92908380Y-183439619D01*
X92860761Y-183487238D01*
X92813142Y-183511047D01*
G04 #@! TO.C,RF1*
X92158380Y-189456190D02*
X91991714Y-189218095D01*
X91872666Y-189456190D02*
X91872666Y-188956190D01*
X92063142Y-188956190D01*
X92110761Y-188980000D01*
X92134571Y-189003809D01*
X92158380Y-189051428D01*
X92158380Y-189122857D01*
X92134571Y-189170476D01*
X92110761Y-189194285D01*
X92063142Y-189218095D01*
X91872666Y-189218095D01*
X92539333Y-189194285D02*
X92372666Y-189194285D01*
X92372666Y-189456190D02*
X92372666Y-188956190D01*
X92610761Y-188956190D01*
X93063142Y-189456190D02*
X92777428Y-189456190D01*
X92920285Y-189456190D02*
X92920285Y-188956190D01*
X92872666Y-189027619D01*
X92825047Y-189075238D01*
X92777428Y-189099047D01*
G04 #@! TO.C,SW_PWR1*
X69985142Y-123138380D02*
X70056571Y-123162190D01*
X70175619Y-123162190D01*
X70223238Y-123138380D01*
X70247047Y-123114571D01*
X70270857Y-123066952D01*
X70270857Y-123019333D01*
X70247047Y-122971714D01*
X70223238Y-122947904D01*
X70175619Y-122924095D01*
X70080380Y-122900285D01*
X70032761Y-122876476D01*
X70008952Y-122852666D01*
X69985142Y-122805047D01*
X69985142Y-122757428D01*
X70008952Y-122709809D01*
X70032761Y-122686000D01*
X70080380Y-122662190D01*
X70199428Y-122662190D01*
X70270857Y-122686000D01*
X70437523Y-122662190D02*
X70556571Y-123162190D01*
X70651809Y-122805047D01*
X70747047Y-123162190D01*
X70866095Y-122662190D01*
X70937523Y-123209809D02*
X71318476Y-123209809D01*
X71437523Y-123162190D02*
X71437523Y-122662190D01*
X71628000Y-122662190D01*
X71675619Y-122686000D01*
X71699428Y-122709809D01*
X71723238Y-122757428D01*
X71723238Y-122828857D01*
X71699428Y-122876476D01*
X71675619Y-122900285D01*
X71628000Y-122924095D01*
X71437523Y-122924095D01*
X71889904Y-122662190D02*
X72008952Y-123162190D01*
X72104190Y-122805047D01*
X72199428Y-123162190D01*
X72318476Y-122662190D01*
X72794666Y-123162190D02*
X72628000Y-122924095D01*
X72508952Y-123162190D02*
X72508952Y-122662190D01*
X72699428Y-122662190D01*
X72747047Y-122686000D01*
X72770857Y-122709809D01*
X72794666Y-122757428D01*
X72794666Y-122828857D01*
X72770857Y-122876476D01*
X72747047Y-122900285D01*
X72699428Y-122924095D01*
X72508952Y-122924095D01*
X73270857Y-123162190D02*
X72985142Y-123162190D01*
X73128000Y-123162190D02*
X73128000Y-122662190D01*
X73080380Y-122733619D01*
X73032761Y-122781238D01*
X72985142Y-122805047D01*
G04 #@! TO.C,J_OUT1*
X90622571Y-206736190D02*
X90622571Y-207093333D01*
X90598761Y-207164761D01*
X90551142Y-207212380D01*
X90479714Y-207236190D01*
X90432095Y-207236190D01*
X90741619Y-207283809D02*
X91122571Y-207283809D01*
X91336857Y-206736190D02*
X91432095Y-206736190D01*
X91479714Y-206760000D01*
X91527333Y-206807619D01*
X91551142Y-206902857D01*
X91551142Y-207069523D01*
X91527333Y-207164761D01*
X91479714Y-207212380D01*
X91432095Y-207236190D01*
X91336857Y-207236190D01*
X91289238Y-207212380D01*
X91241619Y-207164761D01*
X91217809Y-207069523D01*
X91217809Y-206902857D01*
X91241619Y-206807619D01*
X91289238Y-206760000D01*
X91336857Y-206736190D01*
X91765428Y-206736190D02*
X91765428Y-207140952D01*
X91789238Y-207188571D01*
X91813047Y-207212380D01*
X91860666Y-207236190D01*
X91955904Y-207236190D01*
X92003523Y-207212380D01*
X92027333Y-207188571D01*
X92051142Y-207140952D01*
X92051142Y-206736190D01*
X92217809Y-206736190D02*
X92503523Y-206736190D01*
X92360666Y-207236190D02*
X92360666Y-206736190D01*
X92932095Y-207236190D02*
X92646380Y-207236190D01*
X92789238Y-207236190D02*
X92789238Y-206736190D01*
X92741619Y-206807619D01*
X92694000Y-206855238D01*
X92646380Y-206879047D01*
G04 #@! TO.C,J_PWR1*
X96774142Y-93960190D02*
X96774142Y-94317333D01*
X96750333Y-94388761D01*
X96702714Y-94436380D01*
X96631285Y-94460190D01*
X96583666Y-94460190D01*
X96893190Y-94507809D02*
X97274142Y-94507809D01*
X97393190Y-94460190D02*
X97393190Y-93960190D01*
X97583666Y-93960190D01*
X97631285Y-93984000D01*
X97655095Y-94007809D01*
X97678904Y-94055428D01*
X97678904Y-94126857D01*
X97655095Y-94174476D01*
X97631285Y-94198285D01*
X97583666Y-94222095D01*
X97393190Y-94222095D01*
X97845571Y-93960190D02*
X97964619Y-94460190D01*
X98059857Y-94103047D01*
X98155095Y-94460190D01*
X98274142Y-93960190D01*
X98750333Y-94460190D02*
X98583666Y-94222095D01*
X98464619Y-94460190D02*
X98464619Y-93960190D01*
X98655095Y-93960190D01*
X98702714Y-93984000D01*
X98726523Y-94007809D01*
X98750333Y-94055428D01*
X98750333Y-94126857D01*
X98726523Y-94174476D01*
X98702714Y-94198285D01*
X98655095Y-94222095D01*
X98464619Y-94222095D01*
X99226523Y-94460190D02*
X98940809Y-94460190D01*
X99083666Y-94460190D02*
X99083666Y-93960190D01*
X99036047Y-94031619D01*
X98988428Y-94079238D01*
X98940809Y-94103047D01*
G04 #@! TO.C,U_POT1*
X107692190Y-192258190D02*
X107692190Y-192662952D01*
X107716000Y-192710571D01*
X107739809Y-192734380D01*
X107787428Y-192758190D01*
X107882666Y-192758190D01*
X107930285Y-192734380D01*
X107954095Y-192710571D01*
X107977904Y-192662952D01*
X107977904Y-192258190D01*
X108096952Y-192805809D02*
X108477904Y-192805809D01*
X108596952Y-192758190D02*
X108596952Y-192258190D01*
X108787428Y-192258190D01*
X108835047Y-192282000D01*
X108858857Y-192305809D01*
X108882666Y-192353428D01*
X108882666Y-192424857D01*
X108858857Y-192472476D01*
X108835047Y-192496285D01*
X108787428Y-192520095D01*
X108596952Y-192520095D01*
X109192190Y-192258190D02*
X109287428Y-192258190D01*
X109335047Y-192282000D01*
X109382666Y-192329619D01*
X109406476Y-192424857D01*
X109406476Y-192591523D01*
X109382666Y-192686761D01*
X109335047Y-192734380D01*
X109287428Y-192758190D01*
X109192190Y-192758190D01*
X109144571Y-192734380D01*
X109096952Y-192686761D01*
X109073142Y-192591523D01*
X109073142Y-192424857D01*
X109096952Y-192329619D01*
X109144571Y-192282000D01*
X109192190Y-192258190D01*
X109549333Y-192258190D02*
X109835047Y-192258190D01*
X109692190Y-192758190D02*
X109692190Y-192258190D01*
X110263619Y-192758190D02*
X109977904Y-192758190D01*
X110120761Y-192758190D02*
X110120761Y-192258190D01*
X110073142Y-192329619D01*
X110025523Y-192377238D01*
X109977904Y-192401047D01*
G04 #@! TO.C,R_LOFF1*
X72239333Y-212570190D02*
X72072666Y-212332095D01*
X71953619Y-212570190D02*
X71953619Y-212070190D01*
X72144095Y-212070190D01*
X72191714Y-212094000D01*
X72215523Y-212117809D01*
X72239333Y-212165428D01*
X72239333Y-212236857D01*
X72215523Y-212284476D01*
X72191714Y-212308285D01*
X72144095Y-212332095D01*
X71953619Y-212332095D01*
X72334571Y-212617809D02*
X72715523Y-212617809D01*
X73072666Y-212570190D02*
X72834571Y-212570190D01*
X72834571Y-212070190D01*
X73334571Y-212070190D02*
X73429809Y-212070190D01*
X73477428Y-212094000D01*
X73525047Y-212141619D01*
X73548857Y-212236857D01*
X73548857Y-212403523D01*
X73525047Y-212498761D01*
X73477428Y-212546380D01*
X73429809Y-212570190D01*
X73334571Y-212570190D01*
X73286952Y-212546380D01*
X73239333Y-212498761D01*
X73215523Y-212403523D01*
X73215523Y-212236857D01*
X73239333Y-212141619D01*
X73286952Y-212094000D01*
X73334571Y-212070190D01*
X73929809Y-212308285D02*
X73763142Y-212308285D01*
X73763142Y-212570190D02*
X73763142Y-212070190D01*
X74001238Y-212070190D01*
X74358380Y-212308285D02*
X74191714Y-212308285D01*
X74191714Y-212570190D02*
X74191714Y-212070190D01*
X74429809Y-212070190D01*
X74882190Y-212570190D02*
X74596476Y-212570190D01*
X74739333Y-212570190D02*
X74739333Y-212070190D01*
X74691714Y-212141619D01*
X74644095Y-212189238D01*
X74596476Y-212213047D01*
G04 #@! TO.C,C1*
X95166666Y-92507571D02*
X95142857Y-92531380D01*
X95071428Y-92555190D01*
X95023809Y-92555190D01*
X94952380Y-92531380D01*
X94904761Y-92483761D01*
X94880952Y-92436142D01*
X94857142Y-92340904D01*
X94857142Y-92269476D01*
X94880952Y-92174238D01*
X94904761Y-92126619D01*
X94952380Y-92079000D01*
X95023809Y-92055190D01*
X95071428Y-92055190D01*
X95142857Y-92079000D01*
X95166666Y-92102809D01*
X95642857Y-92555190D02*
X95357142Y-92555190D01*
X95500000Y-92555190D02*
X95500000Y-92055190D01*
X95452380Y-92126619D01*
X95404761Y-92174238D01*
X95357142Y-92198047D01*
G04 #@! TO.C,C2*
X100246666Y-92507571D02*
X100222857Y-92531380D01*
X100151428Y-92555190D01*
X100103809Y-92555190D01*
X100032380Y-92531380D01*
X99984761Y-92483761D01*
X99960952Y-92436142D01*
X99937142Y-92340904D01*
X99937142Y-92269476D01*
X99960952Y-92174238D01*
X99984761Y-92126619D01*
X100032380Y-92079000D01*
X100103809Y-92055190D01*
X100151428Y-92055190D01*
X100222857Y-92079000D01*
X100246666Y-92102809D01*
X100437142Y-92102809D02*
X100460952Y-92079000D01*
X100508571Y-92055190D01*
X100627619Y-92055190D01*
X100675238Y-92079000D01*
X100699047Y-92102809D01*
X100722857Y-92150428D01*
X100722857Y-92198047D01*
X100699047Y-92269476D01*
X100413333Y-92555190D01*
X100722857Y-92555190D01*
G04 #@! TO.C,J_AD9833*
X110478285Y-156444190D02*
X110478285Y-156801333D01*
X110454476Y-156872761D01*
X110406857Y-156920380D01*
X110335428Y-156944190D01*
X110287809Y-156944190D01*
X110597333Y-156991809D02*
X110978285Y-156991809D01*
X111073523Y-156801333D02*
X111311619Y-156801333D01*
X111025904Y-156944190D02*
X111192571Y-156444190D01*
X111359238Y-156944190D01*
X111525904Y-156944190D02*
X111525904Y-156444190D01*
X111644952Y-156444190D01*
X111716380Y-156468000D01*
X111764000Y-156515619D01*
X111787809Y-156563238D01*
X111811619Y-156658476D01*
X111811619Y-156729904D01*
X111787809Y-156825142D01*
X111764000Y-156872761D01*
X111716380Y-156920380D01*
X111644952Y-156944190D01*
X111525904Y-156944190D01*
X112049714Y-156944190D02*
X112144952Y-156944190D01*
X112192571Y-156920380D01*
X112216380Y-156896571D01*
X112264000Y-156825142D01*
X112287809Y-156729904D01*
X112287809Y-156539428D01*
X112264000Y-156491809D01*
X112240190Y-156468000D01*
X112192571Y-156444190D01*
X112097333Y-156444190D01*
X112049714Y-156468000D01*
X112025904Y-156491809D01*
X112002095Y-156539428D01*
X112002095Y-156658476D01*
X112025904Y-156706095D01*
X112049714Y-156729904D01*
X112097333Y-156753714D01*
X112192571Y-156753714D01*
X112240190Y-156729904D01*
X112264000Y-156706095D01*
X112287809Y-156658476D01*
X112573523Y-156658476D02*
X112525904Y-156634666D01*
X112502095Y-156610857D01*
X112478285Y-156563238D01*
X112478285Y-156539428D01*
X112502095Y-156491809D01*
X112525904Y-156468000D01*
X112573523Y-156444190D01*
X112668761Y-156444190D01*
X112716380Y-156468000D01*
X112740190Y-156491809D01*
X112764000Y-156539428D01*
X112764000Y-156563238D01*
X112740190Y-156610857D01*
X112716380Y-156634666D01*
X112668761Y-156658476D01*
X112573523Y-156658476D01*
X112525904Y-156682285D01*
X112502095Y-156706095D01*
X112478285Y-156753714D01*
X112478285Y-156848952D01*
X112502095Y-156896571D01*
X112525904Y-156920380D01*
X112573523Y-156944190D01*
X112668761Y-156944190D01*
X112716380Y-156920380D01*
X112740190Y-156896571D01*
X112764000Y-156848952D01*
X112764000Y-156753714D01*
X112740190Y-156706095D01*
X112716380Y-156682285D01*
X112668761Y-156658476D01*
X112930666Y-156444190D02*
X113240190Y-156444190D01*
X113073523Y-156634666D01*
X113144952Y-156634666D01*
X113192571Y-156658476D01*
X113216380Y-156682285D01*
X113240190Y-156729904D01*
X113240190Y-156848952D01*
X113216380Y-156896571D01*
X113192571Y-156920380D01*
X113144952Y-156944190D01*
X113002095Y-156944190D01*
X112954476Y-156920380D01*
X112930666Y-156896571D01*
X113406857Y-156444190D02*
X113716380Y-156444190D01*
X113549714Y-156634666D01*
X113621142Y-156634666D01*
X113668761Y-156658476D01*
X113692571Y-156682285D01*
X113716380Y-156729904D01*
X113716380Y-156848952D01*
X113692571Y-156896571D01*
X113668761Y-156920380D01*
X113621142Y-156944190D01*
X113478285Y-156944190D01*
X113430666Y-156920380D01*
X113406857Y-156896571D01*
G04 #@! TO.C,J_AUX2MAIN2*
X78528204Y-68904888D02*
X78528204Y-69262031D01*
X78504395Y-69333459D01*
X78456776Y-69381078D01*
X78385347Y-69404888D01*
X78337728Y-69404888D01*
X78647252Y-69452507D02*
X79028204Y-69452507D01*
X79123442Y-69262031D02*
X79361538Y-69262031D01*
X79075823Y-69404888D02*
X79242490Y-68904888D01*
X79409157Y-69404888D01*
X79575823Y-68904888D02*
X79575823Y-69309650D01*
X79599633Y-69357269D01*
X79623442Y-69381078D01*
X79671061Y-69404888D01*
X79766300Y-69404888D01*
X79813919Y-69381078D01*
X79837728Y-69357269D01*
X79861538Y-69309650D01*
X79861538Y-68904888D01*
X80052014Y-68904888D02*
X80385347Y-69404888D01*
X80385347Y-68904888D02*
X80052014Y-69404888D01*
X80552014Y-68952507D02*
X80575823Y-68928698D01*
X80623442Y-68904888D01*
X80742490Y-68904888D01*
X80790109Y-68928698D01*
X80813919Y-68952507D01*
X80837728Y-69000126D01*
X80837728Y-69047745D01*
X80813919Y-69119174D01*
X80528204Y-69404888D01*
X80837728Y-69404888D01*
X81052014Y-69404888D02*
X81052014Y-68904888D01*
X81218681Y-69262031D01*
X81385347Y-68904888D01*
X81385347Y-69404888D01*
X81599633Y-69262031D02*
X81837728Y-69262031D01*
X81552014Y-69404888D02*
X81718681Y-68904888D01*
X81885347Y-69404888D01*
X82052014Y-69404888D02*
X82052014Y-68904888D01*
X82290109Y-69404888D02*
X82290109Y-68904888D01*
X82575823Y-69404888D01*
X82575823Y-68904888D01*
X82790109Y-68952507D02*
X82813919Y-68928698D01*
X82861538Y-68904888D01*
X82980585Y-68904888D01*
X83028204Y-68928698D01*
X83052014Y-68952507D01*
X83075823Y-69000126D01*
X83075823Y-69047745D01*
X83052014Y-69119174D01*
X82766300Y-69404888D01*
X83075823Y-69404888D01*
G04 #@! TO.C,J_MAIN2AUX1*
X123666523Y-66147190D02*
X123666523Y-66504333D01*
X123642714Y-66575761D01*
X123595095Y-66623380D01*
X123523666Y-66647190D01*
X123476047Y-66647190D01*
X123785571Y-66694809D02*
X124166523Y-66694809D01*
X124285571Y-66647190D02*
X124285571Y-66147190D01*
X124452238Y-66504333D01*
X124618904Y-66147190D01*
X124618904Y-66647190D01*
X124833190Y-66504333D02*
X125071285Y-66504333D01*
X124785571Y-66647190D02*
X124952238Y-66147190D01*
X125118904Y-66647190D01*
X125285571Y-66647190D02*
X125285571Y-66147190D01*
X125523666Y-66647190D02*
X125523666Y-66147190D01*
X125809380Y-66647190D01*
X125809380Y-66147190D01*
X126023666Y-66194809D02*
X126047476Y-66171000D01*
X126095095Y-66147190D01*
X126214142Y-66147190D01*
X126261761Y-66171000D01*
X126285571Y-66194809D01*
X126309380Y-66242428D01*
X126309380Y-66290047D01*
X126285571Y-66361476D01*
X125999857Y-66647190D01*
X126309380Y-66647190D01*
X126499857Y-66504333D02*
X126737952Y-66504333D01*
X126452238Y-66647190D02*
X126618904Y-66147190D01*
X126785571Y-66647190D01*
X126952238Y-66147190D02*
X126952238Y-66551952D01*
X126976047Y-66599571D01*
X126999857Y-66623380D01*
X127047476Y-66647190D01*
X127142714Y-66647190D01*
X127190333Y-66623380D01*
X127214142Y-66599571D01*
X127237952Y-66551952D01*
X127237952Y-66147190D01*
X127428428Y-66147190D02*
X127761761Y-66647190D01*
X127761761Y-66147190D02*
X127428428Y-66647190D01*
X128214142Y-66647190D02*
X127928428Y-66647190D01*
X128071285Y-66647190D02*
X128071285Y-66147190D01*
X128023666Y-66218619D01*
X127976047Y-66266238D01*
X127928428Y-66290047D01*
G04 #@! TO.C,J_OLEDCONNECTOR1*
X66284776Y-66872888D02*
X66284776Y-67230031D01*
X66260966Y-67301459D01*
X66213347Y-67349078D01*
X66141919Y-67372888D01*
X66094300Y-67372888D01*
X66403823Y-67420507D02*
X66784776Y-67420507D01*
X66999061Y-66872888D02*
X67094300Y-66872888D01*
X67141919Y-66896698D01*
X67189538Y-66944317D01*
X67213347Y-67039555D01*
X67213347Y-67206221D01*
X67189538Y-67301459D01*
X67141919Y-67349078D01*
X67094300Y-67372888D01*
X66999061Y-67372888D01*
X66951442Y-67349078D01*
X66903823Y-67301459D01*
X66880014Y-67206221D01*
X66880014Y-67039555D01*
X66903823Y-66944317D01*
X66951442Y-66896698D01*
X66999061Y-66872888D01*
X67665728Y-67372888D02*
X67427633Y-67372888D01*
X67427633Y-66872888D01*
X67832395Y-67110983D02*
X67999061Y-67110983D01*
X68070490Y-67372888D02*
X67832395Y-67372888D01*
X67832395Y-66872888D01*
X68070490Y-66872888D01*
X68284776Y-67372888D02*
X68284776Y-66872888D01*
X68403823Y-66872888D01*
X68475252Y-66896698D01*
X68522871Y-66944317D01*
X68546681Y-66991936D01*
X68570490Y-67087174D01*
X68570490Y-67158602D01*
X68546681Y-67253840D01*
X68522871Y-67301459D01*
X68475252Y-67349078D01*
X68403823Y-67372888D01*
X68284776Y-67372888D01*
X69070490Y-67325269D02*
X69046681Y-67349078D01*
X68975252Y-67372888D01*
X68927633Y-67372888D01*
X68856204Y-67349078D01*
X68808585Y-67301459D01*
X68784776Y-67253840D01*
X68760966Y-67158602D01*
X68760966Y-67087174D01*
X68784776Y-66991936D01*
X68808585Y-66944317D01*
X68856204Y-66896698D01*
X68927633Y-66872888D01*
X68975252Y-66872888D01*
X69046681Y-66896698D01*
X69070490Y-66920507D01*
X69380014Y-66872888D02*
X69475252Y-66872888D01*
X69522871Y-66896698D01*
X69570490Y-66944317D01*
X69594300Y-67039555D01*
X69594300Y-67206221D01*
X69570490Y-67301459D01*
X69522871Y-67349078D01*
X69475252Y-67372888D01*
X69380014Y-67372888D01*
X69332395Y-67349078D01*
X69284776Y-67301459D01*
X69260966Y-67206221D01*
X69260966Y-67039555D01*
X69284776Y-66944317D01*
X69332395Y-66896698D01*
X69380014Y-66872888D01*
X69808585Y-67372888D02*
X69808585Y-66872888D01*
X70094300Y-67372888D01*
X70094300Y-66872888D01*
X70332395Y-67372888D02*
X70332395Y-66872888D01*
X70618109Y-67372888D01*
X70618109Y-66872888D01*
X70856204Y-67110983D02*
X71022871Y-67110983D01*
X71094300Y-67372888D02*
X70856204Y-67372888D01*
X70856204Y-66872888D01*
X71094300Y-66872888D01*
X71594300Y-67325269D02*
X71570490Y-67349078D01*
X71499061Y-67372888D01*
X71451442Y-67372888D01*
X71380014Y-67349078D01*
X71332395Y-67301459D01*
X71308585Y-67253840D01*
X71284776Y-67158602D01*
X71284776Y-67087174D01*
X71308585Y-66991936D01*
X71332395Y-66944317D01*
X71380014Y-66896698D01*
X71451442Y-66872888D01*
X71499061Y-66872888D01*
X71570490Y-66896698D01*
X71594300Y-66920507D01*
X71737157Y-66872888D02*
X72022871Y-66872888D01*
X71880014Y-67372888D02*
X71880014Y-66872888D01*
X72284776Y-66872888D02*
X72380014Y-66872888D01*
X72427633Y-66896698D01*
X72475252Y-66944317D01*
X72499061Y-67039555D01*
X72499061Y-67206221D01*
X72475252Y-67301459D01*
X72427633Y-67349078D01*
X72380014Y-67372888D01*
X72284776Y-67372888D01*
X72237157Y-67349078D01*
X72189538Y-67301459D01*
X72165728Y-67206221D01*
X72165728Y-67039555D01*
X72189538Y-66944317D01*
X72237157Y-66896698D01*
X72284776Y-66872888D01*
X72999061Y-67372888D02*
X72832395Y-67134793D01*
X72713347Y-67372888D02*
X72713347Y-66872888D01*
X72903823Y-66872888D01*
X72951442Y-66896698D01*
X72975252Y-66920507D01*
X72999061Y-66968126D01*
X72999061Y-67039555D01*
X72975252Y-67087174D01*
X72951442Y-67110983D01*
X72903823Y-67134793D01*
X72713347Y-67134793D01*
X73475252Y-67372888D02*
X73189538Y-67372888D01*
X73332395Y-67372888D02*
X73332395Y-66872888D01*
X73284776Y-66944317D01*
X73237157Y-66991936D01*
X73189538Y-67015745D01*
G04 #@! TO.C,R_ISO1*
X86991142Y-215618190D02*
X86824476Y-215380095D01*
X86705428Y-215618190D02*
X86705428Y-215118190D01*
X86895904Y-215118190D01*
X86943523Y-215142000D01*
X86967333Y-215165809D01*
X86991142Y-215213428D01*
X86991142Y-215284857D01*
X86967333Y-215332476D01*
X86943523Y-215356285D01*
X86895904Y-215380095D01*
X86705428Y-215380095D01*
X87086380Y-215665809D02*
X87467333Y-215665809D01*
X87586380Y-215618190D02*
X87586380Y-215118190D01*
X87800666Y-215594380D02*
X87872095Y-215618190D01*
X87991142Y-215618190D01*
X88038761Y-215594380D01*
X88062571Y-215570571D01*
X88086380Y-215522952D01*
X88086380Y-215475333D01*
X88062571Y-215427714D01*
X88038761Y-215403904D01*
X87991142Y-215380095D01*
X87895904Y-215356285D01*
X87848285Y-215332476D01*
X87824476Y-215308666D01*
X87800666Y-215261047D01*
X87800666Y-215213428D01*
X87824476Y-215165809D01*
X87848285Y-215142000D01*
X87895904Y-215118190D01*
X88014952Y-215118190D01*
X88086380Y-215142000D01*
X88395904Y-215118190D02*
X88491142Y-215118190D01*
X88538761Y-215142000D01*
X88586380Y-215189619D01*
X88610190Y-215284857D01*
X88610190Y-215451523D01*
X88586380Y-215546761D01*
X88538761Y-215594380D01*
X88491142Y-215618190D01*
X88395904Y-215618190D01*
X88348285Y-215594380D01*
X88300666Y-215546761D01*
X88276857Y-215451523D01*
X88276857Y-215284857D01*
X88300666Y-215189619D01*
X88348285Y-215142000D01*
X88395904Y-215118190D01*
X89086380Y-215618190D02*
X88800666Y-215618190D01*
X88943523Y-215618190D02*
X88943523Y-215118190D01*
X88895904Y-215189619D01*
X88848285Y-215237238D01*
X88800666Y-215261047D01*
G04 #@! TO.C,R_MIX1*
X81125333Y-191742190D02*
X80958666Y-191504095D01*
X80839619Y-191742190D02*
X80839619Y-191242190D01*
X81030095Y-191242190D01*
X81077714Y-191266000D01*
X81101523Y-191289809D01*
X81125333Y-191337428D01*
X81125333Y-191408857D01*
X81101523Y-191456476D01*
X81077714Y-191480285D01*
X81030095Y-191504095D01*
X80839619Y-191504095D01*
X81220571Y-191789809D02*
X81601523Y-191789809D01*
X81720571Y-191742190D02*
X81720571Y-191242190D01*
X81887238Y-191599333D01*
X82053904Y-191242190D01*
X82053904Y-191742190D01*
X82292000Y-191742190D02*
X82292000Y-191242190D01*
X82482476Y-191242190D02*
X82815809Y-191742190D01*
X82815809Y-191242190D02*
X82482476Y-191742190D01*
X83268190Y-191742190D02*
X82982476Y-191742190D01*
X83125333Y-191742190D02*
X83125333Y-191242190D01*
X83077714Y-191313619D01*
X83030095Y-191361238D01*
X82982476Y-191385047D01*
G04 #@! TO.C,R_MIX2*
X73505333Y-184122190D02*
X73338666Y-183884095D01*
X73219619Y-184122190D02*
X73219619Y-183622190D01*
X73410095Y-183622190D01*
X73457714Y-183646000D01*
X73481523Y-183669809D01*
X73505333Y-183717428D01*
X73505333Y-183788857D01*
X73481523Y-183836476D01*
X73457714Y-183860285D01*
X73410095Y-183884095D01*
X73219619Y-183884095D01*
X73600571Y-184169809D02*
X73981523Y-184169809D01*
X74100571Y-184122190D02*
X74100571Y-183622190D01*
X74267238Y-183979333D01*
X74433904Y-183622190D01*
X74433904Y-184122190D01*
X74672000Y-184122190D02*
X74672000Y-183622190D01*
X74862476Y-183622190D02*
X75195809Y-184122190D01*
X75195809Y-183622190D02*
X74862476Y-184122190D01*
X75362476Y-183669809D02*
X75386285Y-183646000D01*
X75433904Y-183622190D01*
X75552952Y-183622190D01*
X75600571Y-183646000D01*
X75624380Y-183669809D01*
X75648190Y-183717428D01*
X75648190Y-183765047D01*
X75624380Y-183836476D01*
X75338666Y-184122190D01*
X75648190Y-184122190D01*
G04 #@! TO.C,R_VEL1*
X70965333Y-157325190D02*
X70798666Y-157087095D01*
X70679619Y-157325190D02*
X70679619Y-156825190D01*
X70870095Y-156825190D01*
X70917714Y-156849000D01*
X70941523Y-156872809D01*
X70965333Y-156920428D01*
X70965333Y-156991857D01*
X70941523Y-157039476D01*
X70917714Y-157063285D01*
X70870095Y-157087095D01*
X70679619Y-157087095D01*
X71060571Y-157372809D02*
X71441523Y-157372809D01*
X71489142Y-156825190D02*
X71655809Y-157325190D01*
X71822476Y-156825190D01*
X71989142Y-157063285D02*
X72155809Y-157063285D01*
X72227238Y-157325190D02*
X71989142Y-157325190D01*
X71989142Y-156825190D01*
X72227238Y-156825190D01*
X72679619Y-157325190D02*
X72441523Y-157325190D01*
X72441523Y-156825190D01*
X73108190Y-157325190D02*
X72822476Y-157325190D01*
X72965333Y-157325190D02*
X72965333Y-156825190D01*
X72917714Y-156896619D01*
X72870095Y-156944238D01*
X72822476Y-156968047D01*
G04 #@! TO.C,SW_FUNC1*
X54818442Y-96718078D02*
X54889871Y-96741888D01*
X55008919Y-96741888D01*
X55056538Y-96718078D01*
X55080347Y-96694269D01*
X55104157Y-96646650D01*
X55104157Y-96599031D01*
X55080347Y-96551412D01*
X55056538Y-96527602D01*
X55008919Y-96503793D01*
X54913681Y-96479983D01*
X54866061Y-96456174D01*
X54842252Y-96432364D01*
X54818442Y-96384745D01*
X54818442Y-96337126D01*
X54842252Y-96289507D01*
X54866061Y-96265698D01*
X54913681Y-96241888D01*
X55032728Y-96241888D01*
X55104157Y-96265698D01*
X55270823Y-96241888D02*
X55389871Y-96741888D01*
X55485109Y-96384745D01*
X55580347Y-96741888D01*
X55699395Y-96241888D01*
X55770823Y-96789507D02*
X56151776Y-96789507D01*
X56437490Y-96479983D02*
X56270823Y-96479983D01*
X56270823Y-96741888D02*
X56270823Y-96241888D01*
X56508919Y-96241888D01*
X56699395Y-96241888D02*
X56699395Y-96646650D01*
X56723204Y-96694269D01*
X56747014Y-96718078D01*
X56794633Y-96741888D01*
X56889871Y-96741888D01*
X56937490Y-96718078D01*
X56961300Y-96694269D01*
X56985109Y-96646650D01*
X56985109Y-96241888D01*
X57223204Y-96741888D02*
X57223204Y-96241888D01*
X57508919Y-96741888D01*
X57508919Y-96241888D01*
X58032728Y-96694269D02*
X58008919Y-96718078D01*
X57937490Y-96741888D01*
X57889871Y-96741888D01*
X57818442Y-96718078D01*
X57770823Y-96670459D01*
X57747014Y-96622840D01*
X57723204Y-96527602D01*
X57723204Y-96456174D01*
X57747014Y-96360936D01*
X57770823Y-96313317D01*
X57818442Y-96265698D01*
X57889871Y-96241888D01*
X57937490Y-96241888D01*
X58008919Y-96265698D01*
X58032728Y-96289507D01*
X58508919Y-96741888D02*
X58223204Y-96741888D01*
X58366061Y-96741888D02*
X58366061Y-96241888D01*
X58318442Y-96313317D01*
X58270823Y-96360936D01*
X58223204Y-96384745D01*
G04 #@! TO.C,SW_MODE1*
X67482728Y-96718078D02*
X67554157Y-96741888D01*
X67673204Y-96741888D01*
X67720823Y-96718078D01*
X67744633Y-96694269D01*
X67768442Y-96646650D01*
X67768442Y-96599031D01*
X67744633Y-96551412D01*
X67720823Y-96527602D01*
X67673204Y-96503793D01*
X67577966Y-96479983D01*
X67530347Y-96456174D01*
X67506538Y-96432364D01*
X67482728Y-96384745D01*
X67482728Y-96337126D01*
X67506538Y-96289507D01*
X67530347Y-96265698D01*
X67577966Y-96241888D01*
X67697014Y-96241888D01*
X67768442Y-96265698D01*
X67935109Y-96241888D02*
X68054157Y-96741888D01*
X68149395Y-96384745D01*
X68244633Y-96741888D01*
X68363681Y-96241888D01*
X68435109Y-96789507D02*
X68816061Y-96789507D01*
X68935109Y-96741888D02*
X68935109Y-96241888D01*
X69101776Y-96599031D01*
X69268442Y-96241888D01*
X69268442Y-96741888D01*
X69601776Y-96241888D02*
X69697014Y-96241888D01*
X69744633Y-96265698D01*
X69792252Y-96313317D01*
X69816061Y-96408555D01*
X69816061Y-96575221D01*
X69792252Y-96670459D01*
X69744633Y-96718078D01*
X69697014Y-96741888D01*
X69601776Y-96741888D01*
X69554157Y-96718078D01*
X69506538Y-96670459D01*
X69482728Y-96575221D01*
X69482728Y-96408555D01*
X69506538Y-96313317D01*
X69554157Y-96265698D01*
X69601776Y-96241888D01*
X70030347Y-96741888D02*
X70030347Y-96241888D01*
X70149395Y-96241888D01*
X70220823Y-96265698D01*
X70268442Y-96313317D01*
X70292252Y-96360936D01*
X70316061Y-96456174D01*
X70316061Y-96527602D01*
X70292252Y-96622840D01*
X70268442Y-96670459D01*
X70220823Y-96718078D01*
X70149395Y-96741888D01*
X70030347Y-96741888D01*
X70530347Y-96479983D02*
X70697014Y-96479983D01*
X70768442Y-96741888D02*
X70530347Y-96741888D01*
X70530347Y-96241888D01*
X70768442Y-96241888D01*
X71244633Y-96741888D02*
X70958919Y-96741888D01*
X71101776Y-96741888D02*
X71101776Y-96241888D01*
X71054157Y-96313317D01*
X71006538Y-96360936D01*
X70958919Y-96384745D01*
G04 #@! TO.C,SW_RANGE1*
X79750157Y-96718078D02*
X79821585Y-96741888D01*
X79940633Y-96741888D01*
X79988252Y-96718078D01*
X80012061Y-96694269D01*
X80035871Y-96646650D01*
X80035871Y-96599031D01*
X80012061Y-96551412D01*
X79988252Y-96527602D01*
X79940633Y-96503793D01*
X79845395Y-96479983D01*
X79797776Y-96456174D01*
X79773966Y-96432364D01*
X79750157Y-96384745D01*
X79750157Y-96337126D01*
X79773966Y-96289507D01*
X79797776Y-96265698D01*
X79845395Y-96241888D01*
X79964442Y-96241888D01*
X80035871Y-96265698D01*
X80202538Y-96241888D02*
X80321585Y-96741888D01*
X80416823Y-96384745D01*
X80512061Y-96741888D01*
X80631109Y-96241888D01*
X80702538Y-96789507D02*
X81083490Y-96789507D01*
X81488252Y-96741888D02*
X81321585Y-96503793D01*
X81202538Y-96741888D02*
X81202538Y-96241888D01*
X81393014Y-96241888D01*
X81440633Y-96265698D01*
X81464442Y-96289507D01*
X81488252Y-96337126D01*
X81488252Y-96408555D01*
X81464442Y-96456174D01*
X81440633Y-96479983D01*
X81393014Y-96503793D01*
X81202538Y-96503793D01*
X81678728Y-96599031D02*
X81916823Y-96599031D01*
X81631109Y-96741888D02*
X81797776Y-96241888D01*
X81964442Y-96741888D01*
X82131109Y-96741888D02*
X82131109Y-96241888D01*
X82416823Y-96741888D01*
X82416823Y-96241888D01*
X82916823Y-96265698D02*
X82869204Y-96241888D01*
X82797776Y-96241888D01*
X82726347Y-96265698D01*
X82678728Y-96313317D01*
X82654919Y-96360936D01*
X82631109Y-96456174D01*
X82631109Y-96527602D01*
X82654919Y-96622840D01*
X82678728Y-96670459D01*
X82726347Y-96718078D01*
X82797776Y-96741888D01*
X82845395Y-96741888D01*
X82916823Y-96718078D01*
X82940633Y-96694269D01*
X82940633Y-96527602D01*
X82845395Y-96527602D01*
X83154919Y-96479983D02*
X83321585Y-96479983D01*
X83393014Y-96741888D02*
X83154919Y-96741888D01*
X83154919Y-96241888D01*
X83393014Y-96241888D01*
X83869204Y-96741888D02*
X83583490Y-96741888D01*
X83726347Y-96741888D02*
X83726347Y-96241888D01*
X83678728Y-96313317D01*
X83631109Y-96360936D01*
X83583490Y-96384745D01*
G04 #@! TO.C,U1*
X91313047Y-86594190D02*
X91313047Y-86998952D01*
X91336857Y-87046571D01*
X91360666Y-87070380D01*
X91408285Y-87094190D01*
X91503523Y-87094190D01*
X91551142Y-87070380D01*
X91574952Y-87046571D01*
X91598761Y-86998952D01*
X91598761Y-86594190D01*
X92098761Y-87094190D02*
X91813047Y-87094190D01*
X91955904Y-87094190D02*
X91955904Y-86594190D01*
X91908285Y-86665619D01*
X91860666Y-86713238D01*
X91813047Y-86737047D01*
G04 #@! TO.C,C_GAIN1*
X101750952Y-222174571D02*
X101727142Y-222198380D01*
X101655714Y-222222190D01*
X101608095Y-222222190D01*
X101536666Y-222198380D01*
X101489047Y-222150761D01*
X101465238Y-222103142D01*
X101441428Y-222007904D01*
X101441428Y-221936476D01*
X101465238Y-221841238D01*
X101489047Y-221793619D01*
X101536666Y-221746000D01*
X101608095Y-221722190D01*
X101655714Y-221722190D01*
X101727142Y-221746000D01*
X101750952Y-221769809D01*
X101846190Y-222269809D02*
X102227142Y-222269809D01*
X102608095Y-221746000D02*
X102560476Y-221722190D01*
X102489047Y-221722190D01*
X102417619Y-221746000D01*
X102370000Y-221793619D01*
X102346190Y-221841238D01*
X102322380Y-221936476D01*
X102322380Y-222007904D01*
X102346190Y-222103142D01*
X102370000Y-222150761D01*
X102417619Y-222198380D01*
X102489047Y-222222190D01*
X102536666Y-222222190D01*
X102608095Y-222198380D01*
X102631904Y-222174571D01*
X102631904Y-222007904D01*
X102536666Y-222007904D01*
X102822380Y-222079333D02*
X103060476Y-222079333D01*
X102774761Y-222222190D02*
X102941428Y-221722190D01*
X103108095Y-222222190D01*
X103274761Y-222222190D02*
X103274761Y-221722190D01*
X103512857Y-222222190D02*
X103512857Y-221722190D01*
X103798571Y-222222190D01*
X103798571Y-221722190D01*
X104298571Y-222222190D02*
X104012857Y-222222190D01*
X104155714Y-222222190D02*
X104155714Y-221722190D01*
X104108095Y-221793619D01*
X104060476Y-221841238D01*
X104012857Y-221865047D01*
G04 #@! TO.C,R_HIOFF1*
X79934761Y-212570190D02*
X79768095Y-212332095D01*
X79649047Y-212570190D02*
X79649047Y-212070190D01*
X79839523Y-212070190D01*
X79887142Y-212094000D01*
X79910952Y-212117809D01*
X79934761Y-212165428D01*
X79934761Y-212236857D01*
X79910952Y-212284476D01*
X79887142Y-212308285D01*
X79839523Y-212332095D01*
X79649047Y-212332095D01*
X80030000Y-212617809D02*
X80410952Y-212617809D01*
X80530000Y-212570190D02*
X80530000Y-212070190D01*
X80530000Y-212308285D02*
X80815714Y-212308285D01*
X80815714Y-212570190D02*
X80815714Y-212070190D01*
X81053809Y-212570190D02*
X81053809Y-212070190D01*
X81387142Y-212070190D02*
X81482380Y-212070190D01*
X81530000Y-212094000D01*
X81577619Y-212141619D01*
X81601428Y-212236857D01*
X81601428Y-212403523D01*
X81577619Y-212498761D01*
X81530000Y-212546380D01*
X81482380Y-212570190D01*
X81387142Y-212570190D01*
X81339523Y-212546380D01*
X81291904Y-212498761D01*
X81268095Y-212403523D01*
X81268095Y-212236857D01*
X81291904Y-212141619D01*
X81339523Y-212094000D01*
X81387142Y-212070190D01*
X81982380Y-212308285D02*
X81815714Y-212308285D01*
X81815714Y-212570190D02*
X81815714Y-212070190D01*
X82053809Y-212070190D01*
X82410952Y-212308285D02*
X82244285Y-212308285D01*
X82244285Y-212570190D02*
X82244285Y-212070190D01*
X82482380Y-212070190D01*
X82934761Y-212570190D02*
X82649047Y-212570190D01*
X82791904Y-212570190D02*
X82791904Y-212070190D01*
X82744285Y-212141619D01*
X82696666Y-212189238D01*
X82649047Y-212213047D01*
G04 #@! TO.C,TP_OFF1*
X73418095Y-178034190D02*
X73703809Y-178034190D01*
X73560952Y-178534190D02*
X73560952Y-178034190D01*
X73870476Y-178534190D02*
X73870476Y-178034190D01*
X74060952Y-178034190D01*
X74108571Y-178058000D01*
X74132380Y-178081809D01*
X74156190Y-178129428D01*
X74156190Y-178200857D01*
X74132380Y-178248476D01*
X74108571Y-178272285D01*
X74060952Y-178296095D01*
X73870476Y-178296095D01*
X74251428Y-178581809D02*
X74632380Y-178581809D01*
X74846666Y-178034190D02*
X74941904Y-178034190D01*
X74989523Y-178058000D01*
X75037142Y-178105619D01*
X75060952Y-178200857D01*
X75060952Y-178367523D01*
X75037142Y-178462761D01*
X74989523Y-178510380D01*
X74941904Y-178534190D01*
X74846666Y-178534190D01*
X74799047Y-178510380D01*
X74751428Y-178462761D01*
X74727619Y-178367523D01*
X74727619Y-178200857D01*
X74751428Y-178105619D01*
X74799047Y-178058000D01*
X74846666Y-178034190D01*
X75441904Y-178272285D02*
X75275238Y-178272285D01*
X75275238Y-178534190D02*
X75275238Y-178034190D01*
X75513333Y-178034190D01*
X75870476Y-178272285D02*
X75703809Y-178272285D01*
X75703809Y-178534190D02*
X75703809Y-178034190D01*
X75941904Y-178034190D01*
X76394285Y-178534190D02*
X76108571Y-178534190D01*
X76251428Y-178534190D02*
X76251428Y-178034190D01*
X76203809Y-178105619D01*
X76156190Y-178153238D01*
X76108571Y-178177047D01*
G04 #@! TO.C,R_MIX3*
X113383333Y-191996190D02*
X113216666Y-191758095D01*
X113097619Y-191996190D02*
X113097619Y-191496190D01*
X113288095Y-191496190D01*
X113335714Y-191520000D01*
X113359523Y-191543809D01*
X113383333Y-191591428D01*
X113383333Y-191662857D01*
X113359523Y-191710476D01*
X113335714Y-191734285D01*
X113288095Y-191758095D01*
X113097619Y-191758095D01*
X113478571Y-192043809D02*
X113859523Y-192043809D01*
X113978571Y-191996190D02*
X113978571Y-191496190D01*
X114145238Y-191853333D01*
X114311904Y-191496190D01*
X114311904Y-191996190D01*
X114550000Y-191996190D02*
X114550000Y-191496190D01*
X114740476Y-191496190D02*
X115073809Y-191996190D01*
X115073809Y-191496190D02*
X114740476Y-191996190D01*
X115216666Y-191496190D02*
X115526190Y-191496190D01*
X115359523Y-191686666D01*
X115430952Y-191686666D01*
X115478571Y-191710476D01*
X115502380Y-191734285D01*
X115526190Y-191781904D01*
X115526190Y-191900952D01*
X115502380Y-191948571D01*
X115478571Y-191972380D01*
X115430952Y-191996190D01*
X115288095Y-191996190D01*
X115240476Y-191972380D01*
X115216666Y-191948571D01*
G04 #@! TO.C,RF2*
X92412380Y-221841190D02*
X92245714Y-221603095D01*
X92126666Y-221841190D02*
X92126666Y-221341190D01*
X92317142Y-221341190D01*
X92364761Y-221365000D01*
X92388571Y-221388809D01*
X92412380Y-221436428D01*
X92412380Y-221507857D01*
X92388571Y-221555476D01*
X92364761Y-221579285D01*
X92317142Y-221603095D01*
X92126666Y-221603095D01*
X92793333Y-221579285D02*
X92626666Y-221579285D01*
X92626666Y-221841190D02*
X92626666Y-221341190D01*
X92864761Y-221341190D01*
X93031428Y-221388809D02*
X93055238Y-221365000D01*
X93102857Y-221341190D01*
X93221904Y-221341190D01*
X93269523Y-221365000D01*
X93293333Y-221388809D01*
X93317142Y-221436428D01*
X93317142Y-221484047D01*
X93293333Y-221555476D01*
X93007619Y-221841190D01*
X93317142Y-221841190D01*
G04 #@! TO.C,ROFF1*
X107684190Y-206474190D02*
X107517523Y-206236095D01*
X107398476Y-206474190D02*
X107398476Y-205974190D01*
X107588952Y-205974190D01*
X107636571Y-205998000D01*
X107660380Y-206021809D01*
X107684190Y-206069428D01*
X107684190Y-206140857D01*
X107660380Y-206188476D01*
X107636571Y-206212285D01*
X107588952Y-206236095D01*
X107398476Y-206236095D01*
X107993714Y-205974190D02*
X108088952Y-205974190D01*
X108136571Y-205998000D01*
X108184190Y-206045619D01*
X108208000Y-206140857D01*
X108208000Y-206307523D01*
X108184190Y-206402761D01*
X108136571Y-206450380D01*
X108088952Y-206474190D01*
X107993714Y-206474190D01*
X107946095Y-206450380D01*
X107898476Y-206402761D01*
X107874666Y-206307523D01*
X107874666Y-206140857D01*
X107898476Y-206045619D01*
X107946095Y-205998000D01*
X107993714Y-205974190D01*
X108588952Y-206212285D02*
X108422285Y-206212285D01*
X108422285Y-206474190D02*
X108422285Y-205974190D01*
X108660380Y-205974190D01*
X109017523Y-206212285D02*
X108850857Y-206212285D01*
X108850857Y-206474190D02*
X108850857Y-205974190D01*
X109088952Y-205974190D01*
X109541333Y-206474190D02*
X109255619Y-206474190D01*
X109398476Y-206474190D02*
X109398476Y-205974190D01*
X109350857Y-206045619D01*
X109303238Y-206093238D01*
X109255619Y-206117047D01*
G04 #@! TO.C,ROFF2*
X117082190Y-191996190D02*
X116915523Y-191758095D01*
X116796476Y-191996190D02*
X116796476Y-191496190D01*
X116986952Y-191496190D01*
X117034571Y-191520000D01*
X117058380Y-191543809D01*
X117082190Y-191591428D01*
X117082190Y-191662857D01*
X117058380Y-191710476D01*
X117034571Y-191734285D01*
X116986952Y-191758095D01*
X116796476Y-191758095D01*
X117391714Y-191496190D02*
X117486952Y-191496190D01*
X117534571Y-191520000D01*
X117582190Y-191567619D01*
X117606000Y-191662857D01*
X117606000Y-191829523D01*
X117582190Y-191924761D01*
X117534571Y-191972380D01*
X117486952Y-191996190D01*
X117391714Y-191996190D01*
X117344095Y-191972380D01*
X117296476Y-191924761D01*
X117272666Y-191829523D01*
X117272666Y-191662857D01*
X117296476Y-191567619D01*
X117344095Y-191520000D01*
X117391714Y-191496190D01*
X117986952Y-191734285D02*
X117820285Y-191734285D01*
X117820285Y-191996190D02*
X117820285Y-191496190D01*
X118058380Y-191496190D01*
X118415523Y-191734285D02*
X118248857Y-191734285D01*
X118248857Y-191996190D02*
X118248857Y-191496190D01*
X118486952Y-191496190D01*
X118653619Y-191543809D02*
X118677428Y-191520000D01*
X118725047Y-191496190D01*
X118844095Y-191496190D01*
X118891714Y-191520000D01*
X118915523Y-191543809D01*
X118939333Y-191591428D01*
X118939333Y-191639047D01*
X118915523Y-191710476D01*
X118629809Y-191996190D01*
X118939333Y-191996190D01*
G04 #@! TO.C,CF2*
X92412380Y-224333571D02*
X92388571Y-224357380D01*
X92317142Y-224381190D01*
X92269523Y-224381190D01*
X92198095Y-224357380D01*
X92150476Y-224309761D01*
X92126666Y-224262142D01*
X92102857Y-224166904D01*
X92102857Y-224095476D01*
X92126666Y-224000238D01*
X92150476Y-223952619D01*
X92198095Y-223905000D01*
X92269523Y-223881190D01*
X92317142Y-223881190D01*
X92388571Y-223905000D01*
X92412380Y-223928809D01*
X92793333Y-224119285D02*
X92626666Y-224119285D01*
X92626666Y-224381190D02*
X92626666Y-223881190D01*
X92864761Y-223881190D01*
X93031428Y-223928809D02*
X93055238Y-223905000D01*
X93102857Y-223881190D01*
X93221904Y-223881190D01*
X93269523Y-223905000D01*
X93293333Y-223928809D01*
X93317142Y-223976428D01*
X93317142Y-224024047D01*
X93293333Y-224095476D01*
X93007619Y-224381190D01*
X93317142Y-224381190D01*
G04 #@! TO.C,U_BUFF1*
X93992095Y-196830190D02*
X93992095Y-197234952D01*
X94015904Y-197282571D01*
X94039714Y-197306380D01*
X94087333Y-197330190D01*
X94182571Y-197330190D01*
X94230190Y-197306380D01*
X94254000Y-197282571D01*
X94277809Y-197234952D01*
X94277809Y-196830190D01*
X94396857Y-197377809D02*
X94777809Y-197377809D01*
X95063523Y-197068285D02*
X95134952Y-197092095D01*
X95158761Y-197115904D01*
X95182571Y-197163523D01*
X95182571Y-197234952D01*
X95158761Y-197282571D01*
X95134952Y-197306380D01*
X95087333Y-197330190D01*
X94896857Y-197330190D01*
X94896857Y-196830190D01*
X95063523Y-196830190D01*
X95111142Y-196854000D01*
X95134952Y-196877809D01*
X95158761Y-196925428D01*
X95158761Y-196973047D01*
X95134952Y-197020666D01*
X95111142Y-197044476D01*
X95063523Y-197068285D01*
X94896857Y-197068285D01*
X95396857Y-196830190D02*
X95396857Y-197234952D01*
X95420666Y-197282571D01*
X95444476Y-197306380D01*
X95492095Y-197330190D01*
X95587333Y-197330190D01*
X95634952Y-197306380D01*
X95658761Y-197282571D01*
X95682571Y-197234952D01*
X95682571Y-196830190D01*
X96087333Y-197068285D02*
X95920666Y-197068285D01*
X95920666Y-197330190D02*
X95920666Y-196830190D01*
X96158761Y-196830190D01*
X96515904Y-197068285D02*
X96349238Y-197068285D01*
X96349238Y-197330190D02*
X96349238Y-196830190D01*
X96587333Y-196830190D01*
X97039714Y-197330190D02*
X96754000Y-197330190D01*
X96896857Y-197330190D02*
X96896857Y-196830190D01*
X96849238Y-196901619D01*
X96801619Y-196949238D01*
X96754000Y-196973047D01*
G04 #@! TO.C,U_MIX1*
X94543714Y-213594190D02*
X94543714Y-213998952D01*
X94567523Y-214046571D01*
X94591333Y-214070380D01*
X94638952Y-214094190D01*
X94734190Y-214094190D01*
X94781809Y-214070380D01*
X94805619Y-214046571D01*
X94829428Y-213998952D01*
X94829428Y-213594190D01*
X94948476Y-214141809D02*
X95329428Y-214141809D01*
X95448476Y-214094190D02*
X95448476Y-213594190D01*
X95615142Y-213951333D01*
X95781809Y-213594190D01*
X95781809Y-214094190D01*
X96019904Y-214094190D02*
X96019904Y-213594190D01*
X96210380Y-213594190D02*
X96543714Y-214094190D01*
X96543714Y-213594190D02*
X96210380Y-214094190D01*
X96996095Y-214094190D02*
X96710380Y-214094190D01*
X96853238Y-214094190D02*
X96853238Y-213594190D01*
X96805619Y-213665619D01*
X96758000Y-213713238D01*
X96710380Y-213737047D01*
G04 #@! TO.C,R_PHASE1*
X75878714Y-157198190D02*
X75712047Y-156960095D01*
X75593000Y-157198190D02*
X75593000Y-156698190D01*
X75783476Y-156698190D01*
X75831095Y-156722000D01*
X75854904Y-156745809D01*
X75878714Y-156793428D01*
X75878714Y-156864857D01*
X75854904Y-156912476D01*
X75831095Y-156936285D01*
X75783476Y-156960095D01*
X75593000Y-156960095D01*
X75973952Y-157245809D02*
X76354904Y-157245809D01*
X76473952Y-157198190D02*
X76473952Y-156698190D01*
X76664428Y-156698190D01*
X76712047Y-156722000D01*
X76735857Y-156745809D01*
X76759666Y-156793428D01*
X76759666Y-156864857D01*
X76735857Y-156912476D01*
X76712047Y-156936285D01*
X76664428Y-156960095D01*
X76473952Y-156960095D01*
X76973952Y-157198190D02*
X76973952Y-156698190D01*
X76973952Y-156936285D02*
X77259666Y-156936285D01*
X77259666Y-157198190D02*
X77259666Y-156698190D01*
X77473952Y-157055333D02*
X77712047Y-157055333D01*
X77426333Y-157198190D02*
X77593000Y-156698190D01*
X77759666Y-157198190D01*
X77902523Y-157174380D02*
X77973952Y-157198190D01*
X78093000Y-157198190D01*
X78140619Y-157174380D01*
X78164428Y-157150571D01*
X78188238Y-157102952D01*
X78188238Y-157055333D01*
X78164428Y-157007714D01*
X78140619Y-156983904D01*
X78093000Y-156960095D01*
X77997761Y-156936285D01*
X77950142Y-156912476D01*
X77926333Y-156888666D01*
X77902523Y-156841047D01*
X77902523Y-156793428D01*
X77926333Y-156745809D01*
X77950142Y-156722000D01*
X77997761Y-156698190D01*
X78116809Y-156698190D01*
X78188238Y-156722000D01*
X78402523Y-156936285D02*
X78569190Y-156936285D01*
X78640619Y-157198190D02*
X78402523Y-157198190D01*
X78402523Y-156698190D01*
X78640619Y-156698190D01*
X79116809Y-157198190D02*
X78831095Y-157198190D01*
X78973952Y-157198190D02*
X78973952Y-156698190D01*
X78926333Y-156769619D01*
X78878714Y-156817238D01*
X78831095Y-156841047D01*
G04 #@! TO.C,RV_AMP1*
X76739904Y-187678190D02*
X76573238Y-187440095D01*
X76454190Y-187678190D02*
X76454190Y-187178190D01*
X76644666Y-187178190D01*
X76692285Y-187202000D01*
X76716095Y-187225809D01*
X76739904Y-187273428D01*
X76739904Y-187344857D01*
X76716095Y-187392476D01*
X76692285Y-187416285D01*
X76644666Y-187440095D01*
X76454190Y-187440095D01*
X76882761Y-187178190D02*
X77049428Y-187678190D01*
X77216095Y-187178190D01*
X77263714Y-187725809D02*
X77644666Y-187725809D01*
X77739904Y-187535333D02*
X77978000Y-187535333D01*
X77692285Y-187678190D02*
X77858952Y-187178190D01*
X78025619Y-187678190D01*
X78192285Y-187678190D02*
X78192285Y-187178190D01*
X78358952Y-187535333D01*
X78525619Y-187178190D01*
X78525619Y-187678190D01*
X78763714Y-187678190D02*
X78763714Y-187178190D01*
X78954190Y-187178190D01*
X79001809Y-187202000D01*
X79025619Y-187225809D01*
X79049428Y-187273428D01*
X79049428Y-187344857D01*
X79025619Y-187392476D01*
X79001809Y-187416285D01*
X78954190Y-187440095D01*
X78763714Y-187440095D01*
X79525619Y-187678190D02*
X79239904Y-187678190D01*
X79382761Y-187678190D02*
X79382761Y-187178190D01*
X79335142Y-187249619D01*
X79287523Y-187297238D01*
X79239904Y-187321047D01*
G04 #@! TO.C,RV_TIME1*
X76287476Y-173454190D02*
X76120809Y-173216095D01*
X76001761Y-173454190D02*
X76001761Y-172954190D01*
X76192238Y-172954190D01*
X76239857Y-172978000D01*
X76263666Y-173001809D01*
X76287476Y-173049428D01*
X76287476Y-173120857D01*
X76263666Y-173168476D01*
X76239857Y-173192285D01*
X76192238Y-173216095D01*
X76001761Y-173216095D01*
X76430333Y-172954190D02*
X76597000Y-173454190D01*
X76763666Y-172954190D01*
X76811285Y-173501809D02*
X77192238Y-173501809D01*
X77239857Y-172954190D02*
X77525571Y-172954190D01*
X77382714Y-173454190D02*
X77382714Y-172954190D01*
X77692238Y-173454190D02*
X77692238Y-172954190D01*
X77930333Y-173454190D02*
X77930333Y-172954190D01*
X78097000Y-173311333D01*
X78263666Y-172954190D01*
X78263666Y-173454190D01*
X78501761Y-173192285D02*
X78668428Y-173192285D01*
X78739857Y-173454190D02*
X78501761Y-173454190D01*
X78501761Y-172954190D01*
X78739857Y-172954190D01*
X79216047Y-173454190D02*
X78930333Y-173454190D01*
X79073190Y-173454190D02*
X79073190Y-172954190D01*
X79025571Y-173025619D01*
X78977952Y-173073238D01*
X78930333Y-173097047D01*
G04 #@! TO.C,RV_LOWOFF1*
X71858428Y-200124190D02*
X71691761Y-199886095D01*
X71572714Y-200124190D02*
X71572714Y-199624190D01*
X71763190Y-199624190D01*
X71810809Y-199648000D01*
X71834619Y-199671809D01*
X71858428Y-199719428D01*
X71858428Y-199790857D01*
X71834619Y-199838476D01*
X71810809Y-199862285D01*
X71763190Y-199886095D01*
X71572714Y-199886095D01*
X72001285Y-199624190D02*
X72167952Y-200124190D01*
X72334619Y-199624190D01*
X72382238Y-200171809D02*
X72763190Y-200171809D01*
X73120333Y-200124190D02*
X72882238Y-200124190D01*
X72882238Y-199624190D01*
X73382238Y-199624190D02*
X73477476Y-199624190D01*
X73525095Y-199648000D01*
X73572714Y-199695619D01*
X73596523Y-199790857D01*
X73596523Y-199957523D01*
X73572714Y-200052761D01*
X73525095Y-200100380D01*
X73477476Y-200124190D01*
X73382238Y-200124190D01*
X73334619Y-200100380D01*
X73287000Y-200052761D01*
X73263190Y-199957523D01*
X73263190Y-199790857D01*
X73287000Y-199695619D01*
X73334619Y-199648000D01*
X73382238Y-199624190D01*
X73763190Y-199624190D02*
X73882238Y-200124190D01*
X73977476Y-199767047D01*
X74072714Y-200124190D01*
X74191761Y-199624190D01*
X74477476Y-199624190D02*
X74572714Y-199624190D01*
X74620333Y-199648000D01*
X74667952Y-199695619D01*
X74691761Y-199790857D01*
X74691761Y-199957523D01*
X74667952Y-200052761D01*
X74620333Y-200100380D01*
X74572714Y-200124190D01*
X74477476Y-200124190D01*
X74429857Y-200100380D01*
X74382238Y-200052761D01*
X74358428Y-199957523D01*
X74358428Y-199790857D01*
X74382238Y-199695619D01*
X74429857Y-199648000D01*
X74477476Y-199624190D01*
X75072714Y-199862285D02*
X74906047Y-199862285D01*
X74906047Y-200124190D02*
X74906047Y-199624190D01*
X75144142Y-199624190D01*
X75501285Y-199862285D02*
X75334619Y-199862285D01*
X75334619Y-200124190D02*
X75334619Y-199624190D01*
X75572714Y-199624190D01*
X76025095Y-200124190D02*
X75739380Y-200124190D01*
X75882238Y-200124190D02*
X75882238Y-199624190D01*
X75834619Y-199695619D01*
X75787000Y-199743238D01*
X75739380Y-199767047D01*
G04 #@! TO.C,CF1*
X92158380Y-186614571D02*
X92134571Y-186638380D01*
X92063142Y-186662190D01*
X92015523Y-186662190D01*
X91944095Y-186638380D01*
X91896476Y-186590761D01*
X91872666Y-186543142D01*
X91848857Y-186447904D01*
X91848857Y-186376476D01*
X91872666Y-186281238D01*
X91896476Y-186233619D01*
X91944095Y-186186000D01*
X92015523Y-186162190D01*
X92063142Y-186162190D01*
X92134571Y-186186000D01*
X92158380Y-186209809D01*
X92539333Y-186400285D02*
X92372666Y-186400285D01*
X92372666Y-186662190D02*
X92372666Y-186162190D01*
X92610761Y-186162190D01*
X93063142Y-186662190D02*
X92777428Y-186662190D01*
X92920285Y-186662190D02*
X92920285Y-186162190D01*
X92872666Y-186233619D01*
X92825047Y-186281238D01*
X92777428Y-186305047D01*
G04 #@! TD*
M02*
