G04 #@! TF.GenerationSoftware,KiCad,Pcbnew,(5.0.0)*
G04 #@! TF.CreationDate,2018-10-20T13:21:43+01:00*
G04 #@! TF.ProjectId,AD9833FunctionGenerator,41443938333346756E6374696F6E4765,rev?*
G04 #@! TF.SameCoordinates,Original*
G04 #@! TF.FileFunction,Copper,L1,Top,Signal*
G04 #@! TF.FilePolarity,Positive*
%FSLAX46Y46*%
G04 Gerber Fmt 4.6, Leading zero omitted, Abs format (unit mm)*
G04 Created by KiCad (PCBNEW (5.0.0)) date 10/20/18 13:21:43*
%MOMM*%
%LPD*%
G01*
G04 APERTURE LIST*
G04 #@! TA.AperFunction,ComponentPad*
%ADD10C,1.620000*%
G04 #@! TD*
G04 #@! TA.AperFunction,ComponentPad*
%ADD11O,1.600000X1.600000*%
G04 #@! TD*
G04 #@! TA.AperFunction,ComponentPad*
%ADD12C,1.600000*%
G04 #@! TD*
G04 #@! TA.AperFunction,ComponentPad*
%ADD13R,1.600000X1.600000*%
G04 #@! TD*
G04 #@! TA.AperFunction,ComponentPad*
%ADD14C,2.000000*%
G04 #@! TD*
G04 #@! TA.AperFunction,Conductor*
%ADD15C,0.100000*%
G04 #@! TD*
G04 #@! TA.AperFunction,SMDPad,CuDef*
%ADD16C,1.150000*%
G04 #@! TD*
G04 #@! TA.AperFunction,ComponentPad*
%ADD17C,2.500000*%
G04 #@! TD*
G04 #@! TA.AperFunction,ComponentPad*
%ADD18R,1.700000X1.700000*%
G04 #@! TD*
G04 #@! TA.AperFunction,ComponentPad*
%ADD19O,1.700000X1.700000*%
G04 #@! TD*
G04 #@! TA.AperFunction,SMDPad,CuDef*
%ADD20R,1.500000X0.600000*%
G04 #@! TD*
G04 #@! TA.AperFunction,ComponentPad*
%ADD21R,1.905000X2.000000*%
G04 #@! TD*
G04 #@! TA.AperFunction,ComponentPad*
%ADD22O,1.905000X2.000000*%
G04 #@! TD*
G04 #@! TA.AperFunction,BGAPad,CuDef*
%ADD23C,2.000000*%
G04 #@! TD*
G04 #@! TA.AperFunction,SMDPad,CuDef*
%ADD24R,1.550000X0.600000*%
G04 #@! TD*
G04 #@! TA.AperFunction,ViaPad*
%ADD25C,0.800000*%
G04 #@! TD*
G04 #@! TA.AperFunction,Conductor*
%ADD26C,0.500000*%
G04 #@! TD*
G04 #@! TA.AperFunction,Conductor*
%ADD27C,1.000000*%
G04 #@! TD*
G04 #@! TA.AperFunction,Conductor*
%ADD28C,0.250000*%
G04 #@! TD*
G04 APERTURE END LIST*
D10*
G04 #@! TO.P,RV_UPOFF1,1*
G04 #@! TO.N,Net-(RV_AMP1-Pad1)*
X83900000Y-207010000D03*
G04 #@! TO.P,RV_UPOFF1,2*
X81400000Y-202010000D03*
G04 #@! TO.P,RV_UPOFF1,3*
G04 #@! TO.N,Net-(RV_UPOFF1-Pad3)*
X78900000Y-207010000D03*
G04 #@! TD*
D11*
G04 #@! TO.P,A1,16*
G04 #@! TO.N,/SCK*
X109855000Y-92710000D03*
G04 #@! TO.P,A1,15*
G04 #@! TO.N,N/C*
X125095000Y-92710000D03*
G04 #@! TO.P,A1,30*
G04 #@! TO.N,/5V*
X109855000Y-128270000D03*
G04 #@! TO.P,A1,14*
G04 #@! TO.N,/MOSI*
X125095000Y-95250000D03*
G04 #@! TO.P,A1,29*
G04 #@! TO.N,/GND*
X109855000Y-125730000D03*
G04 #@! TO.P,A1,13*
G04 #@! TO.N,/DDS_CS*
X125095000Y-97790000D03*
G04 #@! TO.P,A1,28*
G04 #@! TO.N,N/C*
X109855000Y-123190000D03*
G04 #@! TO.P,A1,12*
G04 #@! TO.N,/POT_CS*
X125095000Y-100330000D03*
G04 #@! TO.P,A1,27*
G04 #@! TO.N,N/C*
X109855000Y-120650000D03*
G04 #@! TO.P,A1,11*
X125095000Y-102870000D03*
G04 #@! TO.P,A1,26*
X109855000Y-118110000D03*
D12*
G04 #@! TO.P,A1,10*
X125095000Y-105410000D03*
D11*
G04 #@! TO.P,A1,25*
G04 #@! TO.N,/VEL1*
X109855000Y-115570000D03*
G04 #@! TO.P,A1,9*
G04 #@! TO.N,N/C*
X125095000Y-107950000D03*
G04 #@! TO.P,A1,24*
G04 #@! TO.N,/SCL*
X109855000Y-113030000D03*
G04 #@! TO.P,A1,8*
G04 #@! TO.N,/RANGEBTN*
X125095000Y-110490000D03*
G04 #@! TO.P,A1,23*
G04 #@! TO.N,/SDA*
X109855000Y-110490000D03*
G04 #@! TO.P,A1,7*
G04 #@! TO.N,N/C*
X125095000Y-113030000D03*
G04 #@! TO.P,A1,22*
G04 #@! TO.N,/PHASE1*
X109855000Y-107950000D03*
G04 #@! TO.P,A1,6*
G04 #@! TO.N,/MODEBTN*
X125095000Y-115570000D03*
G04 #@! TO.P,A1,21*
G04 #@! TO.N,N/C*
X109855000Y-105410000D03*
G04 #@! TO.P,A1,5*
G04 #@! TO.N,/WAVEBTN*
X125095000Y-118110000D03*
G04 #@! TO.P,A1,20*
G04 #@! TO.N,/FREQLO*
X109855000Y-102870000D03*
G04 #@! TO.P,A1,4*
G04 #@! TO.N,/GND*
X125095000Y-120650000D03*
G04 #@! TO.P,A1,19*
G04 #@! TO.N,/FREQHI*
X109855000Y-100330000D03*
G04 #@! TO.P,A1,3*
G04 #@! TO.N,N/C*
X125095000Y-123190000D03*
G04 #@! TO.P,A1,18*
G04 #@! TO.N,/AREF*
X109855000Y-97790000D03*
G04 #@! TO.P,A1,2*
G04 #@! TO.N,N/C*
X125095000Y-125730000D03*
G04 #@! TO.P,A1,17*
G04 #@! TO.N,/AREF*
X109855000Y-95250000D03*
D13*
G04 #@! TO.P,A1,1*
G04 #@! TO.N,N/C*
X125095000Y-128270000D03*
G04 #@! TD*
D14*
G04 #@! TO.P,RV_FREQ1,1*
G04 #@! TO.N,/GND*
X71882000Y-144780000D03*
G04 #@! TO.P,RV_FREQ1,2*
G04 #@! TO.N,/FREQLO*
X71882000Y-142240000D03*
G04 #@! TO.P,RV_FREQ1,3*
G04 #@! TO.N,/5V*
X71882000Y-139700000D03*
G04 #@! TO.P,RV_FREQ1,4*
G04 #@! TO.N,/GND*
X77216000Y-144780000D03*
G04 #@! TO.P,RV_FREQ1,5*
G04 #@! TO.N,/FREQHI*
X77216000Y-142240000D03*
G04 #@! TO.P,RV_FREQ1,6*
G04 #@! TO.N,/5V*
X77216000Y-139700000D03*
G04 #@! TD*
D15*
G04 #@! TO.N,/GND*
G04 #@! TO.C,RG1*
G36*
X94828505Y-182943204D02*
X94852773Y-182946804D01*
X94876572Y-182952765D01*
X94899671Y-182961030D01*
X94921850Y-182971520D01*
X94942893Y-182984132D01*
X94962599Y-182998747D01*
X94980777Y-183015223D01*
X94997253Y-183033401D01*
X95011868Y-183053107D01*
X95024480Y-183074150D01*
X95034970Y-183096329D01*
X95043235Y-183119428D01*
X95049196Y-183143227D01*
X95052796Y-183167495D01*
X95054000Y-183191999D01*
X95054000Y-184092001D01*
X95052796Y-184116505D01*
X95049196Y-184140773D01*
X95043235Y-184164572D01*
X95034970Y-184187671D01*
X95024480Y-184209850D01*
X95011868Y-184230893D01*
X94997253Y-184250599D01*
X94980777Y-184268777D01*
X94962599Y-184285253D01*
X94942893Y-184299868D01*
X94921850Y-184312480D01*
X94899671Y-184322970D01*
X94876572Y-184331235D01*
X94852773Y-184337196D01*
X94828505Y-184340796D01*
X94804001Y-184342000D01*
X94153999Y-184342000D01*
X94129495Y-184340796D01*
X94105227Y-184337196D01*
X94081428Y-184331235D01*
X94058329Y-184322970D01*
X94036150Y-184312480D01*
X94015107Y-184299868D01*
X93995401Y-184285253D01*
X93977223Y-184268777D01*
X93960747Y-184250599D01*
X93946132Y-184230893D01*
X93933520Y-184209850D01*
X93923030Y-184187671D01*
X93914765Y-184164572D01*
X93908804Y-184140773D01*
X93905204Y-184116505D01*
X93904000Y-184092001D01*
X93904000Y-183191999D01*
X93905204Y-183167495D01*
X93908804Y-183143227D01*
X93914765Y-183119428D01*
X93923030Y-183096329D01*
X93933520Y-183074150D01*
X93946132Y-183053107D01*
X93960747Y-183033401D01*
X93977223Y-183015223D01*
X93995401Y-182998747D01*
X94015107Y-182984132D01*
X94036150Y-182971520D01*
X94058329Y-182961030D01*
X94081428Y-182952765D01*
X94105227Y-182946804D01*
X94129495Y-182943204D01*
X94153999Y-182942000D01*
X94804001Y-182942000D01*
X94828505Y-182943204D01*
X94828505Y-182943204D01*
G37*
D16*
G04 #@! TD*
G04 #@! TO.P,RG1,1*
G04 #@! TO.N,/GND*
X94479000Y-183642000D03*
D15*
G04 #@! TO.N,Net-(CF1-Pad2)*
G04 #@! TO.C,RG1*
G36*
X96878505Y-182943204D02*
X96902773Y-182946804D01*
X96926572Y-182952765D01*
X96949671Y-182961030D01*
X96971850Y-182971520D01*
X96992893Y-182984132D01*
X97012599Y-182998747D01*
X97030777Y-183015223D01*
X97047253Y-183033401D01*
X97061868Y-183053107D01*
X97074480Y-183074150D01*
X97084970Y-183096329D01*
X97093235Y-183119428D01*
X97099196Y-183143227D01*
X97102796Y-183167495D01*
X97104000Y-183191999D01*
X97104000Y-184092001D01*
X97102796Y-184116505D01*
X97099196Y-184140773D01*
X97093235Y-184164572D01*
X97084970Y-184187671D01*
X97074480Y-184209850D01*
X97061868Y-184230893D01*
X97047253Y-184250599D01*
X97030777Y-184268777D01*
X97012599Y-184285253D01*
X96992893Y-184299868D01*
X96971850Y-184312480D01*
X96949671Y-184322970D01*
X96926572Y-184331235D01*
X96902773Y-184337196D01*
X96878505Y-184340796D01*
X96854001Y-184342000D01*
X96203999Y-184342000D01*
X96179495Y-184340796D01*
X96155227Y-184337196D01*
X96131428Y-184331235D01*
X96108329Y-184322970D01*
X96086150Y-184312480D01*
X96065107Y-184299868D01*
X96045401Y-184285253D01*
X96027223Y-184268777D01*
X96010747Y-184250599D01*
X95996132Y-184230893D01*
X95983520Y-184209850D01*
X95973030Y-184187671D01*
X95964765Y-184164572D01*
X95958804Y-184140773D01*
X95955204Y-184116505D01*
X95954000Y-184092001D01*
X95954000Y-183191999D01*
X95955204Y-183167495D01*
X95958804Y-183143227D01*
X95964765Y-183119428D01*
X95973030Y-183096329D01*
X95983520Y-183074150D01*
X95996132Y-183053107D01*
X96010747Y-183033401D01*
X96027223Y-183015223D01*
X96045401Y-182998747D01*
X96065107Y-182984132D01*
X96086150Y-182971520D01*
X96108329Y-182961030D01*
X96131428Y-182952765D01*
X96155227Y-182946804D01*
X96179495Y-182943204D01*
X96203999Y-182942000D01*
X96854001Y-182942000D01*
X96878505Y-182943204D01*
X96878505Y-182943204D01*
G37*
D16*
G04 #@! TD*
G04 #@! TO.P,RG1,2*
G04 #@! TO.N,Net-(CF1-Pad2)*
X96529000Y-183642000D03*
D15*
G04 #@! TO.N,Net-(CF1-Pad2)*
G04 #@! TO.C,RF1*
G36*
X96878505Y-188531204D02*
X96902773Y-188534804D01*
X96926572Y-188540765D01*
X96949671Y-188549030D01*
X96971850Y-188559520D01*
X96992893Y-188572132D01*
X97012599Y-188586747D01*
X97030777Y-188603223D01*
X97047253Y-188621401D01*
X97061868Y-188641107D01*
X97074480Y-188662150D01*
X97084970Y-188684329D01*
X97093235Y-188707428D01*
X97099196Y-188731227D01*
X97102796Y-188755495D01*
X97104000Y-188779999D01*
X97104000Y-189680001D01*
X97102796Y-189704505D01*
X97099196Y-189728773D01*
X97093235Y-189752572D01*
X97084970Y-189775671D01*
X97074480Y-189797850D01*
X97061868Y-189818893D01*
X97047253Y-189838599D01*
X97030777Y-189856777D01*
X97012599Y-189873253D01*
X96992893Y-189887868D01*
X96971850Y-189900480D01*
X96949671Y-189910970D01*
X96926572Y-189919235D01*
X96902773Y-189925196D01*
X96878505Y-189928796D01*
X96854001Y-189930000D01*
X96203999Y-189930000D01*
X96179495Y-189928796D01*
X96155227Y-189925196D01*
X96131428Y-189919235D01*
X96108329Y-189910970D01*
X96086150Y-189900480D01*
X96065107Y-189887868D01*
X96045401Y-189873253D01*
X96027223Y-189856777D01*
X96010747Y-189838599D01*
X95996132Y-189818893D01*
X95983520Y-189797850D01*
X95973030Y-189775671D01*
X95964765Y-189752572D01*
X95958804Y-189728773D01*
X95955204Y-189704505D01*
X95954000Y-189680001D01*
X95954000Y-188779999D01*
X95955204Y-188755495D01*
X95958804Y-188731227D01*
X95964765Y-188707428D01*
X95973030Y-188684329D01*
X95983520Y-188662150D01*
X95996132Y-188641107D01*
X96010747Y-188621401D01*
X96027223Y-188603223D01*
X96045401Y-188586747D01*
X96065107Y-188572132D01*
X96086150Y-188559520D01*
X96108329Y-188549030D01*
X96131428Y-188540765D01*
X96155227Y-188534804D01*
X96179495Y-188531204D01*
X96203999Y-188530000D01*
X96854001Y-188530000D01*
X96878505Y-188531204D01*
X96878505Y-188531204D01*
G37*
D16*
G04 #@! TD*
G04 #@! TO.P,RF1,2*
G04 #@! TO.N,Net-(CF1-Pad2)*
X96529000Y-189230000D03*
D15*
G04 #@! TO.N,Net-(CF1-Pad1)*
G04 #@! TO.C,RF1*
G36*
X94828505Y-188531204D02*
X94852773Y-188534804D01*
X94876572Y-188540765D01*
X94899671Y-188549030D01*
X94921850Y-188559520D01*
X94942893Y-188572132D01*
X94962599Y-188586747D01*
X94980777Y-188603223D01*
X94997253Y-188621401D01*
X95011868Y-188641107D01*
X95024480Y-188662150D01*
X95034970Y-188684329D01*
X95043235Y-188707428D01*
X95049196Y-188731227D01*
X95052796Y-188755495D01*
X95054000Y-188779999D01*
X95054000Y-189680001D01*
X95052796Y-189704505D01*
X95049196Y-189728773D01*
X95043235Y-189752572D01*
X95034970Y-189775671D01*
X95024480Y-189797850D01*
X95011868Y-189818893D01*
X94997253Y-189838599D01*
X94980777Y-189856777D01*
X94962599Y-189873253D01*
X94942893Y-189887868D01*
X94921850Y-189900480D01*
X94899671Y-189910970D01*
X94876572Y-189919235D01*
X94852773Y-189925196D01*
X94828505Y-189928796D01*
X94804001Y-189930000D01*
X94153999Y-189930000D01*
X94129495Y-189928796D01*
X94105227Y-189925196D01*
X94081428Y-189919235D01*
X94058329Y-189910970D01*
X94036150Y-189900480D01*
X94015107Y-189887868D01*
X93995401Y-189873253D01*
X93977223Y-189856777D01*
X93960747Y-189838599D01*
X93946132Y-189818893D01*
X93933520Y-189797850D01*
X93923030Y-189775671D01*
X93914765Y-189752572D01*
X93908804Y-189728773D01*
X93905204Y-189704505D01*
X93904000Y-189680001D01*
X93904000Y-188779999D01*
X93905204Y-188755495D01*
X93908804Y-188731227D01*
X93914765Y-188707428D01*
X93923030Y-188684329D01*
X93933520Y-188662150D01*
X93946132Y-188641107D01*
X93960747Y-188621401D01*
X93977223Y-188603223D01*
X93995401Y-188586747D01*
X94015107Y-188572132D01*
X94036150Y-188559520D01*
X94058329Y-188549030D01*
X94081428Y-188540765D01*
X94105227Y-188534804D01*
X94129495Y-188531204D01*
X94153999Y-188530000D01*
X94804001Y-188530000D01*
X94828505Y-188531204D01*
X94828505Y-188531204D01*
G37*
D16*
G04 #@! TD*
G04 #@! TO.P,RF1,1*
G04 #@! TO.N,Net-(CF1-Pad1)*
X94479000Y-189230000D03*
D17*
G04 #@! TO.P,SW_PWR1,4*
G04 #@! TO.N,/-12V*
X80264000Y-120015000D03*
G04 #@! TO.P,SW_PWR1,1*
G04 #@! TO.N,/+12V*
X80264000Y-114015000D03*
G04 #@! TO.P,SW_PWR1,5*
G04 #@! TO.N,Net-(J_PWR1-Pad10)*
X84264000Y-120015000D03*
G04 #@! TO.P,SW_PWR1,2*
G04 #@! TO.N,Net-(J_PWR1-Pad2)*
X84264000Y-114015000D03*
G04 #@! TO.P,SW_PWR1,6*
G04 #@! TO.N,N/C*
X88264000Y-120015000D03*
G04 #@! TO.P,SW_PWR1,3*
X88264000Y-114015000D03*
G04 #@! TD*
D18*
G04 #@! TO.P,J_OUT1,1*
G04 #@! TO.N,/OutputSection/SIGOUT*
X90424000Y-204470000D03*
D19*
G04 #@! TO.P,J_OUT1,2*
G04 #@! TO.N,/GND*
X92964000Y-204470000D03*
G04 #@! TD*
D18*
G04 #@! TO.P,J_PWR1,1*
G04 #@! TO.N,N/C*
X96520000Y-96520000D03*
D19*
G04 #@! TO.P,J_PWR1,2*
G04 #@! TO.N,Net-(J_PWR1-Pad2)*
X99060000Y-96520000D03*
G04 #@! TO.P,J_PWR1,3*
G04 #@! TO.N,N/C*
X96520000Y-99060000D03*
G04 #@! TO.P,J_PWR1,4*
G04 #@! TO.N,/GND*
X99060000Y-99060000D03*
G04 #@! TO.P,J_PWR1,5*
G04 #@! TO.N,N/C*
X96520000Y-101600000D03*
G04 #@! TO.P,J_PWR1,6*
G04 #@! TO.N,/GND*
X99060000Y-101600000D03*
G04 #@! TO.P,J_PWR1,7*
G04 #@! TO.N,N/C*
X96520000Y-104140000D03*
G04 #@! TO.P,J_PWR1,8*
G04 #@! TO.N,/GND*
X99060000Y-104140000D03*
G04 #@! TO.P,J_PWR1,9*
G04 #@! TO.N,N/C*
X96520000Y-106680000D03*
G04 #@! TO.P,J_PWR1,10*
G04 #@! TO.N,Net-(J_PWR1-Pad10)*
X99060000Y-106680000D03*
G04 #@! TD*
D20*
G04 #@! TO.P,U_POT1,1*
G04 #@! TO.N,/POT_CS*
X111412000Y-201930000D03*
G04 #@! TO.P,U_POT1,2*
G04 #@! TO.N,/SCK*
X111412000Y-200660000D03*
G04 #@! TO.P,U_POT1,3*
G04 #@! TO.N,/MOSI*
X111412000Y-199390000D03*
G04 #@! TO.P,U_POT1,4*
G04 #@! TO.N,/GND*
X111412000Y-198120000D03*
G04 #@! TO.P,U_POT1,5*
G04 #@! TO.N,Net-(ROFF2-Pad1)*
X111412000Y-196850000D03*
G04 #@! TO.P,U_POT1,6*
G04 #@! TO.N,/OFFSETADJUST*
X111412000Y-195580000D03*
G04 #@! TO.P,U_POT1,7*
G04 #@! TO.N,Net-(ROFF1-Pad1)*
X111412000Y-194310000D03*
G04 #@! TO.P,U_POT1,8*
G04 #@! TO.N,/DDS_SIG*
X106012000Y-194310000D03*
G04 #@! TO.P,U_POT1,9*
G04 #@! TO.N,/DDS_REDUX*
X106012000Y-195580000D03*
G04 #@! TO.P,U_POT1,10*
G04 #@! TO.N,/GND*
X106012000Y-196850000D03*
G04 #@! TO.P,U_POT1,11*
G04 #@! TO.N,/5V*
X106012000Y-198120000D03*
G04 #@! TO.P,U_POT1,12*
X106012000Y-199390000D03*
G04 #@! TO.P,U_POT1,13*
G04 #@! TO.N,N/C*
X106012000Y-200660000D03*
G04 #@! TO.P,U_POT1,14*
G04 #@! TO.N,/5V*
X106012000Y-201930000D03*
G04 #@! TD*
D15*
G04 #@! TO.N,/-12V*
G04 #@! TO.C,R_LOFF1*
G36*
X72984505Y-210121204D02*
X73008773Y-210124804D01*
X73032572Y-210130765D01*
X73055671Y-210139030D01*
X73077850Y-210149520D01*
X73098893Y-210162132D01*
X73118599Y-210176747D01*
X73136777Y-210193223D01*
X73153253Y-210211401D01*
X73167868Y-210231107D01*
X73180480Y-210252150D01*
X73190970Y-210274329D01*
X73199235Y-210297428D01*
X73205196Y-210321227D01*
X73208796Y-210345495D01*
X73210000Y-210369999D01*
X73210000Y-211270001D01*
X73208796Y-211294505D01*
X73205196Y-211318773D01*
X73199235Y-211342572D01*
X73190970Y-211365671D01*
X73180480Y-211387850D01*
X73167868Y-211408893D01*
X73153253Y-211428599D01*
X73136777Y-211446777D01*
X73118599Y-211463253D01*
X73098893Y-211477868D01*
X73077850Y-211490480D01*
X73055671Y-211500970D01*
X73032572Y-211509235D01*
X73008773Y-211515196D01*
X72984505Y-211518796D01*
X72960001Y-211520000D01*
X72309999Y-211520000D01*
X72285495Y-211518796D01*
X72261227Y-211515196D01*
X72237428Y-211509235D01*
X72214329Y-211500970D01*
X72192150Y-211490480D01*
X72171107Y-211477868D01*
X72151401Y-211463253D01*
X72133223Y-211446777D01*
X72116747Y-211428599D01*
X72102132Y-211408893D01*
X72089520Y-211387850D01*
X72079030Y-211365671D01*
X72070765Y-211342572D01*
X72064804Y-211318773D01*
X72061204Y-211294505D01*
X72060000Y-211270001D01*
X72060000Y-210369999D01*
X72061204Y-210345495D01*
X72064804Y-210321227D01*
X72070765Y-210297428D01*
X72079030Y-210274329D01*
X72089520Y-210252150D01*
X72102132Y-210231107D01*
X72116747Y-210211401D01*
X72133223Y-210193223D01*
X72151401Y-210176747D01*
X72171107Y-210162132D01*
X72192150Y-210149520D01*
X72214329Y-210139030D01*
X72237428Y-210130765D01*
X72261227Y-210124804D01*
X72285495Y-210121204D01*
X72309999Y-210120000D01*
X72960001Y-210120000D01*
X72984505Y-210121204D01*
X72984505Y-210121204D01*
G37*
D16*
G04 #@! TD*
G04 #@! TO.P,R_LOFF1,1*
G04 #@! TO.N,/-12V*
X72635000Y-210820000D03*
D15*
G04 #@! TO.N,Net-(RV_LOWOFF1-Pad3)*
G04 #@! TO.C,R_LOFF1*
G36*
X75034505Y-210121204D02*
X75058773Y-210124804D01*
X75082572Y-210130765D01*
X75105671Y-210139030D01*
X75127850Y-210149520D01*
X75148893Y-210162132D01*
X75168599Y-210176747D01*
X75186777Y-210193223D01*
X75203253Y-210211401D01*
X75217868Y-210231107D01*
X75230480Y-210252150D01*
X75240970Y-210274329D01*
X75249235Y-210297428D01*
X75255196Y-210321227D01*
X75258796Y-210345495D01*
X75260000Y-210369999D01*
X75260000Y-211270001D01*
X75258796Y-211294505D01*
X75255196Y-211318773D01*
X75249235Y-211342572D01*
X75240970Y-211365671D01*
X75230480Y-211387850D01*
X75217868Y-211408893D01*
X75203253Y-211428599D01*
X75186777Y-211446777D01*
X75168599Y-211463253D01*
X75148893Y-211477868D01*
X75127850Y-211490480D01*
X75105671Y-211500970D01*
X75082572Y-211509235D01*
X75058773Y-211515196D01*
X75034505Y-211518796D01*
X75010001Y-211520000D01*
X74359999Y-211520000D01*
X74335495Y-211518796D01*
X74311227Y-211515196D01*
X74287428Y-211509235D01*
X74264329Y-211500970D01*
X74242150Y-211490480D01*
X74221107Y-211477868D01*
X74201401Y-211463253D01*
X74183223Y-211446777D01*
X74166747Y-211428599D01*
X74152132Y-211408893D01*
X74139520Y-211387850D01*
X74129030Y-211365671D01*
X74120765Y-211342572D01*
X74114804Y-211318773D01*
X74111204Y-211294505D01*
X74110000Y-211270001D01*
X74110000Y-210369999D01*
X74111204Y-210345495D01*
X74114804Y-210321227D01*
X74120765Y-210297428D01*
X74129030Y-210274329D01*
X74139520Y-210252150D01*
X74152132Y-210231107D01*
X74166747Y-210211401D01*
X74183223Y-210193223D01*
X74201401Y-210176747D01*
X74221107Y-210162132D01*
X74242150Y-210149520D01*
X74264329Y-210139030D01*
X74287428Y-210130765D01*
X74311227Y-210124804D01*
X74335495Y-210121204D01*
X74359999Y-210120000D01*
X75010001Y-210120000D01*
X75034505Y-210121204D01*
X75034505Y-210121204D01*
G37*
D16*
G04 #@! TD*
G04 #@! TO.P,R_LOFF1,2*
G04 #@! TO.N,Net-(RV_LOWOFF1-Pad3)*
X74685000Y-210820000D03*
D15*
G04 #@! TO.N,/+12V*
G04 #@! TO.C,C1*
G36*
X95724505Y-88317204D02*
X95748773Y-88320804D01*
X95772572Y-88326765D01*
X95795671Y-88335030D01*
X95817850Y-88345520D01*
X95838893Y-88358132D01*
X95858599Y-88372747D01*
X95876777Y-88389223D01*
X95893253Y-88407401D01*
X95907868Y-88427107D01*
X95920480Y-88448150D01*
X95930970Y-88470329D01*
X95939235Y-88493428D01*
X95945196Y-88517227D01*
X95948796Y-88541495D01*
X95950000Y-88565999D01*
X95950000Y-89216001D01*
X95948796Y-89240505D01*
X95945196Y-89264773D01*
X95939235Y-89288572D01*
X95930970Y-89311671D01*
X95920480Y-89333850D01*
X95907868Y-89354893D01*
X95893253Y-89374599D01*
X95876777Y-89392777D01*
X95858599Y-89409253D01*
X95838893Y-89423868D01*
X95817850Y-89436480D01*
X95795671Y-89446970D01*
X95772572Y-89455235D01*
X95748773Y-89461196D01*
X95724505Y-89464796D01*
X95700001Y-89466000D01*
X94799999Y-89466000D01*
X94775495Y-89464796D01*
X94751227Y-89461196D01*
X94727428Y-89455235D01*
X94704329Y-89446970D01*
X94682150Y-89436480D01*
X94661107Y-89423868D01*
X94641401Y-89409253D01*
X94623223Y-89392777D01*
X94606747Y-89374599D01*
X94592132Y-89354893D01*
X94579520Y-89333850D01*
X94569030Y-89311671D01*
X94560765Y-89288572D01*
X94554804Y-89264773D01*
X94551204Y-89240505D01*
X94550000Y-89216001D01*
X94550000Y-88565999D01*
X94551204Y-88541495D01*
X94554804Y-88517227D01*
X94560765Y-88493428D01*
X94569030Y-88470329D01*
X94579520Y-88448150D01*
X94592132Y-88427107D01*
X94606747Y-88407401D01*
X94623223Y-88389223D01*
X94641401Y-88372747D01*
X94661107Y-88358132D01*
X94682150Y-88345520D01*
X94704329Y-88335030D01*
X94727428Y-88326765D01*
X94751227Y-88320804D01*
X94775495Y-88317204D01*
X94799999Y-88316000D01*
X95700001Y-88316000D01*
X95724505Y-88317204D01*
X95724505Y-88317204D01*
G37*
D16*
G04 #@! TD*
G04 #@! TO.P,C1,1*
G04 #@! TO.N,/+12V*
X95250000Y-88891000D03*
D15*
G04 #@! TO.N,/GND*
G04 #@! TO.C,C1*
G36*
X95724505Y-90367204D02*
X95748773Y-90370804D01*
X95772572Y-90376765D01*
X95795671Y-90385030D01*
X95817850Y-90395520D01*
X95838893Y-90408132D01*
X95858599Y-90422747D01*
X95876777Y-90439223D01*
X95893253Y-90457401D01*
X95907868Y-90477107D01*
X95920480Y-90498150D01*
X95930970Y-90520329D01*
X95939235Y-90543428D01*
X95945196Y-90567227D01*
X95948796Y-90591495D01*
X95950000Y-90615999D01*
X95950000Y-91266001D01*
X95948796Y-91290505D01*
X95945196Y-91314773D01*
X95939235Y-91338572D01*
X95930970Y-91361671D01*
X95920480Y-91383850D01*
X95907868Y-91404893D01*
X95893253Y-91424599D01*
X95876777Y-91442777D01*
X95858599Y-91459253D01*
X95838893Y-91473868D01*
X95817850Y-91486480D01*
X95795671Y-91496970D01*
X95772572Y-91505235D01*
X95748773Y-91511196D01*
X95724505Y-91514796D01*
X95700001Y-91516000D01*
X94799999Y-91516000D01*
X94775495Y-91514796D01*
X94751227Y-91511196D01*
X94727428Y-91505235D01*
X94704329Y-91496970D01*
X94682150Y-91486480D01*
X94661107Y-91473868D01*
X94641401Y-91459253D01*
X94623223Y-91442777D01*
X94606747Y-91424599D01*
X94592132Y-91404893D01*
X94579520Y-91383850D01*
X94569030Y-91361671D01*
X94560765Y-91338572D01*
X94554804Y-91314773D01*
X94551204Y-91290505D01*
X94550000Y-91266001D01*
X94550000Y-90615999D01*
X94551204Y-90591495D01*
X94554804Y-90567227D01*
X94560765Y-90543428D01*
X94569030Y-90520329D01*
X94579520Y-90498150D01*
X94592132Y-90477107D01*
X94606747Y-90457401D01*
X94623223Y-90439223D01*
X94641401Y-90422747D01*
X94661107Y-90408132D01*
X94682150Y-90395520D01*
X94704329Y-90385030D01*
X94727428Y-90376765D01*
X94751227Y-90370804D01*
X94775495Y-90367204D01*
X94799999Y-90366000D01*
X95700001Y-90366000D01*
X95724505Y-90367204D01*
X95724505Y-90367204D01*
G37*
D16*
G04 #@! TD*
G04 #@! TO.P,C1,2*
G04 #@! TO.N,/GND*
X95250000Y-90941000D03*
D15*
G04 #@! TO.N,/GND*
G04 #@! TO.C,C2*
G36*
X100804505Y-90367204D02*
X100828773Y-90370804D01*
X100852572Y-90376765D01*
X100875671Y-90385030D01*
X100897850Y-90395520D01*
X100918893Y-90408132D01*
X100938599Y-90422747D01*
X100956777Y-90439223D01*
X100973253Y-90457401D01*
X100987868Y-90477107D01*
X101000480Y-90498150D01*
X101010970Y-90520329D01*
X101019235Y-90543428D01*
X101025196Y-90567227D01*
X101028796Y-90591495D01*
X101030000Y-90615999D01*
X101030000Y-91266001D01*
X101028796Y-91290505D01*
X101025196Y-91314773D01*
X101019235Y-91338572D01*
X101010970Y-91361671D01*
X101000480Y-91383850D01*
X100987868Y-91404893D01*
X100973253Y-91424599D01*
X100956777Y-91442777D01*
X100938599Y-91459253D01*
X100918893Y-91473868D01*
X100897850Y-91486480D01*
X100875671Y-91496970D01*
X100852572Y-91505235D01*
X100828773Y-91511196D01*
X100804505Y-91514796D01*
X100780001Y-91516000D01*
X99879999Y-91516000D01*
X99855495Y-91514796D01*
X99831227Y-91511196D01*
X99807428Y-91505235D01*
X99784329Y-91496970D01*
X99762150Y-91486480D01*
X99741107Y-91473868D01*
X99721401Y-91459253D01*
X99703223Y-91442777D01*
X99686747Y-91424599D01*
X99672132Y-91404893D01*
X99659520Y-91383850D01*
X99649030Y-91361671D01*
X99640765Y-91338572D01*
X99634804Y-91314773D01*
X99631204Y-91290505D01*
X99630000Y-91266001D01*
X99630000Y-90615999D01*
X99631204Y-90591495D01*
X99634804Y-90567227D01*
X99640765Y-90543428D01*
X99649030Y-90520329D01*
X99659520Y-90498150D01*
X99672132Y-90477107D01*
X99686747Y-90457401D01*
X99703223Y-90439223D01*
X99721401Y-90422747D01*
X99741107Y-90408132D01*
X99762150Y-90395520D01*
X99784329Y-90385030D01*
X99807428Y-90376765D01*
X99831227Y-90370804D01*
X99855495Y-90367204D01*
X99879999Y-90366000D01*
X100780001Y-90366000D01*
X100804505Y-90367204D01*
X100804505Y-90367204D01*
G37*
D16*
G04 #@! TD*
G04 #@! TO.P,C2,2*
G04 #@! TO.N,/GND*
X100330000Y-90941000D03*
D15*
G04 #@! TO.N,/5V*
G04 #@! TO.C,C2*
G36*
X100804505Y-88317204D02*
X100828773Y-88320804D01*
X100852572Y-88326765D01*
X100875671Y-88335030D01*
X100897850Y-88345520D01*
X100918893Y-88358132D01*
X100938599Y-88372747D01*
X100956777Y-88389223D01*
X100973253Y-88407401D01*
X100987868Y-88427107D01*
X101000480Y-88448150D01*
X101010970Y-88470329D01*
X101019235Y-88493428D01*
X101025196Y-88517227D01*
X101028796Y-88541495D01*
X101030000Y-88565999D01*
X101030000Y-89216001D01*
X101028796Y-89240505D01*
X101025196Y-89264773D01*
X101019235Y-89288572D01*
X101010970Y-89311671D01*
X101000480Y-89333850D01*
X100987868Y-89354893D01*
X100973253Y-89374599D01*
X100956777Y-89392777D01*
X100938599Y-89409253D01*
X100918893Y-89423868D01*
X100897850Y-89436480D01*
X100875671Y-89446970D01*
X100852572Y-89455235D01*
X100828773Y-89461196D01*
X100804505Y-89464796D01*
X100780001Y-89466000D01*
X99879999Y-89466000D01*
X99855495Y-89464796D01*
X99831227Y-89461196D01*
X99807428Y-89455235D01*
X99784329Y-89446970D01*
X99762150Y-89436480D01*
X99741107Y-89423868D01*
X99721401Y-89409253D01*
X99703223Y-89392777D01*
X99686747Y-89374599D01*
X99672132Y-89354893D01*
X99659520Y-89333850D01*
X99649030Y-89311671D01*
X99640765Y-89288572D01*
X99634804Y-89264773D01*
X99631204Y-89240505D01*
X99630000Y-89216001D01*
X99630000Y-88565999D01*
X99631204Y-88541495D01*
X99634804Y-88517227D01*
X99640765Y-88493428D01*
X99649030Y-88470329D01*
X99659520Y-88448150D01*
X99672132Y-88427107D01*
X99686747Y-88407401D01*
X99703223Y-88389223D01*
X99721401Y-88372747D01*
X99741107Y-88358132D01*
X99762150Y-88345520D01*
X99784329Y-88335030D01*
X99807428Y-88326765D01*
X99831227Y-88320804D01*
X99855495Y-88317204D01*
X99879999Y-88316000D01*
X100780001Y-88316000D01*
X100804505Y-88317204D01*
X100804505Y-88317204D01*
G37*
D16*
G04 #@! TD*
G04 #@! TO.P,C2,1*
G04 #@! TO.N,/5V*
X100330000Y-88891000D03*
D19*
G04 #@! TO.P,J_AD9833,7*
G04 #@! TO.N,/DDS_SIG*
X111194407Y-178061772D03*
G04 #@! TO.P,J_AD9833,6*
G04 #@! TO.N,/DDS_CS*
X111194407Y-175521772D03*
G04 #@! TO.P,J_AD9833,5*
G04 #@! TO.N,/SCK*
X111194407Y-172981772D03*
G04 #@! TO.P,J_AD9833,4*
G04 #@! TO.N,/MOSI*
X111194407Y-170441772D03*
G04 #@! TO.P,J_AD9833,3*
G04 #@! TO.N,/GND*
X111194407Y-167901772D03*
G04 #@! TO.P,J_AD9833,2*
G04 #@! TO.N,/5V*
X111194407Y-165361772D03*
D18*
G04 #@! TO.P,J_AD9833,1*
G04 #@! TO.N,N/C*
X111194407Y-162821772D03*
G04 #@! TD*
G04 #@! TO.P,J_AUX2MAIN2,1*
G04 #@! TO.N,/AuxiliaryBoard/5V_AUX*
X82115681Y-81370698D03*
D19*
G04 #@! TO.P,J_AUX2MAIN2,2*
G04 #@! TO.N,N/C*
X79575681Y-81370698D03*
G04 #@! TO.P,J_AUX2MAIN2,3*
G04 #@! TO.N,/AuxiliaryBoard/GND_AUX*
X82115681Y-78830698D03*
G04 #@! TO.P,J_AUX2MAIN2,4*
G04 #@! TO.N,N/C*
X79575681Y-78830698D03*
G04 #@! TO.P,J_AUX2MAIN2,5*
G04 #@! TO.N,/AuxiliaryBoard/RANGEBTN_AUX*
X82115681Y-76290698D03*
G04 #@! TO.P,J_AUX2MAIN2,6*
G04 #@! TO.N,N/C*
X79575681Y-76290698D03*
G04 #@! TO.P,J_AUX2MAIN2,7*
G04 #@! TO.N,/AuxiliaryBoard/MODEBTN_AUX*
X82115681Y-73750698D03*
G04 #@! TO.P,J_AUX2MAIN2,8*
G04 #@! TO.N,/AuxiliaryBoard/SCL_AUX*
X79575681Y-73750698D03*
G04 #@! TO.P,J_AUX2MAIN2,9*
G04 #@! TO.N,/AuxiliaryBoard/WAVEBTN_AUX*
X82115681Y-71210698D03*
G04 #@! TO.P,J_AUX2MAIN2,10*
G04 #@! TO.N,/AuxiliaryBoard/SDA_AUX*
X79575681Y-71210698D03*
G04 #@! TD*
D18*
G04 #@! TO.P,J_MAIN2AUX1,1*
G04 #@! TO.N,/5V*
X127000000Y-78994000D03*
D19*
G04 #@! TO.P,J_MAIN2AUX1,2*
G04 #@! TO.N,N/C*
X124460000Y-78994000D03*
G04 #@! TO.P,J_MAIN2AUX1,3*
G04 #@! TO.N,/GND*
X127000000Y-76454000D03*
G04 #@! TO.P,J_MAIN2AUX1,4*
G04 #@! TO.N,N/C*
X124460000Y-76454000D03*
G04 #@! TO.P,J_MAIN2AUX1,5*
G04 #@! TO.N,/RANGEBTN*
X127000000Y-73914000D03*
G04 #@! TO.P,J_MAIN2AUX1,6*
G04 #@! TO.N,N/C*
X124460000Y-73914000D03*
G04 #@! TO.P,J_MAIN2AUX1,7*
G04 #@! TO.N,/MODEBTN*
X127000000Y-71374000D03*
G04 #@! TO.P,J_MAIN2AUX1,8*
G04 #@! TO.N,/SCL*
X124460000Y-71374000D03*
G04 #@! TO.P,J_MAIN2AUX1,9*
G04 #@! TO.N,/WAVEBTN*
X127000000Y-68834000D03*
G04 #@! TO.P,J_MAIN2AUX1,10*
G04 #@! TO.N,/SDA*
X124460000Y-68834000D03*
G04 #@! TD*
D18*
G04 #@! TO.P,J_OLEDCONNECTOR1,1*
G04 #@! TO.N,/AuxiliaryBoard/5V_AUX*
X65709646Y-69256447D03*
D19*
G04 #@! TO.P,J_OLEDCONNECTOR1,2*
G04 #@! TO.N,/AuxiliaryBoard/GND_AUX*
X68249646Y-69256447D03*
G04 #@! TO.P,J_OLEDCONNECTOR1,3*
G04 #@! TO.N,/AuxiliaryBoard/SCL_AUX*
X70789646Y-69256447D03*
G04 #@! TO.P,J_OLEDCONNECTOR1,4*
G04 #@! TO.N,/AuxiliaryBoard/SDA_AUX*
X73329646Y-69256447D03*
G04 #@! TD*
D15*
G04 #@! TO.N,Net-(CF2-Pad1)*
G04 #@! TO.C,R_ISO1*
G36*
X90898505Y-215843204D02*
X90922773Y-215846804D01*
X90946572Y-215852765D01*
X90969671Y-215861030D01*
X90991850Y-215871520D01*
X91012893Y-215884132D01*
X91032599Y-215898747D01*
X91050777Y-215915223D01*
X91067253Y-215933401D01*
X91081868Y-215953107D01*
X91094480Y-215974150D01*
X91104970Y-215996329D01*
X91113235Y-216019428D01*
X91119196Y-216043227D01*
X91122796Y-216067495D01*
X91124000Y-216091999D01*
X91124000Y-216742001D01*
X91122796Y-216766505D01*
X91119196Y-216790773D01*
X91113235Y-216814572D01*
X91104970Y-216837671D01*
X91094480Y-216859850D01*
X91081868Y-216880893D01*
X91067253Y-216900599D01*
X91050777Y-216918777D01*
X91032599Y-216935253D01*
X91012893Y-216949868D01*
X90991850Y-216962480D01*
X90969671Y-216972970D01*
X90946572Y-216981235D01*
X90922773Y-216987196D01*
X90898505Y-216990796D01*
X90874001Y-216992000D01*
X89973999Y-216992000D01*
X89949495Y-216990796D01*
X89925227Y-216987196D01*
X89901428Y-216981235D01*
X89878329Y-216972970D01*
X89856150Y-216962480D01*
X89835107Y-216949868D01*
X89815401Y-216935253D01*
X89797223Y-216918777D01*
X89780747Y-216900599D01*
X89766132Y-216880893D01*
X89753520Y-216859850D01*
X89743030Y-216837671D01*
X89734765Y-216814572D01*
X89728804Y-216790773D01*
X89725204Y-216766505D01*
X89724000Y-216742001D01*
X89724000Y-216091999D01*
X89725204Y-216067495D01*
X89728804Y-216043227D01*
X89734765Y-216019428D01*
X89743030Y-215996329D01*
X89753520Y-215974150D01*
X89766132Y-215953107D01*
X89780747Y-215933401D01*
X89797223Y-215915223D01*
X89815401Y-215898747D01*
X89835107Y-215884132D01*
X89856150Y-215871520D01*
X89878329Y-215861030D01*
X89901428Y-215852765D01*
X89925227Y-215846804D01*
X89949495Y-215843204D01*
X89973999Y-215842000D01*
X90874001Y-215842000D01*
X90898505Y-215843204D01*
X90898505Y-215843204D01*
G37*
D16*
G04 #@! TD*
G04 #@! TO.P,R_ISO1,2*
G04 #@! TO.N,Net-(CF2-Pad1)*
X90424000Y-216417000D03*
D15*
G04 #@! TO.N,/OutputSection/SIGOUT*
G04 #@! TO.C,R_ISO1*
G36*
X90898505Y-213793204D02*
X90922773Y-213796804D01*
X90946572Y-213802765D01*
X90969671Y-213811030D01*
X90991850Y-213821520D01*
X91012893Y-213834132D01*
X91032599Y-213848747D01*
X91050777Y-213865223D01*
X91067253Y-213883401D01*
X91081868Y-213903107D01*
X91094480Y-213924150D01*
X91104970Y-213946329D01*
X91113235Y-213969428D01*
X91119196Y-213993227D01*
X91122796Y-214017495D01*
X91124000Y-214041999D01*
X91124000Y-214692001D01*
X91122796Y-214716505D01*
X91119196Y-214740773D01*
X91113235Y-214764572D01*
X91104970Y-214787671D01*
X91094480Y-214809850D01*
X91081868Y-214830893D01*
X91067253Y-214850599D01*
X91050777Y-214868777D01*
X91032599Y-214885253D01*
X91012893Y-214899868D01*
X90991850Y-214912480D01*
X90969671Y-214922970D01*
X90946572Y-214931235D01*
X90922773Y-214937196D01*
X90898505Y-214940796D01*
X90874001Y-214942000D01*
X89973999Y-214942000D01*
X89949495Y-214940796D01*
X89925227Y-214937196D01*
X89901428Y-214931235D01*
X89878329Y-214922970D01*
X89856150Y-214912480D01*
X89835107Y-214899868D01*
X89815401Y-214885253D01*
X89797223Y-214868777D01*
X89780747Y-214850599D01*
X89766132Y-214830893D01*
X89753520Y-214809850D01*
X89743030Y-214787671D01*
X89734765Y-214764572D01*
X89728804Y-214740773D01*
X89725204Y-214716505D01*
X89724000Y-214692001D01*
X89724000Y-214041999D01*
X89725204Y-214017495D01*
X89728804Y-213993227D01*
X89734765Y-213969428D01*
X89743030Y-213946329D01*
X89753520Y-213924150D01*
X89766132Y-213903107D01*
X89780747Y-213883401D01*
X89797223Y-213865223D01*
X89815401Y-213848747D01*
X89835107Y-213834132D01*
X89856150Y-213821520D01*
X89878329Y-213811030D01*
X89901428Y-213802765D01*
X89925227Y-213796804D01*
X89949495Y-213793204D01*
X89973999Y-213792000D01*
X90874001Y-213792000D01*
X90898505Y-213793204D01*
X90898505Y-213793204D01*
G37*
D16*
G04 #@! TD*
G04 #@! TO.P,R_ISO1,1*
G04 #@! TO.N,/OutputSection/SIGOUT*
X90424000Y-214367000D03*
D15*
G04 #@! TO.N,Net-(CF1-Pad1)*
G04 #@! TO.C,R_MIX1*
G36*
X83289505Y-192341204D02*
X83313773Y-192344804D01*
X83337572Y-192350765D01*
X83360671Y-192359030D01*
X83382850Y-192369520D01*
X83403893Y-192382132D01*
X83423599Y-192396747D01*
X83441777Y-192413223D01*
X83458253Y-192431401D01*
X83472868Y-192451107D01*
X83485480Y-192472150D01*
X83495970Y-192494329D01*
X83504235Y-192517428D01*
X83510196Y-192541227D01*
X83513796Y-192565495D01*
X83515000Y-192589999D01*
X83515000Y-193490001D01*
X83513796Y-193514505D01*
X83510196Y-193538773D01*
X83504235Y-193562572D01*
X83495970Y-193585671D01*
X83485480Y-193607850D01*
X83472868Y-193628893D01*
X83458253Y-193648599D01*
X83441777Y-193666777D01*
X83423599Y-193683253D01*
X83403893Y-193697868D01*
X83382850Y-193710480D01*
X83360671Y-193720970D01*
X83337572Y-193729235D01*
X83313773Y-193735196D01*
X83289505Y-193738796D01*
X83265001Y-193740000D01*
X82614999Y-193740000D01*
X82590495Y-193738796D01*
X82566227Y-193735196D01*
X82542428Y-193729235D01*
X82519329Y-193720970D01*
X82497150Y-193710480D01*
X82476107Y-193697868D01*
X82456401Y-193683253D01*
X82438223Y-193666777D01*
X82421747Y-193648599D01*
X82407132Y-193628893D01*
X82394520Y-193607850D01*
X82384030Y-193585671D01*
X82375765Y-193562572D01*
X82369804Y-193538773D01*
X82366204Y-193514505D01*
X82365000Y-193490001D01*
X82365000Y-192589999D01*
X82366204Y-192565495D01*
X82369804Y-192541227D01*
X82375765Y-192517428D01*
X82384030Y-192494329D01*
X82394520Y-192472150D01*
X82407132Y-192451107D01*
X82421747Y-192431401D01*
X82438223Y-192413223D01*
X82456401Y-192396747D01*
X82476107Y-192382132D01*
X82497150Y-192369520D01*
X82519329Y-192359030D01*
X82542428Y-192350765D01*
X82566227Y-192344804D01*
X82590495Y-192341204D01*
X82614999Y-192340000D01*
X83265001Y-192340000D01*
X83289505Y-192341204D01*
X83289505Y-192341204D01*
G37*
D16*
G04 #@! TD*
G04 #@! TO.P,R_MIX1,1*
G04 #@! TO.N,Net-(CF1-Pad1)*
X82940000Y-193040000D03*
D15*
G04 #@! TO.N,Net-(RV_AMP1-Pad5)*
G04 #@! TO.C,R_MIX1*
G36*
X81239505Y-192341204D02*
X81263773Y-192344804D01*
X81287572Y-192350765D01*
X81310671Y-192359030D01*
X81332850Y-192369520D01*
X81353893Y-192382132D01*
X81373599Y-192396747D01*
X81391777Y-192413223D01*
X81408253Y-192431401D01*
X81422868Y-192451107D01*
X81435480Y-192472150D01*
X81445970Y-192494329D01*
X81454235Y-192517428D01*
X81460196Y-192541227D01*
X81463796Y-192565495D01*
X81465000Y-192589999D01*
X81465000Y-193490001D01*
X81463796Y-193514505D01*
X81460196Y-193538773D01*
X81454235Y-193562572D01*
X81445970Y-193585671D01*
X81435480Y-193607850D01*
X81422868Y-193628893D01*
X81408253Y-193648599D01*
X81391777Y-193666777D01*
X81373599Y-193683253D01*
X81353893Y-193697868D01*
X81332850Y-193710480D01*
X81310671Y-193720970D01*
X81287572Y-193729235D01*
X81263773Y-193735196D01*
X81239505Y-193738796D01*
X81215001Y-193740000D01*
X80564999Y-193740000D01*
X80540495Y-193738796D01*
X80516227Y-193735196D01*
X80492428Y-193729235D01*
X80469329Y-193720970D01*
X80447150Y-193710480D01*
X80426107Y-193697868D01*
X80406401Y-193683253D01*
X80388223Y-193666777D01*
X80371747Y-193648599D01*
X80357132Y-193628893D01*
X80344520Y-193607850D01*
X80334030Y-193585671D01*
X80325765Y-193562572D01*
X80319804Y-193538773D01*
X80316204Y-193514505D01*
X80315000Y-193490001D01*
X80315000Y-192589999D01*
X80316204Y-192565495D01*
X80319804Y-192541227D01*
X80325765Y-192517428D01*
X80334030Y-192494329D01*
X80344520Y-192472150D01*
X80357132Y-192451107D01*
X80371747Y-192431401D01*
X80388223Y-192413223D01*
X80406401Y-192396747D01*
X80426107Y-192382132D01*
X80447150Y-192369520D01*
X80469329Y-192359030D01*
X80492428Y-192350765D01*
X80516227Y-192344804D01*
X80540495Y-192341204D01*
X80564999Y-192340000D01*
X81215001Y-192340000D01*
X81239505Y-192341204D01*
X81239505Y-192341204D01*
G37*
D16*
G04 #@! TD*
G04 #@! TO.P,R_MIX1,2*
G04 #@! TO.N,Net-(RV_AMP1-Pad5)*
X80890000Y-193040000D03*
D15*
G04 #@! TO.N,Net-(RV_AMP1-Pad5)*
G04 #@! TO.C,R_MIX2*
G36*
X75796505Y-184721204D02*
X75820773Y-184724804D01*
X75844572Y-184730765D01*
X75867671Y-184739030D01*
X75889850Y-184749520D01*
X75910893Y-184762132D01*
X75930599Y-184776747D01*
X75948777Y-184793223D01*
X75965253Y-184811401D01*
X75979868Y-184831107D01*
X75992480Y-184852150D01*
X76002970Y-184874329D01*
X76011235Y-184897428D01*
X76017196Y-184921227D01*
X76020796Y-184945495D01*
X76022000Y-184969999D01*
X76022000Y-185870001D01*
X76020796Y-185894505D01*
X76017196Y-185918773D01*
X76011235Y-185942572D01*
X76002970Y-185965671D01*
X75992480Y-185987850D01*
X75979868Y-186008893D01*
X75965253Y-186028599D01*
X75948777Y-186046777D01*
X75930599Y-186063253D01*
X75910893Y-186077868D01*
X75889850Y-186090480D01*
X75867671Y-186100970D01*
X75844572Y-186109235D01*
X75820773Y-186115196D01*
X75796505Y-186118796D01*
X75772001Y-186120000D01*
X75121999Y-186120000D01*
X75097495Y-186118796D01*
X75073227Y-186115196D01*
X75049428Y-186109235D01*
X75026329Y-186100970D01*
X75004150Y-186090480D01*
X74983107Y-186077868D01*
X74963401Y-186063253D01*
X74945223Y-186046777D01*
X74928747Y-186028599D01*
X74914132Y-186008893D01*
X74901520Y-185987850D01*
X74891030Y-185965671D01*
X74882765Y-185942572D01*
X74876804Y-185918773D01*
X74873204Y-185894505D01*
X74872000Y-185870001D01*
X74872000Y-184969999D01*
X74873204Y-184945495D01*
X74876804Y-184921227D01*
X74882765Y-184897428D01*
X74891030Y-184874329D01*
X74901520Y-184852150D01*
X74914132Y-184831107D01*
X74928747Y-184811401D01*
X74945223Y-184793223D01*
X74963401Y-184776747D01*
X74983107Y-184762132D01*
X75004150Y-184749520D01*
X75026329Y-184739030D01*
X75049428Y-184730765D01*
X75073227Y-184724804D01*
X75097495Y-184721204D01*
X75121999Y-184720000D01*
X75772001Y-184720000D01*
X75796505Y-184721204D01*
X75796505Y-184721204D01*
G37*
D16*
G04 #@! TD*
G04 #@! TO.P,R_MIX2,2*
G04 #@! TO.N,Net-(RV_AMP1-Pad5)*
X75447000Y-185420000D03*
D15*
G04 #@! TO.N,Net-(RV_AMP1-Pad2)*
G04 #@! TO.C,R_MIX2*
G36*
X73746505Y-184721204D02*
X73770773Y-184724804D01*
X73794572Y-184730765D01*
X73817671Y-184739030D01*
X73839850Y-184749520D01*
X73860893Y-184762132D01*
X73880599Y-184776747D01*
X73898777Y-184793223D01*
X73915253Y-184811401D01*
X73929868Y-184831107D01*
X73942480Y-184852150D01*
X73952970Y-184874329D01*
X73961235Y-184897428D01*
X73967196Y-184921227D01*
X73970796Y-184945495D01*
X73972000Y-184969999D01*
X73972000Y-185870001D01*
X73970796Y-185894505D01*
X73967196Y-185918773D01*
X73961235Y-185942572D01*
X73952970Y-185965671D01*
X73942480Y-185987850D01*
X73929868Y-186008893D01*
X73915253Y-186028599D01*
X73898777Y-186046777D01*
X73880599Y-186063253D01*
X73860893Y-186077868D01*
X73839850Y-186090480D01*
X73817671Y-186100970D01*
X73794572Y-186109235D01*
X73770773Y-186115196D01*
X73746505Y-186118796D01*
X73722001Y-186120000D01*
X73071999Y-186120000D01*
X73047495Y-186118796D01*
X73023227Y-186115196D01*
X72999428Y-186109235D01*
X72976329Y-186100970D01*
X72954150Y-186090480D01*
X72933107Y-186077868D01*
X72913401Y-186063253D01*
X72895223Y-186046777D01*
X72878747Y-186028599D01*
X72864132Y-186008893D01*
X72851520Y-185987850D01*
X72841030Y-185965671D01*
X72832765Y-185942572D01*
X72826804Y-185918773D01*
X72823204Y-185894505D01*
X72822000Y-185870001D01*
X72822000Y-184969999D01*
X72823204Y-184945495D01*
X72826804Y-184921227D01*
X72832765Y-184897428D01*
X72841030Y-184874329D01*
X72851520Y-184852150D01*
X72864132Y-184831107D01*
X72878747Y-184811401D01*
X72895223Y-184793223D01*
X72913401Y-184776747D01*
X72933107Y-184762132D01*
X72954150Y-184749520D01*
X72976329Y-184739030D01*
X72999428Y-184730765D01*
X73023227Y-184724804D01*
X73047495Y-184721204D01*
X73071999Y-184720000D01*
X73722001Y-184720000D01*
X73746505Y-184721204D01*
X73746505Y-184721204D01*
G37*
D16*
G04 #@! TD*
G04 #@! TO.P,R_MIX2,1*
G04 #@! TO.N,Net-(RV_AMP1-Pad2)*
X73397000Y-185420000D03*
D15*
G04 #@! TO.N,/GND*
G04 #@! TO.C,R_VEL1*
G36*
X72356505Y-158929204D02*
X72380773Y-158932804D01*
X72404572Y-158938765D01*
X72427671Y-158947030D01*
X72449850Y-158957520D01*
X72470893Y-158970132D01*
X72490599Y-158984747D01*
X72508777Y-159001223D01*
X72525253Y-159019401D01*
X72539868Y-159039107D01*
X72552480Y-159060150D01*
X72562970Y-159082329D01*
X72571235Y-159105428D01*
X72577196Y-159129227D01*
X72580796Y-159153495D01*
X72582000Y-159177999D01*
X72582000Y-159828001D01*
X72580796Y-159852505D01*
X72577196Y-159876773D01*
X72571235Y-159900572D01*
X72562970Y-159923671D01*
X72552480Y-159945850D01*
X72539868Y-159966893D01*
X72525253Y-159986599D01*
X72508777Y-160004777D01*
X72490599Y-160021253D01*
X72470893Y-160035868D01*
X72449850Y-160048480D01*
X72427671Y-160058970D01*
X72404572Y-160067235D01*
X72380773Y-160073196D01*
X72356505Y-160076796D01*
X72332001Y-160078000D01*
X71431999Y-160078000D01*
X71407495Y-160076796D01*
X71383227Y-160073196D01*
X71359428Y-160067235D01*
X71336329Y-160058970D01*
X71314150Y-160048480D01*
X71293107Y-160035868D01*
X71273401Y-160021253D01*
X71255223Y-160004777D01*
X71238747Y-159986599D01*
X71224132Y-159966893D01*
X71211520Y-159945850D01*
X71201030Y-159923671D01*
X71192765Y-159900572D01*
X71186804Y-159876773D01*
X71183204Y-159852505D01*
X71182000Y-159828001D01*
X71182000Y-159177999D01*
X71183204Y-159153495D01*
X71186804Y-159129227D01*
X71192765Y-159105428D01*
X71201030Y-159082329D01*
X71211520Y-159060150D01*
X71224132Y-159039107D01*
X71238747Y-159019401D01*
X71255223Y-159001223D01*
X71273401Y-158984747D01*
X71293107Y-158970132D01*
X71314150Y-158957520D01*
X71336329Y-158947030D01*
X71359428Y-158938765D01*
X71383227Y-158932804D01*
X71407495Y-158929204D01*
X71431999Y-158928000D01*
X72332001Y-158928000D01*
X72356505Y-158929204D01*
X72356505Y-158929204D01*
G37*
D16*
G04 #@! TD*
G04 #@! TO.P,R_VEL1,1*
G04 #@! TO.N,/GND*
X71882000Y-159503000D03*
D15*
G04 #@! TO.N,Net-(RV_TIME1-Pad3)*
G04 #@! TO.C,R_VEL1*
G36*
X72356505Y-160979204D02*
X72380773Y-160982804D01*
X72404572Y-160988765D01*
X72427671Y-160997030D01*
X72449850Y-161007520D01*
X72470893Y-161020132D01*
X72490599Y-161034747D01*
X72508777Y-161051223D01*
X72525253Y-161069401D01*
X72539868Y-161089107D01*
X72552480Y-161110150D01*
X72562970Y-161132329D01*
X72571235Y-161155428D01*
X72577196Y-161179227D01*
X72580796Y-161203495D01*
X72582000Y-161227999D01*
X72582000Y-161878001D01*
X72580796Y-161902505D01*
X72577196Y-161926773D01*
X72571235Y-161950572D01*
X72562970Y-161973671D01*
X72552480Y-161995850D01*
X72539868Y-162016893D01*
X72525253Y-162036599D01*
X72508777Y-162054777D01*
X72490599Y-162071253D01*
X72470893Y-162085868D01*
X72449850Y-162098480D01*
X72427671Y-162108970D01*
X72404572Y-162117235D01*
X72380773Y-162123196D01*
X72356505Y-162126796D01*
X72332001Y-162128000D01*
X71431999Y-162128000D01*
X71407495Y-162126796D01*
X71383227Y-162123196D01*
X71359428Y-162117235D01*
X71336329Y-162108970D01*
X71314150Y-162098480D01*
X71293107Y-162085868D01*
X71273401Y-162071253D01*
X71255223Y-162054777D01*
X71238747Y-162036599D01*
X71224132Y-162016893D01*
X71211520Y-161995850D01*
X71201030Y-161973671D01*
X71192765Y-161950572D01*
X71186804Y-161926773D01*
X71183204Y-161902505D01*
X71182000Y-161878001D01*
X71182000Y-161227999D01*
X71183204Y-161203495D01*
X71186804Y-161179227D01*
X71192765Y-161155428D01*
X71201030Y-161132329D01*
X71211520Y-161110150D01*
X71224132Y-161089107D01*
X71238747Y-161069401D01*
X71255223Y-161051223D01*
X71273401Y-161034747D01*
X71293107Y-161020132D01*
X71314150Y-161007520D01*
X71336329Y-160997030D01*
X71359428Y-160988765D01*
X71383227Y-160982804D01*
X71407495Y-160979204D01*
X71431999Y-160978000D01*
X72332001Y-160978000D01*
X72356505Y-160979204D01*
X72356505Y-160979204D01*
G37*
D16*
G04 #@! TD*
G04 #@! TO.P,R_VEL1,2*
G04 #@! TO.N,Net-(RV_TIME1-Pad3)*
X71882000Y-161553000D03*
D14*
G04 #@! TO.P,SW_FUNC1,1*
G04 #@! TO.N,/AuxiliaryBoard/5V_AUX*
X59913681Y-98515698D03*
G04 #@! TO.P,SW_FUNC1,2*
G04 #@! TO.N,/AuxiliaryBoard/WAVEBTN_AUX*
X59913681Y-103015698D03*
G04 #@! TO.P,SW_FUNC1,1*
G04 #@! TO.N,/AuxiliaryBoard/5V_AUX*
X53413681Y-98515698D03*
G04 #@! TO.P,SW_FUNC1,2*
G04 #@! TO.N,/AuxiliaryBoard/WAVEBTN_AUX*
X53413681Y-103015698D03*
G04 #@! TD*
G04 #@! TO.P,SW_MODE1,2*
G04 #@! TO.N,/AuxiliaryBoard/MODEBTN_AUX*
X66113681Y-103015698D03*
G04 #@! TO.P,SW_MODE1,1*
G04 #@! TO.N,/AuxiliaryBoard/5V_AUX*
X66113681Y-98515698D03*
G04 #@! TO.P,SW_MODE1,2*
G04 #@! TO.N,/AuxiliaryBoard/MODEBTN_AUX*
X72613681Y-103015698D03*
G04 #@! TO.P,SW_MODE1,1*
G04 #@! TO.N,/AuxiliaryBoard/5V_AUX*
X72613681Y-98515698D03*
G04 #@! TD*
G04 #@! TO.P,SW_RANGE1,2*
G04 #@! TO.N,/AuxiliaryBoard/RANGEBTN_AUX*
X78559681Y-103015698D03*
G04 #@! TO.P,SW_RANGE1,1*
G04 #@! TO.N,/AuxiliaryBoard/5V_AUX*
X78559681Y-98515698D03*
G04 #@! TO.P,SW_RANGE1,2*
G04 #@! TO.N,/AuxiliaryBoard/RANGEBTN_AUX*
X85059681Y-103015698D03*
G04 #@! TO.P,SW_RANGE1,1*
G04 #@! TO.N,/AuxiliaryBoard/5V_AUX*
X85059681Y-98515698D03*
G04 #@! TD*
D21*
G04 #@! TO.P,U1,1*
G04 #@! TO.N,/+12V*
X95250000Y-85598000D03*
D22*
G04 #@! TO.P,U1,2*
G04 #@! TO.N,/GND*
X97790000Y-85598000D03*
G04 #@! TO.P,U1,3*
G04 #@! TO.N,/5V*
X100330000Y-85598000D03*
G04 #@! TD*
D15*
G04 #@! TO.N,Net-(CF2-Pad2)*
G04 #@! TO.C,C_GAIN1*
G36*
X100169505Y-221286204D02*
X100193773Y-221289804D01*
X100217572Y-221295765D01*
X100240671Y-221304030D01*
X100262850Y-221314520D01*
X100283893Y-221327132D01*
X100303599Y-221341747D01*
X100321777Y-221358223D01*
X100338253Y-221376401D01*
X100352868Y-221396107D01*
X100365480Y-221417150D01*
X100375970Y-221439329D01*
X100384235Y-221462428D01*
X100390196Y-221486227D01*
X100393796Y-221510495D01*
X100395000Y-221534999D01*
X100395000Y-222185001D01*
X100393796Y-222209505D01*
X100390196Y-222233773D01*
X100384235Y-222257572D01*
X100375970Y-222280671D01*
X100365480Y-222302850D01*
X100352868Y-222323893D01*
X100338253Y-222343599D01*
X100321777Y-222361777D01*
X100303599Y-222378253D01*
X100283893Y-222392868D01*
X100262850Y-222405480D01*
X100240671Y-222415970D01*
X100217572Y-222424235D01*
X100193773Y-222430196D01*
X100169505Y-222433796D01*
X100145001Y-222435000D01*
X99244999Y-222435000D01*
X99220495Y-222433796D01*
X99196227Y-222430196D01*
X99172428Y-222424235D01*
X99149329Y-222415970D01*
X99127150Y-222405480D01*
X99106107Y-222392868D01*
X99086401Y-222378253D01*
X99068223Y-222361777D01*
X99051747Y-222343599D01*
X99037132Y-222323893D01*
X99024520Y-222302850D01*
X99014030Y-222280671D01*
X99005765Y-222257572D01*
X98999804Y-222233773D01*
X98996204Y-222209505D01*
X98995000Y-222185001D01*
X98995000Y-221534999D01*
X98996204Y-221510495D01*
X98999804Y-221486227D01*
X99005765Y-221462428D01*
X99014030Y-221439329D01*
X99024520Y-221417150D01*
X99037132Y-221396107D01*
X99051747Y-221376401D01*
X99068223Y-221358223D01*
X99086401Y-221341747D01*
X99106107Y-221327132D01*
X99127150Y-221314520D01*
X99149329Y-221304030D01*
X99172428Y-221295765D01*
X99196227Y-221289804D01*
X99220495Y-221286204D01*
X99244999Y-221285000D01*
X100145001Y-221285000D01*
X100169505Y-221286204D01*
X100169505Y-221286204D01*
G37*
D16*
G04 #@! TD*
G04 #@! TO.P,C_GAIN1,1*
G04 #@! TO.N,Net-(CF2-Pad2)*
X99695000Y-221860000D03*
D15*
G04 #@! TO.N,/GND*
G04 #@! TO.C,C_GAIN1*
G36*
X100169505Y-223336204D02*
X100193773Y-223339804D01*
X100217572Y-223345765D01*
X100240671Y-223354030D01*
X100262850Y-223364520D01*
X100283893Y-223377132D01*
X100303599Y-223391747D01*
X100321777Y-223408223D01*
X100338253Y-223426401D01*
X100352868Y-223446107D01*
X100365480Y-223467150D01*
X100375970Y-223489329D01*
X100384235Y-223512428D01*
X100390196Y-223536227D01*
X100393796Y-223560495D01*
X100395000Y-223584999D01*
X100395000Y-224235001D01*
X100393796Y-224259505D01*
X100390196Y-224283773D01*
X100384235Y-224307572D01*
X100375970Y-224330671D01*
X100365480Y-224352850D01*
X100352868Y-224373893D01*
X100338253Y-224393599D01*
X100321777Y-224411777D01*
X100303599Y-224428253D01*
X100283893Y-224442868D01*
X100262850Y-224455480D01*
X100240671Y-224465970D01*
X100217572Y-224474235D01*
X100193773Y-224480196D01*
X100169505Y-224483796D01*
X100145001Y-224485000D01*
X99244999Y-224485000D01*
X99220495Y-224483796D01*
X99196227Y-224480196D01*
X99172428Y-224474235D01*
X99149329Y-224465970D01*
X99127150Y-224455480D01*
X99106107Y-224442868D01*
X99086401Y-224428253D01*
X99068223Y-224411777D01*
X99051747Y-224393599D01*
X99037132Y-224373893D01*
X99024520Y-224352850D01*
X99014030Y-224330671D01*
X99005765Y-224307572D01*
X98999804Y-224283773D01*
X98996204Y-224259505D01*
X98995000Y-224235001D01*
X98995000Y-223584999D01*
X98996204Y-223560495D01*
X98999804Y-223536227D01*
X99005765Y-223512428D01*
X99014030Y-223489329D01*
X99024520Y-223467150D01*
X99037132Y-223446107D01*
X99051747Y-223426401D01*
X99068223Y-223408223D01*
X99086401Y-223391747D01*
X99106107Y-223377132D01*
X99127150Y-223364520D01*
X99149329Y-223354030D01*
X99172428Y-223345765D01*
X99196227Y-223339804D01*
X99220495Y-223336204D01*
X99244999Y-223335000D01*
X100145001Y-223335000D01*
X100169505Y-223336204D01*
X100169505Y-223336204D01*
G37*
D16*
G04 #@! TD*
G04 #@! TO.P,C_GAIN1,2*
G04 #@! TO.N,/GND*
X99695000Y-223910000D03*
D15*
G04 #@! TO.N,Net-(RV_UPOFF1-Pad3)*
G04 #@! TO.C,R_HIOFF1*
G36*
X80604505Y-210121204D02*
X80628773Y-210124804D01*
X80652572Y-210130765D01*
X80675671Y-210139030D01*
X80697850Y-210149520D01*
X80718893Y-210162132D01*
X80738599Y-210176747D01*
X80756777Y-210193223D01*
X80773253Y-210211401D01*
X80787868Y-210231107D01*
X80800480Y-210252150D01*
X80810970Y-210274329D01*
X80819235Y-210297428D01*
X80825196Y-210321227D01*
X80828796Y-210345495D01*
X80830000Y-210369999D01*
X80830000Y-211270001D01*
X80828796Y-211294505D01*
X80825196Y-211318773D01*
X80819235Y-211342572D01*
X80810970Y-211365671D01*
X80800480Y-211387850D01*
X80787868Y-211408893D01*
X80773253Y-211428599D01*
X80756777Y-211446777D01*
X80738599Y-211463253D01*
X80718893Y-211477868D01*
X80697850Y-211490480D01*
X80675671Y-211500970D01*
X80652572Y-211509235D01*
X80628773Y-211515196D01*
X80604505Y-211518796D01*
X80580001Y-211520000D01*
X79929999Y-211520000D01*
X79905495Y-211518796D01*
X79881227Y-211515196D01*
X79857428Y-211509235D01*
X79834329Y-211500970D01*
X79812150Y-211490480D01*
X79791107Y-211477868D01*
X79771401Y-211463253D01*
X79753223Y-211446777D01*
X79736747Y-211428599D01*
X79722132Y-211408893D01*
X79709520Y-211387850D01*
X79699030Y-211365671D01*
X79690765Y-211342572D01*
X79684804Y-211318773D01*
X79681204Y-211294505D01*
X79680000Y-211270001D01*
X79680000Y-210369999D01*
X79681204Y-210345495D01*
X79684804Y-210321227D01*
X79690765Y-210297428D01*
X79699030Y-210274329D01*
X79709520Y-210252150D01*
X79722132Y-210231107D01*
X79736747Y-210211401D01*
X79753223Y-210193223D01*
X79771401Y-210176747D01*
X79791107Y-210162132D01*
X79812150Y-210149520D01*
X79834329Y-210139030D01*
X79857428Y-210130765D01*
X79881227Y-210124804D01*
X79905495Y-210121204D01*
X79929999Y-210120000D01*
X80580001Y-210120000D01*
X80604505Y-210121204D01*
X80604505Y-210121204D01*
G37*
D16*
G04 #@! TD*
G04 #@! TO.P,R_HIOFF1,2*
G04 #@! TO.N,Net-(RV_UPOFF1-Pad3)*
X80255000Y-210820000D03*
D15*
G04 #@! TO.N,/+12V*
G04 #@! TO.C,R_HIOFF1*
G36*
X82654505Y-210121204D02*
X82678773Y-210124804D01*
X82702572Y-210130765D01*
X82725671Y-210139030D01*
X82747850Y-210149520D01*
X82768893Y-210162132D01*
X82788599Y-210176747D01*
X82806777Y-210193223D01*
X82823253Y-210211401D01*
X82837868Y-210231107D01*
X82850480Y-210252150D01*
X82860970Y-210274329D01*
X82869235Y-210297428D01*
X82875196Y-210321227D01*
X82878796Y-210345495D01*
X82880000Y-210369999D01*
X82880000Y-211270001D01*
X82878796Y-211294505D01*
X82875196Y-211318773D01*
X82869235Y-211342572D01*
X82860970Y-211365671D01*
X82850480Y-211387850D01*
X82837868Y-211408893D01*
X82823253Y-211428599D01*
X82806777Y-211446777D01*
X82788599Y-211463253D01*
X82768893Y-211477868D01*
X82747850Y-211490480D01*
X82725671Y-211500970D01*
X82702572Y-211509235D01*
X82678773Y-211515196D01*
X82654505Y-211518796D01*
X82630001Y-211520000D01*
X81979999Y-211520000D01*
X81955495Y-211518796D01*
X81931227Y-211515196D01*
X81907428Y-211509235D01*
X81884329Y-211500970D01*
X81862150Y-211490480D01*
X81841107Y-211477868D01*
X81821401Y-211463253D01*
X81803223Y-211446777D01*
X81786747Y-211428599D01*
X81772132Y-211408893D01*
X81759520Y-211387850D01*
X81749030Y-211365671D01*
X81740765Y-211342572D01*
X81734804Y-211318773D01*
X81731204Y-211294505D01*
X81730000Y-211270001D01*
X81730000Y-210369999D01*
X81731204Y-210345495D01*
X81734804Y-210321227D01*
X81740765Y-210297428D01*
X81749030Y-210274329D01*
X81759520Y-210252150D01*
X81772132Y-210231107D01*
X81786747Y-210211401D01*
X81803223Y-210193223D01*
X81821401Y-210176747D01*
X81841107Y-210162132D01*
X81862150Y-210149520D01*
X81884329Y-210139030D01*
X81907428Y-210130765D01*
X81931227Y-210124804D01*
X81955495Y-210121204D01*
X81979999Y-210120000D01*
X82630001Y-210120000D01*
X82654505Y-210121204D01*
X82654505Y-210121204D01*
G37*
D16*
G04 #@! TD*
G04 #@! TO.P,R_HIOFF1,1*
G04 #@! TO.N,/+12V*
X82305000Y-210820000D03*
D23*
G04 #@! TO.P,TP_OFF1,1*
G04 #@! TO.N,Net-(RV_AMP1-Pad2)*
X74930000Y-180340000D03*
G04 #@! TD*
D15*
G04 #@! TO.N,/OFFSETADJUST*
G04 #@! TO.C,R_MIX3*
G36*
X114774505Y-195015204D02*
X114798773Y-195018804D01*
X114822572Y-195024765D01*
X114845671Y-195033030D01*
X114867850Y-195043520D01*
X114888893Y-195056132D01*
X114908599Y-195070747D01*
X114926777Y-195087223D01*
X114943253Y-195105401D01*
X114957868Y-195125107D01*
X114970480Y-195146150D01*
X114980970Y-195168329D01*
X114989235Y-195191428D01*
X114995196Y-195215227D01*
X114998796Y-195239495D01*
X115000000Y-195263999D01*
X115000000Y-195914001D01*
X114998796Y-195938505D01*
X114995196Y-195962773D01*
X114989235Y-195986572D01*
X114980970Y-196009671D01*
X114970480Y-196031850D01*
X114957868Y-196052893D01*
X114943253Y-196072599D01*
X114926777Y-196090777D01*
X114908599Y-196107253D01*
X114888893Y-196121868D01*
X114867850Y-196134480D01*
X114845671Y-196144970D01*
X114822572Y-196153235D01*
X114798773Y-196159196D01*
X114774505Y-196162796D01*
X114750001Y-196164000D01*
X113849999Y-196164000D01*
X113825495Y-196162796D01*
X113801227Y-196159196D01*
X113777428Y-196153235D01*
X113754329Y-196144970D01*
X113732150Y-196134480D01*
X113711107Y-196121868D01*
X113691401Y-196107253D01*
X113673223Y-196090777D01*
X113656747Y-196072599D01*
X113642132Y-196052893D01*
X113629520Y-196031850D01*
X113619030Y-196009671D01*
X113610765Y-195986572D01*
X113604804Y-195962773D01*
X113601204Y-195938505D01*
X113600000Y-195914001D01*
X113600000Y-195263999D01*
X113601204Y-195239495D01*
X113604804Y-195215227D01*
X113610765Y-195191428D01*
X113619030Y-195168329D01*
X113629520Y-195146150D01*
X113642132Y-195125107D01*
X113656747Y-195105401D01*
X113673223Y-195087223D01*
X113691401Y-195070747D01*
X113711107Y-195056132D01*
X113732150Y-195043520D01*
X113754329Y-195033030D01*
X113777428Y-195024765D01*
X113801227Y-195018804D01*
X113825495Y-195015204D01*
X113849999Y-195014000D01*
X114750001Y-195014000D01*
X114774505Y-195015204D01*
X114774505Y-195015204D01*
G37*
D16*
G04 #@! TD*
G04 #@! TO.P,R_MIX3,1*
G04 #@! TO.N,/OFFSETADJUST*
X114300000Y-195589000D03*
D15*
G04 #@! TO.N,Net-(RV_AMP1-Pad5)*
G04 #@! TO.C,R_MIX3*
G36*
X114774505Y-192965204D02*
X114798773Y-192968804D01*
X114822572Y-192974765D01*
X114845671Y-192983030D01*
X114867850Y-192993520D01*
X114888893Y-193006132D01*
X114908599Y-193020747D01*
X114926777Y-193037223D01*
X114943253Y-193055401D01*
X114957868Y-193075107D01*
X114970480Y-193096150D01*
X114980970Y-193118329D01*
X114989235Y-193141428D01*
X114995196Y-193165227D01*
X114998796Y-193189495D01*
X115000000Y-193213999D01*
X115000000Y-193864001D01*
X114998796Y-193888505D01*
X114995196Y-193912773D01*
X114989235Y-193936572D01*
X114980970Y-193959671D01*
X114970480Y-193981850D01*
X114957868Y-194002893D01*
X114943253Y-194022599D01*
X114926777Y-194040777D01*
X114908599Y-194057253D01*
X114888893Y-194071868D01*
X114867850Y-194084480D01*
X114845671Y-194094970D01*
X114822572Y-194103235D01*
X114798773Y-194109196D01*
X114774505Y-194112796D01*
X114750001Y-194114000D01*
X113849999Y-194114000D01*
X113825495Y-194112796D01*
X113801227Y-194109196D01*
X113777428Y-194103235D01*
X113754329Y-194094970D01*
X113732150Y-194084480D01*
X113711107Y-194071868D01*
X113691401Y-194057253D01*
X113673223Y-194040777D01*
X113656747Y-194022599D01*
X113642132Y-194002893D01*
X113629520Y-193981850D01*
X113619030Y-193959671D01*
X113610765Y-193936572D01*
X113604804Y-193912773D01*
X113601204Y-193888505D01*
X113600000Y-193864001D01*
X113600000Y-193213999D01*
X113601204Y-193189495D01*
X113604804Y-193165227D01*
X113610765Y-193141428D01*
X113619030Y-193118329D01*
X113629520Y-193096150D01*
X113642132Y-193075107D01*
X113656747Y-193055401D01*
X113673223Y-193037223D01*
X113691401Y-193020747D01*
X113711107Y-193006132D01*
X113732150Y-192993520D01*
X113754329Y-192983030D01*
X113777428Y-192974765D01*
X113801227Y-192968804D01*
X113825495Y-192965204D01*
X113849999Y-192964000D01*
X114750001Y-192964000D01*
X114774505Y-192965204D01*
X114774505Y-192965204D01*
G37*
D16*
G04 #@! TD*
G04 #@! TO.P,R_MIX3,2*
G04 #@! TO.N,Net-(RV_AMP1-Pad5)*
X114300000Y-193539000D03*
D15*
G04 #@! TO.N,Net-(CF2-Pad1)*
G04 #@! TO.C,RF2*
G36*
X95209505Y-220916204D02*
X95233773Y-220919804D01*
X95257572Y-220925765D01*
X95280671Y-220934030D01*
X95302850Y-220944520D01*
X95323893Y-220957132D01*
X95343599Y-220971747D01*
X95361777Y-220988223D01*
X95378253Y-221006401D01*
X95392868Y-221026107D01*
X95405480Y-221047150D01*
X95415970Y-221069329D01*
X95424235Y-221092428D01*
X95430196Y-221116227D01*
X95433796Y-221140495D01*
X95435000Y-221164999D01*
X95435000Y-222065001D01*
X95433796Y-222089505D01*
X95430196Y-222113773D01*
X95424235Y-222137572D01*
X95415970Y-222160671D01*
X95405480Y-222182850D01*
X95392868Y-222203893D01*
X95378253Y-222223599D01*
X95361777Y-222241777D01*
X95343599Y-222258253D01*
X95323893Y-222272868D01*
X95302850Y-222285480D01*
X95280671Y-222295970D01*
X95257572Y-222304235D01*
X95233773Y-222310196D01*
X95209505Y-222313796D01*
X95185001Y-222315000D01*
X94534999Y-222315000D01*
X94510495Y-222313796D01*
X94486227Y-222310196D01*
X94462428Y-222304235D01*
X94439329Y-222295970D01*
X94417150Y-222285480D01*
X94396107Y-222272868D01*
X94376401Y-222258253D01*
X94358223Y-222241777D01*
X94341747Y-222223599D01*
X94327132Y-222203893D01*
X94314520Y-222182850D01*
X94304030Y-222160671D01*
X94295765Y-222137572D01*
X94289804Y-222113773D01*
X94286204Y-222089505D01*
X94285000Y-222065001D01*
X94285000Y-221164999D01*
X94286204Y-221140495D01*
X94289804Y-221116227D01*
X94295765Y-221092428D01*
X94304030Y-221069329D01*
X94314520Y-221047150D01*
X94327132Y-221026107D01*
X94341747Y-221006401D01*
X94358223Y-220988223D01*
X94376401Y-220971747D01*
X94396107Y-220957132D01*
X94417150Y-220944520D01*
X94439329Y-220934030D01*
X94462428Y-220925765D01*
X94486227Y-220919804D01*
X94510495Y-220916204D01*
X94534999Y-220915000D01*
X95185001Y-220915000D01*
X95209505Y-220916204D01*
X95209505Y-220916204D01*
G37*
D16*
G04 #@! TD*
G04 #@! TO.P,RF2,1*
G04 #@! TO.N,Net-(CF2-Pad1)*
X94860000Y-221615000D03*
D15*
G04 #@! TO.N,Net-(CF2-Pad2)*
G04 #@! TO.C,RF2*
G36*
X97259505Y-220916204D02*
X97283773Y-220919804D01*
X97307572Y-220925765D01*
X97330671Y-220934030D01*
X97352850Y-220944520D01*
X97373893Y-220957132D01*
X97393599Y-220971747D01*
X97411777Y-220988223D01*
X97428253Y-221006401D01*
X97442868Y-221026107D01*
X97455480Y-221047150D01*
X97465970Y-221069329D01*
X97474235Y-221092428D01*
X97480196Y-221116227D01*
X97483796Y-221140495D01*
X97485000Y-221164999D01*
X97485000Y-222065001D01*
X97483796Y-222089505D01*
X97480196Y-222113773D01*
X97474235Y-222137572D01*
X97465970Y-222160671D01*
X97455480Y-222182850D01*
X97442868Y-222203893D01*
X97428253Y-222223599D01*
X97411777Y-222241777D01*
X97393599Y-222258253D01*
X97373893Y-222272868D01*
X97352850Y-222285480D01*
X97330671Y-222295970D01*
X97307572Y-222304235D01*
X97283773Y-222310196D01*
X97259505Y-222313796D01*
X97235001Y-222315000D01*
X96584999Y-222315000D01*
X96560495Y-222313796D01*
X96536227Y-222310196D01*
X96512428Y-222304235D01*
X96489329Y-222295970D01*
X96467150Y-222285480D01*
X96446107Y-222272868D01*
X96426401Y-222258253D01*
X96408223Y-222241777D01*
X96391747Y-222223599D01*
X96377132Y-222203893D01*
X96364520Y-222182850D01*
X96354030Y-222160671D01*
X96345765Y-222137572D01*
X96339804Y-222113773D01*
X96336204Y-222089505D01*
X96335000Y-222065001D01*
X96335000Y-221164999D01*
X96336204Y-221140495D01*
X96339804Y-221116227D01*
X96345765Y-221092428D01*
X96354030Y-221069329D01*
X96364520Y-221047150D01*
X96377132Y-221026107D01*
X96391747Y-221006401D01*
X96408223Y-220988223D01*
X96426401Y-220971747D01*
X96446107Y-220957132D01*
X96467150Y-220944520D01*
X96489329Y-220934030D01*
X96512428Y-220925765D01*
X96536227Y-220919804D01*
X96560495Y-220916204D01*
X96584999Y-220915000D01*
X97235001Y-220915000D01*
X97259505Y-220916204D01*
X97259505Y-220916204D01*
G37*
D16*
G04 #@! TD*
G04 #@! TO.P,RF2,2*
G04 #@! TO.N,Net-(CF2-Pad2)*
X96910000Y-221615000D03*
D15*
G04 #@! TO.N,/5V*
G04 #@! TO.C,ROFF1*
G36*
X107909505Y-203771204D02*
X107933773Y-203774804D01*
X107957572Y-203780765D01*
X107980671Y-203789030D01*
X108002850Y-203799520D01*
X108023893Y-203812132D01*
X108043599Y-203826747D01*
X108061777Y-203843223D01*
X108078253Y-203861401D01*
X108092868Y-203881107D01*
X108105480Y-203902150D01*
X108115970Y-203924329D01*
X108124235Y-203947428D01*
X108130196Y-203971227D01*
X108133796Y-203995495D01*
X108135000Y-204019999D01*
X108135000Y-204920001D01*
X108133796Y-204944505D01*
X108130196Y-204968773D01*
X108124235Y-204992572D01*
X108115970Y-205015671D01*
X108105480Y-205037850D01*
X108092868Y-205058893D01*
X108078253Y-205078599D01*
X108061777Y-205096777D01*
X108043599Y-205113253D01*
X108023893Y-205127868D01*
X108002850Y-205140480D01*
X107980671Y-205150970D01*
X107957572Y-205159235D01*
X107933773Y-205165196D01*
X107909505Y-205168796D01*
X107885001Y-205170000D01*
X107234999Y-205170000D01*
X107210495Y-205168796D01*
X107186227Y-205165196D01*
X107162428Y-205159235D01*
X107139329Y-205150970D01*
X107117150Y-205140480D01*
X107096107Y-205127868D01*
X107076401Y-205113253D01*
X107058223Y-205096777D01*
X107041747Y-205078599D01*
X107027132Y-205058893D01*
X107014520Y-205037850D01*
X107004030Y-205015671D01*
X106995765Y-204992572D01*
X106989804Y-204968773D01*
X106986204Y-204944505D01*
X106985000Y-204920001D01*
X106985000Y-204019999D01*
X106986204Y-203995495D01*
X106989804Y-203971227D01*
X106995765Y-203947428D01*
X107004030Y-203924329D01*
X107014520Y-203902150D01*
X107027132Y-203881107D01*
X107041747Y-203861401D01*
X107058223Y-203843223D01*
X107076401Y-203826747D01*
X107096107Y-203812132D01*
X107117150Y-203799520D01*
X107139329Y-203789030D01*
X107162428Y-203780765D01*
X107186227Y-203774804D01*
X107210495Y-203771204D01*
X107234999Y-203770000D01*
X107885001Y-203770000D01*
X107909505Y-203771204D01*
X107909505Y-203771204D01*
G37*
D16*
G04 #@! TD*
G04 #@! TO.P,ROFF1,2*
G04 #@! TO.N,/5V*
X107560000Y-204470000D03*
D15*
G04 #@! TO.N,Net-(ROFF1-Pad1)*
G04 #@! TO.C,ROFF1*
G36*
X109959505Y-203771204D02*
X109983773Y-203774804D01*
X110007572Y-203780765D01*
X110030671Y-203789030D01*
X110052850Y-203799520D01*
X110073893Y-203812132D01*
X110093599Y-203826747D01*
X110111777Y-203843223D01*
X110128253Y-203861401D01*
X110142868Y-203881107D01*
X110155480Y-203902150D01*
X110165970Y-203924329D01*
X110174235Y-203947428D01*
X110180196Y-203971227D01*
X110183796Y-203995495D01*
X110185000Y-204019999D01*
X110185000Y-204920001D01*
X110183796Y-204944505D01*
X110180196Y-204968773D01*
X110174235Y-204992572D01*
X110165970Y-205015671D01*
X110155480Y-205037850D01*
X110142868Y-205058893D01*
X110128253Y-205078599D01*
X110111777Y-205096777D01*
X110093599Y-205113253D01*
X110073893Y-205127868D01*
X110052850Y-205140480D01*
X110030671Y-205150970D01*
X110007572Y-205159235D01*
X109983773Y-205165196D01*
X109959505Y-205168796D01*
X109935001Y-205170000D01*
X109284999Y-205170000D01*
X109260495Y-205168796D01*
X109236227Y-205165196D01*
X109212428Y-205159235D01*
X109189329Y-205150970D01*
X109167150Y-205140480D01*
X109146107Y-205127868D01*
X109126401Y-205113253D01*
X109108223Y-205096777D01*
X109091747Y-205078599D01*
X109077132Y-205058893D01*
X109064520Y-205037850D01*
X109054030Y-205015671D01*
X109045765Y-204992572D01*
X109039804Y-204968773D01*
X109036204Y-204944505D01*
X109035000Y-204920001D01*
X109035000Y-204019999D01*
X109036204Y-203995495D01*
X109039804Y-203971227D01*
X109045765Y-203947428D01*
X109054030Y-203924329D01*
X109064520Y-203902150D01*
X109077132Y-203881107D01*
X109091747Y-203861401D01*
X109108223Y-203843223D01*
X109126401Y-203826747D01*
X109146107Y-203812132D01*
X109167150Y-203799520D01*
X109189329Y-203789030D01*
X109212428Y-203780765D01*
X109236227Y-203774804D01*
X109260495Y-203771204D01*
X109284999Y-203770000D01*
X109935001Y-203770000D01*
X109959505Y-203771204D01*
X109959505Y-203771204D01*
G37*
D16*
G04 #@! TD*
G04 #@! TO.P,ROFF1,1*
G04 #@! TO.N,Net-(ROFF1-Pad1)*
X109610000Y-204470000D03*
D15*
G04 #@! TO.N,/GND*
G04 #@! TO.C,ROFF2*
G36*
X118076505Y-195015204D02*
X118100773Y-195018804D01*
X118124572Y-195024765D01*
X118147671Y-195033030D01*
X118169850Y-195043520D01*
X118190893Y-195056132D01*
X118210599Y-195070747D01*
X118228777Y-195087223D01*
X118245253Y-195105401D01*
X118259868Y-195125107D01*
X118272480Y-195146150D01*
X118282970Y-195168329D01*
X118291235Y-195191428D01*
X118297196Y-195215227D01*
X118300796Y-195239495D01*
X118302000Y-195263999D01*
X118302000Y-195914001D01*
X118300796Y-195938505D01*
X118297196Y-195962773D01*
X118291235Y-195986572D01*
X118282970Y-196009671D01*
X118272480Y-196031850D01*
X118259868Y-196052893D01*
X118245253Y-196072599D01*
X118228777Y-196090777D01*
X118210599Y-196107253D01*
X118190893Y-196121868D01*
X118169850Y-196134480D01*
X118147671Y-196144970D01*
X118124572Y-196153235D01*
X118100773Y-196159196D01*
X118076505Y-196162796D01*
X118052001Y-196164000D01*
X117151999Y-196164000D01*
X117127495Y-196162796D01*
X117103227Y-196159196D01*
X117079428Y-196153235D01*
X117056329Y-196144970D01*
X117034150Y-196134480D01*
X117013107Y-196121868D01*
X116993401Y-196107253D01*
X116975223Y-196090777D01*
X116958747Y-196072599D01*
X116944132Y-196052893D01*
X116931520Y-196031850D01*
X116921030Y-196009671D01*
X116912765Y-195986572D01*
X116906804Y-195962773D01*
X116903204Y-195938505D01*
X116902000Y-195914001D01*
X116902000Y-195263999D01*
X116903204Y-195239495D01*
X116906804Y-195215227D01*
X116912765Y-195191428D01*
X116921030Y-195168329D01*
X116931520Y-195146150D01*
X116944132Y-195125107D01*
X116958747Y-195105401D01*
X116975223Y-195087223D01*
X116993401Y-195070747D01*
X117013107Y-195056132D01*
X117034150Y-195043520D01*
X117056329Y-195033030D01*
X117079428Y-195024765D01*
X117103227Y-195018804D01*
X117127495Y-195015204D01*
X117151999Y-195014000D01*
X118052001Y-195014000D01*
X118076505Y-195015204D01*
X118076505Y-195015204D01*
G37*
D16*
G04 #@! TD*
G04 #@! TO.P,ROFF2,2*
G04 #@! TO.N,/GND*
X117602000Y-195589000D03*
D15*
G04 #@! TO.N,Net-(ROFF2-Pad1)*
G04 #@! TO.C,ROFF2*
G36*
X118076505Y-192965204D02*
X118100773Y-192968804D01*
X118124572Y-192974765D01*
X118147671Y-192983030D01*
X118169850Y-192993520D01*
X118190893Y-193006132D01*
X118210599Y-193020747D01*
X118228777Y-193037223D01*
X118245253Y-193055401D01*
X118259868Y-193075107D01*
X118272480Y-193096150D01*
X118282970Y-193118329D01*
X118291235Y-193141428D01*
X118297196Y-193165227D01*
X118300796Y-193189495D01*
X118302000Y-193213999D01*
X118302000Y-193864001D01*
X118300796Y-193888505D01*
X118297196Y-193912773D01*
X118291235Y-193936572D01*
X118282970Y-193959671D01*
X118272480Y-193981850D01*
X118259868Y-194002893D01*
X118245253Y-194022599D01*
X118228777Y-194040777D01*
X118210599Y-194057253D01*
X118190893Y-194071868D01*
X118169850Y-194084480D01*
X118147671Y-194094970D01*
X118124572Y-194103235D01*
X118100773Y-194109196D01*
X118076505Y-194112796D01*
X118052001Y-194114000D01*
X117151999Y-194114000D01*
X117127495Y-194112796D01*
X117103227Y-194109196D01*
X117079428Y-194103235D01*
X117056329Y-194094970D01*
X117034150Y-194084480D01*
X117013107Y-194071868D01*
X116993401Y-194057253D01*
X116975223Y-194040777D01*
X116958747Y-194022599D01*
X116944132Y-194002893D01*
X116931520Y-193981850D01*
X116921030Y-193959671D01*
X116912765Y-193936572D01*
X116906804Y-193912773D01*
X116903204Y-193888505D01*
X116902000Y-193864001D01*
X116902000Y-193213999D01*
X116903204Y-193189495D01*
X116906804Y-193165227D01*
X116912765Y-193141428D01*
X116921030Y-193118329D01*
X116931520Y-193096150D01*
X116944132Y-193075107D01*
X116958747Y-193055401D01*
X116975223Y-193037223D01*
X116993401Y-193020747D01*
X117013107Y-193006132D01*
X117034150Y-192993520D01*
X117056329Y-192983030D01*
X117079428Y-192974765D01*
X117103227Y-192968804D01*
X117127495Y-192965204D01*
X117151999Y-192964000D01*
X118052001Y-192964000D01*
X118076505Y-192965204D01*
X118076505Y-192965204D01*
G37*
D16*
G04 #@! TD*
G04 #@! TO.P,ROFF2,1*
G04 #@! TO.N,Net-(ROFF2-Pad1)*
X117602000Y-193539000D03*
D15*
G04 #@! TO.N,Net-(CF2-Pad1)*
G04 #@! TO.C,CF2*
G36*
X95209505Y-223456204D02*
X95233773Y-223459804D01*
X95257572Y-223465765D01*
X95280671Y-223474030D01*
X95302850Y-223484520D01*
X95323893Y-223497132D01*
X95343599Y-223511747D01*
X95361777Y-223528223D01*
X95378253Y-223546401D01*
X95392868Y-223566107D01*
X95405480Y-223587150D01*
X95415970Y-223609329D01*
X95424235Y-223632428D01*
X95430196Y-223656227D01*
X95433796Y-223680495D01*
X95435000Y-223704999D01*
X95435000Y-224605001D01*
X95433796Y-224629505D01*
X95430196Y-224653773D01*
X95424235Y-224677572D01*
X95415970Y-224700671D01*
X95405480Y-224722850D01*
X95392868Y-224743893D01*
X95378253Y-224763599D01*
X95361777Y-224781777D01*
X95343599Y-224798253D01*
X95323893Y-224812868D01*
X95302850Y-224825480D01*
X95280671Y-224835970D01*
X95257572Y-224844235D01*
X95233773Y-224850196D01*
X95209505Y-224853796D01*
X95185001Y-224855000D01*
X94534999Y-224855000D01*
X94510495Y-224853796D01*
X94486227Y-224850196D01*
X94462428Y-224844235D01*
X94439329Y-224835970D01*
X94417150Y-224825480D01*
X94396107Y-224812868D01*
X94376401Y-224798253D01*
X94358223Y-224781777D01*
X94341747Y-224763599D01*
X94327132Y-224743893D01*
X94314520Y-224722850D01*
X94304030Y-224700671D01*
X94295765Y-224677572D01*
X94289804Y-224653773D01*
X94286204Y-224629505D01*
X94285000Y-224605001D01*
X94285000Y-223704999D01*
X94286204Y-223680495D01*
X94289804Y-223656227D01*
X94295765Y-223632428D01*
X94304030Y-223609329D01*
X94314520Y-223587150D01*
X94327132Y-223566107D01*
X94341747Y-223546401D01*
X94358223Y-223528223D01*
X94376401Y-223511747D01*
X94396107Y-223497132D01*
X94417150Y-223484520D01*
X94439329Y-223474030D01*
X94462428Y-223465765D01*
X94486227Y-223459804D01*
X94510495Y-223456204D01*
X94534999Y-223455000D01*
X95185001Y-223455000D01*
X95209505Y-223456204D01*
X95209505Y-223456204D01*
G37*
D16*
G04 #@! TD*
G04 #@! TO.P,CF2,1*
G04 #@! TO.N,Net-(CF2-Pad1)*
X94860000Y-224155000D03*
D15*
G04 #@! TO.N,Net-(CF2-Pad2)*
G04 #@! TO.C,CF2*
G36*
X97259505Y-223456204D02*
X97283773Y-223459804D01*
X97307572Y-223465765D01*
X97330671Y-223474030D01*
X97352850Y-223484520D01*
X97373893Y-223497132D01*
X97393599Y-223511747D01*
X97411777Y-223528223D01*
X97428253Y-223546401D01*
X97442868Y-223566107D01*
X97455480Y-223587150D01*
X97465970Y-223609329D01*
X97474235Y-223632428D01*
X97480196Y-223656227D01*
X97483796Y-223680495D01*
X97485000Y-223704999D01*
X97485000Y-224605001D01*
X97483796Y-224629505D01*
X97480196Y-224653773D01*
X97474235Y-224677572D01*
X97465970Y-224700671D01*
X97455480Y-224722850D01*
X97442868Y-224743893D01*
X97428253Y-224763599D01*
X97411777Y-224781777D01*
X97393599Y-224798253D01*
X97373893Y-224812868D01*
X97352850Y-224825480D01*
X97330671Y-224835970D01*
X97307572Y-224844235D01*
X97283773Y-224850196D01*
X97259505Y-224853796D01*
X97235001Y-224855000D01*
X96584999Y-224855000D01*
X96560495Y-224853796D01*
X96536227Y-224850196D01*
X96512428Y-224844235D01*
X96489329Y-224835970D01*
X96467150Y-224825480D01*
X96446107Y-224812868D01*
X96426401Y-224798253D01*
X96408223Y-224781777D01*
X96391747Y-224763599D01*
X96377132Y-224743893D01*
X96364520Y-224722850D01*
X96354030Y-224700671D01*
X96345765Y-224677572D01*
X96339804Y-224653773D01*
X96336204Y-224629505D01*
X96335000Y-224605001D01*
X96335000Y-223704999D01*
X96336204Y-223680495D01*
X96339804Y-223656227D01*
X96345765Y-223632428D01*
X96354030Y-223609329D01*
X96364520Y-223587150D01*
X96377132Y-223566107D01*
X96391747Y-223546401D01*
X96408223Y-223528223D01*
X96426401Y-223511747D01*
X96446107Y-223497132D01*
X96467150Y-223484520D01*
X96489329Y-223474030D01*
X96512428Y-223465765D01*
X96536227Y-223459804D01*
X96560495Y-223456204D01*
X96584999Y-223455000D01*
X97235001Y-223455000D01*
X97259505Y-223456204D01*
X97259505Y-223456204D01*
G37*
D16*
G04 #@! TD*
G04 #@! TO.P,CF2,2*
G04 #@! TO.N,Net-(CF2-Pad2)*
X96910000Y-224155000D03*
D24*
G04 #@! TO.P,U_BUFF1,8*
G04 #@! TO.N,N/C*
X92804000Y-195580000D03*
G04 #@! TO.P,U_BUFF1,7*
G04 #@! TO.N,/+12V*
X92804000Y-194310000D03*
G04 #@! TO.P,U_BUFF1,6*
G04 #@! TO.N,Net-(CF1-Pad1)*
X92804000Y-193040000D03*
G04 #@! TO.P,U_BUFF1,5*
G04 #@! TO.N,N/C*
X92804000Y-191770000D03*
G04 #@! TO.P,U_BUFF1,4*
G04 #@! TO.N,/-12V*
X98204000Y-191770000D03*
G04 #@! TO.P,U_BUFF1,3*
G04 #@! TO.N,/DDS_REDUX*
X98204000Y-193040000D03*
G04 #@! TO.P,U_BUFF1,2*
G04 #@! TO.N,Net-(CF1-Pad2)*
X98204000Y-194310000D03*
G04 #@! TO.P,U_BUFF1,1*
G04 #@! TO.N,N/C*
X98204000Y-195580000D03*
G04 #@! TD*
G04 #@! TO.P,U_MIX1,1*
G04 #@! TO.N,N/C*
X98585000Y-219075000D03*
G04 #@! TO.P,U_MIX1,2*
G04 #@! TO.N,Net-(CF2-Pad2)*
X98585000Y-217805000D03*
G04 #@! TO.P,U_MIX1,3*
G04 #@! TO.N,/GND*
X98585000Y-216535000D03*
G04 #@! TO.P,U_MIX1,4*
G04 #@! TO.N,/-12V*
X98585000Y-215265000D03*
G04 #@! TO.P,U_MIX1,5*
G04 #@! TO.N,N/C*
X93185000Y-215265000D03*
G04 #@! TO.P,U_MIX1,6*
G04 #@! TO.N,Net-(CF2-Pad1)*
X93185000Y-216535000D03*
G04 #@! TO.P,U_MIX1,7*
G04 #@! TO.N,/+12V*
X93185000Y-217805000D03*
G04 #@! TO.P,U_MIX1,8*
G04 #@! TO.N,N/C*
X93185000Y-219075000D03*
G04 #@! TD*
D15*
G04 #@! TO.N,/GND*
G04 #@! TO.C,R_PHASE1*
G36*
X77690505Y-158929204D02*
X77714773Y-158932804D01*
X77738572Y-158938765D01*
X77761671Y-158947030D01*
X77783850Y-158957520D01*
X77804893Y-158970132D01*
X77824599Y-158984747D01*
X77842777Y-159001223D01*
X77859253Y-159019401D01*
X77873868Y-159039107D01*
X77886480Y-159060150D01*
X77896970Y-159082329D01*
X77905235Y-159105428D01*
X77911196Y-159129227D01*
X77914796Y-159153495D01*
X77916000Y-159177999D01*
X77916000Y-159828001D01*
X77914796Y-159852505D01*
X77911196Y-159876773D01*
X77905235Y-159900572D01*
X77896970Y-159923671D01*
X77886480Y-159945850D01*
X77873868Y-159966893D01*
X77859253Y-159986599D01*
X77842777Y-160004777D01*
X77824599Y-160021253D01*
X77804893Y-160035868D01*
X77783850Y-160048480D01*
X77761671Y-160058970D01*
X77738572Y-160067235D01*
X77714773Y-160073196D01*
X77690505Y-160076796D01*
X77666001Y-160078000D01*
X76765999Y-160078000D01*
X76741495Y-160076796D01*
X76717227Y-160073196D01*
X76693428Y-160067235D01*
X76670329Y-160058970D01*
X76648150Y-160048480D01*
X76627107Y-160035868D01*
X76607401Y-160021253D01*
X76589223Y-160004777D01*
X76572747Y-159986599D01*
X76558132Y-159966893D01*
X76545520Y-159945850D01*
X76535030Y-159923671D01*
X76526765Y-159900572D01*
X76520804Y-159876773D01*
X76517204Y-159852505D01*
X76516000Y-159828001D01*
X76516000Y-159177999D01*
X76517204Y-159153495D01*
X76520804Y-159129227D01*
X76526765Y-159105428D01*
X76535030Y-159082329D01*
X76545520Y-159060150D01*
X76558132Y-159039107D01*
X76572747Y-159019401D01*
X76589223Y-159001223D01*
X76607401Y-158984747D01*
X76627107Y-158970132D01*
X76648150Y-158957520D01*
X76670329Y-158947030D01*
X76693428Y-158938765D01*
X76717227Y-158932804D01*
X76741495Y-158929204D01*
X76765999Y-158928000D01*
X77666001Y-158928000D01*
X77690505Y-158929204D01*
X77690505Y-158929204D01*
G37*
D16*
G04 #@! TD*
G04 #@! TO.P,R_PHASE1,1*
G04 #@! TO.N,/GND*
X77216000Y-159503000D03*
D15*
G04 #@! TO.N,Net-(RV_TIME1-Pad6)*
G04 #@! TO.C,R_PHASE1*
G36*
X77690505Y-160979204D02*
X77714773Y-160982804D01*
X77738572Y-160988765D01*
X77761671Y-160997030D01*
X77783850Y-161007520D01*
X77804893Y-161020132D01*
X77824599Y-161034747D01*
X77842777Y-161051223D01*
X77859253Y-161069401D01*
X77873868Y-161089107D01*
X77886480Y-161110150D01*
X77896970Y-161132329D01*
X77905235Y-161155428D01*
X77911196Y-161179227D01*
X77914796Y-161203495D01*
X77916000Y-161227999D01*
X77916000Y-161878001D01*
X77914796Y-161902505D01*
X77911196Y-161926773D01*
X77905235Y-161950572D01*
X77896970Y-161973671D01*
X77886480Y-161995850D01*
X77873868Y-162016893D01*
X77859253Y-162036599D01*
X77842777Y-162054777D01*
X77824599Y-162071253D01*
X77804893Y-162085868D01*
X77783850Y-162098480D01*
X77761671Y-162108970D01*
X77738572Y-162117235D01*
X77714773Y-162123196D01*
X77690505Y-162126796D01*
X77666001Y-162128000D01*
X76765999Y-162128000D01*
X76741495Y-162126796D01*
X76717227Y-162123196D01*
X76693428Y-162117235D01*
X76670329Y-162108970D01*
X76648150Y-162098480D01*
X76627107Y-162085868D01*
X76607401Y-162071253D01*
X76589223Y-162054777D01*
X76572747Y-162036599D01*
X76558132Y-162016893D01*
X76545520Y-161995850D01*
X76535030Y-161973671D01*
X76526765Y-161950572D01*
X76520804Y-161926773D01*
X76517204Y-161902505D01*
X76516000Y-161878001D01*
X76516000Y-161227999D01*
X76517204Y-161203495D01*
X76520804Y-161179227D01*
X76526765Y-161155428D01*
X76535030Y-161132329D01*
X76545520Y-161110150D01*
X76558132Y-161089107D01*
X76572747Y-161069401D01*
X76589223Y-161051223D01*
X76607401Y-161034747D01*
X76627107Y-161020132D01*
X76648150Y-161007520D01*
X76670329Y-160997030D01*
X76693428Y-160988765D01*
X76717227Y-160982804D01*
X76741495Y-160979204D01*
X76765999Y-160978000D01*
X77666001Y-160978000D01*
X77690505Y-160979204D01*
X77690505Y-160979204D01*
G37*
D16*
G04 #@! TD*
G04 #@! TO.P,R_PHASE1,2*
G04 #@! TO.N,Net-(RV_TIME1-Pad6)*
X77216000Y-161553000D03*
D14*
G04 #@! TO.P,RV_AMP1,1*
G04 #@! TO.N,Net-(RV_AMP1-Pad1)*
X71882000Y-195580000D03*
G04 #@! TO.P,RV_AMP1,2*
G04 #@! TO.N,Net-(RV_AMP1-Pad2)*
X71882000Y-193040000D03*
G04 #@! TO.P,RV_AMP1,3*
G04 #@! TO.N,Net-(RV_AMP1-Pad3)*
X71882000Y-190500000D03*
G04 #@! TO.P,RV_AMP1,4*
G04 #@! TO.N,Net-(CF2-Pad2)*
X77216000Y-195580000D03*
G04 #@! TO.P,RV_AMP1,5*
G04 #@! TO.N,Net-(RV_AMP1-Pad5)*
X77216000Y-193040000D03*
G04 #@! TO.P,RV_AMP1,6*
X77216000Y-190500000D03*
G04 #@! TD*
G04 #@! TO.P,RV_TIME1,6*
G04 #@! TO.N,Net-(RV_TIME1-Pad6)*
X77216000Y-165100000D03*
G04 #@! TO.P,RV_TIME1,5*
G04 #@! TO.N,/PHASE1*
X77216000Y-167640000D03*
G04 #@! TO.P,RV_TIME1,4*
G04 #@! TO.N,/5V*
X77216000Y-170180000D03*
G04 #@! TO.P,RV_TIME1,3*
G04 #@! TO.N,Net-(RV_TIME1-Pad3)*
X71882000Y-165100000D03*
G04 #@! TO.P,RV_TIME1,2*
G04 #@! TO.N,/VEL1*
X71882000Y-167640000D03*
G04 #@! TO.P,RV_TIME1,1*
G04 #@! TO.N,/5V*
X71882000Y-170180000D03*
G04 #@! TD*
D10*
G04 #@! TO.P,RV_LOWOFF1,3*
G04 #@! TO.N,Net-(RV_LOWOFF1-Pad3)*
X71200000Y-207010000D03*
G04 #@! TO.P,RV_LOWOFF1,2*
G04 #@! TO.N,Net-(RV_AMP1-Pad3)*
X73700000Y-202010000D03*
G04 #@! TO.P,RV_LOWOFF1,1*
X76200000Y-207010000D03*
G04 #@! TD*
D15*
G04 #@! TO.N,Net-(CF1-Pad1)*
G04 #@! TO.C,CF1*
G36*
X94828505Y-185737204D02*
X94852773Y-185740804D01*
X94876572Y-185746765D01*
X94899671Y-185755030D01*
X94921850Y-185765520D01*
X94942893Y-185778132D01*
X94962599Y-185792747D01*
X94980777Y-185809223D01*
X94997253Y-185827401D01*
X95011868Y-185847107D01*
X95024480Y-185868150D01*
X95034970Y-185890329D01*
X95043235Y-185913428D01*
X95049196Y-185937227D01*
X95052796Y-185961495D01*
X95054000Y-185985999D01*
X95054000Y-186886001D01*
X95052796Y-186910505D01*
X95049196Y-186934773D01*
X95043235Y-186958572D01*
X95034970Y-186981671D01*
X95024480Y-187003850D01*
X95011868Y-187024893D01*
X94997253Y-187044599D01*
X94980777Y-187062777D01*
X94962599Y-187079253D01*
X94942893Y-187093868D01*
X94921850Y-187106480D01*
X94899671Y-187116970D01*
X94876572Y-187125235D01*
X94852773Y-187131196D01*
X94828505Y-187134796D01*
X94804001Y-187136000D01*
X94153999Y-187136000D01*
X94129495Y-187134796D01*
X94105227Y-187131196D01*
X94081428Y-187125235D01*
X94058329Y-187116970D01*
X94036150Y-187106480D01*
X94015107Y-187093868D01*
X93995401Y-187079253D01*
X93977223Y-187062777D01*
X93960747Y-187044599D01*
X93946132Y-187024893D01*
X93933520Y-187003850D01*
X93923030Y-186981671D01*
X93914765Y-186958572D01*
X93908804Y-186934773D01*
X93905204Y-186910505D01*
X93904000Y-186886001D01*
X93904000Y-185985999D01*
X93905204Y-185961495D01*
X93908804Y-185937227D01*
X93914765Y-185913428D01*
X93923030Y-185890329D01*
X93933520Y-185868150D01*
X93946132Y-185847107D01*
X93960747Y-185827401D01*
X93977223Y-185809223D01*
X93995401Y-185792747D01*
X94015107Y-185778132D01*
X94036150Y-185765520D01*
X94058329Y-185755030D01*
X94081428Y-185746765D01*
X94105227Y-185740804D01*
X94129495Y-185737204D01*
X94153999Y-185736000D01*
X94804001Y-185736000D01*
X94828505Y-185737204D01*
X94828505Y-185737204D01*
G37*
D16*
G04 #@! TD*
G04 #@! TO.P,CF1,1*
G04 #@! TO.N,Net-(CF1-Pad1)*
X94479000Y-186436000D03*
D15*
G04 #@! TO.N,Net-(CF1-Pad2)*
G04 #@! TO.C,CF1*
G36*
X96878505Y-185737204D02*
X96902773Y-185740804D01*
X96926572Y-185746765D01*
X96949671Y-185755030D01*
X96971850Y-185765520D01*
X96992893Y-185778132D01*
X97012599Y-185792747D01*
X97030777Y-185809223D01*
X97047253Y-185827401D01*
X97061868Y-185847107D01*
X97074480Y-185868150D01*
X97084970Y-185890329D01*
X97093235Y-185913428D01*
X97099196Y-185937227D01*
X97102796Y-185961495D01*
X97104000Y-185985999D01*
X97104000Y-186886001D01*
X97102796Y-186910505D01*
X97099196Y-186934773D01*
X97093235Y-186958572D01*
X97084970Y-186981671D01*
X97074480Y-187003850D01*
X97061868Y-187024893D01*
X97047253Y-187044599D01*
X97030777Y-187062777D01*
X97012599Y-187079253D01*
X96992893Y-187093868D01*
X96971850Y-187106480D01*
X96949671Y-187116970D01*
X96926572Y-187125235D01*
X96902773Y-187131196D01*
X96878505Y-187134796D01*
X96854001Y-187136000D01*
X96203999Y-187136000D01*
X96179495Y-187134796D01*
X96155227Y-187131196D01*
X96131428Y-187125235D01*
X96108329Y-187116970D01*
X96086150Y-187106480D01*
X96065107Y-187093868D01*
X96045401Y-187079253D01*
X96027223Y-187062777D01*
X96010747Y-187044599D01*
X95996132Y-187024893D01*
X95983520Y-187003850D01*
X95973030Y-186981671D01*
X95964765Y-186958572D01*
X95958804Y-186934773D01*
X95955204Y-186910505D01*
X95954000Y-186886001D01*
X95954000Y-185985999D01*
X95955204Y-185961495D01*
X95958804Y-185937227D01*
X95964765Y-185913428D01*
X95973030Y-185890329D01*
X95983520Y-185868150D01*
X95996132Y-185847107D01*
X96010747Y-185827401D01*
X96027223Y-185809223D01*
X96045401Y-185792747D01*
X96065107Y-185778132D01*
X96086150Y-185765520D01*
X96108329Y-185755030D01*
X96131428Y-185746765D01*
X96155227Y-185740804D01*
X96179495Y-185737204D01*
X96203999Y-185736000D01*
X96854001Y-185736000D01*
X96878505Y-185737204D01*
X96878505Y-185737204D01*
G37*
D16*
G04 #@! TD*
G04 #@! TO.P,CF1,2*
G04 #@! TO.N,Net-(CF1-Pad2)*
X96529000Y-186436000D03*
D25*
G04 #@! TO.N,/GND*
X97790000Y-90941000D03*
X101600000Y-223520000D03*
X100330000Y-216535000D03*
X102870000Y-196850000D03*
X94488000Y-182118000D03*
X109982000Y-198120000D03*
X71882000Y-158114996D03*
X77216000Y-158115000D03*
G04 #@! TO.N,/SCL*
X107442000Y-71374000D03*
X104394000Y-71374000D03*
G04 #@! TO.N,/DDS_CS*
X114300000Y-175514000D03*
X121666000Y-175514000D03*
G04 #@! TO.N,/5V*
X114300000Y-165354000D03*
X102870000Y-201930000D03*
X128523994Y-151130000D03*
G04 #@! TO.N,/SCK*
X114300000Y-172974000D03*
X124714000Y-172974000D03*
G04 #@! TO.N,/+12V*
X90805000Y-218440000D03*
X90932000Y-194310000D03*
G04 #@! TO.N,/-12V*
X99314000Y-190500000D03*
X68834004Y-210820000D03*
X68834000Y-224282000D03*
X98552000Y-213868000D03*
G04 #@! TO.N,/AuxiliaryBoard/WAVEBTN_AUX*
X54610000Y-94996012D03*
G04 #@! TO.N,Net-(RV_AMP1-Pad5)*
X97790000Y-176783998D03*
X93218000Y-176784000D03*
G04 #@! TO.N,/FREQHI*
X114427000Y-139700000D03*
X108585002Y-139700000D03*
G04 #@! TO.N,/FREQLO*
X108585000Y-137794998D03*
X114427000Y-137795000D03*
G04 #@! TD*
D26*
G04 #@! TO.N,/AREF*
X109855000Y-95250000D02*
X109855000Y-97790000D01*
D27*
G04 #@! TO.N,/GND*
X95250000Y-90941000D02*
X97790000Y-90941000D01*
X97790000Y-90941000D02*
X100330000Y-90941000D01*
D26*
X99695000Y-223910000D02*
X101210000Y-223910000D01*
X101210000Y-223910000D02*
X101600000Y-223520000D01*
X98585000Y-216535000D02*
X100330000Y-216535000D01*
X102870000Y-196850000D02*
X106012000Y-196850000D01*
X109982000Y-198120000D02*
X111412000Y-198120000D01*
X111412000Y-198120000D02*
X116840000Y-198120000D01*
X117602000Y-197358000D02*
X117602000Y-195589000D01*
X116840000Y-198120000D02*
X117602000Y-197358000D01*
X71882000Y-159503000D02*
X71882000Y-158114996D01*
X77216000Y-159503000D02*
X77216000Y-158115000D01*
X94479000Y-182127000D02*
X94488000Y-182118000D01*
X94479000Y-184277000D02*
X94479000Y-182127000D01*
G04 #@! TO.N,/WAVEBTN*
X129413000Y-118110000D02*
X125095000Y-118110000D01*
X130810000Y-116713000D02*
X129413000Y-118110000D01*
X130810000Y-70104000D02*
X130810000Y-116713000D01*
X127000000Y-68834000D02*
X129540000Y-68834000D01*
X129540000Y-68834000D02*
X130810000Y-70104000D01*
G04 #@! TO.N,/MODEBTN*
X128524000Y-71374000D02*
X127000000Y-71374000D01*
X129794000Y-72644000D02*
X128524000Y-71374000D01*
X129794000Y-114173000D02*
X129794000Y-72644000D01*
X125095000Y-115570000D02*
X128397000Y-115570000D01*
X128397000Y-115570000D02*
X129794000Y-114173000D01*
G04 #@! TO.N,/SDA*
X106934000Y-68834000D02*
X124460000Y-68834000D01*
X105918000Y-69850000D02*
X106934000Y-68834000D01*
X105918000Y-108458000D02*
X105918000Y-69850000D01*
X109855000Y-110490000D02*
X107950000Y-110490000D01*
X107950000Y-110490000D02*
X105918000Y-108458000D01*
G04 #@! TO.N,/RANGEBTN*
X127508000Y-73914000D02*
X127000000Y-73914000D01*
X128778000Y-75184000D02*
X127508000Y-73914000D01*
X128778000Y-109220000D02*
X128778000Y-75184000D01*
X125095000Y-110490000D02*
X127508000Y-110490000D01*
X127508000Y-110490000D02*
X128778000Y-109220000D01*
G04 #@! TO.N,/SCL*
X104394000Y-71939685D02*
X104394000Y-71374000D01*
X104394000Y-108966000D02*
X104394000Y-71939685D01*
X109855000Y-113030000D02*
X108458000Y-113030000D01*
X108458000Y-113030000D02*
X104394000Y-108966000D01*
X107442000Y-71374000D02*
X124460000Y-71374000D01*
G04 #@! TO.N,/VEL1*
X73660000Y-167640000D02*
X71882000Y-167640000D01*
X74041000Y-167259000D02*
X73660000Y-167640000D01*
X74041000Y-156464000D02*
X74041000Y-167259000D01*
X111125000Y-115570000D02*
X111760000Y-116205000D01*
X109855000Y-115570000D02*
X111125000Y-115570000D01*
X111760000Y-116205000D02*
X111760000Y-148971000D01*
X111760000Y-148971000D02*
X107442000Y-153289000D01*
X107442000Y-153289000D02*
X77216000Y-153289000D01*
X77216000Y-153289000D02*
X74041000Y-156464000D01*
G04 #@! TO.N,/POT_CS*
X112662000Y-201930000D02*
X111412000Y-201930000D01*
X122682000Y-201930000D02*
X112662000Y-201930000D01*
X127762000Y-196850000D02*
X122682000Y-201930000D01*
X122809000Y-102616000D02*
X122809000Y-130429000D01*
X125095000Y-100330000D02*
X122809000Y-102616000D01*
X122809000Y-130429000D02*
X126238000Y-133858000D01*
X126238000Y-133858000D02*
X126238000Y-157734000D01*
X126238000Y-157734000D02*
X127762000Y-159258000D01*
X127762000Y-159258000D02*
X127762000Y-196850000D01*
G04 #@! TO.N,/DDS_CS*
X114292228Y-175521772D02*
X114300000Y-175514000D01*
X111194407Y-175521772D02*
X114292228Y-175521772D01*
X121666000Y-174948315D02*
X121666000Y-175514000D01*
X125095000Y-97790000D02*
X121666000Y-101219000D01*
X121666000Y-101219000D02*
X121666000Y-174948315D01*
G04 #@! TO.N,/MOSI*
X119126000Y-97409000D02*
X119126000Y-170561000D01*
X121285000Y-95250000D02*
X119126000Y-97409000D01*
X125095000Y-95250000D02*
X121285000Y-95250000D01*
X119126000Y-170441772D02*
X119126000Y-170561000D01*
X111194407Y-170441772D02*
X119126000Y-170441772D01*
X117602000Y-199390000D02*
X111412000Y-199390000D01*
X119126000Y-197866000D02*
X117602000Y-199390000D01*
X119126000Y-170688000D02*
X119126000Y-197866000D01*
G04 #@! TO.N,/5V*
X111448407Y-165107772D02*
X111194407Y-165361772D01*
X111203407Y-165370772D02*
X111194407Y-165361772D01*
X71882000Y-170180000D02*
X77216000Y-170180000D01*
X105410000Y-199390000D02*
X106012000Y-199390000D01*
X106012000Y-199390000D02*
X106012000Y-198120000D01*
X71882000Y-139700000D02*
X73296213Y-139700000D01*
X70866000Y-170180000D02*
X69850000Y-169164000D01*
X71882000Y-170180000D02*
X70866000Y-170180000D01*
X106012000Y-198120000D02*
X107950000Y-198120000D01*
X69850000Y-169164000D02*
X69850000Y-151892000D01*
X111194407Y-165361772D02*
X114292228Y-165361772D01*
X114292228Y-165361772D02*
X114300000Y-165354000D01*
X106012000Y-201930000D02*
X102870000Y-201930000D01*
X107950000Y-201930000D02*
X106012000Y-201930000D01*
X107950000Y-198120000D02*
X107950000Y-201930000D01*
X106045000Y-204470000D02*
X107560000Y-204470000D01*
X106012000Y-204437000D02*
X106012000Y-201930000D01*
X106045000Y-204470000D02*
X106012000Y-204437000D01*
X130810000Y-159257988D02*
X130810000Y-203200000D01*
X130810000Y-203200000D02*
X126746000Y-207264000D01*
X100330000Y-88891000D02*
X102353000Y-88891000D01*
X102362000Y-88334315D02*
X102362000Y-88900000D01*
X102353000Y-88891000D02*
X102362000Y-88900000D01*
X102362000Y-89465685D02*
X102362000Y-88900000D01*
X107560000Y-205858000D02*
X108966000Y-207264000D01*
X107560000Y-204470000D02*
X107560000Y-205858000D01*
X126746000Y-207264000D02*
X108966000Y-207264000D01*
D27*
X100330000Y-88891000D02*
X100330000Y-85598000D01*
D26*
X109855000Y-128270000D02*
X109855000Y-148463000D01*
X109855000Y-148463000D02*
X106426000Y-151892000D01*
X74295000Y-151892000D02*
X69850000Y-151892000D01*
X106426000Y-151892000D02*
X74295000Y-151892000D01*
X73296213Y-139700000D02*
X74295000Y-139700000D01*
X74295000Y-139700000D02*
X77216000Y-139700000D01*
X74549000Y-151638000D02*
X74295000Y-151892000D01*
X74295000Y-139700000D02*
X74549000Y-139954000D01*
X74549000Y-139954000D02*
X74549000Y-151638000D01*
X130810000Y-151130000D02*
X128523994Y-151130000D01*
X130810000Y-159257988D02*
X130810000Y-151130000D01*
X107442000Y-128270000D02*
X109855000Y-128270000D01*
X102362000Y-123190000D02*
X107442000Y-128270000D01*
X131826000Y-150114000D02*
X131826000Y-66548000D01*
X130810000Y-151130000D02*
X131826000Y-150114000D01*
X131826000Y-66548000D02*
X130683000Y-65405000D01*
X130683000Y-65405000D02*
X104140000Y-65405000D01*
X104140000Y-65405000D02*
X102362000Y-67183000D01*
X102362000Y-67183000D02*
X102362000Y-123190000D01*
G04 #@! TO.N,/SCK*
X114292228Y-172981772D02*
X114300000Y-172974000D01*
X111194407Y-172981772D02*
X114292228Y-172981772D01*
X107950000Y-171450000D02*
X109481772Y-172981772D01*
X113665000Y-92710000D02*
X117856000Y-96901000D01*
X109855000Y-92710000D02*
X113665000Y-92710000D01*
X109481772Y-172981772D02*
X111194407Y-172981772D01*
X117856000Y-96901000D02*
X117856000Y-154686000D01*
X117856000Y-154686000D02*
X115062000Y-157480000D01*
X115062000Y-157480000D02*
X110490000Y-157480000D01*
X107950000Y-160020000D02*
X107950000Y-171450000D01*
X110490000Y-157480000D02*
X107950000Y-160020000D01*
X111412000Y-200660000D02*
X120142000Y-200660000D01*
X120142000Y-200660000D02*
X124714000Y-196088000D01*
X124714000Y-196088000D02*
X124714000Y-173539685D01*
X124714000Y-173539685D02*
X124714000Y-172974000D01*
G04 #@! TO.N,/+12V*
X91440000Y-218440000D02*
X90805000Y-218440000D01*
X92075000Y-217805000D02*
X93185000Y-217805000D01*
X91440000Y-218440000D02*
X92075000Y-217805000D01*
X95250000Y-88891000D02*
X93481000Y-88891000D01*
D27*
X95250000Y-88891000D02*
X95250000Y-85598000D01*
D26*
X101473000Y-93853000D02*
X101473000Y-123317000D01*
X101473000Y-123317000D02*
X100584000Y-124206000D01*
X83566000Y-124206000D02*
X82296000Y-122936000D01*
X82296000Y-115316000D02*
X80995000Y-114015000D01*
X80995000Y-114015000D02*
X80264000Y-114015000D01*
X100584000Y-92964000D02*
X101473000Y-93853000D01*
X82296000Y-122936000D02*
X82296000Y-115316000D01*
X93472000Y-92964000D02*
X100584000Y-92964000D01*
X100584000Y-124206000D02*
X83566000Y-124206000D01*
X93472000Y-88900000D02*
X93481000Y-88891000D01*
X93472000Y-92964000D02*
X93472000Y-88900000D01*
X92169000Y-194310000D02*
X90932000Y-194310000D01*
X104902000Y-207518000D02*
X94742000Y-197358000D01*
X104902000Y-226695000D02*
X104902000Y-207518000D01*
X102235000Y-229362000D02*
X104902000Y-226695000D01*
X71247000Y-229362000D02*
X102235000Y-229362000D01*
X67835010Y-213360000D02*
X67835010Y-225950010D01*
X67835010Y-225950010D02*
X71247000Y-229362000D01*
X94742000Y-197358000D02*
X94742000Y-195326000D01*
X94742000Y-195326000D02*
X93726000Y-194310000D01*
X93726000Y-194310000D02*
X92804000Y-194310000D01*
X73406000Y-213360000D02*
X67835010Y-213360000D01*
X87630000Y-213360000D02*
X73406000Y-213360000D01*
X88646000Y-218440000D02*
X90805000Y-218440000D01*
X87630000Y-217424000D02*
X88646000Y-218440000D01*
X87630000Y-211582000D02*
X87630000Y-217424000D01*
X82305000Y-210820000D02*
X86868000Y-210820000D01*
X86868000Y-210820000D02*
X87630000Y-211582000D01*
X67835010Y-124968000D02*
X67835010Y-213360000D01*
X67835010Y-117584990D02*
X67835010Y-124968000D01*
X71374000Y-114046000D02*
X67835010Y-117584990D01*
X80264000Y-114015000D02*
X80233000Y-114046000D01*
X80233000Y-114046000D02*
X71374000Y-114046000D01*
G04 #@! TO.N,/-12V*
X99314000Y-190500000D02*
X98204000Y-190500000D01*
X98204000Y-190500000D02*
X98204000Y-191770000D01*
X68834000Y-210820000D02*
X68834004Y-210820000D01*
X97790000Y-190086000D02*
X98204000Y-190500000D01*
X97790000Y-179070000D02*
X97790000Y-190086000D01*
X93472000Y-174752000D02*
X97790000Y-179070000D01*
X68834000Y-172720000D02*
X68834000Y-174752000D01*
X68834000Y-174752000D02*
X93472000Y-174752000D01*
X72390000Y-210820000D02*
X68834000Y-210820000D01*
X98585000Y-215265000D02*
X100318002Y-215265000D01*
X72390000Y-227838000D02*
X69233999Y-224681999D01*
X101092000Y-227838000D02*
X72390000Y-227838000D01*
X102870000Y-226060000D02*
X101092000Y-227838000D01*
X69233999Y-224681999D02*
X68834000Y-224282000D01*
X100318002Y-215265000D02*
X102870000Y-217816998D01*
X102870000Y-217816998D02*
X102870000Y-226060000D01*
X98585000Y-213901000D02*
X98552000Y-213868000D01*
X98585000Y-215265000D02*
X98585000Y-213901000D01*
X80137000Y-120142000D02*
X80264000Y-120015000D01*
X71628000Y-120142000D02*
X80137000Y-120142000D01*
X68834000Y-210820000D02*
X68834000Y-122936000D01*
X68834000Y-122936000D02*
X71628000Y-120142000D01*
D27*
G04 #@! TO.N,Net-(RV_AMP1-Pad2)*
X74168000Y-193040000D02*
X71882000Y-193040000D01*
X74168000Y-193040000D02*
X74168000Y-187706000D01*
X73397000Y-186935000D02*
X73397000Y-185420000D01*
X74168000Y-187706000D02*
X73397000Y-186935000D01*
D26*
X73406000Y-183642000D02*
X73406000Y-185166000D01*
X74930000Y-182118000D02*
X73406000Y-183642000D01*
X74930000Y-180340000D02*
X74930000Y-182118000D01*
G04 #@! TO.N,Net-(RV_AMP1-Pad3)*
X70358000Y-190500000D02*
X71882000Y-190500000D01*
X69850000Y-191008000D02*
X70358000Y-190500000D01*
X69850000Y-201930000D02*
X69850000Y-191008000D01*
X72390000Y-204470000D02*
X69850000Y-201930000D01*
X73660000Y-204470000D02*
X72390000Y-204470000D01*
X73700000Y-204510000D02*
X73914000Y-204724000D01*
X73700000Y-202010000D02*
X73700000Y-204510000D01*
X76200000Y-207010000D02*
X73914000Y-204724000D01*
X73914000Y-204724000D02*
X73660000Y-204470000D01*
G04 #@! TO.N,Net-(RV_AMP1-Pad1)*
X81320000Y-204510000D02*
X83820000Y-207010000D01*
X81320000Y-202010000D02*
X81320000Y-204510000D01*
X78740000Y-201930000D02*
X81280000Y-201930000D01*
X71882000Y-195580000D02*
X78232000Y-201930000D01*
X78232000Y-201930000D02*
X78740000Y-201930000D01*
G04 #@! TO.N,/AuxiliaryBoard/5V_AUX*
X53667681Y-98515698D02*
X85059681Y-98515698D01*
X78559681Y-85307698D02*
X78559681Y-98515698D01*
X65709646Y-74997663D02*
X76019681Y-85307698D01*
X65709646Y-69256447D02*
X65709646Y-74997663D01*
X76019681Y-85307698D02*
X82115681Y-85307698D01*
X82115681Y-85307698D02*
X78559681Y-85307698D01*
X82115681Y-81370698D02*
X82115681Y-85307698D01*
G04 #@! TO.N,/AuxiliaryBoard/WAVEBTN_AUX*
X62303681Y-67019698D02*
X80337681Y-67019698D01*
D28*
X62176681Y-67019698D02*
X62303681Y-67019698D01*
D26*
X80337681Y-67019698D02*
X82115681Y-68797698D01*
X82115681Y-68797698D02*
X82115681Y-71210698D01*
X62176681Y-67019698D02*
X54610000Y-74586379D01*
X54610000Y-74586379D02*
X54610000Y-94430327D01*
X54610000Y-94430327D02*
X54610000Y-94996012D01*
G04 #@! TO.N,/AuxiliaryBoard/SCL_AUX*
X70789646Y-69256447D02*
X70789646Y-71187663D01*
X73352681Y-73750698D02*
X79575681Y-73750698D01*
X70789646Y-71187663D02*
X73352681Y-73750698D01*
G04 #@! TO.N,/AuxiliaryBoard/RANGEBTN_AUX*
X85671681Y-103087698D02*
X78559681Y-103087698D01*
G04 #@! TO.N,/AuxiliaryBoard/SDA_AUX*
X73329646Y-69256447D02*
X75283897Y-71210698D01*
X75283897Y-71210698D02*
X79575681Y-71210698D01*
G04 #@! TO.N,/AuxiliaryBoard/MODEBTN_AUX*
X66803681Y-103087698D02*
X72177681Y-103087698D01*
D28*
X66240681Y-103650698D02*
X66803681Y-103087698D01*
D27*
G04 #@! TO.N,/DDS_SIG*
X111092000Y-178164179D02*
X111194407Y-178061772D01*
X106012000Y-190406000D02*
X111194407Y-185223593D01*
X111194407Y-185223593D02*
X111194407Y-178061772D01*
X106012000Y-194310000D02*
X106012000Y-190406000D01*
G04 #@! TO.N,/OutputSection/SIGOUT*
X90424000Y-204724000D02*
X90678000Y-204470000D01*
X90424000Y-214367000D02*
X90424000Y-204724000D01*
G04 #@! TO.N,/DDS_REDUX*
X104971998Y-195580000D02*
X106012000Y-195580000D01*
X98298000Y-193040000D02*
X102431998Y-193040000D01*
X102431998Y-193040000D02*
X104971998Y-195580000D01*
D26*
G04 #@! TO.N,Net-(RV_UPOFF1-Pad3)*
X80500000Y-208690000D02*
X78820000Y-207010000D01*
X80500000Y-210820000D02*
X80500000Y-208690000D01*
G04 #@! TO.N,Net-(RV_LOWOFF1-Pad3)*
X74685000Y-210020000D02*
X74685000Y-210820000D01*
X74685000Y-209349488D02*
X74685000Y-210020000D01*
X72345512Y-207010000D02*
X74685000Y-209349488D01*
X71200000Y-207010000D02*
X72345512Y-207010000D01*
D27*
G04 #@! TO.N,Net-(RV_AMP1-Pad5)*
X80890000Y-193040000D02*
X77216000Y-193040000D01*
X77216000Y-193040000D02*
X77216000Y-190500000D01*
X77216000Y-188722000D02*
X77216000Y-190500000D01*
X75447000Y-186953000D02*
X77216000Y-188722000D01*
X75447000Y-185420000D02*
X75447000Y-186953000D01*
D26*
X109728000Y-176784000D02*
X109727998Y-176783998D01*
X109727998Y-176783998D02*
X98355685Y-176783998D01*
X98355685Y-176783998D02*
X97790000Y-176783998D01*
X80890000Y-193040000D02*
X80890000Y-189112000D01*
X80890000Y-189112000D02*
X92818001Y-177183999D01*
X92818001Y-177183999D02*
X93218000Y-176784000D01*
D28*
X109728000Y-176784000D02*
X112776000Y-176784000D01*
D26*
X114300000Y-193539000D02*
X114300000Y-178308000D01*
X114300000Y-178308000D02*
X113030000Y-177038000D01*
X113030000Y-177038000D02*
X112776000Y-176784000D01*
G04 #@! TO.N,/OFFSETADJUST*
X114291000Y-195580000D02*
X114300000Y-195589000D01*
X111412000Y-195580000D02*
X114291000Y-195580000D01*
G04 #@! TO.N,Net-(ROFF1-Pad1)*
X108966000Y-194310000D02*
X111412000Y-194310000D01*
X109610000Y-202066000D02*
X108966000Y-201422000D01*
X109610000Y-204470000D02*
X109610000Y-202066000D01*
X108966000Y-201422000D02*
X108966000Y-194310000D01*
G04 #@! TO.N,Net-(ROFF2-Pad1)*
X115570000Y-196850000D02*
X111412000Y-196850000D01*
X116078000Y-196342000D02*
X115570000Y-196850000D01*
X116078000Y-194056000D02*
X116078000Y-196342000D01*
X117602000Y-193539000D02*
X116595000Y-193539000D01*
X116595000Y-193539000D02*
X116078000Y-194056000D01*
D27*
G04 #@! TO.N,Net-(CF2-Pad2)*
X96910000Y-224155000D02*
X96910000Y-221615000D01*
D26*
X77216000Y-195834000D02*
X77216000Y-195580000D01*
X99450000Y-221615000D02*
X99695000Y-221860000D01*
X96910000Y-221615000D02*
X99450000Y-221615000D01*
D27*
X96910000Y-218205000D02*
X96910000Y-221615000D01*
X96901000Y-218196000D02*
X96910000Y-218205000D01*
X97155000Y-217805000D02*
X96901000Y-217551000D01*
X98585000Y-217805000D02*
X97155000Y-217805000D01*
X96901000Y-217551000D02*
X96901000Y-218196000D01*
X96901000Y-208788000D02*
X96901000Y-217551000D01*
X96901000Y-203327000D02*
X96901000Y-208788000D01*
X92456000Y-198882000D02*
X96901000Y-203327000D01*
X77216000Y-195834000D02*
X80264000Y-198882000D01*
X80264000Y-198882000D02*
X92456000Y-198882000D01*
G04 #@! TO.N,Net-(CF2-Pad1)*
X94860000Y-216935000D02*
X94860000Y-221615000D01*
X93185000Y-216535000D02*
X94460000Y-216535000D01*
X94460000Y-216535000D02*
X94860000Y-216935000D01*
X94860000Y-224155000D02*
X94860000Y-221615000D01*
D26*
X90542000Y-216535000D02*
X90424000Y-216417000D01*
D27*
X93185000Y-216535000D02*
X90542000Y-216535000D01*
D26*
G04 #@! TO.N,Net-(J_PWR1-Pad2)*
X84264000Y-114744000D02*
X84264000Y-114015000D01*
X99060000Y-94234000D02*
X93726000Y-94234000D01*
X99060000Y-96520000D02*
X99060000Y-94234000D01*
X93726000Y-94234000D02*
X93726000Y-113284000D01*
X93726000Y-113284000D02*
X90805000Y-116205000D01*
X90805000Y-116205000D02*
X85725000Y-116205000D01*
X85725000Y-116205000D02*
X84264000Y-114744000D01*
G04 #@! TO.N,Net-(J_PWR1-Pad10)*
X99060000Y-111506000D02*
X99060000Y-106680000D01*
X93218000Y-117348000D02*
X99060000Y-111506000D01*
X85598000Y-117348000D02*
X93218000Y-117348000D01*
X84264000Y-120015000D02*
X84264000Y-118682000D01*
X84264000Y-118682000D02*
X85598000Y-117348000D01*
G04 #@! TO.N,/PHASE1*
X113030000Y-149987000D02*
X113030000Y-109220000D01*
X111760000Y-107950000D02*
X109855000Y-107950000D01*
X75438000Y-167640000D02*
X74930000Y-167132000D01*
X113030000Y-109220000D02*
X111760000Y-107950000D01*
X77216000Y-167640000D02*
X75438000Y-167640000D01*
X74930000Y-167132000D02*
X74930000Y-157861000D01*
X74930000Y-157861000D02*
X77851000Y-154940000D01*
X77851000Y-154940000D02*
X108077000Y-154940000D01*
X108077000Y-154940000D02*
X113030000Y-149987000D01*
G04 #@! TO.N,Net-(RV_TIME1-Pad6)*
X77216000Y-161553000D02*
X77216000Y-165100000D01*
G04 #@! TO.N,Net-(RV_TIME1-Pad3)*
X71882000Y-161553000D02*
X72390000Y-161045000D01*
X71882000Y-165100000D02*
X71882000Y-161553000D01*
G04 #@! TO.N,/FREQHI*
X115697000Y-138430000D02*
X114826999Y-139300001D01*
X114826999Y-139300001D02*
X114427000Y-139700000D01*
X115697000Y-106172000D02*
X115697000Y-138430000D01*
X109855000Y-100330000D02*
X115697000Y-106172000D01*
X108019317Y-139700000D02*
X108585002Y-139700000D01*
X81661000Y-139700000D02*
X108019317Y-139700000D01*
X77216000Y-142240000D02*
X79121000Y-142240000D01*
X79121000Y-142240000D02*
X81661000Y-139700000D01*
G04 #@! TO.N,/FREQLO*
X70739002Y-137794998D02*
X108019315Y-137794998D01*
X69850000Y-138684000D02*
X70739002Y-137794998D01*
X108019315Y-137794998D02*
X108585000Y-137794998D01*
X69850000Y-140208000D02*
X69850000Y-138684000D01*
X71882000Y-142240000D02*
X69850000Y-140208000D01*
X109855000Y-102870000D02*
X114427000Y-107442000D01*
X114427000Y-107442000D02*
X114427000Y-137229315D01*
X114427000Y-137229315D02*
X114427000Y-137795000D01*
D27*
G04 #@! TO.N,Net-(CF1-Pad1)*
X93726000Y-193040000D02*
X83058000Y-193040000D01*
X94479000Y-186445000D02*
X94488000Y-186436000D01*
X94079000Y-193040000D02*
X94479000Y-192640000D01*
X94479000Y-192640000D02*
X94479000Y-186445000D01*
G04 #@! TO.N,Net-(CF1-Pad2)*
X96529000Y-187325000D02*
X96529000Y-189865000D01*
X96529000Y-194301000D02*
X96520000Y-194310000D01*
X96529000Y-189865000D02*
X96529000Y-194301000D01*
X98195000Y-194301000D02*
X98204000Y-194310000D01*
X96529000Y-194301000D02*
X98195000Y-194301000D01*
X96529000Y-187198000D02*
X96529000Y-184277000D01*
G04 #@! TD*
M02*
