 0 
SECTION
 2 
HEADER
 9 
$ACADVER
 1 
AC1004
 9 
$EXTMIN
 10 
-0.106
 20 
0.0
 9 
$EXTMAX
 10 
3.923
 20 
2.5
 9 
$LIMMIN
 10 
-0.106
 20 
0.0
 9 
$LIMMAX
 10 
3.923
 20 
2.5
 9 
$INSBASE
 10 
0.0
 20 
0.0
 9 
$VIEWCTR
 10 
1.908
 20 
1.25
 9 
$VIEWSIZE
 40 
2.5
 9 
$ORTHOMODE
 70 
 0 
 9 
$REGENMODE
 70 
 1 
 9 
$FILLMODE
 70 
 1 
 9 
$QTEXTMODE
 70 
 0 
 9 
$DRAGMODE
 70 
 2 
 9 
$LTSCALE
 40 
1.0
 9 
$OSMODE
 70 
 0 
 9 
$ATTMODE
 70 
 1 
 9 
$TEXTSIZE
 40 
0.2
 9 
$TRACEWID
 40 
0.05
 9 
$TEXTSTYLE
 7 
STANDARD
 9 
$CLAYER
 8 
0
 9 
$CELTYPE
 6 
BYLAYER
 9 
$CECOLOR
 62 
 256 
 9 
$DIMSCALE
 40 
1.0
 9 
$DIMLFAC
 40 
1.0
 9 
$LUNITS
 70 
 2 
 9 
$LUPREC
 70 
 4 
 9 
$AXISMODE
 70 
 0 
 9 
$AXISUNIT
 10 
0.0
 20 
0.0
 9 
$SKETCHINC
 40 
0.1
 9 
$MENU
 1 
acad
 9 
$ELEVATION
 40 
0.0
 9 
$THICKNESS
 40 
0.0
 9 
$VIEWDIR
 10 
0.0
 20 
0.0
 30 
1.0
 9 
$LIMCHECK
 70 
 0 
 9 
$BLIPMODE
 70 
 1 
 9 
$FASTZOOM
 70 
 1 
 9 
$SKPOLY
 70 
 0 
 9 
$ANGBASE
 50 
0.0
 9 
$ANGDIR
 70 
 0 
 9 
$PDMODE
 70 
 0 
 9 
$PDSIZE
 40 
0.0
 9 
$PLINEWID
 40 
0.0
 9 
$COORDS
 70 
 0 
 9 
$ATTDIA
 70 
 0 
 9 
$ATTREQ
 70 
 1 
 0 
ENDSEC
 0 
SECTION
 2 
TABLES
 0 
TABLE
 2 
LTYPE
 70 
 10 
 0 
LTYPE
 2 
CONTINUOUS
 70 
 64 
 3 
Solid line
 72 
 65 
 73 
 0 
 40 
0.0
 0 
ENDTAB
 0 
TABLE
 2 
LAYER
 70 
 153 
 0 
LAYER
 2 
0
 70 
 64 
 62 
 7 
 6 
CONTINUOUS
 0 
ENDTAB
 0 
ENDSEC
 0 
SECTION
 2 
BLOCKS
 0 
ENDSEC
 0 
SECTION
 2 
ENTITIES
 0 
LINE
 8 
0
 62 
 7 
 10 
0.0
 20 
2.5
 11 
3.8
 21 
2.5
 0 
LINE
 8 
0
 62 
 7 
 10 
3.8
 20 
2.5
 11 
3.8
 21 
0.0
 0 
LINE
 8 
0
 62 
 7 
 10 
3.8
 20 
0.0
 11 
0.0
 21 
0.0
 0 
LINE
 8 
0
 62 
 7 
 10 
0.0
 20 
0.0
 11 
0.0
 21 
2.5
 0 
CIRCLE
 8 
0
 62 
 7 
 10 
2.678
 20 
2.165
 40 
0.028
 0 
CIRCLE
 8 
0
 62 
 7 
 10 
2.678
 20 
2.165
 40 
0.014
 0 
LINE
 8 
0
 62 
 7 
 10 
0.858
 20 
2.175
 11 
0.875
 21 
2.175
 0 
LINE
 8 
0
 62 
 7 
 10 
0.858
 20 
2.125
 11 
0.875
 21 
2.125
 0 
LINE
 8 
0
 62 
 7 
 10 
0.867
 20 
2.175
 11 
0.867
 21 
2.125
 0 
LINE
 8 
0
 62 
 7 
 10 
0.9
 20 
2.167
 11 
0.908
 21 
2.175
 0 
LINE
 8 
0
 62 
 7 
 10 
0.908
 20 
2.175
 11 
0.925
 21 
2.175
 0 
LINE
 8 
0
 62 
 7 
 10 
0.925
 20 
2.175
 11 
0.933
 21 
2.167
 0 
LINE
 8 
0
 62 
 7 
 10 
0.933
 20 
2.167
 11 
0.933
 21 
2.158
 0 
LINE
 8 
0
 62 
 7 
 10 
0.933
 20 
2.158
 11 
0.925
 21 
2.15
 0 
LINE
 8 
0
 62 
 7 
 10 
0.925
 20 
2.15
 11 
0.908
 21 
2.15
 0 
LINE
 8 
0
 62 
 7 
 10 
0.908
 20 
2.15
 11 
0.9
 21 
2.142
 0 
LINE
 8 
0
 62 
 7 
 10 
0.9
 20 
2.142
 11 
0.9
 21 
2.125
 0 
LINE
 8 
0
 62 
 7 
 10 
0.9
 20 
2.125
 11 
0.933
 21 
2.125
 0 
LINE
 8 
0
 62 
 7 
 10 
0.983
 20 
2.167
 11 
0.975
 21 
2.175
 0 
LINE
 8 
0
 62 
 7 
 10 
0.975
 20 
2.175
 11 
0.958
 21 
2.175
 0 
LINE
 8 
0
 62 
 7 
 10 
0.958
 20 
2.175
 11 
0.95
 21 
2.167
 0 
LINE
 8 
0
 62 
 7 
 10 
0.95
 20 
2.167
 11 
0.95
 21 
2.133
 0 
LINE
 8 
0
 62 
 7 
 10 
0.95
 20 
2.133
 11 
0.958
 21 
2.125
 0 
LINE
 8 
0
 62 
 7 
 10 
0.958
 20 
2.125
 11 
0.975
 21 
2.125
 0 
LINE
 8 
0
 62 
 7 
 10 
0.975
 20 
2.125
 11 
0.983
 21 
2.133
 0 
CIRCLE
 8 
0
 62 
 7 
 10 
3.0
 20 
2.4
 40 
0.038
 0 
CIRCLE
 8 
0
 62 
 7 
 10 
3.0
 20 
2.4
 40 
0.02
 0 
CIRCLE
 8 
0
 62 
 7 
 10 
2.803
 20 
2.4
 40 
0.038
 0 
CIRCLE
 8 
0
 62 
 7 
 10 
2.803
 20 
2.4
 40 
0.02
 0 
CIRCLE
 8 
0
 62 
 7 
 10 
3.65
 20 
2.35
 40 
0.125
 0 
CIRCLE
 8 
0
 62 
 7 
 10 
3.65
 20 
2.35
 40 
0.062
 0 
LINE
 8 
0
 62 
 7 
 10 
3.072
 20 
2.028
 11 
3.128
 21 
2.028
 0 
LINE
 8 
0
 62 
 7 
 10 
3.128
 20 
2.028
 11 
3.128
 21 
1.972
 0 
LINE
 8 
0
 62 
 7 
 10 
3.128
 20 
1.972
 11 
3.072
 21 
1.972
 0 
LINE
 8 
0
 62 
 7 
 10 
3.072
 20 
1.972
 11 
3.072
 21 
2.028
 0 
CIRCLE
 8 
0
 62 
 7 
 10 
3.1
 20 
2.0
 40 
0.014
 0 
LINE
 8 
0
 62 
 7 
 10 
1.612
 20 
2.306
 11 
1.612
 21 
2.332
 0 
LINE
 8 
0
 62 
 7 
 10 
1.625
 20 
2.319
 11 
1.6
 21 
2.319
 0 
LINE
 8 
0
 62 
 7 
 10 
1.562
 20 
2.3
 11 
1.587
 21 
2.3
 0 
LINE
 8 
0
 62 
 7 
 10 
1.587
 20 
2.3
 11 
1.587
 21 
2.313
 0 
LINE
 8 
0
 62 
 7 
 10 
1.587
 20 
2.313
 11 
1.568
 21 
2.313
 0 
LINE
 8 
0
 62 
 7 
 10 
1.568
 20 
2.313
 11 
1.562
 21 
2.319
 0 
LINE
 8 
0
 62 
 7 
 10 
1.562
 20 
2.319
 11 
1.562
 21 
2.332
 0 
LINE
 8 
0
 62 
 7 
 10 
1.562
 20 
2.332
 11 
1.568
 21 
2.338
 0 
LINE
 8 
0
 62 
 7 
 10 
1.568
 20 
2.338
 11 
1.581
 21 
2.338
 0 
LINE
 8 
0
 62 
 7 
 10 
1.581
 20 
2.338
 11 
1.587
 21 
2.332
 0 
LINE
 8 
0
 62 
 7 
 10 
1.549
 20 
2.3
 11 
1.549
 21 
2.319
 0 
LINE
 8 
0
 62 
 7 
 10 
1.549
 20 
2.319
 11 
1.536
 21 
2.332
 0 
LINE
 8 
0
 62 
 7 
 10 
1.536
 20 
2.332
 11 
1.524
 21 
2.319
 0 
LINE
 8 
0
 62 
 7 
 10 
1.524
 20 
2.319
 11 
1.524
 21 
2.3
 0 
LINE
 8 
0
 62 
 7 
 10 
1.536
 20 
2.332
 11 
1.536
 21 
2.338
 0 
LINE
 8 
0
 62 
 7 
 10 
1.538
 20 
1.494
 11 
1.538
 21 
1.468
 0 
LINE
 8 
0
 62 
 7 
 10 
1.525
 20 
1.481
 11 
1.55
 21 
1.481
 0 
LINE
 8 
0
 62 
 7 
 10 
1.588
 20 
1.5
 11 
1.563
 21 
1.5
 0 
LINE
 8 
0
 62 
 7 
 10 
1.563
 20 
1.5
 11 
1.563
 21 
1.487
 0 
LINE
 8 
0
 62 
 7 
 10 
1.563
 20 
1.487
 11 
1.582
 21 
1.487
 0 
LINE
 8 
0
 62 
 7 
 10 
1.582
 20 
1.487
 11 
1.588
 21 
1.481
 0 
LINE
 8 
0
 62 
 7 
 10 
1.588
 20 
1.481
 11 
1.588
 21 
1.468
 0 
LINE
 8 
0
 62 
 7 
 10 
1.588
 20 
1.468
 11 
1.582
 21 
1.462
 0 
LINE
 8 
0
 62 
 7 
 10 
1.582
 20 
1.462
 11 
1.569
 21 
1.462
 0 
LINE
 8 
0
 62 
 7 
 10 
1.569
 20 
1.462
 11 
1.563
 21 
1.468
 0 
LINE
 8 
0
 62 
 7 
 10 
1.601
 20 
1.5
 11 
1.601
 21 
1.481
 0 
LINE
 8 
0
 62 
 7 
 10 
1.601
 20 
1.481
 11 
1.614
 21 
1.468
 0 
LINE
 8 
0
 62 
 7 
 10 
1.614
 20 
1.468
 11 
1.626
 21 
1.481
 0 
LINE
 8 
0
 62 
 7 
 10 
1.626
 20 
1.481
 11 
1.626
 21 
1.5
 0 
LINE
 8 
0
 62 
 7 
 10 
1.614
 20 
1.468
 11 
1.614
 21 
1.462
 0 
LINE
 8 
0
 62 
 7 
 10 
1.8
 20 
2.306
 11 
1.806
 21 
2.3
 0 
LINE
 8 
0
 62 
 7 
 10 
1.806
 20 
2.3
 11 
1.819
 21 
2.3
 0 
LINE
 8 
0
 62 
 7 
 10 
1.819
 20 
2.3
 11 
1.825
 21 
2.306
 0 
LINE
 8 
0
 62 
 7 
 10 
1.825
 20 
2.306
 11 
1.825
 21 
2.332
 0 
LINE
 8 
0
 62 
 7 
 10 
1.825
 20 
2.332
 11 
1.819
 21 
2.338
 0 
LINE
 8 
0
 62 
 7 
 10 
1.819
 20 
2.338
 11 
1.8
 21 
2.338
 0 
LINE
 8 
0
 62 
 7 
 10 
1.8
 20 
2.338
 11 
1.8
 21 
2.325
 0 
LINE
 8 
0
 62 
 7 
 10 
1.8
 20 
2.325
 11 
1.806
 21 
2.325
 0 
LINE
 8 
0
 62 
 7 
 10 
1.787
 20 
2.338
 11 
1.787
 21 
2.3
 0 
LINE
 8 
0
 62 
 7 
 10 
1.787
 20 
2.3
 11 
1.762
 21 
2.325
 0 
LINE
 8 
0
 62 
 7 
 10 
1.762
 20 
2.3
 11 
1.762
 21 
2.338
 0 
LINE
 8 
0
 62 
 7 
 10 
1.749
 20 
2.3
 11 
1.73
 21 
2.3
 0 
LINE
 8 
0
 62 
 7 
 10 
1.73
 20 
2.3
 11 
1.724
 21 
2.306
 0 
LINE
 8 
0
 62 
 7 
 10 
1.724
 20 
2.306
 11 
1.724
 21 
2.332
 0 
LINE
 8 
0
 62 
 7 
 10 
1.724
 20 
2.332
 11 
1.73
 21 
2.338
 0 
LINE
 8 
0
 62 
 7 
 10 
1.73
 20 
2.338
 11 
1.749
 21 
2.338
 0 
LINE
 8 
0
 62 
 7 
 10 
1.743
 20 
2.3
 11 
1.743
 21 
2.338
 0 
CIRCLE
 8 
0
 62 
 7 
 10 
1.375
 20 
2.4
 40 
0.038
 0 
CIRCLE
 8 
0
 62 
 7 
 10 
1.375
 20 
2.4
 40 
0.02
 0 
CIRCLE
 8 
0
 62 
 7 
 10 
1.178
 20 
2.4
 40 
0.038
 0 
CIRCLE
 8 
0
 62 
 7 
 10 
1.178
 20 
2.4
 40 
0.02
 0 
CIRCLE
 8 
0
 62 
 7 
 10 
0.981
 20 
2.4
 40 
0.038
 0 
CIRCLE
 8 
0
 62 
 7 
 10 
0.981
 20 
2.4
 40 
0.02
 0 
CIRCLE
 8 
0
 62 
 7 
 10 
0.784
 20 
2.4
 40 
0.038
 0 
CIRCLE
 8 
0
 62 
 7 
 10 
0.784
 20 
2.4
 40 
0.02
 0 
CIRCLE
 8 
0
 62 
 7 
 10 
0.587
 20 
2.4
 40 
0.038
 0 
CIRCLE
 8 
0
 62 
 7 
 10 
0.587
 20 
2.4
 40 
0.02
 0 
CIRCLE
 8 
0
 62 
 7 
 10 
2.606
 20 
2.4
 40 
0.038
 0 
CIRCLE
 8 
0
 62 
 7 
 10 
2.606
 20 
2.4
 40 
0.02
 0 
CIRCLE
 8 
0
 62 
 7 
 10 
2.409
 20 
2.4
 40 
0.038
 0 
CIRCLE
 8 
0
 62 
 7 
 10 
2.409
 20 
2.4
 40 
0.02
 0 
CIRCLE
 8 
0
 62 
 7 
 10 
2.212
 20 
2.4
 40 
0.038
 0 
CIRCLE
 8 
0
 62 
 7 
 10 
2.212
 20 
2.4
 40 
0.02
 0 
LINE
 8 
0
 62 
 7 
 10 
1.978
 20 
2.438
 11 
2.053
 21 
2.438
 0 
LINE
 8 
0
 62 
 7 
 10 
2.053
 20 
2.438
 11 
2.053
 21 
2.363
 0 
LINE
 8 
0
 62 
 7 
 10 
2.053
 20 
2.363
 11 
1.978
 21 
2.363
 0 
LINE
 8 
0
 62 
 7 
 10 
1.978
 20 
2.363
 11 
1.978
 21 
2.438
 0 
CIRCLE
 8 
0
 62 
 7 
 10 
2.015
 20 
2.4
 40 
0.02
 0 
CIRCLE
 8 
0
 62 
 7 
 10 
0.15
 20 
1.45
 40 
0.125
 0 
CIRCLE
 8 
0
 62 
 7 
 10 
0.15
 20 
1.45
 40 
0.062
 0 
CIRCLE
 8 
0
 62 
 7 
 10 
3.0
 20 
1.4
 40 
0.038
 0 
CIRCLE
 8 
0
 62 
 7 
 10 
3.0
 20 
1.4
 40 
0.02
 0 
CIRCLE
 8 
0
 62 
 7 
 10 
2.803
 20 
1.4
 40 
0.038
 0 
CIRCLE
 8 
0
 62 
 7 
 10 
2.803
 20 
1.4
 40 
0.02
 0 
LINE
 8 
0
 62 
 7 
 10 
1.75
 20 
1.494
 11 
1.744
 21 
1.5
 0 
LINE
 8 
0
 62 
 7 
 10 
1.744
 20 
1.5
 11 
1.731
 21 
1.5
 0 
LINE
 8 
0
 62 
 7 
 10 
1.731
 20 
1.5
 11 
1.725
 21 
1.494
 0 
LINE
 8 
0
 62 
 7 
 10 
1.725
 20 
1.494
 11 
1.725
 21 
1.468
 0 
LINE
 8 
0
 62 
 7 
 10 
1.725
 20 
1.468
 11 
1.731
 21 
1.462
 0 
LINE
 8 
0
 62 
 7 
 10 
1.731
 20 
1.462
 11 
1.75
 21 
1.462
 0 
LINE
 8 
0
 62 
 7 
 10 
1.75
 20 
1.462
 11 
1.75
 21 
1.475
 0 
LINE
 8 
0
 62 
 7 
 10 
1.75
 20 
1.475
 11 
1.744
 21 
1.475
 0 
LINE
 8 
0
 62 
 7 
 10 
1.763
 20 
1.462
 11 
1.763
 21 
1.5
 0 
LINE
 8 
0
 62 
 7 
 10 
1.763
 20 
1.5
 11 
1.788
 21 
1.475
 0 
LINE
 8 
0
 62 
 7 
 10 
1.788
 20 
1.5
 11 
1.788
 21 
1.462
 0 
LINE
 8 
0
 62 
 7 
 10 
1.801
 20 
1.5
 11 
1.82
 21 
1.5
 0 
LINE
 8 
0
 62 
 7 
 10 
1.82
 20 
1.5
 11 
1.826
 21 
1.494
 0 
LINE
 8 
0
 62 
 7 
 10 
1.826
 20 
1.494
 11 
1.826
 21 
1.468
 0 
LINE
 8 
0
 62 
 7 
 10 
1.826
 20 
1.468
 11 
1.82
 21 
1.462
 0 
LINE
 8 
0
 62 
 7 
 10 
1.82
 20 
1.462
 11 
1.801
 21 
1.462
 0 
LINE
 8 
0
 62 
 7 
 10 
1.807
 20 
1.5
 11 
1.807
 21 
1.462
 0 
CIRCLE
 8 
0
 62 
 7 
 10 
1.375
 20 
1.4
 40 
0.038
 0 
CIRCLE
 8 
0
 62 
 7 
 10 
1.375
 20 
1.4
 40 
0.02
 0 
CIRCLE
 8 
0
 62 
 7 
 10 
1.178
 20 
1.4
 40 
0.038
 0 
CIRCLE
 8 
0
 62 
 7 
 10 
1.178
 20 
1.4
 40 
0.02
 0 
LINE
 8 
0
 62 
 7 
 10 
3.175
 20 
1.494
 11 
3.169
 21 
1.5
 0 
LINE
 8 
0
 62 
 7 
 10 
3.169
 20 
1.5
 11 
3.156
 21 
1.5
 0 
LINE
 8 
0
 62 
 7 
 10 
3.156
 20 
1.5
 11 
3.15
 21 
1.494
 0 
LINE
 8 
0
 62 
 7 
 10 
3.15
 20 
1.494
 11 
3.15
 21 
1.468
 0 
LINE
 8 
0
 62 
 7 
 10 
3.15
 20 
1.468
 11 
3.156
 21 
1.462
 0 
LINE
 8 
0
 62 
 7 
 10 
3.156
 20 
1.462
 11 
3.175
 21 
1.462
 0 
LINE
 8 
0
 62 
 7 
 10 
3.175
 20 
1.462
 11 
3.175
 21 
1.475
 0 
LINE
 8 
0
 62 
 7 
 10 
3.175
 20 
1.475
 11 
3.169
 21 
1.475
 0 
LINE
 8 
0
 62 
 7 
 10 
3.188
 20 
1.462
 11 
3.188
 21 
1.5
 0 
LINE
 8 
0
 62 
 7 
 10 
3.188
 20 
1.5
 11 
3.213
 21 
1.475
 0 
LINE
 8 
0
 62 
 7 
 10 
3.213
 20 
1.5
 11 
3.213
 21 
1.462
 0 
LINE
 8 
0
 62 
 7 
 10 
3.226
 20 
1.5
 11 
3.245
 21 
1.5
 0 
LINE
 8 
0
 62 
 7 
 10 
3.245
 20 
1.5
 11 
3.251
 21 
1.494
 0 
LINE
 8 
0
 62 
 7 
 10 
3.251
 20 
1.494
 11 
3.251
 21 
1.468
 0 
LINE
 8 
0
 62 
 7 
 10 
3.251
 20 
1.468
 11 
3.245
 21 
1.462
 0 
LINE
 8 
0
 62 
 7 
 10 
3.245
 20 
1.462
 11 
3.226
 21 
1.462
 0 
LINE
 8 
0
 62 
 7 
 10 
3.232
 20 
1.5
 11 
3.232
 21 
1.462
 0 
LINE
 8 
0
 62 
 7 
 10 
2.975
 20 
1.494
 11 
2.969
 21 
1.5
 0 
LINE
 8 
0
 62 
 7 
 10 
2.969
 20 
1.5
 11 
2.956
 21 
1.5
 0 
LINE
 8 
0
 62 
 7 
 10 
2.956
 20 
1.5
 11 
2.95
 21 
1.494
 0 
LINE
 8 
0
 62 
 7 
 10 
2.95
 20 
1.494
 11 
2.95
 21 
1.468
 0 
LINE
 8 
0
 62 
 7 
 10 
2.95
 20 
1.468
 11 
2.956
 21 
1.462
 0 
LINE
 8 
0
 62 
 7 
 10 
2.956
 20 
1.462
 11 
2.975
 21 
1.462
 0 
LINE
 8 
0
 62 
 7 
 10 
2.975
 20 
1.462
 11 
2.975
 21 
1.475
 0 
LINE
 8 
0
 62 
 7 
 10 
2.975
 20 
1.475
 11 
2.969
 21 
1.475
 0 
LINE
 8 
0
 62 
 7 
 10 
2.988
 20 
1.462
 11 
2.988
 21 
1.5
 0 
LINE
 8 
0
 62 
 7 
 10 
2.988
 20 
1.5
 11 
3.013
 21 
1.475
 0 
LINE
 8 
0
 62 
 7 
 10 
3.013
 20 
1.5
 11 
3.013
 21 
1.462
 0 
LINE
 8 
0
 62 
 7 
 10 
3.026
 20 
1.5
 11 
3.045
 21 
1.5
 0 
LINE
 8 
0
 62 
 7 
 10 
3.045
 20 
1.5
 11 
3.051
 21 
1.494
 0 
LINE
 8 
0
 62 
 7 
 10 
3.051
 20 
1.494
 11 
3.051
 21 
1.468
 0 
LINE
 8 
0
 62 
 7 
 10 
3.051
 20 
1.468
 11 
3.045
 21 
1.462
 0 
LINE
 8 
0
 62 
 7 
 10 
3.045
 20 
1.462
 11 
3.026
 21 
1.462
 0 
LINE
 8 
0
 62 
 7 
 10 
3.032
 20 
1.5
 11 
3.032
 21 
1.462
 0 
LINE
 8 
0
 62 
 7 
 10 
2.363
 20 
1.494
 11 
2.363
 21 
1.468
 0 
LINE
 8 
0
 62 
 7 
 10 
2.35
 20 
1.481
 11 
2.375
 21 
1.481
 0 
LINE
 8 
0
 62 
 7 
 10 
2.413
 20 
1.5
 11 
2.388
 21 
1.5
 0 
LINE
 8 
0
 62 
 7 
 10 
2.388
 20 
1.5
 11 
2.388
 21 
1.487
 0 
LINE
 8 
0
 62 
 7 
 10 
2.388
 20 
1.487
 11 
2.407
 21 
1.487
 0 
LINE
 8 
0
 62 
 7 
 10 
2.407
 20 
1.487
 11 
2.413
 21 
1.481
 0 
LINE
 8 
0
 62 
 7 
 10 
2.413
 20 
1.481
 11 
2.413
 21 
1.468
 0 
LINE
 8 
0
 62 
 7 
 10 
2.413
 20 
1.468
 11 
2.407
 21 
1.462
 0 
LINE
 8 
0
 62 
 7 
 10 
2.407
 20 
1.462
 11 
2.394
 21 
1.462
 0 
LINE
 8 
0
 62 
 7 
 10 
2.394
 20 
1.462
 11 
2.388
 21 
1.468
 0 
LINE
 8 
0
 62 
 7 
 10 
2.426
 20 
1.5
 11 
2.426
 21 
1.481
 0 
LINE
 8 
0
 62 
 7 
 10 
2.426
 20 
1.481
 11 
2.439
 21 
1.468
 0 
LINE
 8 
0
 62 
 7 
 10 
2.439
 20 
1.468
 11 
2.451
 21 
1.481
 0 
LINE
 8 
0
 62 
 7 
 10 
2.451
 20 
1.481
 11 
2.451
 21 
1.5
 0 
LINE
 8 
0
 62 
 7 
 10 
2.439
 20 
1.468
 11 
2.439
 21 
1.462
 0 
LINE
 8 
0
 62 
 7 
 10 
2.763
 20 
1.494
 11 
2.763
 21 
1.468
 0 
LINE
 8 
0
 62 
 7 
 10 
2.75
 20 
1.481
 11 
2.775
 21 
1.481
 0 
LINE
 8 
0
 62 
 7 
 10 
2.813
 20 
1.5
 11 
2.788
 21 
1.5
 0 
LINE
 8 
0
 62 
 7 
 10 
2.788
 20 
1.5
 11 
2.788
 21 
1.487
 0 
LINE
 8 
0
 62 
 7 
 10 
2.788
 20 
1.487
 11 
2.807
 21 
1.487
 0 
LINE
 8 
0
 62 
 7 
 10 
2.807
 20 
1.487
 11 
2.813
 21 
1.481
 0 
LINE
 8 
0
 62 
 7 
 10 
2.813
 20 
1.481
 11 
2.813
 21 
1.468
 0 
LINE
 8 
0
 62 
 7 
 10 
2.813
 20 
1.468
 11 
2.807
 21 
1.462
 0 
LINE
 8 
0
 62 
 7 
 10 
2.807
 20 
1.462
 11 
2.794
 21 
1.462
 0 
LINE
 8 
0
 62 
 7 
 10 
2.794
 20 
1.462
 11 
2.788
 21 
1.468
 0 
LINE
 8 
0
 62 
 7 
 10 
2.826
 20 
1.5
 11 
2.826
 21 
1.481
 0 
LINE
 8 
0
 62 
 7 
 10 
2.826
 20 
1.481
 11 
2.839
 21 
1.468
 0 
LINE
 8 
0
 62 
 7 
 10 
2.839
 20 
1.468
 11 
2.851
 21 
1.481
 0 
LINE
 8 
0
 62 
 7 
 10 
2.851
 20 
1.481
 11 
2.851
 21 
1.5
 0 
LINE
 8 
0
 62 
 7 
 10 
2.839
 20 
1.468
 11 
2.839
 21 
1.462
 0 
LINE
 8 
0
 62 
 7 
 10 
0.352
 20 
2.438
 11 
0.427
 21 
2.438
 0 
LINE
 8 
0
 62 
 7 
 10 
0.427
 20 
2.438
 11 
0.427
 21 
2.363
 0 
LINE
 8 
0
 62 
 7 
 10 
0.427
 20 
2.363
 11 
0.352
 21 
2.363
 0 
LINE
 8 
0
 62 
 7 
 10 
0.352
 20 
2.363
 11 
0.352
 21 
2.438
 0 
CIRCLE
 8 
0
 62 
 7 
 10 
0.39
 20 
2.4
 40 
0.02
 0 
CIRCLE
 8 
0
 62 
 7 
 10 
1.571
 20 
2.4
 40 
0.038
 0 
CIRCLE
 8 
0
 62 
 7 
 10 
1.571
 20 
2.4
 40 
0.02
 0 
CIRCLE
 8 
0
 62 
 7 
 10 
1.768
 20 
2.4
 40 
0.038
 0 
CIRCLE
 8 
0
 62 
 7 
 10 
1.768
 20 
2.4
 40 
0.02
 0 
LINE
 8 
0
 62 
 7 
 10 
0.292
 20 
2.34
 11 
1.867
 21 
2.34
 0 
LINE
 8 
0
 62 
 7 
 10 
1.867
 20 
2.458
 11 
0.292
 21 
2.458
 0 
LINE
 8 
0
 62 
 7 
 10 
0.292
 20 
2.34
 11 
0.292
 21 
2.458
 0 
LINE
 8 
0
 62 
 7 
 10 
0.085
 20 
1.689
 11 
0.079
 21 
1.695
 0 
LINE
 8 
0
 62 
 7 
 10 
0.079
 20 
1.695
 11 
0.066
 21 
1.695
 0 
LINE
 8 
0
 62 
 7 
 10 
0.066
 20 
1.695
 11 
0.06
 21 
1.689
 0 
LINE
 8 
0
 62 
 7 
 10 
0.06
 20 
1.689
 11 
0.06
 21 
1.663
 0 
LINE
 8 
0
 62 
 7 
 10 
0.06
 20 
1.663
 11 
0.066
 21 
1.657
 0 
LINE
 8 
0
 62 
 7 
 10 
0.066
 20 
1.657
 11 
0.085
 21 
1.657
 0 
LINE
 8 
0
 62 
 7 
 10 
0.085
 20 
1.657
 11 
0.085
 21 
1.67
 0 
LINE
 8 
0
 62 
 7 
 10 
0.085
 20 
1.67
 11 
0.079
 21 
1.67
 0 
LINE
 8 
0
 62 
 7 
 10 
0.098
 20 
1.657
 11 
0.098
 21 
1.695
 0 
LINE
 8 
0
 62 
 7 
 10 
0.098
 20 
1.695
 11 
0.123
 21 
1.67
 0 
LINE
 8 
0
 62 
 7 
 10 
0.123
 20 
1.695
 11 
0.123
 21 
1.657
 0 
LINE
 8 
0
 62 
 7 
 10 
0.136
 20 
1.695
 11 
0.155
 21 
1.695
 0 
LINE
 8 
0
 62 
 7 
 10 
0.155
 20 
1.695
 11 
0.161
 21 
1.689
 0 
LINE
 8 
0
 62 
 7 
 10 
0.161
 20 
1.689
 11 
0.161
 21 
1.663
 0 
LINE
 8 
0
 62 
 7 
 10 
0.161
 20 
1.663
 11 
0.155
 21 
1.657
 0 
LINE
 8 
0
 62 
 7 
 10 
0.155
 20 
1.657
 11 
0.136
 21 
1.657
 0 
LINE
 8 
0
 62 
 7 
 10 
0.142
 20 
1.695
 11 
0.142
 21 
1.657
 0 
LINE
 8 
0
 62 
 7 
 10 
0.085
 20 
1.789
 11 
0.079
 21 
1.795
 0 
LINE
 8 
0
 62 
 7 
 10 
0.079
 20 
1.795
 11 
0.066
 21 
1.795
 0 
LINE
 8 
0
 62 
 7 
 10 
0.066
 20 
1.795
 11 
0.06
 21 
1.789
 0 
LINE
 8 
0
 62 
 7 
 10 
0.06
 20 
1.789
 11 
0.06
 21 
1.763
 0 
LINE
 8 
0
 62 
 7 
 10 
0.06
 20 
1.763
 11 
0.066
 21 
1.757
 0 
LINE
 8 
0
 62 
 7 
 10 
0.066
 20 
1.757
 11 
0.079
 21 
1.757
 0 
LINE
 8 
0
 62 
 7 
 10 
0.079
 20 
1.757
 11 
0.085
 21 
1.763
 0 
LINE
 8 
0
 62 
 7 
 10 
0.098
 20 
1.795
 11 
0.123
 21 
1.795
 0 
LINE
 8 
0
 62 
 7 
 10 
0.111
 20 
1.795
 11 
0.111
 21 
1.757
 0 
LINE
 8 
0
 62 
 7 
 10 
0.161
 20 
1.789
 11 
0.155
 21 
1.795
 0 
LINE
 8 
0
 62 
 7 
 10 
0.155
 20 
1.795
 11 
0.142
 21 
1.795
 0 
LINE
 8 
0
 62 
 7 
 10 
0.142
 20 
1.795
 11 
0.136
 21 
1.789
 0 
LINE
 8 
0
 62 
 7 
 10 
0.136
 20 
1.789
 11 
0.136
 21 
1.782
 0 
LINE
 8 
0
 62 
 7 
 10 
0.136
 20 
1.782
 11 
0.142
 21 
1.776
 0 
LINE
 8 
0
 62 
 7 
 10 
0.142
 20 
1.776
 11 
0.155
 21 
1.776
 0 
LINE
 8 
0
 62 
 7 
 10 
0.155
 20 
1.776
 11 
0.161
 21 
1.77
 0 
LINE
 8 
0
 62 
 7 
 10 
0.161
 20 
1.77
 11 
0.161
 21 
1.763
 0 
LINE
 8 
0
 62 
 7 
 10 
0.161
 20 
1.763
 11 
0.155
 21 
1.757
 0 
LINE
 8 
0
 62 
 7 
 10 
0.155
 20 
1.757
 11 
0.142
 21 
1.757
 0 
LINE
 8 
0
 62 
 7 
 10 
0.142
 20 
1.757
 11 
0.136
 21 
1.763
 0 
LINE
 8 
0
 62 
 7 
 10 
0.06
 20 
1.895
 11 
0.06
 21 
1.876
 0 
LINE
 8 
0
 62 
 7 
 10 
0.06
 20 
1.876
 11 
0.073
 21 
1.863
 0 
LINE
 8 
0
 62 
 7 
 10 
0.073
 20 
1.863
 11 
0.085
 21 
1.876
 0 
LINE
 8 
0
 62 
 7 
 10 
0.085
 20 
1.876
 11 
0.085
 21 
1.895
 0 
LINE
 8 
0
 62 
 7 
 10 
0.073
 20 
1.863
 11 
0.073
 21 
1.857
 0 
LINE
 8 
0
 62 
 7 
 10 
0.123
 20 
1.889
 11 
0.117
 21 
1.895
 0 
LINE
 8 
0
 62 
 7 
 10 
0.117
 20 
1.895
 11 
0.104
 21 
1.895
 0 
LINE
 8 
0
 62 
 7 
 10 
0.104
 20 
1.895
 11 
0.098
 21 
1.889
 0 
LINE
 8 
0
 62 
 7 
 10 
0.098
 20 
1.889
 11 
0.098
 21 
1.863
 0 
LINE
 8 
0
 62 
 7 
 10 
0.098
 20 
1.863
 11 
0.104
 21 
1.857
 0 
LINE
 8 
0
 62 
 7 
 10 
0.104
 20 
1.857
 11 
0.117
 21 
1.857
 0 
LINE
 8 
0
 62 
 7 
 10 
0.117
 20 
1.857
 11 
0.123
 21 
1.863
 0 
LINE
 8 
0
 62 
 7 
 10 
0.161
 20 
1.889
 11 
0.155
 21 
1.895
 0 
LINE
 8 
0
 62 
 7 
 10 
0.155
 20 
1.895
 11 
0.142
 21 
1.895
 0 
LINE
 8 
0
 62 
 7 
 10 
0.142
 20 
1.895
 11 
0.136
 21 
1.889
 0 
LINE
 8 
0
 62 
 7 
 10 
0.136
 20 
1.889
 11 
0.136
 21 
1.863
 0 
LINE
 8 
0
 62 
 7 
 10 
0.136
 20 
1.863
 11 
0.142
 21 
1.857
 0 
LINE
 8 
0
 62 
 7 
 10 
0.142
 20 
1.857
 11 
0.155
 21 
1.857
 0 
LINE
 8 
0
 62 
 7 
 10 
0.155
 20 
1.857
 11 
0.161
 21 
1.863
 0 
LINE
 8 
0
 62 
 7 
 10 
0.06
 20 
1.995
 11 
0.085
 21 
1.995
 0 
LINE
 8 
0
 62 
 7 
 10 
0.073
 20 
1.995
 11 
0.073
 21 
1.957
 0 
LINE
 8 
0
 62 
 7 
 10 
0.098
 20 
1.995
 11 
0.098
 21 
1.989
 0 
LINE
 8 
0
 62 
 7 
 10 
0.098
 20 
1.989
 11 
0.123
 21 
1.963
 0 
LINE
 8 
0
 62 
 7 
 10 
0.123
 20 
1.963
 11 
0.123
 21 
1.957
 0 
LINE
 8 
0
 62 
 7 
 10 
0.123
 20 
1.995
 11 
0.123
 21 
1.989
 0 
LINE
 8 
0
 62 
 7 
 10 
0.123
 20 
1.989
 11 
0.098
 21 
1.963
 0 
LINE
 8 
0
 62 
 7 
 10 
0.098
 20 
1.963
 11 
0.098
 21 
1.957
 0 
LINE
 8 
0
 62 
 7 
 10 
0.161
 20 
1.989
 11 
0.155
 21 
1.995
 0 
LINE
 8 
0
 62 
 7 
 10 
0.155
 20 
1.995
 11 
0.142
 21 
1.995
 0 
LINE
 8 
0
 62 
 7 
 10 
0.142
 20 
1.995
 11 
0.136
 21 
1.989
 0 
LINE
 8 
0
 62 
 7 
 10 
0.136
 20 
1.989
 11 
0.136
 21 
1.963
 0 
LINE
 8 
0
 62 
 7 
 10 
0.136
 20 
1.963
 11 
0.142
 21 
1.957
 0 
LINE
 8 
0
 62 
 7 
 10 
0.142
 20 
1.957
 11 
0.155
 21 
1.957
 0 
LINE
 8 
0
 62 
 7 
 10 
0.155
 20 
1.957
 11 
0.161
 21 
1.963
 0 
LINE
 8 
0
 62 
 7 
 10 
0.161
 20 
1.963
 11 
0.161
 21 
1.989
 0 
LINE
 8 
0
 62 
 7 
 10 
0.06
 20 
2.057
 11 
0.06
 21 
2.095
 0 
LINE
 8 
0
 62 
 7 
 10 
0.06
 20 
2.095
 11 
0.079
 21 
2.095
 0 
LINE
 8 
0
 62 
 7 
 10 
0.079
 20 
2.095
 11 
0.085
 21 
2.089
 0 
LINE
 8 
0
 62 
 7 
 10 
0.085
 20 
2.089
 11 
0.085
 21 
2.082
 0 
LINE
 8 
0
 62 
 7 
 10 
0.085
 20 
2.082
 11 
0.079
 21 
2.076
 0 
LINE
 8 
0
 62 
 7 
 10 
0.079
 20 
2.076
 11 
0.06
 21 
2.076
 0 
LINE
 8 
0
 62 
 7 
 10 
0.066
 20 
2.076
 11 
0.085
 21 
2.057
 0 
LINE
 8 
0
 62 
 7 
 10 
0.098
 20 
2.095
 11 
0.098
 21 
2.089
 0 
LINE
 8 
0
 62 
 7 
 10 
0.098
 20 
2.089
 11 
0.123
 21 
2.063
 0 
LINE
 8 
0
 62 
 7 
 10 
0.123
 20 
2.063
 11 
0.123
 21 
2.057
 0 
LINE
 8 
0
 62 
 7 
 10 
0.123
 20 
2.095
 11 
0.123
 21 
2.089
 0 
LINE
 8 
0
 62 
 7 
 10 
0.123
 20 
2.089
 11 
0.098
 21 
2.063
 0 
LINE
 8 
0
 62 
 7 
 10 
0.098
 20 
2.063
 11 
0.098
 21 
2.057
 0 
LINE
 8 
0
 62 
 7 
 10 
0.142
 20 
2.095
 11 
0.155
 21 
2.095
 0 
LINE
 8 
0
 62 
 7 
 10 
0.142
 20 
2.057
 11 
0.155
 21 
2.057
 0 
LINE
 8 
0
 62 
 7 
 10 
0.149
 20 
2.095
 11 
0.149
 21 
2.057
 0 
LINE
 8 
0
 62 
 7 
 10 
0.06
 20 
2.195
 11 
0.079
 21 
2.195
 0 
LINE
 8 
0
 62 
 7 
 10 
0.079
 20 
2.195
 11 
0.085
 21 
2.189
 0 
LINE
 8 
0
 62 
 7 
 10 
0.085
 20 
2.189
 11 
0.085
 21 
2.163
 0 
LINE
 8 
0
 62 
 7 
 10 
0.085
 20 
2.163
 11 
0.079
 21 
2.157
 0 
LINE
 8 
0
 62 
 7 
 10 
0.079
 20 
2.157
 11 
0.06
 21 
2.157
 0 
LINE
 8 
0
 62 
 7 
 10 
0.066
 20 
2.195
 11 
0.066
 21 
2.157
 0 
LINE
 8 
0
 62 
 7 
 10 
0.098
 20 
2.195
 11 
0.123
 21 
2.195
 0 
LINE
 8 
0
 62 
 7 
 10 
0.111
 20 
2.195
 11 
0.111
 21 
2.157
 0 
LINE
 8 
0
 62 
 7 
 10 
0.136
 20 
2.157
 11 
0.136
 21 
2.195
 0 
LINE
 8 
0
 62 
 7 
 10 
0.136
 20 
2.195
 11 
0.155
 21 
2.195
 0 
LINE
 8 
0
 62 
 7 
 10 
0.155
 20 
2.195
 11 
0.161
 21 
2.189
 0 
LINE
 8 
0
 62 
 7 
 10 
0.161
 20 
2.189
 11 
0.161
 21 
2.182
 0 
LINE
 8 
0
 62 
 7 
 10 
0.161
 20 
2.182
 11 
0.155
 21 
2.176
 0 
LINE
 8 
0
 62 
 7 
 10 
0.155
 20 
2.176
 11 
0.136
 21 
2.176
 0 
LINE
 8 
0
 62 
 7 
 10 
0.142
 20 
2.176
 11 
0.161
 21 
2.157
 0 
LINE
 8 
0
 62 
 7 
 10 
1.4
 20 
2.332
 11 
1.4
 21 
2.306
 0 
LINE
 8 
0
 62 
 7 
 10 
1.4
 20 
2.306
 11 
1.394
 21 
2.3
 0 
LINE
 8 
0
 62 
 7 
 10 
1.394
 20 
2.3
 11 
1.381
 21 
2.3
 0 
LINE
 8 
0
 62 
 7 
 10 
1.381
 20 
2.3
 11 
1.375
 21 
2.306
 0 
LINE
 8 
0
 62 
 7 
 10 
1.375
 20 
2.306
 11 
1.375
 21 
2.332
 0 
LINE
 8 
0
 62 
 7 
 10 
1.375
 20 
2.332
 11 
1.381
 21 
2.338
 0 
LINE
 8 
0
 62 
 7 
 10 
1.381
 20 
2.338
 11 
1.394
 21 
2.338
 0 
LINE
 8 
0
 62 
 7 
 10 
1.394
 20 
2.338
 11 
1.4
 21 
2.332
 0 
LINE
 8 
0
 62 
 7 
 10 
1.4
 20 
2.332
 11 
1.375
 21 
2.306
 0 
LINE
 8 
0
 62 
 7 
 10 
1.194
 20 
2.306
 11 
1.187
 21 
2.3
 0 
LINE
 8 
0
 62 
 7 
 10 
1.187
 20 
2.3
 11 
1.187
 21 
2.338
 0 
LINE
 8 
0
 62 
 7 
 10 
1.194
 20 
2.338
 11 
1.181
 21 
2.338
 0 
LINE
 8 
0
 62 
 7 
 10 
1.0
 20 
2.306
 11 
0.994
 21 
2.3
 0 
LINE
 8 
0
 62 
 7 
 10 
0.994
 20 
2.3
 11 
0.981
 21 
2.3
 0 
LINE
 8 
0
 62 
 7 
 10 
0.981
 20 
2.3
 11 
0.975
 21 
2.306
 0 
LINE
 8 
0
 62 
 7 
 10 
0.975
 20 
2.306
 11 
0.975
 21 
2.313
 0 
LINE
 8 
0
 62 
 7 
 10 
0.975
 20 
2.313
 11 
0.981
 21 
2.319
 0 
LINE
 8 
0
 62 
 7 
 10 
0.981
 20 
2.319
 11 
0.994
 21 
2.319
 0 
LINE
 8 
0
 62 
 7 
 10 
0.994
 20 
2.319
 11 
1.0
 21 
2.325
 0 
LINE
 8 
0
 62 
 7 
 10 
1.0
 20 
2.325
 11 
1.0
 21 
2.338
 0 
LINE
 8 
0
 62 
 7 
 10 
1.0
 20 
2.338
 11 
0.975
 21 
2.338
 0 
LINE
 8 
0
 62 
 7 
 10 
0.8
 20 
2.306
 11 
0.794
 21 
2.3
 0 
LINE
 8 
0
 62 
 7 
 10 
0.794
 20 
2.3
 11 
0.781
 21 
2.3
 0 
LINE
 8 
0
 62 
 7 
 10 
0.781
 20 
2.3
 11 
0.775
 21 
2.306
 0 
LINE
 8 
0
 62 
 7 
 10 
0.775
 20 
2.306
 11 
0.775
 21 
2.313
 0 
LINE
 8 
0
 62 
 7 
 10 
0.775
 20 
2.313
 11 
0.781
 21 
2.319
 0 
LINE
 8 
0
 62 
 7 
 10 
0.781
 20 
2.319
 11 
0.787
 21 
2.319
 0 
LINE
 8 
0
 62 
 7 
 10 
0.781
 20 
2.319
 11 
0.775
 21 
2.325
 0 
LINE
 8 
0
 62 
 7 
 10 
0.775
 20 
2.325
 11 
0.775
 21 
2.332
 0 
LINE
 8 
0
 62 
 7 
 10 
0.775
 20 
2.332
 11 
0.781
 21 
2.338
 0 
LINE
 8 
0
 62 
 7 
 10 
0.781
 20 
2.338
 11 
0.794
 21 
2.338
 0 
LINE
 8 
0
 62 
 7 
 10 
0.794
 20 
2.338
 11 
0.8
 21 
2.332
 0 
CIRCLE
 8 
0
 62 
 7 
 10 
2.25
 20 
1.9
 40 
0.038
 0 
CIRCLE
 8 
0
 62 
 7 
 10 
2.25
 20 
1.9
 40 
0.02
 0 
CIRCLE
 8 
0
 62 
 7 
 10 
2.15
 20 
1.9
 40 
0.038
 0 
CIRCLE
 8 
0
 62 
 7 
 10 
2.15
 20 
1.9
 40 
0.02
 0 
CIRCLE
 8 
0
 62 
 7 
 10 
2.25
 20 
2.0
 40 
0.038
 0 
CIRCLE
 8 
0
 62 
 7 
 10 
2.25
 20 
2.0
 40 
0.02
 0 
LINE
 8 
0
 62 
 7 
 10 
2.112
 20 
2.038
 11 
2.187
 21 
2.038
 0 
LINE
 8 
0
 62 
 7 
 10 
2.187
 20 
2.038
 11 
2.187
 21 
1.963
 0 
LINE
 8 
0
 62 
 7 
 10 
2.187
 20 
1.963
 11 
2.112
 21 
1.963
 0 
LINE
 8 
0
 62 
 7 
 10 
2.112
 20 
1.963
 11 
2.112
 21 
2.038
 0 
CIRCLE
 8 
0
 62 
 7 
 10 
2.15
 20 
2.0
 40 
0.02
 0 
LINE
 8 
0
 62 
 7 
 10 
2.1
 20 
2.05
 11 
2.1
 21 
1.75
 0 
LINE
 8 
0
 62 
 7 
 10 
2.3
 20 
1.75
 11 
2.3
 21 
2.05
 0 
LINE
 8 
0
 62 
 7 
 10 
2.1
 20 
2.05
 11 
2.3
 21 
2.05
 0 
LINE
 8 
0
 62 
 7 
 10 
2.1
 20 
1.75
 11 
2.3
 21 
1.75
 0 
CIRCLE
 8 
0
 62 
 7 
 10 
2.15
 20 
1.8
 40 
0.038
 0 
CIRCLE
 8 
0
 62 
 7 
 10 
2.15
 20 
1.8
 40 
0.02
 0 
CIRCLE
 8 
0
 62 
 7 
 10 
2.25
 20 
1.8
 40 
0.038
 0 
CIRCLE
 8 
0
 62 
 7 
 10 
2.25
 20 
1.8
 40 
0.02
 0 
LINE
 8 
0
 62 
 7 
 10 
3.287
 20 
2.306
 11 
3.287
 21 
2.332
 0 
LINE
 8 
0
 62 
 7 
 10 
3.3
 20 
2.319
 11 
3.275
 21 
2.319
 0 
LINE
 8 
0
 62 
 7 
 10 
3.237
 20 
2.3
 11 
3.262
 21 
2.3
 0 
LINE
 8 
0
 62 
 7 
 10 
3.262
 20 
2.3
 11 
3.262
 21 
2.313
 0 
LINE
 8 
0
 62 
 7 
 10 
3.262
 20 
2.313
 11 
3.243
 21 
2.313
 0 
LINE
 8 
0
 62 
 7 
 10 
3.243
 20 
2.313
 11 
3.237
 21 
2.319
 0 
LINE
 8 
0
 62 
 7 
 10 
3.237
 20 
2.319
 11 
3.237
 21 
2.332
 0 
LINE
 8 
0
 62 
 7 
 10 
3.237
 20 
2.332
 11 
3.243
 21 
2.338
 0 
LINE
 8 
0
 62 
 7 
 10 
3.243
 20 
2.338
 11 
3.256
 21 
2.338
 0 
LINE
 8 
0
 62 
 7 
 10 
3.256
 20 
2.338
 11 
3.262
 21 
2.332
 0 
LINE
 8 
0
 62 
 7 
 10 
3.224
 20 
2.3
 11 
3.224
 21 
2.319
 0 
LINE
 8 
0
 62 
 7 
 10 
3.224
 20 
2.319
 11 
3.211
 21 
2.332
 0 
LINE
 8 
0
 62 
 7 
 10 
3.211
 20 
2.332
 11 
3.199
 21 
2.319
 0 
LINE
 8 
0
 62 
 7 
 10 
3.199
 20 
2.319
 11 
3.199
 21 
2.3
 0 
LINE
 8 
0
 62 
 7 
 10 
3.211
 20 
2.332
 11 
3.211
 21 
2.338
 0 
CIRCLE
 8 
0
 62 
 7 
 10 
0.375
 20 
1.625
 40 
0.028
 0 
CIRCLE
 8 
0
 62 
 7 
 10 
0.375
 20 
1.625
 40 
0.014
 0 
CIRCLE
 8 
0
 62 
 7 
 10 
0.725
 20 
1.625
 40 
0.028
 0 
CIRCLE
 8 
0
 62 
 7 
 10 
0.725
 20 
1.625
 40 
0.014
 0 
LINE
 8 
0
 62 
 7 
 10 
0.44
 20 
1.575
 11 
0.44
 21 
1.675
 0 
LINE
 8 
0
 62 
 7 
 10 
0.66
 20 
1.675
 11 
0.44
 21 
1.675
 0 
LINE
 8 
0
 62 
 7 
 10 
0.66
 20 
1.675
 11 
0.66
 21 
1.575
 0 
LINE
 8 
0
 62 
 7 
 10 
0.44
 20 
1.575
 11 
0.66
 21 
1.575
 0 
LINE
 8 
0
 62 
 7 
 10 
0.44
 20 
1.625
 11 
0.425
 21 
1.625
 0 
LINE
 8 
0
 62 
 7 
 10 
0.66
 20 
1.625
 11 
0.675
 21 
1.625
 0 
LINE
 8 
0
 62 
 7 
 10 
0.5
 20 
1.675
 11 
0.5
 21 
1.725
 0 
LINE
 8 
0
 62 
 7 
 10 
0.5
 20 
1.725
 11 
0.525
 21 
1.725
 0 
LINE
 8 
0
 62 
 7 
 10 
0.525
 20 
1.725
 11 
0.533
 21 
1.717
 0 
LINE
 8 
0
 62 
 7 
 10 
0.533
 20 
1.717
 11 
0.533
 21 
1.708
 0 
LINE
 8 
0
 62 
 7 
 10 
0.533
 20 
1.708
 11 
0.525
 21 
1.7
 0 
LINE
 8 
0
 62 
 7 
 10 
0.525
 20 
1.7
 11 
0.5
 21 
1.7
 0 
LINE
 8 
0
 62 
 7 
 10 
0.508
 20 
1.7
 11 
0.533
 21 
1.675
 0 
LINE
 8 
0
 62 
 7 
 10 
0.558
 20 
1.717
 11 
0.567
 21 
1.725
 0 
LINE
 8 
0
 62 
 7 
 10 
0.567
 20 
1.725
 11 
0.567
 21 
1.675
 0 
LINE
 8 
0
 62 
 7 
 10 
0.558
 20 
1.675
 11 
0.575
 21 
1.675
 0 
CIRCLE
 8 
0
 62 
 7 
 10 
0.5
 20 
1.95
 40 
0.028
 0 
CIRCLE
 8 
0
 62 
 7 
 10 
0.5
 20 
1.95
 40 
0.014
 0 
CIRCLE
 8 
0
 62 
 7 
 10 
0.5
 20 
1.85
 40 
0.028
 0 
CIRCLE
 8 
0
 62 
 7 
 10 
0.5
 20 
1.85
 40 
0.014
 0 
LINE
 8 
0
 62 
 7 
 10 
0.47
 20 
2.0
 11 
0.53
 21 
2.0
 0 
LINE
 8 
0
 62 
 7 
 10 
0.53
 20 
2.0
 11 
0.55
 21 
1.98
 0 
LINE
 8 
0
 62 
 7 
 10 
0.55
 20 
1.98
 11 
0.55
 21 
1.82
 0 
LINE
 8 
0
 62 
 7 
 10 
0.55
 20 
1.82
 11 
0.53
 21 
1.8
 0 
LINE
 8 
0
 62 
 7 
 10 
0.53
 20 
1.8
 11 
0.47
 21 
1.8
 0 
LINE
 8 
0
 62 
 7 
 10 
0.47
 20 
1.8
 11 
0.45
 21 
1.82
 0 
LINE
 8 
0
 62 
 7 
 10 
0.45
 20 
1.82
 11 
0.45
 21 
1.98
 0 
LINE
 8 
0
 62 
 7 
 10 
0.8
 20 
1.475
 11 
0.775
 21 
1.475
 0 
LINE
 8 
0
 62 
 7 
 10 
0.775
 20 
1.475
 11 
0.775
 21 
1.481
 0 
LINE
 8 
0
 62 
 7 
 10 
0.775
 20 
1.481
 11 
0.794
 21 
1.5
 0 
LINE
 8 
0
 62 
 7 
 10 
0.794
 20 
1.5
 11 
0.794
 21 
1.462
 0 
LINE
 8 
0
 62 
 7 
 10 
3.172
 20 
1.728
 11 
3.228
 21 
1.728
 0 
LINE
 8 
0
 62 
 7 
 10 
3.228
 20 
1.728
 11 
3.228
 21 
1.672
 0 
LINE
 8 
0
 62 
 7 
 10 
3.228
 20 
1.672
 11 
3.172
 21 
1.672
 0 
LINE
 8 
0
 62 
 7 
 10 
3.172
 20 
1.672
 11 
3.172
 21 
1.728
 0 
CIRCLE
 8 
0
 62 
 7 
 10 
3.2
 20 
1.7
 40 
0.014
 0 
CIRCLE
 8 
0
 62 
 7 
 10 
3.2
 20 
1.6
 40 
0.028
 0 
CIRCLE
 8 
0
 62 
 7 
 10 
3.2
 20 
1.6
 40 
0.014
 0 
CIRCLE
 8 
0
 62 
 7 
 10 
3.2
 20 
1.65
 40 
0.125
 0 
LINE
 8 
0
 62 
 7 
 10 
3.07
 20 
1.762
 11 
3.106
 21 
1.762
 0 
LINE
 8 
0
 62 
 7 
 10 
3.088
 20 
1.78
 11 
3.088
 21 
1.744
 0 
LINE
 8 
0
 62 
 7 
 10 
3.358
 20 
1.592
 11 
3.35
 21 
1.6
 0 
LINE
 8 
0
 62 
 7 
 10 
3.35
 20 
1.6
 11 
3.333
 21 
1.6
 0 
LINE
 8 
0
 62 
 7 
 10 
3.333
 20 
1.6
 11 
3.325
 21 
1.592
 0 
LINE
 8 
0
 62 
 7 
 10 
3.325
 20 
1.592
 11 
3.325
 21 
1.558
 0 
LINE
 8 
0
 62 
 7 
 10 
3.325
 20 
1.558
 11 
3.333
 21 
1.55
 0 
LINE
 8 
0
 62 
 7 
 10 
3.333
 20 
1.55
 11 
3.35
 21 
1.55
 0 
LINE
 8 
0
 62 
 7 
 10 
3.35
 20 
1.55
 11 
3.358
 21 
1.558
 0 
LINE
 8 
0
 62 
 7 
 10 
3.375
 20 
1.592
 11 
3.383
 21 
1.6
 0 
LINE
 8 
0
 62 
 7 
 10 
3.383
 20 
1.6
 11 
3.4
 21 
1.6
 0 
LINE
 8 
0
 62 
 7 
 10 
3.4
 20 
1.6
 11 
3.408
 21 
1.592
 0 
LINE
 8 
0
 62 
 7 
 10 
3.408
 20 
1.592
 11 
3.408
 21 
1.583
 0 
LINE
 8 
0
 62 
 7 
 10 
3.408
 20 
1.583
 11 
3.4
 21 
1.575
 0 
LINE
 8 
0
 62 
 7 
 10 
3.4
 20 
1.575
 11 
3.392
 21 
1.575
 0 
LINE
 8 
0
 62 
 7 
 10 
3.4
 20 
1.575
 11 
3.408
 21 
1.567
 0 
LINE
 8 
0
 62 
 7 
 10 
3.408
 20 
1.567
 11 
3.408
 21 
1.558
 0 
LINE
 8 
0
 62 
 7 
 10 
3.408
 20 
1.558
 11 
3.4
 21 
1.55
 0 
LINE
 8 
0
 62 
 7 
 10 
3.4
 20 
1.55
 11 
3.383
 21 
1.55
 0 
LINE
 8 
0
 62 
 7 
 10 
3.383
 20 
1.55
 11 
3.375
 21 
1.558
 0 
CIRCLE
 8 
0
 62 
 7 
 10 
3.1
 20 
1.9
 40 
0.028
 0 
CIRCLE
 8 
0
 62 
 7 
 10 
3.1
 20 
1.9
 40 
0.014
 0 
CIRCLE
 8 
0
 62 
 7 
 10 
3.1
 20 
1.95
 40 
0.125
 0 
CIRCLE
 8 
0
 62 
 7 
 10 
3.028
 20 
2.165
 40 
0.028
 0 
CIRCLE
 8 
0
 62 
 7 
 10 
3.028
 20 
2.165
 40 
0.014
 0 
LINE
 8 
0
 62 
 7 
 10 
2.743
 20 
2.215
 11 
2.743
 21 
2.115
 0 
LINE
 8 
0
 62 
 7 
 10 
2.963
 20 
2.115
 11 
2.743
 21 
2.115
 0 
LINE
 8 
0
 62 
 7 
 10 
2.963
 20 
2.115
 11 
2.963
 21 
2.215
 0 
LINE
 8 
0
 62 
 7 
 10 
2.743
 20 
2.215
 11 
2.963
 21 
2.215
 0 
LINE
 8 
0
 62 
 7 
 10 
2.743
 20 
2.165
 11 
2.728
 21 
2.165
 0 
LINE
 8 
0
 62 
 7 
 10 
2.963
 20 
2.165
 11 
2.978
 21 
2.165
 0 
LINE
 8 
0
 62 
 7 
 10 
2.835
 20 
2.056
 11 
2.835
 21 
2.106
 0 
LINE
 8 
0
 62 
 7 
 10 
2.835
 20 
2.106
 11 
2.86
 21 
2.106
 0 
LINE
 8 
0
 62 
 7 
 10 
2.86
 20 
2.106
 11 
2.868
 21 
2.098
 0 
LINE
 8 
0
 62 
 7 
 10 
2.868
 20 
2.098
 11 
2.868
 21 
2.089
 0 
LINE
 8 
0
 62 
 7 
 10 
2.868
 20 
2.089
 11 
2.86
 21 
2.081
 0 
LINE
 8 
0
 62 
 7 
 10 
2.86
 20 
2.081
 11 
2.835
 21 
2.081
 0 
LINE
 8 
0
 62 
 7 
 10 
2.843
 20 
2.081
 11 
2.868
 21 
2.056
 0 
LINE
 8 
0
 62 
 7 
 10 
2.885
 20 
2.098
 11 
2.893
 21 
2.106
 0 
LINE
 8 
0
 62 
 7 
 10 
2.893
 20 
2.106
 11 
2.91
 21 
2.106
 0 
LINE
 8 
0
 62 
 7 
 10 
2.91
 20 
2.106
 11 
2.918
 21 
2.098
 0 
LINE
 8 
0
 62 
 7 
 10 
2.918
 20 
2.098
 11 
2.918
 21 
2.089
 0 
LINE
 8 
0
 62 
 7 
 10 
2.918
 20 
2.089
 11 
2.91
 21 
2.081
 0 
LINE
 8 
0
 62 
 7 
 10 
2.91
 20 
2.081
 11 
2.893
 21 
2.081
 0 
LINE
 8 
0
 62 
 7 
 10 
2.893
 20 
2.081
 11 
2.885
 21 
2.073
 0 
LINE
 8 
0
 62 
 7 
 10 
2.885
 20 
2.073
 11 
2.885
 21 
2.056
 0 
LINE
 8 
0
 62 
 7 
 10 
2.885
 20 
2.056
 11 
2.918
 21 
2.056
 0 
LINE
 8 
0
 62 
 7 
 10 
3.242
 20 
2.208
 11 
3.307
 21 
2.208
 0 
LINE
 8 
0
 62 
 7 
 10 
3.307
 20 
2.208
 11 
3.307
 21 
2.143
 0 
LINE
 8 
0
 62 
 7 
 10 
3.307
 20 
2.143
 11 
3.242
 21 
2.143
 0 
LINE
 8 
0
 62 
 7 
 10 
3.242
 20 
2.143
 11 
3.242
 21 
2.208
 0 
CIRCLE
 8 
0
 62 
 7 
 10 
3.275
 20 
2.175
 40 
0.018
 0 
CIRCLE
 8 
0
 62 
 7 
 10 
3.175
 20 
2.175
 40 
0.032
 0 
CIRCLE
 8 
0
 62 
 7 
 10 
3.175
 20 
2.175
 40 
0.018
 0 
LINE
 8 
0
 62 
 7 
 10 
3.323
 20 
2.232
 11 
3.31
 21 
2.25
 0 
LINE
 8 
0
 62 
 7 
 10 
3.31
 20 
2.25
 11 
3.294
 21 
2.265
 0 
LINE
 8 
0
 62 
 7 
 10 
3.294
 20 
2.265
 11 
3.276
 21 
2.276
 0 
LINE
 8 
0
 62 
 7 
 10 
3.276
 20 
2.276
 11 
3.255
 21 
2.284
 0 
LINE
 8 
0
 62 
 7 
 10 
3.255
 20 
2.284
 11 
3.234
 21 
2.288
 0 
LINE
 8 
0
 62 
 7 
 10 
3.234
 20 
2.288
 11 
3.212
 21 
2.288
 0 
LINE
 8 
0
 62 
 7 
 10 
3.212
 20 
2.288
 11 
3.19
 21 
2.283
 0 
LINE
 8 
0
 62 
 7 
 10 
3.19
 20 
2.283
 11 
3.17
 21 
2.274
 0 
LINE
 8 
0
 62 
 7 
 10 
3.17
 20 
2.274
 11 
3.152
 21 
2.262
 0 
LINE
 8 
0
 62 
 7 
 10 
3.152
 20 
2.262
 11 
3.137
 21 
2.246
 0 
LINE
 8 
0
 62 
 7 
 10 
3.137
 20 
2.246
 11 
3.125
 21 
2.228
 0 
LINE
 8 
0
 62 
 7 
 10 
3.125
 20 
2.228
 11 
3.116
 21 
2.207
 0 
LINE
 8 
0
 62 
 7 
 10 
3.116
 20 
2.207
 11 
3.112
 21 
2.186
 0 
LINE
 8 
0
 62 
 7 
 10 
3.112
 20 
2.186
 11 
3.112
 21 
2.164
 0 
LINE
 8 
0
 62 
 7 
 10 
3.112
 20 
2.164
 11 
3.116
 21 
2.143
 0 
LINE
 8 
0
 62 
 7 
 10 
3.116
 20 
2.143
 11 
3.125
 21 
2.122
 0 
LINE
 8 
0
 62 
 7 
 10 
3.125
 20 
2.122
 11 
3.137
 21 
2.104
 0 
LINE
 8 
0
 62 
 7 
 10 
3.137
 20 
2.104
 11 
3.152
 21 
2.088
 0 
LINE
 8 
0
 62 
 7 
 10 
3.152
 20 
2.088
 11 
3.17
 21 
2.076
 0 
LINE
 8 
0
 62 
 7 
 10 
3.17
 20 
2.076
 11 
3.19
 21 
2.067
 0 
LINE
 8 
0
 62 
 7 
 10 
3.19
 20 
2.067
 11 
3.212
 21 
2.062
 0 
LINE
 8 
0
 62 
 7 
 10 
3.212
 20 
2.062
 11 
3.234
 21 
2.062
 0 
LINE
 8 
0
 62 
 7 
 10 
3.234
 20 
2.062
 11 
3.255
 21 
2.066
 0 
LINE
 8 
0
 62 
 7 
 10 
3.255
 20 
2.066
 11 
3.276
 21 
2.074
 0 
LINE
 8 
0
 62 
 7 
 10 
3.276
 20 
2.074
 11 
3.294
 21 
2.085
 0 
LINE
 8 
0
 62 
 7 
 10 
3.294
 20 
2.085
 11 
3.31
 21 
2.1
 0 
LINE
 8 
0
 62 
 7 
 10 
3.31
 20 
2.1
 11 
3.323
 21 
2.118
 0 
LINE
 8 
0
 62 
 7 
 10 
3.322
 20 
2.231
 11 
3.322
 21 
2.119
 0 
LINE
 8 
0
 62 
 7 
 10 
2.975
 20 
2.275
 11 
2.975
 21 
2.237
 0 
LINE
 8 
0
 62 
 7 
 10 
2.975
 20 
2.237
 11 
3.0
 21 
2.237
 0 
LINE
 8 
0
 62 
 7 
 10 
3.038
 20 
2.275
 11 
3.013
 21 
2.275
 0 
LINE
 8 
0
 62 
 7 
 10 
3.013
 20 
2.275
 11 
3.013
 21 
2.237
 0 
LINE
 8 
0
 62 
 7 
 10 
3.013
 20 
2.237
 11 
3.038
 21 
2.237
 0 
LINE
 8 
0
 62 
 7 
 10 
3.013
 20 
2.256
 11 
3.032
 21 
2.256
 0 
LINE
 8 
0
 62 
 7 
 10 
3.051
 20 
2.275
 11 
3.07
 21 
2.275
 0 
LINE
 8 
0
 62 
 7 
 10 
3.07
 20 
2.275
 11 
3.076
 21 
2.269
 0 
LINE
 8 
0
 62 
 7 
 10 
3.076
 20 
2.269
 11 
3.076
 21 
2.243
 0 
LINE
 8 
0
 62 
 7 
 10 
3.076
 20 
2.243
 11 
3.07
 21 
2.237
 0 
LINE
 8 
0
 62 
 7 
 10 
3.07
 20 
2.237
 11 
3.051
 21 
2.237
 0 
LINE
 8 
0
 62 
 7 
 10 
3.057
 20 
2.275
 11 
3.057
 21 
2.237
 0 
LINE
 8 
0
 62 
 7 
 10 
3.095
 20 
2.269
 11 
3.102
 21 
2.275
 0 
LINE
 8 
0
 62 
 7 
 10 
3.102
 20 
2.275
 11 
3.102
 21 
2.237
 0 
LINE
 8 
0
 62 
 7 
 10 
3.095
 20 
2.237
 11 
3.108
 21 
2.237
 0 
CIRCLE
 8 
0
 62 
 7 
 10 
2.575
 20 
2.1
 40 
0.028
 0 
CIRCLE
 8 
0
 62 
 7 
 10 
2.575
 20 
2.1
 40 
0.014
 0 
CIRCLE
 8 
0
 62 
 7 
 10 
2.475
 20 
2.1
 40 
0.028
 0 
CIRCLE
 8 
0
 62 
 7 
 10 
2.475
 20 
2.1
 40 
0.014
 0 
LINE
 8 
0
 62 
 7 
 10 
2.625
 20 
2.13
 11 
2.625
 21 
2.07
 0 
LINE
 8 
0
 62 
 7 
 10 
2.625
 20 
2.07
 11 
2.605
 21 
2.05
 0 
LINE
 8 
0
 62 
 7 
 10 
2.605
 20 
2.05
 11 
2.445
 21 
2.05
 0 
LINE
 8 
0
 62 
 7 
 10 
2.445
 20 
2.05
 11 
2.425
 21 
2.07
 0 
LINE
 8 
0
 62 
 7 
 10 
2.425
 20 
2.07
 11 
2.425
 21 
2.13
 0 
LINE
 8 
0
 62 
 7 
 10 
2.425
 20 
2.13
 11 
2.445
 21 
2.15
 0 
LINE
 8 
0
 62 
 7 
 10 
2.445
 20 
2.15
 11 
2.605
 21 
2.15
 0 
LINE
 8 
0
 62 
 7 
 10 
2.605
 20 
2.15
 11 
2.625
 21 
2.13
 0 
LINE
 8 
0
 62 
 7 
 10 
2.508
 20 
2.192
 11 
2.5
 21 
2.2
 0 
LINE
 8 
0
 62 
 7 
 10 
2.5
 20 
2.2
 11 
2.483
 21 
2.2
 0 
LINE
 8 
0
 62 
 7 
 10 
2.483
 20 
2.2
 11 
2.475
 21 
2.192
 0 
LINE
 8 
0
 62 
 7 
 10 
2.475
 20 
2.192
 11 
2.475
 21 
2.158
 0 
LINE
 8 
0
 62 
 7 
 10 
2.475
 20 
2.158
 11 
2.483
 21 
2.15
 0 
LINE
 8 
0
 62 
 7 
 10 
2.483
 20 
2.15
 11 
2.5
 21 
2.15
 0 
LINE
 8 
0
 62 
 7 
 10 
2.5
 20 
2.15
 11 
2.508
 21 
2.158
 0 
LINE
 8 
0
 62 
 7 
 10 
2.558
 20 
2.167
 11 
2.525
 21 
2.167
 0 
LINE
 8 
0
 62 
 7 
 10 
2.525
 20 
2.167
 11 
2.525
 21 
2.175
 0 
LINE
 8 
0
 62 
 7 
 10 
2.525
 20 
2.175
 11 
2.55
 21 
2.2
 0 
LINE
 8 
0
 62 
 7 
 10 
2.55
 20 
2.2
 11 
2.55
 21 
2.15
 0 
LINE
 8 
0
 62 
 7 
 10 
2.97
 20 
2.062
 11 
3.006
 21 
2.062
 0 
LINE
 8 
0
 62 
 7 
 10 
1.81
 20 
2.234
 11 
1.81
 21 
2.214
 0 
LINE
 8 
0
 62 
 7 
 10 
1.81
 20 
2.214
 11 
1.823
 21 
2.201
 0 
LINE
 8 
0
 62 
 7 
 10 
1.823
 20 
2.201
 11 
1.837
 21 
2.214
 0 
LINE
 8 
0
 62 
 7 
 10 
1.837
 20 
2.214
 11 
1.837
 21 
2.234
 0 
LINE
 8 
0
 62 
 7 
 10 
1.823
 20 
2.201
 11 
1.823
 21 
2.194
 0 
LINE
 8 
0
 62 
 7 
 10 
1.877
 20 
2.227
 11 
1.87
 21 
2.234
 0 
LINE
 8 
0
 62 
 7 
 10 
1.87
 20 
2.234
 11 
1.857
 21 
2.234
 0 
LINE
 8 
0
 62 
 7 
 10 
1.857
 20 
2.234
 11 
1.85
 21 
2.227
 0 
LINE
 8 
0
 62 
 7 
 10 
1.85
 20 
2.227
 11 
1.85
 21 
2.201
 0 
LINE
 8 
0
 62 
 7 
 10 
1.85
 20 
2.201
 11 
1.857
 21 
2.194
 0 
LINE
 8 
0
 62 
 7 
 10 
1.857
 20 
2.194
 11 
1.87
 21 
2.194
 0 
LINE
 8 
0
 62 
 7 
 10 
1.87
 20 
2.194
 11 
1.877
 21 
2.201
 0 
LINE
 8 
0
 62 
 7 
 10 
1.917
 20 
2.227
 11 
1.91
 21 
2.234
 0 
LINE
 8 
0
 62 
 7 
 10 
1.91
 20 
2.234
 11 
1.897
 21 
2.234
 0 
LINE
 8 
0
 62 
 7 
 10 
1.897
 20 
2.234
 11 
1.89
 21 
2.227
 0 
LINE
 8 
0
 62 
 7 
 10 
1.89
 20 
2.227
 11 
1.89
 21 
2.201
 0 
LINE
 8 
0
 62 
 7 
 10 
1.89
 20 
2.201
 11 
1.897
 21 
2.194
 0 
LINE
 8 
0
 62 
 7 
 10 
1.897
 20 
2.194
 11 
1.91
 21 
2.194
 0 
LINE
 8 
0
 62 
 7 
 10 
1.91
 20 
2.194
 11 
1.917
 21 
2.201
 0 
LINE
 8 
0
 62 
 7 
 10 
1.867
 20 
2.34
 11 
1.867
 21 
2.458
 0 
LINE
 8 
0
 62 
 7 
 10 
1.558
 20 
2.275
 11 
1.583
 21 
2.275
 0 
LINE
 8 
0
 62 
 7 
 10 
1.583
 20 
2.275
 11 
1.583
 21 
2.233
 0 
LINE
 8 
0
 62 
 7 
 10 
1.583
 20 
2.233
 11 
1.575
 21 
2.225
 0 
LINE
 8 
0
 62 
 7 
 10 
1.575
 20 
2.225
 11 
1.558
 21 
2.225
 0 
LINE
 8 
0
 62 
 7 
 10 
1.558
 20 
2.225
 11 
1.55
 21 
2.233
 0 
LINE
 8 
0
 62 
 7 
 10 
1.6
 20 
2.267
 11 
1.608
 21 
2.275
 0 
LINE
 8 
0
 62 
 7 
 10 
1.608
 20 
2.275
 11 
1.625
 21 
2.275
 0 
LINE
 8 
0
 62 
 7 
 10 
1.625
 20 
2.275
 11 
1.633
 21 
2.267
 0 
LINE
 8 
0
 62 
 7 
 10 
1.633
 20 
2.267
 11 
1.633
 21 
2.258
 0 
LINE
 8 
0
 62 
 7 
 10 
1.633
 20 
2.258
 11 
1.625
 21 
2.25
 0 
LINE
 8 
0
 62 
 7 
 10 
1.625
 20 
2.25
 11 
1.617
 21 
2.25
 0 
LINE
 8 
0
 62 
 7 
 10 
1.625
 20 
2.25
 11 
1.633
 21 
2.242
 0 
LINE
 8 
0
 62 
 7 
 10 
1.633
 20 
2.242
 11 
1.633
 21 
2.233
 0 
LINE
 8 
0
 62 
 7 
 10 
1.633
 20 
2.233
 11 
1.625
 21 
2.225
 0 
LINE
 8 
0
 62 
 7 
 10 
1.625
 20 
2.225
 11 
1.608
 21 
2.225
 0 
LINE
 8 
0
 62 
 7 
 10 
1.608
 20 
2.225
 11 
1.6
 21 
2.233
 0 
LINE
 8 
0
 62 
 7 
 10 
-0.1
 20 
2.175
 11 
-0.075
 21 
2.2
 0 
LINE
 8 
0
 62 
 7 
 10 
-0.075
 20 
2.15
 11 
-0.1
 21 
2.175
 0 
LINE
 8 
0
 62 
 7 
 10 
0.2
 20 
2.15
 11 
-0.075
 21 
2.15
 0 
LINE
 8 
0
 62 
 7 
 10 
-0.075
 20 
2.2
 11 
0.2
 21 
2.2
 0 
LINE
 8 
0
 62 
 7 
 10 
0.2
 20 
2.225
 11 
0.2
 21 
1.625
 0 
LINE
 8 
0
 62 
 7 
 10 
0.3
 20 
1.625
 11 
0.3
 21 
2.225
 0 
LINE
 8 
0
 62 
 7 
 10 
2.988
 20 
2.08
 11 
2.988
 21 
2.044
 0 
LINE
 8 
0
 62 
 7 
 10 
2.908
 20 
1.967
 11 
2.9
 21 
1.975
 0 
LINE
 8 
0
 62 
 7 
 10 
2.9
 20 
1.975
 11 
2.883
 21 
1.975
 0 
LINE
 8 
0
 62 
 7 
 10 
2.883
 20 
1.975
 11 
2.875
 21 
1.967
 0 
LINE
 8 
0
 62 
 7 
 10 
2.875
 20 
1.967
 11 
2.875
 21 
1.933
 0 
LINE
 8 
0
 62 
 7 
 10 
2.875
 20 
1.933
 11 
2.883
 21 
1.925
 0 
LINE
 8 
0
 62 
 7 
 10 
2.883
 20 
1.925
 11 
2.9
 21 
1.925
 0 
LINE
 8 
0
 62 
 7 
 10 
2.9
 20 
1.925
 11 
2.908
 21 
1.933
 0 
LINE
 8 
0
 62 
 7 
 10 
2.958
 20 
1.975
 11 
2.925
 21 
1.975
 0 
LINE
 8 
0
 62 
 7 
 10 
2.925
 20 
1.975
 11 
2.925
 21 
1.958
 0 
LINE
 8 
0
 62 
 7 
 10 
2.925
 20 
1.958
 11 
2.95
 21 
1.958
 0 
LINE
 8 
0
 62 
 7 
 10 
2.95
 20 
1.958
 11 
2.958
 21 
1.95
 0 
LINE
 8 
0
 62 
 7 
 10 
2.958
 20 
1.95
 11 
2.958
 21 
1.933
 0 
LINE
 8 
0
 62 
 7 
 10 
2.958
 20 
1.933
 11 
2.95
 21 
1.925
 0 
LINE
 8 
0
 62 
 7 
 10 
2.95
 20 
1.925
 11 
2.933
 21 
1.925
 0 
LINE
 8 
0
 62 
 7 
 10 
2.933
 20 
1.925
 11 
2.925
 21 
1.933
 0 
CIRCLE
 8 
0
 62 
 7 
 10 
3.65
 20 
1.45
 40 
0.125
 0 
CIRCLE
 8 
0
 62 
 7 
 10 
3.65
 20 
1.45
 40 
0.062
 0 
LINE
 8 
0
 62 
 7 
 10 
0.438
 20 
2.238
 11 
0.513
 21 
2.238
 0 
LINE
 8 
0
 62 
 7 
 10 
0.513
 20 
2.238
 11 
0.513
 21 
2.163
 0 
LINE
 8 
0
 62 
 7 
 10 
0.513
 20 
2.163
 11 
0.438
 21 
2.163
 0 
LINE
 8 
0
 62 
 7 
 10 
0.438
 20 
2.163
 11 
0.438
 21 
2.238
 0 
CIRCLE
 8 
0
 62 
 7 
 10 
0.475
 20 
2.2
 40 
0.02
 0 
LINE
 8 
0
 62 
 7 
 10 
1.747
 20 
1.638
 11 
1.735
 21 
1.65
 0 
LINE
 8 
0
 62 
 7 
 10 
1.735
 20 
1.65
 11 
1.712
 21 
1.65
 0 
LINE
 8 
0
 62 
 7 
 10 
1.712
 20 
1.65
 11 
1.7
 21 
1.638
 0 
LINE
 8 
0
 62 
 7 
 10 
1.7
 20 
1.638
 11 
1.7
 21 
1.627
 0 
LINE
 8 
0
 62 
 7 
 10 
1.7
 20 
1.627
 11 
1.712
 21 
1.615
 0 
LINE
 8 
0
 62 
 7 
 10 
1.712
 20 
1.615
 11 
1.735
 21 
1.615
 0 
LINE
 8 
0
 62 
 7 
 10 
1.735
 20 
1.615
 11 
1.747
 21 
1.603
 0 
LINE
 8 
0
 62 
 7 
 10 
1.747
 20 
1.603
 11 
1.747
 21 
1.592
 0 
LINE
 8 
0
 62 
 7 
 10 
1.747
 20 
1.592
 11 
1.735
 21 
1.58
 0 
LINE
 8 
0
 62 
 7 
 10 
1.735
 20 
1.58
 11 
1.712
 21 
1.58
 0 
LINE
 8 
0
 62 
 7 
 10 
1.712
 20 
1.58
 11 
1.7
 21 
1.592
 0 
LINE
 8 
0
 62 
 7 
 10 
1.817
 20 
1.638
 11 
1.805
 21 
1.65
 0 
LINE
 8 
0
 62 
 7 
 10 
1.805
 20 
1.65
 11 
1.782
 21 
1.65
 0 
LINE
 8 
0
 62 
 7 
 10 
1.782
 20 
1.65
 11 
1.77
 21 
1.638
 0 
LINE
 8 
0
 62 
 7 
 10 
1.77
 20 
1.638
 11 
1.77
 21 
1.592
 0 
LINE
 8 
0
 62 
 7 
 10 
1.77
 20 
1.592
 11 
1.782
 21 
1.58
 0 
LINE
 8 
0
 62 
 7 
 10 
1.782
 20 
1.58
 11 
1.805
 21 
1.58
 0 
LINE
 8 
0
 62 
 7 
 10 
1.805
 20 
1.58
 11 
1.817
 21 
1.592
 0 
LINE
 8 
0
 62 
 7 
 10 
1.84
 20 
1.58
 11 
1.84
 21 
1.65
 0 
LINE
 8 
0
 62 
 7 
 10 
1.84
 20 
1.65
 11 
1.875
 21 
1.65
 0 
LINE
 8 
0
 62 
 7 
 10 
1.875
 20 
1.65
 11 
1.887
 21 
1.638
 0 
LINE
 8 
0
 62 
 7 
 10 
1.887
 20 
1.638
 11 
1.887
 21 
1.627
 0 
LINE
 8 
0
 62 
 7 
 10 
1.887
 20 
1.627
 11 
1.875
 21 
1.615
 0 
LINE
 8 
0
 62 
 7 
 10 
1.875
 20 
1.615
 11 
1.84
 21 
1.615
 0 
LINE
 8 
0
 62 
 7 
 10 
1.852
 20 
1.615
 11 
1.887
 21 
1.58
 0 
LINE
 8 
0
 62 
 7 
 10 
1.957
 20 
1.65
 11 
1.91
 21 
1.65
 0 
LINE
 8 
0
 62 
 7 
 10 
1.91
 20 
1.65
 11 
1.91
 21 
1.58
 0 
LINE
 8 
0
 62 
 7 
 10 
1.91
 20 
1.58
 11 
1.957
 21 
1.58
 0 
LINE
 8 
0
 62 
 7 
 10 
1.91
 20 
1.615
 11 
1.945
 21 
1.615
 0 
LINE
 8 
0
 62 
 7 
 10 
1.98
 20 
1.65
 11 
1.98
 21 
1.58
 0 
LINE
 8 
0
 62 
 7 
 10 
1.98
 20 
1.58
 11 
2.003
 21 
1.603
 0 
LINE
 8 
0
 62 
 7 
 10 
2.003
 20 
1.603
 11 
2.027
 21 
1.58
 0 
LINE
 8 
0
 62 
 7 
 10 
2.027
 20 
1.58
 11 
2.027
 21 
1.65
 0 
LINE
 8 
0
 62 
 7 
 10 
2.003
 20 
1.603
 11 
2.003
 21 
1.615
 0 
LINE
 8 
0
 62 
 7 
 10 
2.05
 20 
1.65
 11 
2.085
 21 
1.65
 0 
LINE
 8 
0
 62 
 7 
 10 
2.085
 20 
1.65
 11 
2.097
 21 
1.638
 0 
LINE
 8 
0
 62 
 7 
 10 
2.097
 20 
1.638
 11 
2.097
 21 
1.592
 0 
LINE
 8 
0
 62 
 7 
 10 
2.097
 20 
1.592
 11 
2.085
 21 
1.58
 0 
LINE
 8 
0
 62 
 7 
 10 
2.085
 20 
1.58
 11 
2.05
 21 
1.58
 0 
LINE
 8 
0
 62 
 7 
 10 
2.062
 20 
1.65
 11 
2.062
 21 
1.58
 0 
LINE
 8 
0
 62 
 7 
 10 
2.12
 20 
1.65
 11 
2.12
 21 
1.592
 0 
LINE
 8 
0
 62 
 7 
 10 
2.12
 20 
1.592
 11 
2.132
 21 
1.58
 0 
LINE
 8 
0
 62 
 7 
 10 
2.132
 20 
1.58
 11 
2.155
 21 
1.58
 0 
LINE
 8 
0
 62 
 7 
 10 
2.155
 20 
1.58
 11 
2.167
 21 
1.592
 0 
LINE
 8 
0
 62 
 7 
 10 
2.167
 20 
1.592
 11 
2.167
 21 
1.65
 0 
LINE
 8 
0
 62 
 7 
 10 
2.202
 20 
1.65
 11 
2.225
 21 
1.65
 0 
LINE
 8 
0
 62 
 7 
 10 
2.202
 20 
1.58
 11 
2.225
 21 
1.58
 0 
LINE
 8 
0
 62 
 7 
 10 
2.213
 20 
1.65
 11 
2.213
 21 
1.58
 0 
LINE
 8 
0
 62 
 7 
 10 
2.26
 20 
1.58
 11 
2.26
 21 
1.65
 0 
LINE
 8 
0
 62 
 7 
 10 
2.26
 20 
1.65
 11 
2.307
 21 
1.603
 0 
LINE
 8 
0
 62 
 7 
 10 
2.307
 20 
1.65
 11 
2.307
 21 
1.58
 0 
LINE
 8 
0
 62 
 7 
 10 
2.377
 20 
1.638
 11 
2.365
 21 
1.65
 0 
LINE
 8 
0
 62 
 7 
 10 
2.365
 20 
1.65
 11 
2.342
 21 
1.65
 0 
LINE
 8 
0
 62 
 7 
 10 
2.342
 20 
1.65
 11 
2.33
 21 
1.638
 0 
LINE
 8 
0
 62 
 7 
 10 
2.33
 20 
1.638
 11 
2.33
 21 
1.592
 0 
LINE
 8 
0
 62 
 7 
 10 
2.33
 20 
1.592
 11 
2.342
 21 
1.58
 0 
LINE
 8 
0
 62 
 7 
 10 
2.342
 20 
1.58
 11 
2.365
 21 
1.58
 0 
LINE
 8 
0
 62 
 7 
 10 
2.365
 20 
1.58
 11 
2.377
 21 
1.592
 0 
LINE
 8 
0
 62 
 7 
 10 
2.377
 20 
1.592
 11 
2.377
 21 
1.638
 0 
CIRCLE
 8 
0
 62 
 7 
 10 
0.575
 20 
2.2
 40 
0.038
 0 
CIRCLE
 8 
0
 62 
 7 
 10 
0.575
 20 
2.2
 40 
0.02
 0 
CIRCLE
 8 
0
 62 
 7 
 10 
0.675
 20 
2.2
 40 
0.038
 0 
CIRCLE
 8 
0
 62 
 7 
 10 
0.675
 20 
2.2
 40 
0.02
 0 
CIRCLE
 8 
0
 62 
 7 
 10 
0.775
 20 
2.2
 40 
0.038
 0 
CIRCLE
 8 
0
 62 
 7 
 10 
0.775
 20 
2.2
 40 
0.02
 0 
LINE
 8 
0
 62 
 7 
 10 
0.415
 20 
2.075
 11 
0.415
 21 
2.325
 0 
CIRCLE
 8 
0
 62 
 7 
 10 
2.625
 20 
1.925
 40 
0.044
 0 
CIRCLE
 8 
0
 62 
 7 
 10 
2.625
 20 
1.925
 40 
0.02
 0 
CIRCLE
 8 
0
 62 
 7 
 10 
1.35
 20 
2.175
 40 
0.028
 0 
CIRCLE
 8 
0
 62 
 7 
 10 
1.35
 20 
2.175
 40 
0.014
 0 
LINE
 8 
0
 62 
 7 
 10 
3.475
 20 
2.306
 11 
3.481
 21 
2.3
 0 
LINE
 8 
0
 62 
 7 
 10 
3.481
 20 
2.3
 11 
3.494
 21 
2.3
 0 
LINE
 8 
0
 62 
 7 
 10 
3.494
 20 
2.3
 11 
3.5
 21 
2.306
 0 
LINE
 8 
0
 62 
 7 
 10 
3.5
 20 
2.306
 11 
3.5
 21 
2.332
 0 
LINE
 8 
0
 62 
 7 
 10 
3.5
 20 
2.332
 11 
3.494
 21 
2.338
 0 
LINE
 8 
0
 62 
 7 
 10 
3.494
 20 
2.338
 11 
3.475
 21 
2.338
 0 
LINE
 8 
0
 62 
 7 
 10 
3.475
 20 
2.338
 11 
3.475
 21 
2.325
 0 
LINE
 8 
0
 62 
 7 
 10 
3.475
 20 
2.325
 11 
3.481
 21 
2.325
 0 
LINE
 8 
0
 62 
 7 
 10 
3.462
 20 
2.338
 11 
3.462
 21 
2.3
 0 
LINE
 8 
0
 62 
 7 
 10 
3.462
 20 
2.3
 11 
3.437
 21 
2.325
 0 
LINE
 8 
0
 62 
 7 
 10 
3.437
 20 
2.3
 11 
3.437
 21 
2.338
 0 
LINE
 8 
0
 62 
 7 
 10 
3.424
 20 
2.3
 11 
3.405
 21 
2.3
 0 
LINE
 8 
0
 62 
 7 
 10 
3.405
 20 
2.3
 11 
3.399
 21 
2.306
 0 
LINE
 8 
0
 62 
 7 
 10 
3.399
 20 
2.306
 11 
3.399
 21 
2.332
 0 
LINE
 8 
0
 62 
 7 
 10 
3.399
 20 
2.332
 11 
3.405
 21 
2.338
 0 
LINE
 8 
0
 62 
 7 
 10 
3.405
 20 
2.338
 11 
3.424
 21 
2.338
 0 
LINE
 8 
0
 62 
 7 
 10 
3.418
 20 
2.3
 11 
3.418
 21 
2.338
 0 
CIRCLE
 8 
0
 62 
 7 
 10 
1.45
 20 
2.175
 40 
0.028
 0 
CIRCLE
 8 
0
 62 
 7 
 10 
1.45
 20 
2.175
 40 
0.014
 0 
LINE
 8 
0
 62 
 7 
 10 
2.45
 20 
1.562
 11 
2.45
 21 
1.6
 0 
LINE
 8 
0
 62 
 7 
 10 
2.45
 20 
1.6
 11 
2.469
 21 
1.6
 0 
LINE
 8 
0
 62 
 7 
 10 
2.469
 20 
1.6
 11 
2.475
 21 
1.594
 0 
LINE
 8 
0
 62 
 7 
 10 
2.475
 20 
1.594
 11 
2.475
 21 
1.587
 0 
LINE
 8 
0
 62 
 7 
 10 
2.475
 20 
1.587
 11 
2.469
 21 
1.581
 0 
LINE
 8 
0
 62 
 7 
 10 
2.469
 20 
1.581
 11 
2.45
 21 
1.581
 0 
LINE
 8 
0
 62 
 7 
 10 
2.456
 20 
1.581
 11 
2.475
 21 
1.562
 0 
LINE
 8 
0
 62 
 7 
 10 
2.513
 20 
1.6
 11 
2.488
 21 
1.6
 0 
LINE
 8 
0
 62 
 7 
 10 
2.488
 20 
1.6
 11 
2.488
 21 
1.562
 0 
LINE
 8 
0
 62 
 7 
 10 
2.488
 20 
1.562
 11 
2.513
 21 
1.562
 0 
LINE
 8 
0
 62 
 7 
 10 
2.488
 20 
1.581
 11 
2.507
 21 
1.581
 0 
LINE
 8 
0
 62 
 7 
 10 
2.551
 20 
1.594
 11 
2.545
 21 
1.6
 0 
LINE
 8 
0
 62 
 7 
 10 
2.545
 20 
1.6
 11 
2.532
 21 
1.6
 0 
LINE
 8 
0
 62 
 7 
 10 
2.532
 20 
1.6
 11 
2.526
 21 
1.594
 0 
LINE
 8 
0
 62 
 7 
 10 
2.526
 20 
1.594
 11 
2.526
 21 
1.587
 0 
LINE
 8 
0
 62 
 7 
 10 
2.526
 20 
1.587
 11 
2.532
 21 
1.581
 0 
LINE
 8 
0
 62 
 7 
 10 
2.532
 20 
1.581
 11 
2.545
 21 
1.581
 0 
LINE
 8 
0
 62 
 7 
 10 
2.545
 20 
1.581
 11 
2.551
 21 
1.575
 0 
LINE
 8 
0
 62 
 7 
 10 
2.551
 20 
1.575
 11 
2.551
 21 
1.568
 0 
LINE
 8 
0
 62 
 7 
 10 
2.551
 20 
1.568
 11 
2.545
 21 
1.562
 0 
LINE
 8 
0
 62 
 7 
 10 
2.545
 20 
1.562
 11 
2.532
 21 
1.562
 0 
LINE
 8 
0
 62 
 7 
 10 
2.532
 20 
1.562
 11 
2.526
 21 
1.568
 0 
LINE
 8 
0
 62 
 7 
 10 
2.589
 20 
1.6
 11 
2.564
 21 
1.6
 0 
LINE
 8 
0
 62 
 7 
 10 
2.564
 20 
1.6
 11 
2.564
 21 
1.562
 0 
LINE
 8 
0
 62 
 7 
 10 
2.564
 20 
1.562
 11 
2.589
 21 
1.562
 0 
LINE
 8 
0
 62 
 7 
 10 
2.564
 20 
1.581
 11 
2.583
 21 
1.581
 0 
LINE
 8 
0
 62 
 7 
 10 
2.602
 20 
1.6
 11 
2.627
 21 
1.6
 0 
LINE
 8 
0
 62 
 7 
 10 
2.615
 20 
1.6
 11 
2.615
 21 
1.562
 0 
LINE
 8 
0
 62 
 7 
 10 
0.835
 20 
2.325
 11 
0.415
 21 
2.325
 0 
CIRCLE
 8 
0
 62 
 7 
 10 
2.625
 20 
1.669
 40 
0.044
 0 
CIRCLE
 8 
0
 62 
 7 
 10 
2.625
 20 
1.669
 40 
0.02
 0 
LINE
 8 
0
 62 
 7 
 10 
3.548
 20 
1.738
 11 
3.548
 21 
1.692
 0 
LINE
 8 
0
 62 
 7 
 10 
3.525
 20 
1.715
 11 
3.572
 21 
1.715
 0 
LINE
 8 
0
 62 
 7 
 10 
1.362
 20 
1.638
 11 
1.437
 21 
1.638
 0 
LINE
 8 
0
 62 
 7 
 10 
1.437
 20 
1.638
 11 
1.437
 21 
1.563
 0 
LINE
 8 
0
 62 
 7 
 10 
1.437
 20 
1.563
 11 
1.362
 21 
1.563
 0 
LINE
 8 
0
 62 
 7 
 10 
1.362
 20 
1.563
 11 
1.362
 21 
1.638
 0 
CIRCLE
 8 
0
 62 
 7 
 10 
1.4
 20 
1.6
 40 
0.02
 0 
CIRCLE
 8 
0
 62 
 7 
 10 
0.981
 20 
1.4
 40 
0.038
 0 
CIRCLE
 8 
0
 62 
 7 
 10 
0.981
 20 
1.4
 40 
0.02
 0 
CIRCLE
 8 
0
 62 
 7 
 10 
1.499
 20 
1.6
 40 
0.038
 0 
CIRCLE
 8 
0
 62 
 7 
 10 
1.499
 20 
1.6
 40 
0.02
 0 
LINE
 8 
0
 62 
 7 
 10 
0.835
 20 
2.325
 11 
0.835
 21 
2.075
 0 
LINE
 8 
0
 62 
 7 
 10 
1.3
 20 
2.205
 11 
1.3
 21 
2.145
 0 
LINE
 8 
0
 62 
 7 
 10 
1.3
 20 
2.145
 11 
1.32
 21 
2.125
 0 
CIRCLE
 8 
0
 62 
 7 
 10 
1.597
 20 
1.6
 40 
0.038
 0 
CIRCLE
 8 
0
 62 
 7 
 10 
1.597
 20 
1.6
 40 
0.02
 0 
LINE
 8 
0
 62 
 7 
 10 
0.415
 20 
2.075
 11 
0.835
 21 
2.075
 0 
CIRCLE
 8 
0
 62 
 7 
 10 
0.784
 20 
1.4
 40 
0.038
 0 
CIRCLE
 8 
0
 62 
 7 
 10 
0.784
 20 
1.4
 40 
0.02
 0 
LINE
 8 
0
 62 
 7 
 10 
0.475
 20 
2.081
 11 
0.475
 21 
2.099
 0 
LINE
 8 
0
 62 
 7 
 10 
0.413
 20 
1.675
 11 
0.375
 21 
1.675
 0 
LINE
 8 
0
 62 
 7 
 10 
0.375
 20 
1.675
 11 
0.375
 21 
1.694
 0 
LINE
 8 
0
 62 
 7 
 10 
0.375
 20 
1.694
 11 
0.381
 21 
1.7
 0 
LINE
 8 
0
 62 
 7 
 10 
0.381
 20 
1.7
 11 
0.388
 21 
1.7
 0 
LINE
 8 
0
 62 
 7 
 10 
0.388
 20 
1.7
 11 
0.394
 21 
1.694
 0 
LINE
 8 
0
 62 
 7 
 10 
0.394
 20 
1.694
 11 
0.394
 21 
1.675
 0 
LINE
 8 
0
 62 
 7 
 10 
0.413
 20 
1.713
 11 
0.375
 21 
1.713
 0 
LINE
 8 
0
 62 
 7 
 10 
0.375
 20 
1.713
 11 
0.375
 21 
1.732
 0 
LINE
 8 
0
 62 
 7 
 10 
0.375
 20 
1.732
 11 
0.381
 21 
1.738
 0 
LINE
 8 
0
 62 
 7 
 10 
0.381
 20 
1.738
 11 
0.388
 21 
1.738
 0 
LINE
 8 
0
 62 
 7 
 10 
0.388
 20 
1.738
 11 
0.394
 21 
1.732
 0 
LINE
 8 
0
 62 
 7 
 10 
0.394
 20 
1.732
 11 
0.394
 21 
1.713
 0 
LINE
 8 
0
 62 
 7 
 10 
0.394
 20 
1.719
 11 
0.413
 21 
1.738
 0 
LINE
 8 
0
 62 
 7 
 10 
0.381
 20 
1.776
 11 
0.375
 21 
1.77
 0 
LINE
 8 
0
 62 
 7 
 10 
0.375
 20 
1.77
 11 
0.375
 21 
1.757
 0 
LINE
 8 
0
 62 
 7 
 10 
0.375
 20 
1.757
 11 
0.381
 21 
1.751
 0 
LINE
 8 
0
 62 
 7 
 10 
0.381
 20 
1.751
 11 
0.407
 21 
1.751
 0 
LINE
 8 
0
 62 
 7 
 10 
0.407
 20 
1.751
 11 
0.413
 21 
1.757
 0 
LINE
 8 
0
 62 
 7 
 10 
0.413
 20 
1.757
 11 
0.413
 21 
1.77
 0 
LINE
 8 
0
 62 
 7 
 10 
0.413
 20 
1.77
 11 
0.407
 21 
1.776
 0 
LINE
 8 
0
 62 
 7 
 10 
0.407
 20 
1.776
 11 
0.381
 21 
1.776
 0 
LINE
 8 
0
 62 
 7 
 10 
0.381
 20 
1.814
 11 
0.375
 21 
1.808
 0 
LINE
 8 
0
 62 
 7 
 10 
0.375
 20 
1.808
 11 
0.375
 21 
1.795
 0 
LINE
 8 
0
 62 
 7 
 10 
0.375
 20 
1.795
 11 
0.381
 21 
1.789
 0 
LINE
 8 
0
 62 
 7 
 10 
0.381
 20 
1.789
 11 
0.407
 21 
1.789
 0 
LINE
 8 
0
 62 
 7 
 10 
0.407
 20 
1.789
 11 
0.413
 21 
1.795
 0 
LINE
 8 
0
 62 
 7 
 10 
0.413
 20 
1.795
 11 
0.413
 21 
1.814
 0 
LINE
 8 
0
 62 
 7 
 10 
0.413
 20 
1.814
 11 
0.4
 21 
1.814
 0 
LINE
 8 
0
 62 
 7 
 10 
0.4
 20 
1.814
 11 
0.4
 21 
1.808
 0 
LINE
 8 
0
 62 
 7 
 10 
0.413
 20 
1.827
 11 
0.375
 21 
1.827
 0 
LINE
 8 
0
 62 
 7 
 10 
0.375
 20 
1.827
 11 
0.375
 21 
1.846
 0 
LINE
 8 
0
 62 
 7 
 10 
0.375
 20 
1.846
 11 
0.381
 21 
1.852
 0 
LINE
 8 
0
 62 
 7 
 10 
0.381
 20 
1.852
 11 
0.388
 21 
1.852
 0 
LINE
 8 
0
 62 
 7 
 10 
0.388
 20 
1.852
 11 
0.394
 21 
1.846
 0 
LINE
 8 
0
 62 
 7 
 10 
0.394
 20 
1.846
 11 
0.394
 21 
1.827
 0 
LINE
 8 
0
 62 
 7 
 10 
0.394
 20 
1.833
 11 
0.413
 21 
1.852
 0 
LINE
 8 
0
 62 
 7 
 10 
0.413
 20 
1.865
 11 
0.388
 21 
1.865
 0 
LINE
 8 
0
 62 
 7 
 10 
0.388
 20 
1.865
 11 
0.375
 21 
1.878
 0 
LINE
 8 
0
 62 
 7 
 10 
0.375
 20 
1.878
 11 
0.388
 21 
1.89
 0 
LINE
 8 
0
 62 
 7 
 10 
0.388
 20 
1.89
 11 
0.413
 21 
1.89
 0 
LINE
 8 
0
 62 
 7 
 10 
0.4
 20 
1.865
 11 
0.4
 21 
1.89
 0 
LINE
 8 
0
 62 
 7 
 10 
0.413
 20 
1.903
 11 
0.375
 21 
1.903
 0 
LINE
 8 
0
 62 
 7 
 10 
0.375
 20 
1.903
 11 
0.388
 21 
1.916
 0 
LINE
 8 
0
 62 
 7 
 10 
0.388
 20 
1.916
 11 
0.394
 21 
1.916
 0 
LINE
 8 
0
 62 
 7 
 10 
0.388
 20 
1.916
 11 
0.375
 21 
1.928
 0 
LINE
 8 
0
 62 
 7 
 10 
0.375
 20 
1.928
 11 
0.413
 21 
1.928
 0 
LINE
 8 
0
 62 
 7 
 10 
2.892
 20 
1.828
 11 
2.959
 21 
1.828
 0 
LINE
 8 
0
 62 
 7 
 10 
2.959
 20 
1.828
 11 
2.959
 21 
1.722
 0 
LINE
 8 
0
 62 
 7 
 10 
2.959
 20 
1.722
 11 
2.892
 21 
1.722
 0 
LINE
 8 
0
 62 
 7 
 10 
2.892
 20 
1.722
 11 
2.892
 21 
1.828
 0 
LINE
 8 
0
 62 
 7 
 10 
2.908
 20 
1.729
 11 
2.943
 21 
1.729
 0 
LINE
 8 
0
 62 
 7 
 10 
2.943
 20 
1.729
 11 
2.943
 21 
1.635
 0 
LINE
 8 
0
 62 
 7 
 10 
2.943
 20 
1.635
 11 
2.908
 21 
1.635
 0 
LINE
 8 
0
 62 
 7 
 10 
2.908
 20 
1.635
 11 
2.908
 21 
1.729
 0 
LINE
 8 
0
 62 
 7 
 10 
1.341
 20 
1.521
 11 
1.656
 21 
1.521
 0 
LINE
 8 
0
 62 
 7 
 10 
2.966
 20 
1.694
 11 
3.001
 21 
1.694
 0 
LINE
 8 
0
 62 
 7 
 10 
3.001
 20 
1.694
 11 
3.001
 21 
1.635
 0 
LINE
 8 
0
 62 
 7 
 10 
3.001
 20 
1.635
 11 
2.966
 21 
1.635
 0 
LINE
 8 
0
 62 
 7 
 10 
2.966
 20 
1.635
 11 
2.966
 21 
1.694
 0 
LINE
 8 
0
 62 
 7 
 10 
1.656
 20 
1.521
 11 
1.656
 21 
1.678
 0 
LINE
 8 
0
 62 
 7 
 10 
0.775
 20 
2.099
 11 
0.475
 21 
2.099
 0 
LINE
 8 
0
 62 
 7 
 10 
1.341
 20 
1.678
 11 
1.341
 21 
1.521
 0 
LINE
 8 
0
 62 
 7 
 10 
1.341
 20 
1.678
 11 
1.656
 21 
1.678
 0 
LINE
 8 
0
 62 
 7 
 10 
1.32
 20 
2.125
 11 
1.48
 21 
2.125
 0 
LINE
 8 
0
 62 
 7 
 10 
0.775
 20 
2.099
 11 
0.775
 21 
2.081
 0 
LINE
 8 
0
 62 
 7 
 10 
1.48
 20 
2.125
 11 
1.5
 21 
2.145
 0 
LINE
 8 
0
 62 
 7 
 10 
1.5
 20 
2.145
 11 
1.5
 21 
2.205
 0 
LINE
 8 
0
 62 
 7 
 10 
1.5
 20 
2.205
 11 
1.48
 21 
2.225
 0 
LINE
 8 
0
 62 
 7 
 10 
1.48
 20 
2.225
 11 
1.32
 21 
2.225
 0 
LINE
 8 
0
 62 
 7 
 10 
2.848
 20 
1.694
 11 
2.883
 21 
1.694
 0 
LINE
 8 
0
 62 
 7 
 10 
2.883
 20 
1.694
 11 
2.883
 21 
1.635
 0 
LINE
 8 
0
 62 
 7 
 10 
2.883
 20 
1.635
 11 
2.848
 21 
1.635
 0 
LINE
 8 
0
 62 
 7 
 10 
2.848
 20 
1.635
 11 
2.848
 21 
1.694
 0 
CIRCLE
 8 
0
 62 
 7 
 10 
0.587
 20 
1.4
 40 
0.038
 0 
CIRCLE
 8 
0
 62 
 7 
 10 
0.587
 20 
1.4
 40 
0.02
 0 
LINE
 8 
0
 62 
 7 
 10 
0.475
 20 
2.081
 11 
0.775
 21 
2.081
 0 
LINE
 8 
0
 62 
 7 
 10 
0.475
 20 
2.087
 11 
0.475
 21 
2.093
 0 
LINE
 8 
0
 62 
 7 
 10 
0.352
 20 
1.438
 11 
0.427
 21 
1.438
 0 
LINE
 8 
0
 62 
 7 
 10 
0.427
 20 
1.438
 11 
0.427
 21 
1.363
 0 
LINE
 8 
0
 62 
 7 
 10 
0.427
 20 
1.363
 11 
0.352
 21 
1.363
 0 
LINE
 8 
0
 62 
 7 
 10 
0.352
 20 
1.363
 11 
0.352
 21 
1.438
 0 
CIRCLE
 8 
0
 62 
 7 
 10 
0.39
 20 
1.4
 40 
0.02
 0 
LINE
 8 
0
 62 
 7 
 10 
1.32
 20 
2.225
 11 
1.3
 21 
2.205
 0 
LINE
 8 
0
 62 
 7 
 10 
1.558
 20 
2.192
 11 
1.55
 21 
2.2
 0 
LINE
 8 
0
 62 
 7 
 10 
1.55
 20 
2.2
 11 
1.533
 21 
2.2
 0 
LINE
 8 
0
 62 
 7 
 10 
1.533
 20 
2.2
 11 
1.525
 21 
2.192
 0 
LINE
 8 
0
 62 
 7 
 10 
1.525
 20 
2.192
 11 
1.525
 21 
2.158
 0 
LINE
 8 
0
 62 
 7 
 10 
1.525
 20 
2.158
 11 
1.533
 21 
2.15
 0 
LINE
 8 
0
 62 
 7 
 10 
1.533
 20 
2.15
 11 
1.55
 21 
2.15
 0 
LINE
 8 
0
 62 
 7 
 10 
1.55
 20 
2.15
 11 
1.558
 21 
2.158
 0 
LINE
 8 
0
 62 
 7 
 10 
1.575
 20 
2.192
 11 
1.583
 21 
2.2
 0 
LINE
 8 
0
 62 
 7 
 10 
1.583
 20 
2.2
 11 
1.6
 21 
2.2
 0 
LINE
 8 
0
 62 
 7 
 10 
1.6
 20 
2.2
 11 
1.608
 21 
2.192
 0 
LINE
 8 
0
 62 
 7 
 10 
1.608
 20 
2.192
 11 
1.608
 21 
2.183
 0 
LINE
 8 
0
 62 
 7 
 10 
1.608
 20 
2.183
 11 
1.6
 21 
2.175
 0 
LINE
 8 
0
 62 
 7 
 10 
1.6
 20 
2.175
 11 
1.583
 21 
2.175
 0 
LINE
 8 
0
 62 
 7 
 10 
1.583
 20 
2.175
 11 
1.575
 21 
2.167
 0 
LINE
 8 
0
 62 
 7 
 10 
1.575
 20 
2.167
 11 
1.575
 21 
2.15
 0 
LINE
 8 
0
 62 
 7 
 10 
1.575
 20 
2.15
 11 
1.608
 21 
2.15
 0 
LINE
 8 
0
 62 
 7 
 10 
0.45
 20 
1.98
 11 
0.47
 21 
2.0
 0 
LINE
 8 
0
 62 
 7 
 10 
0.775
 20 
2.093
 11 
0.475
 21 
2.093
 0 
CIRCLE
 8 
0
 62 
 7 
 10 
1.571
 20 
1.4
 40 
0.038
 0 
CIRCLE
 8 
0
 62 
 7 
 10 
1.571
 20 
1.4
 40 
0.02
 0 
LINE
 8 
0
 62 
 7 
 10 
0.383
 20 
1.992
 11 
0.375
 21 
2.0
 0 
LINE
 8 
0
 62 
 7 
 10 
0.375
 20 
2.0
 11 
0.358
 21 
2.0
 0 
LINE
 8 
0
 62 
 7 
 10 
0.358
 20 
2.0
 11 
0.35
 21 
1.992
 0 
LINE
 8 
0
 62 
 7 
 10 
0.35
 20 
1.992
 11 
0.35
 21 
1.958
 0 
LINE
 8 
0
 62 
 7 
 10 
0.35
 20 
1.958
 11 
0.358
 21 
1.95
 0 
LINE
 8 
0
 62 
 7 
 10 
0.358
 20 
1.95
 11 
0.375
 21 
1.95
 0 
LINE
 8 
0
 62 
 7 
 10 
0.375
 20 
1.95
 11 
0.383
 21 
1.958
 0 
LINE
 8 
0
 62 
 7 
 10 
0.408
 20 
1.992
 11 
0.417
 21 
2.0
 0 
LINE
 8 
0
 62 
 7 
 10 
0.417
 20 
2.0
 11 
0.417
 21 
1.95
 0 
LINE
 8 
0
 62 
 7 
 10 
0.408
 20 
1.95
 11 
0.425
 21 
1.95
 0 
CIRCLE
 8 
0
 62 
 7 
 10 
1.768
 20 
1.4
 40 
0.038
 0 
CIRCLE
 8 
0
 62 
 7 
 10 
1.768
 20 
1.4
 40 
0.02
 0 
LINE
 8 
0
 62 
 7 
 10 
0.292
 20 
1.34
 11 
1.867
 21 
1.34
 0 
CIRCLE
 8 
0
 62 
 7 
 10 
2.448
 20 
1.925
 40 
0.044
 0 
CIRCLE
 8 
0
 62 
 7 
 10 
2.448
 20 
1.925
 40 
0.02
 0 
LINE
 8 
0
 62 
 7 
 10 
1.867
 20 
1.458
 11 
0.292
 21 
1.458
 0 
LINE
 8 
0
 62 
 7 
 10 
0.292
 20 
1.34
 11 
0.292
 21 
1.458
 0 
CIRCLE
 8 
0
 62 
 7 
 10 
2.448
 20 
1.669
 40 
0.044
 0 
CIRCLE
 8 
0
 62 
 7 
 10 
2.448
 20 
1.669
 40 
0.02
 0 
LINE
 8 
0
 62 
 7 
 10 
1.867
 20 
1.34
 11 
1.867
 21 
1.458
 0 
LINE
 8 
0
 62 
 7 
 10 
2.666
 20 
1.884
 11 
2.666
 21 
1.71
 0 
LINE
 8 
0
 62 
 7 
 10 
2.406
 20 
1.884
 11 
2.406
 21 
1.71
 0 
LINE
 8 
0
 62 
 7 
 10 
2.571
 20 
1.947
 11 
2.501
 21 
1.947
 0 
LINE
 8 
0
 62 
 7 
 10 
2.571
 20 
1.647
 11 
2.501
 21 
1.647
 0 
LINE
 8 
0
 62 
 7 
 10 
2.705
 20 
1.992
 11 
2.697
 21 
2.0
 0 
LINE
 8 
0
 62 
 7 
 10 
2.697
 20 
2.0
 11 
2.683
 21 
2.0
 0 
LINE
 8 
0
 62 
 7 
 10 
2.683
 20 
2.0
 11 
2.675
 21 
1.992
 0 
LINE
 8 
0
 62 
 7 
 10 
2.675
 20 
1.992
 11 
2.675
 21 
1.985
 0 
LINE
 8 
0
 62 
 7 
 10 
2.675
 20 
1.985
 11 
2.683
 21 
1.978
 0 
LINE
 8 
0
 62 
 7 
 10 
2.683
 20 
1.978
 11 
2.697
 21 
1.978
 0 
LINE
 8 
0
 62 
 7 
 10 
2.697
 20 
1.978
 11 
2.705
 21 
1.97
 0 
LINE
 8 
0
 62 
 7 
 10 
2.705
 20 
1.97
 11 
2.705
 21 
1.962
 0 
LINE
 8 
0
 62 
 7 
 10 
2.705
 20 
1.962
 11 
2.697
 21 
1.955
 0 
LINE
 8 
0
 62 
 7 
 10 
2.697
 20 
1.955
 11 
2.683
 21 
1.955
 0 
LINE
 8 
0
 62 
 7 
 10 
2.683
 20 
1.955
 11 
2.675
 21 
1.962
 0 
LINE
 8 
0
 62 
 7 
 10 
2.72
 20 
2.0
 11 
2.72
 21 
1.955
 0 
LINE
 8 
0
 62 
 7 
 10 
2.72
 20 
1.955
 11 
2.735
 21 
1.97
 0 
LINE
 8 
0
 62 
 7 
 10 
2.735
 20 
1.97
 11 
2.75
 21 
1.955
 0 
LINE
 8 
0
 62 
 7 
 10 
2.75
 20 
1.955
 11 
2.75
 21 
2.0
 0 
LINE
 8 
0
 62 
 7 
 10 
2.735
 20 
1.97
 11 
2.735
 21 
1.978
 0 
LINE
 8 
0
 62 
 7 
 10 
2.773
 20 
1.992
 11 
2.78
 21 
2.0
 0 
LINE
 8 
0
 62 
 7 
 10 
2.78
 20 
2.0
 11 
2.78
 21 
1.955
 0 
LINE
 8 
0
 62 
 7 
 10 
2.773
 20 
1.955
 11 
2.787
 21 
1.955
 0 
LINE
 8 
0
 62 
 7 
 10 
0.775
 20 
2.093
 11 
0.775
 21 
2.087
 0 
LINE
 8 
0
 62 
 7 
 10 
0.475
 20 
2.087
 11 
0.775
 21 
2.087
 0 
LINE
 8 
0
 62 
 7 
 10 
0.35
 20 
2.158
 11 
0.35
 21 
2.183
 0 
LINE
 8 
0
 62 
 7 
 10 
0.35
 20 
2.183
 11 
0.392
 21 
2.183
 0 
LINE
 8 
0
 62 
 7 
 10 
0.392
 20 
2.183
 11 
0.4
 21 
2.175
 0 
LINE
 8 
0
 62 
 7 
 10 
0.4
 20 
2.175
 11 
0.4
 21 
2.158
 0 
LINE
 8 
0
 62 
 7 
 10 
0.4
 20 
2.158
 11 
0.392
 21 
2.15
 0 
LINE
 8 
0
 62 
 7 
 10 
0.375
 20 
2.208
 11 
0.367
 21 
2.2
 0 
LINE
 8 
0
 62 
 7 
 10 
0.367
 20 
2.2
 11 
0.358
 21 
2.2
 0 
LINE
 8 
0
 62 
 7 
 10 
0.358
 20 
2.2
 11 
0.35
 21 
2.208
 0 
LINE
 8 
0
 62 
 7 
 10 
0.35
 20 
2.208
 11 
0.35
 21 
2.225
 0 
LINE
 8 
0
 62 
 7 
 10 
0.35
 20 
2.225
 11 
0.358
 21 
2.233
 0 
LINE
 8 
0
 62 
 7 
 10 
0.358
 20 
2.233
 11 
0.367
 21 
2.233
 0 
LINE
 8 
0
 62 
 7 
 10 
0.367
 20 
2.233
 11 
0.375
 21 
2.225
 0 
LINE
 8 
0
 62 
 7 
 10 
0.375
 20 
2.225
 11 
0.375
 21 
2.208
 0 
LINE
 8 
0
 62 
 7 
 10 
0.375
 20 
2.208
 11 
0.383
 21 
2.2
 0 
LINE
 8 
0
 62 
 7 
 10 
0.383
 20 
2.2
 11 
0.392
 21 
2.2
 0 
LINE
 8 
0
 62 
 7 
 10 
0.392
 20 
2.2
 11 
0.4
 21 
2.208
 0 
LINE
 8 
0
 62 
 7 
 10 
0.4
 20 
2.208
 11 
0.4
 21 
2.225
 0 
LINE
 8 
0
 62 
 7 
 10 
0.4
 20 
2.225
 11 
0.392
 21 
2.233
 0 
LINE
 8 
0
 62 
 7 
 10 
0.392
 20 
2.233
 11 
0.383
 21 
2.233
 0 
LINE
 8 
0
 62 
 7 
 10 
0.383
 20 
2.233
 11 
0.375
 21 
2.225
 0 
LINE
 8 
0
 62 
 7 
 10 
1.058
 20 
1.6
 11 
1.083
 21 
1.6
 0 
LINE
 8 
0
 62 
 7 
 10 
1.083
 20 
1.6
 11 
1.083
 21 
1.558
 0 
LINE
 8 
0
 62 
 7 
 10 
1.083
 20 
1.558
 11 
1.075
 21 
1.55
 0 
LINE
 8 
0
 62 
 7 
 10 
1.075
 20 
1.55
 11 
1.058
 21 
1.55
 0 
LINE
 8 
0
 62 
 7 
 10 
1.058
 20 
1.55
 11 
1.05
 21 
1.558
 0 
LINE
 8 
0
 62 
 7 
 10 
1.133
 20 
1.567
 11 
1.1
 21 
1.567
 0 
LINE
 8 
0
 62 
 7 
 10 
1.1
 20 
1.567
 11 
1.1
 21 
1.575
 0 
LINE
 8 
0
 62 
 7 
 10 
1.1
 20 
1.575
 11 
1.125
 21 
1.6
 0 
LINE
 8 
0
 62 
 7 
 10 
1.125
 20 
1.6
 11 
1.125
 21 
1.55
 0 
CIRCLE
 8 
0
 62 
 7 
 10 
0.15
 20 
2.35
 40 
0.125
 0 
CIRCLE
 8 
0
 62 
 7 
 10 
0.15
 20 
2.35
 40 
0.062
 0 
CIRCLE
 8 
0
 62 
 7 
 10 
2.606
 20 
1.4
 40 
0.038
 0 
CIRCLE
 8 
0
 62 
 7 
 10 
2.606
 20 
1.4
 40 
0.02
 0 
CIRCLE
 8 
0
 62 
 7 
 10 
2.409
 20 
1.4
 40 
0.038
 0 
CIRCLE
 8 
0
 62 
 7 
 10 
2.409
 20 
1.4
 40 
0.02
 0 
CIRCLE
 8 
0
 62 
 7 
 10 
2.212
 20 
1.4
 40 
0.038
 0 
CIRCLE
 8 
0
 62 
 7 
 10 
2.212
 20 
1.4
 40 
0.02
 0 
LINE
 8 
0
 62 
 7 
 10 
1.978
 20 
1.438
 11 
2.053
 21 
1.438
 0 
LINE
 8 
0
 62 
 7 
 10 
2.053
 20 
1.438
 11 
2.053
 21 
1.363
 0 
LINE
 8 
0
 62 
 7 
 10 
2.053
 20 
1.363
 11 
1.978
 21 
1.363
 0 
LINE
 8 
0
 62 
 7 
 10 
1.978
 20 
1.363
 11 
1.978
 21 
1.438
 0 
CIRCLE
 8 
0
 62 
 7 
 10 
2.015
 20 
1.4
 40 
0.02
 0 
CIRCLE
 8 
0
 62 
 7 
 10 
3.196
 20 
1.4
 40 
0.038
 0 
CIRCLE
 8 
0
 62 
 7 
 10 
3.196
 20 
1.4
 40 
0.02
 0 
CIRCLE
 8 
0
 62 
 7 
 10 
3.196
 20 
2.4
 40 
0.038
 0 
CIRCLE
 8 
0
 62 
 7 
 10 
3.196
 20 
2.4
 40 
0.02
 0 
CIRCLE
 8 
0
 62 
 7 
 10 
3.393
 20 
2.4
 40 
0.038
 0 
CIRCLE
 8 
0
 62 
 7 
 10 
3.393
 20 
2.4
 40 
0.02
 0 
LINE
 8 
0
 62 
 7 
 10 
1.917
 20 
2.34
 11 
3.492
 21 
2.34
 0 
LINE
 8 
0
 62 
 7 
 10 
3.492
 20 
2.458
 11 
1.917
 21 
2.458
 0 
LINE
 8 
0
 62 
 7 
 10 
1.917
 20 
2.34
 11 
1.917
 21 
2.458
 0 
LINE
 8 
0
 62 
 7 
 10 
3.492
 20 
2.34
 11 
3.492
 21 
2.458
 0 
LINE
 8 
0
 62 
 7 
 10 
3.506
 20 
2.449
 11 
3.531
 21 
2.449
 0 
LINE
 8 
0
 62 
 7 
 10 
3.531
 20 
2.449
 11 
3.531
 21 
2.407
 0 
LINE
 8 
0
 62 
 7 
 10 
3.531
 20 
2.407
 11 
3.523
 21 
2.399
 0 
LINE
 8 
0
 62 
 7 
 10 
3.523
 20 
2.399
 11 
3.506
 21 
2.399
 0 
LINE
 8 
0
 62 
 7 
 10 
3.506
 20 
2.399
 11 
3.498
 21 
2.407
 0 
LINE
 8 
0
 62 
 7 
 10 
3.581
 20 
2.449
 11 
3.548
 21 
2.449
 0 
LINE
 8 
0
 62 
 7 
 10 
3.548
 20 
2.449
 11 
3.548
 21 
2.432
 0 
LINE
 8 
0
 62 
 7 
 10 
3.548
 20 
2.432
 11 
3.573
 21 
2.432
 0 
LINE
 8 
0
 62 
 7 
 10 
3.573
 20 
2.432
 11 
3.581
 21 
2.424
 0 
LINE
 8 
0
 62 
 7 
 10 
3.581
 20 
2.424
 11 
3.581
 21 
2.407
 0 
LINE
 8 
0
 62 
 7 
 10 
3.581
 20 
2.407
 11 
3.573
 21 
2.399
 0 
LINE
 8 
0
 62 
 7 
 10 
3.573
 20 
2.399
 11 
3.556
 21 
2.399
 0 
LINE
 8 
0
 62 
 7 
 10 
3.556
 20 
2.399
 11 
3.548
 21 
2.407
 0 
CIRCLE
 8 
0
 62 
 7 
 10 
3.393
 20 
1.4
 40 
0.038
 0 
CIRCLE
 8 
0
 62 
 7 
 10 
3.393
 20 
1.4
 40 
0.02
 0 
LINE
 8 
0
 62 
 7 
 10 
1.917
 20 
1.34
 11 
3.492
 21 
1.34
 0 
LINE
 8 
0
 62 
 7 
 10 
3.492
 20 
1.458
 11 
1.917
 21 
1.458
 0 
LINE
 8 
0
 62 
 7 
 10 
1.917
 20 
1.34
 11 
1.917
 21 
1.458
 0 
LINE
 8 
0
 62 
 7 
 10 
3.492
 20 
1.34
 11 
3.492
 21 
1.458
 0 
LINE
 8 
0
 62 
 7 
 10 
2.858
 20 
1.575
 11 
2.883
 21 
1.575
 0 
LINE
 8 
0
 62 
 7 
 10 
2.883
 20 
1.575
 11 
2.883
 21 
1.533
 0 
LINE
 8 
0
 62 
 7 
 10 
2.883
 20 
1.533
 11 
2.875
 21 
1.525
 0 
LINE
 8 
0
 62 
 7 
 10 
2.875
 20 
1.525
 11 
2.858
 21 
1.525
 0 
LINE
 8 
0
 62 
 7 
 10 
2.858
 20 
1.525
 11 
2.85
 21 
1.533
 0 
LINE
 8 
0
 62 
 7 
 10 
2.925
 20 
1.575
 11 
2.917
 21 
1.575
 0 
LINE
 8 
0
 62 
 7 
 10 
2.917
 20 
1.575
 11 
2.9
 21 
1.558
 0 
LINE
 8 
0
 62 
 7 
 10 
2.9
 20 
1.558
 11 
2.9
 21 
1.533
 0 
LINE
 8 
0
 62 
 7 
 10 
2.9
 20 
1.533
 11 
2.908
 21 
1.525
 0 
LINE
 8 
0
 62 
 7 
 10 
2.908
 20 
1.525
 11 
2.925
 21 
1.525
 0 
LINE
 8 
0
 62 
 7 
 10 
2.925
 20 
1.525
 11 
2.933
 21 
1.533
 0 
LINE
 8 
0
 62 
 7 
 10 
2.933
 20 
1.533
 11 
2.933
 21 
1.542
 0 
LINE
 8 
0
 62 
 7 
 10 
2.933
 20 
1.542
 11 
2.925
 21 
1.55
 0 
LINE
 8 
0
 62 
 7 
 10 
2.925
 20 
1.55
 11 
2.908
 21 
1.55
 0 
LINE
 8 
0
 62 
 7 
 10 
2.908
 20 
1.55
 11 
2.9
 21 
1.542
 0 
CIRCLE
 8 
0
 62 
 7 
 10 
3.386
 20 
1.831
 40 
0.09
 0 
CIRCLE
 8 
0
 62 
 7 
 10 
3.386
 20 
1.831
 40 
0.062
 0 
CIRCLE
 8 
0
 62 
 7 
 10 
3.636
 20 
1.831
 40 
0.09
 0 
CIRCLE
 8 
0
 62 
 7 
 10 
3.636
 20 
1.831
 40 
0.062
 0 
CIRCLE
 8 
0
 62 
 7 
 10 
3.511
 20 
2.031
 40 
0.09
 0 
CIRCLE
 8 
0
 62 
 7 
 10 
3.511
 20 
2.031
 40 
0.062
 0 
LINE
 8 
0
 62 
 7 
 10 
3.386
 20 
1.716
 11 
3.386
 21 
1.651
 0 
LINE
 8 
0
 62 
 7 
 10 
3.386
 20 
1.651
 11 
3.916
 21 
1.651
 0 
LINE
 8 
0
 62 
 7 
 10 
3.916
 20 
1.651
 11 
3.916
 21 
2.011
 0 
LINE
 8 
0
 62 
 7 
 10 
3.916
 20 
2.011
 11 
3.621
 21 
2.011
 0 
LINE
 8 
0
 62 
 7 
 10 
3.402
 20 
2.011
 11 
3.386
 21 
2.011
 0 
LINE
 8 
0
 62 
 7 
 10 
3.386
 20 
2.011
 11 
3.386
 21 
1.946
 0 
LINE
 8 
0
 62 
 7 
 10 
3.806
 20 
1.651
 11 
3.806
 21 
2.011
 0 
LINE
 8 
0
 62 
 7 
 10 
3.931
 20 
1.932
 11 
3.956
 21 
1.932
 0 
LINE
 8 
0
 62 
 7 
 10 
3.956
 20 
1.932
 11 
3.956
 21 
1.89
 0 
LINE
 8 
0
 62 
 7 
 10 
3.956
 20 
1.89
 11 
3.948
 21 
1.882
 0 
LINE
 8 
0
 62 
 7 
 10 
3.948
 20 
1.882
 11 
3.931
 21 
1.882
 0 
LINE
 8 
0
 62 
 7 
 10 
3.931
 20 
1.882
 11 
3.923
 21 
1.89
 0 
LINE
 8 
0
 62 
 7 
 10 
3.973
 20 
1.924
 11 
3.973
 21 
1.932
 0 
LINE
 8 
0
 62 
 7 
 10 
3.973
 20 
1.932
 11 
4.006
 21 
1.932
 0 
LINE
 8 
0
 62 
 7 
 10 
4.006
 20 
1.932
 11 
4.006
 21 
1.924
 0 
LINE
 8 
0
 62 
 7 
 10 
4.006
 20 
1.924
 11 
3.981
 21 
1.899
 0 
LINE
 8 
0
 62 
 7 
 10 
3.981
 20 
1.899
 11 
3.981
 21 
1.882
 0 
LINE
 8 
0
 62 
 7 
 10 
0.55
 20 
2.325
 11 
0.575
 21 
2.325
 0 
LINE
 8 
0
 62 
 7 
 10 
0.575
 20 
2.325
 11 
0.575
 21 
2.319
 0 
LINE
 8 
0
 62 
 7 
 10 
0.575
 20 
2.319
 11 
0.556
 21 
2.3
 0 
LINE
 8 
0
 62 
 7 
 10 
0.556
 20 
2.3
 11 
0.556
 21 
2.338
 0 
LINE
 8 
0
 62 
 7 
 10 
0.35
 20 
2.3
 11 
0.375
 21 
2.3
 0 
LINE
 8 
0
 62 
 7 
 10 
0.375
 20 
2.3
 11 
0.375
 21 
2.313
 0 
LINE
 8 
0
 62 
 7 
 10 
0.375
 20 
2.313
 11 
0.356
 21 
2.313
 0 
LINE
 8 
0
 62 
 7 
 10 
0.356
 20 
2.313
 11 
0.35
 21 
2.319
 0 
LINE
 8 
0
 62 
 7 
 10 
0.35
 20 
2.319
 11 
0.35
 21 
2.332
 0 
LINE
 8 
0
 62 
 7 
 10 
0.35
 20 
2.332
 11 
0.356
 21 
2.338
 0 
LINE
 8 
0
 62 
 7 
 10 
0.356
 20 
2.338
 11 
0.369
 21 
2.338
 0 
LINE
 8 
0
 62 
 7 
 10 
0.369
 20 
2.338
 11 
0.375
 21 
2.332
 0 
LINE
 8 
0
 62 
 7 
 10 
0.375
 20 
1.494
 11 
0.381
 21 
1.5
 0 
LINE
 8 
0
 62 
 7 
 10 
0.381
 20 
1.5
 11 
0.394
 21 
1.5
 0 
LINE
 8 
0
 62 
 7 
 10 
0.394
 20 
1.5
 11 
0.4
 21 
1.494
 0 
LINE
 8 
0
 62 
 7 
 10 
0.4
 20 
1.494
 11 
0.4
 21 
1.487
 0 
LINE
 8 
0
 62 
 7 
 10 
0.4
 20 
1.487
 11 
0.394
 21 
1.481
 0 
LINE
 8 
0
 62 
 7 
 10 
0.394
 20 
1.481
 11 
0.381
 21 
1.481
 0 
LINE
 8 
0
 62 
 7 
 10 
0.381
 20 
1.481
 11 
0.375
 21 
1.475
 0 
LINE
 8 
0
 62 
 7 
 10 
0.375
 20 
1.475
 11 
0.375
 21 
1.462
 0 
LINE
 8 
0
 62 
 7 
 10 
0.375
 20 
1.462
 11 
0.4
 21 
1.462
 0 
LINE
 8 
0
 62 
 7 
 10 
0.575
 20 
1.494
 11 
0.581
 21 
1.5
 0 
LINE
 8 
0
 62 
 7 
 10 
0.581
 20 
1.5
 11 
0.594
 21 
1.5
 0 
LINE
 8 
0
 62 
 7 
 10 
0.594
 20 
1.5
 11 
0.6
 21 
1.494
 0 
LINE
 8 
0
 62 
 7 
 10 
0.6
 20 
1.494
 11 
0.6
 21 
1.487
 0 
LINE
 8 
0
 62 
 7 
 10 
0.6
 20 
1.487
 11 
0.594
 21 
1.481
 0 
LINE
 8 
0
 62 
 7 
 10 
0.594
 20 
1.481
 11 
0.588
 21 
1.481
 0 
LINE
 8 
0
 62 
 7 
 10 
0.594
 20 
1.481
 11 
0.6
 21 
1.475
 0 
LINE
 8 
0
 62 
 7 
 10 
0.6
 20 
1.475
 11 
0.6
 21 
1.468
 0 
LINE
 8 
0
 62 
 7 
 10 
0.6
 20 
1.468
 11 
0.594
 21 
1.462
 0 
LINE
 8 
0
 62 
 7 
 10 
0.594
 20 
1.462
 11 
0.581
 21 
1.462
 0 
LINE
 8 
0
 62 
 7 
 10 
0.581
 20 
1.462
 11 
0.575
 21 
1.468
 0 
LINE
 8 
0
 62 
 7 
 10 
0.975
 20 
1.5
 11 
0.95
 21 
1.5
 0 
LINE
 8 
0
 62 
 7 
 10 
0.95
 20 
1.5
 11 
0.95
 21 
1.487
 0 
LINE
 8 
0
 62 
 7 
 10 
0.95
 20 
1.487
 11 
0.969
 21 
1.487
 0 
LINE
 8 
0
 62 
 7 
 10 
0.969
 20 
1.487
 11 
0.975
 21 
1.481
 0 
LINE
 8 
0
 62 
 7 
 10 
0.975
 20 
1.481
 11 
0.975
 21 
1.468
 0 
LINE
 8 
0
 62 
 7 
 10 
0.975
 20 
1.468
 11 
0.969
 21 
1.462
 0 
LINE
 8 
0
 62 
 7 
 10 
0.969
 20 
1.462
 11 
0.956
 21 
1.462
 0 
LINE
 8 
0
 62 
 7 
 10 
0.956
 20 
1.462
 11 
0.95
 21 
1.468
 0 
LINE
 8 
0
 62 
 7 
 10 
1.169
 20 
1.5
 11 
1.163
 21 
1.5
 0 
LINE
 8 
0
 62 
 7 
 10 
1.163
 20 
1.5
 11 
1.15
 21 
1.487
 0 
LINE
 8 
0
 62 
 7 
 10 
1.15
 20 
1.487
 11 
1.15
 21 
1.468
 0 
LINE
 8 
0
 62 
 7 
 10 
1.15
 20 
1.468
 11 
1.156
 21 
1.462
 0 
LINE
 8 
0
 62 
 7 
 10 
1.156
 20 
1.462
 11 
1.169
 21 
1.462
 0 
LINE
 8 
0
 62 
 7 
 10 
1.169
 20 
1.462
 11 
1.175
 21 
1.468
 0 
LINE
 8 
0
 62 
 7 
 10 
1.175
 20 
1.468
 11 
1.175
 21 
1.475
 0 
LINE
 8 
0
 62 
 7 
 10 
1.175
 20 
1.475
 11 
1.169
 21 
1.481
 0 
LINE
 8 
0
 62 
 7 
 10 
1.169
 20 
1.481
 11 
1.156
 21 
1.481
 0 
LINE
 8 
0
 62 
 7 
 10 
1.156
 20 
1.481
 11 
1.15
 21 
1.475
 0 
LINE
 8 
0
 62 
 7 
 10 
1.375
 20 
1.494
 11 
1.375
 21 
1.5
 0 
LINE
 8 
0
 62 
 7 
 10 
1.375
 20 
1.5
 11 
1.4
 21 
1.5
 0 
LINE
 8 
0
 62 
 7 
 10 
1.4
 20 
1.5
 11 
1.4
 21 
1.494
 0 
LINE
 8 
0
 62 
 7 
 10 
1.4
 20 
1.494
 11 
1.381
 21 
1.475
 0 
LINE
 8 
0
 62 
 7 
 10 
1.381
 20 
1.475
 11 
1.381
 21 
1.462
 0 
LINE
 8 
0
 62 
 7 
 10 
2.069
 20 
2.319
 11 
2.075
 21 
2.313
 0 
LINE
 8 
0
 62 
 7 
 10 
2.075
 20 
2.313
 11 
2.075
 21 
2.306
 0 
LINE
 8 
0
 62 
 7 
 10 
2.075
 20 
2.306
 11 
2.069
 21 
2.3
 0 
LINE
 8 
0
 62 
 7 
 10 
2.069
 20 
2.3
 11 
2.056
 21 
2.3
 0 
LINE
 8 
0
 62 
 7 
 10 
2.056
 20 
2.3
 11 
2.05
 21 
2.306
 0 
LINE
 8 
0
 62 
 7 
 10 
2.05
 20 
2.306
 11 
2.05
 21 
2.313
 0 
LINE
 8 
0
 62 
 7 
 10 
2.05
 20 
2.313
 11 
2.056
 21 
2.319
 0 
LINE
 8 
0
 62 
 7 
 10 
2.056
 20 
2.319
 11 
2.069
 21 
2.319
 0 
LINE
 8 
0
 62 
 7 
 10 
2.069
 20 
2.319
 11 
2.075
 21 
2.325
 0 
LINE
 8 
0
 62 
 7 
 10 
2.075
 20 
2.325
 11 
2.075
 21 
2.332
 0 
LINE
 8 
0
 62 
 7 
 10 
2.075
 20 
2.332
 11 
2.069
 21 
2.338
 0 
LINE
 8 
0
 62 
 7 
 10 
2.069
 20 
2.338
 11 
2.056
 21 
2.338
 0 
LINE
 8 
0
 62 
 7 
 10 
2.056
 20 
2.338
 11 
2.05
 21 
2.332
 0 
LINE
 8 
0
 62 
 7 
 10 
2.05
 20 
2.332
 11 
2.05
 21 
2.325
 0 
LINE
 8 
0
 62 
 7 
 10 
2.05
 20 
2.325
 11 
2.056
 21 
2.319
 0 
LINE
 8 
0
 62 
 7 
 10 
2.25
 20 
2.313
 11 
2.256
 21 
2.319
 0 
LINE
 8 
0
 62 
 7 
 10 
2.256
 20 
2.319
 11 
2.269
 21 
2.319
 0 
LINE
 8 
0
 62 
 7 
 10 
2.269
 20 
2.319
 11 
2.275
 21 
2.313
 0 
LINE
 8 
0
 62 
 7 
 10 
2.275
 20 
2.313
 11 
2.275
 21 
2.306
 0 
LINE
 8 
0
 62 
 7 
 10 
2.275
 20 
2.306
 11 
2.269
 21 
2.3
 0 
LINE
 8 
0
 62 
 7 
 10 
2.269
 20 
2.3
 11 
2.256
 21 
2.3
 0 
LINE
 8 
0
 62 
 7 
 10 
2.256
 20 
2.3
 11 
2.25
 21 
2.306
 0 
LINE
 8 
0
 62 
 7 
 10 
2.25
 20 
2.306
 11 
2.25
 21 
2.325
 0 
LINE
 8 
0
 62 
 7 
 10 
2.25
 20 
2.325
 11 
2.262
 21 
2.338
 0 
LINE
 8 
0
 62 
 7 
 10 
2.262
 20 
2.338
 11 
2.269
 21 
2.338
 0 
LINE
 8 
0
 62 
 7 
 10 
2.494
 20 
2.306
 11 
2.487
 21 
2.3
 0 
LINE
 8 
0
 62 
 7 
 10 
2.487
 20 
2.3
 11 
2.487
 21 
2.338
 0 
LINE
 8 
0
 62 
 7 
 10 
2.494
 20 
2.338
 11 
2.481
 21 
2.338
 0 
LINE
 8 
0
 62 
 7 
 10 
2.462
 20 
2.332
 11 
2.462
 21 
2.306
 0 
LINE
 8 
0
 62 
 7 
 10 
2.462
 20 
2.306
 11 
2.456
 21 
2.3
 0 
LINE
 8 
0
 62 
 7 
 10 
2.456
 20 
2.3
 11 
2.443
 21 
2.3
 0 
LINE
 8 
0
 62 
 7 
 10 
2.443
 20 
2.3
 11 
2.437
 21 
2.306
 0 
LINE
 8 
0
 62 
 7 
 10 
2.437
 20 
2.306
 11 
2.437
 21 
2.332
 0 
LINE
 8 
0
 62 
 7 
 10 
2.437
 20 
2.332
 11 
2.443
 21 
2.338
 0 
LINE
 8 
0
 62 
 7 
 10 
2.443
 20 
2.338
 11 
2.456
 21 
2.338
 0 
LINE
 8 
0
 62 
 7 
 10 
2.456
 20 
2.338
 11 
2.462
 21 
2.332
 0 
LINE
 8 
0
 62 
 7 
 10 
2.462
 20 
2.332
 11 
2.437
 21 
2.306
 0 
LINE
 8 
0
 62 
 7 
 10 
2.694
 20 
2.306
 11 
2.687
 21 
2.3
 0 
LINE
 8 
0
 62 
 7 
 10 
2.687
 20 
2.3
 11 
2.687
 21 
2.338
 0 
LINE
 8 
0
 62 
 7 
 10 
2.694
 20 
2.338
 11 
2.681
 21 
2.338
 0 
LINE
 8 
0
 62 
 7 
 10 
2.656
 20 
2.306
 11 
2.649
 21 
2.3
 0 
LINE
 8 
0
 62 
 7 
 10 
2.649
 20 
2.3
 11 
2.649
 21 
2.338
 0 
LINE
 8 
0
 62 
 7 
 10 
2.656
 20 
2.338
 11 
2.643
 21 
2.338
 0 
LINE
 8 
0
 62 
 7 
 10 
2.869
 20 
2.306
 11 
2.862
 21 
2.3
 0 
LINE
 8 
0
 62 
 7 
 10 
2.862
 20 
2.3
 11 
2.862
 21 
2.338
 0 
LINE
 8 
0
 62 
 7 
 10 
2.869
 20 
2.338
 11 
2.856
 21 
2.338
 0 
LINE
 8 
0
 62 
 7 
 10 
2.837
 20 
2.306
 11 
2.831
 21 
2.3
 0 
LINE
 8 
0
 62 
 7 
 10 
2.831
 20 
2.3
 11 
2.818
 21 
2.3
 0 
LINE
 8 
0
 62 
 7 
 10 
2.818
 20 
2.3
 11 
2.812
 21 
2.306
 0 
LINE
 8 
0
 62 
 7 
 10 
2.812
 20 
2.306
 11 
2.812
 21 
2.313
 0 
LINE
 8 
0
 62 
 7 
 10 
2.812
 20 
2.313
 11 
2.818
 21 
2.319
 0 
LINE
 8 
0
 62 
 7 
 10 
2.818
 20 
2.319
 11 
2.831
 21 
2.319
 0 
LINE
 8 
0
 62 
 7 
 10 
2.831
 20 
2.319
 11 
2.837
 21 
2.325
 0 
LINE
 8 
0
 62 
 7 
 10 
2.837
 20 
2.325
 11 
2.837
 21 
2.338
 0 
LINE
 8 
0
 62 
 7 
 10 
2.837
 20 
2.338
 11 
2.812
 21 
2.338
 0 
LINE
 8 
0
 62 
 7 
 10 
3.069
 20 
2.306
 11 
3.062
 21 
2.3
 0 
LINE
 8 
0
 62 
 7 
 10 
3.062
 20 
2.3
 11 
3.062
 21 
2.338
 0 
LINE
 8 
0
 62 
 7 
 10 
3.069
 20 
2.338
 11 
3.056
 21 
2.338
 0 
LINE
 8 
0
 62 
 7 
 10 
3.037
 20 
2.306
 11 
3.031
 21 
2.3
 0 
LINE
 8 
0
 62 
 7 
 10 
3.031
 20 
2.3
 11 
3.018
 21 
2.3
 0 
LINE
 8 
0
 62 
 7 
 10 
3.018
 20 
2.3
 11 
3.012
 21 
2.306
 0 
LINE
 8 
0
 62 
 7 
 10 
3.012
 20 
2.306
 11 
3.012
 21 
2.313
 0 
LINE
 8 
0
 62 
 7 
 10 
3.012
 20 
2.313
 11 
3.018
 21 
2.319
 0 
LINE
 8 
0
 62 
 7 
 10 
3.018
 20 
2.319
 11 
3.024
 21 
2.319
 0 
LINE
 8 
0
 62 
 7 
 10 
3.018
 20 
2.319
 11 
3.012
 21 
2.325
 0 
LINE
 8 
0
 62 
 7 
 10 
3.012
 20 
2.325
 11 
3.012
 21 
2.332
 0 
LINE
 8 
0
 62 
 7 
 10 
3.012
 20 
2.332
 11 
3.018
 21 
2.338
 0 
LINE
 8 
0
 62 
 7 
 10 
3.018
 20 
2.338
 11 
3.031
 21 
2.338
 0 
LINE
 8 
0
 62 
 7 
 10 
3.031
 20 
2.338
 11 
3.037
 21 
2.332
 0 
LINE
 8 
0
 62 
 7 
 10 
1.975
 20 
1.462
 11 
1.975
 21 
1.5
 0 
LINE
 8 
0
 62 
 7 
 10 
1.975
 20 
1.5
 11 
1.994
 21 
1.5
 0 
LINE
 8 
0
 62 
 7 
 10 
1.994
 20 
1.5
 11 
2.0
 21 
1.494
 0 
LINE
 8 
0
 62 
 7 
 10 
2.0
 20 
1.494
 11 
2.0
 21 
1.487
 0 
LINE
 8 
0
 62 
 7 
 10 
2.0
 20 
1.487
 11 
1.994
 21 
1.481
 0 
LINE
 8 
0
 62 
 7 
 10 
1.994
 20 
1.481
 11 
1.975
 21 
1.481
 0 
LINE
 8 
0
 62 
 7 
 10 
1.981
 20 
1.481
 11 
2.0
 21 
1.462
 0 
LINE
 8 
0
 62 
 7 
 10 
2.013
 20 
1.5
 11 
2.013
 21 
1.494
 0 
LINE
 8 
0
 62 
 7 
 10 
2.013
 20 
1.494
 11 
2.038
 21 
1.468
 0 
LINE
 8 
0
 62 
 7 
 10 
2.038
 20 
1.468
 11 
2.038
 21 
1.462
 0 
LINE
 8 
0
 62 
 7 
 10 
2.038
 20 
1.5
 11 
2.038
 21 
1.494
 0 
LINE
 8 
0
 62 
 7 
 10 
2.038
 20 
1.494
 11 
2.013
 21 
1.468
 0 
LINE
 8 
0
 62 
 7 
 10 
2.013
 20 
1.468
 11 
2.013
 21 
1.462
 0 
LINE
 8 
0
 62 
 7 
 10 
2.175
 20 
1.5
 11 
2.2
 21 
1.5
 0 
LINE
 8 
0
 62 
 7 
 10 
2.188
 20 
1.5
 11 
2.188
 21 
1.462
 0 
LINE
 8 
0
 62 
 7 
 10 
2.213
 20 
1.5
 11 
2.213
 21 
1.494
 0 
LINE
 8 
0
 62 
 7 
 10 
2.213
 20 
1.494
 11 
2.238
 21 
1.468
 0 
LINE
 8 
0
 62 
 7 
 10 
2.238
 20 
1.468
 11 
2.238
 21 
1.462
 0 
LINE
 8 
0
 62 
 7 
 10 
2.238
 20 
1.5
 11 
2.238
 21 
1.494
 0 
LINE
 8 
0
 62 
 7 
 10 
2.238
 20 
1.494
 11 
2.213
 21 
1.468
 0 
LINE
 8 
0
 62 
 7 
 10 
2.213
 20 
1.468
 11 
2.213
 21 
1.462
 0 
LINE
 8 
0
 62 
 7 
 10 
2.563
 20 
1.494
 11 
2.563
 21 
1.468
 0 
LINE
 8 
0
 62 
 7 
 10 
2.55
 20 
1.481
 11 
2.575
 21 
1.481
 0 
LINE
 8 
0
 62 
 7 
 10 
2.613
 20 
1.5
 11 
2.588
 21 
1.5
 0 
LINE
 8 
0
 62 
 7 
 10 
2.588
 20 
1.5
 11 
2.588
 21 
1.487
 0 
LINE
 8 
0
 62 
 7 
 10 
2.588
 20 
1.487
 11 
2.607
 21 
1.487
 0 
LINE
 8 
0
 62 
 7 
 10 
2.607
 20 
1.487
 11 
2.613
 21 
1.481
 0 
LINE
 8 
0
 62 
 7 
 10 
2.613
 20 
1.481
 11 
2.613
 21 
1.468
 0 
LINE
 8 
0
 62 
 7 
 10 
2.613
 20 
1.468
 11 
2.607
 21 
1.462
 0 
LINE
 8 
0
 62 
 7 
 10 
2.607
 20 
1.462
 11 
2.594
 21 
1.462
 0 
LINE
 8 
0
 62 
 7 
 10 
2.594
 20 
1.462
 11 
2.588
 21 
1.468
 0 
LINE
 8 
0
 62 
 7 
 10 
2.626
 20 
1.5
 11 
2.626
 21 
1.481
 0 
LINE
 8 
0
 62 
 7 
 10 
2.626
 20 
1.481
 11 
2.639
 21 
1.468
 0 
LINE
 8 
0
 62 
 7 
 10 
2.639
 20 
1.468
 11 
2.651
 21 
1.481
 0 
LINE
 8 
0
 62 
 7 
 10 
2.651
 20 
1.481
 11 
2.651
 21 
1.5
 0 
LINE
 8 
0
 62 
 7 
 10 
2.639
 20 
1.468
 11 
2.639
 21 
1.462
 0 
LINE
 8 
0
 62 
 7 
 10 
3.35
 20 
1.494
 11 
3.344
 21 
1.5
 0 
LINE
 8 
0
 62 
 7 
 10 
3.344
 20 
1.5
 11 
3.331
 21 
1.5
 0 
LINE
 8 
0
 62 
 7 
 10 
3.331
 20 
1.5
 11 
3.325
 21 
1.494
 0 
LINE
 8 
0
 62 
 7 
 10 
3.325
 20 
1.494
 11 
3.325
 21 
1.468
 0 
LINE
 8 
0
 62 
 7 
 10 
3.325
 20 
1.468
 11 
3.331
 21 
1.462
 0 
LINE
 8 
0
 62 
 7 
 10 
3.331
 20 
1.462
 11 
3.35
 21 
1.462
 0 
LINE
 8 
0
 62 
 7 
 10 
3.35
 20 
1.462
 11 
3.35
 21 
1.475
 0 
LINE
 8 
0
 62 
 7 
 10 
3.35
 20 
1.475
 11 
3.344
 21 
1.475
 0 
LINE
 8 
0
 62 
 7 
 10 
3.363
 20 
1.462
 11 
3.363
 21 
1.5
 0 
LINE
 8 
0
 62 
 7 
 10 
3.363
 20 
1.5
 11 
3.388
 21 
1.475
 0 
LINE
 8 
0
 62 
 7 
 10 
3.388
 20 
1.5
 11 
3.388
 21 
1.462
 0 
LINE
 8 
0
 62 
 7 
 10 
3.401
 20 
1.5
 11 
3.42
 21 
1.5
 0 
LINE
 8 
0
 62 
 7 
 10 
3.42
 20 
1.5
 11 
3.426
 21 
1.494
 0 
LINE
 8 
0
 62 
 7 
 10 
3.426
 20 
1.494
 11 
3.426
 21 
1.468
 0 
LINE
 8 
0
 62 
 7 
 10 
3.426
 20 
1.468
 11 
3.42
 21 
1.462
 0 
LINE
 8 
0
 62 
 7 
 10 
3.42
 20 
1.462
 11 
3.401
 21 
1.462
 0 
LINE
 8 
0
 62 
 7 
 10 
3.407
 20 
1.5
 11 
3.407
 21 
1.462
 0 
LINE
 8 
0
 62 
 7 
 10 
2.827
 20 
1.69
 11 
3.024
 21 
1.69
 0 
LINE
 8 
0
 62 
 7 
 10 
2.056
 20 
2.019
 11 
2.063
 21 
2.025
 0 
LINE
 8 
0
 62 
 7 
 10 
2.063
 20 
2.025
 11 
2.063
 21 
1.987
 0 
LINE
 8 
0
 62 
 7 
 10 
2.056
 20 
1.987
 11 
2.069
 21 
1.987
 0 
LINE
 8 
0
 62 
 7 
 10 
2.325
 20 
2.019
 11 
2.331
 21 
2.025
 0 
LINE
 8 
0
 62 
 7 
 10 
2.331
 20 
2.025
 11 
2.344
 21 
2.025
 0 
LINE
 8 
0
 62 
 7 
 10 
2.344
 20 
2.025
 11 
2.35
 21 
2.019
 0 
LINE
 8 
0
 62 
 7 
 10 
2.35
 20 
2.019
 11 
2.35
 21 
2.012
 0 
LINE
 8 
0
 62 
 7 
 10 
2.35
 20 
2.012
 11 
2.344
 21 
2.006
 0 
LINE
 8 
0
 62 
 7 
 10 
2.344
 20 
2.006
 11 
2.331
 21 
2.006
 0 
LINE
 8 
0
 62 
 7 
 10 
2.331
 20 
2.006
 11 
2.325
 21 
2.0
 0 
LINE
 8 
0
 62 
 7 
 10 
2.325
 20 
2.0
 11 
2.325
 21 
1.987
 0 
LINE
 8 
0
 62 
 7 
 10 
2.325
 20 
1.987
 11 
2.35
 21 
1.987
 0 
LINE
 8 
0
 62 
 7 
 10 
2.05
 20 
1.919
 11 
2.056
 21 
1.925
 0 
LINE
 8 
0
 62 
 7 
 10 
2.056
 20 
1.925
 11 
2.069
 21 
1.925
 0 
LINE
 8 
0
 62 
 7 
 10 
2.069
 20 
1.925
 11 
2.075
 21 
1.919
 0 
LINE
 8 
0
 62 
 7 
 10 
2.075
 20 
1.919
 11 
2.075
 21 
1.912
 0 
LINE
 8 
0
 62 
 7 
 10 
2.075
 20 
1.912
 11 
2.069
 21 
1.906
 0 
LINE
 8 
0
 62 
 7 
 10 
2.069
 20 
1.906
 11 
2.063
 21 
1.906
 0 
LINE
 8 
0
 62 
 7 
 10 
2.069
 20 
1.906
 11 
2.075
 21 
1.9
 0 
LINE
 8 
0
 62 
 7 
 10 
2.075
 20 
1.9
 11 
2.075
 21 
1.893
 0 
LINE
 8 
0
 62 
 7 
 10 
2.075
 20 
1.893
 11 
2.069
 21 
1.887
 0 
LINE
 8 
0
 62 
 7 
 10 
2.069
 20 
1.887
 11 
2.056
 21 
1.887
 0 
LINE
 8 
0
 62 
 7 
 10 
2.056
 20 
1.887
 11 
2.05
 21 
1.893
 0 
LINE
 8 
0
 62 
 7 
 10 
2.325
 20 
1.9
 11 
2.3
 21 
1.9
 0 
LINE
 8 
0
 62 
 7 
 10 
2.3
 20 
1.9
 11 
2.3
 21 
1.906
 0 
LINE
 8 
0
 62 
 7 
 10 
2.3
 20 
1.906
 11 
2.319
 21 
1.925
 0 
LINE
 8 
0
 62 
 7 
 10 
2.319
 20 
1.925
 11 
2.319
 21 
1.887
 0 
LINE
 8 
0
 62 
 7 
 10 
2.075
 20 
1.825
 11 
2.05
 21 
1.825
 0 
LINE
 8 
0
 62 
 7 
 10 
2.05
 20 
1.825
 11 
2.05
 21 
1.812
 0 
LINE
 8 
0
 62 
 7 
 10 
2.05
 20 
1.812
 11 
2.069
 21 
1.812
 0 
LINE
 8 
0
 62 
 7 
 10 
2.069
 20 
1.812
 11 
2.075
 21 
1.806
 0 
LINE
 8 
0
 62 
 7 
 10 
2.075
 20 
1.806
 11 
2.075
 21 
1.793
 0 
LINE
 8 
0
 62 
 7 
 10 
2.075
 20 
1.793
 11 
2.069
 21 
1.787
 0 
LINE
 8 
0
 62 
 7 
 10 
2.069
 20 
1.787
 11 
2.056
 21 
1.787
 0 
LINE
 8 
0
 62 
 7 
 10 
2.056
 20 
1.787
 11 
2.05
 21 
1.793
 0 
LINE
 8 
0
 62 
 7 
 10 
2.269
 20 
1.75
 11 
2.263
 21 
1.75
 0 
LINE
 8 
0
 62 
 7 
 10 
2.263
 20 
1.75
 11 
2.25
 21 
1.737
 0 
LINE
 8 
0
 62 
 7 
 10 
2.25
 20 
1.737
 11 
2.25
 21 
1.718
 0 
LINE
 8 
0
 62 
 7 
 10 
2.25
 20 
1.718
 11 
2.256
 21 
1.712
 0 
LINE
 8 
0
 62 
 7 
 10 
2.256
 20 
1.712
 11 
2.269
 21 
1.712
 0 
LINE
 8 
0
 62 
 7 
 10 
2.269
 20 
1.712
 11 
2.275
 21 
1.718
 0 
LINE
 8 
0
 62 
 7 
 10 
2.275
 20 
1.718
 11 
2.275
 21 
1.725
 0 
LINE
 8 
0
 62 
 7 
 10 
2.275
 20 
1.725
 11 
2.269
 21 
1.731
 0 
LINE
 8 
0
 62 
 7 
 10 
2.269
 20 
1.731
 11 
2.256
 21 
1.731
 0 
LINE
 8 
0
 62 
 7 
 10 
2.256
 20 
1.731
 11 
2.25
 21 
1.725
 0 
LINE
 8 
0
 62 
 7 
 10 
0.025
 20 
2.475
 11 
3.775
 21 
2.475
 0 
LINE
 8 
0
 62 
 7 
 10 
3.775
 20 
2.475
 11 
3.775
 21 
1.325
 0 
LINE
 8 
0
 62 
 7 
 10 
3.775
 20 
1.325
 11 
0.0
 21 
1.325
 0 
LINE
 8 
0
 62 
 7 
 10 
0.025
 20 
1.325
 11 
0.025
 21 
2.475
 0 
LINE
 8 
0
 62 
 7 
 10 
0.622
 20 
1.775
 11 
0.678
 21 
1.775
 0 
LINE
 8 
0
 62 
 7 
 10 
0.678
 20 
1.775
 11 
0.678
 21 
1.719
 0 
LINE
 8 
0
 62 
 7 
 10 
0.678
 20 
1.719
 11 
0.622
 21 
1.719
 0 
LINE
 8 
0
 62 
 7 
 10 
0.622
 20 
1.719
 11 
0.622
 21 
1.775
 0 
CIRCLE
 8 
0
 62 
 7 
 10 
0.65
 20 
1.747
 40 
0.014
 0 
CIRCLE
 8 
0
 62 
 7 
 10 
0.75
 20 
1.747
 40 
0.028
 0 
CIRCLE
 8 
0
 62 
 7 
 10 
0.75
 20 
1.747
 40 
0.014
 0 
CIRCLE
 8 
0
 62 
 7 
 10 
0.85
 20 
1.747
 40 
0.028
 0 
CIRCLE
 8 
0
 62 
 7 
 10 
0.85
 20 
1.747
 40 
0.014
 0 
LINE
 8 
0
 62 
 7 
 10 
1.15
 20 
2.263
 11 
1.15
 21 
2.238
 0 
LINE
 8 
0
 62 
 7 
 10 
1.15
 20 
2.238
 11 
1.137
 21 
2.225
 0 
LINE
 8 
0
 62 
 7 
 10 
1.137
 20 
2.225
 11 
1.125
 21 
2.238
 0 
LINE
 8 
0
 62 
 7 
 10 
1.125
 20 
2.238
 11 
1.125
 21 
2.263
 0 
LINE
 8 
0
 62 
 7 
 10 
1.15
 20 
2.25
 11 
1.125
 21 
2.25
 0 
LINE
 8 
0
 62 
 7 
 10 
1.112
 20 
2.263
 11 
1.112
 21 
2.225
 0 
LINE
 8 
0
 62 
 7 
 10 
1.112
 20 
2.225
 11 
1.087
 21 
2.25
 0 
LINE
 8 
0
 62 
 7 
 10 
1.087
 20 
2.225
 11 
1.087
 21 
2.263
 0 
LINE
 8 
0
 62 
 7 
 10 
1.074
 20 
2.263
 11 
1.074
 21 
2.238
 0 
LINE
 8 
0
 62 
 7 
 10 
1.074
 20 
2.238
 11 
1.061
 21 
2.225
 0 
LINE
 8 
0
 62 
 7 
 10 
1.061
 20 
2.225
 11 
1.049
 21 
2.238
 0 
LINE
 8 
0
 62 
 7 
 10 
1.049
 20 
2.238
 11 
1.049
 21 
2.263
 0 
LINE
 8 
0
 62 
 7 
 10 
1.074
 20 
2.25
 11 
1.049
 21 
2.25
 0 
LINE
 8 
0
 62 
 7 
 10 
1.036
 20 
2.225
 11 
1.036
 21 
2.263
 0 
LINE
 8 
0
 62 
 7 
 10 
1.036
 20 
2.263
 11 
1.011
 21 
2.263
 0 
LINE
 8 
0
 62 
 7 
 10 
0.973
 20 
2.231
 11 
0.979
 21 
2.225
 0 
LINE
 8 
0
 62 
 7 
 10 
0.979
 20 
2.225
 11 
0.992
 21 
2.225
 0 
LINE
 8 
0
 62 
 7 
 10 
0.992
 20 
2.225
 11 
0.998
 21 
2.231
 0 
LINE
 8 
0
 62 
 7 
 10 
0.998
 20 
2.231
 11 
0.998
 21 
2.257
 0 
LINE
 8 
0
 62 
 7 
 10 
0.998
 20 
2.257
 11 
0.992
 21 
2.263
 0 
LINE
 8 
0
 62 
 7 
 10 
0.992
 20 
2.263
 11 
0.979
 21 
2.263
 0 
LINE
 8 
0
 62 
 7 
 10 
0.979
 20 
2.263
 11 
0.973
 21 
2.257
 0 
LINE
 8 
0
 62 
 7 
 10 
0.973
 20 
2.257
 11 
0.973
 21 
2.231
 0 
LINE
 8 
0
 62 
 7 
 10 
0.935
 20 
2.231
 11 
0.941
 21 
2.225
 0 
LINE
 8 
0
 62 
 7 
 10 
0.941
 20 
2.225
 11 
0.954
 21 
2.225
 0 
LINE
 8 
0
 62 
 7 
 10 
0.954
 20 
2.225
 11 
0.96
 21 
2.231
 0 
LINE
 8 
0
 62 
 7 
 10 
0.96
 20 
2.231
 11 
0.96
 21 
2.257
 0 
LINE
 8 
0
 62 
 7 
 10 
0.96
 20 
2.257
 11 
0.954
 21 
2.263
 0 
LINE
 8 
0
 62 
 7 
 10 
0.954
 20 
2.263
 11 
0.935
 21 
2.263
 0 
LINE
 8 
0
 62 
 7 
 10 
0.935
 20 
2.263
 11 
0.935
 21 
2.25
 0 
LINE
 8 
0
 62 
 7 
 10 
0.935
 20 
2.25
 11 
0.941
 21 
2.25
 0 
LINE
 8 
0
 62 
 7 
 10 
0.4
 20 
1.55
 11 
0.419
 21 
1.55
 0 
LINE
 8 
0
 62 
 7 
 10 
0.419
 20 
1.55
 11 
0.425
 21 
1.544
 0 
LINE
 8 
0
 62 
 7 
 10 
0.425
 20 
1.544
 11 
0.425
 21 
1.518
 0 
LINE
 8 
0
 62 
 7 
 10 
0.425
 20 
1.518
 11 
0.419
 21 
1.512
 0 
LINE
 8 
0
 62 
 7 
 10 
0.419
 20 
1.512
 11 
0.4
 21 
1.512
 0 
LINE
 8 
0
 62 
 7 
 10 
0.406
 20 
1.55
 11 
0.406
 21 
1.512
 0 
LINE
 8 
0
 62 
 7 
 10 
0.444
 20 
1.55
 11 
0.457
 21 
1.55
 0 
LINE
 8 
0
 62 
 7 
 10 
0.444
 20 
1.512
 11 
0.457
 21 
1.512
 0 
LINE
 8 
0
 62 
 7 
 10 
0.451
 20 
1.55
 11 
0.451
 21 
1.512
 0 
LINE
 8 
0
 62 
 7 
 10 
0.501
 20 
1.544
 11 
0.495
 21 
1.55
 0 
LINE
 8 
0
 62 
 7 
 10 
0.495
 20 
1.55
 11 
0.482
 21 
1.55
 0 
LINE
 8 
0
 62 
 7 
 10 
0.482
 20 
1.55
 11 
0.476
 21 
1.544
 0 
LINE
 8 
0
 62 
 7 
 10 
0.476
 20 
1.544
 11 
0.476
 21 
1.518
 0 
LINE
 8 
0
 62 
 7 
 10 
0.476
 20 
1.518
 11 
0.482
 21 
1.512
 0 
LINE
 8 
0
 62 
 7 
 10 
0.482
 20 
1.512
 11 
0.501
 21 
1.512
 0 
LINE
 8 
0
 62 
 7 
 10 
0.501
 20 
1.512
 11 
0.501
 21 
1.525
 0 
LINE
 8 
0
 62 
 7 
 10 
0.501
 20 
1.525
 11 
0.495
 21 
1.525
 0 
LINE
 8 
0
 62 
 7 
 10 
0.52
 20 
1.55
 11 
0.533
 21 
1.55
 0 
LINE
 8 
0
 62 
 7 
 10 
0.52
 20 
1.512
 11 
0.533
 21 
1.512
 0 
LINE
 8 
0
 62 
 7 
 10 
0.527
 20 
1.55
 11 
0.527
 21 
1.512
 0 
LINE
 8 
0
 62 
 7 
 10 
0.552
 20 
1.55
 11 
0.577
 21 
1.55
 0 
LINE
 8 
0
 62 
 7 
 10 
0.565
 20 
1.55
 11 
0.565
 21 
1.512
 0 
LINE
 8 
0
 62 
 7 
 10 
0.59
 20 
1.512
 11 
0.59
 21 
1.537
 0 
LINE
 8 
0
 62 
 7 
 10 
0.59
 20 
1.537
 11 
0.603
 21 
1.55
 0 
LINE
 8 
0
 62 
 7 
 10 
0.603
 20 
1.55
 11 
0.615
 21 
1.537
 0 
LINE
 8 
0
 62 
 7 
 10 
0.615
 20 
1.537
 11 
0.615
 21 
1.512
 0 
LINE
 8 
0
 62 
 7 
 10 
0.59
 20 
1.525
 11 
0.615
 21 
1.525
 0 
LINE
 8 
0
 62 
 7 
 10 
0.628
 20 
1.55
 11 
0.628
 21 
1.512
 0 
LINE
 8 
0
 62 
 7 
 10 
0.628
 20 
1.512
 11 
0.653
 21 
1.512
 0 
LINE
 8 
0
 62 
 7 
 10 
2.7
 20 
2.225
 11 
2.681
 21 
2.225
 0 
LINE
 8 
0
 62 
 7 
 10 
2.681
 20 
2.225
 11 
2.675
 21 
2.231
 0 
LINE
 8 
0
 62 
 7 
 10 
2.675
 20 
2.231
 11 
2.675
 21 
2.257
 0 
LINE
 8 
0
 62 
 7 
 10 
2.675
 20 
2.257
 11 
2.681
 21 
2.263
 0 
LINE
 8 
0
 62 
 7 
 10 
2.681
 20 
2.263
 11 
2.7
 21 
2.263
 0 
LINE
 8 
0
 62 
 7 
 10 
2.694
 20 
2.225
 11 
2.694
 21 
2.263
 0 
LINE
 8 
0
 62 
 7 
 10 
2.656
 20 
2.225
 11 
2.643
 21 
2.225
 0 
LINE
 8 
0
 62 
 7 
 10 
2.656
 20 
2.263
 11 
2.643
 21 
2.263
 0 
LINE
 8 
0
 62 
 7 
 10 
2.649
 20 
2.225
 11 
2.649
 21 
2.263
 0 
LINE
 8 
0
 62 
 7 
 10 
2.599
 20 
2.231
 11 
2.605
 21 
2.225
 0 
LINE
 8 
0
 62 
 7 
 10 
2.605
 20 
2.225
 11 
2.618
 21 
2.225
 0 
LINE
 8 
0
 62 
 7 
 10 
2.618
 20 
2.225
 11 
2.624
 21 
2.231
 0 
LINE
 8 
0
 62 
 7 
 10 
2.624
 20 
2.231
 11 
2.624
 21 
2.257
 0 
LINE
 8 
0
 62 
 7 
 10 
2.624
 20 
2.257
 11 
2.618
 21 
2.263
 0 
LINE
 8 
0
 62 
 7 
 10 
2.618
 20 
2.263
 11 
2.599
 21 
2.263
 0 
LINE
 8 
0
 62 
 7 
 10 
2.599
 20 
2.263
 11 
2.599
 21 
2.25
 0 
LINE
 8 
0
 62 
 7 
 10 
2.599
 20 
2.25
 11 
2.605
 21 
2.25
 0 
LINE
 8 
0
 62 
 7 
 10 
2.58
 20 
2.225
 11 
2.567
 21 
2.225
 0 
LINE
 8 
0
 62 
 7 
 10 
2.58
 20 
2.263
 11 
2.567
 21 
2.263
 0 
LINE
 8 
0
 62 
 7 
 10 
2.573
 20 
2.225
 11 
2.573
 21 
2.263
 0 
LINE
 8 
0
 62 
 7 
 10 
2.548
 20 
2.225
 11 
2.523
 21 
2.225
 0 
LINE
 8 
0
 62 
 7 
 10 
2.535
 20 
2.225
 11 
2.535
 21 
2.263
 0 
LINE
 8 
0
 62 
 7 
 10 
2.51
 20 
2.263
 11 
2.51
 21 
2.238
 0 
LINE
 8 
0
 62 
 7 
 10 
2.51
 20 
2.238
 11 
2.497
 21 
2.225
 0 
LINE
 8 
0
 62 
 7 
 10 
2.497
 20 
2.225
 11 
2.485
 21 
2.238
 0 
LINE
 8 
0
 62 
 7 
 10 
2.485
 20 
2.238
 11 
2.485
 21 
2.263
 0 
LINE
 8 
0
 62 
 7 
 10 
2.51
 20 
2.25
 11 
2.485
 21 
2.25
 0 
LINE
 8 
0
 62 
 7 
 10 
2.472
 20 
2.225
 11 
2.472
 21 
2.263
 0 
LINE
 8 
0
 62 
 7 
 10 
2.472
 20 
2.263
 11 
2.447
 21 
2.263
 0 
LINE
 8 
0
 62 
 7 
 10 
2.156
 20 
2.1
 11 
2.169
 21 
2.1
 0 
LINE
 8 
0
 62 
 7 
 10 
2.156
 20 
2.062
 11 
2.169
 21 
2.062
 0 
LINE
 8 
0
 62 
 7 
 10 
2.163
 20 
2.1
 11 
2.163
 21 
2.062
 0 
LINE
 8 
0
 62 
 7 
 10 
2.213
 20 
2.094
 11 
2.207
 21 
2.1
 0 
LINE
 8 
0
 62 
 7 
 10 
2.207
 20 
2.1
 11 
2.194
 21 
2.1
 0 
LINE
 8 
0
 62 
 7 
 10 
2.194
 20 
2.1
 11 
2.188
 21 
2.094
 0 
LINE
 8 
0
 62 
 7 
 10 
2.188
 20 
2.094
 11 
2.188
 21 
2.087
 0 
LINE
 8 
0
 62 
 7 
 10 
2.188
 20 
2.087
 11 
2.194
 21 
2.081
 0 
LINE
 8 
0
 62 
 7 
 10 
2.194
 20 
2.081
 11 
2.207
 21 
2.081
 0 
LINE
 8 
0
 62 
 7 
 10 
2.207
 20 
2.081
 11 
2.213
 21 
2.075
 0 
LINE
 8 
0
 62 
 7 
 10 
2.213
 20 
2.075
 11 
2.213
 21 
2.068
 0 
LINE
 8 
0
 62 
 7 
 10 
2.213
 20 
2.068
 11 
2.207
 21 
2.062
 0 
LINE
 8 
0
 62 
 7 
 10 
2.207
 20 
2.062
 11 
2.194
 21 
2.062
 0 
LINE
 8 
0
 62 
 7 
 10 
2.194
 20 
2.062
 11 
2.188
 21 
2.068
 0 
LINE
 8 
0
 62 
 7 
 10 
2.226
 20 
2.062
 11 
2.226
 21 
2.1
 0 
LINE
 8 
0
 62 
 7 
 10 
2.226
 20 
2.1
 11 
2.245
 21 
2.1
 0 
LINE
 8 
0
 62 
 7 
 10 
2.245
 20 
2.1
 11 
2.251
 21 
2.094
 0 
LINE
 8 
0
 62 
 7 
 10 
2.251
 20 
2.094
 11 
2.251
 21 
2.087
 0 
LINE
 8 
0
 62 
 7 
 10 
2.251
 20 
2.087
 11 
2.245
 21 
2.081
 0 
LINE
 8 
0
 62 
 7 
 10 
2.245
 20 
2.081
 11 
2.226
 21 
2.081
 0 
LINE
 8 
0
 62 
 7 
 10 
3.024
 20 
1.69
 11 
3.024
 21 
1.789
 0 
LINE
 8 
0
 62 
 7 
 10 
0.325
 20 
1.775
 11 
0.325
 21 
1.75
 0 
LINE
 8 
0
 62 
 7 
 10 
0.325
 20 
1.75
 11 
0.363
 21 
1.75
 0 
LINE
 8 
0
 62 
 7 
 10 
0.344
 20 
1.75
 11 
0.344
 21 
1.769
 0 
LINE
 8 
0
 62 
 7 
 10 
0.325
 20 
1.788
 11 
0.325
 21 
1.813
 0 
LINE
 8 
0
 62 
 7 
 10 
0.325
 20 
1.801
 11 
0.363
 21 
1.801
 0 
LINE
 8 
0
 62 
 7 
 10 
0.325
 20 
1.826
 11 
0.325
 21 
1.845
 0 
LINE
 8 
0
 62 
 7 
 10 
0.325
 20 
1.845
 11 
0.331
 21 
1.851
 0 
LINE
 8 
0
 62 
 7 
 10 
0.331
 20 
1.851
 11 
0.357
 21 
1.851
 0 
LINE
 8 
0
 62 
 7 
 10 
0.357
 20 
1.851
 11 
0.363
 21 
1.845
 0 
LINE
 8 
0
 62 
 7 
 10 
0.363
 20 
1.845
 11 
0.363
 21 
1.826
 0 
LINE
 8 
0
 62 
 7 
 10 
0.325
 20 
1.832
 11 
0.363
 21 
1.832
 0 
LINE
 8 
0
 62 
 7 
 10 
0.325
 20 
1.87
 11 
0.325
 21 
1.883
 0 
LINE
 8 
0
 62 
 7 
 10 
0.363
 20 
1.87
 11 
0.363
 21 
1.883
 0 
LINE
 8 
0
 62 
 7 
 10 
0.325
 20 
1.877
 11 
0.363
 21 
1.877
 0 
LINE
 8 
0
 62 
 7 
 10 
0.2
 20 
2.225
 11 
0.3
 21 
2.225
 0 
LINE
 8 
0
 62 
 7 
 10 
0.2
 20 
1.625
 11 
0.3
 21 
1.625
 0 
CIRCLE
 8 
0
 62 
 7 
 10 
0.25
 20 
1.675
 40 
0.038
 0 
CIRCLE
 8 
0
 62 
 7 
 10 
0.25
 20 
1.675
 40 
0.02
 0 
CIRCLE
 8 
0
 62 
 7 
 10 
0.25
 20 
1.775
 40 
0.038
 0 
CIRCLE
 8 
0
 62 
 7 
 10 
0.25
 20 
1.775
 40 
0.02
 0 
CIRCLE
 8 
0
 62 
 7 
 10 
0.25
 20 
1.875
 40 
0.038
 0 
CIRCLE
 8 
0
 62 
 7 
 10 
0.25
 20 
1.875
 40 
0.02
 0 
CIRCLE
 8 
0
 62 
 7 
 10 
0.25
 20 
1.975
 40 
0.038
 0 
CIRCLE
 8 
0
 62 
 7 
 10 
0.25
 20 
1.975
 40 
0.02
 0 
CIRCLE
 8 
0
 62 
 7 
 10 
0.25
 20 
2.075
 40 
0.038
 0 
CIRCLE
 8 
0
 62 
 7 
 10 
0.25
 20 
2.075
 40 
0.02
 0 
LINE
 8 
0
 62 
 7 
 10 
0.212
 20 
2.212
 11 
0.287
 21 
2.212
 0 
LINE
 8 
0
 62 
 7 
 10 
0.287
 20 
2.212
 11 
0.287
 21 
2.137
 0 
LINE
 8 
0
 62 
 7 
 10 
0.287
 20 
2.137
 11 
0.212
 21 
2.137
 0 
LINE
 8 
0
 62 
 7 
 10 
0.212
 20 
2.137
 11 
0.212
 21 
2.212
 0 
CIRCLE
 8 
0
 62 
 7 
 10 
0.25
 20 
2.175
 40 
0.02
 0 
LINE
 8 
0
 62 
 7 
 10 
0.175
 20 
2.15
 11 
0.2
 21 
2.15
 0 
LINE
 8 
0
 62 
 7 
 10 
0.2
 20 
2.15
 11 
0.175
 21 
2.15
 0 
LINE
 8 
0
 62 
 7 
 10 
-0.1
 20 
1.975
 11 
-0.075
 21 
2.0
 0 
LINE
 8 
0
 62 
 7 
 10 
-0.075
 20 
1.95
 11 
-0.1
 21 
1.975
 0 
LINE
 8 
0
 62 
 7 
 10 
0.2
 20 
1.95
 11 
-0.075
 21 
1.95
 0 
LINE
 8 
0
 62 
 7 
 10 
-0.075
 20 
2.0
 11 
0.2
 21 
2.0
 0 
LINE
 8 
0
 62 
 7 
 10 
0.175
 20 
2.05
 11 
0.2
 21 
2.05
 0 
LINE
 8 
0
 62 
 7 
 10 
0.2
 20 
2.05
 11 
0.175
 21 
2.05
 0 
LINE
 8 
0
 62 
 7 
 10 
-0.1
 20 
2.075
 11 
-0.075
 21 
2.1
 0 
LINE
 8 
0
 62 
 7 
 10 
-0.075
 20 
2.05
 11 
-0.1
 21 
2.075
 0 
LINE
 8 
0
 62 
 7 
 10 
0.2
 20 
2.05
 11 
-0.075
 21 
2.05
 0 
LINE
 8 
0
 62 
 7 
 10 
-0.075
 20 
2.1
 11 
0.2
 21 
2.1
 0 
LINE
 8 
0
 62 
 7 
 10 
0.175
 20 
1.95
 11 
0.2
 21 
1.95
 0 
LINE
 8 
0
 62 
 7 
 10 
0.2
 20 
1.95
 11 
0.175
 21 
1.95
 0 
LINE
 8 
0
 62 
 7 
 10 
-0.1
 20 
1.875
 11 
-0.075
 21 
1.9
 0 
LINE
 8 
0
 62 
 7 
 10 
-0.075
 20 
1.85
 11 
-0.1
 21 
1.875
 0 
LINE
 8 
0
 62 
 7 
 10 
0.2
 20 
1.85
 11 
-0.075
 21 
1.85
 0 
LINE
 8 
0
 62 
 7 
 10 
-0.075
 20 
1.9
 11 
0.2
 21 
1.9
 0 
LINE
 8 
0
 62 
 7 
 10 
0.175
 20 
1.85
 11 
0.2
 21 
1.85
 0 
LINE
 8 
0
 62 
 7 
 10 
0.2
 20 
1.85
 11 
0.175
 21 
1.85
 0 
LINE
 8 
0
 62 
 7 
 10 
-0.1
 20 
1.775
 11 
-0.075
 21 
1.8
 0 
LINE
 8 
0
 62 
 7 
 10 
-0.075
 20 
1.75
 11 
-0.1
 21 
1.775
 0 
LINE
 8 
0
 62 
 7 
 10 
0.2
 20 
1.75
 11 
-0.075
 21 
1.75
 0 
LINE
 8 
0
 62 
 7 
 10 
-0.075
 20 
1.8
 11 
0.2
 21 
1.8
 0 
LINE
 8 
0
 62 
 7 
 10 
0.175
 20 
1.75
 11 
0.2
 21 
1.75
 0 
LINE
 8 
0
 62 
 7 
 10 
0.2
 20 
1.75
 11 
0.175
 21 
1.75
 0 
LINE
 8 
0
 62 
 7 
 10 
-0.1
 20 
1.675
 11 
-0.075
 21 
1.7
 0 
LINE
 8 
0
 62 
 7 
 10 
-0.075
 20 
1.65
 11 
-0.1
 21 
1.675
 0 
LINE
 8 
0
 62 
 7 
 10 
0.2
 20 
1.65
 11 
-0.075
 21 
1.65
 0 
LINE
 8 
0
 62 
 7 
 10 
-0.075
 20 
1.7
 11 
0.2
 21 
1.7
 0 
LINE
 8 
0
 62 
 7 
 10 
0.175
 20 
1.65
 11 
0.2
 21 
1.65
 0 
LINE
 8 
0
 62 
 7 
 10 
0.2
 20 
1.65
 11 
0.175
 21 
1.65
 0 
CIRCLE
 8 
0
 62 
 7 
 10 
0.95
 20 
1.747
 40 
0.028
 0 
CIRCLE
 8 
0
 62 
 7 
 10 
0.95
 20 
1.747
 40 
0.014
 0 
CIRCLE
 8 
0
 62 
 7 
 10 
1.05
 20 
1.747
 40 
0.028
 0 
CIRCLE
 8 
0
 62 
 7 
 10 
1.05
 20 
1.747
 40 
0.014
 0 
CIRCLE
 8 
0
 62 
 7 
 10 
1.15
 20 
1.747
 40 
0.028
 0 
CIRCLE
 8 
0
 62 
 7 
 10 
1.15
 20 
1.747
 40 
0.014
 0 
CIRCLE
 8 
0
 62 
 7 
 10 
1.25
 20 
1.747
 40 
0.028
 0 
CIRCLE
 8 
0
 62 
 7 
 10 
1.25
 20 
1.747
 40 
0.014
 0 
CIRCLE
 8 
0
 62 
 7 
 10 
1.35
 20 
1.747
 40 
0.028
 0 
CIRCLE
 8 
0
 62 
 7 
 10 
1.35
 20 
1.747
 40 
0.014
 0 
CIRCLE
 8 
0
 62 
 7 
 10 
1.45
 20 
1.747
 40 
0.028
 0 
CIRCLE
 8 
0
 62 
 7 
 10 
1.45
 20 
1.747
 40 
0.014
 0 
CIRCLE
 8 
0
 62 
 7 
 10 
1.55
 20 
1.747
 40 
0.028
 0 
CIRCLE
 8 
0
 62 
 7 
 10 
1.55
 20 
1.747
 40 
0.014
 0 
CIRCLE
 8 
0
 62 
 7 
 10 
1.65
 20 
1.747
 40 
0.028
 0 
CIRCLE
 8 
0
 62 
 7 
 10 
1.65
 20 
1.747
 40 
0.014
 0 
CIRCLE
 8 
0
 62 
 7 
 10 
1.75
 20 
1.747
 40 
0.028
 0 
CIRCLE
 8 
0
 62 
 7 
 10 
1.75
 20 
1.747
 40 
0.014
 0 
CIRCLE
 8 
0
 62 
 7 
 10 
1.85
 20 
1.747
 40 
0.028
 0 
CIRCLE
 8 
0
 62 
 7 
 10 
1.85
 20 
1.747
 40 
0.014
 0 
CIRCLE
 8 
0
 62 
 7 
 10 
1.95
 20 
1.747
 40 
0.028
 0 
CIRCLE
 8 
0
 62 
 7 
 10 
1.95
 20 
1.747
 40 
0.014
 0 
CIRCLE
 8 
0
 62 
 7 
 10 
1.95
 20 
2.047
 40 
0.028
 0 
CIRCLE
 8 
0
 62 
 7 
 10 
1.95
 20 
2.047
 40 
0.014
 0 
CIRCLE
 8 
0
 62 
 7 
 10 
1.85
 20 
2.047
 40 
0.028
 0 
CIRCLE
 8 
0
 62 
 7 
 10 
1.85
 20 
2.047
 40 
0.014
 0 
CIRCLE
 8 
0
 62 
 7 
 10 
1.75
 20 
2.047
 40 
0.028
 0 
CIRCLE
 8 
0
 62 
 7 
 10 
1.75
 20 
2.047
 40 
0.014
 0 
CIRCLE
 8 
0
 62 
 7 
 10 
1.65
 20 
2.047
 40 
0.028
 0 
CIRCLE
 8 
0
 62 
 7 
 10 
1.65
 20 
2.047
 40 
0.014
 0 
CIRCLE
 8 
0
 62 
 7 
 10 
1.55
 20 
2.047
 40 
0.028
 0 
CIRCLE
 8 
0
 62 
 7 
 10 
1.55
 20 
2.047
 40 
0.014
 0 
CIRCLE
 8 
0
 62 
 7 
 10 
1.45
 20 
2.047
 40 
0.028
 0 
CIRCLE
 8 
0
 62 
 7 
 10 
1.45
 20 
2.047
 40 
0.014
 0 
CIRCLE
 8 
0
 62 
 7 
 10 
1.35
 20 
2.047
 40 
0.028
 0 
CIRCLE
 8 
0
 62 
 7 
 10 
1.35
 20 
2.047
 40 
0.014
 0 
CIRCLE
 8 
0
 62 
 7 
 10 
1.25
 20 
2.047
 40 
0.028
 0 
CIRCLE
 8 
0
 62 
 7 
 10 
1.25
 20 
2.047
 40 
0.014
 0 
CIRCLE
 8 
0
 62 
 7 
 10 
1.15
 20 
2.047
 40 
0.028
 0 
CIRCLE
 8 
0
 62 
 7 
 10 
1.15
 20 
2.047
 40 
0.014
 0 
CIRCLE
 8 
0
 62 
 7 
 10 
1.05
 20 
2.047
 40 
0.028
 0 
CIRCLE
 8 
0
 62 
 7 
 10 
1.05
 20 
2.047
 40 
0.014
 0 
CIRCLE
 8 
0
 62 
 7 
 10 
0.95
 20 
2.047
 40 
0.028
 0 
CIRCLE
 8 
0
 62 
 7 
 10 
0.95
 20 
2.047
 40 
0.014
 0 
CIRCLE
 8 
0
 62 
 7 
 10 
0.85
 20 
2.047
 40 
0.028
 0 
CIRCLE
 8 
0
 62 
 7 
 10 
0.85
 20 
2.047
 40 
0.014
 0 
CIRCLE
 8 
0
 62 
 7 
 10 
0.75
 20 
2.047
 40 
0.028
 0 
CIRCLE
 8 
0
 62 
 7 
 10 
0.75
 20 
2.047
 40 
0.014
 0 
CIRCLE
 8 
0
 62 
 7 
 10 
0.65
 20 
2.047
 40 
0.028
 0 
CIRCLE
 8 
0
 62 
 7 
 10 
0.65
 20 
2.047
 40 
0.014
 0 
LINE
 8 
0
 62 
 7 
 10 
0.61
 20 
1.872
 11 
0.61
 21 
1.812
 0 
LINE
 8 
0
 62 
 7 
 10 
0.61
 20 
1.812
 11 
1.99
 21 
1.812
 0 
LINE
 8 
0
 62 
 7 
 10 
1.99
 20 
1.812
 11 
1.99
 21 
1.982
 0 
LINE
 8 
0
 62 
 7 
 10 
1.99
 20 
1.982
 11 
0.61
 21 
1.982
 0 
LINE
 8 
0
 62 
 7 
 10 
0.61
 20 
1.982
 11 
0.61
 21 
1.922
 0 
LINE
 8 
0
 62 
 7 
 10 
0.61
 20 
1.922
 11 
0.66
 21 
1.922
 0 
LINE
 8 
0
 62 
 7 
 10 
0.66
 20 
1.922
 11 
0.66
 21 
1.872
 0 
LINE
 8 
0
 62 
 7 
 10 
0.66
 20 
1.872
 11 
0.61
 21 
1.872
 0 
LINE
 8 
0
 62 
 7 
 10 
1.175
 20 
2.175
 11 
1.175
 21 
2.137
 0 
LINE
 8 
0
 62 
 7 
 10 
1.175
 20 
2.137
 11 
1.183
 21 
2.13
 0 
LINE
 8 
0
 62 
 7 
 10 
1.183
 20 
2.13
 11 
1.197
 21 
2.13
 0 
LINE
 8 
0
 62 
 7 
 10 
1.197
 20 
2.13
 11 
1.205
 21 
2.137
 0 
LINE
 8 
0
 62 
 7 
 10 
1.205
 20 
2.137
 11 
1.205
 21 
2.175
 0 
LINE
 8 
0
 62 
 7 
 10 
1.227
 20 
2.167
 11 
1.235
 21 
2.175
 0 
LINE
 8 
0
 62 
 7 
 10 
1.235
 20 
2.175
 11 
1.235
 21 
2.13
 0 
LINE
 8 
0
 62 
 7 
 10 
1.227
 20 
2.13
 11 
1.243
 21 
2.13
 0 
LINE
 8 
0
 62 
 7 
 10 
3.024
 20 
1.789
 11 
2.827
 21 
1.789
 0 
LINE
 8 
0
 62 
 7 
 10 
2.827
 20 
1.789
 11 
2.827
 21 
1.69
 0 
LINE
 8 
0
 62 
 7 
 10 
2.775
 20 
1.875
 11 
2.775
 21 
1.837
 0 
LINE
 8 
0
 62 
 7 
 10 
2.775
 20 
1.837
 11 
2.783
 21 
1.83
 0 
LINE
 8 
0
 62 
 7 
 10 
2.783
 20 
1.83
 11 
2.797
 21 
1.83
 0 
LINE
 8 
0
 62 
 7 
 10 
2.797
 20 
1.83
 11 
2.805
 21 
1.837
 0 
LINE
 8 
0
 62 
 7 
 10 
2.805
 20 
1.837
 11 
2.805
 21 
1.875
 0 
LINE
 8 
0
 62 
 7 
 10 
2.82
 20 
1.867
 11 
2.827
 21 
1.875
 0 
LINE
 8 
0
 62 
 7 
 10 
2.827
 20 
1.875
 11 
2.843
 21 
1.875
 0 
LINE
 8 
0
 62 
 7 
 10 
2.843
 20 
1.875
 11 
2.85
 21 
1.867
 0 
LINE
 8 
0
 62 
 7 
 10 
2.85
 20 
1.867
 11 
2.85
 21 
1.86
 0 
LINE
 8 
0
 62 
 7 
 10 
2.85
 20 
1.86
 11 
2.843
 21 
1.853
 0 
LINE
 8 
0
 62 
 7 
 10 
2.843
 20 
1.853
 11 
2.827
 21 
1.853
 0 
LINE
 8 
0
 62 
 7 
 10 
2.827
 20 
1.853
 11 
2.82
 21 
1.845
 0 
LINE
 8 
0
 62 
 7 
 10 
2.82
 20 
1.845
 11 
2.82
 21 
1.83
 0 
LINE
 8 
0
 62 
 7 
 10 
2.82
 20 
1.83
 11 
2.85
 21 
1.83
 0 
ENDSEC
 0 
EOF
