%TF.GenerationSoftware,KiCad,Pcbnew,5.0.2-bee76a0~70~ubuntu18.04.1*%
%TF.CreationDate,2019-10-08T23:09:48-07:00*%
%TF.ProjectId,AD9850,41443938-3530-42e6-9b69-6361645f7063,rev?*%
%TF.SameCoordinates,Original*%
%TF.FileFunction,Legend,Top*%
%TF.FilePolarity,Positive*%
%FSLAX46Y46*%
G04 Gerber Fmt 4.6, Leading zero omitted, Abs format (unit mm)*
G04 Created by KiCad (PCBNEW 5.0.2-bee76a0~70~ubuntu18.04.1) date Tue 08 Oct 2019 11:09:48 PM PDT*
%MOMM*%
%LPD*%
G01*
G04 APERTURE LIST*
%ADD10C,0.200000*%
%ADD11C,0.100000*%
%ADD12C,0.300000*%
%ADD13C,0.150000*%
%ADD14C,0.400000*%
%ADD15C,0.120000*%
%ADD16C,0.152400*%
G04 APERTURE END LIST*
D10*
X84328000Y-66040000D02*
X96393000Y-66040000D01*
X93091000Y-64643000D02*
X93091000Y-67818000D01*
X88900000Y-64643000D02*
X88900000Y-67818000D01*
X84328000Y-67818000D02*
X96393000Y-67818000D01*
X84328000Y-67691000D02*
X84328000Y-67818000D01*
X84328000Y-64516000D02*
X84328000Y-67564000D01*
D11*
X94194380Y-67381380D02*
X93861047Y-66905190D01*
X93622952Y-67381380D02*
X93622952Y-66381380D01*
X94003904Y-66381380D01*
X94099142Y-66429000D01*
X94146761Y-66476619D01*
X94194380Y-66571857D01*
X94194380Y-66714714D01*
X94146761Y-66809952D01*
X94099142Y-66857571D01*
X94003904Y-66905190D01*
X93622952Y-66905190D01*
X94575333Y-67333761D02*
X94718190Y-67381380D01*
X94956285Y-67381380D01*
X95051523Y-67333761D01*
X95099142Y-67286142D01*
X95146761Y-67190904D01*
X95146761Y-67095666D01*
X95099142Y-67000428D01*
X95051523Y-66952809D01*
X94956285Y-66905190D01*
X94765809Y-66857571D01*
X94670571Y-66809952D01*
X94622952Y-66762333D01*
X94575333Y-66667095D01*
X94575333Y-66571857D01*
X94622952Y-66476619D01*
X94670571Y-66429000D01*
X94765809Y-66381380D01*
X95003904Y-66381380D01*
X95146761Y-66429000D01*
X95432476Y-66381380D02*
X96003904Y-66381380D01*
X95718190Y-67381380D02*
X95718190Y-66381380D01*
X89773285Y-67333761D02*
X89916142Y-67381380D01*
X90154238Y-67381380D01*
X90249476Y-67333761D01*
X90297095Y-67286142D01*
X90344714Y-67190904D01*
X90344714Y-67095666D01*
X90297095Y-67000428D01*
X90249476Y-66952809D01*
X90154238Y-66905190D01*
X89963761Y-66857571D01*
X89868523Y-66809952D01*
X89820904Y-66762333D01*
X89773285Y-66667095D01*
X89773285Y-66571857D01*
X89820904Y-66476619D01*
X89868523Y-66429000D01*
X89963761Y-66381380D01*
X90201857Y-66381380D01*
X90344714Y-66429000D01*
X91344714Y-67286142D02*
X91297095Y-67333761D01*
X91154238Y-67381380D01*
X91059000Y-67381380D01*
X90916142Y-67333761D01*
X90820904Y-67238523D01*
X90773285Y-67143285D01*
X90725666Y-66952809D01*
X90725666Y-66809952D01*
X90773285Y-66619476D01*
X90820904Y-66524238D01*
X90916142Y-66429000D01*
X91059000Y-66381380D01*
X91154238Y-66381380D01*
X91297095Y-66429000D01*
X91344714Y-66476619D01*
X91773285Y-67381380D02*
X91773285Y-66381380D01*
X92344714Y-67381380D02*
X91916142Y-66809952D01*
X92344714Y-66381380D02*
X91773285Y-66952809D01*
X85169571Y-67381380D02*
X85169571Y-66381380D01*
X85502904Y-67095666D01*
X85836238Y-66381380D01*
X85836238Y-67381380D01*
X86312428Y-67381380D02*
X86312428Y-66381380D01*
X86741000Y-67333761D02*
X86883857Y-67381380D01*
X87121952Y-67381380D01*
X87217190Y-67333761D01*
X87264809Y-67286142D01*
X87312428Y-67190904D01*
X87312428Y-67095666D01*
X87264809Y-67000428D01*
X87217190Y-66952809D01*
X87121952Y-66905190D01*
X86931476Y-66857571D01*
X86836238Y-66809952D01*
X86788619Y-66762333D01*
X86741000Y-66667095D01*
X86741000Y-66571857D01*
X86788619Y-66476619D01*
X86836238Y-66429000D01*
X86931476Y-66381380D01*
X87169571Y-66381380D01*
X87312428Y-66429000D01*
X87931476Y-66381380D02*
X88121952Y-66381380D01*
X88217190Y-66429000D01*
X88312428Y-66524238D01*
X88360047Y-66714714D01*
X88360047Y-67048047D01*
X88312428Y-67238523D01*
X88217190Y-67333761D01*
X88121952Y-67381380D01*
X87931476Y-67381380D01*
X87836238Y-67333761D01*
X87741000Y-67238523D01*
X87693380Y-67048047D01*
X87693380Y-66714714D01*
X87741000Y-66524238D01*
X87836238Y-66429000D01*
X87931476Y-66381380D01*
X93980095Y-64778000D02*
X93884857Y-64730380D01*
X93742000Y-64730380D01*
X93599142Y-64778000D01*
X93503904Y-64873238D01*
X93456285Y-64968476D01*
X93408666Y-65158952D01*
X93408666Y-65301809D01*
X93456285Y-65492285D01*
X93503904Y-65587523D01*
X93599142Y-65682761D01*
X93742000Y-65730380D01*
X93837238Y-65730380D01*
X93980095Y-65682761D01*
X94027714Y-65635142D01*
X94027714Y-65301809D01*
X93837238Y-65301809D01*
X94456285Y-65730380D02*
X94456285Y-64730380D01*
X95027714Y-65730380D01*
X95027714Y-64730380D01*
X95503904Y-65730380D02*
X95503904Y-64730380D01*
X95742000Y-64730380D01*
X95884857Y-64778000D01*
X95980095Y-64873238D01*
X96027714Y-64968476D01*
X96075333Y-65158952D01*
X96075333Y-65301809D01*
X96027714Y-65492285D01*
X95980095Y-65587523D01*
X95884857Y-65682761D01*
X95742000Y-65730380D01*
X95503904Y-65730380D01*
X89487571Y-65730380D02*
X89487571Y-64730380D01*
X89820904Y-65444666D01*
X90154238Y-64730380D01*
X90154238Y-65730380D01*
X90820904Y-64730380D02*
X91011380Y-64730380D01*
X91106619Y-64778000D01*
X91201857Y-64873238D01*
X91249476Y-65063714D01*
X91249476Y-65397047D01*
X91201857Y-65587523D01*
X91106619Y-65682761D01*
X91011380Y-65730380D01*
X90820904Y-65730380D01*
X90725666Y-65682761D01*
X90630428Y-65587523D01*
X90582809Y-65397047D01*
X90582809Y-65063714D01*
X90630428Y-64873238D01*
X90725666Y-64778000D01*
X90820904Y-64730380D01*
X91630428Y-65682761D02*
X91773285Y-65730380D01*
X92011380Y-65730380D01*
X92106619Y-65682761D01*
X92154238Y-65635142D01*
X92201857Y-65539904D01*
X92201857Y-65444666D01*
X92154238Y-65349428D01*
X92106619Y-65301809D01*
X92011380Y-65254190D01*
X91820904Y-65206571D01*
X91725666Y-65158952D01*
X91678047Y-65111333D01*
X91630428Y-65016095D01*
X91630428Y-64920857D01*
X91678047Y-64825619D01*
X91725666Y-64778000D01*
X91820904Y-64730380D01*
X92059000Y-64730380D01*
X92201857Y-64778000D01*
X92630428Y-65730380D02*
X92630428Y-64730380D01*
X85756857Y-65349428D02*
X86518761Y-65349428D01*
X86137809Y-65730380D02*
X86137809Y-64968476D01*
X87471142Y-64730380D02*
X86994952Y-64730380D01*
X86947333Y-65206571D01*
X86994952Y-65158952D01*
X87090190Y-65111333D01*
X87328285Y-65111333D01*
X87423523Y-65158952D01*
X87471142Y-65206571D01*
X87518761Y-65301809D01*
X87518761Y-65539904D01*
X87471142Y-65635142D01*
X87423523Y-65682761D01*
X87328285Y-65730380D01*
X87090190Y-65730380D01*
X86994952Y-65682761D01*
X86947333Y-65635142D01*
D10*
X146037095Y-92468380D02*
X146037095Y-91468380D01*
X146275190Y-91468380D01*
X146418047Y-91516000D01*
X146513285Y-91611238D01*
X146560904Y-91706476D01*
X146608523Y-91896952D01*
X146608523Y-92039809D01*
X146560904Y-92230285D01*
X146513285Y-92325523D01*
X146418047Y-92420761D01*
X146275190Y-92468380D01*
X146037095Y-92468380D01*
X147037095Y-92468380D02*
X147037095Y-91801714D01*
X147037095Y-91468380D02*
X146989476Y-91516000D01*
X147037095Y-91563619D01*
X147084714Y-91516000D01*
X147037095Y-91468380D01*
X147037095Y-91563619D01*
X147465666Y-92420761D02*
X147560904Y-92468380D01*
X147751380Y-92468380D01*
X147846619Y-92420761D01*
X147894238Y-92325523D01*
X147894238Y-92277904D01*
X147846619Y-92182666D01*
X147751380Y-92135047D01*
X147608523Y-92135047D01*
X147513285Y-92087428D01*
X147465666Y-91992190D01*
X147465666Y-91944571D01*
X147513285Y-91849333D01*
X147608523Y-91801714D01*
X147751380Y-91801714D01*
X147846619Y-91849333D01*
X148751380Y-92420761D02*
X148656142Y-92468380D01*
X148465666Y-92468380D01*
X148370428Y-92420761D01*
X148322809Y-92373142D01*
X148275190Y-92277904D01*
X148275190Y-91992190D01*
X148322809Y-91896952D01*
X148370428Y-91849333D01*
X148465666Y-91801714D01*
X148656142Y-91801714D01*
X148751380Y-91849333D01*
X149322809Y-92468380D02*
X149227571Y-92420761D01*
X149179952Y-92373142D01*
X149132333Y-92277904D01*
X149132333Y-91992190D01*
X149179952Y-91896952D01*
X149227571Y-91849333D01*
X149322809Y-91801714D01*
X149465666Y-91801714D01*
X149560904Y-91849333D01*
X149608523Y-91896952D01*
X149656142Y-91992190D01*
X149656142Y-92277904D01*
X149608523Y-92373142D01*
X149560904Y-92420761D01*
X149465666Y-92468380D01*
X149322809Y-92468380D01*
X150084714Y-91801714D02*
X150084714Y-92468380D01*
X150084714Y-91896952D02*
X150132333Y-91849333D01*
X150227571Y-91801714D01*
X150370428Y-91801714D01*
X150465666Y-91849333D01*
X150513285Y-91944571D01*
X150513285Y-92468380D01*
X150989476Y-91801714D02*
X150989476Y-92468380D01*
X150989476Y-91896952D02*
X151037095Y-91849333D01*
X151132333Y-91801714D01*
X151275190Y-91801714D01*
X151370428Y-91849333D01*
X151418047Y-91944571D01*
X151418047Y-92468380D01*
X152275190Y-92420761D02*
X152179952Y-92468380D01*
X151989476Y-92468380D01*
X151894238Y-92420761D01*
X151846619Y-92325523D01*
X151846619Y-91944571D01*
X151894238Y-91849333D01*
X151989476Y-91801714D01*
X152179952Y-91801714D01*
X152275190Y-91849333D01*
X152322809Y-91944571D01*
X152322809Y-92039809D01*
X151846619Y-92135047D01*
X153179952Y-92420761D02*
X153084714Y-92468380D01*
X152894238Y-92468380D01*
X152799000Y-92420761D01*
X152751380Y-92373142D01*
X152703761Y-92277904D01*
X152703761Y-91992190D01*
X152751380Y-91896952D01*
X152799000Y-91849333D01*
X152894238Y-91801714D01*
X153084714Y-91801714D01*
X153179952Y-91849333D01*
X153465666Y-91801714D02*
X153846619Y-91801714D01*
X153608523Y-91468380D02*
X153608523Y-92325523D01*
X153656142Y-92420761D01*
X153751380Y-92468380D01*
X153846619Y-92468380D01*
X146037095Y-94168380D02*
X146037095Y-93501714D01*
X146037095Y-93596952D02*
X146084714Y-93549333D01*
X146179952Y-93501714D01*
X146322809Y-93501714D01*
X146418047Y-93549333D01*
X146465666Y-93644571D01*
X146465666Y-94168380D01*
X146465666Y-93644571D02*
X146513285Y-93549333D01*
X146608523Y-93501714D01*
X146751380Y-93501714D01*
X146846619Y-93549333D01*
X146894238Y-93644571D01*
X146894238Y-94168380D01*
X147799000Y-94168380D02*
X147799000Y-93644571D01*
X147751380Y-93549333D01*
X147656142Y-93501714D01*
X147465666Y-93501714D01*
X147370428Y-93549333D01*
X147799000Y-94120761D02*
X147703761Y-94168380D01*
X147465666Y-94168380D01*
X147370428Y-94120761D01*
X147322809Y-94025523D01*
X147322809Y-93930285D01*
X147370428Y-93835047D01*
X147465666Y-93787428D01*
X147703761Y-93787428D01*
X147799000Y-93739809D01*
X148275190Y-94168380D02*
X148275190Y-93501714D01*
X148275190Y-93168380D02*
X148227571Y-93216000D01*
X148275190Y-93263619D01*
X148322809Y-93216000D01*
X148275190Y-93168380D01*
X148275190Y-93263619D01*
X148751380Y-93501714D02*
X148751380Y-94168380D01*
X148751380Y-93596952D02*
X148799000Y-93549333D01*
X148894238Y-93501714D01*
X149037095Y-93501714D01*
X149132333Y-93549333D01*
X149179952Y-93644571D01*
X149179952Y-94168380D01*
X146037095Y-95201714D02*
X146037095Y-96201714D01*
X146037095Y-95249333D02*
X146132333Y-95201714D01*
X146322809Y-95201714D01*
X146418047Y-95249333D01*
X146465666Y-95296952D01*
X146513285Y-95392190D01*
X146513285Y-95677904D01*
X146465666Y-95773142D01*
X146418047Y-95820761D01*
X146322809Y-95868380D01*
X146132333Y-95868380D01*
X146037095Y-95820761D01*
X147084714Y-95868380D02*
X146989476Y-95820761D01*
X146941857Y-95773142D01*
X146894238Y-95677904D01*
X146894238Y-95392190D01*
X146941857Y-95296952D01*
X146989476Y-95249333D01*
X147084714Y-95201714D01*
X147227571Y-95201714D01*
X147322809Y-95249333D01*
X147370428Y-95296952D01*
X147418047Y-95392190D01*
X147418047Y-95677904D01*
X147370428Y-95773142D01*
X147322809Y-95820761D01*
X147227571Y-95868380D01*
X147084714Y-95868380D01*
X147751380Y-95201714D02*
X147941857Y-95868380D01*
X148132333Y-95392190D01*
X148322809Y-95868380D01*
X148513285Y-95201714D01*
X149275190Y-95820761D02*
X149179952Y-95868380D01*
X148989476Y-95868380D01*
X148894238Y-95820761D01*
X148846619Y-95725523D01*
X148846619Y-95344571D01*
X148894238Y-95249333D01*
X148989476Y-95201714D01*
X149179952Y-95201714D01*
X149275190Y-95249333D01*
X149322809Y-95344571D01*
X149322809Y-95439809D01*
X148846619Y-95535047D01*
X149751380Y-95868380D02*
X149751380Y-95201714D01*
X149751380Y-95392190D02*
X149799000Y-95296952D01*
X149846619Y-95249333D01*
X149941857Y-95201714D01*
X150037095Y-95201714D01*
X151132333Y-95868380D02*
X151132333Y-95201714D01*
X151132333Y-94868380D02*
X151084714Y-94916000D01*
X151132333Y-94963619D01*
X151179952Y-94916000D01*
X151132333Y-94868380D01*
X151132333Y-94963619D01*
X151465666Y-95201714D02*
X151846619Y-95201714D01*
X151608523Y-95868380D02*
X151608523Y-95011238D01*
X151656142Y-94916000D01*
X151751380Y-94868380D01*
X151846619Y-94868380D01*
X146037095Y-96901714D02*
X146037095Y-97901714D01*
X146037095Y-96949333D02*
X146132333Y-96901714D01*
X146322809Y-96901714D01*
X146418047Y-96949333D01*
X146465666Y-96996952D01*
X146513285Y-97092190D01*
X146513285Y-97377904D01*
X146465666Y-97473142D01*
X146418047Y-97520761D01*
X146322809Y-97568380D01*
X146132333Y-97568380D01*
X146037095Y-97520761D01*
X147084714Y-97568380D02*
X146989476Y-97520761D01*
X146941857Y-97473142D01*
X146894238Y-97377904D01*
X146894238Y-97092190D01*
X146941857Y-96996952D01*
X146989476Y-96949333D01*
X147084714Y-96901714D01*
X147227571Y-96901714D01*
X147322809Y-96949333D01*
X147370428Y-96996952D01*
X147418047Y-97092190D01*
X147418047Y-97377904D01*
X147370428Y-97473142D01*
X147322809Y-97520761D01*
X147227571Y-97568380D01*
X147084714Y-97568380D01*
X147751380Y-96901714D02*
X147941857Y-97568380D01*
X148132333Y-97092190D01*
X148322809Y-97568380D01*
X148513285Y-96901714D01*
X149275190Y-97520761D02*
X149179952Y-97568380D01*
X148989476Y-97568380D01*
X148894238Y-97520761D01*
X148846619Y-97425523D01*
X148846619Y-97044571D01*
X148894238Y-96949333D01*
X148989476Y-96901714D01*
X149179952Y-96901714D01*
X149275190Y-96949333D01*
X149322809Y-97044571D01*
X149322809Y-97139809D01*
X148846619Y-97235047D01*
X149751380Y-97568380D02*
X149751380Y-96901714D01*
X149751380Y-97092190D02*
X149799000Y-96996952D01*
X149846619Y-96949333D01*
X149941857Y-96901714D01*
X150037095Y-96901714D01*
X150370428Y-97568380D02*
X150370428Y-96901714D01*
X150370428Y-96568380D02*
X150322809Y-96616000D01*
X150370428Y-96663619D01*
X150418047Y-96616000D01*
X150370428Y-96568380D01*
X150370428Y-96663619D01*
X150846619Y-96901714D02*
X150846619Y-97568380D01*
X150846619Y-96996952D02*
X150894238Y-96949333D01*
X150989476Y-96901714D01*
X151132333Y-96901714D01*
X151227571Y-96949333D01*
X151275190Y-97044571D01*
X151275190Y-97568380D01*
X152179952Y-96901714D02*
X152179952Y-97711238D01*
X152132333Y-97806476D01*
X152084714Y-97854095D01*
X151989476Y-97901714D01*
X151846619Y-97901714D01*
X151751380Y-97854095D01*
X152179952Y-97520761D02*
X152084714Y-97568380D01*
X151894238Y-97568380D01*
X151799000Y-97520761D01*
X151751380Y-97473142D01*
X151703761Y-97377904D01*
X151703761Y-97092190D01*
X151751380Y-96996952D01*
X151799000Y-96949333D01*
X151894238Y-96901714D01*
X152084714Y-96901714D01*
X152179952Y-96949333D01*
X145894238Y-98601714D02*
X146275190Y-98601714D01*
X146037095Y-99268380D02*
X146037095Y-98411238D01*
X146084714Y-98316000D01*
X146179952Y-98268380D01*
X146275190Y-98268380D01*
X146608523Y-99268380D02*
X146608523Y-98601714D01*
X146608523Y-98792190D02*
X146656142Y-98696952D01*
X146703761Y-98649333D01*
X146799000Y-98601714D01*
X146894238Y-98601714D01*
X147370428Y-99268380D02*
X147275190Y-99220761D01*
X147227571Y-99173142D01*
X147179952Y-99077904D01*
X147179952Y-98792190D01*
X147227571Y-98696952D01*
X147275190Y-98649333D01*
X147370428Y-98601714D01*
X147513285Y-98601714D01*
X147608523Y-98649333D01*
X147656142Y-98696952D01*
X147703761Y-98792190D01*
X147703761Y-99077904D01*
X147656142Y-99173142D01*
X147608523Y-99220761D01*
X147513285Y-99268380D01*
X147370428Y-99268380D01*
X148132333Y-99268380D02*
X148132333Y-98601714D01*
X148132333Y-98696952D02*
X148179952Y-98649333D01*
X148275190Y-98601714D01*
X148418047Y-98601714D01*
X148513285Y-98649333D01*
X148560904Y-98744571D01*
X148560904Y-99268380D01*
X148560904Y-98744571D02*
X148608523Y-98649333D01*
X148703761Y-98601714D01*
X148846619Y-98601714D01*
X148941857Y-98649333D01*
X148989476Y-98744571D01*
X148989476Y-99268380D01*
X146037095Y-100301714D02*
X146037095Y-101301714D01*
X146037095Y-100349333D02*
X146132333Y-100301714D01*
X146322809Y-100301714D01*
X146418047Y-100349333D01*
X146465666Y-100396952D01*
X146513285Y-100492190D01*
X146513285Y-100777904D01*
X146465666Y-100873142D01*
X146418047Y-100920761D01*
X146322809Y-100968380D01*
X146132333Y-100968380D01*
X146037095Y-100920761D01*
X146941857Y-100968380D02*
X146941857Y-100301714D01*
X146941857Y-100492190D02*
X146989476Y-100396952D01*
X147037095Y-100349333D01*
X147132333Y-100301714D01*
X147227571Y-100301714D01*
X147703761Y-100968380D02*
X147608523Y-100920761D01*
X147560904Y-100873142D01*
X147513285Y-100777904D01*
X147513285Y-100492190D01*
X147560904Y-100396952D01*
X147608523Y-100349333D01*
X147703761Y-100301714D01*
X147846619Y-100301714D01*
X147941857Y-100349333D01*
X147989476Y-100396952D01*
X148037095Y-100492190D01*
X148037095Y-100777904D01*
X147989476Y-100873142D01*
X147941857Y-100920761D01*
X147846619Y-100968380D01*
X147703761Y-100968380D01*
X148894238Y-100301714D02*
X148894238Y-101111238D01*
X148846619Y-101206476D01*
X148799000Y-101254095D01*
X148703761Y-101301714D01*
X148560904Y-101301714D01*
X148465666Y-101254095D01*
X148894238Y-100920761D02*
X148799000Y-100968380D01*
X148608523Y-100968380D01*
X148513285Y-100920761D01*
X148465666Y-100873142D01*
X148418047Y-100777904D01*
X148418047Y-100492190D01*
X148465666Y-100396952D01*
X148513285Y-100349333D01*
X148608523Y-100301714D01*
X148799000Y-100301714D01*
X148894238Y-100349333D01*
X149370428Y-100968380D02*
X149370428Y-100301714D01*
X149370428Y-100492190D02*
X149418047Y-100396952D01*
X149465666Y-100349333D01*
X149560904Y-100301714D01*
X149656142Y-100301714D01*
X150418047Y-100968380D02*
X150418047Y-100444571D01*
X150370428Y-100349333D01*
X150275190Y-100301714D01*
X150084714Y-100301714D01*
X149989476Y-100349333D01*
X150418047Y-100920761D02*
X150322809Y-100968380D01*
X150084714Y-100968380D01*
X149989476Y-100920761D01*
X149941857Y-100825523D01*
X149941857Y-100730285D01*
X149989476Y-100635047D01*
X150084714Y-100587428D01*
X150322809Y-100587428D01*
X150418047Y-100539809D01*
X150894238Y-100968380D02*
X150894238Y-100301714D01*
X150894238Y-100396952D02*
X150941857Y-100349333D01*
X151037095Y-100301714D01*
X151179952Y-100301714D01*
X151275190Y-100349333D01*
X151322809Y-100444571D01*
X151322809Y-100968380D01*
X151322809Y-100444571D02*
X151370428Y-100349333D01*
X151465666Y-100301714D01*
X151608523Y-100301714D01*
X151703761Y-100349333D01*
X151751380Y-100444571D01*
X151751380Y-100968380D01*
X152227571Y-100968380D02*
X152227571Y-100301714D01*
X152227571Y-100396952D02*
X152275190Y-100349333D01*
X152370428Y-100301714D01*
X152513285Y-100301714D01*
X152608523Y-100349333D01*
X152656142Y-100444571D01*
X152656142Y-100968380D01*
X152656142Y-100444571D02*
X152703761Y-100349333D01*
X152799000Y-100301714D01*
X152941857Y-100301714D01*
X153037095Y-100349333D01*
X153084714Y-100444571D01*
X153084714Y-100968380D01*
X153941857Y-100920761D02*
X153846619Y-100968380D01*
X153656142Y-100968380D01*
X153560904Y-100920761D01*
X153513285Y-100825523D01*
X153513285Y-100444571D01*
X153560904Y-100349333D01*
X153656142Y-100301714D01*
X153846619Y-100301714D01*
X153941857Y-100349333D01*
X153989476Y-100444571D01*
X153989476Y-100539809D01*
X153513285Y-100635047D01*
X154418047Y-100968380D02*
X154418047Y-100301714D01*
X154418047Y-100492190D02*
X154465666Y-100396952D01*
X154513285Y-100349333D01*
X154608523Y-100301714D01*
X154703761Y-100301714D01*
X155037095Y-100873142D02*
X155084714Y-100920761D01*
X155037095Y-100968380D01*
X154989476Y-100920761D01*
X155037095Y-100873142D01*
X155037095Y-100968380D01*
X155037095Y-100587428D02*
X154989476Y-100016000D01*
X155037095Y-99968380D01*
X155084714Y-100016000D01*
X155037095Y-100587428D01*
X155037095Y-99968380D01*
D12*
X152522857Y-87657714D02*
X152451428Y-87729142D01*
X152237142Y-87800571D01*
X152094285Y-87800571D01*
X151880000Y-87729142D01*
X151737142Y-87586285D01*
X151665714Y-87443428D01*
X151594285Y-87157714D01*
X151594285Y-86943428D01*
X151665714Y-86657714D01*
X151737142Y-86514857D01*
X151880000Y-86372000D01*
X152094285Y-86300571D01*
X152237142Y-86300571D01*
X152451428Y-86372000D01*
X152522857Y-86443428D01*
X152951428Y-86300571D02*
X153808571Y-86300571D01*
X153380000Y-87800571D02*
X153380000Y-86300571D01*
X154237142Y-87729142D02*
X154451428Y-87800571D01*
X154808571Y-87800571D01*
X154951428Y-87729142D01*
X155022857Y-87657714D01*
X155094285Y-87514857D01*
X155094285Y-87372000D01*
X155022857Y-87229142D01*
X154951428Y-87157714D01*
X154808571Y-87086285D01*
X154522857Y-87014857D01*
X154380000Y-86943428D01*
X154308571Y-86872000D01*
X154237142Y-86729142D01*
X154237142Y-86586285D01*
X154308571Y-86443428D01*
X154380000Y-86372000D01*
X154522857Y-86300571D01*
X154880000Y-86300571D01*
X155094285Y-86372000D01*
X151038714Y-84562142D02*
X152181571Y-84562142D01*
X151610142Y-85133571D02*
X151610142Y-83990714D01*
X153610142Y-83633571D02*
X152895857Y-83633571D01*
X152824428Y-84347857D01*
X152895857Y-84276428D01*
X153038714Y-84205000D01*
X153395857Y-84205000D01*
X153538714Y-84276428D01*
X153610142Y-84347857D01*
X153681571Y-84490714D01*
X153681571Y-84847857D01*
X153610142Y-84990714D01*
X153538714Y-85062142D01*
X153395857Y-85133571D01*
X153038714Y-85133571D01*
X152895857Y-85062142D01*
X152824428Y-84990714D01*
X154110142Y-83633571D02*
X154610142Y-85133571D01*
X155110142Y-83633571D01*
D13*
X54610000Y-121793000D02*
X54610000Y-53467000D01*
X152146000Y-125730000D02*
X58547000Y-125730000D01*
X156210000Y-53467000D02*
X156210000Y-121666000D01*
X58547000Y-49530000D02*
X152273000Y-49530000D01*
X54610000Y-53467000D02*
G75*
G02X58547000Y-49530000I3937000J0D01*
G01*
X58547000Y-125730000D02*
G75*
G02X54610000Y-121793000I0J3937000D01*
G01*
X156210000Y-121666000D02*
G75*
G02X152146000Y-125730000I-4064000J0D01*
G01*
X152273000Y-49530000D02*
G75*
G02X156210000Y-53467000I0J-3937000D01*
G01*
D12*
X76831285Y-52240571D02*
X76831285Y-50740571D01*
X77402714Y-50740571D01*
X77545571Y-50812000D01*
X77617000Y-50883428D01*
X77688428Y-51026285D01*
X77688428Y-51240571D01*
X77617000Y-51383428D01*
X77545571Y-51454857D01*
X77402714Y-51526285D01*
X76831285Y-51526285D01*
X78545571Y-52240571D02*
X78402714Y-52169142D01*
X78331285Y-52097714D01*
X78259857Y-51954857D01*
X78259857Y-51526285D01*
X78331285Y-51383428D01*
X78402714Y-51312000D01*
X78545571Y-51240571D01*
X78759857Y-51240571D01*
X78902714Y-51312000D01*
X78974142Y-51383428D01*
X79045571Y-51526285D01*
X79045571Y-51954857D01*
X78974142Y-52097714D01*
X78902714Y-52169142D01*
X78759857Y-52240571D01*
X78545571Y-52240571D01*
X79545571Y-51240571D02*
X79831285Y-52240571D01*
X80117000Y-51526285D01*
X80402714Y-52240571D01*
X80688428Y-51240571D01*
X81831285Y-52169142D02*
X81688428Y-52240571D01*
X81402714Y-52240571D01*
X81259857Y-52169142D01*
X81188428Y-52026285D01*
X81188428Y-51454857D01*
X81259857Y-51312000D01*
X81402714Y-51240571D01*
X81688428Y-51240571D01*
X81831285Y-51312000D01*
X81902714Y-51454857D01*
X81902714Y-51597714D01*
X81188428Y-51740571D01*
X82545571Y-52240571D02*
X82545571Y-51240571D01*
X82545571Y-51526285D02*
X82617000Y-51383428D01*
X82688428Y-51312000D01*
X82831285Y-51240571D01*
X82974142Y-51240571D01*
D14*
X84756523Y-121474904D02*
X84851761Y-121189190D01*
X84851761Y-120713000D01*
X84756523Y-120522523D01*
X84661285Y-120427285D01*
X84470809Y-120332047D01*
X84280333Y-120332047D01*
X84089857Y-120427285D01*
X83994619Y-120522523D01*
X83899380Y-120713000D01*
X83804142Y-121093952D01*
X83708904Y-121284428D01*
X83613666Y-121379666D01*
X83423190Y-121474904D01*
X83232714Y-121474904D01*
X83042238Y-121379666D01*
X82947000Y-121284428D01*
X82851761Y-121093952D01*
X82851761Y-120617761D01*
X82947000Y-120332047D01*
X83518428Y-118617761D02*
X85518428Y-118617761D01*
X84756523Y-118617761D02*
X84851761Y-118808238D01*
X84851761Y-119189190D01*
X84756523Y-119379666D01*
X84661285Y-119474904D01*
X84470809Y-119570142D01*
X83899380Y-119570142D01*
X83708904Y-119474904D01*
X83613666Y-119379666D01*
X83518428Y-119189190D01*
X83518428Y-118808238D01*
X83613666Y-118617761D01*
X83518428Y-116808238D02*
X84851761Y-116808238D01*
X83518428Y-117665380D02*
X84566047Y-117665380D01*
X84756523Y-117570142D01*
X84851761Y-117379666D01*
X84851761Y-117093952D01*
X84756523Y-116903476D01*
X84661285Y-116808238D01*
X84851761Y-114998714D02*
X83804142Y-114998714D01*
X83613666Y-115093952D01*
X83518428Y-115284428D01*
X83518428Y-115665380D01*
X83613666Y-115855857D01*
X84756523Y-114998714D02*
X84851761Y-115189190D01*
X84851761Y-115665380D01*
X84756523Y-115855857D01*
X84566047Y-115951095D01*
X84375571Y-115951095D01*
X84185095Y-115855857D01*
X84089857Y-115665380D01*
X84089857Y-115189190D01*
X83994619Y-114998714D01*
X84851761Y-114046333D02*
X83518428Y-114046333D01*
X83899380Y-114046333D02*
X83708904Y-113951095D01*
X83613666Y-113855857D01*
X83518428Y-113665380D01*
X83518428Y-113474904D01*
X84756523Y-112046333D02*
X84851761Y-112236809D01*
X84851761Y-112617761D01*
X84756523Y-112808238D01*
X84566047Y-112903476D01*
X83804142Y-112903476D01*
X83613666Y-112808238D01*
X83518428Y-112617761D01*
X83518428Y-112236809D01*
X83613666Y-112046333D01*
X83804142Y-111951095D01*
X83994619Y-111951095D01*
X84185095Y-112903476D01*
X62912523Y-117363523D02*
X63007761Y-117077809D01*
X63007761Y-116601619D01*
X62912523Y-116411142D01*
X62817285Y-116315904D01*
X62626809Y-116220666D01*
X62436333Y-116220666D01*
X62245857Y-116315904D01*
X62150619Y-116411142D01*
X62055380Y-116601619D01*
X61960142Y-116982571D01*
X61864904Y-117173047D01*
X61769666Y-117268285D01*
X61579190Y-117363523D01*
X61388714Y-117363523D01*
X61198238Y-117268285D01*
X61103000Y-117173047D01*
X61007761Y-116982571D01*
X61007761Y-116506380D01*
X61103000Y-116220666D01*
X63007761Y-115363523D02*
X61674428Y-115363523D01*
X61007761Y-115363523D02*
X61103000Y-115458761D01*
X61198238Y-115363523D01*
X61103000Y-115268285D01*
X61007761Y-115363523D01*
X61198238Y-115363523D01*
X61674428Y-114411142D02*
X63007761Y-114411142D01*
X61864904Y-114411142D02*
X61769666Y-114315904D01*
X61674428Y-114125428D01*
X61674428Y-113839714D01*
X61769666Y-113649238D01*
X61960142Y-113554000D01*
X63007761Y-113554000D01*
X62912523Y-111839714D02*
X63007761Y-112030190D01*
X63007761Y-112411142D01*
X62912523Y-112601619D01*
X62722047Y-112696857D01*
X61960142Y-112696857D01*
X61769666Y-112601619D01*
X61674428Y-112411142D01*
X61674428Y-112030190D01*
X61769666Y-111839714D01*
X61960142Y-111744476D01*
X62150619Y-111744476D01*
X62341095Y-112696857D01*
D12*
X107506428Y-124559142D02*
X107720714Y-124630571D01*
X108077857Y-124630571D01*
X108220714Y-124559142D01*
X108292142Y-124487714D01*
X108363571Y-124344857D01*
X108363571Y-124202000D01*
X108292142Y-124059142D01*
X108220714Y-123987714D01*
X108077857Y-123916285D01*
X107792142Y-123844857D01*
X107649285Y-123773428D01*
X107577857Y-123702000D01*
X107506428Y-123559142D01*
X107506428Y-123416285D01*
X107577857Y-123273428D01*
X107649285Y-123202000D01*
X107792142Y-123130571D01*
X108149285Y-123130571D01*
X108363571Y-123202000D01*
X109577857Y-124559142D02*
X109435000Y-124630571D01*
X109149285Y-124630571D01*
X109006428Y-124559142D01*
X108935000Y-124416285D01*
X108935000Y-123844857D01*
X109006428Y-123702000D01*
X109149285Y-123630571D01*
X109435000Y-123630571D01*
X109577857Y-123702000D01*
X109649285Y-123844857D01*
X109649285Y-123987714D01*
X108935000Y-124130571D01*
X110077857Y-123630571D02*
X110649285Y-123630571D01*
X110292142Y-123130571D02*
X110292142Y-124416285D01*
X110363571Y-124559142D01*
X110506428Y-124630571D01*
X110649285Y-124630571D01*
X112220714Y-124559142D02*
X112435000Y-124630571D01*
X112792142Y-124630571D01*
X112935000Y-124559142D01*
X113006428Y-124487714D01*
X113077857Y-124344857D01*
X113077857Y-124202000D01*
X113006428Y-124059142D01*
X112935000Y-123987714D01*
X112792142Y-123916285D01*
X112506428Y-123844857D01*
X112363571Y-123773428D01*
X112292142Y-123702000D01*
X112220714Y-123559142D01*
X112220714Y-123416285D01*
X112292142Y-123273428D01*
X112363571Y-123202000D01*
X112506428Y-123130571D01*
X112863571Y-123130571D01*
X113077857Y-123202000D01*
X113506428Y-123630571D02*
X114077857Y-123630571D01*
X113720714Y-123130571D02*
X113720714Y-124416285D01*
X113792142Y-124559142D01*
X113935000Y-124630571D01*
X114077857Y-124630571D01*
X115149285Y-124559142D02*
X115006428Y-124630571D01*
X114720714Y-124630571D01*
X114577857Y-124559142D01*
X114506428Y-124416285D01*
X114506428Y-123844857D01*
X114577857Y-123702000D01*
X114720714Y-123630571D01*
X115006428Y-123630571D01*
X115149285Y-123702000D01*
X115220714Y-123844857D01*
X115220714Y-123987714D01*
X114506428Y-124130571D01*
X115863571Y-123630571D02*
X115863571Y-125130571D01*
X115863571Y-123702000D02*
X116006428Y-123630571D01*
X116292142Y-123630571D01*
X116435000Y-123702000D01*
X116506428Y-123773428D01*
X116577857Y-123916285D01*
X116577857Y-124344857D01*
X116506428Y-124487714D01*
X116435000Y-124559142D01*
X116292142Y-124630571D01*
X116006428Y-124630571D01*
X115863571Y-124559142D01*
X118292142Y-124559142D02*
X118506428Y-124630571D01*
X118863571Y-124630571D01*
X119006428Y-124559142D01*
X119077857Y-124487714D01*
X119149285Y-124344857D01*
X119149285Y-124202000D01*
X119077857Y-124059142D01*
X119006428Y-123987714D01*
X118863571Y-123916285D01*
X118577857Y-123844857D01*
X118435000Y-123773428D01*
X118363571Y-123702000D01*
X118292142Y-123559142D01*
X118292142Y-123416285D01*
X118363571Y-123273428D01*
X118435000Y-123202000D01*
X118577857Y-123130571D01*
X118935000Y-123130571D01*
X119149285Y-123202000D01*
X119792142Y-124630571D02*
X119792142Y-123630571D01*
X119792142Y-123130571D02*
X119720714Y-123202000D01*
X119792142Y-123273428D01*
X119863571Y-123202000D01*
X119792142Y-123130571D01*
X119792142Y-123273428D01*
X120363571Y-123630571D02*
X121149285Y-123630571D01*
X120363571Y-124630571D01*
X121149285Y-124630571D01*
X122292142Y-124559142D02*
X122149285Y-124630571D01*
X121863571Y-124630571D01*
X121720714Y-124559142D01*
X121649285Y-124416285D01*
X121649285Y-123844857D01*
X121720714Y-123702000D01*
X121863571Y-123630571D01*
X122149285Y-123630571D01*
X122292142Y-123702000D01*
X122363571Y-123844857D01*
X122363571Y-123987714D01*
X121649285Y-124130571D01*
X131985714Y-124686142D02*
X132200000Y-124757571D01*
X132557142Y-124757571D01*
X132700000Y-124686142D01*
X132771428Y-124614714D01*
X132842857Y-124471857D01*
X132842857Y-124329000D01*
X132771428Y-124186142D01*
X132700000Y-124114714D01*
X132557142Y-124043285D01*
X132271428Y-123971857D01*
X132128571Y-123900428D01*
X132057142Y-123829000D01*
X131985714Y-123686142D01*
X131985714Y-123543285D01*
X132057142Y-123400428D01*
X132128571Y-123329000D01*
X132271428Y-123257571D01*
X132628571Y-123257571D01*
X132842857Y-123329000D01*
X134057142Y-124686142D02*
X133914285Y-124757571D01*
X133628571Y-124757571D01*
X133485714Y-124686142D01*
X133414285Y-124543285D01*
X133414285Y-123971857D01*
X133485714Y-123829000D01*
X133628571Y-123757571D01*
X133914285Y-123757571D01*
X134057142Y-123829000D01*
X134128571Y-123971857D01*
X134128571Y-124114714D01*
X133414285Y-124257571D01*
X134557142Y-123757571D02*
X135128571Y-123757571D01*
X134771428Y-123257571D02*
X134771428Y-124543285D01*
X134842857Y-124686142D01*
X134985714Y-124757571D01*
X135128571Y-124757571D01*
X137271428Y-123971857D02*
X136771428Y-123971857D01*
X136771428Y-124757571D02*
X136771428Y-123257571D01*
X137485714Y-123257571D01*
X138057142Y-124757571D02*
X138057142Y-123757571D01*
X138057142Y-124043285D02*
X138128571Y-123900428D01*
X138200000Y-123829000D01*
X138342857Y-123757571D01*
X138485714Y-123757571D01*
X139557142Y-124686142D02*
X139414285Y-124757571D01*
X139128571Y-124757571D01*
X138985714Y-124686142D01*
X138914285Y-124543285D01*
X138914285Y-123971857D01*
X138985714Y-123829000D01*
X139128571Y-123757571D01*
X139414285Y-123757571D01*
X139557142Y-123829000D01*
X139628571Y-123971857D01*
X139628571Y-124114714D01*
X138914285Y-124257571D01*
X140914285Y-123757571D02*
X140914285Y-125257571D01*
X140914285Y-124686142D02*
X140771428Y-124757571D01*
X140485714Y-124757571D01*
X140342857Y-124686142D01*
X140271428Y-124614714D01*
X140200000Y-124471857D01*
X140200000Y-124043285D01*
X140271428Y-123900428D01*
X140342857Y-123829000D01*
X140485714Y-123757571D01*
X140771428Y-123757571D01*
X140914285Y-123829000D01*
X142271428Y-123757571D02*
X142271428Y-124757571D01*
X141628571Y-123757571D02*
X141628571Y-124543285D01*
X141700000Y-124686142D01*
X141842857Y-124757571D01*
X142057142Y-124757571D01*
X142200000Y-124686142D01*
X142271428Y-124614714D01*
X143557142Y-124686142D02*
X143414285Y-124757571D01*
X143128571Y-124757571D01*
X142985714Y-124686142D01*
X142914285Y-124543285D01*
X142914285Y-123971857D01*
X142985714Y-123829000D01*
X143128571Y-123757571D01*
X143414285Y-123757571D01*
X143557142Y-123829000D01*
X143628571Y-123971857D01*
X143628571Y-124114714D01*
X142914285Y-124257571D01*
X144271428Y-123757571D02*
X144271428Y-124757571D01*
X144271428Y-123900428D02*
X144342857Y-123829000D01*
X144485714Y-123757571D01*
X144700000Y-123757571D01*
X144842857Y-123829000D01*
X144914285Y-123971857D01*
X144914285Y-124757571D01*
X146271428Y-124686142D02*
X146128571Y-124757571D01*
X145842857Y-124757571D01*
X145700000Y-124686142D01*
X145628571Y-124614714D01*
X145557142Y-124471857D01*
X145557142Y-124043285D01*
X145628571Y-123900428D01*
X145700000Y-123829000D01*
X145842857Y-123757571D01*
X146128571Y-123757571D01*
X146271428Y-123829000D01*
X146771428Y-123757571D02*
X147128571Y-124757571D01*
X147485714Y-123757571D02*
X147128571Y-124757571D01*
X146985714Y-125114714D01*
X146914285Y-125186142D01*
X146771428Y-125257571D01*
X90523714Y-51802000D02*
X91238000Y-51802000D01*
X90380857Y-52230571D02*
X90880857Y-50730571D01*
X91380857Y-52230571D01*
X91880857Y-52230571D02*
X91880857Y-50730571D01*
X92238000Y-50730571D01*
X92452285Y-50802000D01*
X92595142Y-50944857D01*
X92666571Y-51087714D01*
X92738000Y-51373428D01*
X92738000Y-51587714D01*
X92666571Y-51873428D01*
X92595142Y-52016285D01*
X92452285Y-52159142D01*
X92238000Y-52230571D01*
X91880857Y-52230571D01*
X93452285Y-52230571D02*
X93738000Y-52230571D01*
X93880857Y-52159142D01*
X93952285Y-52087714D01*
X94095142Y-51873428D01*
X94166571Y-51587714D01*
X94166571Y-51016285D01*
X94095142Y-50873428D01*
X94023714Y-50802000D01*
X93880857Y-50730571D01*
X93595142Y-50730571D01*
X93452285Y-50802000D01*
X93380857Y-50873428D01*
X93309428Y-51016285D01*
X93309428Y-51373428D01*
X93380857Y-51516285D01*
X93452285Y-51587714D01*
X93595142Y-51659142D01*
X93880857Y-51659142D01*
X94023714Y-51587714D01*
X94095142Y-51516285D01*
X94166571Y-51373428D01*
X95023714Y-51373428D02*
X94880857Y-51302000D01*
X94809428Y-51230571D01*
X94738000Y-51087714D01*
X94738000Y-51016285D01*
X94809428Y-50873428D01*
X94880857Y-50802000D01*
X95023714Y-50730571D01*
X95309428Y-50730571D01*
X95452285Y-50802000D01*
X95523714Y-50873428D01*
X95595142Y-51016285D01*
X95595142Y-51087714D01*
X95523714Y-51230571D01*
X95452285Y-51302000D01*
X95309428Y-51373428D01*
X95023714Y-51373428D01*
X94880857Y-51444857D01*
X94809428Y-51516285D01*
X94738000Y-51659142D01*
X94738000Y-51944857D01*
X94809428Y-52087714D01*
X94880857Y-52159142D01*
X95023714Y-52230571D01*
X95309428Y-52230571D01*
X95452285Y-52159142D01*
X95523714Y-52087714D01*
X95595142Y-51944857D01*
X95595142Y-51659142D01*
X95523714Y-51516285D01*
X95452285Y-51444857D01*
X95309428Y-51373428D01*
X96952285Y-50730571D02*
X96238000Y-50730571D01*
X96166571Y-51444857D01*
X96238000Y-51373428D01*
X96380857Y-51302000D01*
X96738000Y-51302000D01*
X96880857Y-51373428D01*
X96952285Y-51444857D01*
X97023714Y-51587714D01*
X97023714Y-51944857D01*
X96952285Y-52087714D01*
X96880857Y-52159142D01*
X96738000Y-52230571D01*
X96380857Y-52230571D01*
X96238000Y-52159142D01*
X96166571Y-52087714D01*
X97952285Y-50730571D02*
X98095142Y-50730571D01*
X98238000Y-50802000D01*
X98309428Y-50873428D01*
X98380857Y-51016285D01*
X98452285Y-51302000D01*
X98452285Y-51659142D01*
X98380857Y-51944857D01*
X98309428Y-52087714D01*
X98238000Y-52159142D01*
X98095142Y-52230571D01*
X97952285Y-52230571D01*
X97809428Y-52159142D01*
X97738000Y-52087714D01*
X97666571Y-51944857D01*
X97595142Y-51659142D01*
X97595142Y-51302000D01*
X97666571Y-51016285D01*
X97738000Y-50873428D01*
X97809428Y-50802000D01*
X97952285Y-50730571D01*
X90523714Y-54709142D02*
X90738000Y-54780571D01*
X91095142Y-54780571D01*
X91238000Y-54709142D01*
X91309428Y-54637714D01*
X91380857Y-54494857D01*
X91380857Y-54352000D01*
X91309428Y-54209142D01*
X91238000Y-54137714D01*
X91095142Y-54066285D01*
X90809428Y-53994857D01*
X90666571Y-53923428D01*
X90595142Y-53852000D01*
X90523714Y-53709142D01*
X90523714Y-53566285D01*
X90595142Y-53423428D01*
X90666571Y-53352000D01*
X90809428Y-53280571D01*
X91166571Y-53280571D01*
X91380857Y-53352000D01*
X92023714Y-54780571D02*
X92023714Y-53780571D01*
X92023714Y-53280571D02*
X91952285Y-53352000D01*
X92023714Y-53423428D01*
X92095142Y-53352000D01*
X92023714Y-53280571D01*
X92023714Y-53423428D01*
X92738000Y-53780571D02*
X92738000Y-54780571D01*
X92738000Y-53923428D02*
X92809428Y-53852000D01*
X92952285Y-53780571D01*
X93166571Y-53780571D01*
X93309428Y-53852000D01*
X93380857Y-53994857D01*
X93380857Y-54780571D01*
X94666571Y-54709142D02*
X94523714Y-54780571D01*
X94238000Y-54780571D01*
X94095142Y-54709142D01*
X94023714Y-54566285D01*
X94023714Y-53994857D01*
X94095142Y-53852000D01*
X94238000Y-53780571D01*
X94523714Y-53780571D01*
X94666571Y-53852000D01*
X94738000Y-53994857D01*
X94738000Y-54137714D01*
X94023714Y-54280571D01*
X97309428Y-53352000D02*
X97166571Y-53280571D01*
X96952285Y-53280571D01*
X96738000Y-53352000D01*
X96595142Y-53494857D01*
X96523714Y-53637714D01*
X96452285Y-53923428D01*
X96452285Y-54137714D01*
X96523714Y-54423428D01*
X96595142Y-54566285D01*
X96738000Y-54709142D01*
X96952285Y-54780571D01*
X97095142Y-54780571D01*
X97309428Y-54709142D01*
X97380857Y-54637714D01*
X97380857Y-54137714D01*
X97095142Y-54137714D01*
X98595142Y-54709142D02*
X98452285Y-54780571D01*
X98166571Y-54780571D01*
X98023714Y-54709142D01*
X97952285Y-54566285D01*
X97952285Y-53994857D01*
X98023714Y-53852000D01*
X98166571Y-53780571D01*
X98452285Y-53780571D01*
X98595142Y-53852000D01*
X98666571Y-53994857D01*
X98666571Y-54137714D01*
X97952285Y-54280571D01*
X99309428Y-53780571D02*
X99309428Y-54780571D01*
X99309428Y-53923428D02*
X99380857Y-53852000D01*
X99523714Y-53780571D01*
X99738000Y-53780571D01*
X99880857Y-53852000D01*
X99952285Y-53994857D01*
X99952285Y-54780571D01*
X101238000Y-54709142D02*
X101095142Y-54780571D01*
X100809428Y-54780571D01*
X100666571Y-54709142D01*
X100595142Y-54566285D01*
X100595142Y-53994857D01*
X100666571Y-53852000D01*
X100809428Y-53780571D01*
X101095142Y-53780571D01*
X101238000Y-53852000D01*
X101309428Y-53994857D01*
X101309428Y-54137714D01*
X100595142Y-54280571D01*
X101952285Y-54780571D02*
X101952285Y-53780571D01*
X101952285Y-54066285D02*
X102023714Y-53923428D01*
X102095142Y-53852000D01*
X102238000Y-53780571D01*
X102380857Y-53780571D01*
X103523714Y-54780571D02*
X103523714Y-53994857D01*
X103452285Y-53852000D01*
X103309428Y-53780571D01*
X103023714Y-53780571D01*
X102880857Y-53852000D01*
X103523714Y-54709142D02*
X103380857Y-54780571D01*
X103023714Y-54780571D01*
X102880857Y-54709142D01*
X102809428Y-54566285D01*
X102809428Y-54423428D01*
X102880857Y-54280571D01*
X103023714Y-54209142D01*
X103380857Y-54209142D01*
X103523714Y-54137714D01*
X104023714Y-53780571D02*
X104595142Y-53780571D01*
X104238000Y-53280571D02*
X104238000Y-54566285D01*
X104309428Y-54709142D01*
X104452285Y-54780571D01*
X104595142Y-54780571D01*
X105309428Y-54780571D02*
X105166571Y-54709142D01*
X105095142Y-54637714D01*
X105023714Y-54494857D01*
X105023714Y-54066285D01*
X105095142Y-53923428D01*
X105166571Y-53852000D01*
X105309428Y-53780571D01*
X105523714Y-53780571D01*
X105666571Y-53852000D01*
X105738000Y-53923428D01*
X105809428Y-54066285D01*
X105809428Y-54494857D01*
X105738000Y-54637714D01*
X105666571Y-54709142D01*
X105523714Y-54780571D01*
X105309428Y-54780571D01*
X106452285Y-54780571D02*
X106452285Y-53780571D01*
X106452285Y-54066285D02*
X106523714Y-53923428D01*
X106595142Y-53852000D01*
X106738000Y-53780571D01*
X106880857Y-53780571D01*
X90380857Y-55830571D02*
X90880857Y-57330571D01*
X91380857Y-55830571D01*
X92880857Y-55830571D02*
X93809428Y-55830571D01*
X93309428Y-56402000D01*
X93523714Y-56402000D01*
X93666571Y-56473428D01*
X93738000Y-56544857D01*
X93809428Y-56687714D01*
X93809428Y-57044857D01*
X93738000Y-57187714D01*
X93666571Y-57259142D01*
X93523714Y-57330571D01*
X93095142Y-57330571D01*
X92952285Y-57259142D01*
X92880857Y-57187714D01*
X94452285Y-57187714D02*
X94523714Y-57259142D01*
X94452285Y-57330571D01*
X94380857Y-57259142D01*
X94452285Y-57187714D01*
X94452285Y-57330571D01*
X95809428Y-56330571D02*
X95809428Y-57330571D01*
X95452285Y-55759142D02*
X95095142Y-56830571D01*
X96023714Y-56830571D01*
X76994000Y-55947571D02*
X77494000Y-57447571D01*
X77994000Y-55947571D01*
X78494000Y-57447571D02*
X78494000Y-55947571D01*
X78851142Y-55947571D01*
X79065428Y-56019000D01*
X79208285Y-56161857D01*
X79279714Y-56304714D01*
X79351142Y-56590428D01*
X79351142Y-56804714D01*
X79279714Y-57090428D01*
X79208285Y-57233285D01*
X79065428Y-57376142D01*
X78851142Y-57447571D01*
X78494000Y-57447571D01*
X80851142Y-57304714D02*
X80779714Y-57376142D01*
X80565428Y-57447571D01*
X80422571Y-57447571D01*
X80208285Y-57376142D01*
X80065428Y-57233285D01*
X79994000Y-57090428D01*
X79922571Y-56804714D01*
X79922571Y-56590428D01*
X79994000Y-56304714D01*
X80065428Y-56161857D01*
X80208285Y-56019000D01*
X80422571Y-55947571D01*
X80565428Y-55947571D01*
X80779714Y-56019000D01*
X80851142Y-56090428D01*
X77593142Y-53280571D02*
X77307428Y-53280571D01*
X77164571Y-53352000D01*
X77093142Y-53423428D01*
X76950285Y-53637714D01*
X76878857Y-53923428D01*
X76878857Y-54494857D01*
X76950285Y-54637714D01*
X77021714Y-54709142D01*
X77164571Y-54780571D01*
X77450285Y-54780571D01*
X77593142Y-54709142D01*
X77664571Y-54637714D01*
X77736000Y-54494857D01*
X77736000Y-54137714D01*
X77664571Y-53994857D01*
X77593142Y-53923428D01*
X77450285Y-53852000D01*
X77164571Y-53852000D01*
X77021714Y-53923428D01*
X76950285Y-53994857D01*
X76878857Y-54137714D01*
X78378857Y-54209142D02*
X79521714Y-54209142D01*
X81021714Y-54780571D02*
X80164571Y-54780571D01*
X80593142Y-54780571D02*
X80593142Y-53280571D01*
X80450285Y-53494857D01*
X80307428Y-53637714D01*
X80164571Y-53709142D01*
X81593142Y-53423428D02*
X81664571Y-53352000D01*
X81807428Y-53280571D01*
X82164571Y-53280571D01*
X82307428Y-53352000D01*
X82378857Y-53423428D01*
X82450285Y-53566285D01*
X82450285Y-53709142D01*
X82378857Y-53923428D01*
X81521714Y-54780571D01*
X82450285Y-54780571D01*
X152395857Y-77005571D02*
X151895857Y-76291285D01*
X151538714Y-77005571D02*
X151538714Y-75505571D01*
X152110142Y-75505571D01*
X152253000Y-75577000D01*
X152324428Y-75648428D01*
X152395857Y-75791285D01*
X152395857Y-76005571D01*
X152324428Y-76148428D01*
X152253000Y-76219857D01*
X152110142Y-76291285D01*
X151538714Y-76291285D01*
X152967285Y-76934142D02*
X153181571Y-77005571D01*
X153538714Y-77005571D01*
X153681571Y-76934142D01*
X153753000Y-76862714D01*
X153824428Y-76719857D01*
X153824428Y-76577000D01*
X153753000Y-76434142D01*
X153681571Y-76362714D01*
X153538714Y-76291285D01*
X153253000Y-76219857D01*
X153110142Y-76148428D01*
X153038714Y-76077000D01*
X152967285Y-75934142D01*
X152967285Y-75791285D01*
X153038714Y-75648428D01*
X153110142Y-75577000D01*
X153253000Y-75505571D01*
X153610142Y-75505571D01*
X153824428Y-75577000D01*
X154253000Y-75505571D02*
X155110142Y-75505571D01*
X154681571Y-77005571D02*
X154681571Y-75505571D01*
X152292714Y-79799571D02*
X151792714Y-79085285D01*
X151435571Y-79799571D02*
X151435571Y-78299571D01*
X152007000Y-78299571D01*
X152149857Y-78371000D01*
X152221285Y-78442428D01*
X152292714Y-78585285D01*
X152292714Y-78799571D01*
X152221285Y-78942428D01*
X152149857Y-79013857D01*
X152007000Y-79085285D01*
X151435571Y-79085285D01*
X152792714Y-78299571D02*
X153792714Y-79799571D01*
X153792714Y-78299571D02*
X152792714Y-79799571D01*
X154364142Y-79799571D02*
X154364142Y-78299571D01*
X154721285Y-78299571D01*
X154935571Y-78371000D01*
X155078428Y-78513857D01*
X155149857Y-78656714D01*
X155221285Y-78942428D01*
X155221285Y-79156714D01*
X155149857Y-79442428D01*
X155078428Y-79585285D01*
X154935571Y-79728142D01*
X154721285Y-79799571D01*
X154364142Y-79799571D01*
X151578428Y-81093571D02*
X152435571Y-81093571D01*
X152007000Y-82593571D02*
X152007000Y-81093571D01*
X152792714Y-81093571D02*
X153792714Y-82593571D01*
X153792714Y-81093571D02*
X152792714Y-82593571D01*
X154364142Y-82593571D02*
X154364142Y-81093571D01*
X154721285Y-81093571D01*
X154935571Y-81165000D01*
X155078428Y-81307857D01*
X155149857Y-81450714D01*
X155221285Y-81736428D01*
X155221285Y-81950714D01*
X155149857Y-82236428D01*
X155078428Y-82379285D01*
X154935571Y-82522142D01*
X154721285Y-82593571D01*
X154364142Y-82593571D01*
X152078428Y-88912000D02*
X151935571Y-88840571D01*
X151721285Y-88840571D01*
X151507000Y-88912000D01*
X151364142Y-89054857D01*
X151292714Y-89197714D01*
X151221285Y-89483428D01*
X151221285Y-89697714D01*
X151292714Y-89983428D01*
X151364142Y-90126285D01*
X151507000Y-90269142D01*
X151721285Y-90340571D01*
X151864142Y-90340571D01*
X152078428Y-90269142D01*
X152149857Y-90197714D01*
X152149857Y-89697714D01*
X151864142Y-89697714D01*
X152792714Y-90340571D02*
X152792714Y-88840571D01*
X153649857Y-90340571D01*
X153649857Y-88840571D01*
X154364142Y-90340571D02*
X154364142Y-88840571D01*
X154721285Y-88840571D01*
X154935571Y-88912000D01*
X155078428Y-89054857D01*
X155149857Y-89197714D01*
X155221285Y-89483428D01*
X155221285Y-89697714D01*
X155149857Y-89983428D01*
X155078428Y-90126285D01*
X154935571Y-90269142D01*
X154721285Y-90340571D01*
X154364142Y-90340571D01*
D13*
X102489000Y-62103000D02*
G75*
G03X102489000Y-62103000I-1270000J0D01*
G01*
X143129000Y-62103000D02*
G75*
G03X143129000Y-62103000I-1270000J0D01*
G01*
X102489000Y-102743000D02*
G75*
G03X102489000Y-102743000I-1270000J0D01*
G01*
X143129000Y-102743000D02*
G75*
G03X143129000Y-102743000I-1270000J0D01*
G01*
X98679000Y-55753000D02*
X98679000Y-105283000D01*
X112649000Y-105283000D02*
X98679000Y-105283000D01*
X144399000Y-55753000D02*
X144399000Y-105283000D01*
X98679000Y-55753000D02*
X99949000Y-55753000D01*
X143129000Y-55753000D02*
X144399000Y-55753000D01*
X99949000Y-55753000D02*
X107569000Y-55753000D01*
X139319000Y-55753000D02*
X143129000Y-55753000D01*
X144399000Y-105283000D02*
X112649000Y-105283000D01*
X107569000Y-55753000D02*
X139319000Y-55753000D01*
D15*
X119932267Y-64518000D02*
X119589733Y-64518000D01*
X119932267Y-63498000D02*
X119589733Y-63498000D01*
X142580000Y-115276000D02*
G75*
G03X142580000Y-115276000I-3000000J0D01*
G01*
X141580000Y-109376000D02*
X145680000Y-109376000D01*
X145680000Y-121176000D02*
X141580000Y-121176000D01*
X137580000Y-121176000D02*
X133480000Y-121176000D01*
X137580000Y-109376000D02*
X133480000Y-109376000D01*
X133480000Y-109376000D02*
X133480000Y-121176000D01*
X132080000Y-111476000D02*
X131780000Y-111176000D01*
X131780000Y-111176000D02*
X132380000Y-111176000D01*
X132380000Y-111176000D02*
X132080000Y-111476000D01*
X145680000Y-109376000D02*
X145680000Y-111776000D01*
X145680000Y-113976000D02*
X145680000Y-116576000D01*
X145680000Y-118776000D02*
X145680000Y-121176000D01*
X139580000Y-114776000D02*
X139580000Y-115776000D01*
X139080000Y-115276000D02*
X140080000Y-115276000D01*
X117942000Y-115276000D02*
G75*
G03X117942000Y-115276000I-3000000J0D01*
G01*
X116942000Y-109376000D02*
X121042000Y-109376000D01*
X121042000Y-121176000D02*
X116942000Y-121176000D01*
X112942000Y-121176000D02*
X108842000Y-121176000D01*
X112942000Y-109376000D02*
X108842000Y-109376000D01*
X108842000Y-109376000D02*
X108842000Y-121176000D01*
X107442000Y-111476000D02*
X107142000Y-111176000D01*
X107142000Y-111176000D02*
X107742000Y-111176000D01*
X107742000Y-111176000D02*
X107442000Y-111476000D01*
X121042000Y-109376000D02*
X121042000Y-111776000D01*
X121042000Y-113976000D02*
X121042000Y-116576000D01*
X121042000Y-118776000D02*
X121042000Y-121176000D01*
X114942000Y-114776000D02*
X114942000Y-115776000D01*
X114442000Y-115276000D02*
X115442000Y-115276000D01*
D13*
X151566116Y-66167000D02*
G75*
G03X151566116Y-66167000I-1198116J0D01*
G01*
X153368000Y-69290000D02*
X147368000Y-69290000D01*
X153368000Y-63067000D02*
X147368000Y-63067000D01*
X153368000Y-63067000D02*
X153368000Y-69267000D01*
X147368000Y-63067000D02*
X147368000Y-69267000D01*
D15*
X63673107Y-73523353D02*
X63673107Y-72593353D01*
X63673107Y-70363353D02*
X63673107Y-71293353D01*
X63673107Y-70363353D02*
X61513107Y-70363353D01*
X63673107Y-73523353D02*
X62213107Y-73523353D01*
X66529000Y-90546000D02*
X65269000Y-90546000D01*
X59709000Y-90546000D02*
X60969000Y-90546000D01*
X66529000Y-94306000D02*
X66529000Y-90546000D01*
X59709000Y-96556000D02*
X59709000Y-90546000D01*
D13*
X96393000Y-102616000D02*
X96393000Y-64516000D01*
X70993000Y-64516000D02*
X70993000Y-102616000D01*
X96393000Y-64516000D02*
X70993000Y-64516000D01*
X70993000Y-107696000D02*
X70993000Y-102616000D01*
X70993000Y-107696000D02*
X96393000Y-107696000D01*
X96393000Y-107696000D02*
X96393000Y-102616000D01*
D15*
X59582000Y-100476000D02*
X59582000Y-102826000D01*
X59582000Y-107296000D02*
X59582000Y-104946000D01*
X65337563Y-107296000D02*
X59582000Y-107296000D01*
X65337563Y-100476000D02*
X59582000Y-100476000D01*
X66402000Y-101540437D02*
X66402000Y-102826000D01*
X66402000Y-106231563D02*
X66402000Y-104946000D01*
X66402000Y-106231563D02*
X65337563Y-107296000D01*
X66402000Y-101540437D02*
X65337563Y-100476000D01*
X67429500Y-105733500D02*
X66642000Y-105733500D01*
X67035750Y-106127250D02*
X67035750Y-105339750D01*
X67089865Y-83421595D02*
X67089865Y-82634095D01*
X67483615Y-83027845D02*
X66696115Y-83027845D01*
X66456115Y-78834782D02*
X65391678Y-77770345D01*
X66456115Y-83525908D02*
X65391678Y-84590345D01*
X66456115Y-83525908D02*
X66456115Y-82240345D01*
X66456115Y-78834782D02*
X66456115Y-80120345D01*
X65391678Y-77770345D02*
X59636115Y-77770345D01*
X65391678Y-84590345D02*
X59636115Y-84590345D01*
X59636115Y-84590345D02*
X59636115Y-82240345D01*
X59636115Y-77770345D02*
X59636115Y-80120345D01*
X124841000Y-70772000D02*
X119841000Y-70772000D01*
X124841000Y-65372000D02*
X119841000Y-65372000D01*
X124841000Y-65372000D02*
G75*
G02X124841000Y-70772000I0J-2700000D01*
G01*
X119841000Y-65372000D02*
G75*
G03X119841000Y-70772000I0J-2700000D01*
G01*
D16*
X73017610Y-111760000D02*
X72524390Y-111760000D01*
X70477610Y-111760000D02*
X63995300Y-111760000D01*
X79006700Y-125730000D02*
X79006700Y-111760000D01*
X63995300Y-125730000D02*
X79006700Y-125730000D01*
X63995300Y-111760000D02*
X63995300Y-125730000D01*
X79006700Y-111760000D02*
X75064390Y-111760000D01*
X77165200Y-146939000D02*
X77165200Y-125476000D01*
X65836800Y-146939000D02*
X77165200Y-146939000D01*
X65836800Y-125476000D02*
X65836800Y-146939000D01*
X77165200Y-125476000D02*
X65836800Y-125476000D01*
X71624065Y-110863129D02*
X71501000Y-110617000D01*
X71377935Y-110863129D02*
X71501000Y-110617000D01*
X93348935Y-110863129D02*
X93472000Y-110617000D01*
X93595065Y-110863129D02*
X93472000Y-110617000D01*
X99136200Y-125476000D02*
X87807800Y-125476000D01*
X87807800Y-125476000D02*
X87807800Y-146939000D01*
X87807800Y-146939000D02*
X99136200Y-146939000D01*
X99136200Y-146939000D02*
X99136200Y-125476000D01*
X100977700Y-111760000D02*
X97035390Y-111760000D01*
X85966300Y-111760000D02*
X85966300Y-125730000D01*
X85966300Y-125730000D02*
X100977700Y-125730000D01*
X100977700Y-125730000D02*
X100977700Y-111760000D01*
X92448610Y-111760000D02*
X85966300Y-111760000D01*
X94988610Y-111760000D02*
X94495390Y-111760000D01*
D15*
X143831000Y-90484000D02*
X146491000Y-90484000D01*
X143831000Y-77724000D02*
X143831000Y-90484000D01*
X146491000Y-77724000D02*
X146491000Y-90484000D01*
X143831000Y-77724000D02*
X146491000Y-77724000D01*
X143831000Y-76454000D02*
X143831000Y-75124000D01*
X143831000Y-75124000D02*
X145161000Y-75124000D01*
X61004267Y-86743000D02*
X60661733Y-86743000D01*
X61004267Y-85723000D02*
X60661733Y-85723000D01*
X61258267Y-99189000D02*
X60915733Y-99189000D01*
X61258267Y-98169000D02*
X60915733Y-98169000D01*
X124669733Y-64518000D02*
X125012267Y-64518000D01*
X124669733Y-63498000D02*
X125012267Y-63498000D01*
X125855000Y-74974267D02*
X125855000Y-74631733D01*
X126875000Y-74974267D02*
X126875000Y-74631733D01*
X62228000Y-67481267D02*
X62228000Y-67138733D01*
X63248000Y-67481267D02*
X63248000Y-67138733D01*
X141607000Y-84880267D02*
X141607000Y-84537733D01*
X140587000Y-84880267D02*
X140587000Y-84537733D01*
X69090000Y-92538733D02*
X69090000Y-92881267D01*
X68070000Y-92538733D02*
X68070000Y-92881267D01*
X67845000Y-86449000D02*
X67845000Y-88909000D01*
X67845000Y-88909000D02*
X69315000Y-88909000D01*
X69315000Y-88909000D02*
X69315000Y-86449000D01*
X122172000Y-91230267D02*
X122172000Y-90887733D01*
X123192000Y-91230267D02*
X123192000Y-90887733D01*
X124966000Y-91230267D02*
X124966000Y-90887733D01*
X125986000Y-91230267D02*
X125986000Y-90887733D01*
X125097000Y-74974267D02*
X125097000Y-74631733D01*
X124077000Y-74974267D02*
X124077000Y-74631733D01*
X96961000Y-63560000D02*
X96961000Y-58360000D01*
X91821000Y-63560000D02*
X96961000Y-63560000D01*
X89221000Y-58360000D02*
X96961000Y-58360000D01*
X91821000Y-63560000D02*
X91821000Y-60960000D01*
X91821000Y-60960000D02*
X89221000Y-60960000D01*
X89221000Y-60960000D02*
X89221000Y-58360000D01*
X90551000Y-63560000D02*
X89221000Y-63560000D01*
X89221000Y-63560000D02*
X89221000Y-62230000D01*
D13*
X128593000Y-79433000D02*
X128368000Y-79433000D01*
X128593000Y-86683000D02*
X128268000Y-86683000D01*
X121343000Y-86683000D02*
X121668000Y-86683000D01*
X121343000Y-79433000D02*
X121668000Y-79433000D01*
X128593000Y-79433000D02*
X128593000Y-79758000D01*
X121343000Y-79433000D02*
X121343000Y-79758000D01*
X121343000Y-86683000D02*
X121343000Y-86358000D01*
X128593000Y-86683000D02*
X128593000Y-86358000D01*
X128368000Y-79433000D02*
X128368000Y-78008000D01*
D15*
X72838000Y-60917000D02*
X73888000Y-60917000D01*
X73888000Y-59867000D02*
X73888000Y-60917000D01*
X64488000Y-54817000D02*
X64488000Y-46017000D01*
X64488000Y-46017000D02*
X73688000Y-46017000D01*
X67188000Y-60717000D02*
X64488000Y-60717000D01*
X64488000Y-60717000D02*
X64488000Y-58817000D01*
X73688000Y-46017000D02*
X73688000Y-60717000D01*
X73688000Y-60717000D02*
X71088000Y-60717000D01*
D13*
X96861380Y-83184904D02*
X97670904Y-83184904D01*
X97766142Y-83137285D01*
X97813761Y-83089666D01*
X97861380Y-82994428D01*
X97861380Y-82803952D01*
X97813761Y-82708714D01*
X97766142Y-82661095D01*
X97670904Y-82613476D01*
X96861380Y-82613476D01*
X96956619Y-82184904D02*
X96909000Y-82137285D01*
X96861380Y-82042047D01*
X96861380Y-81803952D01*
X96909000Y-81708714D01*
X96956619Y-81661095D01*
X97051857Y-81613476D01*
X97147095Y-81613476D01*
X97289952Y-81661095D01*
X97861380Y-82232523D01*
X97861380Y-81613476D01*
X104672666Y-104592380D02*
X104101238Y-104592380D01*
X104386952Y-104592380D02*
X104386952Y-103592380D01*
X104291714Y-103735238D01*
X104196476Y-103830476D01*
X104101238Y-103878095D01*
X105101238Y-104497142D02*
X105148857Y-104544761D01*
X105101238Y-104592380D01*
X105053619Y-104544761D01*
X105101238Y-104497142D01*
X105101238Y-104592380D01*
X105720285Y-104020952D02*
X105625047Y-103973333D01*
X105577428Y-103925714D01*
X105529809Y-103830476D01*
X105529809Y-103782857D01*
X105577428Y-103687619D01*
X105625047Y-103640000D01*
X105720285Y-103592380D01*
X105910761Y-103592380D01*
X106006000Y-103640000D01*
X106053619Y-103687619D01*
X106101238Y-103782857D01*
X106101238Y-103830476D01*
X106053619Y-103925714D01*
X106006000Y-103973333D01*
X105910761Y-104020952D01*
X105720285Y-104020952D01*
X105625047Y-104068571D01*
X105577428Y-104116190D01*
X105529809Y-104211428D01*
X105529809Y-104401904D01*
X105577428Y-104497142D01*
X105625047Y-104544761D01*
X105720285Y-104592380D01*
X105910761Y-104592380D01*
X106006000Y-104544761D01*
X106053619Y-104497142D01*
X106101238Y-104401904D01*
X106101238Y-104211428D01*
X106053619Y-104116190D01*
X106006000Y-104068571D01*
X105910761Y-104020952D01*
X106386952Y-103592380D02*
X106958380Y-103592380D01*
X106672666Y-104592380D02*
X106672666Y-103592380D01*
X107625047Y-104068571D02*
X107291714Y-104068571D01*
X107291714Y-104592380D02*
X107291714Y-103592380D01*
X107767904Y-103592380D01*
X108006000Y-103592380D02*
X108577428Y-103592380D01*
X108291714Y-104592380D02*
X108291714Y-103592380D01*
X108815523Y-103925714D02*
X109053619Y-104592380D01*
X109291714Y-103925714D01*
X109863142Y-103592380D02*
X109958380Y-103592380D01*
X110053619Y-103640000D01*
X110101238Y-103687619D01*
X110148857Y-103782857D01*
X110196476Y-103973333D01*
X110196476Y-104211428D01*
X110148857Y-104401904D01*
X110101238Y-104497142D01*
X110053619Y-104544761D01*
X109958380Y-104592380D01*
X109863142Y-104592380D01*
X109767904Y-104544761D01*
X109720285Y-104497142D01*
X109672666Y-104401904D01*
X109625047Y-104211428D01*
X109625047Y-103973333D01*
X109672666Y-103782857D01*
X109720285Y-103687619D01*
X109767904Y-103640000D01*
X109863142Y-103592380D01*
X110625047Y-104497142D02*
X110672666Y-104544761D01*
X110625047Y-104592380D01*
X110577428Y-104544761D01*
X110625047Y-104497142D01*
X110625047Y-104592380D01*
X111625047Y-104592380D02*
X111053619Y-104592380D01*
X111339333Y-104592380D02*
X111339333Y-103592380D01*
X111244095Y-103735238D01*
X111148857Y-103830476D01*
X111053619Y-103878095D01*
X111815523Y-104687619D02*
X112577428Y-104687619D01*
X113339333Y-104592380D02*
X112767904Y-104592380D01*
X113053619Y-104592380D02*
X113053619Y-103592380D01*
X112958380Y-103735238D01*
X112863142Y-103830476D01*
X112767904Y-103878095D01*
X113720285Y-103687619D02*
X113767904Y-103640000D01*
X113863142Y-103592380D01*
X114101238Y-103592380D01*
X114196476Y-103640000D01*
X114244095Y-103687619D01*
X114291714Y-103782857D01*
X114291714Y-103878095D01*
X114244095Y-104020952D01*
X113672666Y-104592380D01*
X114291714Y-104592380D01*
X114863142Y-104020952D02*
X114767904Y-103973333D01*
X114720285Y-103925714D01*
X114672666Y-103830476D01*
X114672666Y-103782857D01*
X114720285Y-103687619D01*
X114767904Y-103640000D01*
X114863142Y-103592380D01*
X115053619Y-103592380D01*
X115148857Y-103640000D01*
X115196476Y-103687619D01*
X115244095Y-103782857D01*
X115244095Y-103830476D01*
X115196476Y-103925714D01*
X115148857Y-103973333D01*
X115053619Y-104020952D01*
X114863142Y-104020952D01*
X114767904Y-104068571D01*
X114720285Y-104116190D01*
X114672666Y-104211428D01*
X114672666Y-104401904D01*
X114720285Y-104497142D01*
X114767904Y-104544761D01*
X114863142Y-104592380D01*
X115053619Y-104592380D01*
X115148857Y-104544761D01*
X115196476Y-104497142D01*
X115244095Y-104401904D01*
X115244095Y-104211428D01*
X115196476Y-104116190D01*
X115148857Y-104068571D01*
X115053619Y-104020952D01*
X115577428Y-104592380D02*
X116101238Y-103925714D01*
X115577428Y-103925714D02*
X116101238Y-104592380D01*
X117006000Y-104592380D02*
X116434571Y-104592380D01*
X116720285Y-104592380D02*
X116720285Y-103592380D01*
X116625047Y-103735238D01*
X116529809Y-103830476D01*
X116434571Y-103878095D01*
X117863142Y-103592380D02*
X117672666Y-103592380D01*
X117577428Y-103640000D01*
X117529809Y-103687619D01*
X117434571Y-103830476D01*
X117386952Y-104020952D01*
X117386952Y-104401904D01*
X117434571Y-104497142D01*
X117482190Y-104544761D01*
X117577428Y-104592380D01*
X117767904Y-104592380D01*
X117863142Y-104544761D01*
X117910761Y-104497142D01*
X117958380Y-104401904D01*
X117958380Y-104163809D01*
X117910761Y-104068571D01*
X117863142Y-104020952D01*
X117767904Y-103973333D01*
X117577428Y-103973333D01*
X117482190Y-104020952D01*
X117434571Y-104068571D01*
X117386952Y-104163809D01*
X118577428Y-103592380D02*
X118672666Y-103592380D01*
X118767904Y-103640000D01*
X118815523Y-103687619D01*
X118863142Y-103782857D01*
X118910761Y-103973333D01*
X118910761Y-104211428D01*
X118863142Y-104401904D01*
X118815523Y-104497142D01*
X118767904Y-104544761D01*
X118672666Y-104592380D01*
X118577428Y-104592380D01*
X118482190Y-104544761D01*
X118434571Y-104497142D01*
X118386952Y-104401904D01*
X118339333Y-104211428D01*
X118339333Y-103973333D01*
X118386952Y-103782857D01*
X118434571Y-103687619D01*
X118482190Y-103640000D01*
X118577428Y-103592380D01*
X121626333Y-61444142D02*
X121578714Y-61491761D01*
X121435857Y-61539380D01*
X121340619Y-61539380D01*
X121197761Y-61491761D01*
X121102523Y-61396523D01*
X121054904Y-61301285D01*
X121007285Y-61110809D01*
X121007285Y-60967952D01*
X121054904Y-60777476D01*
X121102523Y-60682238D01*
X121197761Y-60587000D01*
X121340619Y-60539380D01*
X121435857Y-60539380D01*
X121578714Y-60587000D01*
X121626333Y-60634619D01*
X121959666Y-60539380D02*
X122626333Y-60539380D01*
X122197761Y-61539380D01*
X119134142Y-62031619D02*
X119181761Y-61984000D01*
X119277000Y-61936380D01*
X119515095Y-61936380D01*
X119610333Y-61984000D01*
X119657952Y-62031619D01*
X119705571Y-62126857D01*
X119705571Y-62222095D01*
X119657952Y-62364952D01*
X119086523Y-62936380D01*
X119705571Y-62936380D01*
X120086523Y-62031619D02*
X120134142Y-61984000D01*
X120229380Y-61936380D01*
X120467476Y-61936380D01*
X120562714Y-61984000D01*
X120610333Y-62031619D01*
X120657952Y-62126857D01*
X120657952Y-62222095D01*
X120610333Y-62364952D01*
X120038904Y-62936380D01*
X120657952Y-62936380D01*
X121086523Y-62269714D02*
X121086523Y-63269714D01*
X121086523Y-62317333D02*
X121181761Y-62269714D01*
X121372238Y-62269714D01*
X121467476Y-62317333D01*
X121515095Y-62364952D01*
X121562714Y-62460190D01*
X121562714Y-62745904D01*
X121515095Y-62841142D01*
X121467476Y-62888761D01*
X121372238Y-62936380D01*
X121181761Y-62936380D01*
X121086523Y-62888761D01*
X122324619Y-62412571D02*
X121991285Y-62412571D01*
X121991285Y-62936380D02*
X121991285Y-61936380D01*
X122467476Y-61936380D01*
X133546666Y-108480761D02*
X133689523Y-108528380D01*
X133927619Y-108528380D01*
X134022857Y-108480761D01*
X134070476Y-108433142D01*
X134118095Y-108337904D01*
X134118095Y-108242666D01*
X134070476Y-108147428D01*
X134022857Y-108099809D01*
X133927619Y-108052190D01*
X133737142Y-108004571D01*
X133641904Y-107956952D01*
X133594285Y-107909333D01*
X133546666Y-107814095D01*
X133546666Y-107718857D01*
X133594285Y-107623619D01*
X133641904Y-107576000D01*
X133737142Y-107528380D01*
X133975238Y-107528380D01*
X134118095Y-107576000D01*
X134451428Y-107528380D02*
X134689523Y-108528380D01*
X134880000Y-107814095D01*
X135070476Y-108528380D01*
X135308571Y-107528380D01*
X135594285Y-107528380D02*
X136213333Y-107528380D01*
X135880000Y-107909333D01*
X136022857Y-107909333D01*
X136118095Y-107956952D01*
X136165714Y-108004571D01*
X136213333Y-108099809D01*
X136213333Y-108337904D01*
X136165714Y-108433142D01*
X136118095Y-108480761D01*
X136022857Y-108528380D01*
X135737142Y-108528380D01*
X135641904Y-108480761D01*
X135594285Y-108433142D01*
X108908666Y-108480761D02*
X109051523Y-108528380D01*
X109289619Y-108528380D01*
X109384857Y-108480761D01*
X109432476Y-108433142D01*
X109480095Y-108337904D01*
X109480095Y-108242666D01*
X109432476Y-108147428D01*
X109384857Y-108099809D01*
X109289619Y-108052190D01*
X109099142Y-108004571D01*
X109003904Y-107956952D01*
X108956285Y-107909333D01*
X108908666Y-107814095D01*
X108908666Y-107718857D01*
X108956285Y-107623619D01*
X109003904Y-107576000D01*
X109099142Y-107528380D01*
X109337238Y-107528380D01*
X109480095Y-107576000D01*
X109813428Y-107528380D02*
X110051523Y-108528380D01*
X110242000Y-107814095D01*
X110432476Y-108528380D01*
X110670571Y-107528380D01*
X111003904Y-107623619D02*
X111051523Y-107576000D01*
X111146761Y-107528380D01*
X111384857Y-107528380D01*
X111480095Y-107576000D01*
X111527714Y-107623619D01*
X111575333Y-107718857D01*
X111575333Y-107814095D01*
X111527714Y-107956952D01*
X110956285Y-108528380D01*
X111575333Y-108528380D01*
X146621666Y-57173761D02*
X146764523Y-57221380D01*
X147002619Y-57221380D01*
X147097857Y-57173761D01*
X147145476Y-57126142D01*
X147193095Y-57030904D01*
X147193095Y-56935666D01*
X147145476Y-56840428D01*
X147097857Y-56792809D01*
X147002619Y-56745190D01*
X146812142Y-56697571D01*
X146716904Y-56649952D01*
X146669285Y-56602333D01*
X146621666Y-56507095D01*
X146621666Y-56411857D01*
X146669285Y-56316619D01*
X146716904Y-56269000D01*
X146812142Y-56221380D01*
X147050238Y-56221380D01*
X147193095Y-56269000D01*
X147526428Y-56221380D02*
X147764523Y-57221380D01*
X147955000Y-56507095D01*
X148145476Y-57221380D01*
X148383571Y-56221380D01*
X149288333Y-57221380D02*
X148716904Y-57221380D01*
X149002619Y-57221380D02*
X149002619Y-56221380D01*
X148907380Y-56364238D01*
X148812142Y-56459476D01*
X148716904Y-56507095D01*
X147241047Y-59253380D02*
X146907714Y-58777190D01*
X146669619Y-59253380D02*
X146669619Y-58253380D01*
X147050571Y-58253380D01*
X147145809Y-58301000D01*
X147193428Y-58348619D01*
X147241047Y-58443857D01*
X147241047Y-58586714D01*
X147193428Y-58681952D01*
X147145809Y-58729571D01*
X147050571Y-58777190D01*
X146669619Y-58777190D01*
X148050571Y-59205761D02*
X147955333Y-59253380D01*
X147764857Y-59253380D01*
X147669619Y-59205761D01*
X147622000Y-59110523D01*
X147622000Y-58729571D01*
X147669619Y-58634333D01*
X147764857Y-58586714D01*
X147955333Y-58586714D01*
X148050571Y-58634333D01*
X148098190Y-58729571D01*
X148098190Y-58824809D01*
X147622000Y-58920047D01*
X148479142Y-59205761D02*
X148574380Y-59253380D01*
X148764857Y-59253380D01*
X148860095Y-59205761D01*
X148907714Y-59110523D01*
X148907714Y-59062904D01*
X148860095Y-58967666D01*
X148764857Y-58920047D01*
X148622000Y-58920047D01*
X148526761Y-58872428D01*
X148479142Y-58777190D01*
X148479142Y-58729571D01*
X148526761Y-58634333D01*
X148622000Y-58586714D01*
X148764857Y-58586714D01*
X148860095Y-58634333D01*
X149717238Y-59205761D02*
X149622000Y-59253380D01*
X149431523Y-59253380D01*
X149336285Y-59205761D01*
X149288666Y-59110523D01*
X149288666Y-58729571D01*
X149336285Y-58634333D01*
X149431523Y-58586714D01*
X149622000Y-58586714D01*
X149717238Y-58634333D01*
X149764857Y-58729571D01*
X149764857Y-58824809D01*
X149288666Y-58920047D01*
X150050571Y-58586714D02*
X150431523Y-58586714D01*
X150193428Y-58253380D02*
X150193428Y-59110523D01*
X150241047Y-59205761D01*
X150336285Y-59253380D01*
X150431523Y-59253380D01*
X151479142Y-58205761D02*
X150622000Y-59491476D01*
X151812476Y-59253380D02*
X151812476Y-58253380D01*
X152193428Y-58253380D01*
X152288666Y-58301000D01*
X152336285Y-58348619D01*
X152383904Y-58443857D01*
X152383904Y-58586714D01*
X152336285Y-58681952D01*
X152288666Y-58729571D01*
X152193428Y-58777190D01*
X151812476Y-58777190D01*
X153241047Y-58586714D02*
X153241047Y-59396238D01*
X153193428Y-59491476D01*
X153145809Y-59539095D01*
X153050571Y-59586714D01*
X152907714Y-59586714D01*
X152812476Y-59539095D01*
X153241047Y-59205761D02*
X153145809Y-59253380D01*
X152955333Y-59253380D01*
X152860095Y-59205761D01*
X152812476Y-59158142D01*
X152764857Y-59062904D01*
X152764857Y-58777190D01*
X152812476Y-58681952D01*
X152860095Y-58634333D01*
X152955333Y-58586714D01*
X153145809Y-58586714D01*
X153241047Y-58634333D01*
X153717238Y-59253380D02*
X153717238Y-58586714D01*
X153717238Y-58681952D02*
X153764857Y-58634333D01*
X153860095Y-58586714D01*
X154002952Y-58586714D01*
X154098190Y-58634333D01*
X154145809Y-58729571D01*
X154145809Y-59253380D01*
X154145809Y-58729571D02*
X154193428Y-58634333D01*
X154288666Y-58586714D01*
X154431523Y-58586714D01*
X154526761Y-58634333D01*
X154574380Y-58729571D01*
X154574380Y-59253380D01*
X59340761Y-73445619D02*
X59245523Y-73398000D01*
X59150285Y-73302761D01*
X59007428Y-73159904D01*
X58912190Y-73112285D01*
X58816952Y-73112285D01*
X58864571Y-73350380D02*
X58769333Y-73302761D01*
X58674095Y-73207523D01*
X58626476Y-73017047D01*
X58626476Y-72683714D01*
X58674095Y-72493238D01*
X58769333Y-72398000D01*
X58864571Y-72350380D01*
X59055047Y-72350380D01*
X59150285Y-72398000D01*
X59245523Y-72493238D01*
X59293142Y-72683714D01*
X59293142Y-73017047D01*
X59245523Y-73207523D01*
X59150285Y-73302761D01*
X59055047Y-73350380D01*
X58864571Y-73350380D01*
X60245523Y-73350380D02*
X59674095Y-73350380D01*
X59959809Y-73350380D02*
X59959809Y-72350380D01*
X59864571Y-72493238D01*
X59769333Y-72588476D01*
X59674095Y-72636095D01*
X57150095Y-90384380D02*
X57150095Y-91193904D01*
X57197714Y-91289142D01*
X57245333Y-91336761D01*
X57340571Y-91384380D01*
X57531047Y-91384380D01*
X57626285Y-91336761D01*
X57673904Y-91289142D01*
X57721523Y-91193904D01*
X57721523Y-90384380D01*
X58721523Y-91384380D02*
X58150095Y-91384380D01*
X58435809Y-91384380D02*
X58435809Y-90384380D01*
X58340571Y-90527238D01*
X58245333Y-90622476D01*
X58150095Y-90670095D01*
X63984714Y-98718666D02*
X64460904Y-98718666D01*
X63889476Y-99004380D02*
X64222809Y-98004380D01*
X64556142Y-99004380D01*
X64889476Y-99004380D02*
X64889476Y-98004380D01*
X65270428Y-98004380D01*
X65365666Y-98052000D01*
X65413285Y-98099619D01*
X65460904Y-98194857D01*
X65460904Y-98337714D01*
X65413285Y-98432952D01*
X65365666Y-98480571D01*
X65270428Y-98528190D01*
X64889476Y-98528190D01*
X66413285Y-99004380D02*
X65841857Y-99004380D01*
X66127571Y-99004380D02*
X66127571Y-98004380D01*
X66032333Y-98147238D01*
X65937095Y-98242476D01*
X65841857Y-98290095D01*
X67365666Y-99004380D02*
X66794238Y-99004380D01*
X67079952Y-99004380D02*
X67079952Y-98004380D01*
X66984714Y-98147238D01*
X66889476Y-98242476D01*
X66794238Y-98290095D01*
X68318047Y-99004380D02*
X67746619Y-99004380D01*
X68032333Y-99004380D02*
X68032333Y-98004380D01*
X67937095Y-98147238D01*
X67841857Y-98242476D01*
X67746619Y-98290095D01*
X68651380Y-98004380D02*
X69318047Y-98004380D01*
X68889476Y-99004380D01*
X69699000Y-98623428D02*
X70460904Y-98623428D01*
X71413285Y-98004380D02*
X70937095Y-98004380D01*
X70889476Y-98480571D01*
X70937095Y-98432952D01*
X71032333Y-98385333D01*
X71270428Y-98385333D01*
X71365666Y-98432952D01*
X71413285Y-98480571D01*
X71460904Y-98575809D01*
X71460904Y-98813904D01*
X71413285Y-98909142D01*
X71365666Y-98956761D01*
X71270428Y-99004380D01*
X71032333Y-99004380D01*
X70937095Y-98956761D01*
X70889476Y-98909142D01*
X72079952Y-98004380D02*
X72175190Y-98004380D01*
X72270428Y-98052000D01*
X72318047Y-98099619D01*
X72365666Y-98194857D01*
X72413285Y-98385333D01*
X72413285Y-98623428D01*
X72365666Y-98813904D01*
X72318047Y-98909142D01*
X72270428Y-98956761D01*
X72175190Y-99004380D01*
X72079952Y-99004380D01*
X71984714Y-98956761D01*
X71937095Y-98909142D01*
X71889476Y-98813904D01*
X71841857Y-98623428D01*
X71841857Y-98385333D01*
X71889476Y-98194857D01*
X71937095Y-98099619D01*
X71984714Y-98052000D01*
X72079952Y-98004380D01*
X96901095Y-106767380D02*
X96901095Y-107576904D01*
X96948714Y-107672142D01*
X96996333Y-107719761D01*
X97091571Y-107767380D01*
X97282047Y-107767380D01*
X97377285Y-107719761D01*
X97424904Y-107672142D01*
X97472523Y-107576904D01*
X97472523Y-106767380D01*
X98377285Y-107100714D02*
X98377285Y-107767380D01*
X98139190Y-106719761D02*
X97901095Y-107434047D01*
X98520142Y-107434047D01*
X77796142Y-106211666D02*
X78272333Y-106211666D01*
X77700904Y-106497380D02*
X78034238Y-105497380D01*
X78367571Y-106497380D01*
X78700904Y-106497380D02*
X78700904Y-105497380D01*
X78939000Y-105497380D01*
X79081857Y-105545000D01*
X79177095Y-105640238D01*
X79224714Y-105735476D01*
X79272333Y-105925952D01*
X79272333Y-106068809D01*
X79224714Y-106259285D01*
X79177095Y-106354523D01*
X79081857Y-106449761D01*
X78939000Y-106497380D01*
X78700904Y-106497380D01*
X79748523Y-106497380D02*
X79939000Y-106497380D01*
X80034238Y-106449761D01*
X80081857Y-106402142D01*
X80177095Y-106259285D01*
X80224714Y-106068809D01*
X80224714Y-105687857D01*
X80177095Y-105592619D01*
X80129476Y-105545000D01*
X80034238Y-105497380D01*
X79843761Y-105497380D01*
X79748523Y-105545000D01*
X79700904Y-105592619D01*
X79653285Y-105687857D01*
X79653285Y-105925952D01*
X79700904Y-106021190D01*
X79748523Y-106068809D01*
X79843761Y-106116428D01*
X80034238Y-106116428D01*
X80129476Y-106068809D01*
X80177095Y-106021190D01*
X80224714Y-105925952D01*
X80796142Y-105925952D02*
X80700904Y-105878333D01*
X80653285Y-105830714D01*
X80605666Y-105735476D01*
X80605666Y-105687857D01*
X80653285Y-105592619D01*
X80700904Y-105545000D01*
X80796142Y-105497380D01*
X80986619Y-105497380D01*
X81081857Y-105545000D01*
X81129476Y-105592619D01*
X81177095Y-105687857D01*
X81177095Y-105735476D01*
X81129476Y-105830714D01*
X81081857Y-105878333D01*
X80986619Y-105925952D01*
X80796142Y-105925952D01*
X80700904Y-105973571D01*
X80653285Y-106021190D01*
X80605666Y-106116428D01*
X80605666Y-106306904D01*
X80653285Y-106402142D01*
X80700904Y-106449761D01*
X80796142Y-106497380D01*
X80986619Y-106497380D01*
X81081857Y-106449761D01*
X81129476Y-106402142D01*
X81177095Y-106306904D01*
X81177095Y-106116428D01*
X81129476Y-106021190D01*
X81081857Y-105973571D01*
X80986619Y-105925952D01*
X82081857Y-105497380D02*
X81605666Y-105497380D01*
X81558047Y-105973571D01*
X81605666Y-105925952D01*
X81700904Y-105878333D01*
X81939000Y-105878333D01*
X82034238Y-105925952D01*
X82081857Y-105973571D01*
X82129476Y-106068809D01*
X82129476Y-106306904D01*
X82081857Y-106402142D01*
X82034238Y-106449761D01*
X81939000Y-106497380D01*
X81700904Y-106497380D01*
X81605666Y-106449761D01*
X81558047Y-106402142D01*
X82748523Y-105497380D02*
X82843761Y-105497380D01*
X82939000Y-105545000D01*
X82986619Y-105592619D01*
X83034238Y-105687857D01*
X83081857Y-105878333D01*
X83081857Y-106116428D01*
X83034238Y-106306904D01*
X82986619Y-106402142D01*
X82939000Y-106449761D01*
X82843761Y-106497380D01*
X82748523Y-106497380D01*
X82653285Y-106449761D01*
X82605666Y-106402142D01*
X82558047Y-106306904D01*
X82510428Y-106116428D01*
X82510428Y-105878333D01*
X82558047Y-105687857D01*
X82605666Y-105592619D01*
X82653285Y-105545000D01*
X82748523Y-105497380D01*
X83272333Y-106592619D02*
X84034238Y-106592619D01*
X84272333Y-106497380D02*
X84272333Y-105497380D01*
X84605666Y-106211666D01*
X84939000Y-105497380D01*
X84939000Y-106497380D01*
X85558047Y-106497380D02*
X85462809Y-106449761D01*
X85415190Y-106402142D01*
X85367571Y-106306904D01*
X85367571Y-106021190D01*
X85415190Y-105925952D01*
X85462809Y-105878333D01*
X85558047Y-105830714D01*
X85700904Y-105830714D01*
X85796142Y-105878333D01*
X85843761Y-105925952D01*
X85891380Y-106021190D01*
X85891380Y-106306904D01*
X85843761Y-106402142D01*
X85796142Y-106449761D01*
X85700904Y-106497380D01*
X85558047Y-106497380D01*
X86748523Y-106497380D02*
X86748523Y-105497380D01*
X86748523Y-106449761D02*
X86653285Y-106497380D01*
X86462809Y-106497380D01*
X86367571Y-106449761D01*
X86319952Y-106402142D01*
X86272333Y-106306904D01*
X86272333Y-106021190D01*
X86319952Y-105925952D01*
X86367571Y-105878333D01*
X86462809Y-105830714D01*
X86653285Y-105830714D01*
X86748523Y-105878333D01*
X87653285Y-105830714D02*
X87653285Y-106497380D01*
X87224714Y-105830714D02*
X87224714Y-106354523D01*
X87272333Y-106449761D01*
X87367571Y-106497380D01*
X87510428Y-106497380D01*
X87605666Y-106449761D01*
X87653285Y-106402142D01*
X88272333Y-106497380D02*
X88177095Y-106449761D01*
X88129476Y-106354523D01*
X88129476Y-105497380D01*
X89034238Y-106449761D02*
X88939000Y-106497380D01*
X88748523Y-106497380D01*
X88653285Y-106449761D01*
X88605666Y-106354523D01*
X88605666Y-105973571D01*
X88653285Y-105878333D01*
X88748523Y-105830714D01*
X88939000Y-105830714D01*
X89034238Y-105878333D01*
X89081857Y-105973571D01*
X89081857Y-106068809D01*
X88605666Y-106164047D01*
X58126333Y-106402142D02*
X58078714Y-106449761D01*
X57935857Y-106497380D01*
X57840619Y-106497380D01*
X57697761Y-106449761D01*
X57602523Y-106354523D01*
X57554904Y-106259285D01*
X57507285Y-106068809D01*
X57507285Y-105925952D01*
X57554904Y-105735476D01*
X57602523Y-105640238D01*
X57697761Y-105545000D01*
X57840619Y-105497380D01*
X57935857Y-105497380D01*
X58078714Y-105545000D01*
X58126333Y-105592619D01*
X59078714Y-106497380D02*
X58507285Y-106497380D01*
X58793000Y-106497380D02*
X58793000Y-105497380D01*
X58697761Y-105640238D01*
X58602523Y-105735476D01*
X58507285Y-105783095D01*
X56364333Y-107608714D02*
X56364333Y-108275380D01*
X56126238Y-107227761D02*
X55888142Y-107942047D01*
X56507190Y-107942047D01*
X56792904Y-107275380D02*
X57459571Y-107275380D01*
X57031000Y-108275380D01*
X58269095Y-107608714D02*
X58269095Y-108275380D01*
X57840523Y-107608714D02*
X57840523Y-108132523D01*
X57888142Y-108227761D01*
X57983380Y-108275380D01*
X58126238Y-108275380D01*
X58221476Y-108227761D01*
X58269095Y-108180142D01*
X59078619Y-107751571D02*
X58745285Y-107751571D01*
X58745285Y-108275380D02*
X58745285Y-107275380D01*
X59221476Y-107275380D01*
X57618333Y-77192142D02*
X57570714Y-77239761D01*
X57427857Y-77287380D01*
X57332619Y-77287380D01*
X57189761Y-77239761D01*
X57094523Y-77144523D01*
X57046904Y-77049285D01*
X56999285Y-76858809D01*
X56999285Y-76715952D01*
X57046904Y-76525476D01*
X57094523Y-76430238D01*
X57189761Y-76335000D01*
X57332619Y-76287380D01*
X57427857Y-76287380D01*
X57570714Y-76335000D01*
X57618333Y-76382619D01*
X58475476Y-76620714D02*
X58475476Y-77287380D01*
X58237380Y-76239761D02*
X57999285Y-76954047D01*
X58618333Y-76954047D01*
X56110333Y-78398714D02*
X56110333Y-79065380D01*
X55872238Y-78017761D02*
X55634142Y-78732047D01*
X56253190Y-78732047D01*
X56538904Y-78065380D02*
X57205571Y-78065380D01*
X56777000Y-79065380D01*
X58015095Y-78398714D02*
X58015095Y-79065380D01*
X57586523Y-78398714D02*
X57586523Y-78922523D01*
X57634142Y-79017761D01*
X57729380Y-79065380D01*
X57872238Y-79065380D01*
X57967476Y-79017761D01*
X58015095Y-78970142D01*
X58824619Y-78541571D02*
X58491285Y-78541571D01*
X58491285Y-79065380D02*
X58491285Y-78065380D01*
X58967476Y-78065380D01*
X128047809Y-67159190D02*
X128047809Y-67635380D01*
X127714476Y-66635380D02*
X128047809Y-67159190D01*
X128381142Y-66635380D01*
X129238285Y-67635380D02*
X128666857Y-67635380D01*
X128952571Y-67635380D02*
X128952571Y-66635380D01*
X128857333Y-66778238D01*
X128762095Y-66873476D01*
X128666857Y-66921095D01*
X128230523Y-65984380D02*
X127659095Y-65984380D01*
X127944809Y-65984380D02*
X127944809Y-64984380D01*
X127849571Y-65127238D01*
X127754333Y-65222476D01*
X127659095Y-65270095D01*
X129087666Y-64984380D02*
X128897190Y-64984380D01*
X128801952Y-65032000D01*
X128754333Y-65079619D01*
X128659095Y-65222476D01*
X128611476Y-65412952D01*
X128611476Y-65793904D01*
X128659095Y-65889142D01*
X128706714Y-65936761D01*
X128801952Y-65984380D01*
X128992428Y-65984380D01*
X129087666Y-65936761D01*
X129135285Y-65889142D01*
X129182904Y-65793904D01*
X129182904Y-65555809D01*
X129135285Y-65460571D01*
X129087666Y-65412952D01*
X128992428Y-65365333D01*
X128801952Y-65365333D01*
X128706714Y-65412952D01*
X128659095Y-65460571D01*
X128611476Y-65555809D01*
X129611476Y-65984380D02*
X129611476Y-64984380D01*
X129944809Y-65698666D01*
X130278142Y-64984380D01*
X130278142Y-65984380D01*
X130754333Y-65984380D02*
X130754333Y-64984380D01*
X130754333Y-65460571D02*
X131325761Y-65460571D01*
X131325761Y-65984380D02*
X131325761Y-64984380D01*
X131706714Y-65317714D02*
X132230523Y-65317714D01*
X131706714Y-65984380D01*
X132230523Y-65984380D01*
X77390666Y-109815380D02*
X77390666Y-110529666D01*
X77343047Y-110672523D01*
X77247809Y-110767761D01*
X77104952Y-110815380D01*
X77009714Y-110815380D01*
X77771619Y-109815380D02*
X78390666Y-109815380D01*
X78057333Y-110196333D01*
X78200190Y-110196333D01*
X78295428Y-110243952D01*
X78343047Y-110291571D01*
X78390666Y-110386809D01*
X78390666Y-110624904D01*
X78343047Y-110720142D01*
X78295428Y-110767761D01*
X78200190Y-110815380D01*
X77914476Y-110815380D01*
X77819238Y-110767761D01*
X77771619Y-110720142D01*
X71501000Y-111339380D02*
X71501000Y-111577476D01*
X71262904Y-111482238D02*
X71501000Y-111577476D01*
X71739095Y-111482238D01*
X71358142Y-111767952D02*
X71501000Y-111577476D01*
X71643857Y-111767952D01*
X99361666Y-109815380D02*
X99361666Y-110529666D01*
X99314047Y-110672523D01*
X99218809Y-110767761D01*
X99075952Y-110815380D01*
X98980714Y-110815380D01*
X100266428Y-110148714D02*
X100266428Y-110815380D01*
X100028333Y-109767761D02*
X99790238Y-110482047D01*
X100409285Y-110482047D01*
X93472000Y-111339380D02*
X93472000Y-111577476D01*
X93233904Y-111482238D02*
X93472000Y-111577476D01*
X93710095Y-111482238D01*
X93329142Y-111767952D02*
X93472000Y-111577476D01*
X93614857Y-111767952D01*
X148256666Y-72985380D02*
X148256666Y-73699666D01*
X148209047Y-73842523D01*
X148113809Y-73937761D01*
X147970952Y-73985380D01*
X147875714Y-73985380D01*
X148685238Y-73080619D02*
X148732857Y-73033000D01*
X148828095Y-72985380D01*
X149066190Y-72985380D01*
X149161428Y-73033000D01*
X149209047Y-73080619D01*
X149256666Y-73175857D01*
X149256666Y-73271095D01*
X149209047Y-73413952D01*
X148637619Y-73985380D01*
X149256666Y-73985380D01*
X56602333Y-85320142D02*
X56554714Y-85367761D01*
X56411857Y-85415380D01*
X56316619Y-85415380D01*
X56173761Y-85367761D01*
X56078523Y-85272523D01*
X56030904Y-85177285D01*
X55983285Y-84986809D01*
X55983285Y-84843952D01*
X56030904Y-84653476D01*
X56078523Y-84558238D01*
X56173761Y-84463000D01*
X56316619Y-84415380D01*
X56411857Y-84415380D01*
X56554714Y-84463000D01*
X56602333Y-84510619D01*
X56935666Y-84415380D02*
X57554714Y-84415380D01*
X57221380Y-84796333D01*
X57364238Y-84796333D01*
X57459476Y-84843952D01*
X57507095Y-84891571D01*
X57554714Y-84986809D01*
X57554714Y-85224904D01*
X57507095Y-85320142D01*
X57459476Y-85367761D01*
X57364238Y-85415380D01*
X57078523Y-85415380D01*
X56983285Y-85367761D01*
X56935666Y-85320142D01*
X55634142Y-87336380D02*
X55729380Y-87336380D01*
X55824619Y-87384000D01*
X55872238Y-87431619D01*
X55919857Y-87526857D01*
X55967476Y-87717333D01*
X55967476Y-87955428D01*
X55919857Y-88145904D01*
X55872238Y-88241142D01*
X55824619Y-88288761D01*
X55729380Y-88336380D01*
X55634142Y-88336380D01*
X55538904Y-88288761D01*
X55491285Y-88241142D01*
X55443666Y-88145904D01*
X55396047Y-87955428D01*
X55396047Y-87717333D01*
X55443666Y-87526857D01*
X55491285Y-87431619D01*
X55538904Y-87384000D01*
X55634142Y-87336380D01*
X56396047Y-88241142D02*
X56443666Y-88288761D01*
X56396047Y-88336380D01*
X56348428Y-88288761D01*
X56396047Y-88241142D01*
X56396047Y-88336380D01*
X57396047Y-88336380D02*
X56824619Y-88336380D01*
X57110333Y-88336380D02*
X57110333Y-87336380D01*
X57015095Y-87479238D01*
X56919857Y-87574476D01*
X56824619Y-87622095D01*
X58253190Y-87669714D02*
X58253190Y-88336380D01*
X57824619Y-87669714D02*
X57824619Y-88193523D01*
X57872238Y-88288761D01*
X57967476Y-88336380D01*
X58110333Y-88336380D01*
X58205571Y-88288761D01*
X58253190Y-88241142D01*
X59062714Y-87812571D02*
X58729380Y-87812571D01*
X58729380Y-88336380D02*
X58729380Y-87336380D01*
X59205571Y-87336380D01*
X56856333Y-97639142D02*
X56808714Y-97686761D01*
X56665857Y-97734380D01*
X56570619Y-97734380D01*
X56427761Y-97686761D01*
X56332523Y-97591523D01*
X56284904Y-97496285D01*
X56237285Y-97305809D01*
X56237285Y-97162952D01*
X56284904Y-96972476D01*
X56332523Y-96877238D01*
X56427761Y-96782000D01*
X56570619Y-96734380D01*
X56665857Y-96734380D01*
X56808714Y-96782000D01*
X56856333Y-96829619D01*
X57237285Y-96829619D02*
X57284904Y-96782000D01*
X57380142Y-96734380D01*
X57618238Y-96734380D01*
X57713476Y-96782000D01*
X57761095Y-96829619D01*
X57808714Y-96924857D01*
X57808714Y-97020095D01*
X57761095Y-97162952D01*
X57189666Y-97734380D01*
X57808714Y-97734380D01*
X55634142Y-99655380D02*
X55729380Y-99655380D01*
X55824619Y-99703000D01*
X55872238Y-99750619D01*
X55919857Y-99845857D01*
X55967476Y-100036333D01*
X55967476Y-100274428D01*
X55919857Y-100464904D01*
X55872238Y-100560142D01*
X55824619Y-100607761D01*
X55729380Y-100655380D01*
X55634142Y-100655380D01*
X55538904Y-100607761D01*
X55491285Y-100560142D01*
X55443666Y-100464904D01*
X55396047Y-100274428D01*
X55396047Y-100036333D01*
X55443666Y-99845857D01*
X55491285Y-99750619D01*
X55538904Y-99703000D01*
X55634142Y-99655380D01*
X56396047Y-100560142D02*
X56443666Y-100607761D01*
X56396047Y-100655380D01*
X56348428Y-100607761D01*
X56396047Y-100560142D01*
X56396047Y-100655380D01*
X57396047Y-100655380D02*
X56824619Y-100655380D01*
X57110333Y-100655380D02*
X57110333Y-99655380D01*
X57015095Y-99798238D01*
X56919857Y-99893476D01*
X56824619Y-99941095D01*
X58253190Y-99988714D02*
X58253190Y-100655380D01*
X57824619Y-99988714D02*
X57824619Y-100512523D01*
X57872238Y-100607761D01*
X57967476Y-100655380D01*
X58110333Y-100655380D01*
X58205571Y-100607761D01*
X58253190Y-100560142D01*
X59062714Y-100131571D02*
X58729380Y-100131571D01*
X58729380Y-100655380D02*
X58729380Y-99655380D01*
X59205571Y-99655380D01*
X127595333Y-61444142D02*
X127547714Y-61491761D01*
X127404857Y-61539380D01*
X127309619Y-61539380D01*
X127166761Y-61491761D01*
X127071523Y-61396523D01*
X127023904Y-61301285D01*
X126976285Y-61110809D01*
X126976285Y-60967952D01*
X127023904Y-60777476D01*
X127071523Y-60682238D01*
X127166761Y-60587000D01*
X127309619Y-60539380D01*
X127404857Y-60539380D01*
X127547714Y-60587000D01*
X127595333Y-60634619D01*
X128452476Y-60539380D02*
X128262000Y-60539380D01*
X128166761Y-60587000D01*
X128119142Y-60634619D01*
X128023904Y-60777476D01*
X127976285Y-60967952D01*
X127976285Y-61348904D01*
X128023904Y-61444142D01*
X128071523Y-61491761D01*
X128166761Y-61539380D01*
X128357238Y-61539380D01*
X128452476Y-61491761D01*
X128500095Y-61444142D01*
X128547714Y-61348904D01*
X128547714Y-61110809D01*
X128500095Y-61015571D01*
X128452476Y-60967952D01*
X128357238Y-60920333D01*
X128166761Y-60920333D01*
X128071523Y-60967952D01*
X128023904Y-61015571D01*
X127976285Y-61110809D01*
X125230142Y-61904619D02*
X125277761Y-61857000D01*
X125373000Y-61809380D01*
X125611095Y-61809380D01*
X125706333Y-61857000D01*
X125753952Y-61904619D01*
X125801571Y-61999857D01*
X125801571Y-62095095D01*
X125753952Y-62237952D01*
X125182523Y-62809380D01*
X125801571Y-62809380D01*
X126182523Y-61904619D02*
X126230142Y-61857000D01*
X126325380Y-61809380D01*
X126563476Y-61809380D01*
X126658714Y-61857000D01*
X126706333Y-61904619D01*
X126753952Y-61999857D01*
X126753952Y-62095095D01*
X126706333Y-62237952D01*
X126134904Y-62809380D01*
X126753952Y-62809380D01*
X127182523Y-62142714D02*
X127182523Y-63142714D01*
X127182523Y-62190333D02*
X127277761Y-62142714D01*
X127468238Y-62142714D01*
X127563476Y-62190333D01*
X127611095Y-62237952D01*
X127658714Y-62333190D01*
X127658714Y-62618904D01*
X127611095Y-62714142D01*
X127563476Y-62761761D01*
X127468238Y-62809380D01*
X127277761Y-62809380D01*
X127182523Y-62761761D01*
X128420619Y-62285571D02*
X128087285Y-62285571D01*
X128087285Y-62809380D02*
X128087285Y-61809380D01*
X128563476Y-61809380D01*
X127976333Y-72620142D02*
X127928714Y-72667761D01*
X127785857Y-72715380D01*
X127690619Y-72715380D01*
X127547761Y-72667761D01*
X127452523Y-72572523D01*
X127404904Y-72477285D01*
X127357285Y-72286809D01*
X127357285Y-72143952D01*
X127404904Y-71953476D01*
X127452523Y-71858238D01*
X127547761Y-71763000D01*
X127690619Y-71715380D01*
X127785857Y-71715380D01*
X127928714Y-71763000D01*
X127976333Y-71810619D01*
X128881095Y-71715380D02*
X128404904Y-71715380D01*
X128357285Y-72191571D01*
X128404904Y-72143952D01*
X128500142Y-72096333D01*
X128738238Y-72096333D01*
X128833476Y-72143952D01*
X128881095Y-72191571D01*
X128928714Y-72286809D01*
X128928714Y-72524904D01*
X128881095Y-72620142D01*
X128833476Y-72667761D01*
X128738238Y-72715380D01*
X128500142Y-72715380D01*
X128404904Y-72667761D01*
X128357285Y-72620142D01*
X127643142Y-73112380D02*
X127738380Y-73112380D01*
X127833619Y-73160000D01*
X127881238Y-73207619D01*
X127928857Y-73302857D01*
X127976476Y-73493333D01*
X127976476Y-73731428D01*
X127928857Y-73921904D01*
X127881238Y-74017142D01*
X127833619Y-74064761D01*
X127738380Y-74112380D01*
X127643142Y-74112380D01*
X127547904Y-74064761D01*
X127500285Y-74017142D01*
X127452666Y-73921904D01*
X127405047Y-73731428D01*
X127405047Y-73493333D01*
X127452666Y-73302857D01*
X127500285Y-73207619D01*
X127547904Y-73160000D01*
X127643142Y-73112380D01*
X128405047Y-74017142D02*
X128452666Y-74064761D01*
X128405047Y-74112380D01*
X128357428Y-74064761D01*
X128405047Y-74017142D01*
X128405047Y-74112380D01*
X129405047Y-74112380D02*
X128833619Y-74112380D01*
X129119333Y-74112380D02*
X129119333Y-73112380D01*
X129024095Y-73255238D01*
X128928857Y-73350476D01*
X128833619Y-73398095D01*
X130262190Y-73445714D02*
X130262190Y-74112380D01*
X129833619Y-73445714D02*
X129833619Y-73969523D01*
X129881238Y-74064761D01*
X129976476Y-74112380D01*
X130119333Y-74112380D01*
X130214571Y-74064761D01*
X130262190Y-74017142D01*
X131071714Y-73588571D02*
X130738380Y-73588571D01*
X130738380Y-74112380D02*
X130738380Y-73112380D01*
X131214571Y-73112380D01*
X58253333Y-66619380D02*
X57920000Y-66143190D01*
X57681904Y-66619380D02*
X57681904Y-65619380D01*
X58062857Y-65619380D01*
X58158095Y-65667000D01*
X58205714Y-65714619D01*
X58253333Y-65809857D01*
X58253333Y-65952714D01*
X58205714Y-66047952D01*
X58158095Y-66095571D01*
X58062857Y-66143190D01*
X57681904Y-66143190D01*
X59205714Y-66619380D02*
X58634285Y-66619380D01*
X58920000Y-66619380D02*
X58920000Y-65619380D01*
X58824761Y-65762238D01*
X58729523Y-65857476D01*
X58634285Y-65905095D01*
X57348523Y-68016380D02*
X56777095Y-68016380D01*
X57062809Y-68016380D02*
X57062809Y-67016380D01*
X56967571Y-67159238D01*
X56872333Y-67254476D01*
X56777095Y-67302095D01*
X57967571Y-67016380D02*
X58062809Y-67016380D01*
X58158047Y-67064000D01*
X58205666Y-67111619D01*
X58253285Y-67206857D01*
X58300904Y-67397333D01*
X58300904Y-67635428D01*
X58253285Y-67825904D01*
X58205666Y-67921142D01*
X58158047Y-67968761D01*
X58062809Y-68016380D01*
X57967571Y-68016380D01*
X57872333Y-67968761D01*
X57824714Y-67921142D01*
X57777095Y-67825904D01*
X57729476Y-67635428D01*
X57729476Y-67397333D01*
X57777095Y-67206857D01*
X57824714Y-67111619D01*
X57872333Y-67064000D01*
X57967571Y-67016380D01*
X58729476Y-68016380D02*
X58729476Y-67016380D01*
X59300904Y-68016380D02*
X58872333Y-67444952D01*
X59300904Y-67016380D02*
X58729476Y-67587809D01*
X140803333Y-88209380D02*
X140470000Y-87733190D01*
X140231904Y-88209380D02*
X140231904Y-87209380D01*
X140612857Y-87209380D01*
X140708095Y-87257000D01*
X140755714Y-87304619D01*
X140803333Y-87399857D01*
X140803333Y-87542714D01*
X140755714Y-87637952D01*
X140708095Y-87685571D01*
X140612857Y-87733190D01*
X140231904Y-87733190D01*
X141184285Y-87304619D02*
X141231904Y-87257000D01*
X141327142Y-87209380D01*
X141565238Y-87209380D01*
X141660476Y-87257000D01*
X141708095Y-87304619D01*
X141755714Y-87399857D01*
X141755714Y-87495095D01*
X141708095Y-87637952D01*
X141136666Y-88209380D01*
X141755714Y-88209380D01*
X140755761Y-89606380D02*
X140184333Y-89606380D01*
X140470047Y-89606380D02*
X140470047Y-88606380D01*
X140374809Y-88749238D01*
X140279571Y-88844476D01*
X140184333Y-88892095D01*
X141374809Y-88606380D02*
X141470047Y-88606380D01*
X141565285Y-88654000D01*
X141612904Y-88701619D01*
X141660523Y-88796857D01*
X141708142Y-88987333D01*
X141708142Y-89225428D01*
X141660523Y-89415904D01*
X141612904Y-89511142D01*
X141565285Y-89558761D01*
X141470047Y-89606380D01*
X141374809Y-89606380D01*
X141279571Y-89558761D01*
X141231952Y-89511142D01*
X141184333Y-89415904D01*
X141136714Y-89225428D01*
X141136714Y-88987333D01*
X141184333Y-88796857D01*
X141231952Y-88701619D01*
X141279571Y-88654000D01*
X141374809Y-88606380D01*
X142136714Y-89606380D02*
X142136714Y-88606380D01*
X142231952Y-89225428D02*
X142517666Y-89606380D01*
X142517666Y-88939714D02*
X142136714Y-89320666D01*
X68413333Y-90495380D02*
X68080000Y-90019190D01*
X67841904Y-90495380D02*
X67841904Y-89495380D01*
X68222857Y-89495380D01*
X68318095Y-89543000D01*
X68365714Y-89590619D01*
X68413333Y-89685857D01*
X68413333Y-89828714D01*
X68365714Y-89923952D01*
X68318095Y-89971571D01*
X68222857Y-90019190D01*
X67841904Y-90019190D01*
X68746666Y-89495380D02*
X69365714Y-89495380D01*
X69032380Y-89876333D01*
X69175238Y-89876333D01*
X69270476Y-89923952D01*
X69318095Y-89971571D01*
X69365714Y-90066809D01*
X69365714Y-90304904D01*
X69318095Y-90400142D01*
X69270476Y-90447761D01*
X69175238Y-90495380D01*
X68889523Y-90495380D01*
X68794285Y-90447761D01*
X68746666Y-90400142D01*
X67968904Y-85034380D02*
X67968904Y-84034380D01*
X68207000Y-84034380D01*
X68349857Y-84082000D01*
X68445095Y-84177238D01*
X68492714Y-84272476D01*
X68540333Y-84462952D01*
X68540333Y-84605809D01*
X68492714Y-84796285D01*
X68445095Y-84891523D01*
X68349857Y-84986761D01*
X68207000Y-85034380D01*
X67968904Y-85034380D01*
X68873666Y-84034380D02*
X69492714Y-84034380D01*
X69159380Y-84415333D01*
X69302238Y-84415333D01*
X69397476Y-84462952D01*
X69445095Y-84510571D01*
X69492714Y-84605809D01*
X69492714Y-84843904D01*
X69445095Y-84939142D01*
X69397476Y-84986761D01*
X69302238Y-85034380D01*
X69016523Y-85034380D01*
X68921285Y-84986761D01*
X68873666Y-84939142D01*
X119626142Y-91035142D02*
X119578523Y-91082761D01*
X119435666Y-91130380D01*
X119340428Y-91130380D01*
X119197571Y-91082761D01*
X119102333Y-90987523D01*
X119054714Y-90892285D01*
X119007095Y-90701809D01*
X119007095Y-90558952D01*
X119054714Y-90368476D01*
X119102333Y-90273238D01*
X119197571Y-90178000D01*
X119340428Y-90130380D01*
X119435666Y-90130380D01*
X119578523Y-90178000D01*
X119626142Y-90225619D01*
X120578523Y-91130380D02*
X120007095Y-91130380D01*
X120292809Y-91130380D02*
X120292809Y-90130380D01*
X120197571Y-90273238D01*
X120102333Y-90368476D01*
X120007095Y-90416095D01*
X121530904Y-91130380D02*
X120959476Y-91130380D01*
X121245190Y-91130380D02*
X121245190Y-90130380D01*
X121149952Y-90273238D01*
X121054714Y-90368476D01*
X120959476Y-90416095D01*
X118134000Y-91654380D02*
X118229238Y-91654380D01*
X118324476Y-91702000D01*
X118372095Y-91749619D01*
X118419714Y-91844857D01*
X118467333Y-92035333D01*
X118467333Y-92273428D01*
X118419714Y-92463904D01*
X118372095Y-92559142D01*
X118324476Y-92606761D01*
X118229238Y-92654380D01*
X118134000Y-92654380D01*
X118038761Y-92606761D01*
X117991142Y-92559142D01*
X117943523Y-92463904D01*
X117895904Y-92273428D01*
X117895904Y-92035333D01*
X117943523Y-91844857D01*
X117991142Y-91749619D01*
X118038761Y-91702000D01*
X118134000Y-91654380D01*
X118895904Y-92559142D02*
X118943523Y-92606761D01*
X118895904Y-92654380D01*
X118848285Y-92606761D01*
X118895904Y-92559142D01*
X118895904Y-92654380D01*
X119895904Y-92654380D02*
X119324476Y-92654380D01*
X119610190Y-92654380D02*
X119610190Y-91654380D01*
X119514952Y-91797238D01*
X119419714Y-91892476D01*
X119324476Y-91940095D01*
X120753047Y-91987714D02*
X120753047Y-92654380D01*
X120324476Y-91987714D02*
X120324476Y-92511523D01*
X120372095Y-92606761D01*
X120467333Y-92654380D01*
X120610190Y-92654380D01*
X120705428Y-92606761D01*
X120753047Y-92559142D01*
X121086380Y-91987714D02*
X121467333Y-91987714D01*
X121229238Y-92654380D02*
X121229238Y-91797238D01*
X121276857Y-91702000D01*
X121372095Y-91654380D01*
X121467333Y-91654380D01*
X124420333Y-93956142D02*
X124372714Y-94003761D01*
X124229857Y-94051380D01*
X124134619Y-94051380D01*
X123991761Y-94003761D01*
X123896523Y-93908523D01*
X123848904Y-93813285D01*
X123801285Y-93622809D01*
X123801285Y-93479952D01*
X123848904Y-93289476D01*
X123896523Y-93194238D01*
X123991761Y-93099000D01*
X124134619Y-93051380D01*
X124229857Y-93051380D01*
X124372714Y-93099000D01*
X124420333Y-93146619D01*
X124896523Y-94051380D02*
X125087000Y-94051380D01*
X125182238Y-94003761D01*
X125229857Y-93956142D01*
X125325095Y-93813285D01*
X125372714Y-93622809D01*
X125372714Y-93241857D01*
X125325095Y-93146619D01*
X125277476Y-93099000D01*
X125182238Y-93051380D01*
X124991761Y-93051380D01*
X124896523Y-93099000D01*
X124848904Y-93146619D01*
X124801285Y-93241857D01*
X124801285Y-93479952D01*
X124848904Y-93575190D01*
X124896523Y-93622809D01*
X124991761Y-93670428D01*
X125182238Y-93670428D01*
X125277476Y-93622809D01*
X125325095Y-93575190D01*
X125372714Y-93479952D01*
X122055142Y-94702380D02*
X122150380Y-94702380D01*
X122245619Y-94750000D01*
X122293238Y-94797619D01*
X122340857Y-94892857D01*
X122388476Y-95083333D01*
X122388476Y-95321428D01*
X122340857Y-95511904D01*
X122293238Y-95607142D01*
X122245619Y-95654761D01*
X122150380Y-95702380D01*
X122055142Y-95702380D01*
X121959904Y-95654761D01*
X121912285Y-95607142D01*
X121864666Y-95511904D01*
X121817047Y-95321428D01*
X121817047Y-95083333D01*
X121864666Y-94892857D01*
X121912285Y-94797619D01*
X121959904Y-94750000D01*
X122055142Y-94702380D01*
X122817047Y-95607142D02*
X122864666Y-95654761D01*
X122817047Y-95702380D01*
X122769428Y-95654761D01*
X122817047Y-95607142D01*
X122817047Y-95702380D01*
X123817047Y-95702380D02*
X123245619Y-95702380D01*
X123531333Y-95702380D02*
X123531333Y-94702380D01*
X123436095Y-94845238D01*
X123340857Y-94940476D01*
X123245619Y-94988095D01*
X124674190Y-95035714D02*
X124674190Y-95702380D01*
X124245619Y-95035714D02*
X124245619Y-95559523D01*
X124293238Y-95654761D01*
X124388476Y-95702380D01*
X124531333Y-95702380D01*
X124626571Y-95654761D01*
X124674190Y-95607142D01*
X125483714Y-95178571D02*
X125150380Y-95178571D01*
X125150380Y-95702380D02*
X125150380Y-94702380D01*
X125626571Y-94702380D01*
X119372142Y-72747142D02*
X119324523Y-72794761D01*
X119181666Y-72842380D01*
X119086428Y-72842380D01*
X118943571Y-72794761D01*
X118848333Y-72699523D01*
X118800714Y-72604285D01*
X118753095Y-72413809D01*
X118753095Y-72270952D01*
X118800714Y-72080476D01*
X118848333Y-71985238D01*
X118943571Y-71890000D01*
X119086428Y-71842380D01*
X119181666Y-71842380D01*
X119324523Y-71890000D01*
X119372142Y-71937619D01*
X120324523Y-72842380D02*
X119753095Y-72842380D01*
X120038809Y-72842380D02*
X120038809Y-71842380D01*
X119943571Y-71985238D01*
X119848333Y-72080476D01*
X119753095Y-72128095D01*
X120705476Y-71937619D02*
X120753095Y-71890000D01*
X120848333Y-71842380D01*
X121086428Y-71842380D01*
X121181666Y-71890000D01*
X121229285Y-71937619D01*
X121276904Y-72032857D01*
X121276904Y-72128095D01*
X121229285Y-72270952D01*
X120657857Y-72842380D01*
X121276904Y-72842380D01*
X117737142Y-73493380D02*
X117832380Y-73493380D01*
X117927619Y-73541000D01*
X117975238Y-73588619D01*
X118022857Y-73683857D01*
X118070476Y-73874333D01*
X118070476Y-74112428D01*
X118022857Y-74302904D01*
X117975238Y-74398142D01*
X117927619Y-74445761D01*
X117832380Y-74493380D01*
X117737142Y-74493380D01*
X117641904Y-74445761D01*
X117594285Y-74398142D01*
X117546666Y-74302904D01*
X117499047Y-74112428D01*
X117499047Y-73874333D01*
X117546666Y-73683857D01*
X117594285Y-73588619D01*
X117641904Y-73541000D01*
X117737142Y-73493380D01*
X118499047Y-74398142D02*
X118546666Y-74445761D01*
X118499047Y-74493380D01*
X118451428Y-74445761D01*
X118499047Y-74398142D01*
X118499047Y-74493380D01*
X119499047Y-74493380D02*
X118927619Y-74493380D01*
X119213333Y-74493380D02*
X119213333Y-73493380D01*
X119118095Y-73636238D01*
X119022857Y-73731476D01*
X118927619Y-73779095D01*
X120356190Y-73826714D02*
X120356190Y-74493380D01*
X119927619Y-73826714D02*
X119927619Y-74350523D01*
X119975238Y-74445761D01*
X120070476Y-74493380D01*
X120213333Y-74493380D01*
X120308571Y-74445761D01*
X120356190Y-74398142D01*
X121165714Y-73969571D02*
X120832380Y-73969571D01*
X120832380Y-74493380D02*
X120832380Y-73493380D01*
X121308571Y-73493380D01*
X87804666Y-58634380D02*
X87804666Y-59348666D01*
X87757047Y-59491523D01*
X87661809Y-59586761D01*
X87518952Y-59634380D01*
X87423714Y-59634380D01*
X88757047Y-58634380D02*
X88280857Y-58634380D01*
X88233238Y-59110571D01*
X88280857Y-59062952D01*
X88376095Y-59015333D01*
X88614190Y-59015333D01*
X88709428Y-59062952D01*
X88757047Y-59110571D01*
X88804666Y-59205809D01*
X88804666Y-59443904D01*
X88757047Y-59539142D01*
X88709428Y-59586761D01*
X88614190Y-59634380D01*
X88376095Y-59634380D01*
X88280857Y-59586761D01*
X88233238Y-59539142D01*
X86780809Y-63444380D02*
X86780809Y-62444380D01*
X87209380Y-63396761D02*
X87352238Y-63444380D01*
X87590333Y-63444380D01*
X87685571Y-63396761D01*
X87733190Y-63349142D01*
X87780809Y-63253904D01*
X87780809Y-63158666D01*
X87733190Y-63063428D01*
X87685571Y-63015809D01*
X87590333Y-62968190D01*
X87399857Y-62920571D01*
X87304619Y-62872952D01*
X87257000Y-62825333D01*
X87209380Y-62730095D01*
X87209380Y-62634857D01*
X87257000Y-62539619D01*
X87304619Y-62492000D01*
X87399857Y-62444380D01*
X87637952Y-62444380D01*
X87780809Y-62492000D01*
X88209380Y-63444380D02*
X88209380Y-62444380D01*
X88590333Y-62444380D01*
X88685571Y-62492000D01*
X88733190Y-62539619D01*
X88780809Y-62634857D01*
X88780809Y-62777714D01*
X88733190Y-62872952D01*
X88685571Y-62920571D01*
X88590333Y-62968190D01*
X88209380Y-62968190D01*
X129032095Y-88606380D02*
X129032095Y-89415904D01*
X129079714Y-89511142D01*
X129127333Y-89558761D01*
X129222571Y-89606380D01*
X129413047Y-89606380D01*
X129508285Y-89558761D01*
X129555904Y-89511142D01*
X129603523Y-89415904D01*
X129603523Y-88606380D01*
X129984476Y-88606380D02*
X130603523Y-88606380D01*
X130270190Y-88987333D01*
X130413047Y-88987333D01*
X130508285Y-89034952D01*
X130555904Y-89082571D01*
X130603523Y-89177809D01*
X130603523Y-89415904D01*
X130555904Y-89511142D01*
X130508285Y-89558761D01*
X130413047Y-89606380D01*
X130127333Y-89606380D01*
X130032095Y-89558761D01*
X129984476Y-89511142D01*
X108307952Y-78271666D02*
X108784142Y-78271666D01*
X108212714Y-78557380D02*
X108546047Y-77557380D01*
X108879380Y-78557380D01*
X109069857Y-77557380D02*
X109641285Y-77557380D01*
X109355571Y-78557380D02*
X109355571Y-77557380D01*
X109974619Y-78557380D02*
X109974619Y-77890714D01*
X109974619Y-77985952D02*
X110022238Y-77938333D01*
X110117476Y-77890714D01*
X110260333Y-77890714D01*
X110355571Y-77938333D01*
X110403190Y-78033571D01*
X110403190Y-78557380D01*
X110403190Y-78033571D02*
X110450809Y-77938333D01*
X110546047Y-77890714D01*
X110688904Y-77890714D01*
X110784142Y-77938333D01*
X110831761Y-78033571D01*
X110831761Y-78557380D01*
X111688904Y-78509761D02*
X111593666Y-78557380D01*
X111403190Y-78557380D01*
X111307952Y-78509761D01*
X111260333Y-78414523D01*
X111260333Y-78033571D01*
X111307952Y-77938333D01*
X111403190Y-77890714D01*
X111593666Y-77890714D01*
X111688904Y-77938333D01*
X111736523Y-78033571D01*
X111736523Y-78128809D01*
X111260333Y-78224047D01*
X112593666Y-77890714D02*
X112593666Y-78700238D01*
X112546047Y-78795476D01*
X112498428Y-78843095D01*
X112403190Y-78890714D01*
X112260333Y-78890714D01*
X112165095Y-78843095D01*
X112593666Y-78509761D02*
X112498428Y-78557380D01*
X112307952Y-78557380D01*
X112212714Y-78509761D01*
X112165095Y-78462142D01*
X112117476Y-78366904D01*
X112117476Y-78081190D01*
X112165095Y-77985952D01*
X112212714Y-77938333D01*
X112307952Y-77890714D01*
X112498428Y-77890714D01*
X112593666Y-77938333D01*
X113498428Y-78557380D02*
X113498428Y-78033571D01*
X113450809Y-77938333D01*
X113355571Y-77890714D01*
X113165095Y-77890714D01*
X113069857Y-77938333D01*
X113498428Y-78509761D02*
X113403190Y-78557380D01*
X113165095Y-78557380D01*
X113069857Y-78509761D01*
X113022238Y-78414523D01*
X113022238Y-78319285D01*
X113069857Y-78224047D01*
X113165095Y-78176428D01*
X113403190Y-78176428D01*
X113498428Y-78128809D01*
X113879380Y-77557380D02*
X114498428Y-77557380D01*
X114165095Y-77938333D01*
X114307952Y-77938333D01*
X114403190Y-77985952D01*
X114450809Y-78033571D01*
X114498428Y-78128809D01*
X114498428Y-78366904D01*
X114450809Y-78462142D01*
X114403190Y-78509761D01*
X114307952Y-78557380D01*
X114022238Y-78557380D01*
X113927000Y-78509761D01*
X113879380Y-78462142D01*
X114879380Y-77652619D02*
X114927000Y-77605000D01*
X115022238Y-77557380D01*
X115260333Y-77557380D01*
X115355571Y-77605000D01*
X115403190Y-77652619D01*
X115450809Y-77747857D01*
X115450809Y-77843095D01*
X115403190Y-77985952D01*
X114831761Y-78557380D01*
X115450809Y-78557380D01*
X116022238Y-77985952D02*
X115927000Y-77938333D01*
X115879380Y-77890714D01*
X115831761Y-77795476D01*
X115831761Y-77747857D01*
X115879380Y-77652619D01*
X115927000Y-77605000D01*
X116022238Y-77557380D01*
X116212714Y-77557380D01*
X116307952Y-77605000D01*
X116355571Y-77652619D01*
X116403190Y-77747857D01*
X116403190Y-77795476D01*
X116355571Y-77890714D01*
X116307952Y-77938333D01*
X116212714Y-77985952D01*
X116022238Y-77985952D01*
X115927000Y-78033571D01*
X115879380Y-78081190D01*
X115831761Y-78176428D01*
X115831761Y-78366904D01*
X115879380Y-78462142D01*
X115927000Y-78509761D01*
X116022238Y-78557380D01*
X116212714Y-78557380D01*
X116307952Y-78509761D01*
X116355571Y-78462142D01*
X116403190Y-78366904D01*
X116403190Y-78176428D01*
X116355571Y-78081190D01*
X116307952Y-78033571D01*
X116212714Y-77985952D01*
X116831761Y-78557380D02*
X116831761Y-77557380D01*
X117212714Y-77557380D01*
X117307952Y-77605000D01*
X117355571Y-77652619D01*
X117403190Y-77747857D01*
X117403190Y-77890714D01*
X117355571Y-77985952D01*
X117307952Y-78033571D01*
X117212714Y-78081190D01*
X116831761Y-78081190D01*
X117831761Y-78176428D02*
X118593666Y-78176428D01*
X119022238Y-78271666D02*
X119498428Y-78271666D01*
X118927000Y-78557380D02*
X119260333Y-77557380D01*
X119593666Y-78557380D01*
X119927000Y-77557380D02*
X119927000Y-78366904D01*
X119974619Y-78462142D01*
X120022238Y-78509761D01*
X120117476Y-78557380D01*
X120307952Y-78557380D01*
X120403190Y-78509761D01*
X120450809Y-78462142D01*
X120498428Y-78366904D01*
X120498428Y-77557380D01*
X62790380Y-51700333D02*
X63504666Y-51700333D01*
X63647523Y-51747952D01*
X63742761Y-51843190D01*
X63790380Y-51986047D01*
X63790380Y-52081285D01*
X63790380Y-50700333D02*
X63790380Y-51271761D01*
X63790380Y-50986047D02*
X62790380Y-50986047D01*
X62933238Y-51081285D01*
X63028476Y-51176523D01*
X63076095Y-51271761D01*
X100457095Y-58355380D02*
X100457095Y-57355380D01*
X100457095Y-57831571D02*
X101028523Y-57831571D01*
X101028523Y-58355380D02*
X101028523Y-57355380D01*
X101409476Y-57355380D02*
X102076142Y-57355380D01*
X101647571Y-58355380D01*
X141340094Y-58355380D02*
X141340094Y-57355380D01*
X141340094Y-57831571D02*
X141911522Y-57831571D01*
X141911522Y-58355380D02*
X141911522Y-57355380D01*
X142530570Y-57783952D02*
X142435332Y-57736333D01*
X142387713Y-57688714D01*
X142340094Y-57593476D01*
X142340094Y-57545857D01*
X142387713Y-57450619D01*
X142435332Y-57403000D01*
X142530570Y-57355380D01*
X142721046Y-57355380D01*
X142816284Y-57403000D01*
X142863903Y-57450619D01*
X142911522Y-57545857D01*
X142911522Y-57593476D01*
X142863903Y-57688714D01*
X142816284Y-57736333D01*
X142721046Y-57783952D01*
X142530570Y-57783952D01*
X142435332Y-57831571D01*
X142387713Y-57879190D01*
X142340094Y-57974428D01*
X142340094Y-58164904D01*
X142387713Y-58260142D01*
X142435332Y-58307761D01*
X142530570Y-58355380D01*
X142721046Y-58355380D01*
X142816284Y-58307761D01*
X142863903Y-58260142D01*
X142911522Y-58164904D01*
X142911522Y-57974428D01*
X142863903Y-57879190D01*
X142816284Y-57831571D01*
X142721046Y-57783952D01*
M02*
