%TF.GenerationSoftware,KiCad,Pcbnew,5.0.2-bee76a0~70~ubuntu18.04.1*%
%TF.CreationDate,2019-10-08T23:09:48-07:00*%
%TF.ProjectId,AD9850,41443938-3530-42e6-9b69-6361645f7063,rev?*%
%TF.SameCoordinates,Original*%
%TF.FileFunction,Soldermask,Top*%
%TF.FilePolarity,Negative*%
%FSLAX46Y46*%
G04 Gerber Fmt 4.6, Leading zero omitted, Abs format (unit mm)*
G04 Created by KiCad (PCBNEW 5.0.2-bee76a0~70~ubuntu18.04.1) date Tue 08 Oct 2019 11:09:48 PM PDT*
%MOMM*%
%LPD*%
G01*
G04 APERTURE LIST*
%ADD10C,0.150000*%
%ADD11C,0.100000*%
G04 APERTURE END LIST*
D10*
X54610000Y-121793000D02*
X54610000Y-53467000D01*
X152146000Y-125730000D02*
X58547000Y-125730000D01*
X156210000Y-53467000D02*
X156210000Y-121666000D01*
X58547000Y-49530000D02*
X152273000Y-49530000D01*
X54610000Y-53467000D02*
G75*
G02X58547000Y-49530000I3937000J0D01*
G01*
X58547000Y-125730000D02*
G75*
G02X54610000Y-121793000I0J3937000D01*
G01*
X156210000Y-121666000D02*
G75*
G02X152146000Y-125730000I-4064000J0D01*
G01*
X152273000Y-49530000D02*
G75*
G02X156210000Y-53467000I0J-3937000D01*
G01*
D11*
G36*
X152555122Y-120039115D02*
X152671041Y-120062173D01*
X152998620Y-120197861D01*
X153289511Y-120392228D01*
X153293436Y-120394851D01*
X153544149Y-120645564D01*
X153741140Y-120940382D01*
X153876827Y-121267960D01*
X153946000Y-121615714D01*
X153946000Y-121970286D01*
X153876827Y-122318040D01*
X153741140Y-122645618D01*
X153544149Y-122940436D01*
X153293436Y-123191149D01*
X153293433Y-123191151D01*
X152998620Y-123388139D01*
X152671041Y-123523827D01*
X152555122Y-123546885D01*
X152323286Y-123593000D01*
X151968714Y-123593000D01*
X151736878Y-123546885D01*
X151620959Y-123523827D01*
X151293380Y-123388139D01*
X150998567Y-123191151D01*
X150998564Y-123191149D01*
X150747851Y-122940436D01*
X150550860Y-122645618D01*
X150415173Y-122318040D01*
X150346000Y-121970286D01*
X150346000Y-121615714D01*
X150415173Y-121267960D01*
X150550860Y-120940382D01*
X150747851Y-120645564D01*
X150998564Y-120394851D01*
X151002489Y-120392228D01*
X151293380Y-120197861D01*
X151620959Y-120062173D01*
X151736878Y-120039115D01*
X151968714Y-119993000D01*
X152323286Y-119993000D01*
X152555122Y-120039115D01*
X152555122Y-120039115D01*
G37*
G36*
X58956122Y-120039115D02*
X59072041Y-120062173D01*
X59399620Y-120197861D01*
X59690511Y-120392228D01*
X59694436Y-120394851D01*
X59945149Y-120645564D01*
X60142140Y-120940382D01*
X60277827Y-121267960D01*
X60347000Y-121615714D01*
X60347000Y-121970286D01*
X60277827Y-122318040D01*
X60142140Y-122645618D01*
X59945149Y-122940436D01*
X59694436Y-123191149D01*
X59694433Y-123191151D01*
X59399620Y-123388139D01*
X59072041Y-123523827D01*
X58956122Y-123546885D01*
X58724286Y-123593000D01*
X58369714Y-123593000D01*
X58137878Y-123546885D01*
X58021959Y-123523827D01*
X57694380Y-123388139D01*
X57399567Y-123191151D01*
X57399564Y-123191149D01*
X57148851Y-122940436D01*
X56951860Y-122645618D01*
X56816173Y-122318040D01*
X56747000Y-121970286D01*
X56747000Y-121615714D01*
X56816173Y-121267960D01*
X56951860Y-120940382D01*
X57148851Y-120645564D01*
X57399564Y-120394851D01*
X57403489Y-120392228D01*
X57694380Y-120197861D01*
X58021959Y-120062173D01*
X58137878Y-120039115D01*
X58369714Y-119993000D01*
X58724286Y-119993000D01*
X58956122Y-120039115D01*
X58956122Y-120039115D01*
G37*
G36*
X116742000Y-122076000D02*
X113142000Y-122076000D01*
X113142000Y-119676000D01*
X116742000Y-119676000D01*
X116742000Y-122076000D01*
X116742000Y-122076000D01*
G37*
G36*
X141380000Y-122076000D02*
X137780000Y-122076000D01*
X137780000Y-119676000D01*
X141380000Y-119676000D01*
X141380000Y-122076000D01*
X141380000Y-122076000D01*
G37*
G36*
X146930026Y-116622115D02*
X147148412Y-116712573D01*
X147344958Y-116843901D01*
X147512099Y-117011042D01*
X147643427Y-117207588D01*
X147733885Y-117425974D01*
X147780000Y-117657809D01*
X147780000Y-117894191D01*
X147733885Y-118126026D01*
X147643427Y-118344412D01*
X147512099Y-118540958D01*
X147344958Y-118708099D01*
X147148412Y-118839427D01*
X146930026Y-118929885D01*
X146698191Y-118976000D01*
X146461809Y-118976000D01*
X146229974Y-118929885D01*
X146011588Y-118839427D01*
X145815042Y-118708099D01*
X145647901Y-118540958D01*
X145516573Y-118344412D01*
X145426115Y-118126026D01*
X145380000Y-117894191D01*
X145380000Y-117657809D01*
X145426115Y-117425974D01*
X145516573Y-117207588D01*
X145647901Y-117011042D01*
X145815042Y-116843901D01*
X146011588Y-116712573D01*
X146229974Y-116622115D01*
X146461809Y-116576000D01*
X146698191Y-116576000D01*
X146930026Y-116622115D01*
X146930026Y-116622115D01*
G37*
G36*
X108642000Y-113976000D02*
X108067692Y-113976000D01*
X108043306Y-113978402D01*
X108019857Y-113985515D01*
X107998246Y-113997066D01*
X107979304Y-114012612D01*
X107963758Y-114031554D01*
X107952207Y-114053165D01*
X107945094Y-114076614D01*
X107942692Y-114101000D01*
X107945094Y-114125386D01*
X107952207Y-114148835D01*
X107963758Y-114170446D01*
X107979304Y-114189388D01*
X107998246Y-114204934D01*
X108001915Y-114206895D01*
X108206958Y-114343901D01*
X108374099Y-114511042D01*
X108505427Y-114707588D01*
X108595885Y-114925974D01*
X108642000Y-115157809D01*
X108642000Y-115394191D01*
X108595885Y-115626026D01*
X108505427Y-115844412D01*
X108374099Y-116040958D01*
X108206958Y-116208099D01*
X108010412Y-116339427D01*
X107838790Y-116410515D01*
X107817179Y-116422066D01*
X107798237Y-116437612D01*
X107782691Y-116456554D01*
X107771140Y-116478164D01*
X107764027Y-116501614D01*
X107761625Y-116526000D01*
X107764027Y-116550386D01*
X107771140Y-116573835D01*
X107782691Y-116595446D01*
X107798237Y-116614388D01*
X107817179Y-116629934D01*
X107838790Y-116641485D01*
X108010412Y-116712573D01*
X108206958Y-116843901D01*
X108374099Y-117011042D01*
X108505427Y-117207588D01*
X108595885Y-117425974D01*
X108642000Y-117657809D01*
X108642000Y-117894191D01*
X108595885Y-118126026D01*
X108505427Y-118344412D01*
X108374099Y-118540958D01*
X108206958Y-118708099D01*
X108010412Y-118839427D01*
X107792026Y-118929885D01*
X107560191Y-118976000D01*
X107323809Y-118976000D01*
X107091974Y-118929885D01*
X106873588Y-118839427D01*
X106677042Y-118708099D01*
X106509901Y-118540958D01*
X106378573Y-118344412D01*
X106288115Y-118126026D01*
X106242000Y-117894191D01*
X106242000Y-117657809D01*
X106288115Y-117425974D01*
X106378573Y-117207588D01*
X106509901Y-117011042D01*
X106677042Y-116843901D01*
X106873588Y-116712573D01*
X107045210Y-116641485D01*
X107066821Y-116629934D01*
X107085763Y-116614388D01*
X107101309Y-116595446D01*
X107112860Y-116573836D01*
X107119973Y-116550386D01*
X107122375Y-116526000D01*
X107119973Y-116501614D01*
X107112860Y-116478165D01*
X107101309Y-116456554D01*
X107085763Y-116437612D01*
X107066821Y-116422066D01*
X107045210Y-116410515D01*
X106873588Y-116339427D01*
X106677042Y-116208099D01*
X106509901Y-116040958D01*
X106378573Y-115844412D01*
X106288115Y-115626026D01*
X106242000Y-115394191D01*
X106242000Y-115157809D01*
X106288115Y-114925974D01*
X106378573Y-114707588D01*
X106509901Y-114511042D01*
X106677042Y-114343901D01*
X106882093Y-114206890D01*
X106885761Y-114204929D01*
X106904702Y-114189382D01*
X106920246Y-114170439D01*
X106931796Y-114148828D01*
X106938908Y-114125378D01*
X106941308Y-114100992D01*
X106938905Y-114076605D01*
X106931790Y-114053157D01*
X106920237Y-114031547D01*
X106904690Y-114012606D01*
X106885747Y-113997062D01*
X106864136Y-113985512D01*
X106840686Y-113978400D01*
X106816308Y-113976000D01*
X106242000Y-113976000D01*
X106242000Y-111576000D01*
X108642000Y-111576000D01*
X108642000Y-113976000D01*
X108642000Y-113976000D01*
G37*
G36*
X122292026Y-116622115D02*
X122510412Y-116712573D01*
X122706958Y-116843901D01*
X122874099Y-117011042D01*
X123005427Y-117207588D01*
X123095885Y-117425974D01*
X123142000Y-117657809D01*
X123142000Y-117894191D01*
X123095885Y-118126026D01*
X123005427Y-118344412D01*
X122874099Y-118540958D01*
X122706958Y-118708099D01*
X122510412Y-118839427D01*
X122292026Y-118929885D01*
X122060191Y-118976000D01*
X121823809Y-118976000D01*
X121591974Y-118929885D01*
X121373588Y-118839427D01*
X121177042Y-118708099D01*
X121009901Y-118540958D01*
X120878573Y-118344412D01*
X120788115Y-118126026D01*
X120742000Y-117894191D01*
X120742000Y-117657809D01*
X120788115Y-117425974D01*
X120878573Y-117207588D01*
X121009901Y-117011042D01*
X121177042Y-116843901D01*
X121373588Y-116712573D01*
X121591974Y-116622115D01*
X121823809Y-116576000D01*
X122060191Y-116576000D01*
X122292026Y-116622115D01*
X122292026Y-116622115D01*
G37*
G36*
X133280000Y-113976000D02*
X132705692Y-113976000D01*
X132681306Y-113978402D01*
X132657857Y-113985515D01*
X132636246Y-113997066D01*
X132617304Y-114012612D01*
X132601758Y-114031554D01*
X132590207Y-114053165D01*
X132583094Y-114076614D01*
X132580692Y-114101000D01*
X132583094Y-114125386D01*
X132590207Y-114148835D01*
X132601758Y-114170446D01*
X132617304Y-114189388D01*
X132636246Y-114204934D01*
X132639915Y-114206895D01*
X132844958Y-114343901D01*
X133012099Y-114511042D01*
X133143427Y-114707588D01*
X133233885Y-114925974D01*
X133280000Y-115157809D01*
X133280000Y-115394191D01*
X133233885Y-115626026D01*
X133143427Y-115844412D01*
X133012099Y-116040958D01*
X132844958Y-116208099D01*
X132648412Y-116339427D01*
X132476790Y-116410515D01*
X132455179Y-116422066D01*
X132436237Y-116437612D01*
X132420691Y-116456554D01*
X132409140Y-116478164D01*
X132402027Y-116501614D01*
X132399625Y-116526000D01*
X132402027Y-116550386D01*
X132409140Y-116573835D01*
X132420691Y-116595446D01*
X132436237Y-116614388D01*
X132455179Y-116629934D01*
X132476790Y-116641485D01*
X132648412Y-116712573D01*
X132844958Y-116843901D01*
X133012099Y-117011042D01*
X133143427Y-117207588D01*
X133233885Y-117425974D01*
X133280000Y-117657809D01*
X133280000Y-117894191D01*
X133233885Y-118126026D01*
X133143427Y-118344412D01*
X133012099Y-118540958D01*
X132844958Y-118708099D01*
X132648412Y-118839427D01*
X132430026Y-118929885D01*
X132198191Y-118976000D01*
X131961809Y-118976000D01*
X131729974Y-118929885D01*
X131511588Y-118839427D01*
X131315042Y-118708099D01*
X131147901Y-118540958D01*
X131016573Y-118344412D01*
X130926115Y-118126026D01*
X130880000Y-117894191D01*
X130880000Y-117657809D01*
X130926115Y-117425974D01*
X131016573Y-117207588D01*
X131147901Y-117011042D01*
X131315042Y-116843901D01*
X131511588Y-116712573D01*
X131683210Y-116641485D01*
X131704821Y-116629934D01*
X131723763Y-116614388D01*
X131739309Y-116595446D01*
X131750860Y-116573836D01*
X131757973Y-116550386D01*
X131760375Y-116526000D01*
X131757973Y-116501614D01*
X131750860Y-116478165D01*
X131739309Y-116456554D01*
X131723763Y-116437612D01*
X131704821Y-116422066D01*
X131683210Y-116410515D01*
X131511588Y-116339427D01*
X131315042Y-116208099D01*
X131147901Y-116040958D01*
X131016573Y-115844412D01*
X130926115Y-115626026D01*
X130880000Y-115394191D01*
X130880000Y-115157809D01*
X130926115Y-114925974D01*
X131016573Y-114707588D01*
X131147901Y-114511042D01*
X131315042Y-114343901D01*
X131520093Y-114206890D01*
X131523761Y-114204929D01*
X131542702Y-114189382D01*
X131558246Y-114170439D01*
X131569796Y-114148828D01*
X131576908Y-114125378D01*
X131579308Y-114100992D01*
X131576905Y-114076605D01*
X131569790Y-114053157D01*
X131558237Y-114031547D01*
X131542690Y-114012606D01*
X131523747Y-113997062D01*
X131502136Y-113985512D01*
X131478686Y-113978400D01*
X131454308Y-113976000D01*
X130880000Y-113976000D01*
X130880000Y-111576000D01*
X133280000Y-111576000D01*
X133280000Y-113976000D01*
X133280000Y-113976000D01*
G37*
G36*
X98980781Y-115553490D02*
X99248307Y-115664303D01*
X99489074Y-115825178D01*
X99693822Y-116029926D01*
X99854697Y-116270693D01*
X99965510Y-116538219D01*
X100022000Y-116822216D01*
X100022000Y-117111784D01*
X99965510Y-117395781D01*
X99854697Y-117663307D01*
X99693822Y-117904074D01*
X99489074Y-118108822D01*
X99248307Y-118269697D01*
X98980781Y-118380510D01*
X98696784Y-118437000D01*
X98407216Y-118437000D01*
X98123219Y-118380510D01*
X97855693Y-118269697D01*
X97614926Y-118108822D01*
X97410178Y-117904074D01*
X97249303Y-117663307D01*
X97138490Y-117395781D01*
X97082000Y-117111784D01*
X97082000Y-116822216D01*
X97138490Y-116538219D01*
X97249303Y-116270693D01*
X97410178Y-116029926D01*
X97614926Y-115825178D01*
X97855693Y-115664303D01*
X98123219Y-115553490D01*
X98407216Y-115497000D01*
X98696784Y-115497000D01*
X98980781Y-115553490D01*
X98980781Y-115553490D01*
G37*
G36*
X88820781Y-115553490D02*
X89088307Y-115664303D01*
X89329074Y-115825178D01*
X89533822Y-116029926D01*
X89694697Y-116270693D01*
X89805510Y-116538219D01*
X89862000Y-116822216D01*
X89862000Y-117111784D01*
X89805510Y-117395781D01*
X89694697Y-117663307D01*
X89533822Y-117904074D01*
X89329074Y-118108822D01*
X89088307Y-118269697D01*
X88820781Y-118380510D01*
X88536784Y-118437000D01*
X88247216Y-118437000D01*
X87963219Y-118380510D01*
X87695693Y-118269697D01*
X87454926Y-118108822D01*
X87250178Y-117904074D01*
X87089303Y-117663307D01*
X86978490Y-117395781D01*
X86922000Y-117111784D01*
X86922000Y-116822216D01*
X86978490Y-116538219D01*
X87089303Y-116270693D01*
X87250178Y-116029926D01*
X87454926Y-115825178D01*
X87695693Y-115664303D01*
X87963219Y-115553490D01*
X88247216Y-115497000D01*
X88536784Y-115497000D01*
X88820781Y-115553490D01*
X88820781Y-115553490D01*
G37*
G36*
X66849781Y-115553490D02*
X67117307Y-115664303D01*
X67358074Y-115825178D01*
X67562822Y-116029926D01*
X67723697Y-116270693D01*
X67834510Y-116538219D01*
X67891000Y-116822216D01*
X67891000Y-117111784D01*
X67834510Y-117395781D01*
X67723697Y-117663307D01*
X67562822Y-117904074D01*
X67358074Y-118108822D01*
X67117307Y-118269697D01*
X66849781Y-118380510D01*
X66565784Y-118437000D01*
X66276216Y-118437000D01*
X65992219Y-118380510D01*
X65724693Y-118269697D01*
X65483926Y-118108822D01*
X65279178Y-117904074D01*
X65118303Y-117663307D01*
X65007490Y-117395781D01*
X64951000Y-117111784D01*
X64951000Y-116822216D01*
X65007490Y-116538219D01*
X65118303Y-116270693D01*
X65279178Y-116029926D01*
X65483926Y-115825178D01*
X65724693Y-115664303D01*
X65992219Y-115553490D01*
X66276216Y-115497000D01*
X66565784Y-115497000D01*
X66849781Y-115553490D01*
X66849781Y-115553490D01*
G37*
G36*
X77009781Y-115553490D02*
X77277307Y-115664303D01*
X77518074Y-115825178D01*
X77722822Y-116029926D01*
X77883697Y-116270693D01*
X77994510Y-116538219D01*
X78051000Y-116822216D01*
X78051000Y-117111784D01*
X77994510Y-117395781D01*
X77883697Y-117663307D01*
X77722822Y-117904074D01*
X77518074Y-118108822D01*
X77277307Y-118269697D01*
X77009781Y-118380510D01*
X76725784Y-118437000D01*
X76436216Y-118437000D01*
X76152219Y-118380510D01*
X75884693Y-118269697D01*
X75643926Y-118108822D01*
X75439178Y-117904074D01*
X75278303Y-117663307D01*
X75167490Y-117395781D01*
X75111000Y-117111784D01*
X75111000Y-116822216D01*
X75167490Y-116538219D01*
X75278303Y-116270693D01*
X75439178Y-116029926D01*
X75643926Y-115825178D01*
X75884693Y-115664303D01*
X76152219Y-115553490D01*
X76436216Y-115497000D01*
X76725784Y-115497000D01*
X77009781Y-115553490D01*
X77009781Y-115553490D01*
G37*
G36*
X146930026Y-111622115D02*
X147148412Y-111712573D01*
X147344958Y-111843901D01*
X147512099Y-112011042D01*
X147643427Y-112207588D01*
X147733885Y-112425974D01*
X147780000Y-112657809D01*
X147780000Y-112894191D01*
X147733885Y-113126026D01*
X147643427Y-113344412D01*
X147512099Y-113540958D01*
X147344958Y-113708099D01*
X147148412Y-113839427D01*
X146930026Y-113929885D01*
X146698191Y-113976000D01*
X146461809Y-113976000D01*
X146229974Y-113929885D01*
X146011588Y-113839427D01*
X145815042Y-113708099D01*
X145647901Y-113540958D01*
X145516573Y-113344412D01*
X145426115Y-113126026D01*
X145380000Y-112894191D01*
X145380000Y-112657809D01*
X145426115Y-112425974D01*
X145516573Y-112207588D01*
X145647901Y-112011042D01*
X145815042Y-111843901D01*
X146011588Y-111712573D01*
X146229974Y-111622115D01*
X146461809Y-111576000D01*
X146698191Y-111576000D01*
X146930026Y-111622115D01*
X146930026Y-111622115D01*
G37*
G36*
X122292026Y-111622115D02*
X122510412Y-111712573D01*
X122706958Y-111843901D01*
X122874099Y-112011042D01*
X123005427Y-112207588D01*
X123095885Y-112425974D01*
X123142000Y-112657809D01*
X123142000Y-112894191D01*
X123095885Y-113126026D01*
X123005427Y-113344412D01*
X122874099Y-113540958D01*
X122706958Y-113708099D01*
X122510412Y-113839427D01*
X122292026Y-113929885D01*
X122060191Y-113976000D01*
X121823809Y-113976000D01*
X121591974Y-113929885D01*
X121373588Y-113839427D01*
X121177042Y-113708099D01*
X121009901Y-113540958D01*
X120878573Y-113344412D01*
X120788115Y-113126026D01*
X120742000Y-112894191D01*
X120742000Y-112657809D01*
X120788115Y-112425974D01*
X120878573Y-112207588D01*
X121009901Y-112011042D01*
X121177042Y-111843901D01*
X121373588Y-111712573D01*
X121591974Y-111622115D01*
X121823809Y-111576000D01*
X122060191Y-111576000D01*
X122292026Y-111622115D01*
X122292026Y-111622115D01*
G37*
G36*
X71763083Y-111023029D02*
X71926596Y-111090758D01*
X72073764Y-111189093D01*
X72198907Y-111314236D01*
X72297242Y-111461404D01*
X72364971Y-111624917D01*
X72399500Y-111798505D01*
X72399500Y-111975495D01*
X72364971Y-112149083D01*
X72297242Y-112312596D01*
X72198907Y-112459764D01*
X72073764Y-112584907D01*
X72073761Y-112584909D01*
X72073760Y-112584910D01*
X71926599Y-112683240D01*
X71926596Y-112683242D01*
X71763083Y-112750971D01*
X71589495Y-112785500D01*
X71412505Y-112785500D01*
X71238917Y-112750971D01*
X71075404Y-112683242D01*
X71075401Y-112683240D01*
X70928240Y-112584910D01*
X70928239Y-112584909D01*
X70928236Y-112584907D01*
X70803093Y-112459764D01*
X70704758Y-112312596D01*
X70637029Y-112149083D01*
X70602500Y-111975495D01*
X70602500Y-111798505D01*
X70637029Y-111624917D01*
X70704758Y-111461404D01*
X70803093Y-111314236D01*
X70928236Y-111189093D01*
X71075404Y-111090758D01*
X71238917Y-111023029D01*
X71412505Y-110988500D01*
X71589495Y-110988500D01*
X71763083Y-111023029D01*
X71763083Y-111023029D01*
G37*
G36*
X96274083Y-111023029D02*
X96437596Y-111090758D01*
X96584764Y-111189093D01*
X96709907Y-111314236D01*
X96808242Y-111461404D01*
X96875971Y-111624917D01*
X96910500Y-111798505D01*
X96910500Y-111975495D01*
X96875971Y-112149083D01*
X96808242Y-112312596D01*
X96709907Y-112459764D01*
X96584764Y-112584907D01*
X96584761Y-112584909D01*
X96584760Y-112584910D01*
X96437599Y-112683240D01*
X96437596Y-112683242D01*
X96274083Y-112750971D01*
X96100495Y-112785500D01*
X95923505Y-112785500D01*
X95749917Y-112750971D01*
X95586404Y-112683242D01*
X95586401Y-112683240D01*
X95439240Y-112584910D01*
X95439239Y-112584909D01*
X95439236Y-112584907D01*
X95314093Y-112459764D01*
X95215758Y-112312596D01*
X95148029Y-112149083D01*
X95113500Y-111975495D01*
X95113500Y-111798505D01*
X95148029Y-111624917D01*
X95215758Y-111461404D01*
X95314093Y-111314236D01*
X95439236Y-111189093D01*
X95586404Y-111090758D01*
X95749917Y-111023029D01*
X95923505Y-110988500D01*
X96100495Y-110988500D01*
X96274083Y-111023029D01*
X96274083Y-111023029D01*
G37*
G36*
X93734083Y-111023029D02*
X93897596Y-111090758D01*
X94044764Y-111189093D01*
X94169907Y-111314236D01*
X94268242Y-111461404D01*
X94335971Y-111624917D01*
X94370500Y-111798505D01*
X94370500Y-111975495D01*
X94335971Y-112149083D01*
X94268242Y-112312596D01*
X94169907Y-112459764D01*
X94044764Y-112584907D01*
X94044761Y-112584909D01*
X94044760Y-112584910D01*
X93897599Y-112683240D01*
X93897596Y-112683242D01*
X93734083Y-112750971D01*
X93560495Y-112785500D01*
X93383505Y-112785500D01*
X93209917Y-112750971D01*
X93046404Y-112683242D01*
X93046401Y-112683240D01*
X92899240Y-112584910D01*
X92899239Y-112584909D01*
X92899236Y-112584907D01*
X92774093Y-112459764D01*
X92675758Y-112312596D01*
X92608029Y-112149083D01*
X92573500Y-111975495D01*
X92573500Y-111798505D01*
X92608029Y-111624917D01*
X92675758Y-111461404D01*
X92774093Y-111314236D01*
X92899236Y-111189093D01*
X93046404Y-111090758D01*
X93209917Y-111023029D01*
X93383505Y-110988500D01*
X93560495Y-110988500D01*
X93734083Y-111023029D01*
X93734083Y-111023029D01*
G37*
G36*
X74303083Y-111023029D02*
X74466596Y-111090758D01*
X74613764Y-111189093D01*
X74738907Y-111314236D01*
X74837242Y-111461404D01*
X74904971Y-111624917D01*
X74939500Y-111798505D01*
X74939500Y-111975495D01*
X74904971Y-112149083D01*
X74837242Y-112312596D01*
X74738907Y-112459764D01*
X74613764Y-112584907D01*
X74613761Y-112584909D01*
X74613760Y-112584910D01*
X74466599Y-112683240D01*
X74466596Y-112683242D01*
X74303083Y-112750971D01*
X74129495Y-112785500D01*
X73952505Y-112785500D01*
X73778917Y-112750971D01*
X73615404Y-112683242D01*
X73615401Y-112683240D01*
X73468240Y-112584910D01*
X73468239Y-112584909D01*
X73468236Y-112584907D01*
X73343093Y-112459764D01*
X73244758Y-112312596D01*
X73177029Y-112149083D01*
X73142500Y-111975495D01*
X73142500Y-111798505D01*
X73177029Y-111624917D01*
X73244758Y-111461404D01*
X73343093Y-111314236D01*
X73468236Y-111189093D01*
X73615404Y-111090758D01*
X73778917Y-111023029D01*
X73952505Y-110988500D01*
X74129495Y-110988500D01*
X74303083Y-111023029D01*
X74303083Y-111023029D01*
G37*
G36*
X141380000Y-110876000D02*
X137780000Y-110876000D01*
X137780000Y-108476000D01*
X141380000Y-108476000D01*
X141380000Y-110876000D01*
X141380000Y-110876000D01*
G37*
G36*
X116742000Y-110876000D02*
X113142000Y-110876000D01*
X113142000Y-108476000D01*
X116742000Y-108476000D01*
X116742000Y-110876000D01*
X116742000Y-110876000D01*
G37*
G36*
X67459516Y-102890946D02*
X67501910Y-102903806D01*
X67540974Y-102924686D01*
X67575214Y-102952786D01*
X67603314Y-102987026D01*
X67624194Y-103026090D01*
X67637054Y-103068484D01*
X67642000Y-103118702D01*
X67642000Y-104653298D01*
X67637054Y-104703516D01*
X67624194Y-104745910D01*
X67603314Y-104784974D01*
X67575214Y-104819214D01*
X67540974Y-104847314D01*
X67501910Y-104868194D01*
X67459516Y-104881054D01*
X67409298Y-104886000D01*
X63974702Y-104886000D01*
X63924484Y-104881054D01*
X63882090Y-104868194D01*
X63843026Y-104847314D01*
X63808786Y-104819214D01*
X63780686Y-104784974D01*
X63759806Y-104745910D01*
X63746946Y-104703516D01*
X63742000Y-104653298D01*
X63742000Y-103118702D01*
X63746946Y-103068484D01*
X63759806Y-103026090D01*
X63780686Y-102987026D01*
X63808786Y-102952786D01*
X63843026Y-102924686D01*
X63882090Y-102903806D01*
X63924484Y-102890946D01*
X63974702Y-102886000D01*
X67409298Y-102886000D01*
X67459516Y-102890946D01*
X67459516Y-102890946D01*
G37*
G36*
X62059516Y-102890946D02*
X62101910Y-102903806D01*
X62140974Y-102924686D01*
X62175214Y-102952786D01*
X62203314Y-102987026D01*
X62224194Y-103026090D01*
X62237054Y-103068484D01*
X62242000Y-103118702D01*
X62242000Y-104653298D01*
X62237054Y-104703516D01*
X62224194Y-104745910D01*
X62203314Y-104784974D01*
X62175214Y-104819214D01*
X62140974Y-104847314D01*
X62101910Y-104868194D01*
X62059516Y-104881054D01*
X62009298Y-104886000D01*
X58574702Y-104886000D01*
X58524484Y-104881054D01*
X58482090Y-104868194D01*
X58443026Y-104847314D01*
X58408786Y-104819214D01*
X58380686Y-104784974D01*
X58359806Y-104745910D01*
X58346946Y-104703516D01*
X58342000Y-104653298D01*
X58342000Y-103118702D01*
X58346946Y-103068484D01*
X58359806Y-103026090D01*
X58380686Y-102987026D01*
X58408786Y-102952786D01*
X58443026Y-102924686D01*
X58482090Y-102903806D01*
X58524484Y-102890946D01*
X58574702Y-102886000D01*
X62009298Y-102886000D01*
X62059516Y-102890946D01*
X62059516Y-102890946D01*
G37*
G36*
X101628122Y-100989115D02*
X101744041Y-101012173D01*
X102071620Y-101147861D01*
X102362511Y-101342228D01*
X102366436Y-101344851D01*
X102617149Y-101595564D01*
X102814140Y-101890382D01*
X102949827Y-102217960D01*
X103019000Y-102565714D01*
X103019000Y-102920286D01*
X102998194Y-103024884D01*
X102963660Y-103198500D01*
X102949827Y-103268040D01*
X102814140Y-103595618D01*
X102617149Y-103890436D01*
X102366436Y-104141149D01*
X102366433Y-104141151D01*
X102071620Y-104338139D01*
X101744041Y-104473827D01*
X101628122Y-104496885D01*
X101396286Y-104543000D01*
X101041714Y-104543000D01*
X100809878Y-104496885D01*
X100693959Y-104473827D01*
X100366380Y-104338139D01*
X100071567Y-104141151D01*
X100071564Y-104141149D01*
X99820851Y-103890436D01*
X99623860Y-103595618D01*
X99488173Y-103268040D01*
X99474341Y-103198500D01*
X99439806Y-103024884D01*
X99419000Y-102920286D01*
X99419000Y-102565714D01*
X99488173Y-102217960D01*
X99623860Y-101890382D01*
X99820851Y-101595564D01*
X100071564Y-101344851D01*
X100075489Y-101342228D01*
X100366380Y-101147861D01*
X100693959Y-101012173D01*
X100809878Y-100989115D01*
X101041714Y-100943000D01*
X101396286Y-100943000D01*
X101628122Y-100989115D01*
X101628122Y-100989115D01*
G37*
G36*
X142268122Y-100989115D02*
X142384041Y-101012173D01*
X142711620Y-101147861D01*
X143002511Y-101342228D01*
X143006436Y-101344851D01*
X143257149Y-101595564D01*
X143454140Y-101890382D01*
X143589827Y-102217960D01*
X143659000Y-102565714D01*
X143659000Y-102920286D01*
X143638194Y-103024884D01*
X143603660Y-103198500D01*
X143589827Y-103268040D01*
X143454140Y-103595618D01*
X143257149Y-103890436D01*
X143006436Y-104141149D01*
X143006433Y-104141151D01*
X142711620Y-104338139D01*
X142384041Y-104473827D01*
X142268122Y-104496885D01*
X142036286Y-104543000D01*
X141681714Y-104543000D01*
X141449878Y-104496885D01*
X141333959Y-104473827D01*
X141006380Y-104338139D01*
X140711567Y-104141151D01*
X140711564Y-104141149D01*
X140460851Y-103890436D01*
X140263860Y-103595618D01*
X140128173Y-103268040D01*
X140114341Y-103198500D01*
X140079806Y-103024884D01*
X140059000Y-102920286D01*
X140059000Y-102565714D01*
X140128173Y-102217960D01*
X140263860Y-101890382D01*
X140460851Y-101595564D01*
X140711564Y-101344851D01*
X140715489Y-101342228D01*
X141006380Y-101147861D01*
X141333959Y-101012173D01*
X141449878Y-100989115D01*
X141681714Y-100943000D01*
X142036286Y-100943000D01*
X142268122Y-100989115D01*
X142268122Y-100989115D01*
G37*
G36*
X62465530Y-98009877D02*
X62517010Y-98025493D01*
X62564442Y-98050846D01*
X62606027Y-98084973D01*
X62640154Y-98126558D01*
X62665507Y-98173990D01*
X62681123Y-98225470D01*
X62687000Y-98285140D01*
X62687000Y-99072860D01*
X62681123Y-99132530D01*
X62665507Y-99184010D01*
X62640154Y-99231442D01*
X62606027Y-99273027D01*
X62564442Y-99307154D01*
X62517010Y-99332507D01*
X62465530Y-99348123D01*
X62405860Y-99354000D01*
X61518140Y-99354000D01*
X61458470Y-99348123D01*
X61406990Y-99332507D01*
X61359558Y-99307154D01*
X61317973Y-99273027D01*
X61283846Y-99231442D01*
X61258493Y-99184010D01*
X61242877Y-99132530D01*
X61237000Y-99072860D01*
X61237000Y-98285140D01*
X61242877Y-98225470D01*
X61258493Y-98173990D01*
X61283846Y-98126558D01*
X61317973Y-98084973D01*
X61359558Y-98050846D01*
X61406990Y-98025493D01*
X61458470Y-98009877D01*
X61518140Y-98004000D01*
X62405860Y-98004000D01*
X62465530Y-98009877D01*
X62465530Y-98009877D01*
G37*
G36*
X60715530Y-98009877D02*
X60767010Y-98025493D01*
X60814442Y-98050846D01*
X60856027Y-98084973D01*
X60890154Y-98126558D01*
X60915507Y-98173990D01*
X60931123Y-98225470D01*
X60937000Y-98285140D01*
X60937000Y-99072860D01*
X60931123Y-99132530D01*
X60915507Y-99184010D01*
X60890154Y-99231442D01*
X60856027Y-99273027D01*
X60814442Y-99307154D01*
X60767010Y-99332507D01*
X60715530Y-99348123D01*
X60655860Y-99354000D01*
X59768140Y-99354000D01*
X59708470Y-99348123D01*
X59656990Y-99332507D01*
X59609558Y-99307154D01*
X59567973Y-99273027D01*
X59533846Y-99231442D01*
X59508493Y-99184010D01*
X59492877Y-99132530D01*
X59487000Y-99072860D01*
X59487000Y-98285140D01*
X59492877Y-98225470D01*
X59508493Y-98173990D01*
X59533846Y-98126558D01*
X59567973Y-98084973D01*
X59609558Y-98050846D01*
X59656990Y-98025493D01*
X59708470Y-98009877D01*
X59768140Y-98004000D01*
X60655860Y-98004000D01*
X60715530Y-98009877D01*
X60715530Y-98009877D01*
G37*
G36*
X64069000Y-96806000D02*
X62169000Y-96806000D01*
X62169000Y-94406000D01*
X64069000Y-94406000D01*
X64069000Y-96806000D01*
X64069000Y-96806000D01*
G37*
G36*
X66369000Y-96806000D02*
X64469000Y-96806000D01*
X64469000Y-94406000D01*
X66369000Y-94406000D01*
X66369000Y-96806000D01*
X66369000Y-96806000D01*
G37*
G36*
X61769000Y-96806000D02*
X59869000Y-96806000D01*
X59869000Y-94406000D01*
X61769000Y-94406000D01*
X61769000Y-96806000D01*
X61769000Y-96806000D01*
G37*
G36*
X94133603Y-94070968D02*
X94133606Y-94070969D01*
X94133605Y-94070969D01*
X94308678Y-94143486D01*
X94308679Y-94143487D01*
X94466241Y-94248767D01*
X94600233Y-94382759D01*
X94600234Y-94382761D01*
X94705514Y-94540322D01*
X94761603Y-94675734D01*
X94778032Y-94715397D01*
X94815000Y-94901250D01*
X94815000Y-95090750D01*
X94778032Y-95276603D01*
X94778031Y-95276605D01*
X94705514Y-95451678D01*
X94705513Y-95451679D01*
X94600233Y-95609241D01*
X94466241Y-95743233D01*
X94386923Y-95796232D01*
X94308678Y-95848514D01*
X94173266Y-95904603D01*
X94133603Y-95921032D01*
X93947750Y-95958000D01*
X93758250Y-95958000D01*
X93572397Y-95921032D01*
X93532734Y-95904603D01*
X93397322Y-95848514D01*
X93319077Y-95796232D01*
X93239759Y-95743233D01*
X93105767Y-95609241D01*
X93000487Y-95451679D01*
X93000486Y-95451678D01*
X92927969Y-95276605D01*
X92927968Y-95276603D01*
X92891000Y-95090750D01*
X92891000Y-94901250D01*
X92927968Y-94715397D01*
X92944397Y-94675734D01*
X93000486Y-94540322D01*
X93105766Y-94382761D01*
X93105767Y-94382759D01*
X93239759Y-94248767D01*
X93397321Y-94143487D01*
X93397322Y-94143486D01*
X93572395Y-94070969D01*
X93572394Y-94070969D01*
X93572397Y-94070968D01*
X93758250Y-94034000D01*
X93947750Y-94034000D01*
X94133603Y-94070968D01*
X94133603Y-94070968D01*
G37*
G36*
X73813603Y-94070968D02*
X73813606Y-94070969D01*
X73813605Y-94070969D01*
X73988678Y-94143486D01*
X73988679Y-94143487D01*
X74146241Y-94248767D01*
X74280233Y-94382759D01*
X74280234Y-94382761D01*
X74385514Y-94540322D01*
X74441603Y-94675734D01*
X74458032Y-94715397D01*
X74495000Y-94901250D01*
X74495000Y-95090750D01*
X74458032Y-95276603D01*
X74458031Y-95276605D01*
X74385514Y-95451678D01*
X74385513Y-95451679D01*
X74280233Y-95609241D01*
X74146241Y-95743233D01*
X74066923Y-95796232D01*
X73988678Y-95848514D01*
X73853266Y-95904603D01*
X73813603Y-95921032D01*
X73627750Y-95958000D01*
X73438250Y-95958000D01*
X73252397Y-95921032D01*
X73212734Y-95904603D01*
X73077322Y-95848514D01*
X72999077Y-95796232D01*
X72919759Y-95743233D01*
X72785767Y-95609241D01*
X72680487Y-95451679D01*
X72680486Y-95451678D01*
X72607969Y-95276605D01*
X72607968Y-95276603D01*
X72571000Y-95090750D01*
X72571000Y-94901250D01*
X72607968Y-94715397D01*
X72624397Y-94675734D01*
X72680486Y-94540322D01*
X72785766Y-94382761D01*
X72785767Y-94382759D01*
X72919759Y-94248767D01*
X73077321Y-94143487D01*
X73077322Y-94143486D01*
X73252395Y-94070969D01*
X73252394Y-94070969D01*
X73252397Y-94070968D01*
X73438250Y-94034000D01*
X73627750Y-94034000D01*
X73813603Y-94070968D01*
X73813603Y-94070968D01*
G37*
G36*
X69033530Y-92865877D02*
X69085010Y-92881493D01*
X69132442Y-92906846D01*
X69174027Y-92940973D01*
X69208154Y-92982558D01*
X69233507Y-93029990D01*
X69249123Y-93081470D01*
X69255000Y-93141140D01*
X69255000Y-94028860D01*
X69249123Y-94088530D01*
X69233507Y-94140010D01*
X69208154Y-94187442D01*
X69174027Y-94229027D01*
X69132442Y-94263154D01*
X69085010Y-94288507D01*
X69033530Y-94304123D01*
X68973860Y-94310000D01*
X68186140Y-94310000D01*
X68126470Y-94304123D01*
X68074990Y-94288507D01*
X68027558Y-94263154D01*
X67985973Y-94229027D01*
X67951846Y-94187442D01*
X67926493Y-94140010D01*
X67910877Y-94088530D01*
X67905000Y-94028860D01*
X67905000Y-93141140D01*
X67910877Y-93081470D01*
X67926493Y-93029990D01*
X67951846Y-92982558D01*
X67985973Y-92940973D01*
X68027558Y-92906846D01*
X68074990Y-92881493D01*
X68126470Y-92865877D01*
X68186140Y-92860000D01*
X68973860Y-92860000D01*
X69033530Y-92865877D01*
X69033530Y-92865877D01*
G37*
G36*
X73813603Y-91530968D02*
X73813606Y-91530969D01*
X73813605Y-91530969D01*
X73988678Y-91603486D01*
X73988679Y-91603487D01*
X74146241Y-91708767D01*
X74280233Y-91842759D01*
X74280234Y-91842761D01*
X74385514Y-92000322D01*
X74441603Y-92135734D01*
X74458032Y-92175397D01*
X74495000Y-92361250D01*
X74495000Y-92550750D01*
X74458032Y-92736603D01*
X74458031Y-92736605D01*
X74385514Y-92911678D01*
X74353994Y-92958851D01*
X74280233Y-93069241D01*
X74146241Y-93203233D01*
X74066923Y-93256232D01*
X73988678Y-93308514D01*
X73853266Y-93364603D01*
X73813603Y-93381032D01*
X73627750Y-93418000D01*
X73438250Y-93418000D01*
X73252397Y-93381032D01*
X73212734Y-93364603D01*
X73077322Y-93308514D01*
X72999077Y-93256232D01*
X72919759Y-93203233D01*
X72785767Y-93069241D01*
X72712006Y-92958851D01*
X72680486Y-92911678D01*
X72607969Y-92736605D01*
X72607968Y-92736603D01*
X72571000Y-92550750D01*
X72571000Y-92361250D01*
X72607968Y-92175397D01*
X72624397Y-92135734D01*
X72680486Y-92000322D01*
X72785766Y-91842761D01*
X72785767Y-91842759D01*
X72919759Y-91708767D01*
X73077321Y-91603487D01*
X73077322Y-91603486D01*
X73252395Y-91530969D01*
X73252394Y-91530969D01*
X73252397Y-91530968D01*
X73438250Y-91494000D01*
X73627750Y-91494000D01*
X73813603Y-91530968D01*
X73813603Y-91530968D01*
G37*
G36*
X94133603Y-91530968D02*
X94133606Y-91530969D01*
X94133605Y-91530969D01*
X94308678Y-91603486D01*
X94308679Y-91603487D01*
X94466241Y-91708767D01*
X94600233Y-91842759D01*
X94600234Y-91842761D01*
X94705514Y-92000322D01*
X94761603Y-92135734D01*
X94778032Y-92175397D01*
X94815000Y-92361250D01*
X94815000Y-92550750D01*
X94778032Y-92736603D01*
X94778031Y-92736605D01*
X94705514Y-92911678D01*
X94673994Y-92958851D01*
X94600233Y-93069241D01*
X94466241Y-93203233D01*
X94386923Y-93256232D01*
X94308678Y-93308514D01*
X94173266Y-93364603D01*
X94133603Y-93381032D01*
X93947750Y-93418000D01*
X93758250Y-93418000D01*
X93572397Y-93381032D01*
X93532734Y-93364603D01*
X93397322Y-93308514D01*
X93319077Y-93256232D01*
X93239759Y-93203233D01*
X93105767Y-93069241D01*
X93032006Y-92958851D01*
X93000486Y-92911678D01*
X92927969Y-92736605D01*
X92927968Y-92736603D01*
X92891000Y-92550750D01*
X92891000Y-92361250D01*
X92927968Y-92175397D01*
X92944397Y-92135734D01*
X93000486Y-92000322D01*
X93105766Y-91842761D01*
X93105767Y-91842759D01*
X93239759Y-91708767D01*
X93397321Y-91603487D01*
X93397322Y-91603486D01*
X93572395Y-91530969D01*
X93572394Y-91530969D01*
X93572397Y-91530968D01*
X93758250Y-91494000D01*
X93947750Y-91494000D01*
X94133603Y-91530968D01*
X94133603Y-91530968D01*
G37*
G36*
X125929530Y-91214877D02*
X125981010Y-91230493D01*
X126028442Y-91255846D01*
X126070027Y-91289973D01*
X126104154Y-91331558D01*
X126129507Y-91378990D01*
X126145123Y-91430470D01*
X126151000Y-91490140D01*
X126151000Y-92377860D01*
X126145123Y-92437530D01*
X126129507Y-92489010D01*
X126104154Y-92536442D01*
X126070027Y-92578027D01*
X126028442Y-92612154D01*
X125981010Y-92637507D01*
X125929530Y-92653123D01*
X125869860Y-92659000D01*
X125082140Y-92659000D01*
X125022470Y-92653123D01*
X124970990Y-92637507D01*
X124923558Y-92612154D01*
X124881973Y-92578027D01*
X124847846Y-92536442D01*
X124822493Y-92489010D01*
X124806877Y-92437530D01*
X124801000Y-92377860D01*
X124801000Y-91490140D01*
X124806877Y-91430470D01*
X124822493Y-91378990D01*
X124847846Y-91331558D01*
X124881973Y-91289973D01*
X124923558Y-91255846D01*
X124970990Y-91230493D01*
X125022470Y-91214877D01*
X125082140Y-91209000D01*
X125869860Y-91209000D01*
X125929530Y-91214877D01*
X125929530Y-91214877D01*
G37*
G36*
X123135530Y-91214877D02*
X123187010Y-91230493D01*
X123234442Y-91255846D01*
X123276027Y-91289973D01*
X123310154Y-91331558D01*
X123335507Y-91378990D01*
X123351123Y-91430470D01*
X123357000Y-91490140D01*
X123357000Y-92377860D01*
X123351123Y-92437530D01*
X123335507Y-92489010D01*
X123310154Y-92536442D01*
X123276027Y-92578027D01*
X123234442Y-92612154D01*
X123187010Y-92637507D01*
X123135530Y-92653123D01*
X123075860Y-92659000D01*
X122288140Y-92659000D01*
X122228470Y-92653123D01*
X122176990Y-92637507D01*
X122129558Y-92612154D01*
X122087973Y-92578027D01*
X122053846Y-92536442D01*
X122028493Y-92489010D01*
X122012877Y-92437530D01*
X122007000Y-92377860D01*
X122007000Y-91490140D01*
X122012877Y-91430470D01*
X122028493Y-91378990D01*
X122053846Y-91331558D01*
X122087973Y-91289973D01*
X122129558Y-91255846D01*
X122176990Y-91230493D01*
X122228470Y-91214877D01*
X122288140Y-91209000D01*
X123075860Y-91209000D01*
X123135530Y-91214877D01*
X123135530Y-91214877D01*
G37*
G36*
X69033530Y-91115877D02*
X69085010Y-91131493D01*
X69132442Y-91156846D01*
X69174027Y-91190973D01*
X69208154Y-91232558D01*
X69233507Y-91279990D01*
X69249123Y-91331470D01*
X69255000Y-91391140D01*
X69255000Y-92278860D01*
X69249123Y-92338530D01*
X69233507Y-92390010D01*
X69208154Y-92437442D01*
X69174027Y-92479027D01*
X69132442Y-92513154D01*
X69085010Y-92538507D01*
X69033530Y-92554123D01*
X68973860Y-92560000D01*
X68186140Y-92560000D01*
X68126470Y-92554123D01*
X68074990Y-92538507D01*
X68027558Y-92513154D01*
X67985973Y-92479027D01*
X67951846Y-92437442D01*
X67926493Y-92390010D01*
X67910877Y-92338530D01*
X67905000Y-92278860D01*
X67905000Y-91391140D01*
X67910877Y-91331470D01*
X67926493Y-91279990D01*
X67951846Y-91232558D01*
X67985973Y-91190973D01*
X68027558Y-91156846D01*
X68074990Y-91131493D01*
X68126470Y-91115877D01*
X68186140Y-91110000D01*
X68973860Y-91110000D01*
X69033530Y-91115877D01*
X69033530Y-91115877D01*
G37*
G36*
X123135530Y-89464877D02*
X123187010Y-89480493D01*
X123234442Y-89505846D01*
X123276027Y-89539973D01*
X123310154Y-89581558D01*
X123335507Y-89628990D01*
X123351123Y-89680470D01*
X123357000Y-89740140D01*
X123357000Y-90627860D01*
X123351123Y-90687530D01*
X123335507Y-90739010D01*
X123310154Y-90786442D01*
X123276027Y-90828027D01*
X123234442Y-90862154D01*
X123187010Y-90887507D01*
X123135530Y-90903123D01*
X123075860Y-90909000D01*
X122288140Y-90909000D01*
X122228470Y-90903123D01*
X122176990Y-90887507D01*
X122129558Y-90862154D01*
X122087973Y-90828027D01*
X122053846Y-90786442D01*
X122028493Y-90739010D01*
X122012877Y-90687530D01*
X122007000Y-90627860D01*
X122007000Y-89740140D01*
X122012877Y-89680470D01*
X122028493Y-89628990D01*
X122053846Y-89581558D01*
X122087973Y-89539973D01*
X122129558Y-89505846D01*
X122176990Y-89480493D01*
X122228470Y-89464877D01*
X122288140Y-89459000D01*
X123075860Y-89459000D01*
X123135530Y-89464877D01*
X123135530Y-89464877D01*
G37*
G36*
X125929530Y-89464877D02*
X125981010Y-89480493D01*
X126028442Y-89505846D01*
X126070027Y-89539973D01*
X126104154Y-89581558D01*
X126129507Y-89628990D01*
X126145123Y-89680470D01*
X126151000Y-89740140D01*
X126151000Y-90627860D01*
X126145123Y-90687530D01*
X126129507Y-90739010D01*
X126104154Y-90786442D01*
X126070027Y-90828027D01*
X126028442Y-90862154D01*
X125981010Y-90887507D01*
X125929530Y-90903123D01*
X125869860Y-90909000D01*
X125082140Y-90909000D01*
X125022470Y-90903123D01*
X124970990Y-90887507D01*
X124923558Y-90862154D01*
X124881973Y-90828027D01*
X124847846Y-90786442D01*
X124822493Y-90739010D01*
X124806877Y-90687530D01*
X124801000Y-90627860D01*
X124801000Y-89740140D01*
X124806877Y-89680470D01*
X124822493Y-89628990D01*
X124847846Y-89581558D01*
X124881973Y-89539973D01*
X124923558Y-89505846D01*
X124970990Y-89480493D01*
X125022470Y-89464877D01*
X125082140Y-89459000D01*
X125869860Y-89459000D01*
X125929530Y-89464877D01*
X125929530Y-89464877D01*
G37*
G36*
X94133603Y-88990968D02*
X94133606Y-88990969D01*
X94133605Y-88990969D01*
X94308678Y-89063486D01*
X94308679Y-89063487D01*
X94466241Y-89168767D01*
X94600233Y-89302759D01*
X94600234Y-89302761D01*
X94705514Y-89460322D01*
X94745875Y-89557763D01*
X94778032Y-89635397D01*
X94815000Y-89821250D01*
X94815000Y-90010750D01*
X94778032Y-90196603D01*
X94778031Y-90196605D01*
X94705514Y-90371678D01*
X94705513Y-90371679D01*
X94600233Y-90529241D01*
X94466241Y-90663233D01*
X94429878Y-90687530D01*
X94308678Y-90768514D01*
X94208161Y-90810149D01*
X94133603Y-90841032D01*
X93947750Y-90878000D01*
X93758250Y-90878000D01*
X93572397Y-90841032D01*
X93497839Y-90810149D01*
X93397322Y-90768514D01*
X93276122Y-90687530D01*
X93239759Y-90663233D01*
X93105767Y-90529241D01*
X93000487Y-90371679D01*
X93000486Y-90371678D01*
X92927969Y-90196605D01*
X92927968Y-90196603D01*
X92891000Y-90010750D01*
X92891000Y-89821250D01*
X92927968Y-89635397D01*
X92960125Y-89557763D01*
X93000486Y-89460322D01*
X93105766Y-89302761D01*
X93105767Y-89302759D01*
X93239759Y-89168767D01*
X93397321Y-89063487D01*
X93397322Y-89063486D01*
X93572395Y-88990969D01*
X93572394Y-88990969D01*
X93572397Y-88990968D01*
X93758250Y-88954000D01*
X93947750Y-88954000D01*
X94133603Y-88990968D01*
X94133603Y-88990968D01*
G37*
G36*
X73813603Y-88990968D02*
X73813606Y-88990969D01*
X73813605Y-88990969D01*
X73988678Y-89063486D01*
X73988679Y-89063487D01*
X74146241Y-89168767D01*
X74280233Y-89302759D01*
X74280234Y-89302761D01*
X74385514Y-89460322D01*
X74425875Y-89557763D01*
X74458032Y-89635397D01*
X74495000Y-89821250D01*
X74495000Y-90010750D01*
X74458032Y-90196603D01*
X74458031Y-90196605D01*
X74385514Y-90371678D01*
X74385513Y-90371679D01*
X74280233Y-90529241D01*
X74146241Y-90663233D01*
X74109878Y-90687530D01*
X73988678Y-90768514D01*
X73888161Y-90810149D01*
X73813603Y-90841032D01*
X73627750Y-90878000D01*
X73438250Y-90878000D01*
X73252397Y-90841032D01*
X73177839Y-90810149D01*
X73077322Y-90768514D01*
X72956122Y-90687530D01*
X72919759Y-90663233D01*
X72785767Y-90529241D01*
X72680487Y-90371679D01*
X72680486Y-90371678D01*
X72607969Y-90196605D01*
X72607968Y-90196603D01*
X72571000Y-90010750D01*
X72571000Y-89821250D01*
X72607968Y-89635397D01*
X72640125Y-89557763D01*
X72680486Y-89460322D01*
X72785766Y-89302761D01*
X72785767Y-89302759D01*
X72919759Y-89168767D01*
X73077321Y-89063487D01*
X73077322Y-89063486D01*
X73252395Y-88990969D01*
X73252394Y-88990969D01*
X73252397Y-88990968D01*
X73438250Y-88954000D01*
X73627750Y-88954000D01*
X73813603Y-88990968D01*
X73813603Y-88990968D01*
G37*
G36*
X65219000Y-90506000D02*
X61019000Y-90506000D01*
X61019000Y-88106000D01*
X65219000Y-88106000D01*
X65219000Y-90506000D01*
X65219000Y-90506000D01*
G37*
G36*
X145289707Y-88111597D02*
X145366836Y-88119193D01*
X145498787Y-88159220D01*
X145564763Y-88179233D01*
X145747172Y-88276733D01*
X145907054Y-88407946D01*
X146038267Y-88567828D01*
X146135767Y-88750237D01*
X146155780Y-88816213D01*
X146195807Y-88948164D01*
X146216080Y-89154000D01*
X146195807Y-89359836D01*
X146165726Y-89459000D01*
X146135767Y-89557763D01*
X146038267Y-89740172D01*
X145907054Y-89900054D01*
X145747172Y-90031267D01*
X145564763Y-90128767D01*
X145498787Y-90148780D01*
X145366836Y-90188807D01*
X145289707Y-90196403D01*
X145212580Y-90204000D01*
X145109420Y-90204000D01*
X145032293Y-90196403D01*
X144955164Y-90188807D01*
X144823213Y-90148780D01*
X144757237Y-90128767D01*
X144574828Y-90031267D01*
X144414946Y-89900054D01*
X144283733Y-89740172D01*
X144186233Y-89557763D01*
X144156274Y-89459000D01*
X144126193Y-89359836D01*
X144105920Y-89154000D01*
X144126193Y-88948164D01*
X144166220Y-88816213D01*
X144186233Y-88750237D01*
X144283733Y-88567828D01*
X144414946Y-88407946D01*
X144574828Y-88276733D01*
X144757237Y-88179233D01*
X144823213Y-88159220D01*
X144955164Y-88119193D01*
X145032293Y-88111597D01*
X145109420Y-88104000D01*
X145212580Y-88104000D01*
X145289707Y-88111597D01*
X145289707Y-88111597D01*
G37*
G36*
X69033530Y-87404877D02*
X69085010Y-87420493D01*
X69132442Y-87445846D01*
X69174027Y-87479973D01*
X69208154Y-87521558D01*
X69233507Y-87568990D01*
X69249123Y-87620470D01*
X69255000Y-87680140D01*
X69255000Y-88567860D01*
X69249123Y-88627530D01*
X69233507Y-88679010D01*
X69208154Y-88726442D01*
X69174027Y-88768027D01*
X69132442Y-88802154D01*
X69085010Y-88827507D01*
X69033530Y-88843123D01*
X68973860Y-88849000D01*
X68186140Y-88849000D01*
X68126470Y-88843123D01*
X68074990Y-88827507D01*
X68027558Y-88802154D01*
X67985973Y-88768027D01*
X67951846Y-88726442D01*
X67926493Y-88679010D01*
X67910877Y-88627530D01*
X67905000Y-88567860D01*
X67905000Y-87680140D01*
X67910877Y-87620470D01*
X67926493Y-87568990D01*
X67951846Y-87521558D01*
X67985973Y-87479973D01*
X68027558Y-87445846D01*
X68074990Y-87420493D01*
X68126470Y-87404877D01*
X68186140Y-87399000D01*
X68973860Y-87399000D01*
X69033530Y-87404877D01*
X69033530Y-87404877D01*
G37*
G36*
X73813603Y-86450968D02*
X73853266Y-86467397D01*
X73988678Y-86523486D01*
X73988679Y-86523487D01*
X74146241Y-86628767D01*
X74280233Y-86762759D01*
X74280234Y-86762761D01*
X74385514Y-86920322D01*
X74425875Y-87017763D01*
X74458032Y-87095397D01*
X74495000Y-87281250D01*
X74495000Y-87470750D01*
X74458032Y-87656603D01*
X74458031Y-87656605D01*
X74385514Y-87831678D01*
X74385513Y-87831679D01*
X74280233Y-87989241D01*
X74146241Y-88123233D01*
X74066923Y-88176232D01*
X73988678Y-88228514D01*
X73872266Y-88276733D01*
X73813603Y-88301032D01*
X73627750Y-88338000D01*
X73438250Y-88338000D01*
X73252397Y-88301032D01*
X73193734Y-88276733D01*
X73077322Y-88228514D01*
X72999077Y-88176232D01*
X72919759Y-88123233D01*
X72785767Y-87989241D01*
X72680487Y-87831679D01*
X72680486Y-87831678D01*
X72607969Y-87656605D01*
X72607968Y-87656603D01*
X72571000Y-87470750D01*
X72571000Y-87281250D01*
X72607968Y-87095397D01*
X72640125Y-87017763D01*
X72680486Y-86920322D01*
X72785766Y-86762761D01*
X72785767Y-86762759D01*
X72919759Y-86628767D01*
X73077321Y-86523487D01*
X73077322Y-86523486D01*
X73212734Y-86467397D01*
X73252397Y-86450968D01*
X73438250Y-86414000D01*
X73627750Y-86414000D01*
X73813603Y-86450968D01*
X73813603Y-86450968D01*
G37*
G36*
X94133603Y-86450968D02*
X94173266Y-86467397D01*
X94308678Y-86523486D01*
X94308679Y-86523487D01*
X94466241Y-86628767D01*
X94600233Y-86762759D01*
X94600234Y-86762761D01*
X94705514Y-86920322D01*
X94745875Y-87017763D01*
X94778032Y-87095397D01*
X94815000Y-87281250D01*
X94815000Y-87470750D01*
X94778032Y-87656603D01*
X94778031Y-87656605D01*
X94705514Y-87831678D01*
X94705513Y-87831679D01*
X94600233Y-87989241D01*
X94466241Y-88123233D01*
X94386923Y-88176232D01*
X94308678Y-88228514D01*
X94192266Y-88276733D01*
X94133603Y-88301032D01*
X93947750Y-88338000D01*
X93758250Y-88338000D01*
X93572397Y-88301032D01*
X93513734Y-88276733D01*
X93397322Y-88228514D01*
X93319077Y-88176232D01*
X93239759Y-88123233D01*
X93105767Y-87989241D01*
X93000487Y-87831679D01*
X93000486Y-87831678D01*
X92927969Y-87656605D01*
X92927968Y-87656603D01*
X92891000Y-87470750D01*
X92891000Y-87281250D01*
X92927968Y-87095397D01*
X92960125Y-87017763D01*
X93000486Y-86920322D01*
X93105766Y-86762761D01*
X93105767Y-86762759D01*
X93239759Y-86628767D01*
X93397321Y-86523487D01*
X93397322Y-86523486D01*
X93532734Y-86467397D01*
X93572397Y-86450968D01*
X93758250Y-86414000D01*
X93947750Y-86414000D01*
X94133603Y-86450968D01*
X94133603Y-86450968D01*
G37*
G36*
X128243000Y-79658000D02*
X128245402Y-79682386D01*
X128252515Y-79705835D01*
X128264066Y-79727446D01*
X128279612Y-79746388D01*
X128298554Y-79761934D01*
X128320165Y-79773485D01*
X128343614Y-79780598D01*
X128368000Y-79783000D01*
X130218000Y-79783000D01*
X130218000Y-86333000D01*
X128368000Y-86333000D01*
X128343614Y-86335402D01*
X128320165Y-86342515D01*
X128298554Y-86354066D01*
X128279612Y-86369612D01*
X128264066Y-86388554D01*
X128252515Y-86410165D01*
X128245402Y-86433614D01*
X128243000Y-86458000D01*
X128243000Y-88308000D01*
X121693000Y-88308000D01*
X121693000Y-86458000D01*
X121690598Y-86433614D01*
X121683485Y-86410165D01*
X121671934Y-86388554D01*
X121656388Y-86369612D01*
X121637446Y-86354066D01*
X121615835Y-86342515D01*
X121592386Y-86335402D01*
X121568000Y-86333000D01*
X119718000Y-86333000D01*
X119718000Y-79933000D01*
X121718000Y-79933000D01*
X121718000Y-86183000D01*
X121720402Y-86207386D01*
X121727515Y-86230835D01*
X121739066Y-86252446D01*
X121754612Y-86271388D01*
X121773554Y-86286934D01*
X121795165Y-86298485D01*
X121818614Y-86305598D01*
X121843000Y-86308000D01*
X128093000Y-86308000D01*
X128117386Y-86305598D01*
X128140835Y-86298485D01*
X128162446Y-86286934D01*
X128181388Y-86271388D01*
X128196934Y-86252446D01*
X128208485Y-86230835D01*
X128215598Y-86207386D01*
X128218000Y-86183000D01*
X128218000Y-79933000D01*
X128215598Y-79908614D01*
X128208485Y-79885165D01*
X128196934Y-79863554D01*
X128181388Y-79844612D01*
X128162446Y-79829066D01*
X128140835Y-79817515D01*
X128117386Y-79810402D01*
X128093000Y-79808000D01*
X121843000Y-79808000D01*
X121818614Y-79810402D01*
X121795165Y-79817515D01*
X121773554Y-79829066D01*
X121754612Y-79844612D01*
X121739066Y-79863554D01*
X121727515Y-79885165D01*
X121720402Y-79908614D01*
X121718000Y-79933000D01*
X119718000Y-79933000D01*
X119718000Y-79783000D01*
X121568000Y-79783000D01*
X121592386Y-79780598D01*
X121615835Y-79773485D01*
X121637446Y-79761934D01*
X121656388Y-79746388D01*
X121671934Y-79727446D01*
X121683485Y-79705835D01*
X121690598Y-79682386D01*
X121693000Y-79658000D01*
X121693000Y-77808000D01*
X128243000Y-77808000D01*
X128243000Y-79658000D01*
X128243000Y-79658000D01*
G37*
G36*
X145289707Y-85571596D02*
X145366836Y-85579193D01*
X145484477Y-85614879D01*
X145564763Y-85639233D01*
X145747172Y-85736733D01*
X145907054Y-85867946D01*
X146038267Y-86027828D01*
X146135767Y-86210237D01*
X146154317Y-86271388D01*
X146195807Y-86408164D01*
X146216080Y-86614000D01*
X146195807Y-86819836D01*
X146156624Y-86949005D01*
X146135767Y-87017763D01*
X146038267Y-87200172D01*
X145907054Y-87360054D01*
X145747172Y-87491267D01*
X145564763Y-87588767D01*
X145503522Y-87607344D01*
X145366836Y-87648807D01*
X145289707Y-87656403D01*
X145212580Y-87664000D01*
X145109420Y-87664000D01*
X145032293Y-87656403D01*
X144955164Y-87648807D01*
X144818478Y-87607344D01*
X144757237Y-87588767D01*
X144574828Y-87491267D01*
X144414946Y-87360054D01*
X144283733Y-87200172D01*
X144186233Y-87017763D01*
X144165376Y-86949005D01*
X144126193Y-86819836D01*
X144105920Y-86614000D01*
X144126193Y-86408164D01*
X144167683Y-86271388D01*
X144186233Y-86210237D01*
X144283733Y-86027828D01*
X144414946Y-85867946D01*
X144574828Y-85736733D01*
X144757237Y-85639233D01*
X144837523Y-85614879D01*
X144955164Y-85579193D01*
X145032293Y-85571596D01*
X145109420Y-85564000D01*
X145212580Y-85564000D01*
X145289707Y-85571596D01*
X145289707Y-85571596D01*
G37*
G36*
X69033530Y-85654877D02*
X69085010Y-85670493D01*
X69132442Y-85695846D01*
X69174027Y-85729973D01*
X69208154Y-85771558D01*
X69233507Y-85818990D01*
X69249123Y-85870470D01*
X69255000Y-85930140D01*
X69255000Y-86817860D01*
X69249123Y-86877530D01*
X69233507Y-86929010D01*
X69208154Y-86976442D01*
X69174027Y-87018027D01*
X69132442Y-87052154D01*
X69085010Y-87077507D01*
X69033530Y-87093123D01*
X68973860Y-87099000D01*
X68186140Y-87099000D01*
X68126470Y-87093123D01*
X68074990Y-87077507D01*
X68027558Y-87052154D01*
X67985973Y-87018027D01*
X67951846Y-86976442D01*
X67926493Y-86929010D01*
X67910877Y-86877530D01*
X67905000Y-86817860D01*
X67905000Y-85930140D01*
X67910877Y-85870470D01*
X67926493Y-85818990D01*
X67951846Y-85771558D01*
X67985973Y-85729973D01*
X68027558Y-85695846D01*
X68074990Y-85670493D01*
X68126470Y-85654877D01*
X68186140Y-85649000D01*
X68973860Y-85649000D01*
X69033530Y-85654877D01*
X69033530Y-85654877D01*
G37*
G36*
X62211530Y-85563877D02*
X62263010Y-85579493D01*
X62310442Y-85604846D01*
X62352027Y-85638973D01*
X62386154Y-85680558D01*
X62411507Y-85727990D01*
X62427123Y-85779470D01*
X62433000Y-85839140D01*
X62433000Y-86626860D01*
X62427123Y-86686530D01*
X62411507Y-86738010D01*
X62386154Y-86785442D01*
X62352027Y-86827027D01*
X62310442Y-86861154D01*
X62263010Y-86886507D01*
X62211530Y-86902123D01*
X62151860Y-86908000D01*
X61264140Y-86908000D01*
X61204470Y-86902123D01*
X61152990Y-86886507D01*
X61105558Y-86861154D01*
X61063973Y-86827027D01*
X61029846Y-86785442D01*
X61004493Y-86738010D01*
X60988877Y-86686530D01*
X60983000Y-86626860D01*
X60983000Y-85839140D01*
X60988877Y-85779470D01*
X61004493Y-85727990D01*
X61029846Y-85680558D01*
X61063973Y-85638973D01*
X61105558Y-85604846D01*
X61152990Y-85579493D01*
X61204470Y-85563877D01*
X61264140Y-85558000D01*
X62151860Y-85558000D01*
X62211530Y-85563877D01*
X62211530Y-85563877D01*
G37*
G36*
X60461530Y-85563877D02*
X60513010Y-85579493D01*
X60560442Y-85604846D01*
X60602027Y-85638973D01*
X60636154Y-85680558D01*
X60661507Y-85727990D01*
X60677123Y-85779470D01*
X60683000Y-85839140D01*
X60683000Y-86626860D01*
X60677123Y-86686530D01*
X60661507Y-86738010D01*
X60636154Y-86785442D01*
X60602027Y-86827027D01*
X60560442Y-86861154D01*
X60513010Y-86886507D01*
X60461530Y-86902123D01*
X60401860Y-86908000D01*
X59514140Y-86908000D01*
X59454470Y-86902123D01*
X59402990Y-86886507D01*
X59355558Y-86861154D01*
X59313973Y-86827027D01*
X59279846Y-86785442D01*
X59254493Y-86738010D01*
X59238877Y-86686530D01*
X59233000Y-86626860D01*
X59233000Y-85839140D01*
X59238877Y-85779470D01*
X59254493Y-85727990D01*
X59279846Y-85680558D01*
X59313973Y-85638973D01*
X59355558Y-85604846D01*
X59402990Y-85579493D01*
X59454470Y-85563877D01*
X59514140Y-85558000D01*
X60401860Y-85558000D01*
X60461530Y-85563877D01*
X60461530Y-85563877D01*
G37*
G36*
X141550530Y-84864877D02*
X141602010Y-84880493D01*
X141649442Y-84905846D01*
X141691027Y-84939973D01*
X141725154Y-84981558D01*
X141750507Y-85028990D01*
X141766123Y-85080470D01*
X141772000Y-85140140D01*
X141772000Y-86027860D01*
X141766123Y-86087530D01*
X141750507Y-86139010D01*
X141725154Y-86186442D01*
X141691027Y-86228027D01*
X141649442Y-86262154D01*
X141602010Y-86287507D01*
X141550530Y-86303123D01*
X141490860Y-86309000D01*
X140703140Y-86309000D01*
X140643470Y-86303123D01*
X140591990Y-86287507D01*
X140544558Y-86262154D01*
X140502973Y-86228027D01*
X140468846Y-86186442D01*
X140443493Y-86139010D01*
X140427877Y-86087530D01*
X140422000Y-86027860D01*
X140422000Y-85140140D01*
X140427877Y-85080470D01*
X140443493Y-85028990D01*
X140468846Y-84981558D01*
X140502973Y-84939973D01*
X140544558Y-84905846D01*
X140591990Y-84880493D01*
X140643470Y-84864877D01*
X140703140Y-84859000D01*
X141490860Y-84859000D01*
X141550530Y-84864877D01*
X141550530Y-84864877D01*
G37*
G36*
X94133603Y-83910968D02*
X94133606Y-83910969D01*
X94133605Y-83910969D01*
X94308678Y-83983486D01*
X94308679Y-83983487D01*
X94466241Y-84088767D01*
X94600233Y-84222759D01*
X94600234Y-84222761D01*
X94705514Y-84380322D01*
X94745875Y-84477763D01*
X94778032Y-84555397D01*
X94815000Y-84741250D01*
X94815000Y-84930750D01*
X94778032Y-85116603D01*
X94778031Y-85116605D01*
X94705514Y-85291678D01*
X94705513Y-85291679D01*
X94600233Y-85449241D01*
X94466241Y-85583233D01*
X94386923Y-85636232D01*
X94308678Y-85688514D01*
X94208586Y-85729973D01*
X94133603Y-85761032D01*
X93947750Y-85798000D01*
X93758250Y-85798000D01*
X93572397Y-85761032D01*
X93497414Y-85729973D01*
X93397322Y-85688514D01*
X93319077Y-85636232D01*
X93239759Y-85583233D01*
X93105767Y-85449241D01*
X93000487Y-85291679D01*
X93000486Y-85291678D01*
X92927969Y-85116605D01*
X92927968Y-85116603D01*
X92891000Y-84930750D01*
X92891000Y-84741250D01*
X92927968Y-84555397D01*
X92960125Y-84477763D01*
X93000486Y-84380322D01*
X93105766Y-84222761D01*
X93105767Y-84222759D01*
X93239759Y-84088767D01*
X93397321Y-83983487D01*
X93397322Y-83983486D01*
X93572395Y-83910969D01*
X93572394Y-83910969D01*
X93572397Y-83910968D01*
X93758250Y-83874000D01*
X93947750Y-83874000D01*
X94133603Y-83910968D01*
X94133603Y-83910968D01*
G37*
G36*
X73813603Y-83910968D02*
X73813606Y-83910969D01*
X73813605Y-83910969D01*
X73988678Y-83983486D01*
X73988679Y-83983487D01*
X74146241Y-84088767D01*
X74280233Y-84222759D01*
X74280234Y-84222761D01*
X74385514Y-84380322D01*
X74425875Y-84477763D01*
X74458032Y-84555397D01*
X74495000Y-84741250D01*
X74495000Y-84930750D01*
X74458032Y-85116603D01*
X74458031Y-85116605D01*
X74385514Y-85291678D01*
X74385513Y-85291679D01*
X74280233Y-85449241D01*
X74146241Y-85583233D01*
X74066923Y-85636232D01*
X73988678Y-85688514D01*
X73888586Y-85729973D01*
X73813603Y-85761032D01*
X73627750Y-85798000D01*
X73438250Y-85798000D01*
X73252397Y-85761032D01*
X73177414Y-85729973D01*
X73077322Y-85688514D01*
X72999077Y-85636232D01*
X72919759Y-85583233D01*
X72785767Y-85449241D01*
X72680487Y-85291679D01*
X72680486Y-85291678D01*
X72607969Y-85116605D01*
X72607968Y-85116603D01*
X72571000Y-84930750D01*
X72571000Y-84741250D01*
X72607968Y-84555397D01*
X72640125Y-84477763D01*
X72680486Y-84380322D01*
X72785766Y-84222761D01*
X72785767Y-84222759D01*
X72919759Y-84088767D01*
X73077321Y-83983487D01*
X73077322Y-83983486D01*
X73252395Y-83910969D01*
X73252394Y-83910969D01*
X73252397Y-83910968D01*
X73438250Y-83874000D01*
X73627750Y-83874000D01*
X73813603Y-83910968D01*
X73813603Y-83910968D01*
G37*
G36*
X145289707Y-83031597D02*
X145366836Y-83039193D01*
X145498787Y-83079220D01*
X145564763Y-83099233D01*
X145747172Y-83196733D01*
X145907054Y-83327946D01*
X146038267Y-83487828D01*
X146135767Y-83670237D01*
X146135767Y-83670238D01*
X146195807Y-83868164D01*
X146216080Y-84074000D01*
X146195807Y-84279836D01*
X146156624Y-84409005D01*
X146135767Y-84477763D01*
X146038267Y-84660172D01*
X145907054Y-84820054D01*
X145747172Y-84951267D01*
X145564763Y-85048767D01*
X145503522Y-85067344D01*
X145366836Y-85108807D01*
X145289707Y-85116404D01*
X145212580Y-85124000D01*
X145109420Y-85124000D01*
X145032293Y-85116404D01*
X144955164Y-85108807D01*
X144818478Y-85067344D01*
X144757237Y-85048767D01*
X144574828Y-84951267D01*
X144414946Y-84820054D01*
X144283733Y-84660172D01*
X144186233Y-84477763D01*
X144165376Y-84409005D01*
X144126193Y-84279836D01*
X144105920Y-84074000D01*
X144126193Y-83868164D01*
X144186233Y-83670238D01*
X144186233Y-83670237D01*
X144283733Y-83487828D01*
X144414946Y-83327946D01*
X144574828Y-83196733D01*
X144757237Y-83099233D01*
X144823213Y-83079220D01*
X144955164Y-83039193D01*
X145032293Y-83031597D01*
X145109420Y-83024000D01*
X145212580Y-83024000D01*
X145289707Y-83031597D01*
X145289707Y-83031597D01*
G37*
G36*
X141550530Y-83114877D02*
X141602010Y-83130493D01*
X141649442Y-83155846D01*
X141691027Y-83189973D01*
X141725154Y-83231558D01*
X141750507Y-83278990D01*
X141766123Y-83330470D01*
X141772000Y-83390140D01*
X141772000Y-84277860D01*
X141766123Y-84337530D01*
X141750507Y-84389010D01*
X141725154Y-84436442D01*
X141691027Y-84478027D01*
X141649442Y-84512154D01*
X141602010Y-84537507D01*
X141550530Y-84553123D01*
X141490860Y-84559000D01*
X140703140Y-84559000D01*
X140643470Y-84553123D01*
X140591990Y-84537507D01*
X140544558Y-84512154D01*
X140502973Y-84478027D01*
X140468846Y-84436442D01*
X140443493Y-84389010D01*
X140427877Y-84337530D01*
X140422000Y-84277860D01*
X140422000Y-83390140D01*
X140427877Y-83330470D01*
X140443493Y-83278990D01*
X140468846Y-83231558D01*
X140502973Y-83189973D01*
X140544558Y-83155846D01*
X140591990Y-83130493D01*
X140643470Y-83114877D01*
X140703140Y-83109000D01*
X141490860Y-83109000D01*
X141550530Y-83114877D01*
X141550530Y-83114877D01*
G37*
G36*
X73813603Y-81370968D02*
X73813606Y-81370969D01*
X73813605Y-81370969D01*
X73988678Y-81443486D01*
X73988679Y-81443487D01*
X74146241Y-81548767D01*
X74280233Y-81682759D01*
X74280234Y-81682761D01*
X74385514Y-81840322D01*
X74425875Y-81937763D01*
X74458032Y-82015397D01*
X74495000Y-82201250D01*
X74495000Y-82390750D01*
X74458032Y-82576603D01*
X74458031Y-82576605D01*
X74385514Y-82751678D01*
X74385513Y-82751679D01*
X74280233Y-82909241D01*
X74146241Y-83043233D01*
X74066923Y-83096232D01*
X73988678Y-83148514D01*
X73888586Y-83189973D01*
X73813603Y-83221032D01*
X73627750Y-83258000D01*
X73438250Y-83258000D01*
X73252397Y-83221032D01*
X73177414Y-83189973D01*
X73077322Y-83148514D01*
X72999077Y-83096232D01*
X72919759Y-83043233D01*
X72785767Y-82909241D01*
X72680487Y-82751679D01*
X72680486Y-82751678D01*
X72607969Y-82576605D01*
X72607968Y-82576603D01*
X72571000Y-82390750D01*
X72571000Y-82201250D01*
X72607968Y-82015397D01*
X72640125Y-81937763D01*
X72680486Y-81840322D01*
X72785766Y-81682761D01*
X72785767Y-81682759D01*
X72919759Y-81548767D01*
X73077321Y-81443487D01*
X73077322Y-81443486D01*
X73252395Y-81370969D01*
X73252394Y-81370969D01*
X73252397Y-81370968D01*
X73438250Y-81334000D01*
X73627750Y-81334000D01*
X73813603Y-81370968D01*
X73813603Y-81370968D01*
G37*
G36*
X94133603Y-81370968D02*
X94133606Y-81370969D01*
X94133605Y-81370969D01*
X94308678Y-81443486D01*
X94308679Y-81443487D01*
X94466241Y-81548767D01*
X94600233Y-81682759D01*
X94600234Y-81682761D01*
X94705514Y-81840322D01*
X94745875Y-81937763D01*
X94778032Y-82015397D01*
X94815000Y-82201250D01*
X94815000Y-82390750D01*
X94778032Y-82576603D01*
X94778031Y-82576605D01*
X94705514Y-82751678D01*
X94705513Y-82751679D01*
X94600233Y-82909241D01*
X94466241Y-83043233D01*
X94386923Y-83096232D01*
X94308678Y-83148514D01*
X94208586Y-83189973D01*
X94133603Y-83221032D01*
X93947750Y-83258000D01*
X93758250Y-83258000D01*
X93572397Y-83221032D01*
X93497414Y-83189973D01*
X93397322Y-83148514D01*
X93319077Y-83096232D01*
X93239759Y-83043233D01*
X93105767Y-82909241D01*
X93000487Y-82751679D01*
X93000486Y-82751678D01*
X92927969Y-82576605D01*
X92927968Y-82576603D01*
X92891000Y-82390750D01*
X92891000Y-82201250D01*
X92927968Y-82015397D01*
X92960125Y-81937763D01*
X93000486Y-81840322D01*
X93105766Y-81682761D01*
X93105767Y-81682759D01*
X93239759Y-81548767D01*
X93397321Y-81443487D01*
X93397322Y-81443486D01*
X93572395Y-81370969D01*
X93572394Y-81370969D01*
X93572397Y-81370968D01*
X93758250Y-81334000D01*
X93947750Y-81334000D01*
X94133603Y-81370968D01*
X94133603Y-81370968D01*
G37*
G36*
X145289707Y-80491596D02*
X145366836Y-80499193D01*
X145498787Y-80539220D01*
X145564763Y-80559233D01*
X145747172Y-80656733D01*
X145907054Y-80787946D01*
X146038267Y-80947828D01*
X146135767Y-81130237D01*
X146135767Y-81130238D01*
X146195807Y-81328164D01*
X146216080Y-81534000D01*
X146195807Y-81739836D01*
X146165325Y-81840321D01*
X146135767Y-81937763D01*
X146038267Y-82120172D01*
X145907054Y-82280054D01*
X145747172Y-82411267D01*
X145564763Y-82508767D01*
X145498787Y-82528780D01*
X145366836Y-82568807D01*
X145289707Y-82576403D01*
X145212580Y-82584000D01*
X145109420Y-82584000D01*
X145032293Y-82576403D01*
X144955164Y-82568807D01*
X144823213Y-82528780D01*
X144757237Y-82508767D01*
X144574828Y-82411267D01*
X144414946Y-82280054D01*
X144283733Y-82120172D01*
X144186233Y-81937763D01*
X144156675Y-81840321D01*
X144126193Y-81739836D01*
X144105920Y-81534000D01*
X144126193Y-81328164D01*
X144186233Y-81130238D01*
X144186233Y-81130237D01*
X144283733Y-80947828D01*
X144414946Y-80787946D01*
X144574828Y-80656733D01*
X144757237Y-80559233D01*
X144823213Y-80539220D01*
X144955164Y-80499193D01*
X145032293Y-80491596D01*
X145109420Y-80484000D01*
X145212580Y-80484000D01*
X145289707Y-80491596D01*
X145289707Y-80491596D01*
G37*
G36*
X67513631Y-80185291D02*
X67556025Y-80198151D01*
X67595089Y-80219031D01*
X67629329Y-80247131D01*
X67657429Y-80281371D01*
X67678309Y-80320435D01*
X67691169Y-80362829D01*
X67696115Y-80413047D01*
X67696115Y-81947643D01*
X67691169Y-81997861D01*
X67678309Y-82040255D01*
X67657429Y-82079319D01*
X67629329Y-82113559D01*
X67595089Y-82141659D01*
X67556025Y-82162539D01*
X67513631Y-82175399D01*
X67463413Y-82180345D01*
X64028817Y-82180345D01*
X63978599Y-82175399D01*
X63936205Y-82162539D01*
X63897141Y-82141659D01*
X63862901Y-82113559D01*
X63834801Y-82079319D01*
X63813921Y-82040255D01*
X63801061Y-81997861D01*
X63796115Y-81947643D01*
X63796115Y-80413047D01*
X63801061Y-80362829D01*
X63813921Y-80320435D01*
X63834801Y-80281371D01*
X63862901Y-80247131D01*
X63897141Y-80219031D01*
X63936205Y-80198151D01*
X63978599Y-80185291D01*
X64028817Y-80180345D01*
X67463413Y-80180345D01*
X67513631Y-80185291D01*
X67513631Y-80185291D01*
G37*
G36*
X62113631Y-80185291D02*
X62156025Y-80198151D01*
X62195089Y-80219031D01*
X62229329Y-80247131D01*
X62257429Y-80281371D01*
X62278309Y-80320435D01*
X62291169Y-80362829D01*
X62296115Y-80413047D01*
X62296115Y-81947643D01*
X62291169Y-81997861D01*
X62278309Y-82040255D01*
X62257429Y-82079319D01*
X62229329Y-82113559D01*
X62195089Y-82141659D01*
X62156025Y-82162539D01*
X62113631Y-82175399D01*
X62063413Y-82180345D01*
X58628817Y-82180345D01*
X58578599Y-82175399D01*
X58536205Y-82162539D01*
X58497141Y-82141659D01*
X58462901Y-82113559D01*
X58434801Y-82079319D01*
X58413921Y-82040255D01*
X58401061Y-81997861D01*
X58396115Y-81947643D01*
X58396115Y-80413047D01*
X58401061Y-80362829D01*
X58413921Y-80320435D01*
X58434801Y-80281371D01*
X58462901Y-80247131D01*
X58497141Y-80219031D01*
X58536205Y-80198151D01*
X58578599Y-80185291D01*
X58628817Y-80180345D01*
X62063413Y-80180345D01*
X62113631Y-80185291D01*
X62113631Y-80185291D01*
G37*
G36*
X73813603Y-78830968D02*
X73813606Y-78830969D01*
X73813605Y-78830969D01*
X73988678Y-78903486D01*
X73988679Y-78903487D01*
X74146241Y-79008767D01*
X74280233Y-79142759D01*
X74280234Y-79142761D01*
X74385514Y-79300322D01*
X74425875Y-79397763D01*
X74458032Y-79475397D01*
X74495000Y-79661250D01*
X74495000Y-79850750D01*
X74458032Y-80036603D01*
X74458031Y-80036605D01*
X74385514Y-80211678D01*
X74361825Y-80247131D01*
X74280233Y-80369241D01*
X74146241Y-80503233D01*
X74066923Y-80556232D01*
X73988678Y-80608514D01*
X73872266Y-80656733D01*
X73813603Y-80681032D01*
X73627750Y-80718000D01*
X73438250Y-80718000D01*
X73252397Y-80681032D01*
X73193734Y-80656733D01*
X73077322Y-80608514D01*
X72999077Y-80556232D01*
X72919759Y-80503233D01*
X72785767Y-80369241D01*
X72704175Y-80247131D01*
X72680486Y-80211678D01*
X72607969Y-80036605D01*
X72607968Y-80036603D01*
X72571000Y-79850750D01*
X72571000Y-79661250D01*
X72607968Y-79475397D01*
X72640125Y-79397763D01*
X72680486Y-79300322D01*
X72785766Y-79142761D01*
X72785767Y-79142759D01*
X72919759Y-79008767D01*
X73077321Y-78903487D01*
X73077322Y-78903486D01*
X73252395Y-78830969D01*
X73252394Y-78830969D01*
X73252397Y-78830968D01*
X73438250Y-78794000D01*
X73627750Y-78794000D01*
X73813603Y-78830968D01*
X73813603Y-78830968D01*
G37*
G36*
X94133603Y-78830968D02*
X94133606Y-78830969D01*
X94133605Y-78830969D01*
X94308678Y-78903486D01*
X94308679Y-78903487D01*
X94466241Y-79008767D01*
X94600233Y-79142759D01*
X94600234Y-79142761D01*
X94705514Y-79300322D01*
X94745875Y-79397763D01*
X94778032Y-79475397D01*
X94815000Y-79661250D01*
X94815000Y-79850750D01*
X94778032Y-80036603D01*
X94778031Y-80036605D01*
X94705514Y-80211678D01*
X94681825Y-80247131D01*
X94600233Y-80369241D01*
X94466241Y-80503233D01*
X94386923Y-80556232D01*
X94308678Y-80608514D01*
X94192266Y-80656733D01*
X94133603Y-80681032D01*
X93947750Y-80718000D01*
X93758250Y-80718000D01*
X93572397Y-80681032D01*
X93513734Y-80656733D01*
X93397322Y-80608514D01*
X93319077Y-80556232D01*
X93239759Y-80503233D01*
X93105767Y-80369241D01*
X93024175Y-80247131D01*
X93000486Y-80211678D01*
X92927969Y-80036605D01*
X92927968Y-80036603D01*
X92891000Y-79850750D01*
X92891000Y-79661250D01*
X92927968Y-79475397D01*
X92960125Y-79397763D01*
X93000486Y-79300322D01*
X93105766Y-79142761D01*
X93105767Y-79142759D01*
X93239759Y-79008767D01*
X93397321Y-78903487D01*
X93397322Y-78903486D01*
X93572395Y-78830969D01*
X93572394Y-78830969D01*
X93572397Y-78830968D01*
X93758250Y-78794000D01*
X93947750Y-78794000D01*
X94133603Y-78830968D01*
X94133603Y-78830968D01*
G37*
G36*
X145289707Y-77951597D02*
X145366836Y-77959193D01*
X145498787Y-77999220D01*
X145564763Y-78019233D01*
X145747172Y-78116733D01*
X145907054Y-78247946D01*
X146038267Y-78407828D01*
X146135767Y-78590237D01*
X146135767Y-78590238D01*
X146195807Y-78788164D01*
X146216080Y-78994000D01*
X146195807Y-79199836D01*
X146165325Y-79300321D01*
X146135767Y-79397763D01*
X146038267Y-79580172D01*
X145907054Y-79740054D01*
X145747172Y-79871267D01*
X145564763Y-79968767D01*
X145498787Y-79988780D01*
X145366836Y-80028807D01*
X145289707Y-80036404D01*
X145212580Y-80044000D01*
X145109420Y-80044000D01*
X145032293Y-80036404D01*
X144955164Y-80028807D01*
X144823213Y-79988780D01*
X144757237Y-79968767D01*
X144574828Y-79871267D01*
X144414946Y-79740054D01*
X144283733Y-79580172D01*
X144186233Y-79397763D01*
X144156675Y-79300321D01*
X144126193Y-79199836D01*
X144105920Y-78994000D01*
X144126193Y-78788164D01*
X144186233Y-78590238D01*
X144186233Y-78590237D01*
X144283733Y-78407828D01*
X144414946Y-78247946D01*
X144574828Y-78116733D01*
X144757237Y-78019233D01*
X144823213Y-77999220D01*
X144955164Y-77959193D01*
X145032293Y-77951597D01*
X145109420Y-77944000D01*
X145212580Y-77944000D01*
X145289707Y-77951597D01*
X145289707Y-77951597D01*
G37*
G36*
X73813603Y-76290968D02*
X73813606Y-76290969D01*
X73813605Y-76290969D01*
X73988678Y-76363486D01*
X73988679Y-76363487D01*
X74146241Y-76468767D01*
X74280233Y-76602759D01*
X74280234Y-76602761D01*
X74385514Y-76760322D01*
X74441603Y-76895734D01*
X74458032Y-76935397D01*
X74495000Y-77121250D01*
X74495000Y-77310750D01*
X74458032Y-77496603D01*
X74458031Y-77496605D01*
X74385514Y-77671678D01*
X74385513Y-77671679D01*
X74280233Y-77829241D01*
X74146241Y-77963233D01*
X74066923Y-78016232D01*
X73988678Y-78068514D01*
X73872266Y-78116733D01*
X73813603Y-78141032D01*
X73627750Y-78178000D01*
X73438250Y-78178000D01*
X73252397Y-78141032D01*
X73193734Y-78116733D01*
X73077322Y-78068514D01*
X72999077Y-78016232D01*
X72919759Y-77963233D01*
X72785767Y-77829241D01*
X72680487Y-77671679D01*
X72680486Y-77671678D01*
X72607969Y-77496605D01*
X72607968Y-77496603D01*
X72571000Y-77310750D01*
X72571000Y-77121250D01*
X72607968Y-76935397D01*
X72624397Y-76895734D01*
X72680486Y-76760322D01*
X72785766Y-76602761D01*
X72785767Y-76602759D01*
X72919759Y-76468767D01*
X73077321Y-76363487D01*
X73077322Y-76363486D01*
X73252395Y-76290969D01*
X73252394Y-76290969D01*
X73252397Y-76290968D01*
X73438250Y-76254000D01*
X73627750Y-76254000D01*
X73813603Y-76290968D01*
X73813603Y-76290968D01*
G37*
G36*
X94133603Y-76290968D02*
X94133606Y-76290969D01*
X94133605Y-76290969D01*
X94308678Y-76363486D01*
X94308679Y-76363487D01*
X94466241Y-76468767D01*
X94600233Y-76602759D01*
X94600234Y-76602761D01*
X94705514Y-76760322D01*
X94761603Y-76895734D01*
X94778032Y-76935397D01*
X94815000Y-77121250D01*
X94815000Y-77310750D01*
X94778032Y-77496603D01*
X94778031Y-77496605D01*
X94705514Y-77671678D01*
X94705513Y-77671679D01*
X94600233Y-77829241D01*
X94466241Y-77963233D01*
X94386923Y-78016232D01*
X94308678Y-78068514D01*
X94192266Y-78116733D01*
X94133603Y-78141032D01*
X93947750Y-78178000D01*
X93758250Y-78178000D01*
X93572397Y-78141032D01*
X93513734Y-78116733D01*
X93397322Y-78068514D01*
X93319077Y-78016232D01*
X93239759Y-77963233D01*
X93105767Y-77829241D01*
X93000487Y-77671679D01*
X93000486Y-77671678D01*
X92927969Y-77496605D01*
X92927968Y-77496603D01*
X92891000Y-77310750D01*
X92891000Y-77121250D01*
X92927968Y-76935397D01*
X92944397Y-76895734D01*
X93000486Y-76760322D01*
X93105766Y-76602761D01*
X93105767Y-76602759D01*
X93239759Y-76468767D01*
X93397321Y-76363487D01*
X93397322Y-76363486D01*
X93572395Y-76290969D01*
X93572394Y-76290969D01*
X93572397Y-76290968D01*
X93758250Y-76254000D01*
X93947750Y-76254000D01*
X94133603Y-76290968D01*
X94133603Y-76290968D01*
G37*
G36*
X146211000Y-77504000D02*
X144111000Y-77504000D01*
X144111000Y-75404000D01*
X146211000Y-75404000D01*
X146211000Y-77504000D01*
X146211000Y-77504000D01*
G37*
G36*
X125040530Y-74958877D02*
X125092010Y-74974493D01*
X125139442Y-74999846D01*
X125181027Y-75033973D01*
X125215154Y-75075558D01*
X125240507Y-75122990D01*
X125256123Y-75174470D01*
X125262000Y-75234140D01*
X125262000Y-76121860D01*
X125256123Y-76181530D01*
X125240507Y-76233010D01*
X125215154Y-76280442D01*
X125181027Y-76322027D01*
X125139442Y-76356154D01*
X125092010Y-76381507D01*
X125040530Y-76397123D01*
X124980860Y-76403000D01*
X124193140Y-76403000D01*
X124133470Y-76397123D01*
X124081990Y-76381507D01*
X124034558Y-76356154D01*
X123992973Y-76322027D01*
X123958846Y-76280442D01*
X123933493Y-76233010D01*
X123917877Y-76181530D01*
X123912000Y-76121860D01*
X123912000Y-75234140D01*
X123917877Y-75174470D01*
X123933493Y-75122990D01*
X123958846Y-75075558D01*
X123992973Y-75033973D01*
X124034558Y-74999846D01*
X124081990Y-74974493D01*
X124133470Y-74958877D01*
X124193140Y-74953000D01*
X124980860Y-74953000D01*
X125040530Y-74958877D01*
X125040530Y-74958877D01*
G37*
G36*
X126818530Y-74958877D02*
X126870010Y-74974493D01*
X126917442Y-74999846D01*
X126959027Y-75033973D01*
X126993154Y-75075558D01*
X127018507Y-75122990D01*
X127034123Y-75174470D01*
X127040000Y-75234140D01*
X127040000Y-76121860D01*
X127034123Y-76181530D01*
X127018507Y-76233010D01*
X126993154Y-76280442D01*
X126959027Y-76322027D01*
X126917442Y-76356154D01*
X126870010Y-76381507D01*
X126818530Y-76397123D01*
X126758860Y-76403000D01*
X125971140Y-76403000D01*
X125911470Y-76397123D01*
X125859990Y-76381507D01*
X125812558Y-76356154D01*
X125770973Y-76322027D01*
X125736846Y-76280442D01*
X125711493Y-76233010D01*
X125695877Y-76181530D01*
X125690000Y-76121860D01*
X125690000Y-75234140D01*
X125695877Y-75174470D01*
X125711493Y-75122990D01*
X125736846Y-75075558D01*
X125770973Y-75033973D01*
X125812558Y-74999846D01*
X125859990Y-74974493D01*
X125911470Y-74958877D01*
X125971140Y-74953000D01*
X126758860Y-74953000D01*
X126818530Y-74958877D01*
X126818530Y-74958877D01*
G37*
G36*
X94133603Y-73750968D02*
X94133606Y-73750969D01*
X94133605Y-73750969D01*
X94308678Y-73823486D01*
X94308679Y-73823487D01*
X94466241Y-73928767D01*
X94600233Y-74062759D01*
X94600234Y-74062761D01*
X94705514Y-74220322D01*
X94744938Y-74315500D01*
X94778032Y-74395397D01*
X94815000Y-74581250D01*
X94815000Y-74770750D01*
X94778032Y-74956603D01*
X94778031Y-74956605D01*
X94705514Y-75131678D01*
X94676921Y-75174470D01*
X94600233Y-75289241D01*
X94466241Y-75423233D01*
X94386923Y-75476232D01*
X94308678Y-75528514D01*
X94173266Y-75584603D01*
X94133603Y-75601032D01*
X93947750Y-75638000D01*
X93758250Y-75638000D01*
X93572397Y-75601032D01*
X93532734Y-75584603D01*
X93397322Y-75528514D01*
X93319077Y-75476232D01*
X93239759Y-75423233D01*
X93105767Y-75289241D01*
X93029079Y-75174470D01*
X93000486Y-75131678D01*
X92927969Y-74956605D01*
X92927968Y-74956603D01*
X92891000Y-74770750D01*
X92891000Y-74581250D01*
X92927968Y-74395397D01*
X92961062Y-74315500D01*
X93000486Y-74220322D01*
X93105766Y-74062761D01*
X93105767Y-74062759D01*
X93239759Y-73928767D01*
X93397321Y-73823487D01*
X93397322Y-73823486D01*
X93572395Y-73750969D01*
X93572394Y-73750969D01*
X93572397Y-73750968D01*
X93758250Y-73714000D01*
X93947750Y-73714000D01*
X94133603Y-73750968D01*
X94133603Y-73750968D01*
G37*
G36*
X73813603Y-73750968D02*
X73813606Y-73750969D01*
X73813605Y-73750969D01*
X73988678Y-73823486D01*
X73988679Y-73823487D01*
X74146241Y-73928767D01*
X74280233Y-74062759D01*
X74280234Y-74062761D01*
X74385514Y-74220322D01*
X74424938Y-74315500D01*
X74458032Y-74395397D01*
X74495000Y-74581250D01*
X74495000Y-74770750D01*
X74458032Y-74956603D01*
X74458031Y-74956605D01*
X74385514Y-75131678D01*
X74356921Y-75174470D01*
X74280233Y-75289241D01*
X74146241Y-75423233D01*
X74066923Y-75476232D01*
X73988678Y-75528514D01*
X73853266Y-75584603D01*
X73813603Y-75601032D01*
X73627750Y-75638000D01*
X73438250Y-75638000D01*
X73252397Y-75601032D01*
X73212734Y-75584603D01*
X73077322Y-75528514D01*
X72999077Y-75476232D01*
X72919759Y-75423233D01*
X72785767Y-75289241D01*
X72709079Y-75174470D01*
X72680486Y-75131678D01*
X72607969Y-74956605D01*
X72607968Y-74956603D01*
X72571000Y-74770750D01*
X72571000Y-74581250D01*
X72607968Y-74395397D01*
X72641062Y-74315500D01*
X72680486Y-74220322D01*
X72785766Y-74062761D01*
X72785767Y-74062759D01*
X72919759Y-73928767D01*
X73077321Y-73823487D01*
X73077322Y-73823486D01*
X73252395Y-73750969D01*
X73252394Y-73750969D01*
X73252397Y-73750968D01*
X73438250Y-73714000D01*
X73627750Y-73714000D01*
X73813603Y-73750968D01*
X73813603Y-73750968D01*
G37*
G36*
X125040530Y-73208877D02*
X125092010Y-73224493D01*
X125139442Y-73249846D01*
X125181027Y-73283973D01*
X125215154Y-73325558D01*
X125240507Y-73372990D01*
X125256123Y-73424470D01*
X125262000Y-73484140D01*
X125262000Y-74371860D01*
X125256123Y-74431530D01*
X125240507Y-74483010D01*
X125215154Y-74530442D01*
X125181027Y-74572027D01*
X125139442Y-74606154D01*
X125092010Y-74631507D01*
X125040530Y-74647123D01*
X124980860Y-74653000D01*
X124193140Y-74653000D01*
X124133470Y-74647123D01*
X124081990Y-74631507D01*
X124034558Y-74606154D01*
X123992973Y-74572027D01*
X123958846Y-74530442D01*
X123933493Y-74483010D01*
X123917877Y-74431530D01*
X123912000Y-74371860D01*
X123912000Y-73484140D01*
X123917877Y-73424470D01*
X123933493Y-73372990D01*
X123958846Y-73325558D01*
X123992973Y-73283973D01*
X124034558Y-73249846D01*
X124081990Y-73224493D01*
X124133470Y-73208877D01*
X124193140Y-73203000D01*
X124980860Y-73203000D01*
X125040530Y-73208877D01*
X125040530Y-73208877D01*
G37*
G36*
X126818530Y-73208877D02*
X126870010Y-73224493D01*
X126917442Y-73249846D01*
X126959027Y-73283973D01*
X126993154Y-73325558D01*
X127018507Y-73372990D01*
X127034123Y-73424470D01*
X127040000Y-73484140D01*
X127040000Y-74371860D01*
X127034123Y-74431530D01*
X127018507Y-74483010D01*
X126993154Y-74530442D01*
X126959027Y-74572027D01*
X126917442Y-74606154D01*
X126870010Y-74631507D01*
X126818530Y-74647123D01*
X126758860Y-74653000D01*
X125971140Y-74653000D01*
X125911470Y-74647123D01*
X125859990Y-74631507D01*
X125812558Y-74606154D01*
X125770973Y-74572027D01*
X125736846Y-74530442D01*
X125711493Y-74483010D01*
X125695877Y-74431530D01*
X125690000Y-74371860D01*
X125690000Y-73484140D01*
X125695877Y-73424470D01*
X125711493Y-73372990D01*
X125736846Y-73325558D01*
X125770973Y-73283973D01*
X125812558Y-73249846D01*
X125859990Y-73224493D01*
X125911470Y-73208877D01*
X125971140Y-73203000D01*
X126758860Y-73203000D01*
X126818530Y-73208877D01*
X126818530Y-73208877D01*
G37*
G36*
X62563107Y-73493353D02*
X61263107Y-73493353D01*
X61263107Y-72293353D01*
X62563107Y-72293353D01*
X62563107Y-73493353D01*
X62563107Y-73493353D01*
G37*
G36*
X73813603Y-71210968D02*
X73813606Y-71210969D01*
X73813605Y-71210969D01*
X73988678Y-71283486D01*
X73988679Y-71283487D01*
X74146241Y-71388767D01*
X74280233Y-71522759D01*
X74280234Y-71522761D01*
X74385514Y-71680322D01*
X74441603Y-71815734D01*
X74458032Y-71855397D01*
X74495000Y-72041250D01*
X74495000Y-72230750D01*
X74458032Y-72416603D01*
X74458031Y-72416605D01*
X74385514Y-72591678D01*
X74385513Y-72591679D01*
X74280233Y-72749241D01*
X74146241Y-72883233D01*
X74066923Y-72936232D01*
X73988678Y-72988514D01*
X73853266Y-73044603D01*
X73813603Y-73061032D01*
X73627750Y-73098000D01*
X73438250Y-73098000D01*
X73252397Y-73061032D01*
X73212734Y-73044603D01*
X73077322Y-72988514D01*
X72999077Y-72936232D01*
X72919759Y-72883233D01*
X72785767Y-72749241D01*
X72680487Y-72591679D01*
X72680486Y-72591678D01*
X72607969Y-72416605D01*
X72607968Y-72416603D01*
X72571000Y-72230750D01*
X72571000Y-72041250D01*
X72607968Y-71855397D01*
X72624397Y-71815734D01*
X72680486Y-71680322D01*
X72785766Y-71522761D01*
X72785767Y-71522759D01*
X72919759Y-71388767D01*
X73077321Y-71283487D01*
X73077322Y-71283486D01*
X73252395Y-71210969D01*
X73252394Y-71210969D01*
X73252397Y-71210968D01*
X73438250Y-71174000D01*
X73627750Y-71174000D01*
X73813603Y-71210968D01*
X73813603Y-71210968D01*
G37*
G36*
X94133603Y-71210968D02*
X94133606Y-71210969D01*
X94133605Y-71210969D01*
X94308678Y-71283486D01*
X94308679Y-71283487D01*
X94466241Y-71388767D01*
X94600233Y-71522759D01*
X94600234Y-71522761D01*
X94705514Y-71680322D01*
X94761603Y-71815734D01*
X94778032Y-71855397D01*
X94815000Y-72041250D01*
X94815000Y-72230750D01*
X94778032Y-72416603D01*
X94778031Y-72416605D01*
X94705514Y-72591678D01*
X94705513Y-72591679D01*
X94600233Y-72749241D01*
X94466241Y-72883233D01*
X94386923Y-72936232D01*
X94308678Y-72988514D01*
X94173266Y-73044603D01*
X94133603Y-73061032D01*
X93947750Y-73098000D01*
X93758250Y-73098000D01*
X93572397Y-73061032D01*
X93532734Y-73044603D01*
X93397322Y-72988514D01*
X93319077Y-72936232D01*
X93239759Y-72883233D01*
X93105767Y-72749241D01*
X93000487Y-72591679D01*
X93000486Y-72591678D01*
X92927969Y-72416605D01*
X92927968Y-72416603D01*
X92891000Y-72230750D01*
X92891000Y-72041250D01*
X92927968Y-71855397D01*
X92944397Y-71815734D01*
X93000486Y-71680322D01*
X93105766Y-71522761D01*
X93105767Y-71522759D01*
X93239759Y-71388767D01*
X93397321Y-71283487D01*
X93397322Y-71283486D01*
X93572395Y-71210969D01*
X93572394Y-71210969D01*
X93572397Y-71210968D01*
X93758250Y-71174000D01*
X93947750Y-71174000D01*
X94133603Y-71210968D01*
X94133603Y-71210968D01*
G37*
G36*
X64563107Y-72543353D02*
X63263107Y-72543353D01*
X63263107Y-71343353D01*
X64563107Y-71343353D01*
X64563107Y-72543353D01*
X64563107Y-72543353D01*
G37*
G36*
X153068000Y-72367000D02*
X151668000Y-72367000D01*
X151668000Y-68867000D01*
X153068000Y-68867000D01*
X153068000Y-72367000D01*
X153068000Y-72367000D01*
G37*
G36*
X149068000Y-72367000D02*
X147668000Y-72367000D01*
X147668000Y-68867000D01*
X149068000Y-68867000D01*
X149068000Y-72367000D01*
X149068000Y-72367000D01*
G37*
G36*
X62563107Y-71593353D02*
X61263107Y-71593353D01*
X61263107Y-70393353D01*
X62563107Y-70393353D01*
X62563107Y-71593353D01*
X62563107Y-71593353D01*
G37*
G36*
X119980452Y-67131127D02*
X120118105Y-67158508D01*
X120290994Y-67230121D01*
X120446590Y-67334087D01*
X120578913Y-67466410D01*
X120682879Y-67622006D01*
X120754492Y-67794895D01*
X120791000Y-67978433D01*
X120791000Y-68165567D01*
X120754492Y-68349105D01*
X120682879Y-68521994D01*
X120578913Y-68677590D01*
X120446590Y-68809913D01*
X120290994Y-68913879D01*
X120118105Y-68985492D01*
X119980451Y-69012873D01*
X119934568Y-69022000D01*
X119747432Y-69022000D01*
X119701549Y-69012873D01*
X119563895Y-68985492D01*
X119391006Y-68913879D01*
X119235410Y-68809913D01*
X119103087Y-68677590D01*
X118999121Y-68521994D01*
X118927508Y-68349105D01*
X118891000Y-68165567D01*
X118891000Y-67978433D01*
X118927508Y-67794895D01*
X118999121Y-67622006D01*
X119103087Y-67466410D01*
X119235410Y-67334087D01*
X119391006Y-67230121D01*
X119563895Y-67158508D01*
X119701548Y-67131127D01*
X119747432Y-67122000D01*
X119934568Y-67122000D01*
X119980452Y-67131127D01*
X119980452Y-67131127D01*
G37*
G36*
X124980452Y-67131127D02*
X125118105Y-67158508D01*
X125290994Y-67230121D01*
X125446590Y-67334087D01*
X125578913Y-67466410D01*
X125682879Y-67622006D01*
X125754492Y-67794895D01*
X125791000Y-67978433D01*
X125791000Y-68165567D01*
X125754492Y-68349105D01*
X125682879Y-68521994D01*
X125578913Y-68677590D01*
X125446590Y-68809913D01*
X125290994Y-68913879D01*
X125118105Y-68985492D01*
X124980451Y-69012873D01*
X124934568Y-69022000D01*
X124747432Y-69022000D01*
X124701549Y-69012873D01*
X124563895Y-68985492D01*
X124391006Y-68913879D01*
X124235410Y-68809913D01*
X124103087Y-68677590D01*
X123999121Y-68521994D01*
X123927508Y-68349105D01*
X123891000Y-68165567D01*
X123891000Y-67978433D01*
X123927508Y-67794895D01*
X123999121Y-67622006D01*
X124103087Y-67466410D01*
X124235410Y-67334087D01*
X124391006Y-67230121D01*
X124563895Y-67158508D01*
X124701548Y-67131127D01*
X124747432Y-67122000D01*
X124934568Y-67122000D01*
X124980452Y-67131127D01*
X124980452Y-67131127D01*
G37*
G36*
X63191530Y-67465877D02*
X63243010Y-67481493D01*
X63290442Y-67506846D01*
X63332027Y-67540973D01*
X63366154Y-67582558D01*
X63391507Y-67629990D01*
X63407123Y-67681470D01*
X63413000Y-67741140D01*
X63413000Y-68628860D01*
X63407123Y-68688530D01*
X63391507Y-68740010D01*
X63366154Y-68787442D01*
X63332027Y-68829027D01*
X63290442Y-68863154D01*
X63243010Y-68888507D01*
X63191530Y-68904123D01*
X63131860Y-68910000D01*
X62344140Y-68910000D01*
X62284470Y-68904123D01*
X62232990Y-68888507D01*
X62185558Y-68863154D01*
X62143973Y-68829027D01*
X62109846Y-68787442D01*
X62084493Y-68740010D01*
X62068877Y-68688530D01*
X62063000Y-68628860D01*
X62063000Y-67741140D01*
X62068877Y-67681470D01*
X62084493Y-67629990D01*
X62109846Y-67582558D01*
X62143973Y-67540973D01*
X62185558Y-67506846D01*
X62232990Y-67481493D01*
X62284470Y-67465877D01*
X62344140Y-67460000D01*
X63131860Y-67460000D01*
X63191530Y-67465877D01*
X63191530Y-67465877D01*
G37*
G36*
X63191530Y-65715877D02*
X63243010Y-65731493D01*
X63290442Y-65756846D01*
X63332027Y-65790973D01*
X63366154Y-65832558D01*
X63391507Y-65879990D01*
X63407123Y-65931470D01*
X63413000Y-65991140D01*
X63413000Y-66878860D01*
X63407123Y-66938530D01*
X63391507Y-66990010D01*
X63366154Y-67037442D01*
X63332027Y-67079027D01*
X63290442Y-67113154D01*
X63243010Y-67138507D01*
X63191530Y-67154123D01*
X63131860Y-67160000D01*
X62344140Y-67160000D01*
X62284470Y-67154123D01*
X62232990Y-67138507D01*
X62185558Y-67113154D01*
X62143973Y-67079027D01*
X62109846Y-67037442D01*
X62084493Y-66990010D01*
X62068877Y-66938530D01*
X62063000Y-66878860D01*
X62063000Y-65991140D01*
X62068877Y-65931470D01*
X62084493Y-65879990D01*
X62109846Y-65832558D01*
X62143973Y-65790973D01*
X62185558Y-65756846D01*
X62232990Y-65731493D01*
X62284470Y-65715877D01*
X62344140Y-65710000D01*
X63131860Y-65710000D01*
X63191530Y-65715877D01*
X63191530Y-65715877D01*
G37*
G36*
X119389530Y-63338877D02*
X119441010Y-63354493D01*
X119488442Y-63379846D01*
X119530027Y-63413973D01*
X119564154Y-63455558D01*
X119589507Y-63502990D01*
X119605123Y-63554470D01*
X119611000Y-63614140D01*
X119611000Y-64401860D01*
X119605123Y-64461530D01*
X119589507Y-64513010D01*
X119564154Y-64560442D01*
X119530027Y-64602027D01*
X119488442Y-64636154D01*
X119441010Y-64661507D01*
X119389530Y-64677123D01*
X119329860Y-64683000D01*
X118442140Y-64683000D01*
X118382470Y-64677123D01*
X118330990Y-64661507D01*
X118283558Y-64636154D01*
X118241973Y-64602027D01*
X118207846Y-64560442D01*
X118182493Y-64513010D01*
X118166877Y-64461530D01*
X118161000Y-64401860D01*
X118161000Y-63614140D01*
X118166877Y-63554470D01*
X118182493Y-63502990D01*
X118207846Y-63455558D01*
X118241973Y-63413973D01*
X118283558Y-63379846D01*
X118330990Y-63354493D01*
X118382470Y-63338877D01*
X118442140Y-63333000D01*
X119329860Y-63333000D01*
X119389530Y-63338877D01*
X119389530Y-63338877D01*
G37*
G36*
X124469530Y-63338877D02*
X124521010Y-63354493D01*
X124568442Y-63379846D01*
X124610027Y-63413973D01*
X124644154Y-63455558D01*
X124669507Y-63502990D01*
X124685123Y-63554470D01*
X124691000Y-63614140D01*
X124691000Y-64401860D01*
X124685123Y-64461530D01*
X124669507Y-64513010D01*
X124644154Y-64560442D01*
X124610027Y-64602027D01*
X124568442Y-64636154D01*
X124521010Y-64661507D01*
X124469530Y-64677123D01*
X124409860Y-64683000D01*
X123522140Y-64683000D01*
X123462470Y-64677123D01*
X123410990Y-64661507D01*
X123363558Y-64636154D01*
X123321973Y-64602027D01*
X123287846Y-64560442D01*
X123262493Y-64513010D01*
X123246877Y-64461530D01*
X123241000Y-64401860D01*
X123241000Y-63614140D01*
X123246877Y-63554470D01*
X123262493Y-63502990D01*
X123287846Y-63455558D01*
X123321973Y-63413973D01*
X123363558Y-63379846D01*
X123410990Y-63354493D01*
X123462470Y-63338877D01*
X123522140Y-63333000D01*
X124409860Y-63333000D01*
X124469530Y-63338877D01*
X124469530Y-63338877D01*
G37*
G36*
X126219530Y-63338877D02*
X126271010Y-63354493D01*
X126318442Y-63379846D01*
X126360027Y-63413973D01*
X126394154Y-63455558D01*
X126419507Y-63502990D01*
X126435123Y-63554470D01*
X126441000Y-63614140D01*
X126441000Y-64401860D01*
X126435123Y-64461530D01*
X126419507Y-64513010D01*
X126394154Y-64560442D01*
X126360027Y-64602027D01*
X126318442Y-64636154D01*
X126271010Y-64661507D01*
X126219530Y-64677123D01*
X126159860Y-64683000D01*
X125272140Y-64683000D01*
X125212470Y-64677123D01*
X125160990Y-64661507D01*
X125113558Y-64636154D01*
X125071973Y-64602027D01*
X125037846Y-64560442D01*
X125012493Y-64513010D01*
X124996877Y-64461530D01*
X124991000Y-64401860D01*
X124991000Y-63614140D01*
X124996877Y-63554470D01*
X125012493Y-63502990D01*
X125037846Y-63455558D01*
X125071973Y-63413973D01*
X125113558Y-63379846D01*
X125160990Y-63354493D01*
X125212470Y-63338877D01*
X125272140Y-63333000D01*
X126159860Y-63333000D01*
X126219530Y-63338877D01*
X126219530Y-63338877D01*
G37*
G36*
X121139530Y-63338877D02*
X121191010Y-63354493D01*
X121238442Y-63379846D01*
X121280027Y-63413973D01*
X121314154Y-63455558D01*
X121339507Y-63502990D01*
X121355123Y-63554470D01*
X121361000Y-63614140D01*
X121361000Y-64401860D01*
X121355123Y-64461530D01*
X121339507Y-64513010D01*
X121314154Y-64560442D01*
X121280027Y-64602027D01*
X121238442Y-64636154D01*
X121191010Y-64661507D01*
X121139530Y-64677123D01*
X121079860Y-64683000D01*
X120192140Y-64683000D01*
X120132470Y-64677123D01*
X120080990Y-64661507D01*
X120033558Y-64636154D01*
X119991973Y-64602027D01*
X119957846Y-64560442D01*
X119932493Y-64513010D01*
X119916877Y-64461530D01*
X119911000Y-64401860D01*
X119911000Y-63614140D01*
X119916877Y-63554470D01*
X119932493Y-63502990D01*
X119957846Y-63455558D01*
X119991973Y-63413973D01*
X120033558Y-63379846D01*
X120080990Y-63354493D01*
X120132470Y-63338877D01*
X120192140Y-63333000D01*
X121079860Y-63333000D01*
X121139530Y-63338877D01*
X121139530Y-63338877D01*
G37*
G36*
X101628122Y-60349115D02*
X101744041Y-60372173D01*
X102071620Y-60507861D01*
X102160527Y-60567267D01*
X102366436Y-60704851D01*
X102617149Y-60955564D01*
X102617151Y-60955567D01*
X102767113Y-61180000D01*
X102814140Y-61250382D01*
X102949827Y-61577960D01*
X102999213Y-61826237D01*
X103019000Y-61925716D01*
X103019000Y-62280284D01*
X102949827Y-62628041D01*
X102814139Y-62955620D01*
X102647664Y-63204767D01*
X102617149Y-63250436D01*
X102366436Y-63501149D01*
X102366433Y-63501151D01*
X102071620Y-63698139D01*
X101744041Y-63833827D01*
X101628122Y-63856885D01*
X101396286Y-63903000D01*
X101041714Y-63903000D01*
X100809878Y-63856885D01*
X100693959Y-63833827D01*
X100366380Y-63698139D01*
X100071567Y-63501151D01*
X100071564Y-63501149D01*
X99820851Y-63250436D01*
X99790336Y-63204767D01*
X99623861Y-62955620D01*
X99488173Y-62628041D01*
X99419000Y-62280284D01*
X99419000Y-61925716D01*
X99438788Y-61826237D01*
X99488173Y-61577960D01*
X99623860Y-61250382D01*
X99670888Y-61180000D01*
X99820849Y-60955567D01*
X99820851Y-60955564D01*
X100071564Y-60704851D01*
X100277473Y-60567267D01*
X100366380Y-60507861D01*
X100693959Y-60372173D01*
X100809878Y-60349115D01*
X101041714Y-60303000D01*
X101396286Y-60303000D01*
X101628122Y-60349115D01*
X101628122Y-60349115D01*
G37*
G36*
X142268122Y-60349115D02*
X142384041Y-60372173D01*
X142711620Y-60507861D01*
X142800527Y-60567267D01*
X143006436Y-60704851D01*
X143257149Y-60955564D01*
X143257151Y-60955567D01*
X143407113Y-61180000D01*
X143454140Y-61250382D01*
X143589827Y-61577960D01*
X143639213Y-61826237D01*
X143659000Y-61925716D01*
X143659000Y-62280284D01*
X143589827Y-62628041D01*
X143454139Y-62955620D01*
X143287664Y-63204767D01*
X143257149Y-63250436D01*
X143006436Y-63501149D01*
X143006433Y-63501151D01*
X142711620Y-63698139D01*
X142384041Y-63833827D01*
X142268122Y-63856885D01*
X142036286Y-63903000D01*
X141681714Y-63903000D01*
X141449878Y-63856885D01*
X141333959Y-63833827D01*
X141006380Y-63698139D01*
X140711567Y-63501151D01*
X140711564Y-63501149D01*
X140460851Y-63250436D01*
X140430336Y-63204767D01*
X140263861Y-62955620D01*
X140128173Y-62628041D01*
X140059000Y-62280284D01*
X140059000Y-61925716D01*
X140078788Y-61826237D01*
X140128173Y-61577960D01*
X140263860Y-61250382D01*
X140310888Y-61180000D01*
X140460849Y-60955567D01*
X140460851Y-60955564D01*
X140711564Y-60704851D01*
X140917473Y-60567267D01*
X141006380Y-60507861D01*
X141333959Y-60372173D01*
X141449878Y-60349115D01*
X141681714Y-60303000D01*
X142036286Y-60303000D01*
X142268122Y-60349115D01*
X142268122Y-60349115D01*
G37*
G36*
X149068000Y-63467000D02*
X147668000Y-63467000D01*
X147668000Y-59967000D01*
X149068000Y-59967000D01*
X149068000Y-63467000D01*
X149068000Y-63467000D01*
G37*
G36*
X153068000Y-63467000D02*
X151668000Y-63467000D01*
X151668000Y-59967000D01*
X153068000Y-59967000D01*
X153068000Y-63467000D01*
X153068000Y-63467000D01*
G37*
G36*
X93219707Y-61187596D02*
X93296836Y-61195193D01*
X93428787Y-61235220D01*
X93494763Y-61255233D01*
X93677172Y-61352733D01*
X93837054Y-61483946D01*
X93968267Y-61643828D01*
X94065767Y-61826237D01*
X94065767Y-61826238D01*
X94125807Y-62024164D01*
X94146080Y-62230000D01*
X94125807Y-62435836D01*
X94085780Y-62567787D01*
X94065767Y-62633763D01*
X93968267Y-62816172D01*
X93837054Y-62976054D01*
X93677172Y-63107267D01*
X93494763Y-63204767D01*
X93428787Y-63224780D01*
X93296836Y-63264807D01*
X93219707Y-63272403D01*
X93142580Y-63280000D01*
X93039420Y-63280000D01*
X92962293Y-63272403D01*
X92885164Y-63264807D01*
X92753213Y-63224780D01*
X92687237Y-63204767D01*
X92504828Y-63107267D01*
X92344946Y-62976054D01*
X92213733Y-62816172D01*
X92116233Y-62633763D01*
X92096220Y-62567787D01*
X92056193Y-62435836D01*
X92035920Y-62230000D01*
X92056193Y-62024164D01*
X92116233Y-61826238D01*
X92116233Y-61826237D01*
X92213733Y-61643828D01*
X92344946Y-61483946D01*
X92504828Y-61352733D01*
X92687237Y-61255233D01*
X92753213Y-61235220D01*
X92885164Y-61195193D01*
X92962293Y-61187596D01*
X93039420Y-61180000D01*
X93142580Y-61180000D01*
X93219707Y-61187596D01*
X93219707Y-61187596D01*
G37*
G36*
X95759707Y-61187596D02*
X95836836Y-61195193D01*
X95968787Y-61235220D01*
X96034763Y-61255233D01*
X96217172Y-61352733D01*
X96377054Y-61483946D01*
X96508267Y-61643828D01*
X96605767Y-61826237D01*
X96605767Y-61826238D01*
X96665807Y-62024164D01*
X96686080Y-62230000D01*
X96665807Y-62435836D01*
X96625780Y-62567787D01*
X96605767Y-62633763D01*
X96508267Y-62816172D01*
X96377054Y-62976054D01*
X96217172Y-63107267D01*
X96034763Y-63204767D01*
X95968787Y-63224780D01*
X95836836Y-63264807D01*
X95759707Y-63272403D01*
X95682580Y-63280000D01*
X95579420Y-63280000D01*
X95502293Y-63272403D01*
X95425164Y-63264807D01*
X95293213Y-63224780D01*
X95227237Y-63204767D01*
X95044828Y-63107267D01*
X94884946Y-62976054D01*
X94753733Y-62816172D01*
X94656233Y-62633763D01*
X94636220Y-62567787D01*
X94596193Y-62435836D01*
X94575920Y-62230000D01*
X94596193Y-62024164D01*
X94656233Y-61826238D01*
X94656233Y-61826237D01*
X94753733Y-61643828D01*
X94884946Y-61483946D01*
X95044828Y-61352733D01*
X95227237Y-61255233D01*
X95293213Y-61235220D01*
X95425164Y-61195193D01*
X95502293Y-61187596D01*
X95579420Y-61180000D01*
X95682580Y-61180000D01*
X95759707Y-61187596D01*
X95759707Y-61187596D01*
G37*
G36*
X91601000Y-63280000D02*
X89501000Y-63280000D01*
X89501000Y-61180000D01*
X91601000Y-61180000D01*
X91601000Y-63280000D01*
X91601000Y-63280000D01*
G37*
G36*
X71038000Y-61767000D02*
X67138000Y-61767000D01*
X67138000Y-57867000D01*
X71038000Y-57867000D01*
X71038000Y-61767000D01*
X71038000Y-61767000D01*
G37*
G36*
X90679707Y-58647597D02*
X90756836Y-58655193D01*
X90880754Y-58692783D01*
X90954763Y-58715233D01*
X91137172Y-58812733D01*
X91297054Y-58943946D01*
X91428267Y-59103828D01*
X91525767Y-59286237D01*
X91525767Y-59286238D01*
X91585807Y-59484164D01*
X91606080Y-59690000D01*
X91585807Y-59895836D01*
X91545780Y-60027787D01*
X91525767Y-60093763D01*
X91428267Y-60276172D01*
X91297054Y-60436054D01*
X91137172Y-60567267D01*
X90954763Y-60664767D01*
X90888787Y-60684780D01*
X90756836Y-60724807D01*
X90679707Y-60732403D01*
X90602580Y-60740000D01*
X90499420Y-60740000D01*
X90422293Y-60732403D01*
X90345164Y-60724807D01*
X90213213Y-60684780D01*
X90147237Y-60664767D01*
X89964828Y-60567267D01*
X89804946Y-60436054D01*
X89673733Y-60276172D01*
X89576233Y-60093763D01*
X89556220Y-60027787D01*
X89516193Y-59895836D01*
X89495920Y-59690000D01*
X89516193Y-59484164D01*
X89576233Y-59286238D01*
X89576233Y-59286237D01*
X89673733Y-59103828D01*
X89804946Y-58943946D01*
X89964828Y-58812733D01*
X90147237Y-58715233D01*
X90221246Y-58692783D01*
X90345164Y-58655193D01*
X90422293Y-58647597D01*
X90499420Y-58640000D01*
X90602580Y-58640000D01*
X90679707Y-58647597D01*
X90679707Y-58647597D01*
G37*
G36*
X95759707Y-58647597D02*
X95836836Y-58655193D01*
X95960754Y-58692783D01*
X96034763Y-58715233D01*
X96217172Y-58812733D01*
X96377054Y-58943946D01*
X96508267Y-59103828D01*
X96605767Y-59286237D01*
X96605767Y-59286238D01*
X96665807Y-59484164D01*
X96686080Y-59690000D01*
X96665807Y-59895836D01*
X96625780Y-60027787D01*
X96605767Y-60093763D01*
X96508267Y-60276172D01*
X96377054Y-60436054D01*
X96217172Y-60567267D01*
X96034763Y-60664767D01*
X95968787Y-60684780D01*
X95836836Y-60724807D01*
X95759707Y-60732403D01*
X95682580Y-60740000D01*
X95579420Y-60740000D01*
X95502293Y-60732403D01*
X95425164Y-60724807D01*
X95293213Y-60684780D01*
X95227237Y-60664767D01*
X95044828Y-60567267D01*
X94884946Y-60436054D01*
X94753733Y-60276172D01*
X94656233Y-60093763D01*
X94636220Y-60027787D01*
X94596193Y-59895836D01*
X94575920Y-59690000D01*
X94596193Y-59484164D01*
X94656233Y-59286238D01*
X94656233Y-59286237D01*
X94753733Y-59103828D01*
X94884946Y-58943946D01*
X95044828Y-58812733D01*
X95227237Y-58715233D01*
X95301246Y-58692783D01*
X95425164Y-58655193D01*
X95502293Y-58647597D01*
X95579420Y-58640000D01*
X95682580Y-58640000D01*
X95759707Y-58647597D01*
X95759707Y-58647597D01*
G37*
G36*
X93219707Y-58647597D02*
X93296836Y-58655193D01*
X93420754Y-58692783D01*
X93494763Y-58715233D01*
X93677172Y-58812733D01*
X93837054Y-58943946D01*
X93968267Y-59103828D01*
X94065767Y-59286237D01*
X94065767Y-59286238D01*
X94125807Y-59484164D01*
X94146080Y-59690000D01*
X94125807Y-59895836D01*
X94085780Y-60027787D01*
X94065767Y-60093763D01*
X93968267Y-60276172D01*
X93837054Y-60436054D01*
X93677172Y-60567267D01*
X93494763Y-60664767D01*
X93428787Y-60684780D01*
X93296836Y-60724807D01*
X93219707Y-60732403D01*
X93142580Y-60740000D01*
X93039420Y-60740000D01*
X92962293Y-60732403D01*
X92885164Y-60724807D01*
X92753213Y-60684780D01*
X92687237Y-60664767D01*
X92504828Y-60567267D01*
X92344946Y-60436054D01*
X92213733Y-60276172D01*
X92116233Y-60093763D01*
X92096220Y-60027787D01*
X92056193Y-59895836D01*
X92035920Y-59690000D01*
X92056193Y-59484164D01*
X92116233Y-59286238D01*
X92116233Y-59286237D01*
X92213733Y-59103828D01*
X92344946Y-58943946D01*
X92504828Y-58812733D01*
X92687237Y-58715233D01*
X92761246Y-58692783D01*
X92885164Y-58655193D01*
X92962293Y-58647597D01*
X93039420Y-58640000D01*
X93142580Y-58640000D01*
X93219707Y-58647597D01*
X93219707Y-58647597D01*
G37*
G36*
X65603398Y-54885126D02*
X65774472Y-54937021D01*
X65932121Y-55021286D01*
X66070307Y-55134693D01*
X66183714Y-55272879D01*
X66267979Y-55430528D01*
X66319874Y-55601602D01*
X66338000Y-55785640D01*
X66338000Y-57848360D01*
X66319874Y-58032398D01*
X66267979Y-58203472D01*
X66183714Y-58361121D01*
X66070307Y-58499307D01*
X65932121Y-58612714D01*
X65774472Y-58696979D01*
X65603398Y-58748874D01*
X65419360Y-58767000D01*
X63356640Y-58767000D01*
X63172602Y-58748874D01*
X63001528Y-58696979D01*
X62843879Y-58612714D01*
X62705693Y-58499307D01*
X62592286Y-58361121D01*
X62508021Y-58203472D01*
X62456126Y-58032398D01*
X62438000Y-57848360D01*
X62438000Y-55785640D01*
X62456126Y-55601602D01*
X62508021Y-55430528D01*
X62592286Y-55272879D01*
X62705693Y-55134693D01*
X62843879Y-55021286D01*
X63001528Y-54937021D01*
X63172602Y-54885126D01*
X63356640Y-54867000D01*
X65419360Y-54867000D01*
X65603398Y-54885126D01*
X65603398Y-54885126D01*
G37*
G36*
X133249603Y-56097968D02*
X133249606Y-56097969D01*
X133249605Y-56097969D01*
X133424678Y-56170486D01*
X133424679Y-56170487D01*
X133582241Y-56275767D01*
X133716233Y-56409759D01*
X133716234Y-56409761D01*
X133821514Y-56567322D01*
X133877603Y-56702734D01*
X133894032Y-56742397D01*
X133931000Y-56928250D01*
X133931000Y-57117750D01*
X133894032Y-57303603D01*
X133894031Y-57303605D01*
X133821514Y-57478678D01*
X133821513Y-57478679D01*
X133716233Y-57636241D01*
X133582241Y-57770233D01*
X133502923Y-57823232D01*
X133424678Y-57875514D01*
X133289266Y-57931603D01*
X133249603Y-57948032D01*
X133063750Y-57985000D01*
X132874250Y-57985000D01*
X132688397Y-57948032D01*
X132648734Y-57931603D01*
X132513322Y-57875514D01*
X132435077Y-57823232D01*
X132355759Y-57770233D01*
X132221767Y-57636241D01*
X132116487Y-57478679D01*
X132116486Y-57478678D01*
X132043969Y-57303605D01*
X132043968Y-57303603D01*
X132007000Y-57117750D01*
X132007000Y-56928250D01*
X132043968Y-56742397D01*
X132060397Y-56702734D01*
X132116486Y-56567322D01*
X132221766Y-56409761D01*
X132221767Y-56409759D01*
X132355759Y-56275767D01*
X132513321Y-56170487D01*
X132513322Y-56170486D01*
X132688395Y-56097969D01*
X132688394Y-56097969D01*
X132688397Y-56097968D01*
X132874250Y-56061000D01*
X133063750Y-56061000D01*
X133249603Y-56097968D01*
X133249603Y-56097968D01*
G37*
G36*
X102769603Y-56097968D02*
X102769606Y-56097969D01*
X102769605Y-56097969D01*
X102944678Y-56170486D01*
X102944679Y-56170487D01*
X103102241Y-56275767D01*
X103236233Y-56409759D01*
X103236234Y-56409761D01*
X103341514Y-56567322D01*
X103397603Y-56702734D01*
X103414032Y-56742397D01*
X103451000Y-56928250D01*
X103451000Y-57117750D01*
X103414032Y-57303603D01*
X103414031Y-57303605D01*
X103341514Y-57478678D01*
X103341513Y-57478679D01*
X103236233Y-57636241D01*
X103102241Y-57770233D01*
X103022923Y-57823232D01*
X102944678Y-57875514D01*
X102809266Y-57931603D01*
X102769603Y-57948032D01*
X102583750Y-57985000D01*
X102394250Y-57985000D01*
X102208397Y-57948032D01*
X102168734Y-57931603D01*
X102033322Y-57875514D01*
X101955077Y-57823232D01*
X101875759Y-57770233D01*
X101741767Y-57636241D01*
X101636487Y-57478679D01*
X101636486Y-57478678D01*
X101563969Y-57303605D01*
X101563968Y-57303603D01*
X101527000Y-57117750D01*
X101527000Y-56928250D01*
X101563968Y-56742397D01*
X101580397Y-56702734D01*
X101636486Y-56567322D01*
X101741766Y-56409761D01*
X101741767Y-56409759D01*
X101875759Y-56275767D01*
X102033321Y-56170487D01*
X102033322Y-56170486D01*
X102208395Y-56097969D01*
X102208394Y-56097969D01*
X102208397Y-56097968D01*
X102394250Y-56061000D01*
X102583750Y-56061000D01*
X102769603Y-56097968D01*
X102769603Y-56097968D01*
G37*
G36*
X105309603Y-56097968D02*
X105309606Y-56097969D01*
X105309605Y-56097969D01*
X105484678Y-56170486D01*
X105484679Y-56170487D01*
X105642241Y-56275767D01*
X105776233Y-56409759D01*
X105776234Y-56409761D01*
X105881514Y-56567322D01*
X105937603Y-56702734D01*
X105954032Y-56742397D01*
X105991000Y-56928250D01*
X105991000Y-57117750D01*
X105954032Y-57303603D01*
X105954031Y-57303605D01*
X105881514Y-57478678D01*
X105881513Y-57478679D01*
X105776233Y-57636241D01*
X105642241Y-57770233D01*
X105562923Y-57823232D01*
X105484678Y-57875514D01*
X105349266Y-57931603D01*
X105309603Y-57948032D01*
X105123750Y-57985000D01*
X104934250Y-57985000D01*
X104748397Y-57948032D01*
X104708734Y-57931603D01*
X104573322Y-57875514D01*
X104495077Y-57823232D01*
X104415759Y-57770233D01*
X104281767Y-57636241D01*
X104176487Y-57478679D01*
X104176486Y-57478678D01*
X104103969Y-57303605D01*
X104103968Y-57303603D01*
X104067000Y-57117750D01*
X104067000Y-56928250D01*
X104103968Y-56742397D01*
X104120397Y-56702734D01*
X104176486Y-56567322D01*
X104281766Y-56409761D01*
X104281767Y-56409759D01*
X104415759Y-56275767D01*
X104573321Y-56170487D01*
X104573322Y-56170486D01*
X104748395Y-56097969D01*
X104748394Y-56097969D01*
X104748397Y-56097968D01*
X104934250Y-56061000D01*
X105123750Y-56061000D01*
X105309603Y-56097968D01*
X105309603Y-56097968D01*
G37*
G36*
X107849603Y-56097968D02*
X107849606Y-56097969D01*
X107849605Y-56097969D01*
X108024678Y-56170486D01*
X108024679Y-56170487D01*
X108182241Y-56275767D01*
X108316233Y-56409759D01*
X108316234Y-56409761D01*
X108421514Y-56567322D01*
X108477603Y-56702734D01*
X108494032Y-56742397D01*
X108531000Y-56928250D01*
X108531000Y-57117750D01*
X108494032Y-57303603D01*
X108494031Y-57303605D01*
X108421514Y-57478678D01*
X108421513Y-57478679D01*
X108316233Y-57636241D01*
X108182241Y-57770233D01*
X108102923Y-57823232D01*
X108024678Y-57875514D01*
X107889266Y-57931603D01*
X107849603Y-57948032D01*
X107663750Y-57985000D01*
X107474250Y-57985000D01*
X107288397Y-57948032D01*
X107248734Y-57931603D01*
X107113322Y-57875514D01*
X107035077Y-57823232D01*
X106955759Y-57770233D01*
X106821767Y-57636241D01*
X106716487Y-57478679D01*
X106716486Y-57478678D01*
X106643969Y-57303605D01*
X106643968Y-57303603D01*
X106607000Y-57117750D01*
X106607000Y-56928250D01*
X106643968Y-56742397D01*
X106660397Y-56702734D01*
X106716486Y-56567322D01*
X106821766Y-56409761D01*
X106821767Y-56409759D01*
X106955759Y-56275767D01*
X107113321Y-56170487D01*
X107113322Y-56170486D01*
X107288395Y-56097969D01*
X107288394Y-56097969D01*
X107288397Y-56097968D01*
X107474250Y-56061000D01*
X107663750Y-56061000D01*
X107849603Y-56097968D01*
X107849603Y-56097968D01*
G37*
G36*
X112929603Y-56097968D02*
X112929606Y-56097969D01*
X112929605Y-56097969D01*
X113104678Y-56170486D01*
X113104679Y-56170487D01*
X113262241Y-56275767D01*
X113396233Y-56409759D01*
X113396234Y-56409761D01*
X113501514Y-56567322D01*
X113557603Y-56702734D01*
X113574032Y-56742397D01*
X113611000Y-56928250D01*
X113611000Y-57117750D01*
X113574032Y-57303603D01*
X113574031Y-57303605D01*
X113501514Y-57478678D01*
X113501513Y-57478679D01*
X113396233Y-57636241D01*
X113262241Y-57770233D01*
X113182923Y-57823232D01*
X113104678Y-57875514D01*
X112969266Y-57931603D01*
X112929603Y-57948032D01*
X112743750Y-57985000D01*
X112554250Y-57985000D01*
X112368397Y-57948032D01*
X112328734Y-57931603D01*
X112193322Y-57875514D01*
X112115077Y-57823232D01*
X112035759Y-57770233D01*
X111901767Y-57636241D01*
X111796487Y-57478679D01*
X111796486Y-57478678D01*
X111723969Y-57303605D01*
X111723968Y-57303603D01*
X111687000Y-57117750D01*
X111687000Y-56928250D01*
X111723968Y-56742397D01*
X111740397Y-56702734D01*
X111796486Y-56567322D01*
X111901766Y-56409761D01*
X111901767Y-56409759D01*
X112035759Y-56275767D01*
X112193321Y-56170487D01*
X112193322Y-56170486D01*
X112368395Y-56097969D01*
X112368394Y-56097969D01*
X112368397Y-56097968D01*
X112554250Y-56061000D01*
X112743750Y-56061000D01*
X112929603Y-56097968D01*
X112929603Y-56097968D01*
G37*
G36*
X115469603Y-56097968D02*
X115469606Y-56097969D01*
X115469605Y-56097969D01*
X115644678Y-56170486D01*
X115644679Y-56170487D01*
X115802241Y-56275767D01*
X115936233Y-56409759D01*
X115936234Y-56409761D01*
X116041514Y-56567322D01*
X116097603Y-56702734D01*
X116114032Y-56742397D01*
X116151000Y-56928250D01*
X116151000Y-57117750D01*
X116114032Y-57303603D01*
X116114031Y-57303605D01*
X116041514Y-57478678D01*
X116041513Y-57478679D01*
X115936233Y-57636241D01*
X115802241Y-57770233D01*
X115722923Y-57823232D01*
X115644678Y-57875514D01*
X115509266Y-57931603D01*
X115469603Y-57948032D01*
X115283750Y-57985000D01*
X115094250Y-57985000D01*
X114908397Y-57948032D01*
X114868734Y-57931603D01*
X114733322Y-57875514D01*
X114655077Y-57823232D01*
X114575759Y-57770233D01*
X114441767Y-57636241D01*
X114336487Y-57478679D01*
X114336486Y-57478678D01*
X114263969Y-57303605D01*
X114263968Y-57303603D01*
X114227000Y-57117750D01*
X114227000Y-56928250D01*
X114263968Y-56742397D01*
X114280397Y-56702734D01*
X114336486Y-56567322D01*
X114441766Y-56409761D01*
X114441767Y-56409759D01*
X114575759Y-56275767D01*
X114733321Y-56170487D01*
X114733322Y-56170486D01*
X114908395Y-56097969D01*
X114908394Y-56097969D01*
X114908397Y-56097968D01*
X115094250Y-56061000D01*
X115283750Y-56061000D01*
X115469603Y-56097968D01*
X115469603Y-56097968D01*
G37*
G36*
X120549603Y-56097968D02*
X120549606Y-56097969D01*
X120549605Y-56097969D01*
X120724678Y-56170486D01*
X120724679Y-56170487D01*
X120882241Y-56275767D01*
X121016233Y-56409759D01*
X121016234Y-56409761D01*
X121121514Y-56567322D01*
X121177603Y-56702734D01*
X121194032Y-56742397D01*
X121231000Y-56928250D01*
X121231000Y-57117750D01*
X121194032Y-57303603D01*
X121194031Y-57303605D01*
X121121514Y-57478678D01*
X121121513Y-57478679D01*
X121016233Y-57636241D01*
X120882241Y-57770233D01*
X120802923Y-57823232D01*
X120724678Y-57875514D01*
X120589266Y-57931603D01*
X120549603Y-57948032D01*
X120363750Y-57985000D01*
X120174250Y-57985000D01*
X119988397Y-57948032D01*
X119948734Y-57931603D01*
X119813322Y-57875514D01*
X119735077Y-57823232D01*
X119655759Y-57770233D01*
X119521767Y-57636241D01*
X119416487Y-57478679D01*
X119416486Y-57478678D01*
X119343969Y-57303605D01*
X119343968Y-57303603D01*
X119307000Y-57117750D01*
X119307000Y-56928250D01*
X119343968Y-56742397D01*
X119360397Y-56702734D01*
X119416486Y-56567322D01*
X119521766Y-56409761D01*
X119521767Y-56409759D01*
X119655759Y-56275767D01*
X119813321Y-56170487D01*
X119813322Y-56170486D01*
X119988395Y-56097969D01*
X119988394Y-56097969D01*
X119988397Y-56097968D01*
X120174250Y-56061000D01*
X120363750Y-56061000D01*
X120549603Y-56097968D01*
X120549603Y-56097968D01*
G37*
G36*
X118009603Y-56097968D02*
X118009606Y-56097969D01*
X118009605Y-56097969D01*
X118184678Y-56170486D01*
X118184679Y-56170487D01*
X118342241Y-56275767D01*
X118476233Y-56409759D01*
X118476234Y-56409761D01*
X118581514Y-56567322D01*
X118637603Y-56702734D01*
X118654032Y-56742397D01*
X118691000Y-56928250D01*
X118691000Y-57117750D01*
X118654032Y-57303603D01*
X118654031Y-57303605D01*
X118581514Y-57478678D01*
X118581513Y-57478679D01*
X118476233Y-57636241D01*
X118342241Y-57770233D01*
X118262923Y-57823232D01*
X118184678Y-57875514D01*
X118049266Y-57931603D01*
X118009603Y-57948032D01*
X117823750Y-57985000D01*
X117634250Y-57985000D01*
X117448397Y-57948032D01*
X117408734Y-57931603D01*
X117273322Y-57875514D01*
X117195077Y-57823232D01*
X117115759Y-57770233D01*
X116981767Y-57636241D01*
X116876487Y-57478679D01*
X116876486Y-57478678D01*
X116803969Y-57303605D01*
X116803968Y-57303603D01*
X116767000Y-57117750D01*
X116767000Y-56928250D01*
X116803968Y-56742397D01*
X116820397Y-56702734D01*
X116876486Y-56567322D01*
X116981766Y-56409761D01*
X116981767Y-56409759D01*
X117115759Y-56275767D01*
X117273321Y-56170487D01*
X117273322Y-56170486D01*
X117448395Y-56097969D01*
X117448394Y-56097969D01*
X117448397Y-56097968D01*
X117634250Y-56061000D01*
X117823750Y-56061000D01*
X118009603Y-56097968D01*
X118009603Y-56097968D01*
G37*
G36*
X123089603Y-56097968D02*
X123089606Y-56097969D01*
X123089605Y-56097969D01*
X123264678Y-56170486D01*
X123264679Y-56170487D01*
X123422241Y-56275767D01*
X123556233Y-56409759D01*
X123556234Y-56409761D01*
X123661514Y-56567322D01*
X123717603Y-56702734D01*
X123734032Y-56742397D01*
X123771000Y-56928250D01*
X123771000Y-57117750D01*
X123734032Y-57303603D01*
X123734031Y-57303605D01*
X123661514Y-57478678D01*
X123661513Y-57478679D01*
X123556233Y-57636241D01*
X123422241Y-57770233D01*
X123342923Y-57823232D01*
X123264678Y-57875514D01*
X123129266Y-57931603D01*
X123089603Y-57948032D01*
X122903750Y-57985000D01*
X122714250Y-57985000D01*
X122528397Y-57948032D01*
X122488734Y-57931603D01*
X122353322Y-57875514D01*
X122275077Y-57823232D01*
X122195759Y-57770233D01*
X122061767Y-57636241D01*
X121956487Y-57478679D01*
X121956486Y-57478678D01*
X121883969Y-57303605D01*
X121883968Y-57303603D01*
X121847000Y-57117750D01*
X121847000Y-56928250D01*
X121883968Y-56742397D01*
X121900397Y-56702734D01*
X121956486Y-56567322D01*
X122061766Y-56409761D01*
X122061767Y-56409759D01*
X122195759Y-56275767D01*
X122353321Y-56170487D01*
X122353322Y-56170486D01*
X122528395Y-56097969D01*
X122528394Y-56097969D01*
X122528397Y-56097968D01*
X122714250Y-56061000D01*
X122903750Y-56061000D01*
X123089603Y-56097968D01*
X123089603Y-56097968D01*
G37*
G36*
X125629603Y-56097968D02*
X125629606Y-56097969D01*
X125629605Y-56097969D01*
X125804678Y-56170486D01*
X125804679Y-56170487D01*
X125962241Y-56275767D01*
X126096233Y-56409759D01*
X126096234Y-56409761D01*
X126201514Y-56567322D01*
X126257603Y-56702734D01*
X126274032Y-56742397D01*
X126311000Y-56928250D01*
X126311000Y-57117750D01*
X126274032Y-57303603D01*
X126274031Y-57303605D01*
X126201514Y-57478678D01*
X126201513Y-57478679D01*
X126096233Y-57636241D01*
X125962241Y-57770233D01*
X125882923Y-57823232D01*
X125804678Y-57875514D01*
X125669266Y-57931603D01*
X125629603Y-57948032D01*
X125443750Y-57985000D01*
X125254250Y-57985000D01*
X125068397Y-57948032D01*
X125028734Y-57931603D01*
X124893322Y-57875514D01*
X124815077Y-57823232D01*
X124735759Y-57770233D01*
X124601767Y-57636241D01*
X124496487Y-57478679D01*
X124496486Y-57478678D01*
X124423969Y-57303605D01*
X124423968Y-57303603D01*
X124387000Y-57117750D01*
X124387000Y-56928250D01*
X124423968Y-56742397D01*
X124440397Y-56702734D01*
X124496486Y-56567322D01*
X124601766Y-56409761D01*
X124601767Y-56409759D01*
X124735759Y-56275767D01*
X124893321Y-56170487D01*
X124893322Y-56170486D01*
X125068395Y-56097969D01*
X125068394Y-56097969D01*
X125068397Y-56097968D01*
X125254250Y-56061000D01*
X125443750Y-56061000D01*
X125629603Y-56097968D01*
X125629603Y-56097968D01*
G37*
G36*
X128169603Y-56097968D02*
X128169606Y-56097969D01*
X128169605Y-56097969D01*
X128344678Y-56170486D01*
X128344679Y-56170487D01*
X128502241Y-56275767D01*
X128636233Y-56409759D01*
X128636234Y-56409761D01*
X128741514Y-56567322D01*
X128797603Y-56702734D01*
X128814032Y-56742397D01*
X128851000Y-56928250D01*
X128851000Y-57117750D01*
X128814032Y-57303603D01*
X128814031Y-57303605D01*
X128741514Y-57478678D01*
X128741513Y-57478679D01*
X128636233Y-57636241D01*
X128502241Y-57770233D01*
X128422923Y-57823232D01*
X128344678Y-57875514D01*
X128209266Y-57931603D01*
X128169603Y-57948032D01*
X127983750Y-57985000D01*
X127794250Y-57985000D01*
X127608397Y-57948032D01*
X127568734Y-57931603D01*
X127433322Y-57875514D01*
X127355077Y-57823232D01*
X127275759Y-57770233D01*
X127141767Y-57636241D01*
X127036487Y-57478679D01*
X127036486Y-57478678D01*
X126963969Y-57303605D01*
X126963968Y-57303603D01*
X126927000Y-57117750D01*
X126927000Y-56928250D01*
X126963968Y-56742397D01*
X126980397Y-56702734D01*
X127036486Y-56567322D01*
X127141766Y-56409761D01*
X127141767Y-56409759D01*
X127275759Y-56275767D01*
X127433321Y-56170487D01*
X127433322Y-56170486D01*
X127608395Y-56097969D01*
X127608394Y-56097969D01*
X127608397Y-56097968D01*
X127794250Y-56061000D01*
X127983750Y-56061000D01*
X128169603Y-56097968D01*
X128169603Y-56097968D01*
G37*
G36*
X130709603Y-56097968D02*
X130709606Y-56097969D01*
X130709605Y-56097969D01*
X130884678Y-56170486D01*
X130884679Y-56170487D01*
X131042241Y-56275767D01*
X131176233Y-56409759D01*
X131176234Y-56409761D01*
X131281514Y-56567322D01*
X131337603Y-56702734D01*
X131354032Y-56742397D01*
X131391000Y-56928250D01*
X131391000Y-57117750D01*
X131354032Y-57303603D01*
X131354031Y-57303605D01*
X131281514Y-57478678D01*
X131281513Y-57478679D01*
X131176233Y-57636241D01*
X131042241Y-57770233D01*
X130962923Y-57823232D01*
X130884678Y-57875514D01*
X130749266Y-57931603D01*
X130709603Y-57948032D01*
X130523750Y-57985000D01*
X130334250Y-57985000D01*
X130148397Y-57948032D01*
X130108734Y-57931603D01*
X129973322Y-57875514D01*
X129895077Y-57823232D01*
X129815759Y-57770233D01*
X129681767Y-57636241D01*
X129576487Y-57478679D01*
X129576486Y-57478678D01*
X129503969Y-57303605D01*
X129503968Y-57303603D01*
X129467000Y-57117750D01*
X129467000Y-56928250D01*
X129503968Y-56742397D01*
X129520397Y-56702734D01*
X129576486Y-56567322D01*
X129681766Y-56409761D01*
X129681767Y-56409759D01*
X129815759Y-56275767D01*
X129973321Y-56170487D01*
X129973322Y-56170486D01*
X130148395Y-56097969D01*
X130148394Y-56097969D01*
X130148397Y-56097968D01*
X130334250Y-56061000D01*
X130523750Y-56061000D01*
X130709603Y-56097968D01*
X130709603Y-56097968D01*
G37*
G36*
X135789603Y-56097968D02*
X135789606Y-56097969D01*
X135789605Y-56097969D01*
X135964678Y-56170486D01*
X135964679Y-56170487D01*
X136122241Y-56275767D01*
X136256233Y-56409759D01*
X136256234Y-56409761D01*
X136361514Y-56567322D01*
X136417603Y-56702734D01*
X136434032Y-56742397D01*
X136471000Y-56928250D01*
X136471000Y-57117750D01*
X136434032Y-57303603D01*
X136434031Y-57303605D01*
X136361514Y-57478678D01*
X136361513Y-57478679D01*
X136256233Y-57636241D01*
X136122241Y-57770233D01*
X136042923Y-57823232D01*
X135964678Y-57875514D01*
X135829266Y-57931603D01*
X135789603Y-57948032D01*
X135603750Y-57985000D01*
X135414250Y-57985000D01*
X135228397Y-57948032D01*
X135188734Y-57931603D01*
X135053322Y-57875514D01*
X134975077Y-57823232D01*
X134895759Y-57770233D01*
X134761767Y-57636241D01*
X134656487Y-57478679D01*
X134656486Y-57478678D01*
X134583969Y-57303605D01*
X134583968Y-57303603D01*
X134547000Y-57117750D01*
X134547000Y-56928250D01*
X134583968Y-56742397D01*
X134600397Y-56702734D01*
X134656486Y-56567322D01*
X134761766Y-56409761D01*
X134761767Y-56409759D01*
X134895759Y-56275767D01*
X135053321Y-56170487D01*
X135053322Y-56170486D01*
X135228395Y-56097969D01*
X135228394Y-56097969D01*
X135228397Y-56097968D01*
X135414250Y-56061000D01*
X135603750Y-56061000D01*
X135789603Y-56097968D01*
X135789603Y-56097968D01*
G37*
G36*
X138329603Y-56097968D02*
X138329606Y-56097969D01*
X138329605Y-56097969D01*
X138504678Y-56170486D01*
X138504679Y-56170487D01*
X138662241Y-56275767D01*
X138796233Y-56409759D01*
X138796234Y-56409761D01*
X138901514Y-56567322D01*
X138957603Y-56702734D01*
X138974032Y-56742397D01*
X139011000Y-56928250D01*
X139011000Y-57117750D01*
X138974032Y-57303603D01*
X138974031Y-57303605D01*
X138901514Y-57478678D01*
X138901513Y-57478679D01*
X138796233Y-57636241D01*
X138662241Y-57770233D01*
X138582923Y-57823232D01*
X138504678Y-57875514D01*
X138369266Y-57931603D01*
X138329603Y-57948032D01*
X138143750Y-57985000D01*
X137954250Y-57985000D01*
X137768397Y-57948032D01*
X137728734Y-57931603D01*
X137593322Y-57875514D01*
X137515077Y-57823232D01*
X137435759Y-57770233D01*
X137301767Y-57636241D01*
X137196487Y-57478679D01*
X137196486Y-57478678D01*
X137123969Y-57303605D01*
X137123968Y-57303603D01*
X137087000Y-57117750D01*
X137087000Y-56928250D01*
X137123968Y-56742397D01*
X137140397Y-56702734D01*
X137196486Y-56567322D01*
X137301766Y-56409761D01*
X137301767Y-56409759D01*
X137435759Y-56275767D01*
X137593321Y-56170487D01*
X137593322Y-56170486D01*
X137768395Y-56097969D01*
X137768394Y-56097969D01*
X137768397Y-56097968D01*
X137954250Y-56061000D01*
X138143750Y-56061000D01*
X138329603Y-56097968D01*
X138329603Y-56097968D01*
G37*
G36*
X140869603Y-56097968D02*
X140869606Y-56097969D01*
X140869605Y-56097969D01*
X141044678Y-56170486D01*
X141044679Y-56170487D01*
X141202241Y-56275767D01*
X141336233Y-56409759D01*
X141336234Y-56409761D01*
X141441514Y-56567322D01*
X141497603Y-56702734D01*
X141514032Y-56742397D01*
X141551000Y-56928250D01*
X141551000Y-57117750D01*
X141514032Y-57303603D01*
X141514031Y-57303605D01*
X141441514Y-57478678D01*
X141441513Y-57478679D01*
X141336233Y-57636241D01*
X141202241Y-57770233D01*
X141122923Y-57823232D01*
X141044678Y-57875514D01*
X140909266Y-57931603D01*
X140869603Y-57948032D01*
X140683750Y-57985000D01*
X140494250Y-57985000D01*
X140308397Y-57948032D01*
X140268734Y-57931603D01*
X140133322Y-57875514D01*
X140055077Y-57823232D01*
X139975759Y-57770233D01*
X139841767Y-57636241D01*
X139736487Y-57478679D01*
X139736486Y-57478678D01*
X139663969Y-57303605D01*
X139663968Y-57303603D01*
X139627000Y-57117750D01*
X139627000Y-56928250D01*
X139663968Y-56742397D01*
X139680397Y-56702734D01*
X139736486Y-56567322D01*
X139841766Y-56409761D01*
X139841767Y-56409759D01*
X139975759Y-56275767D01*
X140133321Y-56170487D01*
X140133322Y-56170486D01*
X140308395Y-56097969D01*
X140308394Y-56097969D01*
X140308397Y-56097968D01*
X140494250Y-56061000D01*
X140683750Y-56061000D01*
X140869603Y-56097968D01*
X140869603Y-56097968D01*
G37*
G36*
X110389603Y-56097968D02*
X110389606Y-56097969D01*
X110389605Y-56097969D01*
X110564678Y-56170486D01*
X110564679Y-56170487D01*
X110722241Y-56275767D01*
X110856233Y-56409759D01*
X110856234Y-56409761D01*
X110961514Y-56567322D01*
X111017603Y-56702734D01*
X111034032Y-56742397D01*
X111071000Y-56928250D01*
X111071000Y-57117750D01*
X111034032Y-57303603D01*
X111034031Y-57303605D01*
X110961514Y-57478678D01*
X110961513Y-57478679D01*
X110856233Y-57636241D01*
X110722241Y-57770233D01*
X110642923Y-57823232D01*
X110564678Y-57875514D01*
X110429266Y-57931603D01*
X110389603Y-57948032D01*
X110203750Y-57985000D01*
X110014250Y-57985000D01*
X109828397Y-57948032D01*
X109788734Y-57931603D01*
X109653322Y-57875514D01*
X109575077Y-57823232D01*
X109495759Y-57770233D01*
X109361767Y-57636241D01*
X109256487Y-57478679D01*
X109256486Y-57478678D01*
X109183969Y-57303605D01*
X109183968Y-57303603D01*
X109147000Y-57117750D01*
X109147000Y-56928250D01*
X109183968Y-56742397D01*
X109200397Y-56702734D01*
X109256486Y-56567322D01*
X109361766Y-56409761D01*
X109361767Y-56409759D01*
X109495759Y-56275767D01*
X109653321Y-56170487D01*
X109653322Y-56170486D01*
X109828395Y-56097969D01*
X109828394Y-56097969D01*
X109828397Y-56097968D01*
X110014250Y-56061000D01*
X110203750Y-56061000D01*
X110389603Y-56097968D01*
X110389603Y-56097968D01*
G37*
G36*
X70404017Y-52132724D02*
X70551630Y-52177503D01*
X70687677Y-52250222D01*
X70806919Y-52348081D01*
X70904778Y-52467323D01*
X70977497Y-52603370D01*
X71022276Y-52750983D01*
X71038000Y-52910640D01*
X71038000Y-54723360D01*
X71022276Y-54883017D01*
X70977497Y-55030630D01*
X70904778Y-55166677D01*
X70806919Y-55285919D01*
X70687677Y-55383778D01*
X70551630Y-55456497D01*
X70404017Y-55501276D01*
X70244360Y-55517000D01*
X67931640Y-55517000D01*
X67771983Y-55501276D01*
X67624370Y-55456497D01*
X67488323Y-55383778D01*
X67369081Y-55285919D01*
X67271222Y-55166677D01*
X67198503Y-55030630D01*
X67153724Y-54883017D01*
X67138000Y-54723360D01*
X67138000Y-52910640D01*
X67153724Y-52750983D01*
X67198503Y-52603370D01*
X67271222Y-52467323D01*
X67369081Y-52348081D01*
X67488323Y-52250222D01*
X67624370Y-52177503D01*
X67771983Y-52132724D01*
X67931640Y-52117000D01*
X70244360Y-52117000D01*
X70404017Y-52132724D01*
X70404017Y-52132724D01*
G37*
G36*
X58956122Y-51713115D02*
X59072041Y-51736173D01*
X59399620Y-51871861D01*
X59690511Y-52066228D01*
X59694436Y-52068851D01*
X59945149Y-52319564D01*
X59945151Y-52319567D01*
X60043879Y-52467323D01*
X60142140Y-52614382D01*
X60277827Y-52941960D01*
X60347000Y-53289714D01*
X60347000Y-53644286D01*
X60277827Y-53992040D01*
X60142140Y-54319618D01*
X59945149Y-54614436D01*
X59694436Y-54865149D01*
X59694433Y-54865151D01*
X59399620Y-55062139D01*
X59072041Y-55197827D01*
X58956122Y-55220885D01*
X58724286Y-55267000D01*
X58369714Y-55267000D01*
X58137878Y-55220885D01*
X58021959Y-55197827D01*
X57694380Y-55062139D01*
X57399567Y-54865151D01*
X57399564Y-54865149D01*
X57148851Y-54614436D01*
X56951860Y-54319618D01*
X56816173Y-53992040D01*
X56747000Y-53644286D01*
X56747000Y-53289714D01*
X56816173Y-52941960D01*
X56951860Y-52614382D01*
X57050122Y-52467323D01*
X57148849Y-52319567D01*
X57148851Y-52319564D01*
X57399564Y-52068851D01*
X57403489Y-52066228D01*
X57694380Y-51871861D01*
X58021959Y-51736173D01*
X58137878Y-51713115D01*
X58369714Y-51667000D01*
X58724286Y-51667000D01*
X58956122Y-51713115D01*
X58956122Y-51713115D01*
G37*
G36*
X152682122Y-51713115D02*
X152798041Y-51736173D01*
X153125620Y-51871861D01*
X153416511Y-52066228D01*
X153420436Y-52068851D01*
X153671149Y-52319564D01*
X153671151Y-52319567D01*
X153769879Y-52467323D01*
X153868140Y-52614382D01*
X154003827Y-52941960D01*
X154073000Y-53289714D01*
X154073000Y-53644286D01*
X154003827Y-53992040D01*
X153868140Y-54319618D01*
X153671149Y-54614436D01*
X153420436Y-54865149D01*
X153420433Y-54865151D01*
X153125620Y-55062139D01*
X152798041Y-55197827D01*
X152682122Y-55220885D01*
X152450286Y-55267000D01*
X152095714Y-55267000D01*
X151863878Y-55220885D01*
X151747959Y-55197827D01*
X151420380Y-55062139D01*
X151125567Y-54865151D01*
X151125564Y-54865149D01*
X150874851Y-54614436D01*
X150677860Y-54319618D01*
X150542173Y-53992040D01*
X150473000Y-53644286D01*
X150473000Y-53289714D01*
X150542173Y-52941960D01*
X150677860Y-52614382D01*
X150776122Y-52467323D01*
X150874849Y-52319567D01*
X150874851Y-52319564D01*
X151125564Y-52068851D01*
X151129489Y-52066228D01*
X151420380Y-51871861D01*
X151747959Y-51736173D01*
X151863878Y-51713115D01*
X152095714Y-51667000D01*
X152450286Y-51667000D01*
X152682122Y-51713115D01*
X152682122Y-51713115D01*
G37*
M02*
