M48
;DRILL file {KiCad 5.0.2-bee76a0~70~ubuntu18.04.1} date Tue 08 Oct 2019 11:05:00 PM PDT
;FORMAT={-:-/ absolute / inch / decimal}
FMAT,2
INCH,TZ
T1C0.0130
T2C0.0300
T3C0.0315
T4C0.0350
T5C0.0394
T6C0.0591
T7C0.0800
%
G90
G05
T1
X2.255Y-3.195
X2.26Y-4.09
X2.29Y-3.395
X2.305Y-3.765
X2.305Y-3.885
X2.555Y-2.615
X2.7Y-3.735
X4.2377Y-3.3827
X4.2465Y-2.725
X4.355Y-2.33
X4.385Y-3.435
X4.51Y-2.82
X4.59Y-3.345
X4.6119Y-3.3139
X4.635Y-3.285
X4.815Y-2.52
X4.88Y-3.62
X4.905Y-3.185
X4.935Y-3.36
X4.94Y-2.855
X4.965Y-3.185
X4.99Y-3.695
X4.995Y-3.755
X5.25Y-3.225
X5.25Y-3.262
X5.27Y-3.19
X5.48Y-3.26
X6.Y-2.875
T2
X4.035Y-2.245
X4.135Y-2.245
X4.235Y-2.245
X4.335Y-2.245
X4.435Y-2.245
X4.535Y-2.245
X4.635Y-2.245
X4.735Y-2.245
X4.835Y-2.245
X4.935Y-2.245
X5.035Y-2.245
X5.135Y-2.245
X5.235Y-2.245
X5.335Y-2.245
X5.435Y-2.245
X5.535Y-2.245
X2.895Y-2.84
X2.895Y-2.94
X2.895Y-3.04
X2.895Y-3.14
X2.895Y-3.24
X2.895Y-3.34
X2.895Y-3.44
X2.895Y-3.54
X2.895Y-3.64
X2.895Y-3.74
X3.695Y-2.84
X3.695Y-2.94
X3.695Y-3.04
X3.695Y-3.14
X3.695Y-3.24
X3.695Y-3.34
X3.695Y-3.44
X3.695Y-3.54
X3.695Y-3.64
X3.695Y-3.74
T3
X4.7181Y-2.68
X4.915Y-2.68
T4
X2.815Y-4.405
X2.915Y-4.405
X3.68Y-4.405
X3.78Y-4.405
T5
X3.565Y-2.35
X3.565Y-2.45
X3.665Y-2.35
X3.665Y-2.45
X3.765Y-2.35
X3.765Y-2.45
X4.23Y-4.44
X4.23Y-4.5384
X4.23Y-4.6369
X4.8009Y-4.44
X4.8009Y-4.6369
X5.2Y-4.44
X5.2Y-4.5384
X5.2Y-4.6369
X5.7709Y-4.44
X5.7709Y-4.6369
X5.715Y-3.01
X5.715Y-3.11
X5.715Y-3.21
X5.715Y-3.31
X5.715Y-3.41
X5.715Y-3.51
T7
X2.615Y-4.605
X3.015Y-4.605
X3.48Y-4.605
X3.88Y-4.605
T5
X2.535Y-2.1975G85X2.535Y-2.2763
G05
X2.7594Y-2.1188G85X2.6806Y-2.1188
G05
X2.7594Y-2.355G85X2.6806Y-2.355
G05
T6
X4.4997Y-4.318G85X4.5509Y-4.318
G05
X4.4997Y-4.7589G85X4.5509Y-4.7589
G05
X5.4697Y-4.318G85X5.5209Y-4.318
G05
X5.4697Y-4.7589G85X5.5209Y-4.7589
G05
T0
M30
