%TF.GenerationSoftware,KiCad,Pcbnew,5.0.2-bee76a0~70~ubuntu18.04.1*%
%TF.CreationDate,2019-10-08T23:09:48-07:00*%
%TF.ProjectId,AD9850,41443938-3530-42e6-9b69-6361645f7063,rev?*%
%TF.SameCoordinates,Original*%
%TF.FileFunction,Legend,Bot*%
%TF.FilePolarity,Positive*%
%FSLAX46Y46*%
G04 Gerber Fmt 4.6, Leading zero omitted, Abs format (unit mm)*
G04 Created by KiCad (PCBNEW 5.0.2-bee76a0~70~ubuntu18.04.1) date Tue 08 Oct 2019 11:09:48 PM PDT*
%MOMM*%
%LPD*%
G01*
G04 APERTURE LIST*
%ADD10C,0.300000*%
%ADD11C,0.150000*%
G04 APERTURE END LIST*
D10*
X128376285Y-98180857D02*
X128162000Y-98252285D01*
X128090571Y-98323714D01*
X128019142Y-98466571D01*
X128019142Y-98680857D01*
X128090571Y-98823714D01*
X128162000Y-98895142D01*
X128304857Y-98966571D01*
X128876285Y-98966571D01*
X128876285Y-97466571D01*
X128376285Y-97466571D01*
X128233428Y-97538000D01*
X128162000Y-97609428D01*
X128090571Y-97752285D01*
X128090571Y-97895142D01*
X128162000Y-98038000D01*
X128233428Y-98109428D01*
X128376285Y-98180857D01*
X128876285Y-98180857D01*
X127162000Y-98966571D02*
X127304857Y-98895142D01*
X127376285Y-98823714D01*
X127447714Y-98680857D01*
X127447714Y-98252285D01*
X127376285Y-98109428D01*
X127304857Y-98038000D01*
X127162000Y-97966571D01*
X126947714Y-97966571D01*
X126804857Y-98038000D01*
X126733428Y-98109428D01*
X126662000Y-98252285D01*
X126662000Y-98680857D01*
X126733428Y-98823714D01*
X126804857Y-98895142D01*
X126947714Y-98966571D01*
X127162000Y-98966571D01*
X125804857Y-98966571D02*
X125947714Y-98895142D01*
X126019142Y-98752285D01*
X126019142Y-97466571D01*
X124590571Y-98966571D02*
X124590571Y-97466571D01*
X124590571Y-98895142D02*
X124733428Y-98966571D01*
X125019142Y-98966571D01*
X125162000Y-98895142D01*
X125233428Y-98823714D01*
X125304857Y-98680857D01*
X125304857Y-98252285D01*
X125233428Y-98109428D01*
X125162000Y-98038000D01*
X125019142Y-97966571D01*
X124733428Y-97966571D01*
X124590571Y-98038000D01*
X123876285Y-97966571D02*
X123876285Y-99466571D01*
X123876285Y-98038000D02*
X123733428Y-97966571D01*
X123447714Y-97966571D01*
X123304857Y-98038000D01*
X123233428Y-98109428D01*
X123162000Y-98252285D01*
X123162000Y-98680857D01*
X123233428Y-98823714D01*
X123304857Y-98895142D01*
X123447714Y-98966571D01*
X123733428Y-98966571D01*
X123876285Y-98895142D01*
X122304857Y-98966571D02*
X122447714Y-98895142D01*
X122519142Y-98823714D01*
X122590571Y-98680857D01*
X122590571Y-98252285D01*
X122519142Y-98109428D01*
X122447714Y-98038000D01*
X122304857Y-97966571D01*
X122090571Y-97966571D01*
X121947714Y-98038000D01*
X121876285Y-98109428D01*
X121804857Y-98252285D01*
X121804857Y-98680857D01*
X121876285Y-98823714D01*
X121947714Y-98895142D01*
X122090571Y-98966571D01*
X122304857Y-98966571D01*
X121162000Y-98966571D02*
X121162000Y-97966571D01*
X121162000Y-98252285D02*
X121090571Y-98109428D01*
X121019142Y-98038000D01*
X120876285Y-97966571D01*
X120733428Y-97966571D01*
X120447714Y-97966571D02*
X119876285Y-97966571D01*
X120233428Y-97466571D02*
X120233428Y-98752285D01*
X120162000Y-98895142D01*
X120019142Y-98966571D01*
X119876285Y-98966571D01*
X117376285Y-98823714D02*
X117447714Y-98895142D01*
X117662000Y-98966571D01*
X117804857Y-98966571D01*
X118019142Y-98895142D01*
X118162000Y-98752285D01*
X118233428Y-98609428D01*
X118304857Y-98323714D01*
X118304857Y-98109428D01*
X118233428Y-97823714D01*
X118162000Y-97680857D01*
X118019142Y-97538000D01*
X117804857Y-97466571D01*
X117662000Y-97466571D01*
X117447714Y-97538000D01*
X117376285Y-97609428D01*
X116519142Y-98966571D02*
X116662000Y-98895142D01*
X116733428Y-98752285D01*
X116733428Y-97466571D01*
X115304857Y-97966571D02*
X115304857Y-98966571D01*
X115947714Y-97966571D02*
X115947714Y-98752285D01*
X115876285Y-98895142D01*
X115733428Y-98966571D01*
X115519142Y-98966571D01*
X115376285Y-98895142D01*
X115304857Y-98823714D01*
X114590571Y-98966571D02*
X114590571Y-97466571D01*
X114590571Y-98038000D02*
X114447714Y-97966571D01*
X114162000Y-97966571D01*
X114019142Y-98038000D01*
X113947714Y-98109428D01*
X113876285Y-98252285D01*
X113876285Y-98680857D01*
X113947714Y-98823714D01*
X114019142Y-98895142D01*
X114162000Y-98966571D01*
X114447714Y-98966571D01*
X114590571Y-98895142D01*
X127233428Y-100730857D02*
X127019142Y-100802285D01*
X126947714Y-100873714D01*
X126876285Y-101016571D01*
X126876285Y-101230857D01*
X126947714Y-101373714D01*
X127019142Y-101445142D01*
X127162000Y-101516571D01*
X127733428Y-101516571D01*
X127733428Y-100016571D01*
X127233428Y-100016571D01*
X127090571Y-100088000D01*
X127019142Y-100159428D01*
X126947714Y-100302285D01*
X126947714Y-100445142D01*
X127019142Y-100588000D01*
X127090571Y-100659428D01*
X127233428Y-100730857D01*
X127733428Y-100730857D01*
X126019142Y-101516571D02*
X126162000Y-101445142D01*
X126233428Y-101373714D01*
X126304857Y-101230857D01*
X126304857Y-100802285D01*
X126233428Y-100659428D01*
X126162000Y-100588000D01*
X126019142Y-100516571D01*
X125804857Y-100516571D01*
X125662000Y-100588000D01*
X125590571Y-100659428D01*
X125519142Y-100802285D01*
X125519142Y-101230857D01*
X125590571Y-101373714D01*
X125662000Y-101445142D01*
X125804857Y-101516571D01*
X126019142Y-101516571D01*
X124233428Y-101516571D02*
X124233428Y-100730857D01*
X124304857Y-100588000D01*
X124447714Y-100516571D01*
X124733428Y-100516571D01*
X124876285Y-100588000D01*
X124233428Y-101445142D02*
X124376285Y-101516571D01*
X124733428Y-101516571D01*
X124876285Y-101445142D01*
X124947714Y-101302285D01*
X124947714Y-101159428D01*
X124876285Y-101016571D01*
X124733428Y-100945142D01*
X124376285Y-100945142D01*
X124233428Y-100873714D01*
X123519142Y-101516571D02*
X123519142Y-100516571D01*
X123519142Y-100802285D02*
X123447714Y-100659428D01*
X123376285Y-100588000D01*
X123233428Y-100516571D01*
X123090571Y-100516571D01*
X121947714Y-101516571D02*
X121947714Y-100016571D01*
X121947714Y-101445142D02*
X122090571Y-101516571D01*
X122376285Y-101516571D01*
X122519142Y-101445142D01*
X122590571Y-101373714D01*
X122662000Y-101230857D01*
X122662000Y-100802285D01*
X122590571Y-100659428D01*
X122519142Y-100588000D01*
X122376285Y-100516571D01*
X122090571Y-100516571D01*
X121947714Y-100588000D01*
X120162000Y-101445142D02*
X119947714Y-101516571D01*
X119590571Y-101516571D01*
X119447714Y-101445142D01*
X119376285Y-101373714D01*
X119304857Y-101230857D01*
X119304857Y-101088000D01*
X119376285Y-100945142D01*
X119447714Y-100873714D01*
X119590571Y-100802285D01*
X119876285Y-100730857D01*
X120019142Y-100659428D01*
X120090571Y-100588000D01*
X120162000Y-100445142D01*
X120162000Y-100302285D01*
X120090571Y-100159428D01*
X120019142Y-100088000D01*
X119876285Y-100016571D01*
X119519142Y-100016571D01*
X119304857Y-100088000D01*
X118804857Y-100516571D02*
X118519142Y-101516571D01*
X118233428Y-100802285D01*
X117947714Y-101516571D01*
X117662000Y-100516571D01*
X116447714Y-101516571D02*
X116447714Y-100730857D01*
X116519142Y-100588000D01*
X116662000Y-100516571D01*
X116947714Y-100516571D01*
X117090571Y-100588000D01*
X116447714Y-101445142D02*
X116590571Y-101516571D01*
X116947714Y-101516571D01*
X117090571Y-101445142D01*
X117162000Y-101302285D01*
X117162000Y-101159428D01*
X117090571Y-101016571D01*
X116947714Y-100945142D01*
X116590571Y-100945142D01*
X116447714Y-100873714D01*
X115733428Y-100516571D02*
X115733428Y-102016571D01*
X115733428Y-100588000D02*
X115590571Y-100516571D01*
X115304857Y-100516571D01*
X115162000Y-100588000D01*
X115090571Y-100659428D01*
X115019142Y-100802285D01*
X115019142Y-101230857D01*
X115090571Y-101373714D01*
X115162000Y-101445142D01*
X115304857Y-101516571D01*
X115590571Y-101516571D01*
X115733428Y-101445142D01*
X129804857Y-103066571D02*
X129804857Y-104280857D01*
X129876285Y-104423714D01*
X129947714Y-104495142D01*
X130090571Y-104566571D01*
X130304857Y-104566571D01*
X130447714Y-104495142D01*
X129804857Y-103995142D02*
X129947714Y-104066571D01*
X130233428Y-104066571D01*
X130376285Y-103995142D01*
X130447714Y-103923714D01*
X130519142Y-103780857D01*
X130519142Y-103352285D01*
X130447714Y-103209428D01*
X130376285Y-103138000D01*
X130233428Y-103066571D01*
X129947714Y-103066571D01*
X129804857Y-103138000D01*
X129090571Y-104066571D02*
X129090571Y-103066571D01*
X129090571Y-103352285D02*
X129019142Y-103209428D01*
X128947714Y-103138000D01*
X128804857Y-103066571D01*
X128662000Y-103066571D01*
X128376285Y-103066571D02*
X127804857Y-103066571D01*
X128162000Y-102566571D02*
X128162000Y-103852285D01*
X128090571Y-103995142D01*
X127947714Y-104066571D01*
X127804857Y-104066571D01*
X127447714Y-103066571D02*
X127090571Y-104066571D01*
X126733428Y-103066571D02*
X127090571Y-104066571D01*
X127233428Y-104423714D01*
X127304857Y-104495142D01*
X127447714Y-104566571D01*
X126304857Y-103066571D02*
X125947714Y-104066571D01*
X125590571Y-103066571D01*
X125019142Y-104066571D02*
X125019142Y-103066571D01*
X125019142Y-103352285D02*
X124947714Y-103209428D01*
X124876285Y-103138000D01*
X124733428Y-103066571D01*
X124590571Y-103066571D01*
X122662000Y-102566571D02*
X122376285Y-102566571D01*
X122233428Y-102638000D01*
X122090571Y-102780857D01*
X122019142Y-103066571D01*
X122019142Y-103566571D01*
X122090571Y-103852285D01*
X122233428Y-103995142D01*
X122376285Y-104066571D01*
X122662000Y-104066571D01*
X122804857Y-103995142D01*
X122947714Y-103852285D01*
X123019142Y-103566571D01*
X123019142Y-103066571D01*
X122947714Y-102780857D01*
X122804857Y-102638000D01*
X122662000Y-102566571D01*
X120733428Y-103995142D02*
X120876285Y-104066571D01*
X121162000Y-104066571D01*
X121304857Y-103995142D01*
X121376285Y-103923714D01*
X121447714Y-103780857D01*
X121447714Y-103352285D01*
X121376285Y-103209428D01*
X121304857Y-103138000D01*
X121162000Y-103066571D01*
X120876285Y-103066571D01*
X120733428Y-103138000D01*
X120304857Y-103066571D02*
X119733428Y-103066571D01*
X120090571Y-102566571D02*
X120090571Y-103852285D01*
X120019142Y-103995142D01*
X119876285Y-104066571D01*
X119733428Y-104066571D01*
X119233428Y-103923714D02*
X119162000Y-103995142D01*
X119233428Y-104066571D01*
X119304857Y-103995142D01*
X119233428Y-103923714D01*
X119233428Y-104066571D01*
X117447714Y-102709428D02*
X117376285Y-102638000D01*
X117233428Y-102566571D01*
X116876285Y-102566571D01*
X116733428Y-102638000D01*
X116662000Y-102709428D01*
X116590571Y-102852285D01*
X116590571Y-102995142D01*
X116662000Y-103209428D01*
X117519142Y-104066571D01*
X116590571Y-104066571D01*
X115662000Y-102566571D02*
X115519142Y-102566571D01*
X115376285Y-102638000D01*
X115304857Y-102709428D01*
X115233428Y-102852285D01*
X115162000Y-103138000D01*
X115162000Y-103495142D01*
X115233428Y-103780857D01*
X115304857Y-103923714D01*
X115376285Y-103995142D01*
X115519142Y-104066571D01*
X115662000Y-104066571D01*
X115804857Y-103995142D01*
X115876285Y-103923714D01*
X115947714Y-103780857D01*
X116019142Y-103495142D01*
X116019142Y-103138000D01*
X115947714Y-102852285D01*
X115876285Y-102709428D01*
X115804857Y-102638000D01*
X115662000Y-102566571D01*
X113733428Y-104066571D02*
X114590571Y-104066571D01*
X114162000Y-104066571D02*
X114162000Y-102566571D01*
X114304857Y-102780857D01*
X114447714Y-102923714D01*
X114590571Y-102995142D01*
X113019142Y-104066571D02*
X112733428Y-104066571D01*
X112590571Y-103995142D01*
X112519142Y-103923714D01*
X112376285Y-103709428D01*
X112304857Y-103423714D01*
X112304857Y-102852285D01*
X112376285Y-102709428D01*
X112447714Y-102638000D01*
X112590571Y-102566571D01*
X112876285Y-102566571D01*
X113019142Y-102638000D01*
X113090571Y-102709428D01*
X113162000Y-102852285D01*
X113162000Y-103209428D01*
X113090571Y-103352285D01*
X113019142Y-103423714D01*
X112876285Y-103495142D01*
X112590571Y-103495142D01*
X112447714Y-103423714D01*
X112376285Y-103352285D01*
X112304857Y-103209428D01*
D11*
X54610000Y-121793000D02*
X54610000Y-53467000D01*
X152146000Y-125730000D02*
X58547000Y-125730000D01*
X156210000Y-53467000D02*
X156210000Y-121666000D01*
X58547000Y-49530000D02*
X152273000Y-49530000D01*
X54610000Y-53467000D02*
G75*
G02X58547000Y-49530000I3937000J0D01*
G01*
X58547000Y-125730000D02*
G75*
G02X54610000Y-121793000I0J3937000D01*
G01*
X156210000Y-121666000D02*
G75*
G02X152146000Y-125730000I-4064000J0D01*
G01*
X152273000Y-49530000D02*
G75*
G02X156210000Y-53467000I0J-3937000D01*
G01*
M02*
