%TF.GenerationSoftware,KiCad,Pcbnew,5.0.2-bee76a0~70~ubuntu18.04.1*%
%TF.CreationDate,2019-10-08T23:09:48-07:00*%
%TF.ProjectId,AD9850,41443938-3530-42e6-9b69-6361645f7063,rev?*%
%TF.SameCoordinates,Original*%
%TF.FileFunction,Paste,Top*%
%TF.FilePolarity,Positive*%
%FSLAX46Y46*%
G04 Gerber Fmt 4.6, Leading zero omitted, Abs format (unit mm)*
G04 Created by KiCad (PCBNEW 5.0.2-bee76a0~70~ubuntu18.04.1) date Tue 08 Oct 2019 11:09:48 PM PDT*
%MOMM*%
%LPD*%
G01*
G04 APERTURE LIST*
%ADD10C,0.150000*%
%ADD11C,0.100000*%
%ADD12C,0.950000*%
%ADD13R,1.000000X3.100000*%
%ADD14R,0.900000X0.800000*%
%ADD15R,3.800000X2.000000*%
%ADD16R,1.500000X2.000000*%
%ADD17C,1.600000*%
%ADD18R,0.550000X1.600000*%
%ADD19R,1.600000X0.550000*%
G04 APERTURE END LIST*
D10*
X54610000Y-121793000D02*
X54610000Y-53467000D01*
X152146000Y-125730000D02*
X58547000Y-125730000D01*
X156210000Y-53467000D02*
X156210000Y-121666000D01*
X58547000Y-49530000D02*
X152273000Y-49530000D01*
X54610000Y-53467000D02*
G75*
G02X58547000Y-49530000I3937000J0D01*
G01*
X58547000Y-125730000D02*
G75*
G02X54610000Y-121793000I0J3937000D01*
G01*
X156210000Y-121666000D02*
G75*
G02X152146000Y-125730000I-4064000J0D01*
G01*
X152273000Y-49530000D02*
G75*
G02X156210000Y-53467000I0J-3937000D01*
G01*
D11*
G36*
X120946779Y-63534144D02*
X120969834Y-63537563D01*
X120992443Y-63543227D01*
X121014387Y-63551079D01*
X121035457Y-63561044D01*
X121055448Y-63573026D01*
X121074168Y-63586910D01*
X121091438Y-63602562D01*
X121107090Y-63619832D01*
X121120974Y-63638552D01*
X121132956Y-63658543D01*
X121142921Y-63679613D01*
X121150773Y-63701557D01*
X121156437Y-63724166D01*
X121159856Y-63747221D01*
X121161000Y-63770500D01*
X121161000Y-64245500D01*
X121159856Y-64268779D01*
X121156437Y-64291834D01*
X121150773Y-64314443D01*
X121142921Y-64336387D01*
X121132956Y-64357457D01*
X121120974Y-64377448D01*
X121107090Y-64396168D01*
X121091438Y-64413438D01*
X121074168Y-64429090D01*
X121055448Y-64442974D01*
X121035457Y-64454956D01*
X121014387Y-64464921D01*
X120992443Y-64472773D01*
X120969834Y-64478437D01*
X120946779Y-64481856D01*
X120923500Y-64483000D01*
X120348500Y-64483000D01*
X120325221Y-64481856D01*
X120302166Y-64478437D01*
X120279557Y-64472773D01*
X120257613Y-64464921D01*
X120236543Y-64454956D01*
X120216552Y-64442974D01*
X120197832Y-64429090D01*
X120180562Y-64413438D01*
X120164910Y-64396168D01*
X120151026Y-64377448D01*
X120139044Y-64357457D01*
X120129079Y-64336387D01*
X120121227Y-64314443D01*
X120115563Y-64291834D01*
X120112144Y-64268779D01*
X120111000Y-64245500D01*
X120111000Y-63770500D01*
X120112144Y-63747221D01*
X120115563Y-63724166D01*
X120121227Y-63701557D01*
X120129079Y-63679613D01*
X120139044Y-63658543D01*
X120151026Y-63638552D01*
X120164910Y-63619832D01*
X120180562Y-63602562D01*
X120197832Y-63586910D01*
X120216552Y-63573026D01*
X120236543Y-63561044D01*
X120257613Y-63551079D01*
X120279557Y-63543227D01*
X120302166Y-63537563D01*
X120325221Y-63534144D01*
X120348500Y-63533000D01*
X120923500Y-63533000D01*
X120946779Y-63534144D01*
X120946779Y-63534144D01*
G37*
D12*
X120636000Y-64008000D03*
D11*
G36*
X119196779Y-63534144D02*
X119219834Y-63537563D01*
X119242443Y-63543227D01*
X119264387Y-63551079D01*
X119285457Y-63561044D01*
X119305448Y-63573026D01*
X119324168Y-63586910D01*
X119341438Y-63602562D01*
X119357090Y-63619832D01*
X119370974Y-63638552D01*
X119382956Y-63658543D01*
X119392921Y-63679613D01*
X119400773Y-63701557D01*
X119406437Y-63724166D01*
X119409856Y-63747221D01*
X119411000Y-63770500D01*
X119411000Y-64245500D01*
X119409856Y-64268779D01*
X119406437Y-64291834D01*
X119400773Y-64314443D01*
X119392921Y-64336387D01*
X119382956Y-64357457D01*
X119370974Y-64377448D01*
X119357090Y-64396168D01*
X119341438Y-64413438D01*
X119324168Y-64429090D01*
X119305448Y-64442974D01*
X119285457Y-64454956D01*
X119264387Y-64464921D01*
X119242443Y-64472773D01*
X119219834Y-64478437D01*
X119196779Y-64481856D01*
X119173500Y-64483000D01*
X118598500Y-64483000D01*
X118575221Y-64481856D01*
X118552166Y-64478437D01*
X118529557Y-64472773D01*
X118507613Y-64464921D01*
X118486543Y-64454956D01*
X118466552Y-64442974D01*
X118447832Y-64429090D01*
X118430562Y-64413438D01*
X118414910Y-64396168D01*
X118401026Y-64377448D01*
X118389044Y-64357457D01*
X118379079Y-64336387D01*
X118371227Y-64314443D01*
X118365563Y-64291834D01*
X118362144Y-64268779D01*
X118361000Y-64245500D01*
X118361000Y-63770500D01*
X118362144Y-63747221D01*
X118365563Y-63724166D01*
X118371227Y-63701557D01*
X118379079Y-63679613D01*
X118389044Y-63658543D01*
X118401026Y-63638552D01*
X118414910Y-63619832D01*
X118430562Y-63602562D01*
X118447832Y-63586910D01*
X118466552Y-63573026D01*
X118486543Y-63561044D01*
X118507613Y-63551079D01*
X118529557Y-63543227D01*
X118552166Y-63537563D01*
X118575221Y-63534144D01*
X118598500Y-63533000D01*
X119173500Y-63533000D01*
X119196779Y-63534144D01*
X119196779Y-63534144D01*
G37*
D12*
X118886000Y-64008000D03*
D13*
X148368000Y-61717000D03*
X152368000Y-61717000D03*
X148368000Y-70617000D03*
X152368000Y-70617000D03*
D14*
X61913107Y-70993353D03*
X61913107Y-72893353D03*
X63913107Y-71943353D03*
D15*
X63119000Y-89306000D03*
D16*
X63119000Y-95606000D03*
X65419000Y-95606000D03*
X60819000Y-95606000D03*
D11*
G36*
X67216504Y-103087204D02*
X67240773Y-103090804D01*
X67264571Y-103096765D01*
X67287671Y-103105030D01*
X67309849Y-103115520D01*
X67330893Y-103128133D01*
X67350598Y-103142747D01*
X67368777Y-103159223D01*
X67385253Y-103177402D01*
X67399867Y-103197107D01*
X67412480Y-103218151D01*
X67422970Y-103240329D01*
X67431235Y-103263429D01*
X67437196Y-103287227D01*
X67440796Y-103311496D01*
X67442000Y-103336000D01*
X67442000Y-104436000D01*
X67440796Y-104460504D01*
X67437196Y-104484773D01*
X67431235Y-104508571D01*
X67422970Y-104531671D01*
X67412480Y-104553849D01*
X67399867Y-104574893D01*
X67385253Y-104594598D01*
X67368777Y-104612777D01*
X67350598Y-104629253D01*
X67330893Y-104643867D01*
X67309849Y-104656480D01*
X67287671Y-104666970D01*
X67264571Y-104675235D01*
X67240773Y-104681196D01*
X67216504Y-104684796D01*
X67192000Y-104686000D01*
X64192000Y-104686000D01*
X64167496Y-104684796D01*
X64143227Y-104681196D01*
X64119429Y-104675235D01*
X64096329Y-104666970D01*
X64074151Y-104656480D01*
X64053107Y-104643867D01*
X64033402Y-104629253D01*
X64015223Y-104612777D01*
X63998747Y-104594598D01*
X63984133Y-104574893D01*
X63971520Y-104553849D01*
X63961030Y-104531671D01*
X63952765Y-104508571D01*
X63946804Y-104484773D01*
X63943204Y-104460504D01*
X63942000Y-104436000D01*
X63942000Y-103336000D01*
X63943204Y-103311496D01*
X63946804Y-103287227D01*
X63952765Y-103263429D01*
X63961030Y-103240329D01*
X63971520Y-103218151D01*
X63984133Y-103197107D01*
X63998747Y-103177402D01*
X64015223Y-103159223D01*
X64033402Y-103142747D01*
X64053107Y-103128133D01*
X64074151Y-103115520D01*
X64096329Y-103105030D01*
X64119429Y-103096765D01*
X64143227Y-103090804D01*
X64167496Y-103087204D01*
X64192000Y-103086000D01*
X67192000Y-103086000D01*
X67216504Y-103087204D01*
X67216504Y-103087204D01*
G37*
D17*
X65692000Y-103886000D03*
D11*
G36*
X61816504Y-103087204D02*
X61840773Y-103090804D01*
X61864571Y-103096765D01*
X61887671Y-103105030D01*
X61909849Y-103115520D01*
X61930893Y-103128133D01*
X61950598Y-103142747D01*
X61968777Y-103159223D01*
X61985253Y-103177402D01*
X61999867Y-103197107D01*
X62012480Y-103218151D01*
X62022970Y-103240329D01*
X62031235Y-103263429D01*
X62037196Y-103287227D01*
X62040796Y-103311496D01*
X62042000Y-103336000D01*
X62042000Y-104436000D01*
X62040796Y-104460504D01*
X62037196Y-104484773D01*
X62031235Y-104508571D01*
X62022970Y-104531671D01*
X62012480Y-104553849D01*
X61999867Y-104574893D01*
X61985253Y-104594598D01*
X61968777Y-104612777D01*
X61950598Y-104629253D01*
X61930893Y-104643867D01*
X61909849Y-104656480D01*
X61887671Y-104666970D01*
X61864571Y-104675235D01*
X61840773Y-104681196D01*
X61816504Y-104684796D01*
X61792000Y-104686000D01*
X58792000Y-104686000D01*
X58767496Y-104684796D01*
X58743227Y-104681196D01*
X58719429Y-104675235D01*
X58696329Y-104666970D01*
X58674151Y-104656480D01*
X58653107Y-104643867D01*
X58633402Y-104629253D01*
X58615223Y-104612777D01*
X58598747Y-104594598D01*
X58584133Y-104574893D01*
X58571520Y-104553849D01*
X58561030Y-104531671D01*
X58552765Y-104508571D01*
X58546804Y-104484773D01*
X58543204Y-104460504D01*
X58542000Y-104436000D01*
X58542000Y-103336000D01*
X58543204Y-103311496D01*
X58546804Y-103287227D01*
X58552765Y-103263429D01*
X58561030Y-103240329D01*
X58571520Y-103218151D01*
X58584133Y-103197107D01*
X58598747Y-103177402D01*
X58615223Y-103159223D01*
X58633402Y-103142747D01*
X58653107Y-103128133D01*
X58674151Y-103115520D01*
X58696329Y-103105030D01*
X58719429Y-103096765D01*
X58743227Y-103090804D01*
X58767496Y-103087204D01*
X58792000Y-103086000D01*
X61792000Y-103086000D01*
X61816504Y-103087204D01*
X61816504Y-103087204D01*
G37*
D17*
X60292000Y-103886000D03*
D11*
G36*
X61870619Y-80381549D02*
X61894888Y-80385149D01*
X61918686Y-80391110D01*
X61941786Y-80399375D01*
X61963964Y-80409865D01*
X61985008Y-80422478D01*
X62004713Y-80437092D01*
X62022892Y-80453568D01*
X62039368Y-80471747D01*
X62053982Y-80491452D01*
X62066595Y-80512496D01*
X62077085Y-80534674D01*
X62085350Y-80557774D01*
X62091311Y-80581572D01*
X62094911Y-80605841D01*
X62096115Y-80630345D01*
X62096115Y-81730345D01*
X62094911Y-81754849D01*
X62091311Y-81779118D01*
X62085350Y-81802916D01*
X62077085Y-81826016D01*
X62066595Y-81848194D01*
X62053982Y-81869238D01*
X62039368Y-81888943D01*
X62022892Y-81907122D01*
X62004713Y-81923598D01*
X61985008Y-81938212D01*
X61963964Y-81950825D01*
X61941786Y-81961315D01*
X61918686Y-81969580D01*
X61894888Y-81975541D01*
X61870619Y-81979141D01*
X61846115Y-81980345D01*
X58846115Y-81980345D01*
X58821611Y-81979141D01*
X58797342Y-81975541D01*
X58773544Y-81969580D01*
X58750444Y-81961315D01*
X58728266Y-81950825D01*
X58707222Y-81938212D01*
X58687517Y-81923598D01*
X58669338Y-81907122D01*
X58652862Y-81888943D01*
X58638248Y-81869238D01*
X58625635Y-81848194D01*
X58615145Y-81826016D01*
X58606880Y-81802916D01*
X58600919Y-81779118D01*
X58597319Y-81754849D01*
X58596115Y-81730345D01*
X58596115Y-80630345D01*
X58597319Y-80605841D01*
X58600919Y-80581572D01*
X58606880Y-80557774D01*
X58615145Y-80534674D01*
X58625635Y-80512496D01*
X58638248Y-80491452D01*
X58652862Y-80471747D01*
X58669338Y-80453568D01*
X58687517Y-80437092D01*
X58707222Y-80422478D01*
X58728266Y-80409865D01*
X58750444Y-80399375D01*
X58773544Y-80391110D01*
X58797342Y-80385149D01*
X58821611Y-80381549D01*
X58846115Y-80380345D01*
X61846115Y-80380345D01*
X61870619Y-80381549D01*
X61870619Y-80381549D01*
G37*
D17*
X60346115Y-81180345D03*
D11*
G36*
X67270619Y-80381549D02*
X67294888Y-80385149D01*
X67318686Y-80391110D01*
X67341786Y-80399375D01*
X67363964Y-80409865D01*
X67385008Y-80422478D01*
X67404713Y-80437092D01*
X67422892Y-80453568D01*
X67439368Y-80471747D01*
X67453982Y-80491452D01*
X67466595Y-80512496D01*
X67477085Y-80534674D01*
X67485350Y-80557774D01*
X67491311Y-80581572D01*
X67494911Y-80605841D01*
X67496115Y-80630345D01*
X67496115Y-81730345D01*
X67494911Y-81754849D01*
X67491311Y-81779118D01*
X67485350Y-81802916D01*
X67477085Y-81826016D01*
X67466595Y-81848194D01*
X67453982Y-81869238D01*
X67439368Y-81888943D01*
X67422892Y-81907122D01*
X67404713Y-81923598D01*
X67385008Y-81938212D01*
X67363964Y-81950825D01*
X67341786Y-81961315D01*
X67318686Y-81969580D01*
X67294888Y-81975541D01*
X67270619Y-81979141D01*
X67246115Y-81980345D01*
X64246115Y-81980345D01*
X64221611Y-81979141D01*
X64197342Y-81975541D01*
X64173544Y-81969580D01*
X64150444Y-81961315D01*
X64128266Y-81950825D01*
X64107222Y-81938212D01*
X64087517Y-81923598D01*
X64069338Y-81907122D01*
X64052862Y-81888943D01*
X64038248Y-81869238D01*
X64025635Y-81848194D01*
X64015145Y-81826016D01*
X64006880Y-81802916D01*
X64000919Y-81779118D01*
X63997319Y-81754849D01*
X63996115Y-81730345D01*
X63996115Y-80630345D01*
X63997319Y-80605841D01*
X64000919Y-80581572D01*
X64006880Y-80557774D01*
X64015145Y-80534674D01*
X64025635Y-80512496D01*
X64038248Y-80491452D01*
X64052862Y-80471747D01*
X64069338Y-80453568D01*
X64087517Y-80437092D01*
X64107222Y-80422478D01*
X64128266Y-80409865D01*
X64150444Y-80399375D01*
X64173544Y-80391110D01*
X64197342Y-80385149D01*
X64221611Y-80381549D01*
X64246115Y-80380345D01*
X67246115Y-80380345D01*
X67270619Y-80381549D01*
X67270619Y-80381549D01*
G37*
D17*
X65746115Y-81180345D03*
D11*
G36*
X62018779Y-85759144D02*
X62041834Y-85762563D01*
X62064443Y-85768227D01*
X62086387Y-85776079D01*
X62107457Y-85786044D01*
X62127448Y-85798026D01*
X62146168Y-85811910D01*
X62163438Y-85827562D01*
X62179090Y-85844832D01*
X62192974Y-85863552D01*
X62204956Y-85883543D01*
X62214921Y-85904613D01*
X62222773Y-85926557D01*
X62228437Y-85949166D01*
X62231856Y-85972221D01*
X62233000Y-85995500D01*
X62233000Y-86470500D01*
X62231856Y-86493779D01*
X62228437Y-86516834D01*
X62222773Y-86539443D01*
X62214921Y-86561387D01*
X62204956Y-86582457D01*
X62192974Y-86602448D01*
X62179090Y-86621168D01*
X62163438Y-86638438D01*
X62146168Y-86654090D01*
X62127448Y-86667974D01*
X62107457Y-86679956D01*
X62086387Y-86689921D01*
X62064443Y-86697773D01*
X62041834Y-86703437D01*
X62018779Y-86706856D01*
X61995500Y-86708000D01*
X61420500Y-86708000D01*
X61397221Y-86706856D01*
X61374166Y-86703437D01*
X61351557Y-86697773D01*
X61329613Y-86689921D01*
X61308543Y-86679956D01*
X61288552Y-86667974D01*
X61269832Y-86654090D01*
X61252562Y-86638438D01*
X61236910Y-86621168D01*
X61223026Y-86602448D01*
X61211044Y-86582457D01*
X61201079Y-86561387D01*
X61193227Y-86539443D01*
X61187563Y-86516834D01*
X61184144Y-86493779D01*
X61183000Y-86470500D01*
X61183000Y-85995500D01*
X61184144Y-85972221D01*
X61187563Y-85949166D01*
X61193227Y-85926557D01*
X61201079Y-85904613D01*
X61211044Y-85883543D01*
X61223026Y-85863552D01*
X61236910Y-85844832D01*
X61252562Y-85827562D01*
X61269832Y-85811910D01*
X61288552Y-85798026D01*
X61308543Y-85786044D01*
X61329613Y-85776079D01*
X61351557Y-85768227D01*
X61374166Y-85762563D01*
X61397221Y-85759144D01*
X61420500Y-85758000D01*
X61995500Y-85758000D01*
X62018779Y-85759144D01*
X62018779Y-85759144D01*
G37*
D12*
X61708000Y-86233000D03*
D11*
G36*
X60268779Y-85759144D02*
X60291834Y-85762563D01*
X60314443Y-85768227D01*
X60336387Y-85776079D01*
X60357457Y-85786044D01*
X60377448Y-85798026D01*
X60396168Y-85811910D01*
X60413438Y-85827562D01*
X60429090Y-85844832D01*
X60442974Y-85863552D01*
X60454956Y-85883543D01*
X60464921Y-85904613D01*
X60472773Y-85926557D01*
X60478437Y-85949166D01*
X60481856Y-85972221D01*
X60483000Y-85995500D01*
X60483000Y-86470500D01*
X60481856Y-86493779D01*
X60478437Y-86516834D01*
X60472773Y-86539443D01*
X60464921Y-86561387D01*
X60454956Y-86582457D01*
X60442974Y-86602448D01*
X60429090Y-86621168D01*
X60413438Y-86638438D01*
X60396168Y-86654090D01*
X60377448Y-86667974D01*
X60357457Y-86679956D01*
X60336387Y-86689921D01*
X60314443Y-86697773D01*
X60291834Y-86703437D01*
X60268779Y-86706856D01*
X60245500Y-86708000D01*
X59670500Y-86708000D01*
X59647221Y-86706856D01*
X59624166Y-86703437D01*
X59601557Y-86697773D01*
X59579613Y-86689921D01*
X59558543Y-86679956D01*
X59538552Y-86667974D01*
X59519832Y-86654090D01*
X59502562Y-86638438D01*
X59486910Y-86621168D01*
X59473026Y-86602448D01*
X59461044Y-86582457D01*
X59451079Y-86561387D01*
X59443227Y-86539443D01*
X59437563Y-86516834D01*
X59434144Y-86493779D01*
X59433000Y-86470500D01*
X59433000Y-85995500D01*
X59434144Y-85972221D01*
X59437563Y-85949166D01*
X59443227Y-85926557D01*
X59451079Y-85904613D01*
X59461044Y-85883543D01*
X59473026Y-85863552D01*
X59486910Y-85844832D01*
X59502562Y-85827562D01*
X59519832Y-85811910D01*
X59538552Y-85798026D01*
X59558543Y-85786044D01*
X59579613Y-85776079D01*
X59601557Y-85768227D01*
X59624166Y-85762563D01*
X59647221Y-85759144D01*
X59670500Y-85758000D01*
X60245500Y-85758000D01*
X60268779Y-85759144D01*
X60268779Y-85759144D01*
G37*
D12*
X59958000Y-86233000D03*
D11*
G36*
X62272779Y-98205144D02*
X62295834Y-98208563D01*
X62318443Y-98214227D01*
X62340387Y-98222079D01*
X62361457Y-98232044D01*
X62381448Y-98244026D01*
X62400168Y-98257910D01*
X62417438Y-98273562D01*
X62433090Y-98290832D01*
X62446974Y-98309552D01*
X62458956Y-98329543D01*
X62468921Y-98350613D01*
X62476773Y-98372557D01*
X62482437Y-98395166D01*
X62485856Y-98418221D01*
X62487000Y-98441500D01*
X62487000Y-98916500D01*
X62485856Y-98939779D01*
X62482437Y-98962834D01*
X62476773Y-98985443D01*
X62468921Y-99007387D01*
X62458956Y-99028457D01*
X62446974Y-99048448D01*
X62433090Y-99067168D01*
X62417438Y-99084438D01*
X62400168Y-99100090D01*
X62381448Y-99113974D01*
X62361457Y-99125956D01*
X62340387Y-99135921D01*
X62318443Y-99143773D01*
X62295834Y-99149437D01*
X62272779Y-99152856D01*
X62249500Y-99154000D01*
X61674500Y-99154000D01*
X61651221Y-99152856D01*
X61628166Y-99149437D01*
X61605557Y-99143773D01*
X61583613Y-99135921D01*
X61562543Y-99125956D01*
X61542552Y-99113974D01*
X61523832Y-99100090D01*
X61506562Y-99084438D01*
X61490910Y-99067168D01*
X61477026Y-99048448D01*
X61465044Y-99028457D01*
X61455079Y-99007387D01*
X61447227Y-98985443D01*
X61441563Y-98962834D01*
X61438144Y-98939779D01*
X61437000Y-98916500D01*
X61437000Y-98441500D01*
X61438144Y-98418221D01*
X61441563Y-98395166D01*
X61447227Y-98372557D01*
X61455079Y-98350613D01*
X61465044Y-98329543D01*
X61477026Y-98309552D01*
X61490910Y-98290832D01*
X61506562Y-98273562D01*
X61523832Y-98257910D01*
X61542552Y-98244026D01*
X61562543Y-98232044D01*
X61583613Y-98222079D01*
X61605557Y-98214227D01*
X61628166Y-98208563D01*
X61651221Y-98205144D01*
X61674500Y-98204000D01*
X62249500Y-98204000D01*
X62272779Y-98205144D01*
X62272779Y-98205144D01*
G37*
D12*
X61962000Y-98679000D03*
D11*
G36*
X60522779Y-98205144D02*
X60545834Y-98208563D01*
X60568443Y-98214227D01*
X60590387Y-98222079D01*
X60611457Y-98232044D01*
X60631448Y-98244026D01*
X60650168Y-98257910D01*
X60667438Y-98273562D01*
X60683090Y-98290832D01*
X60696974Y-98309552D01*
X60708956Y-98329543D01*
X60718921Y-98350613D01*
X60726773Y-98372557D01*
X60732437Y-98395166D01*
X60735856Y-98418221D01*
X60737000Y-98441500D01*
X60737000Y-98916500D01*
X60735856Y-98939779D01*
X60732437Y-98962834D01*
X60726773Y-98985443D01*
X60718921Y-99007387D01*
X60708956Y-99028457D01*
X60696974Y-99048448D01*
X60683090Y-99067168D01*
X60667438Y-99084438D01*
X60650168Y-99100090D01*
X60631448Y-99113974D01*
X60611457Y-99125956D01*
X60590387Y-99135921D01*
X60568443Y-99143773D01*
X60545834Y-99149437D01*
X60522779Y-99152856D01*
X60499500Y-99154000D01*
X59924500Y-99154000D01*
X59901221Y-99152856D01*
X59878166Y-99149437D01*
X59855557Y-99143773D01*
X59833613Y-99135921D01*
X59812543Y-99125956D01*
X59792552Y-99113974D01*
X59773832Y-99100090D01*
X59756562Y-99084438D01*
X59740910Y-99067168D01*
X59727026Y-99048448D01*
X59715044Y-99028457D01*
X59705079Y-99007387D01*
X59697227Y-98985443D01*
X59691563Y-98962834D01*
X59688144Y-98939779D01*
X59687000Y-98916500D01*
X59687000Y-98441500D01*
X59688144Y-98418221D01*
X59691563Y-98395166D01*
X59697227Y-98372557D01*
X59705079Y-98350613D01*
X59715044Y-98329543D01*
X59727026Y-98309552D01*
X59740910Y-98290832D01*
X59756562Y-98273562D01*
X59773832Y-98257910D01*
X59792552Y-98244026D01*
X59812543Y-98232044D01*
X59833613Y-98222079D01*
X59855557Y-98214227D01*
X59878166Y-98208563D01*
X59901221Y-98205144D01*
X59924500Y-98204000D01*
X60499500Y-98204000D01*
X60522779Y-98205144D01*
X60522779Y-98205144D01*
G37*
D12*
X60212000Y-98679000D03*
D11*
G36*
X126026779Y-63534144D02*
X126049834Y-63537563D01*
X126072443Y-63543227D01*
X126094387Y-63551079D01*
X126115457Y-63561044D01*
X126135448Y-63573026D01*
X126154168Y-63586910D01*
X126171438Y-63602562D01*
X126187090Y-63619832D01*
X126200974Y-63638552D01*
X126212956Y-63658543D01*
X126222921Y-63679613D01*
X126230773Y-63701557D01*
X126236437Y-63724166D01*
X126239856Y-63747221D01*
X126241000Y-63770500D01*
X126241000Y-64245500D01*
X126239856Y-64268779D01*
X126236437Y-64291834D01*
X126230773Y-64314443D01*
X126222921Y-64336387D01*
X126212956Y-64357457D01*
X126200974Y-64377448D01*
X126187090Y-64396168D01*
X126171438Y-64413438D01*
X126154168Y-64429090D01*
X126135448Y-64442974D01*
X126115457Y-64454956D01*
X126094387Y-64464921D01*
X126072443Y-64472773D01*
X126049834Y-64478437D01*
X126026779Y-64481856D01*
X126003500Y-64483000D01*
X125428500Y-64483000D01*
X125405221Y-64481856D01*
X125382166Y-64478437D01*
X125359557Y-64472773D01*
X125337613Y-64464921D01*
X125316543Y-64454956D01*
X125296552Y-64442974D01*
X125277832Y-64429090D01*
X125260562Y-64413438D01*
X125244910Y-64396168D01*
X125231026Y-64377448D01*
X125219044Y-64357457D01*
X125209079Y-64336387D01*
X125201227Y-64314443D01*
X125195563Y-64291834D01*
X125192144Y-64268779D01*
X125191000Y-64245500D01*
X125191000Y-63770500D01*
X125192144Y-63747221D01*
X125195563Y-63724166D01*
X125201227Y-63701557D01*
X125209079Y-63679613D01*
X125219044Y-63658543D01*
X125231026Y-63638552D01*
X125244910Y-63619832D01*
X125260562Y-63602562D01*
X125277832Y-63586910D01*
X125296552Y-63573026D01*
X125316543Y-63561044D01*
X125337613Y-63551079D01*
X125359557Y-63543227D01*
X125382166Y-63537563D01*
X125405221Y-63534144D01*
X125428500Y-63533000D01*
X126003500Y-63533000D01*
X126026779Y-63534144D01*
X126026779Y-63534144D01*
G37*
D12*
X125716000Y-64008000D03*
D11*
G36*
X124276779Y-63534144D02*
X124299834Y-63537563D01*
X124322443Y-63543227D01*
X124344387Y-63551079D01*
X124365457Y-63561044D01*
X124385448Y-63573026D01*
X124404168Y-63586910D01*
X124421438Y-63602562D01*
X124437090Y-63619832D01*
X124450974Y-63638552D01*
X124462956Y-63658543D01*
X124472921Y-63679613D01*
X124480773Y-63701557D01*
X124486437Y-63724166D01*
X124489856Y-63747221D01*
X124491000Y-63770500D01*
X124491000Y-64245500D01*
X124489856Y-64268779D01*
X124486437Y-64291834D01*
X124480773Y-64314443D01*
X124472921Y-64336387D01*
X124462956Y-64357457D01*
X124450974Y-64377448D01*
X124437090Y-64396168D01*
X124421438Y-64413438D01*
X124404168Y-64429090D01*
X124385448Y-64442974D01*
X124365457Y-64454956D01*
X124344387Y-64464921D01*
X124322443Y-64472773D01*
X124299834Y-64478437D01*
X124276779Y-64481856D01*
X124253500Y-64483000D01*
X123678500Y-64483000D01*
X123655221Y-64481856D01*
X123632166Y-64478437D01*
X123609557Y-64472773D01*
X123587613Y-64464921D01*
X123566543Y-64454956D01*
X123546552Y-64442974D01*
X123527832Y-64429090D01*
X123510562Y-64413438D01*
X123494910Y-64396168D01*
X123481026Y-64377448D01*
X123469044Y-64357457D01*
X123459079Y-64336387D01*
X123451227Y-64314443D01*
X123445563Y-64291834D01*
X123442144Y-64268779D01*
X123441000Y-64245500D01*
X123441000Y-63770500D01*
X123442144Y-63747221D01*
X123445563Y-63724166D01*
X123451227Y-63701557D01*
X123459079Y-63679613D01*
X123469044Y-63658543D01*
X123481026Y-63638552D01*
X123494910Y-63619832D01*
X123510562Y-63602562D01*
X123527832Y-63586910D01*
X123546552Y-63573026D01*
X123566543Y-63561044D01*
X123587613Y-63551079D01*
X123609557Y-63543227D01*
X123632166Y-63537563D01*
X123655221Y-63534144D01*
X123678500Y-63533000D01*
X124253500Y-63533000D01*
X124276779Y-63534144D01*
X124276779Y-63534144D01*
G37*
D12*
X123966000Y-64008000D03*
D11*
G36*
X126625779Y-75154144D02*
X126648834Y-75157563D01*
X126671443Y-75163227D01*
X126693387Y-75171079D01*
X126714457Y-75181044D01*
X126734448Y-75193026D01*
X126753168Y-75206910D01*
X126770438Y-75222562D01*
X126786090Y-75239832D01*
X126799974Y-75258552D01*
X126811956Y-75278543D01*
X126821921Y-75299613D01*
X126829773Y-75321557D01*
X126835437Y-75344166D01*
X126838856Y-75367221D01*
X126840000Y-75390500D01*
X126840000Y-75965500D01*
X126838856Y-75988779D01*
X126835437Y-76011834D01*
X126829773Y-76034443D01*
X126821921Y-76056387D01*
X126811956Y-76077457D01*
X126799974Y-76097448D01*
X126786090Y-76116168D01*
X126770438Y-76133438D01*
X126753168Y-76149090D01*
X126734448Y-76162974D01*
X126714457Y-76174956D01*
X126693387Y-76184921D01*
X126671443Y-76192773D01*
X126648834Y-76198437D01*
X126625779Y-76201856D01*
X126602500Y-76203000D01*
X126127500Y-76203000D01*
X126104221Y-76201856D01*
X126081166Y-76198437D01*
X126058557Y-76192773D01*
X126036613Y-76184921D01*
X126015543Y-76174956D01*
X125995552Y-76162974D01*
X125976832Y-76149090D01*
X125959562Y-76133438D01*
X125943910Y-76116168D01*
X125930026Y-76097448D01*
X125918044Y-76077457D01*
X125908079Y-76056387D01*
X125900227Y-76034443D01*
X125894563Y-76011834D01*
X125891144Y-75988779D01*
X125890000Y-75965500D01*
X125890000Y-75390500D01*
X125891144Y-75367221D01*
X125894563Y-75344166D01*
X125900227Y-75321557D01*
X125908079Y-75299613D01*
X125918044Y-75278543D01*
X125930026Y-75258552D01*
X125943910Y-75239832D01*
X125959562Y-75222562D01*
X125976832Y-75206910D01*
X125995552Y-75193026D01*
X126015543Y-75181044D01*
X126036613Y-75171079D01*
X126058557Y-75163227D01*
X126081166Y-75157563D01*
X126104221Y-75154144D01*
X126127500Y-75153000D01*
X126602500Y-75153000D01*
X126625779Y-75154144D01*
X126625779Y-75154144D01*
G37*
D12*
X126365000Y-75678000D03*
D11*
G36*
X126625779Y-73404144D02*
X126648834Y-73407563D01*
X126671443Y-73413227D01*
X126693387Y-73421079D01*
X126714457Y-73431044D01*
X126734448Y-73443026D01*
X126753168Y-73456910D01*
X126770438Y-73472562D01*
X126786090Y-73489832D01*
X126799974Y-73508552D01*
X126811956Y-73528543D01*
X126821921Y-73549613D01*
X126829773Y-73571557D01*
X126835437Y-73594166D01*
X126838856Y-73617221D01*
X126840000Y-73640500D01*
X126840000Y-74215500D01*
X126838856Y-74238779D01*
X126835437Y-74261834D01*
X126829773Y-74284443D01*
X126821921Y-74306387D01*
X126811956Y-74327457D01*
X126799974Y-74347448D01*
X126786090Y-74366168D01*
X126770438Y-74383438D01*
X126753168Y-74399090D01*
X126734448Y-74412974D01*
X126714457Y-74424956D01*
X126693387Y-74434921D01*
X126671443Y-74442773D01*
X126648834Y-74448437D01*
X126625779Y-74451856D01*
X126602500Y-74453000D01*
X126127500Y-74453000D01*
X126104221Y-74451856D01*
X126081166Y-74448437D01*
X126058557Y-74442773D01*
X126036613Y-74434921D01*
X126015543Y-74424956D01*
X125995552Y-74412974D01*
X125976832Y-74399090D01*
X125959562Y-74383438D01*
X125943910Y-74366168D01*
X125930026Y-74347448D01*
X125918044Y-74327457D01*
X125908079Y-74306387D01*
X125900227Y-74284443D01*
X125894563Y-74261834D01*
X125891144Y-74238779D01*
X125890000Y-74215500D01*
X125890000Y-73640500D01*
X125891144Y-73617221D01*
X125894563Y-73594166D01*
X125900227Y-73571557D01*
X125908079Y-73549613D01*
X125918044Y-73528543D01*
X125930026Y-73508552D01*
X125943910Y-73489832D01*
X125959562Y-73472562D01*
X125976832Y-73456910D01*
X125995552Y-73443026D01*
X126015543Y-73431044D01*
X126036613Y-73421079D01*
X126058557Y-73413227D01*
X126081166Y-73407563D01*
X126104221Y-73404144D01*
X126127500Y-73403000D01*
X126602500Y-73403000D01*
X126625779Y-73404144D01*
X126625779Y-73404144D01*
G37*
D12*
X126365000Y-73928000D03*
D11*
G36*
X62998779Y-67661144D02*
X63021834Y-67664563D01*
X63044443Y-67670227D01*
X63066387Y-67678079D01*
X63087457Y-67688044D01*
X63107448Y-67700026D01*
X63126168Y-67713910D01*
X63143438Y-67729562D01*
X63159090Y-67746832D01*
X63172974Y-67765552D01*
X63184956Y-67785543D01*
X63194921Y-67806613D01*
X63202773Y-67828557D01*
X63208437Y-67851166D01*
X63211856Y-67874221D01*
X63213000Y-67897500D01*
X63213000Y-68472500D01*
X63211856Y-68495779D01*
X63208437Y-68518834D01*
X63202773Y-68541443D01*
X63194921Y-68563387D01*
X63184956Y-68584457D01*
X63172974Y-68604448D01*
X63159090Y-68623168D01*
X63143438Y-68640438D01*
X63126168Y-68656090D01*
X63107448Y-68669974D01*
X63087457Y-68681956D01*
X63066387Y-68691921D01*
X63044443Y-68699773D01*
X63021834Y-68705437D01*
X62998779Y-68708856D01*
X62975500Y-68710000D01*
X62500500Y-68710000D01*
X62477221Y-68708856D01*
X62454166Y-68705437D01*
X62431557Y-68699773D01*
X62409613Y-68691921D01*
X62388543Y-68681956D01*
X62368552Y-68669974D01*
X62349832Y-68656090D01*
X62332562Y-68640438D01*
X62316910Y-68623168D01*
X62303026Y-68604448D01*
X62291044Y-68584457D01*
X62281079Y-68563387D01*
X62273227Y-68541443D01*
X62267563Y-68518834D01*
X62264144Y-68495779D01*
X62263000Y-68472500D01*
X62263000Y-67897500D01*
X62264144Y-67874221D01*
X62267563Y-67851166D01*
X62273227Y-67828557D01*
X62281079Y-67806613D01*
X62291044Y-67785543D01*
X62303026Y-67765552D01*
X62316910Y-67746832D01*
X62332562Y-67729562D01*
X62349832Y-67713910D01*
X62368552Y-67700026D01*
X62388543Y-67688044D01*
X62409613Y-67678079D01*
X62431557Y-67670227D01*
X62454166Y-67664563D01*
X62477221Y-67661144D01*
X62500500Y-67660000D01*
X62975500Y-67660000D01*
X62998779Y-67661144D01*
X62998779Y-67661144D01*
G37*
D12*
X62738000Y-68185000D03*
D11*
G36*
X62998779Y-65911144D02*
X63021834Y-65914563D01*
X63044443Y-65920227D01*
X63066387Y-65928079D01*
X63087457Y-65938044D01*
X63107448Y-65950026D01*
X63126168Y-65963910D01*
X63143438Y-65979562D01*
X63159090Y-65996832D01*
X63172974Y-66015552D01*
X63184956Y-66035543D01*
X63194921Y-66056613D01*
X63202773Y-66078557D01*
X63208437Y-66101166D01*
X63211856Y-66124221D01*
X63213000Y-66147500D01*
X63213000Y-66722500D01*
X63211856Y-66745779D01*
X63208437Y-66768834D01*
X63202773Y-66791443D01*
X63194921Y-66813387D01*
X63184956Y-66834457D01*
X63172974Y-66854448D01*
X63159090Y-66873168D01*
X63143438Y-66890438D01*
X63126168Y-66906090D01*
X63107448Y-66919974D01*
X63087457Y-66931956D01*
X63066387Y-66941921D01*
X63044443Y-66949773D01*
X63021834Y-66955437D01*
X62998779Y-66958856D01*
X62975500Y-66960000D01*
X62500500Y-66960000D01*
X62477221Y-66958856D01*
X62454166Y-66955437D01*
X62431557Y-66949773D01*
X62409613Y-66941921D01*
X62388543Y-66931956D01*
X62368552Y-66919974D01*
X62349832Y-66906090D01*
X62332562Y-66890438D01*
X62316910Y-66873168D01*
X62303026Y-66854448D01*
X62291044Y-66834457D01*
X62281079Y-66813387D01*
X62273227Y-66791443D01*
X62267563Y-66768834D01*
X62264144Y-66745779D01*
X62263000Y-66722500D01*
X62263000Y-66147500D01*
X62264144Y-66124221D01*
X62267563Y-66101166D01*
X62273227Y-66078557D01*
X62281079Y-66056613D01*
X62291044Y-66035543D01*
X62303026Y-66015552D01*
X62316910Y-65996832D01*
X62332562Y-65979562D01*
X62349832Y-65963910D01*
X62368552Y-65950026D01*
X62388543Y-65938044D01*
X62409613Y-65928079D01*
X62431557Y-65920227D01*
X62454166Y-65914563D01*
X62477221Y-65911144D01*
X62500500Y-65910000D01*
X62975500Y-65910000D01*
X62998779Y-65911144D01*
X62998779Y-65911144D01*
G37*
D12*
X62738000Y-66435000D03*
D11*
G36*
X141357779Y-83310144D02*
X141380834Y-83313563D01*
X141403443Y-83319227D01*
X141425387Y-83327079D01*
X141446457Y-83337044D01*
X141466448Y-83349026D01*
X141485168Y-83362910D01*
X141502438Y-83378562D01*
X141518090Y-83395832D01*
X141531974Y-83414552D01*
X141543956Y-83434543D01*
X141553921Y-83455613D01*
X141561773Y-83477557D01*
X141567437Y-83500166D01*
X141570856Y-83523221D01*
X141572000Y-83546500D01*
X141572000Y-84121500D01*
X141570856Y-84144779D01*
X141567437Y-84167834D01*
X141561773Y-84190443D01*
X141553921Y-84212387D01*
X141543956Y-84233457D01*
X141531974Y-84253448D01*
X141518090Y-84272168D01*
X141502438Y-84289438D01*
X141485168Y-84305090D01*
X141466448Y-84318974D01*
X141446457Y-84330956D01*
X141425387Y-84340921D01*
X141403443Y-84348773D01*
X141380834Y-84354437D01*
X141357779Y-84357856D01*
X141334500Y-84359000D01*
X140859500Y-84359000D01*
X140836221Y-84357856D01*
X140813166Y-84354437D01*
X140790557Y-84348773D01*
X140768613Y-84340921D01*
X140747543Y-84330956D01*
X140727552Y-84318974D01*
X140708832Y-84305090D01*
X140691562Y-84289438D01*
X140675910Y-84272168D01*
X140662026Y-84253448D01*
X140650044Y-84233457D01*
X140640079Y-84212387D01*
X140632227Y-84190443D01*
X140626563Y-84167834D01*
X140623144Y-84144779D01*
X140622000Y-84121500D01*
X140622000Y-83546500D01*
X140623144Y-83523221D01*
X140626563Y-83500166D01*
X140632227Y-83477557D01*
X140640079Y-83455613D01*
X140650044Y-83434543D01*
X140662026Y-83414552D01*
X140675910Y-83395832D01*
X140691562Y-83378562D01*
X140708832Y-83362910D01*
X140727552Y-83349026D01*
X140747543Y-83337044D01*
X140768613Y-83327079D01*
X140790557Y-83319227D01*
X140813166Y-83313563D01*
X140836221Y-83310144D01*
X140859500Y-83309000D01*
X141334500Y-83309000D01*
X141357779Y-83310144D01*
X141357779Y-83310144D01*
G37*
D12*
X141097000Y-83834000D03*
D11*
G36*
X141357779Y-85060144D02*
X141380834Y-85063563D01*
X141403443Y-85069227D01*
X141425387Y-85077079D01*
X141446457Y-85087044D01*
X141466448Y-85099026D01*
X141485168Y-85112910D01*
X141502438Y-85128562D01*
X141518090Y-85145832D01*
X141531974Y-85164552D01*
X141543956Y-85184543D01*
X141553921Y-85205613D01*
X141561773Y-85227557D01*
X141567437Y-85250166D01*
X141570856Y-85273221D01*
X141572000Y-85296500D01*
X141572000Y-85871500D01*
X141570856Y-85894779D01*
X141567437Y-85917834D01*
X141561773Y-85940443D01*
X141553921Y-85962387D01*
X141543956Y-85983457D01*
X141531974Y-86003448D01*
X141518090Y-86022168D01*
X141502438Y-86039438D01*
X141485168Y-86055090D01*
X141466448Y-86068974D01*
X141446457Y-86080956D01*
X141425387Y-86090921D01*
X141403443Y-86098773D01*
X141380834Y-86104437D01*
X141357779Y-86107856D01*
X141334500Y-86109000D01*
X140859500Y-86109000D01*
X140836221Y-86107856D01*
X140813166Y-86104437D01*
X140790557Y-86098773D01*
X140768613Y-86090921D01*
X140747543Y-86080956D01*
X140727552Y-86068974D01*
X140708832Y-86055090D01*
X140691562Y-86039438D01*
X140675910Y-86022168D01*
X140662026Y-86003448D01*
X140650044Y-85983457D01*
X140640079Y-85962387D01*
X140632227Y-85940443D01*
X140626563Y-85917834D01*
X140623144Y-85894779D01*
X140622000Y-85871500D01*
X140622000Y-85296500D01*
X140623144Y-85273221D01*
X140626563Y-85250166D01*
X140632227Y-85227557D01*
X140640079Y-85205613D01*
X140650044Y-85184543D01*
X140662026Y-85164552D01*
X140675910Y-85145832D01*
X140691562Y-85128562D01*
X140708832Y-85112910D01*
X140727552Y-85099026D01*
X140747543Y-85087044D01*
X140768613Y-85077079D01*
X140790557Y-85069227D01*
X140813166Y-85063563D01*
X140836221Y-85060144D01*
X140859500Y-85059000D01*
X141334500Y-85059000D01*
X141357779Y-85060144D01*
X141357779Y-85060144D01*
G37*
D12*
X141097000Y-85584000D03*
D11*
G36*
X68840779Y-91311144D02*
X68863834Y-91314563D01*
X68886443Y-91320227D01*
X68908387Y-91328079D01*
X68929457Y-91338044D01*
X68949448Y-91350026D01*
X68968168Y-91363910D01*
X68985438Y-91379562D01*
X69001090Y-91396832D01*
X69014974Y-91415552D01*
X69026956Y-91435543D01*
X69036921Y-91456613D01*
X69044773Y-91478557D01*
X69050437Y-91501166D01*
X69053856Y-91524221D01*
X69055000Y-91547500D01*
X69055000Y-92122500D01*
X69053856Y-92145779D01*
X69050437Y-92168834D01*
X69044773Y-92191443D01*
X69036921Y-92213387D01*
X69026956Y-92234457D01*
X69014974Y-92254448D01*
X69001090Y-92273168D01*
X68985438Y-92290438D01*
X68968168Y-92306090D01*
X68949448Y-92319974D01*
X68929457Y-92331956D01*
X68908387Y-92341921D01*
X68886443Y-92349773D01*
X68863834Y-92355437D01*
X68840779Y-92358856D01*
X68817500Y-92360000D01*
X68342500Y-92360000D01*
X68319221Y-92358856D01*
X68296166Y-92355437D01*
X68273557Y-92349773D01*
X68251613Y-92341921D01*
X68230543Y-92331956D01*
X68210552Y-92319974D01*
X68191832Y-92306090D01*
X68174562Y-92290438D01*
X68158910Y-92273168D01*
X68145026Y-92254448D01*
X68133044Y-92234457D01*
X68123079Y-92213387D01*
X68115227Y-92191443D01*
X68109563Y-92168834D01*
X68106144Y-92145779D01*
X68105000Y-92122500D01*
X68105000Y-91547500D01*
X68106144Y-91524221D01*
X68109563Y-91501166D01*
X68115227Y-91478557D01*
X68123079Y-91456613D01*
X68133044Y-91435543D01*
X68145026Y-91415552D01*
X68158910Y-91396832D01*
X68174562Y-91379562D01*
X68191832Y-91363910D01*
X68210552Y-91350026D01*
X68230543Y-91338044D01*
X68251613Y-91328079D01*
X68273557Y-91320227D01*
X68296166Y-91314563D01*
X68319221Y-91311144D01*
X68342500Y-91310000D01*
X68817500Y-91310000D01*
X68840779Y-91311144D01*
X68840779Y-91311144D01*
G37*
D12*
X68580000Y-91835000D03*
D11*
G36*
X68840779Y-93061144D02*
X68863834Y-93064563D01*
X68886443Y-93070227D01*
X68908387Y-93078079D01*
X68929457Y-93088044D01*
X68949448Y-93100026D01*
X68968168Y-93113910D01*
X68985438Y-93129562D01*
X69001090Y-93146832D01*
X69014974Y-93165552D01*
X69026956Y-93185543D01*
X69036921Y-93206613D01*
X69044773Y-93228557D01*
X69050437Y-93251166D01*
X69053856Y-93274221D01*
X69055000Y-93297500D01*
X69055000Y-93872500D01*
X69053856Y-93895779D01*
X69050437Y-93918834D01*
X69044773Y-93941443D01*
X69036921Y-93963387D01*
X69026956Y-93984457D01*
X69014974Y-94004448D01*
X69001090Y-94023168D01*
X68985438Y-94040438D01*
X68968168Y-94056090D01*
X68949448Y-94069974D01*
X68929457Y-94081956D01*
X68908387Y-94091921D01*
X68886443Y-94099773D01*
X68863834Y-94105437D01*
X68840779Y-94108856D01*
X68817500Y-94110000D01*
X68342500Y-94110000D01*
X68319221Y-94108856D01*
X68296166Y-94105437D01*
X68273557Y-94099773D01*
X68251613Y-94091921D01*
X68230543Y-94081956D01*
X68210552Y-94069974D01*
X68191832Y-94056090D01*
X68174562Y-94040438D01*
X68158910Y-94023168D01*
X68145026Y-94004448D01*
X68133044Y-93984457D01*
X68123079Y-93963387D01*
X68115227Y-93941443D01*
X68109563Y-93918834D01*
X68106144Y-93895779D01*
X68105000Y-93872500D01*
X68105000Y-93297500D01*
X68106144Y-93274221D01*
X68109563Y-93251166D01*
X68115227Y-93228557D01*
X68123079Y-93206613D01*
X68133044Y-93185543D01*
X68145026Y-93165552D01*
X68158910Y-93146832D01*
X68174562Y-93129562D01*
X68191832Y-93113910D01*
X68210552Y-93100026D01*
X68230543Y-93088044D01*
X68251613Y-93078079D01*
X68273557Y-93070227D01*
X68296166Y-93064563D01*
X68319221Y-93061144D01*
X68342500Y-93060000D01*
X68817500Y-93060000D01*
X68840779Y-93061144D01*
X68840779Y-93061144D01*
G37*
D12*
X68580000Y-93585000D03*
D11*
G36*
X68840779Y-87600144D02*
X68863834Y-87603563D01*
X68886443Y-87609227D01*
X68908387Y-87617079D01*
X68929457Y-87627044D01*
X68949448Y-87639026D01*
X68968168Y-87652910D01*
X68985438Y-87668562D01*
X69001090Y-87685832D01*
X69014974Y-87704552D01*
X69026956Y-87724543D01*
X69036921Y-87745613D01*
X69044773Y-87767557D01*
X69050437Y-87790166D01*
X69053856Y-87813221D01*
X69055000Y-87836500D01*
X69055000Y-88411500D01*
X69053856Y-88434779D01*
X69050437Y-88457834D01*
X69044773Y-88480443D01*
X69036921Y-88502387D01*
X69026956Y-88523457D01*
X69014974Y-88543448D01*
X69001090Y-88562168D01*
X68985438Y-88579438D01*
X68968168Y-88595090D01*
X68949448Y-88608974D01*
X68929457Y-88620956D01*
X68908387Y-88630921D01*
X68886443Y-88638773D01*
X68863834Y-88644437D01*
X68840779Y-88647856D01*
X68817500Y-88649000D01*
X68342500Y-88649000D01*
X68319221Y-88647856D01*
X68296166Y-88644437D01*
X68273557Y-88638773D01*
X68251613Y-88630921D01*
X68230543Y-88620956D01*
X68210552Y-88608974D01*
X68191832Y-88595090D01*
X68174562Y-88579438D01*
X68158910Y-88562168D01*
X68145026Y-88543448D01*
X68133044Y-88523457D01*
X68123079Y-88502387D01*
X68115227Y-88480443D01*
X68109563Y-88457834D01*
X68106144Y-88434779D01*
X68105000Y-88411500D01*
X68105000Y-87836500D01*
X68106144Y-87813221D01*
X68109563Y-87790166D01*
X68115227Y-87767557D01*
X68123079Y-87745613D01*
X68133044Y-87724543D01*
X68145026Y-87704552D01*
X68158910Y-87685832D01*
X68174562Y-87668562D01*
X68191832Y-87652910D01*
X68210552Y-87639026D01*
X68230543Y-87627044D01*
X68251613Y-87617079D01*
X68273557Y-87609227D01*
X68296166Y-87603563D01*
X68319221Y-87600144D01*
X68342500Y-87599000D01*
X68817500Y-87599000D01*
X68840779Y-87600144D01*
X68840779Y-87600144D01*
G37*
D12*
X68580000Y-88124000D03*
D11*
G36*
X68840779Y-85850144D02*
X68863834Y-85853563D01*
X68886443Y-85859227D01*
X68908387Y-85867079D01*
X68929457Y-85877044D01*
X68949448Y-85889026D01*
X68968168Y-85902910D01*
X68985438Y-85918562D01*
X69001090Y-85935832D01*
X69014974Y-85954552D01*
X69026956Y-85974543D01*
X69036921Y-85995613D01*
X69044773Y-86017557D01*
X69050437Y-86040166D01*
X69053856Y-86063221D01*
X69055000Y-86086500D01*
X69055000Y-86661500D01*
X69053856Y-86684779D01*
X69050437Y-86707834D01*
X69044773Y-86730443D01*
X69036921Y-86752387D01*
X69026956Y-86773457D01*
X69014974Y-86793448D01*
X69001090Y-86812168D01*
X68985438Y-86829438D01*
X68968168Y-86845090D01*
X68949448Y-86858974D01*
X68929457Y-86870956D01*
X68908387Y-86880921D01*
X68886443Y-86888773D01*
X68863834Y-86894437D01*
X68840779Y-86897856D01*
X68817500Y-86899000D01*
X68342500Y-86899000D01*
X68319221Y-86897856D01*
X68296166Y-86894437D01*
X68273557Y-86888773D01*
X68251613Y-86880921D01*
X68230543Y-86870956D01*
X68210552Y-86858974D01*
X68191832Y-86845090D01*
X68174562Y-86829438D01*
X68158910Y-86812168D01*
X68145026Y-86793448D01*
X68133044Y-86773457D01*
X68123079Y-86752387D01*
X68115227Y-86730443D01*
X68109563Y-86707834D01*
X68106144Y-86684779D01*
X68105000Y-86661500D01*
X68105000Y-86086500D01*
X68106144Y-86063221D01*
X68109563Y-86040166D01*
X68115227Y-86017557D01*
X68123079Y-85995613D01*
X68133044Y-85974543D01*
X68145026Y-85954552D01*
X68158910Y-85935832D01*
X68174562Y-85918562D01*
X68191832Y-85902910D01*
X68210552Y-85889026D01*
X68230543Y-85877044D01*
X68251613Y-85867079D01*
X68273557Y-85859227D01*
X68296166Y-85853563D01*
X68319221Y-85850144D01*
X68342500Y-85849000D01*
X68817500Y-85849000D01*
X68840779Y-85850144D01*
X68840779Y-85850144D01*
G37*
D12*
X68580000Y-86374000D03*
D11*
G36*
X122942779Y-91410144D02*
X122965834Y-91413563D01*
X122988443Y-91419227D01*
X123010387Y-91427079D01*
X123031457Y-91437044D01*
X123051448Y-91449026D01*
X123070168Y-91462910D01*
X123087438Y-91478562D01*
X123103090Y-91495832D01*
X123116974Y-91514552D01*
X123128956Y-91534543D01*
X123138921Y-91555613D01*
X123146773Y-91577557D01*
X123152437Y-91600166D01*
X123155856Y-91623221D01*
X123157000Y-91646500D01*
X123157000Y-92221500D01*
X123155856Y-92244779D01*
X123152437Y-92267834D01*
X123146773Y-92290443D01*
X123138921Y-92312387D01*
X123128956Y-92333457D01*
X123116974Y-92353448D01*
X123103090Y-92372168D01*
X123087438Y-92389438D01*
X123070168Y-92405090D01*
X123051448Y-92418974D01*
X123031457Y-92430956D01*
X123010387Y-92440921D01*
X122988443Y-92448773D01*
X122965834Y-92454437D01*
X122942779Y-92457856D01*
X122919500Y-92459000D01*
X122444500Y-92459000D01*
X122421221Y-92457856D01*
X122398166Y-92454437D01*
X122375557Y-92448773D01*
X122353613Y-92440921D01*
X122332543Y-92430956D01*
X122312552Y-92418974D01*
X122293832Y-92405090D01*
X122276562Y-92389438D01*
X122260910Y-92372168D01*
X122247026Y-92353448D01*
X122235044Y-92333457D01*
X122225079Y-92312387D01*
X122217227Y-92290443D01*
X122211563Y-92267834D01*
X122208144Y-92244779D01*
X122207000Y-92221500D01*
X122207000Y-91646500D01*
X122208144Y-91623221D01*
X122211563Y-91600166D01*
X122217227Y-91577557D01*
X122225079Y-91555613D01*
X122235044Y-91534543D01*
X122247026Y-91514552D01*
X122260910Y-91495832D01*
X122276562Y-91478562D01*
X122293832Y-91462910D01*
X122312552Y-91449026D01*
X122332543Y-91437044D01*
X122353613Y-91427079D01*
X122375557Y-91419227D01*
X122398166Y-91413563D01*
X122421221Y-91410144D01*
X122444500Y-91409000D01*
X122919500Y-91409000D01*
X122942779Y-91410144D01*
X122942779Y-91410144D01*
G37*
D12*
X122682000Y-91934000D03*
D11*
G36*
X122942779Y-89660144D02*
X122965834Y-89663563D01*
X122988443Y-89669227D01*
X123010387Y-89677079D01*
X123031457Y-89687044D01*
X123051448Y-89699026D01*
X123070168Y-89712910D01*
X123087438Y-89728562D01*
X123103090Y-89745832D01*
X123116974Y-89764552D01*
X123128956Y-89784543D01*
X123138921Y-89805613D01*
X123146773Y-89827557D01*
X123152437Y-89850166D01*
X123155856Y-89873221D01*
X123157000Y-89896500D01*
X123157000Y-90471500D01*
X123155856Y-90494779D01*
X123152437Y-90517834D01*
X123146773Y-90540443D01*
X123138921Y-90562387D01*
X123128956Y-90583457D01*
X123116974Y-90603448D01*
X123103090Y-90622168D01*
X123087438Y-90639438D01*
X123070168Y-90655090D01*
X123051448Y-90668974D01*
X123031457Y-90680956D01*
X123010387Y-90690921D01*
X122988443Y-90698773D01*
X122965834Y-90704437D01*
X122942779Y-90707856D01*
X122919500Y-90709000D01*
X122444500Y-90709000D01*
X122421221Y-90707856D01*
X122398166Y-90704437D01*
X122375557Y-90698773D01*
X122353613Y-90690921D01*
X122332543Y-90680956D01*
X122312552Y-90668974D01*
X122293832Y-90655090D01*
X122276562Y-90639438D01*
X122260910Y-90622168D01*
X122247026Y-90603448D01*
X122235044Y-90583457D01*
X122225079Y-90562387D01*
X122217227Y-90540443D01*
X122211563Y-90517834D01*
X122208144Y-90494779D01*
X122207000Y-90471500D01*
X122207000Y-89896500D01*
X122208144Y-89873221D01*
X122211563Y-89850166D01*
X122217227Y-89827557D01*
X122225079Y-89805613D01*
X122235044Y-89784543D01*
X122247026Y-89764552D01*
X122260910Y-89745832D01*
X122276562Y-89728562D01*
X122293832Y-89712910D01*
X122312552Y-89699026D01*
X122332543Y-89687044D01*
X122353613Y-89677079D01*
X122375557Y-89669227D01*
X122398166Y-89663563D01*
X122421221Y-89660144D01*
X122444500Y-89659000D01*
X122919500Y-89659000D01*
X122942779Y-89660144D01*
X122942779Y-89660144D01*
G37*
D12*
X122682000Y-90184000D03*
D11*
G36*
X125736779Y-91410144D02*
X125759834Y-91413563D01*
X125782443Y-91419227D01*
X125804387Y-91427079D01*
X125825457Y-91437044D01*
X125845448Y-91449026D01*
X125864168Y-91462910D01*
X125881438Y-91478562D01*
X125897090Y-91495832D01*
X125910974Y-91514552D01*
X125922956Y-91534543D01*
X125932921Y-91555613D01*
X125940773Y-91577557D01*
X125946437Y-91600166D01*
X125949856Y-91623221D01*
X125951000Y-91646500D01*
X125951000Y-92221500D01*
X125949856Y-92244779D01*
X125946437Y-92267834D01*
X125940773Y-92290443D01*
X125932921Y-92312387D01*
X125922956Y-92333457D01*
X125910974Y-92353448D01*
X125897090Y-92372168D01*
X125881438Y-92389438D01*
X125864168Y-92405090D01*
X125845448Y-92418974D01*
X125825457Y-92430956D01*
X125804387Y-92440921D01*
X125782443Y-92448773D01*
X125759834Y-92454437D01*
X125736779Y-92457856D01*
X125713500Y-92459000D01*
X125238500Y-92459000D01*
X125215221Y-92457856D01*
X125192166Y-92454437D01*
X125169557Y-92448773D01*
X125147613Y-92440921D01*
X125126543Y-92430956D01*
X125106552Y-92418974D01*
X125087832Y-92405090D01*
X125070562Y-92389438D01*
X125054910Y-92372168D01*
X125041026Y-92353448D01*
X125029044Y-92333457D01*
X125019079Y-92312387D01*
X125011227Y-92290443D01*
X125005563Y-92267834D01*
X125002144Y-92244779D01*
X125001000Y-92221500D01*
X125001000Y-91646500D01*
X125002144Y-91623221D01*
X125005563Y-91600166D01*
X125011227Y-91577557D01*
X125019079Y-91555613D01*
X125029044Y-91534543D01*
X125041026Y-91514552D01*
X125054910Y-91495832D01*
X125070562Y-91478562D01*
X125087832Y-91462910D01*
X125106552Y-91449026D01*
X125126543Y-91437044D01*
X125147613Y-91427079D01*
X125169557Y-91419227D01*
X125192166Y-91413563D01*
X125215221Y-91410144D01*
X125238500Y-91409000D01*
X125713500Y-91409000D01*
X125736779Y-91410144D01*
X125736779Y-91410144D01*
G37*
D12*
X125476000Y-91934000D03*
D11*
G36*
X125736779Y-89660144D02*
X125759834Y-89663563D01*
X125782443Y-89669227D01*
X125804387Y-89677079D01*
X125825457Y-89687044D01*
X125845448Y-89699026D01*
X125864168Y-89712910D01*
X125881438Y-89728562D01*
X125897090Y-89745832D01*
X125910974Y-89764552D01*
X125922956Y-89784543D01*
X125932921Y-89805613D01*
X125940773Y-89827557D01*
X125946437Y-89850166D01*
X125949856Y-89873221D01*
X125951000Y-89896500D01*
X125951000Y-90471500D01*
X125949856Y-90494779D01*
X125946437Y-90517834D01*
X125940773Y-90540443D01*
X125932921Y-90562387D01*
X125922956Y-90583457D01*
X125910974Y-90603448D01*
X125897090Y-90622168D01*
X125881438Y-90639438D01*
X125864168Y-90655090D01*
X125845448Y-90668974D01*
X125825457Y-90680956D01*
X125804387Y-90690921D01*
X125782443Y-90698773D01*
X125759834Y-90704437D01*
X125736779Y-90707856D01*
X125713500Y-90709000D01*
X125238500Y-90709000D01*
X125215221Y-90707856D01*
X125192166Y-90704437D01*
X125169557Y-90698773D01*
X125147613Y-90690921D01*
X125126543Y-90680956D01*
X125106552Y-90668974D01*
X125087832Y-90655090D01*
X125070562Y-90639438D01*
X125054910Y-90622168D01*
X125041026Y-90603448D01*
X125029044Y-90583457D01*
X125019079Y-90562387D01*
X125011227Y-90540443D01*
X125005563Y-90517834D01*
X125002144Y-90494779D01*
X125001000Y-90471500D01*
X125001000Y-89896500D01*
X125002144Y-89873221D01*
X125005563Y-89850166D01*
X125011227Y-89827557D01*
X125019079Y-89805613D01*
X125029044Y-89784543D01*
X125041026Y-89764552D01*
X125054910Y-89745832D01*
X125070562Y-89728562D01*
X125087832Y-89712910D01*
X125106552Y-89699026D01*
X125126543Y-89687044D01*
X125147613Y-89677079D01*
X125169557Y-89669227D01*
X125192166Y-89663563D01*
X125215221Y-89660144D01*
X125238500Y-89659000D01*
X125713500Y-89659000D01*
X125736779Y-89660144D01*
X125736779Y-89660144D01*
G37*
D12*
X125476000Y-90184000D03*
D11*
G36*
X124847779Y-73404144D02*
X124870834Y-73407563D01*
X124893443Y-73413227D01*
X124915387Y-73421079D01*
X124936457Y-73431044D01*
X124956448Y-73443026D01*
X124975168Y-73456910D01*
X124992438Y-73472562D01*
X125008090Y-73489832D01*
X125021974Y-73508552D01*
X125033956Y-73528543D01*
X125043921Y-73549613D01*
X125051773Y-73571557D01*
X125057437Y-73594166D01*
X125060856Y-73617221D01*
X125062000Y-73640500D01*
X125062000Y-74215500D01*
X125060856Y-74238779D01*
X125057437Y-74261834D01*
X125051773Y-74284443D01*
X125043921Y-74306387D01*
X125033956Y-74327457D01*
X125021974Y-74347448D01*
X125008090Y-74366168D01*
X124992438Y-74383438D01*
X124975168Y-74399090D01*
X124956448Y-74412974D01*
X124936457Y-74424956D01*
X124915387Y-74434921D01*
X124893443Y-74442773D01*
X124870834Y-74448437D01*
X124847779Y-74451856D01*
X124824500Y-74453000D01*
X124349500Y-74453000D01*
X124326221Y-74451856D01*
X124303166Y-74448437D01*
X124280557Y-74442773D01*
X124258613Y-74434921D01*
X124237543Y-74424956D01*
X124217552Y-74412974D01*
X124198832Y-74399090D01*
X124181562Y-74383438D01*
X124165910Y-74366168D01*
X124152026Y-74347448D01*
X124140044Y-74327457D01*
X124130079Y-74306387D01*
X124122227Y-74284443D01*
X124116563Y-74261834D01*
X124113144Y-74238779D01*
X124112000Y-74215500D01*
X124112000Y-73640500D01*
X124113144Y-73617221D01*
X124116563Y-73594166D01*
X124122227Y-73571557D01*
X124130079Y-73549613D01*
X124140044Y-73528543D01*
X124152026Y-73508552D01*
X124165910Y-73489832D01*
X124181562Y-73472562D01*
X124198832Y-73456910D01*
X124217552Y-73443026D01*
X124237543Y-73431044D01*
X124258613Y-73421079D01*
X124280557Y-73413227D01*
X124303166Y-73407563D01*
X124326221Y-73404144D01*
X124349500Y-73403000D01*
X124824500Y-73403000D01*
X124847779Y-73404144D01*
X124847779Y-73404144D01*
G37*
D12*
X124587000Y-73928000D03*
D11*
G36*
X124847779Y-75154144D02*
X124870834Y-75157563D01*
X124893443Y-75163227D01*
X124915387Y-75171079D01*
X124936457Y-75181044D01*
X124956448Y-75193026D01*
X124975168Y-75206910D01*
X124992438Y-75222562D01*
X125008090Y-75239832D01*
X125021974Y-75258552D01*
X125033956Y-75278543D01*
X125043921Y-75299613D01*
X125051773Y-75321557D01*
X125057437Y-75344166D01*
X125060856Y-75367221D01*
X125062000Y-75390500D01*
X125062000Y-75965500D01*
X125060856Y-75988779D01*
X125057437Y-76011834D01*
X125051773Y-76034443D01*
X125043921Y-76056387D01*
X125033956Y-76077457D01*
X125021974Y-76097448D01*
X125008090Y-76116168D01*
X124992438Y-76133438D01*
X124975168Y-76149090D01*
X124956448Y-76162974D01*
X124936457Y-76174956D01*
X124915387Y-76184921D01*
X124893443Y-76192773D01*
X124870834Y-76198437D01*
X124847779Y-76201856D01*
X124824500Y-76203000D01*
X124349500Y-76203000D01*
X124326221Y-76201856D01*
X124303166Y-76198437D01*
X124280557Y-76192773D01*
X124258613Y-76184921D01*
X124237543Y-76174956D01*
X124217552Y-76162974D01*
X124198832Y-76149090D01*
X124181562Y-76133438D01*
X124165910Y-76116168D01*
X124152026Y-76097448D01*
X124140044Y-76077457D01*
X124130079Y-76056387D01*
X124122227Y-76034443D01*
X124116563Y-76011834D01*
X124113144Y-75988779D01*
X124112000Y-75965500D01*
X124112000Y-75390500D01*
X124113144Y-75367221D01*
X124116563Y-75344166D01*
X124122227Y-75321557D01*
X124130079Y-75299613D01*
X124140044Y-75278543D01*
X124152026Y-75258552D01*
X124165910Y-75239832D01*
X124181562Y-75222562D01*
X124198832Y-75206910D01*
X124217552Y-75193026D01*
X124237543Y-75181044D01*
X124258613Y-75171079D01*
X124280557Y-75163227D01*
X124303166Y-75157563D01*
X124326221Y-75154144D01*
X124349500Y-75153000D01*
X124824500Y-75153000D01*
X124847779Y-75154144D01*
X124847779Y-75154144D01*
G37*
D12*
X124587000Y-75678000D03*
D18*
X127768000Y-78808000D03*
X126968000Y-78808000D03*
X126168000Y-78808000D03*
X125368000Y-78808000D03*
X124568000Y-78808000D03*
X123768000Y-78808000D03*
X122968000Y-78808000D03*
X122168000Y-78808000D03*
D19*
X120718000Y-80258000D03*
X120718000Y-81058000D03*
X120718000Y-81858000D03*
X120718000Y-82658000D03*
X120718000Y-83458000D03*
X120718000Y-84258000D03*
X120718000Y-85058000D03*
X120718000Y-85858000D03*
D18*
X122168000Y-87308000D03*
X122968000Y-87308000D03*
X123768000Y-87308000D03*
X124568000Y-87308000D03*
X125368000Y-87308000D03*
X126168000Y-87308000D03*
X126968000Y-87308000D03*
X127768000Y-87308000D03*
D19*
X129218000Y-85858000D03*
X129218000Y-85058000D03*
X129218000Y-84258000D03*
X129218000Y-83458000D03*
X129218000Y-82658000D03*
X129218000Y-81858000D03*
X129218000Y-81058000D03*
X129218000Y-80258000D03*
M02*
