%TF.GenerationSoftware,KiCad,Pcbnew,5.0.2-bee76a0~70~ubuntu18.04.1*%
%TF.CreationDate,2019-10-08T23:09:48-07:00*%
%TF.ProjectId,AD9850,41443938-3530-42e6-9b69-6361645f7063,rev?*%
%TF.SameCoordinates,Original*%
%TF.FileFunction,Copper,L2,Bot*%
%TF.FilePolarity,Positive*%
%FSLAX46Y46*%
G04 Gerber Fmt 4.6, Leading zero omitted, Abs format (unit mm)*
G04 Created by KiCad (PCBNEW 5.0.2-bee76a0~70~ubuntu18.04.1) date Tue 08 Oct 2019 11:09:48 PM PDT*
%MOMM*%
%LPD*%
G01*
G04 APERTURE LIST*
%ADD10C,0.150000*%
%ADD11C,1.524000*%
%ADD12R,2.000000X2.000000*%
%ADD13C,2.000000*%
%ADD14R,3.200000X2.000000*%
%ADD15C,1.500000*%
%ADD16C,2.540000*%
%ADD17C,1.397000*%
%ADD18R,1.700000X1.700000*%
%ADD19O,1.700000X1.700000*%
%ADD20R,3.500000X3.500000*%
%ADD21C,0.100000*%
%ADD22C,3.000000*%
%ADD23C,3.500000*%
%ADD24C,0.685800*%
%ADD25C,0.254000*%
%ADD26C,0.152400*%
G04 APERTURE END LIST*
D10*
X54610000Y-121793000D02*
X54610000Y-53467000D01*
X152146000Y-125730000D02*
X58547000Y-125730000D01*
X156210000Y-53467000D02*
X156210000Y-121666000D01*
X58547000Y-49530000D02*
X152273000Y-49530000D01*
X54610000Y-53467000D02*
G75*
G02X58547000Y-49530000I3937000J0D01*
G01*
X58547000Y-125730000D02*
G75*
G02X54610000Y-121793000I0J3937000D01*
G01*
X156210000Y-121666000D02*
G75*
G02X152146000Y-125730000I-4064000J0D01*
G01*
X152273000Y-49530000D02*
G75*
G02X156210000Y-53467000I0J-3937000D01*
G01*
D11*
X102489000Y-57023000D03*
X105029000Y-57023000D03*
X107569000Y-57023000D03*
X110109000Y-57023000D03*
X112649000Y-57023000D03*
X115189000Y-57023000D03*
X117729000Y-57023000D03*
X120269000Y-57023000D03*
X122809000Y-57023000D03*
X125349000Y-57023000D03*
X127889000Y-57023000D03*
X130429000Y-57023000D03*
X132969000Y-57023000D03*
X135509000Y-57023000D03*
X138049000Y-57023000D03*
X140589000Y-57023000D03*
D12*
X132080000Y-112776000D03*
D13*
X132080000Y-115276000D03*
X132080000Y-117776000D03*
D14*
X139580000Y-109676000D03*
X139580000Y-120876000D03*
D13*
X146580000Y-112776000D03*
X146580000Y-117776000D03*
D12*
X107442000Y-112776000D03*
D13*
X107442000Y-115276000D03*
X107442000Y-117776000D03*
D14*
X114942000Y-109676000D03*
X114942000Y-120876000D03*
D13*
X121942000Y-112776000D03*
X121942000Y-117776000D03*
D11*
X93853000Y-94996000D03*
X93853000Y-92456000D03*
X93853000Y-89916000D03*
X93853000Y-87376000D03*
X93853000Y-84836000D03*
X93853000Y-82296000D03*
X93853000Y-79756000D03*
X93853000Y-77216000D03*
X93853000Y-74676000D03*
X93853000Y-72136000D03*
X73533000Y-94996000D03*
X73533000Y-92456000D03*
X73533000Y-89916000D03*
X73533000Y-87376000D03*
X73533000Y-84836000D03*
X73533000Y-82296000D03*
X73533000Y-79756000D03*
X73533000Y-77216000D03*
X73533000Y-74676000D03*
X73533000Y-72136000D03*
D15*
X124841000Y-68072000D03*
X119841000Y-68072000D03*
D16*
X66421000Y-116967000D03*
X76581000Y-116967000D03*
D17*
X74041000Y-111887000D03*
X71501000Y-111887000D03*
X93472000Y-111887000D03*
X96012000Y-111887000D03*
D16*
X98552000Y-116967000D03*
X88392000Y-116967000D03*
D18*
X145161000Y-76454000D03*
D19*
X145161000Y-78994000D03*
X145161000Y-81534000D03*
X145161000Y-84074000D03*
X145161000Y-86614000D03*
X145161000Y-89154000D03*
D18*
X90551000Y-62230000D03*
D19*
X90551000Y-59690000D03*
X93091000Y-62230000D03*
X93091000Y-59690000D03*
X95631000Y-62230000D03*
X95631000Y-59690000D03*
D20*
X69088000Y-59817000D03*
D21*
G36*
X70161513Y-52320611D02*
X70234318Y-52331411D01*
X70305714Y-52349295D01*
X70375013Y-52374090D01*
X70441548Y-52405559D01*
X70504678Y-52443398D01*
X70563795Y-52487242D01*
X70618330Y-52536670D01*
X70667758Y-52591205D01*
X70711602Y-52650322D01*
X70749441Y-52713452D01*
X70780910Y-52779987D01*
X70805705Y-52849286D01*
X70823589Y-52920682D01*
X70834389Y-52993487D01*
X70838000Y-53067000D01*
X70838000Y-54567000D01*
X70834389Y-54640513D01*
X70823589Y-54713318D01*
X70805705Y-54784714D01*
X70780910Y-54854013D01*
X70749441Y-54920548D01*
X70711602Y-54983678D01*
X70667758Y-55042795D01*
X70618330Y-55097330D01*
X70563795Y-55146758D01*
X70504678Y-55190602D01*
X70441548Y-55228441D01*
X70375013Y-55259910D01*
X70305714Y-55284705D01*
X70234318Y-55302589D01*
X70161513Y-55313389D01*
X70088000Y-55317000D01*
X68088000Y-55317000D01*
X68014487Y-55313389D01*
X67941682Y-55302589D01*
X67870286Y-55284705D01*
X67800987Y-55259910D01*
X67734452Y-55228441D01*
X67671322Y-55190602D01*
X67612205Y-55146758D01*
X67557670Y-55097330D01*
X67508242Y-55042795D01*
X67464398Y-54983678D01*
X67426559Y-54920548D01*
X67395090Y-54854013D01*
X67370295Y-54784714D01*
X67352411Y-54713318D01*
X67341611Y-54640513D01*
X67338000Y-54567000D01*
X67338000Y-53067000D01*
X67341611Y-52993487D01*
X67352411Y-52920682D01*
X67370295Y-52849286D01*
X67395090Y-52779987D01*
X67426559Y-52713452D01*
X67464398Y-52650322D01*
X67508242Y-52591205D01*
X67557670Y-52536670D01*
X67612205Y-52487242D01*
X67671322Y-52443398D01*
X67734452Y-52405559D01*
X67800987Y-52374090D01*
X67870286Y-52349295D01*
X67941682Y-52331411D01*
X68014487Y-52320611D01*
X68088000Y-52317000D01*
X70088000Y-52317000D01*
X70161513Y-52320611D01*
X70161513Y-52320611D01*
G37*
D22*
X69088000Y-53817000D03*
D21*
G36*
X65348765Y-55071213D02*
X65433704Y-55083813D01*
X65516999Y-55104677D01*
X65597848Y-55133605D01*
X65675472Y-55170319D01*
X65749124Y-55214464D01*
X65818094Y-55265616D01*
X65881718Y-55323282D01*
X65939384Y-55386906D01*
X65990536Y-55455876D01*
X66034681Y-55529528D01*
X66071395Y-55607152D01*
X66100323Y-55688001D01*
X66121187Y-55771296D01*
X66133787Y-55856235D01*
X66138000Y-55942000D01*
X66138000Y-57692000D01*
X66133787Y-57777765D01*
X66121187Y-57862704D01*
X66100323Y-57945999D01*
X66071395Y-58026848D01*
X66034681Y-58104472D01*
X65990536Y-58178124D01*
X65939384Y-58247094D01*
X65881718Y-58310718D01*
X65818094Y-58368384D01*
X65749124Y-58419536D01*
X65675472Y-58463681D01*
X65597848Y-58500395D01*
X65516999Y-58529323D01*
X65433704Y-58550187D01*
X65348765Y-58562787D01*
X65263000Y-58567000D01*
X63513000Y-58567000D01*
X63427235Y-58562787D01*
X63342296Y-58550187D01*
X63259001Y-58529323D01*
X63178152Y-58500395D01*
X63100528Y-58463681D01*
X63026876Y-58419536D01*
X62957906Y-58368384D01*
X62894282Y-58310718D01*
X62836616Y-58247094D01*
X62785464Y-58178124D01*
X62741319Y-58104472D01*
X62704605Y-58026848D01*
X62675677Y-57945999D01*
X62654813Y-57862704D01*
X62642213Y-57777765D01*
X62638000Y-57692000D01*
X62638000Y-55942000D01*
X62642213Y-55856235D01*
X62654813Y-55771296D01*
X62675677Y-55688001D01*
X62704605Y-55607152D01*
X62741319Y-55529528D01*
X62785464Y-55455876D01*
X62836616Y-55386906D01*
X62894282Y-55323282D01*
X62957906Y-55265616D01*
X63026876Y-55214464D01*
X63100528Y-55170319D01*
X63178152Y-55133605D01*
X63259001Y-55104677D01*
X63342296Y-55083813D01*
X63427235Y-55071213D01*
X63513000Y-55067000D01*
X65263000Y-55067000D01*
X65348765Y-55071213D01*
X65348765Y-55071213D01*
G37*
D23*
X64388000Y-56817000D03*
D24*
X152400000Y-73025000D03*
X58547000Y-98679000D03*
X58547000Y-95631000D03*
X58166000Y-86233000D03*
X68580000Y-94869000D03*
X117729000Y-83439000D03*
X117141910Y-84172862D03*
X116586000Y-84963000D03*
X111379000Y-87249000D03*
X107861090Y-69215000D03*
X122301000Y-64008000D03*
X125476000Y-72517000D03*
X124587000Y-80899000D03*
X126111000Y-80899000D03*
X125349000Y-85344000D03*
X123952000Y-91948000D03*
X57404000Y-103886000D03*
X57277000Y-81153000D03*
X64897000Y-66421000D03*
X133858000Y-81026000D03*
X133350000Y-81915000D03*
X110617000Y-59182000D03*
X114554000Y-71628000D03*
X126746000Y-93853000D03*
X126873000Y-95377000D03*
X133350000Y-82854803D03*
X139192000Y-82804000D03*
X107636382Y-85919382D03*
D25*
X124841000Y-58801000D02*
X136271000Y-58801000D01*
X113157000Y-70485000D02*
X124841000Y-58801000D01*
X117729000Y-83439000D02*
X113157000Y-78867000D01*
X137287001Y-57784999D02*
X138049000Y-57023000D01*
X136271000Y-58801000D02*
X137287001Y-57784999D01*
X113157000Y-78867000D02*
X113157000Y-70485000D01*
X124587001Y-57784999D02*
X125349000Y-57023000D01*
X111633000Y-70739000D02*
X124587001Y-57784999D01*
X117141910Y-84172862D02*
X111633000Y-78663952D01*
X111633000Y-78663952D02*
X111633000Y-70739000D01*
D26*
X119761000Y-56896000D02*
X120015000Y-56642000D01*
D25*
X116586000Y-84963000D02*
X110744000Y-79121000D01*
X110744000Y-66548000D02*
X120269000Y-57023000D01*
X110744000Y-79121000D02*
X110744000Y-66548000D01*
X111379000Y-87249000D02*
X107911890Y-83781890D01*
X107911890Y-83781890D02*
X107861090Y-83731090D01*
X107861090Y-69699933D02*
X107861090Y-69215000D01*
X107861090Y-83731090D02*
X107861090Y-69699933D01*
X143510000Y-78994000D02*
X145161000Y-78994000D01*
X133858000Y-81026000D02*
X141478000Y-81026000D01*
X141478000Y-81026000D02*
X143510000Y-78994000D01*
X144780000Y-81915000D02*
X145161000Y-81534000D01*
X133350000Y-81915000D02*
X144780000Y-81915000D01*
X109601000Y-59182000D02*
X110617000Y-59182000D01*
X102870000Y-65913000D02*
X109601000Y-59182000D01*
X93091000Y-59690000D02*
X94361000Y-60960000D01*
X96266000Y-60960000D02*
X97536000Y-62230000D01*
X94361000Y-60960000D02*
X96266000Y-60960000D01*
X97536000Y-64008000D02*
X99441000Y-65913000D01*
X99441000Y-65913000D02*
X102870000Y-65913000D01*
X97536000Y-62230000D02*
X97536000Y-64008000D01*
X107376157Y-69215000D02*
X107861090Y-69215000D01*
X99695000Y-69215000D02*
X107376157Y-69215000D01*
X93091000Y-62230000D02*
X93940999Y-63079999D01*
X93940999Y-63460999D02*
X99695000Y-69215000D01*
X93940999Y-63079999D02*
X93940999Y-63460999D01*
X109982000Y-64770000D02*
X117729000Y-57023000D01*
X109982000Y-81788000D02*
X109982000Y-64770000D01*
X122555000Y-94361000D02*
X109982000Y-81788000D01*
X109347000Y-62865000D02*
X115189000Y-57023000D01*
X122809000Y-95631000D02*
X109347000Y-82169000D01*
X109347000Y-82169000D02*
X109347000Y-62865000D01*
X145161000Y-75350000D02*
X145161000Y-76454000D01*
X141439000Y-71628000D02*
X145161000Y-75350000D01*
X123444000Y-71628000D02*
X141439000Y-71628000D01*
X123444000Y-71628000D02*
X114554000Y-71628000D01*
X122555000Y-94361000D02*
X126238000Y-94361000D01*
X126238000Y-94361000D02*
X126746000Y-93853000D01*
X122809000Y-95631000D02*
X126619000Y-95631000D01*
X126619000Y-95631000D02*
X126873000Y-95377000D01*
X133350000Y-82854803D02*
X139141197Y-82854803D01*
X139141197Y-82854803D02*
X139192000Y-82804000D01*
X91059000Y-62230000D02*
X90551000Y-62230000D01*
X106680000Y-77851000D02*
X91059000Y-62230000D01*
X107636382Y-85919382D02*
X106680000Y-84963000D01*
X106680000Y-84963000D02*
X106680000Y-77851000D01*
G36*
X152921141Y-50309489D02*
X153542812Y-50504309D01*
X154112608Y-50820153D01*
X154607257Y-51244117D01*
X155006554Y-51758888D01*
X155294184Y-52343432D01*
X155460610Y-52982349D01*
X155500000Y-53494269D01*
X155500001Y-121631261D01*
X155432784Y-122316798D01*
X155243779Y-122942812D01*
X154936780Y-123520193D01*
X154523486Y-124026941D01*
X154019629Y-124443769D01*
X153444408Y-124754790D01*
X152819731Y-124948160D01*
X152136217Y-125020000D01*
X58582963Y-125020000D01*
X57898859Y-124950511D01*
X57277190Y-124755692D01*
X56707394Y-124439849D01*
X56212741Y-124015881D01*
X55813448Y-123501114D01*
X55525815Y-122916569D01*
X55359390Y-122277651D01*
X55320000Y-121765730D01*
X55320000Y-121348431D01*
X56312000Y-121348431D01*
X56312000Y-122237569D01*
X56652259Y-123059026D01*
X57280974Y-123687741D01*
X58102431Y-124028000D01*
X58991569Y-124028000D01*
X59813026Y-123687741D01*
X60441741Y-123059026D01*
X60782000Y-122237569D01*
X60782000Y-121348431D01*
X60441741Y-120526974D01*
X59813026Y-119898259D01*
X59759289Y-119876000D01*
X112694560Y-119876000D01*
X112694560Y-121876000D01*
X112743843Y-122123765D01*
X112884191Y-122333809D01*
X113094235Y-122474157D01*
X113342000Y-122523440D01*
X116542000Y-122523440D01*
X116789765Y-122474157D01*
X116999809Y-122333809D01*
X117140157Y-122123765D01*
X117189440Y-121876000D01*
X117189440Y-119876000D01*
X137332560Y-119876000D01*
X137332560Y-121876000D01*
X137381843Y-122123765D01*
X137522191Y-122333809D01*
X137732235Y-122474157D01*
X137980000Y-122523440D01*
X141180000Y-122523440D01*
X141427765Y-122474157D01*
X141637809Y-122333809D01*
X141778157Y-122123765D01*
X141827440Y-121876000D01*
X141827440Y-121348431D01*
X149911000Y-121348431D01*
X149911000Y-122237569D01*
X150251259Y-123059026D01*
X150879974Y-123687741D01*
X151701431Y-124028000D01*
X152590569Y-124028000D01*
X153412026Y-123687741D01*
X154040741Y-123059026D01*
X154381000Y-122237569D01*
X154381000Y-121348431D01*
X154040741Y-120526974D01*
X153412026Y-119898259D01*
X152590569Y-119558000D01*
X151701431Y-119558000D01*
X150879974Y-119898259D01*
X150251259Y-120526974D01*
X149911000Y-121348431D01*
X141827440Y-121348431D01*
X141827440Y-119876000D01*
X141778157Y-119628235D01*
X141637809Y-119418191D01*
X141427765Y-119277843D01*
X141180000Y-119228560D01*
X137980000Y-119228560D01*
X137732235Y-119277843D01*
X137522191Y-119418191D01*
X137381843Y-119628235D01*
X137332560Y-119876000D01*
X117189440Y-119876000D01*
X117140157Y-119628235D01*
X116999809Y-119418191D01*
X116789765Y-119277843D01*
X116542000Y-119228560D01*
X113342000Y-119228560D01*
X113094235Y-119277843D01*
X112884191Y-119418191D01*
X112743843Y-119628235D01*
X112694560Y-119876000D01*
X59759289Y-119876000D01*
X58991569Y-119558000D01*
X58102431Y-119558000D01*
X57280974Y-119898259D01*
X56652259Y-120526974D01*
X56312000Y-121348431D01*
X55320000Y-121348431D01*
X55320000Y-116588072D01*
X64516000Y-116588072D01*
X64516000Y-117345928D01*
X64806019Y-118046096D01*
X65341904Y-118581981D01*
X66042072Y-118872000D01*
X66799928Y-118872000D01*
X67500096Y-118581981D01*
X68035981Y-118046096D01*
X68326000Y-117345928D01*
X68326000Y-116588072D01*
X74676000Y-116588072D01*
X74676000Y-117345928D01*
X74966019Y-118046096D01*
X75501904Y-118581981D01*
X76202072Y-118872000D01*
X76959928Y-118872000D01*
X77660096Y-118581981D01*
X78195981Y-118046096D01*
X78486000Y-117345928D01*
X78486000Y-116588072D01*
X86487000Y-116588072D01*
X86487000Y-117345928D01*
X86777019Y-118046096D01*
X87312904Y-118581981D01*
X88013072Y-118872000D01*
X88770928Y-118872000D01*
X89471096Y-118581981D01*
X90006981Y-118046096D01*
X90297000Y-117345928D01*
X90297000Y-116588072D01*
X96647000Y-116588072D01*
X96647000Y-117345928D01*
X96937019Y-118046096D01*
X97472904Y-118581981D01*
X98173072Y-118872000D01*
X98930928Y-118872000D01*
X99631096Y-118581981D01*
X100166981Y-118046096D01*
X100413569Y-117450778D01*
X105807000Y-117450778D01*
X105807000Y-118101222D01*
X106055914Y-118702153D01*
X106515847Y-119162086D01*
X107116778Y-119411000D01*
X107767222Y-119411000D01*
X108368153Y-119162086D01*
X108601707Y-118928532D01*
X120969073Y-118928532D01*
X121067736Y-119195387D01*
X121677461Y-119421908D01*
X122327460Y-119397856D01*
X122816264Y-119195387D01*
X122914927Y-118928532D01*
X121942000Y-117955605D01*
X120969073Y-118928532D01*
X108601707Y-118928532D01*
X108828086Y-118702153D01*
X109077000Y-118101222D01*
X109077000Y-117511461D01*
X120296092Y-117511461D01*
X120320144Y-118161460D01*
X120522613Y-118650264D01*
X120789468Y-118748927D01*
X121762395Y-117776000D01*
X122121605Y-117776000D01*
X123094532Y-118748927D01*
X123361387Y-118650264D01*
X123587908Y-118040539D01*
X123566085Y-117450778D01*
X130445000Y-117450778D01*
X130445000Y-118101222D01*
X130693914Y-118702153D01*
X131153847Y-119162086D01*
X131754778Y-119411000D01*
X132405222Y-119411000D01*
X133006153Y-119162086D01*
X133239707Y-118928532D01*
X145607073Y-118928532D01*
X145705736Y-119195387D01*
X146315461Y-119421908D01*
X146965460Y-119397856D01*
X147454264Y-119195387D01*
X147552927Y-118928532D01*
X146580000Y-117955605D01*
X145607073Y-118928532D01*
X133239707Y-118928532D01*
X133466086Y-118702153D01*
X133715000Y-118101222D01*
X133715000Y-117511461D01*
X144934092Y-117511461D01*
X144958144Y-118161460D01*
X145160613Y-118650264D01*
X145427468Y-118748927D01*
X146400395Y-117776000D01*
X146759605Y-117776000D01*
X147732532Y-118748927D01*
X147999387Y-118650264D01*
X148225908Y-118040539D01*
X148201856Y-117390540D01*
X147999387Y-116901736D01*
X147732532Y-116803073D01*
X146759605Y-117776000D01*
X146400395Y-117776000D01*
X145427468Y-116803073D01*
X145160613Y-116901736D01*
X144934092Y-117511461D01*
X133715000Y-117511461D01*
X133715000Y-117450778D01*
X133466086Y-116849847D01*
X133239707Y-116623468D01*
X145607073Y-116623468D01*
X146580000Y-117596395D01*
X147552927Y-116623468D01*
X147454264Y-116356613D01*
X146844539Y-116130092D01*
X146194540Y-116154144D01*
X145705736Y-116356613D01*
X145607073Y-116623468D01*
X133239707Y-116623468D01*
X133050725Y-116434486D01*
X133052927Y-116428532D01*
X132080000Y-115455605D01*
X131107073Y-116428532D01*
X131109275Y-116434486D01*
X130693914Y-116849847D01*
X130445000Y-117450778D01*
X123566085Y-117450778D01*
X123563856Y-117390540D01*
X123361387Y-116901736D01*
X123094532Y-116803073D01*
X122121605Y-117776000D01*
X121762395Y-117776000D01*
X120789468Y-116803073D01*
X120522613Y-116901736D01*
X120296092Y-117511461D01*
X109077000Y-117511461D01*
X109077000Y-117450778D01*
X108828086Y-116849847D01*
X108601707Y-116623468D01*
X120969073Y-116623468D01*
X121942000Y-117596395D01*
X122914927Y-116623468D01*
X122816264Y-116356613D01*
X122206539Y-116130092D01*
X121556540Y-116154144D01*
X121067736Y-116356613D01*
X120969073Y-116623468D01*
X108601707Y-116623468D01*
X108412725Y-116434486D01*
X108414927Y-116428532D01*
X107442000Y-115455605D01*
X106469073Y-116428532D01*
X106471275Y-116434486D01*
X106055914Y-116849847D01*
X105807000Y-117450778D01*
X100413569Y-117450778D01*
X100457000Y-117345928D01*
X100457000Y-116588072D01*
X100166981Y-115887904D01*
X99631096Y-115352019D01*
X98930928Y-115062000D01*
X98173072Y-115062000D01*
X97472904Y-115352019D01*
X96937019Y-115887904D01*
X96647000Y-116588072D01*
X90297000Y-116588072D01*
X90006981Y-115887904D01*
X89471096Y-115352019D01*
X88770928Y-115062000D01*
X88013072Y-115062000D01*
X87312904Y-115352019D01*
X86777019Y-115887904D01*
X86487000Y-116588072D01*
X78486000Y-116588072D01*
X78195981Y-115887904D01*
X77660096Y-115352019D01*
X76959928Y-115062000D01*
X76202072Y-115062000D01*
X75501904Y-115352019D01*
X74966019Y-115887904D01*
X74676000Y-116588072D01*
X68326000Y-116588072D01*
X68035981Y-115887904D01*
X67500096Y-115352019D01*
X66799928Y-115062000D01*
X66042072Y-115062000D01*
X65341904Y-115352019D01*
X64806019Y-115887904D01*
X64516000Y-116588072D01*
X55320000Y-116588072D01*
X55320000Y-111621750D01*
X70167500Y-111621750D01*
X70167500Y-112152250D01*
X70370513Y-112642367D01*
X70745633Y-113017487D01*
X71235750Y-113220500D01*
X71766250Y-113220500D01*
X72256367Y-113017487D01*
X72452666Y-112821188D01*
X73286417Y-112821188D01*
X73348071Y-113056800D01*
X73848480Y-113232927D01*
X74378199Y-113204148D01*
X74733929Y-113056800D01*
X74795583Y-112821188D01*
X74041000Y-112066605D01*
X73286417Y-112821188D01*
X72452666Y-112821188D01*
X72631487Y-112642367D01*
X72764275Y-112321789D01*
X72871200Y-112579929D01*
X73106812Y-112641583D01*
X73861395Y-111887000D01*
X74220605Y-111887000D01*
X74975188Y-112641583D01*
X75210800Y-112579929D01*
X75386927Y-112079520D01*
X75362057Y-111621750D01*
X92138500Y-111621750D01*
X92138500Y-112152250D01*
X92341513Y-112642367D01*
X92716633Y-113017487D01*
X93206750Y-113220500D01*
X93737250Y-113220500D01*
X94227367Y-113017487D01*
X94423666Y-112821188D01*
X95257417Y-112821188D01*
X95319071Y-113056800D01*
X95819480Y-113232927D01*
X96349199Y-113204148D01*
X96704929Y-113056800D01*
X96766583Y-112821188D01*
X96012000Y-112066605D01*
X95257417Y-112821188D01*
X94423666Y-112821188D01*
X94602487Y-112642367D01*
X94735275Y-112321789D01*
X94842200Y-112579929D01*
X95077812Y-112641583D01*
X95832395Y-111887000D01*
X96191605Y-111887000D01*
X96946188Y-112641583D01*
X97181800Y-112579929D01*
X97357927Y-112079520D01*
X97341438Y-111776000D01*
X105794560Y-111776000D01*
X105794560Y-113776000D01*
X105843843Y-114023765D01*
X105984191Y-114233809D01*
X106159671Y-114351062D01*
X106022613Y-114401736D01*
X105796092Y-115011461D01*
X105820144Y-115661460D01*
X106022613Y-116150264D01*
X106289468Y-116248927D01*
X107262395Y-115276000D01*
X107248253Y-115261858D01*
X107427858Y-115082253D01*
X107442000Y-115096395D01*
X107456143Y-115082253D01*
X107635748Y-115261858D01*
X107621605Y-115276000D01*
X108594532Y-116248927D01*
X108861387Y-116150264D01*
X109087908Y-115540539D01*
X109063856Y-114890540D01*
X108861387Y-114401736D01*
X108724329Y-114351062D01*
X108899809Y-114233809D01*
X109040157Y-114023765D01*
X109089440Y-113776000D01*
X109089440Y-112450778D01*
X120307000Y-112450778D01*
X120307000Y-113101222D01*
X120555914Y-113702153D01*
X121015847Y-114162086D01*
X121616778Y-114411000D01*
X122267222Y-114411000D01*
X122868153Y-114162086D01*
X123328086Y-113702153D01*
X123577000Y-113101222D01*
X123577000Y-112450778D01*
X123328086Y-111849847D01*
X123254239Y-111776000D01*
X130432560Y-111776000D01*
X130432560Y-113776000D01*
X130481843Y-114023765D01*
X130622191Y-114233809D01*
X130797671Y-114351062D01*
X130660613Y-114401736D01*
X130434092Y-115011461D01*
X130458144Y-115661460D01*
X130660613Y-116150264D01*
X130927468Y-116248927D01*
X131900395Y-115276000D01*
X131886253Y-115261858D01*
X132065858Y-115082253D01*
X132080000Y-115096395D01*
X132094143Y-115082253D01*
X132273748Y-115261858D01*
X132259605Y-115276000D01*
X133232532Y-116248927D01*
X133499387Y-116150264D01*
X133725908Y-115540539D01*
X133701856Y-114890540D01*
X133499387Y-114401736D01*
X133362329Y-114351062D01*
X133537809Y-114233809D01*
X133678157Y-114023765D01*
X133727440Y-113776000D01*
X133727440Y-112450778D01*
X144945000Y-112450778D01*
X144945000Y-113101222D01*
X145193914Y-113702153D01*
X145653847Y-114162086D01*
X146254778Y-114411000D01*
X146905222Y-114411000D01*
X147506153Y-114162086D01*
X147966086Y-113702153D01*
X148215000Y-113101222D01*
X148215000Y-112450778D01*
X147966086Y-111849847D01*
X147506153Y-111389914D01*
X146905222Y-111141000D01*
X146254778Y-111141000D01*
X145653847Y-111389914D01*
X145193914Y-111849847D01*
X144945000Y-112450778D01*
X133727440Y-112450778D01*
X133727440Y-111776000D01*
X133678157Y-111528235D01*
X133537809Y-111318191D01*
X133327765Y-111177843D01*
X133080000Y-111128560D01*
X131080000Y-111128560D01*
X130832235Y-111177843D01*
X130622191Y-111318191D01*
X130481843Y-111528235D01*
X130432560Y-111776000D01*
X123254239Y-111776000D01*
X122868153Y-111389914D01*
X122267222Y-111141000D01*
X121616778Y-111141000D01*
X121015847Y-111389914D01*
X120555914Y-111849847D01*
X120307000Y-112450778D01*
X109089440Y-112450778D01*
X109089440Y-111776000D01*
X109040157Y-111528235D01*
X108899809Y-111318191D01*
X108689765Y-111177843D01*
X108442000Y-111128560D01*
X106442000Y-111128560D01*
X106194235Y-111177843D01*
X105984191Y-111318191D01*
X105843843Y-111528235D01*
X105794560Y-111776000D01*
X97341438Y-111776000D01*
X97329148Y-111549801D01*
X97181800Y-111194071D01*
X96946188Y-111132417D01*
X96191605Y-111887000D01*
X95832395Y-111887000D01*
X95077812Y-111132417D01*
X94842200Y-111194071D01*
X94743962Y-111473184D01*
X94602487Y-111131633D01*
X94423666Y-110952812D01*
X95257417Y-110952812D01*
X96012000Y-111707395D01*
X96766583Y-110952812D01*
X96704929Y-110717200D01*
X96204520Y-110541073D01*
X95674801Y-110569852D01*
X95319071Y-110717200D01*
X95257417Y-110952812D01*
X94423666Y-110952812D01*
X94227367Y-110756513D01*
X93737250Y-110553500D01*
X93206750Y-110553500D01*
X92716633Y-110756513D01*
X92341513Y-111131633D01*
X92138500Y-111621750D01*
X75362057Y-111621750D01*
X75358148Y-111549801D01*
X75210800Y-111194071D01*
X74975188Y-111132417D01*
X74220605Y-111887000D01*
X73861395Y-111887000D01*
X73106812Y-111132417D01*
X72871200Y-111194071D01*
X72772962Y-111473184D01*
X72631487Y-111131633D01*
X72452666Y-110952812D01*
X73286417Y-110952812D01*
X74041000Y-111707395D01*
X74795583Y-110952812D01*
X74733929Y-110717200D01*
X74233520Y-110541073D01*
X73703801Y-110569852D01*
X73348071Y-110717200D01*
X73286417Y-110952812D01*
X72452666Y-110952812D01*
X72256367Y-110756513D01*
X71766250Y-110553500D01*
X71235750Y-110553500D01*
X70745633Y-110756513D01*
X70370513Y-111131633D01*
X70167500Y-111621750D01*
X55320000Y-111621750D01*
X55320000Y-108676000D01*
X112694560Y-108676000D01*
X112694560Y-110676000D01*
X112743843Y-110923765D01*
X112884191Y-111133809D01*
X113094235Y-111274157D01*
X113342000Y-111323440D01*
X116542000Y-111323440D01*
X116789765Y-111274157D01*
X116999809Y-111133809D01*
X117140157Y-110923765D01*
X117189440Y-110676000D01*
X117189440Y-108676000D01*
X137332560Y-108676000D01*
X137332560Y-110676000D01*
X137381843Y-110923765D01*
X137522191Y-111133809D01*
X137732235Y-111274157D01*
X137980000Y-111323440D01*
X141180000Y-111323440D01*
X141427765Y-111274157D01*
X141637809Y-111133809D01*
X141778157Y-110923765D01*
X141827440Y-110676000D01*
X141827440Y-108676000D01*
X141778157Y-108428235D01*
X141637809Y-108218191D01*
X141427765Y-108077843D01*
X141180000Y-108028560D01*
X137980000Y-108028560D01*
X137732235Y-108077843D01*
X137522191Y-108218191D01*
X137381843Y-108428235D01*
X137332560Y-108676000D01*
X117189440Y-108676000D01*
X117140157Y-108428235D01*
X116999809Y-108218191D01*
X116789765Y-108077843D01*
X116542000Y-108028560D01*
X113342000Y-108028560D01*
X113094235Y-108077843D01*
X112884191Y-108218191D01*
X112743843Y-108428235D01*
X112694560Y-108676000D01*
X55320000Y-108676000D01*
X55320000Y-102298431D01*
X98984000Y-102298431D01*
X98984000Y-103187569D01*
X99324259Y-104009026D01*
X99952974Y-104637741D01*
X100774431Y-104978000D01*
X101663569Y-104978000D01*
X102485026Y-104637741D01*
X103113741Y-104009026D01*
X103454000Y-103187569D01*
X103454000Y-102298431D01*
X139624000Y-102298431D01*
X139624000Y-103187569D01*
X139964259Y-104009026D01*
X140592974Y-104637741D01*
X141414431Y-104978000D01*
X142303569Y-104978000D01*
X143125026Y-104637741D01*
X143753741Y-104009026D01*
X144094000Y-103187569D01*
X144094000Y-102298431D01*
X143753741Y-101476974D01*
X143125026Y-100848259D01*
X142303569Y-100508000D01*
X141414431Y-100508000D01*
X140592974Y-100848259D01*
X139964259Y-101476974D01*
X139624000Y-102298431D01*
X103454000Y-102298431D01*
X103113741Y-101476974D01*
X102485026Y-100848259D01*
X101663569Y-100508000D01*
X100774431Y-100508000D01*
X99952974Y-100848259D01*
X99324259Y-101476974D01*
X98984000Y-102298431D01*
X55320000Y-102298431D01*
X55320000Y-74398119D01*
X72136000Y-74398119D01*
X72136000Y-74953881D01*
X72348680Y-75467337D01*
X72741663Y-75860320D01*
X72948513Y-75946000D01*
X72741663Y-76031680D01*
X72348680Y-76424663D01*
X72136000Y-76938119D01*
X72136000Y-77493881D01*
X72348680Y-78007337D01*
X72741663Y-78400320D01*
X72948513Y-78486000D01*
X72741663Y-78571680D01*
X72348680Y-78964663D01*
X72136000Y-79478119D01*
X72136000Y-80033881D01*
X72348680Y-80547337D01*
X72741663Y-80940320D01*
X72948513Y-81026000D01*
X72741663Y-81111680D01*
X72348680Y-81504663D01*
X72136000Y-82018119D01*
X72136000Y-82573881D01*
X72348680Y-83087337D01*
X72741663Y-83480320D01*
X72948513Y-83566000D01*
X72741663Y-83651680D01*
X72348680Y-84044663D01*
X72136000Y-84558119D01*
X72136000Y-85113881D01*
X72348680Y-85627337D01*
X72741663Y-86020320D01*
X72948513Y-86106000D01*
X72741663Y-86191680D01*
X72348680Y-86584663D01*
X72136000Y-87098119D01*
X72136000Y-87653881D01*
X72348680Y-88167337D01*
X72741663Y-88560320D01*
X72948513Y-88646000D01*
X72741663Y-88731680D01*
X72348680Y-89124663D01*
X72136000Y-89638119D01*
X72136000Y-90193881D01*
X72348680Y-90707337D01*
X72741663Y-91100320D01*
X72948513Y-91186000D01*
X72741663Y-91271680D01*
X72348680Y-91664663D01*
X72136000Y-92178119D01*
X72136000Y-92733881D01*
X72348680Y-93247337D01*
X72741663Y-93640320D01*
X72948513Y-93726000D01*
X72741663Y-93811680D01*
X72348680Y-94204663D01*
X72136000Y-94718119D01*
X72136000Y-95273881D01*
X72348680Y-95787337D01*
X72741663Y-96180320D01*
X73255119Y-96393000D01*
X73810881Y-96393000D01*
X74324337Y-96180320D01*
X74717320Y-95787337D01*
X74930000Y-95273881D01*
X74930000Y-94718119D01*
X74717320Y-94204663D01*
X74324337Y-93811680D01*
X74117487Y-93726000D01*
X74324337Y-93640320D01*
X74717320Y-93247337D01*
X74930000Y-92733881D01*
X74930000Y-92178119D01*
X74717320Y-91664663D01*
X74324337Y-91271680D01*
X74117487Y-91186000D01*
X74324337Y-91100320D01*
X74717320Y-90707337D01*
X74930000Y-90193881D01*
X74930000Y-89638119D01*
X74717320Y-89124663D01*
X74324337Y-88731680D01*
X74117487Y-88646000D01*
X74324337Y-88560320D01*
X74717320Y-88167337D01*
X74930000Y-87653881D01*
X74930000Y-87098119D01*
X74717320Y-86584663D01*
X74324337Y-86191680D01*
X74117487Y-86106000D01*
X74324337Y-86020320D01*
X74717320Y-85627337D01*
X74930000Y-85113881D01*
X74930000Y-84558119D01*
X92456000Y-84558119D01*
X92456000Y-85113881D01*
X92668680Y-85627337D01*
X93061663Y-86020320D01*
X93268513Y-86106000D01*
X93061663Y-86191680D01*
X92668680Y-86584663D01*
X92456000Y-87098119D01*
X92456000Y-87653881D01*
X92668680Y-88167337D01*
X93061663Y-88560320D01*
X93268513Y-88646000D01*
X93061663Y-88731680D01*
X92668680Y-89124663D01*
X92456000Y-89638119D01*
X92456000Y-90193881D01*
X92668680Y-90707337D01*
X93061663Y-91100320D01*
X93268513Y-91186000D01*
X93061663Y-91271680D01*
X92668680Y-91664663D01*
X92456000Y-92178119D01*
X92456000Y-92733881D01*
X92668680Y-93247337D01*
X93061663Y-93640320D01*
X93268513Y-93726000D01*
X93061663Y-93811680D01*
X92668680Y-94204663D01*
X92456000Y-94718119D01*
X92456000Y-95273881D01*
X92668680Y-95787337D01*
X93061663Y-96180320D01*
X93575119Y-96393000D01*
X94130881Y-96393000D01*
X94644337Y-96180320D01*
X95037320Y-95787337D01*
X95250000Y-95273881D01*
X95250000Y-94718119D01*
X95037320Y-94204663D01*
X94644337Y-93811680D01*
X94437487Y-93726000D01*
X94644337Y-93640320D01*
X95037320Y-93247337D01*
X95250000Y-92733881D01*
X95250000Y-92178119D01*
X95037320Y-91664663D01*
X94644337Y-91271680D01*
X94437487Y-91186000D01*
X94644337Y-91100320D01*
X95037320Y-90707337D01*
X95250000Y-90193881D01*
X95250000Y-89638119D01*
X95037320Y-89124663D01*
X94644337Y-88731680D01*
X94437487Y-88646000D01*
X94644337Y-88560320D01*
X95037320Y-88167337D01*
X95250000Y-87653881D01*
X95250000Y-87098119D01*
X95037320Y-86584663D01*
X94644337Y-86191680D01*
X94437487Y-86106000D01*
X94644337Y-86020320D01*
X95037320Y-85627337D01*
X95250000Y-85113881D01*
X95250000Y-84558119D01*
X95037320Y-84044663D01*
X94644337Y-83651680D01*
X94453353Y-83572572D01*
X94584143Y-83518397D01*
X94653608Y-83276213D01*
X93853000Y-82475605D01*
X93052392Y-83276213D01*
X93121857Y-83518397D01*
X93262393Y-83568535D01*
X93061663Y-83651680D01*
X92668680Y-84044663D01*
X92456000Y-84558119D01*
X74930000Y-84558119D01*
X74717320Y-84044663D01*
X74324337Y-83651680D01*
X74117487Y-83566000D01*
X74324337Y-83480320D01*
X74717320Y-83087337D01*
X74930000Y-82573881D01*
X74930000Y-82088302D01*
X92443856Y-82088302D01*
X92471638Y-82643368D01*
X92630603Y-83027143D01*
X92872787Y-83096608D01*
X93673395Y-82296000D01*
X94032605Y-82296000D01*
X94833213Y-83096608D01*
X95075397Y-83027143D01*
X95262144Y-82503698D01*
X95234362Y-81948632D01*
X95075397Y-81564857D01*
X94833213Y-81495392D01*
X94032605Y-82296000D01*
X93673395Y-82296000D01*
X92872787Y-81495392D01*
X92630603Y-81564857D01*
X92443856Y-82088302D01*
X74930000Y-82088302D01*
X74930000Y-82018119D01*
X74717320Y-81504663D01*
X74324337Y-81111680D01*
X74117487Y-81026000D01*
X74324337Y-80940320D01*
X74717320Y-80547337D01*
X74930000Y-80033881D01*
X74930000Y-79478119D01*
X74717320Y-78964663D01*
X74324337Y-78571680D01*
X74117487Y-78486000D01*
X74324337Y-78400320D01*
X74717320Y-78007337D01*
X74930000Y-77493881D01*
X74930000Y-76938119D01*
X74717320Y-76424663D01*
X74324337Y-76031680D01*
X74117487Y-75946000D01*
X74324337Y-75860320D01*
X74717320Y-75467337D01*
X74930000Y-74953881D01*
X74930000Y-74398119D01*
X74717320Y-73884663D01*
X74324337Y-73491680D01*
X74133353Y-73412572D01*
X74264143Y-73358397D01*
X74333608Y-73116213D01*
X73533000Y-72315605D01*
X72732392Y-73116213D01*
X72801857Y-73358397D01*
X72942393Y-73408535D01*
X72741663Y-73491680D01*
X72348680Y-73884663D01*
X72136000Y-74398119D01*
X55320000Y-74398119D01*
X55320000Y-71928302D01*
X72123856Y-71928302D01*
X72151638Y-72483368D01*
X72310603Y-72867143D01*
X72552787Y-72936608D01*
X73353395Y-72136000D01*
X73712605Y-72136000D01*
X74513213Y-72936608D01*
X74755397Y-72867143D01*
X74942144Y-72343698D01*
X74917840Y-71858119D01*
X92456000Y-71858119D01*
X92456000Y-72413881D01*
X92668680Y-72927337D01*
X93061663Y-73320320D01*
X93268513Y-73406000D01*
X93061663Y-73491680D01*
X92668680Y-73884663D01*
X92456000Y-74398119D01*
X92456000Y-74953881D01*
X92668680Y-75467337D01*
X93061663Y-75860320D01*
X93268513Y-75946000D01*
X93061663Y-76031680D01*
X92668680Y-76424663D01*
X92456000Y-76938119D01*
X92456000Y-77493881D01*
X92668680Y-78007337D01*
X93061663Y-78400320D01*
X93268513Y-78486000D01*
X93061663Y-78571680D01*
X92668680Y-78964663D01*
X92456000Y-79478119D01*
X92456000Y-80033881D01*
X92668680Y-80547337D01*
X93061663Y-80940320D01*
X93252647Y-81019428D01*
X93121857Y-81073603D01*
X93052392Y-81315787D01*
X93853000Y-82116395D01*
X94653608Y-81315787D01*
X94584143Y-81073603D01*
X94443607Y-81023465D01*
X94644337Y-80940320D01*
X95037320Y-80547337D01*
X95250000Y-80033881D01*
X95250000Y-79478119D01*
X95037320Y-78964663D01*
X94644337Y-78571680D01*
X94437487Y-78486000D01*
X94644337Y-78400320D01*
X95037320Y-78007337D01*
X95250000Y-77493881D01*
X95250000Y-76938119D01*
X95037320Y-76424663D01*
X94644337Y-76031680D01*
X94437487Y-75946000D01*
X94644337Y-75860320D01*
X95037320Y-75467337D01*
X95250000Y-74953881D01*
X95250000Y-74398119D01*
X95037320Y-73884663D01*
X94644337Y-73491680D01*
X94437487Y-73406000D01*
X94644337Y-73320320D01*
X95037320Y-72927337D01*
X95250000Y-72413881D01*
X95250000Y-71858119D01*
X95037320Y-71344663D01*
X94644337Y-70951680D01*
X94130881Y-70739000D01*
X93575119Y-70739000D01*
X93061663Y-70951680D01*
X92668680Y-71344663D01*
X92456000Y-71858119D01*
X74917840Y-71858119D01*
X74914362Y-71788632D01*
X74755397Y-71404857D01*
X74513213Y-71335392D01*
X73712605Y-72136000D01*
X73353395Y-72136000D01*
X72552787Y-71335392D01*
X72310603Y-71404857D01*
X72123856Y-71928302D01*
X55320000Y-71928302D01*
X55320000Y-71155787D01*
X72732392Y-71155787D01*
X73533000Y-71956395D01*
X74333608Y-71155787D01*
X74264143Y-70913603D01*
X73740698Y-70726856D01*
X73185632Y-70754638D01*
X72801857Y-70913603D01*
X72732392Y-71155787D01*
X55320000Y-71155787D01*
X55320000Y-55942000D01*
X61990560Y-55942000D01*
X61990560Y-57692000D01*
X62106449Y-58274613D01*
X62436472Y-58768528D01*
X62930387Y-59098551D01*
X63513000Y-59214440D01*
X65263000Y-59214440D01*
X65845613Y-59098551D01*
X66339528Y-58768528D01*
X66669551Y-58274613D01*
X66690560Y-58168994D01*
X66690560Y-61567000D01*
X66739843Y-61814765D01*
X66880191Y-62024809D01*
X67090235Y-62165157D01*
X67338000Y-62214440D01*
X70838000Y-62214440D01*
X71085765Y-62165157D01*
X71295809Y-62024809D01*
X71436157Y-61814765D01*
X71485440Y-61567000D01*
X71485440Y-59690000D01*
X89036908Y-59690000D01*
X89152161Y-60269418D01*
X89480375Y-60760625D01*
X89498619Y-60772816D01*
X89453235Y-60781843D01*
X89243191Y-60922191D01*
X89102843Y-61132235D01*
X89053560Y-61380000D01*
X89053560Y-63080000D01*
X89102843Y-63327765D01*
X89243191Y-63537809D01*
X89453235Y-63678157D01*
X89701000Y-63727440D01*
X91401000Y-63727440D01*
X91465901Y-63714531D01*
X105918001Y-78166632D01*
X105918000Y-84887957D01*
X105903073Y-84963000D01*
X105918000Y-85038043D01*
X105918000Y-85038047D01*
X105962212Y-85260316D01*
X106130629Y-85512371D01*
X106194253Y-85554883D01*
X106658482Y-86019113D01*
X106658482Y-86113898D01*
X106807359Y-86473318D01*
X107082446Y-86748405D01*
X107441866Y-86897282D01*
X107830898Y-86897282D01*
X108190318Y-86748405D01*
X108465405Y-86473318D01*
X108614282Y-86113898D01*
X108614282Y-85724866D01*
X108499056Y-85446686D01*
X110401100Y-87348731D01*
X110401100Y-87443516D01*
X110549977Y-87802936D01*
X110825064Y-88078023D01*
X111184484Y-88226900D01*
X111573516Y-88226900D01*
X111932936Y-88078023D01*
X112208023Y-87802936D01*
X112356900Y-87443516D01*
X112356900Y-87054484D01*
X112208023Y-86695064D01*
X111932936Y-86419977D01*
X111573516Y-86271100D01*
X111478731Y-86271100D01*
X108623090Y-83415460D01*
X108623090Y-82435539D01*
X108629212Y-82466316D01*
X108797629Y-82718371D01*
X108861253Y-82760884D01*
X122217118Y-96116749D01*
X122259629Y-96180371D01*
X122511683Y-96348788D01*
X122733952Y-96393000D01*
X122733957Y-96393000D01*
X122809000Y-96407927D01*
X122884043Y-96393000D01*
X126543957Y-96393000D01*
X126619000Y-96407927D01*
X126694043Y-96393000D01*
X126694048Y-96393000D01*
X126885590Y-96354900D01*
X127067516Y-96354900D01*
X127426936Y-96206023D01*
X127702023Y-95930936D01*
X127850900Y-95571516D01*
X127850900Y-95182484D01*
X127702023Y-94823064D01*
X127430459Y-94551500D01*
X127575023Y-94406936D01*
X127723900Y-94047516D01*
X127723900Y-93658484D01*
X127575023Y-93299064D01*
X127299936Y-93023977D01*
X126940516Y-92875100D01*
X126551484Y-92875100D01*
X126192064Y-93023977D01*
X125916977Y-93299064D01*
X125792739Y-93599000D01*
X122870631Y-93599000D01*
X118782521Y-89510890D01*
X143719524Y-89510890D01*
X143889355Y-89920924D01*
X144279642Y-90349183D01*
X144804108Y-90595486D01*
X145034000Y-90474819D01*
X145034000Y-89281000D01*
X145288000Y-89281000D01*
X145288000Y-90474819D01*
X145517892Y-90595486D01*
X146042358Y-90349183D01*
X146432645Y-89920924D01*
X146602476Y-89510890D01*
X146481155Y-89281000D01*
X145288000Y-89281000D01*
X145034000Y-89281000D01*
X143840845Y-89281000D01*
X143719524Y-89510890D01*
X118782521Y-89510890D01*
X110744000Y-81472370D01*
X110744000Y-80198630D01*
X115608100Y-85062731D01*
X115608100Y-85157516D01*
X115756977Y-85516936D01*
X116032064Y-85792023D01*
X116391484Y-85940900D01*
X116780516Y-85940900D01*
X117139936Y-85792023D01*
X117415023Y-85516936D01*
X117563900Y-85157516D01*
X117563900Y-85056539D01*
X117695846Y-85001885D01*
X117970933Y-84726798D01*
X118119810Y-84367378D01*
X118119810Y-84335592D01*
X118282936Y-84268023D01*
X118558023Y-83992936D01*
X118706900Y-83633516D01*
X118706900Y-83244484D01*
X118558023Y-82885064D01*
X118282936Y-82609977D01*
X117923516Y-82461100D01*
X117828731Y-82461100D01*
X113919000Y-78551370D01*
X113919000Y-72375959D01*
X114000064Y-72457023D01*
X114359484Y-72605900D01*
X114748516Y-72605900D01*
X115107936Y-72457023D01*
X115174959Y-72390000D01*
X141123370Y-72390000D01*
X143868998Y-75135629D01*
X143853191Y-75146191D01*
X143712843Y-75356235D01*
X143663560Y-75604000D01*
X143663560Y-77304000D01*
X143712843Y-77551765D01*
X143853191Y-77761809D01*
X144063235Y-77902157D01*
X144108619Y-77911184D01*
X144090375Y-77923375D01*
X143884158Y-78232000D01*
X143585043Y-78232000D01*
X143510000Y-78217073D01*
X143434957Y-78232000D01*
X143434952Y-78232000D01*
X143212683Y-78276212D01*
X142960629Y-78444629D01*
X142918118Y-78508251D01*
X141162370Y-80264000D01*
X134478959Y-80264000D01*
X134411936Y-80196977D01*
X134052516Y-80048100D01*
X133663484Y-80048100D01*
X133304064Y-80196977D01*
X133028977Y-80472064D01*
X132880100Y-80831484D01*
X132880100Y-81051168D01*
X132796064Y-81085977D01*
X132520977Y-81361064D01*
X132372100Y-81720484D01*
X132372100Y-82109516D01*
X132486169Y-82384901D01*
X132372100Y-82660287D01*
X132372100Y-83049319D01*
X132520977Y-83408739D01*
X132796064Y-83683826D01*
X133155484Y-83832703D01*
X133544516Y-83832703D01*
X133903936Y-83683826D01*
X133970959Y-83616803D01*
X138621844Y-83616803D01*
X138638064Y-83633023D01*
X138997484Y-83781900D01*
X139386516Y-83781900D01*
X139745936Y-83633023D01*
X140021023Y-83357936D01*
X140169900Y-82998516D01*
X140169900Y-82677000D01*
X144198692Y-82677000D01*
X144388761Y-82804000D01*
X144090375Y-83003375D01*
X143762161Y-83494582D01*
X143646908Y-84074000D01*
X143762161Y-84653418D01*
X144090375Y-85144625D01*
X144388761Y-85344000D01*
X144090375Y-85543375D01*
X143762161Y-86034582D01*
X143646908Y-86614000D01*
X143762161Y-87193418D01*
X144090375Y-87684625D01*
X144409478Y-87897843D01*
X144279642Y-87958817D01*
X143889355Y-88387076D01*
X143719524Y-88797110D01*
X143840845Y-89027000D01*
X145034000Y-89027000D01*
X145034000Y-89007000D01*
X145288000Y-89007000D01*
X145288000Y-89027000D01*
X146481155Y-89027000D01*
X146602476Y-88797110D01*
X146432645Y-88387076D01*
X146042358Y-87958817D01*
X145912522Y-87897843D01*
X146231625Y-87684625D01*
X146559839Y-87193418D01*
X146675092Y-86614000D01*
X146559839Y-86034582D01*
X146231625Y-85543375D01*
X145933239Y-85344000D01*
X146231625Y-85144625D01*
X146559839Y-84653418D01*
X146675092Y-84074000D01*
X146559839Y-83494582D01*
X146231625Y-83003375D01*
X145933239Y-82804000D01*
X146231625Y-82604625D01*
X146559839Y-82113418D01*
X146675092Y-81534000D01*
X146559839Y-80954582D01*
X146231625Y-80463375D01*
X145933239Y-80264000D01*
X146231625Y-80064625D01*
X146559839Y-79573418D01*
X146675092Y-78994000D01*
X146559839Y-78414582D01*
X146231625Y-77923375D01*
X146213381Y-77911184D01*
X146258765Y-77902157D01*
X146468809Y-77761809D01*
X146609157Y-77551765D01*
X146658440Y-77304000D01*
X146658440Y-75604000D01*
X146609157Y-75356235D01*
X146468809Y-75146191D01*
X146258765Y-75005843D01*
X146011000Y-74956560D01*
X145814561Y-74956560D01*
X145710371Y-74800629D01*
X145646750Y-74758119D01*
X142030883Y-71142253D01*
X141988371Y-71078629D01*
X141736317Y-70910212D01*
X141514048Y-70866000D01*
X141514043Y-70866000D01*
X141439000Y-70851073D01*
X141363957Y-70866000D01*
X115174959Y-70866000D01*
X115107936Y-70798977D01*
X114748516Y-70650100D01*
X114359484Y-70650100D01*
X114000064Y-70798977D01*
X113919000Y-70880041D01*
X113919000Y-70800630D01*
X116923124Y-67796506D01*
X118456000Y-67796506D01*
X118456000Y-68347494D01*
X118666853Y-68856540D01*
X119056460Y-69246147D01*
X119565506Y-69457000D01*
X120116494Y-69457000D01*
X120625540Y-69246147D01*
X121015147Y-68856540D01*
X121226000Y-68347494D01*
X121226000Y-67796506D01*
X123456000Y-67796506D01*
X123456000Y-68347494D01*
X123666853Y-68856540D01*
X124056460Y-69246147D01*
X124565506Y-69457000D01*
X125116494Y-69457000D01*
X125625540Y-69246147D01*
X126015147Y-68856540D01*
X126226000Y-68347494D01*
X126226000Y-67796506D01*
X126015147Y-67287460D01*
X125625540Y-66897853D01*
X125116494Y-66687000D01*
X124565506Y-66687000D01*
X124056460Y-66897853D01*
X123666853Y-67287460D01*
X123456000Y-67796506D01*
X121226000Y-67796506D01*
X121015147Y-67287460D01*
X120625540Y-66897853D01*
X120116494Y-66687000D01*
X119565506Y-66687000D01*
X119056460Y-66897853D01*
X118666853Y-67287460D01*
X118456000Y-67796506D01*
X116923124Y-67796506D01*
X123061199Y-61658431D01*
X139624000Y-61658431D01*
X139624000Y-62547569D01*
X139964259Y-63369026D01*
X140592974Y-63997741D01*
X141414431Y-64338000D01*
X142303569Y-64338000D01*
X143125026Y-63997741D01*
X143753741Y-63369026D01*
X144094000Y-62547569D01*
X144094000Y-61658431D01*
X143753741Y-60836974D01*
X143125026Y-60208259D01*
X142303569Y-59868000D01*
X141414431Y-59868000D01*
X140592974Y-60208259D01*
X139964259Y-60836974D01*
X139624000Y-61658431D01*
X123061199Y-61658431D01*
X125156631Y-59563000D01*
X136195957Y-59563000D01*
X136271000Y-59577927D01*
X136346043Y-59563000D01*
X136346048Y-59563000D01*
X136568317Y-59518788D01*
X136820371Y-59350371D01*
X136862883Y-59286747D01*
X137741782Y-58407848D01*
X137771119Y-58420000D01*
X138326881Y-58420000D01*
X138840337Y-58207320D01*
X139044444Y-58003213D01*
X139788392Y-58003213D01*
X139857857Y-58245397D01*
X140381302Y-58432144D01*
X140936368Y-58404362D01*
X141320143Y-58245397D01*
X141389608Y-58003213D01*
X140589000Y-57202605D01*
X139788392Y-58003213D01*
X139044444Y-58003213D01*
X139233320Y-57814337D01*
X139312428Y-57623353D01*
X139366603Y-57754143D01*
X139608787Y-57823608D01*
X140409395Y-57023000D01*
X140768605Y-57023000D01*
X141569213Y-57823608D01*
X141811397Y-57754143D01*
X141998144Y-57230698D01*
X141970362Y-56675632D01*
X141811397Y-56291857D01*
X141569213Y-56222392D01*
X140768605Y-57023000D01*
X140409395Y-57023000D01*
X139608787Y-56222392D01*
X139366603Y-56291857D01*
X139316465Y-56432393D01*
X139233320Y-56231663D01*
X139044444Y-56042787D01*
X139788392Y-56042787D01*
X140589000Y-56843395D01*
X141389608Y-56042787D01*
X141320143Y-55800603D01*
X140796698Y-55613856D01*
X140241632Y-55641638D01*
X139857857Y-55800603D01*
X139788392Y-56042787D01*
X139044444Y-56042787D01*
X138840337Y-55838680D01*
X138326881Y-55626000D01*
X137771119Y-55626000D01*
X137257663Y-55838680D01*
X136864680Y-56231663D01*
X136779000Y-56438513D01*
X136693320Y-56231663D01*
X136300337Y-55838680D01*
X135786881Y-55626000D01*
X135231119Y-55626000D01*
X134717663Y-55838680D01*
X134324680Y-56231663D01*
X134239000Y-56438513D01*
X134153320Y-56231663D01*
X133760337Y-55838680D01*
X133246881Y-55626000D01*
X132691119Y-55626000D01*
X132177663Y-55838680D01*
X131784680Y-56231663D01*
X131699000Y-56438513D01*
X131613320Y-56231663D01*
X131220337Y-55838680D01*
X130706881Y-55626000D01*
X130151119Y-55626000D01*
X129637663Y-55838680D01*
X129244680Y-56231663D01*
X129159000Y-56438513D01*
X129073320Y-56231663D01*
X128680337Y-55838680D01*
X128166881Y-55626000D01*
X127611119Y-55626000D01*
X127097663Y-55838680D01*
X126704680Y-56231663D01*
X126619000Y-56438513D01*
X126533320Y-56231663D01*
X126140337Y-55838680D01*
X125626881Y-55626000D01*
X125071119Y-55626000D01*
X124557663Y-55838680D01*
X124164680Y-56231663D01*
X124079000Y-56438513D01*
X123993320Y-56231663D01*
X123600337Y-55838680D01*
X123086881Y-55626000D01*
X122531119Y-55626000D01*
X122017663Y-55838680D01*
X121624680Y-56231663D01*
X121539000Y-56438513D01*
X121453320Y-56231663D01*
X121060337Y-55838680D01*
X120546881Y-55626000D01*
X119991119Y-55626000D01*
X119477663Y-55838680D01*
X119084680Y-56231663D01*
X118999000Y-56438513D01*
X118913320Y-56231663D01*
X118520337Y-55838680D01*
X118006881Y-55626000D01*
X117451119Y-55626000D01*
X116937663Y-55838680D01*
X116544680Y-56231663D01*
X116459000Y-56438513D01*
X116373320Y-56231663D01*
X115980337Y-55838680D01*
X115466881Y-55626000D01*
X114911119Y-55626000D01*
X114397663Y-55838680D01*
X114004680Y-56231663D01*
X113919000Y-56438513D01*
X113833320Y-56231663D01*
X113440337Y-55838680D01*
X112926881Y-55626000D01*
X112371119Y-55626000D01*
X111857663Y-55838680D01*
X111464680Y-56231663D01*
X111379000Y-56438513D01*
X111293320Y-56231663D01*
X110900337Y-55838680D01*
X110386881Y-55626000D01*
X109831119Y-55626000D01*
X109317663Y-55838680D01*
X108924680Y-56231663D01*
X108839000Y-56438513D01*
X108753320Y-56231663D01*
X108360337Y-55838680D01*
X107846881Y-55626000D01*
X107291119Y-55626000D01*
X106777663Y-55838680D01*
X106384680Y-56231663D01*
X106299000Y-56438513D01*
X106213320Y-56231663D01*
X105820337Y-55838680D01*
X105306881Y-55626000D01*
X104751119Y-55626000D01*
X104237663Y-55838680D01*
X103844680Y-56231663D01*
X103765572Y-56422647D01*
X103711397Y-56291857D01*
X103469213Y-56222392D01*
X102668605Y-57023000D01*
X103469213Y-57823608D01*
X103711397Y-57754143D01*
X103761535Y-57613607D01*
X103844680Y-57814337D01*
X104237663Y-58207320D01*
X104751119Y-58420000D01*
X105306881Y-58420000D01*
X105820337Y-58207320D01*
X106213320Y-57814337D01*
X106299000Y-57607487D01*
X106384680Y-57814337D01*
X106777663Y-58207320D01*
X107291119Y-58420000D01*
X107846881Y-58420000D01*
X108360337Y-58207320D01*
X108753320Y-57814337D01*
X108839000Y-57607487D01*
X108924680Y-57814337D01*
X109317663Y-58207320D01*
X109831119Y-58420000D01*
X109676042Y-58420000D01*
X109600999Y-58405073D01*
X109525956Y-58420000D01*
X109525952Y-58420000D01*
X109303683Y-58464212D01*
X109303682Y-58464213D01*
X109303681Y-58464213D01*
X109249641Y-58500322D01*
X109051629Y-58632629D01*
X109009116Y-58696254D01*
X102554370Y-65151000D01*
X99756631Y-65151000D01*
X98298000Y-63692370D01*
X98298000Y-62305042D01*
X98312927Y-62229999D01*
X98298000Y-62154956D01*
X98298000Y-62154952D01*
X98253788Y-61932683D01*
X98085371Y-61680629D01*
X98052150Y-61658431D01*
X98984000Y-61658431D01*
X98984000Y-62547569D01*
X99324259Y-63369026D01*
X99952974Y-63997741D01*
X100774431Y-64338000D01*
X101663569Y-64338000D01*
X102485026Y-63997741D01*
X103113741Y-63369026D01*
X103454000Y-62547569D01*
X103454000Y-61658431D01*
X103113741Y-60836974D01*
X102485026Y-60208259D01*
X101663569Y-59868000D01*
X100774431Y-59868000D01*
X99952974Y-60208259D01*
X99324259Y-60836974D01*
X98984000Y-61658431D01*
X98052150Y-61658431D01*
X98021749Y-61638118D01*
X96867343Y-60483713D01*
X97072486Y-60046892D01*
X96951819Y-59817000D01*
X95758000Y-59817000D01*
X95758000Y-59837000D01*
X95504000Y-59837000D01*
X95504000Y-59817000D01*
X95484000Y-59817000D01*
X95484000Y-59563000D01*
X95504000Y-59563000D01*
X95504000Y-58369845D01*
X95758000Y-58369845D01*
X95758000Y-59563000D01*
X96951819Y-59563000D01*
X97072486Y-59333108D01*
X96826183Y-58808642D01*
X96397924Y-58418355D01*
X95987890Y-58248524D01*
X95758000Y-58369845D01*
X95504000Y-58369845D01*
X95274110Y-58248524D01*
X94864076Y-58418355D01*
X94435817Y-58808642D01*
X94374843Y-58938478D01*
X94161625Y-58619375D01*
X93670418Y-58291161D01*
X93237256Y-58205000D01*
X92944744Y-58205000D01*
X92511582Y-58291161D01*
X92020375Y-58619375D01*
X91821000Y-58917761D01*
X91621625Y-58619375D01*
X91130418Y-58291161D01*
X90697256Y-58205000D01*
X90404744Y-58205000D01*
X89971582Y-58291161D01*
X89480375Y-58619375D01*
X89152161Y-59110582D01*
X89036908Y-59690000D01*
X71485440Y-59690000D01*
X71485440Y-58067000D01*
X71472753Y-58003213D01*
X101688392Y-58003213D01*
X101757857Y-58245397D01*
X102281302Y-58432144D01*
X102836368Y-58404362D01*
X103220143Y-58245397D01*
X103289608Y-58003213D01*
X102489000Y-57202605D01*
X101688392Y-58003213D01*
X71472753Y-58003213D01*
X71436157Y-57819235D01*
X71295809Y-57609191D01*
X71085765Y-57468843D01*
X70838000Y-57419560D01*
X67338000Y-57419560D01*
X67090235Y-57468843D01*
X66880191Y-57609191D01*
X66768731Y-57776001D01*
X66785440Y-57692000D01*
X66785440Y-56815302D01*
X101079856Y-56815302D01*
X101107638Y-57370368D01*
X101266603Y-57754143D01*
X101508787Y-57823608D01*
X102309395Y-57023000D01*
X101508787Y-56222392D01*
X101266603Y-56291857D01*
X101079856Y-56815302D01*
X66785440Y-56815302D01*
X66785440Y-56042787D01*
X101688392Y-56042787D01*
X102489000Y-56843395D01*
X103289608Y-56042787D01*
X103220143Y-55800603D01*
X102696698Y-55613856D01*
X102141632Y-55641638D01*
X101757857Y-55800603D01*
X101688392Y-56042787D01*
X66785440Y-56042787D01*
X66785440Y-55942000D01*
X66669551Y-55359387D01*
X66339528Y-54865472D01*
X65845613Y-54535449D01*
X65263000Y-54419560D01*
X63513000Y-54419560D01*
X62930387Y-54535449D01*
X62436472Y-54865472D01*
X62106449Y-55359387D01*
X61990560Y-55942000D01*
X55320000Y-55942000D01*
X55320000Y-53502964D01*
X55368810Y-53022431D01*
X56312000Y-53022431D01*
X56312000Y-53911569D01*
X56652259Y-54733026D01*
X57280974Y-55361741D01*
X58102431Y-55702000D01*
X58991569Y-55702000D01*
X59813026Y-55361741D01*
X60441741Y-54733026D01*
X60702810Y-54102750D01*
X66703000Y-54102750D01*
X66703000Y-55443309D01*
X66799673Y-55676698D01*
X66978301Y-55855327D01*
X67211690Y-55952000D01*
X68802250Y-55952000D01*
X68961000Y-55793250D01*
X68961000Y-53944000D01*
X69215000Y-53944000D01*
X69215000Y-55793250D01*
X69373750Y-55952000D01*
X70964310Y-55952000D01*
X71197699Y-55855327D01*
X71376327Y-55676698D01*
X71473000Y-55443309D01*
X71473000Y-54102750D01*
X71314250Y-53944000D01*
X69215000Y-53944000D01*
X68961000Y-53944000D01*
X66861750Y-53944000D01*
X66703000Y-54102750D01*
X60702810Y-54102750D01*
X60782000Y-53911569D01*
X60782000Y-53022431D01*
X60441741Y-52200974D01*
X60431458Y-52190691D01*
X66703000Y-52190691D01*
X66703000Y-53531250D01*
X66861750Y-53690000D01*
X68961000Y-53690000D01*
X68961000Y-51840750D01*
X69215000Y-51840750D01*
X69215000Y-53690000D01*
X71314250Y-53690000D01*
X71473000Y-53531250D01*
X71473000Y-53022431D01*
X150038000Y-53022431D01*
X150038000Y-53911569D01*
X150378259Y-54733026D01*
X151006974Y-55361741D01*
X151828431Y-55702000D01*
X152717569Y-55702000D01*
X153539026Y-55361741D01*
X154167741Y-54733026D01*
X154508000Y-53911569D01*
X154508000Y-53022431D01*
X154167741Y-52200974D01*
X153539026Y-51572259D01*
X152717569Y-51232000D01*
X151828431Y-51232000D01*
X151006974Y-51572259D01*
X150378259Y-52200974D01*
X150038000Y-53022431D01*
X71473000Y-53022431D01*
X71473000Y-52190691D01*
X71376327Y-51957302D01*
X71197699Y-51778673D01*
X70964310Y-51682000D01*
X69373750Y-51682000D01*
X69215000Y-51840750D01*
X68961000Y-51840750D01*
X68802250Y-51682000D01*
X67211690Y-51682000D01*
X66978301Y-51778673D01*
X66799673Y-51957302D01*
X66703000Y-52190691D01*
X60431458Y-52190691D01*
X59813026Y-51572259D01*
X58991569Y-51232000D01*
X58102431Y-51232000D01*
X57280974Y-51572259D01*
X56652259Y-52200974D01*
X56312000Y-53022431D01*
X55368810Y-53022431D01*
X55389489Y-52818859D01*
X55584309Y-52197188D01*
X55900153Y-51627392D01*
X56324117Y-51132743D01*
X56838888Y-50733446D01*
X57423432Y-50445816D01*
X58062349Y-50279390D01*
X58574269Y-50240000D01*
X152237036Y-50240000D01*
X152921141Y-50309489D01*
X152921141Y-50309489D01*
G37*
X152921141Y-50309489D02*
X153542812Y-50504309D01*
X154112608Y-50820153D01*
X154607257Y-51244117D01*
X155006554Y-51758888D01*
X155294184Y-52343432D01*
X155460610Y-52982349D01*
X155500000Y-53494269D01*
X155500001Y-121631261D01*
X155432784Y-122316798D01*
X155243779Y-122942812D01*
X154936780Y-123520193D01*
X154523486Y-124026941D01*
X154019629Y-124443769D01*
X153444408Y-124754790D01*
X152819731Y-124948160D01*
X152136217Y-125020000D01*
X58582963Y-125020000D01*
X57898859Y-124950511D01*
X57277190Y-124755692D01*
X56707394Y-124439849D01*
X56212741Y-124015881D01*
X55813448Y-123501114D01*
X55525815Y-122916569D01*
X55359390Y-122277651D01*
X55320000Y-121765730D01*
X55320000Y-121348431D01*
X56312000Y-121348431D01*
X56312000Y-122237569D01*
X56652259Y-123059026D01*
X57280974Y-123687741D01*
X58102431Y-124028000D01*
X58991569Y-124028000D01*
X59813026Y-123687741D01*
X60441741Y-123059026D01*
X60782000Y-122237569D01*
X60782000Y-121348431D01*
X60441741Y-120526974D01*
X59813026Y-119898259D01*
X59759289Y-119876000D01*
X112694560Y-119876000D01*
X112694560Y-121876000D01*
X112743843Y-122123765D01*
X112884191Y-122333809D01*
X113094235Y-122474157D01*
X113342000Y-122523440D01*
X116542000Y-122523440D01*
X116789765Y-122474157D01*
X116999809Y-122333809D01*
X117140157Y-122123765D01*
X117189440Y-121876000D01*
X117189440Y-119876000D01*
X137332560Y-119876000D01*
X137332560Y-121876000D01*
X137381843Y-122123765D01*
X137522191Y-122333809D01*
X137732235Y-122474157D01*
X137980000Y-122523440D01*
X141180000Y-122523440D01*
X141427765Y-122474157D01*
X141637809Y-122333809D01*
X141778157Y-122123765D01*
X141827440Y-121876000D01*
X141827440Y-121348431D01*
X149911000Y-121348431D01*
X149911000Y-122237569D01*
X150251259Y-123059026D01*
X150879974Y-123687741D01*
X151701431Y-124028000D01*
X152590569Y-124028000D01*
X153412026Y-123687741D01*
X154040741Y-123059026D01*
X154381000Y-122237569D01*
X154381000Y-121348431D01*
X154040741Y-120526974D01*
X153412026Y-119898259D01*
X152590569Y-119558000D01*
X151701431Y-119558000D01*
X150879974Y-119898259D01*
X150251259Y-120526974D01*
X149911000Y-121348431D01*
X141827440Y-121348431D01*
X141827440Y-119876000D01*
X141778157Y-119628235D01*
X141637809Y-119418191D01*
X141427765Y-119277843D01*
X141180000Y-119228560D01*
X137980000Y-119228560D01*
X137732235Y-119277843D01*
X137522191Y-119418191D01*
X137381843Y-119628235D01*
X137332560Y-119876000D01*
X117189440Y-119876000D01*
X117140157Y-119628235D01*
X116999809Y-119418191D01*
X116789765Y-119277843D01*
X116542000Y-119228560D01*
X113342000Y-119228560D01*
X113094235Y-119277843D01*
X112884191Y-119418191D01*
X112743843Y-119628235D01*
X112694560Y-119876000D01*
X59759289Y-119876000D01*
X58991569Y-119558000D01*
X58102431Y-119558000D01*
X57280974Y-119898259D01*
X56652259Y-120526974D01*
X56312000Y-121348431D01*
X55320000Y-121348431D01*
X55320000Y-116588072D01*
X64516000Y-116588072D01*
X64516000Y-117345928D01*
X64806019Y-118046096D01*
X65341904Y-118581981D01*
X66042072Y-118872000D01*
X66799928Y-118872000D01*
X67500096Y-118581981D01*
X68035981Y-118046096D01*
X68326000Y-117345928D01*
X68326000Y-116588072D01*
X74676000Y-116588072D01*
X74676000Y-117345928D01*
X74966019Y-118046096D01*
X75501904Y-118581981D01*
X76202072Y-118872000D01*
X76959928Y-118872000D01*
X77660096Y-118581981D01*
X78195981Y-118046096D01*
X78486000Y-117345928D01*
X78486000Y-116588072D01*
X86487000Y-116588072D01*
X86487000Y-117345928D01*
X86777019Y-118046096D01*
X87312904Y-118581981D01*
X88013072Y-118872000D01*
X88770928Y-118872000D01*
X89471096Y-118581981D01*
X90006981Y-118046096D01*
X90297000Y-117345928D01*
X90297000Y-116588072D01*
X96647000Y-116588072D01*
X96647000Y-117345928D01*
X96937019Y-118046096D01*
X97472904Y-118581981D01*
X98173072Y-118872000D01*
X98930928Y-118872000D01*
X99631096Y-118581981D01*
X100166981Y-118046096D01*
X100413569Y-117450778D01*
X105807000Y-117450778D01*
X105807000Y-118101222D01*
X106055914Y-118702153D01*
X106515847Y-119162086D01*
X107116778Y-119411000D01*
X107767222Y-119411000D01*
X108368153Y-119162086D01*
X108601707Y-118928532D01*
X120969073Y-118928532D01*
X121067736Y-119195387D01*
X121677461Y-119421908D01*
X122327460Y-119397856D01*
X122816264Y-119195387D01*
X122914927Y-118928532D01*
X121942000Y-117955605D01*
X120969073Y-118928532D01*
X108601707Y-118928532D01*
X108828086Y-118702153D01*
X109077000Y-118101222D01*
X109077000Y-117511461D01*
X120296092Y-117511461D01*
X120320144Y-118161460D01*
X120522613Y-118650264D01*
X120789468Y-118748927D01*
X121762395Y-117776000D01*
X122121605Y-117776000D01*
X123094532Y-118748927D01*
X123361387Y-118650264D01*
X123587908Y-118040539D01*
X123566085Y-117450778D01*
X130445000Y-117450778D01*
X130445000Y-118101222D01*
X130693914Y-118702153D01*
X131153847Y-119162086D01*
X131754778Y-119411000D01*
X132405222Y-119411000D01*
X133006153Y-119162086D01*
X133239707Y-118928532D01*
X145607073Y-118928532D01*
X145705736Y-119195387D01*
X146315461Y-119421908D01*
X146965460Y-119397856D01*
X147454264Y-119195387D01*
X147552927Y-118928532D01*
X146580000Y-117955605D01*
X145607073Y-118928532D01*
X133239707Y-118928532D01*
X133466086Y-118702153D01*
X133715000Y-118101222D01*
X133715000Y-117511461D01*
X144934092Y-117511461D01*
X144958144Y-118161460D01*
X145160613Y-118650264D01*
X145427468Y-118748927D01*
X146400395Y-117776000D01*
X146759605Y-117776000D01*
X147732532Y-118748927D01*
X147999387Y-118650264D01*
X148225908Y-118040539D01*
X148201856Y-117390540D01*
X147999387Y-116901736D01*
X147732532Y-116803073D01*
X146759605Y-117776000D01*
X146400395Y-117776000D01*
X145427468Y-116803073D01*
X145160613Y-116901736D01*
X144934092Y-117511461D01*
X133715000Y-117511461D01*
X133715000Y-117450778D01*
X133466086Y-116849847D01*
X133239707Y-116623468D01*
X145607073Y-116623468D01*
X146580000Y-117596395D01*
X147552927Y-116623468D01*
X147454264Y-116356613D01*
X146844539Y-116130092D01*
X146194540Y-116154144D01*
X145705736Y-116356613D01*
X145607073Y-116623468D01*
X133239707Y-116623468D01*
X133050725Y-116434486D01*
X133052927Y-116428532D01*
X132080000Y-115455605D01*
X131107073Y-116428532D01*
X131109275Y-116434486D01*
X130693914Y-116849847D01*
X130445000Y-117450778D01*
X123566085Y-117450778D01*
X123563856Y-117390540D01*
X123361387Y-116901736D01*
X123094532Y-116803073D01*
X122121605Y-117776000D01*
X121762395Y-117776000D01*
X120789468Y-116803073D01*
X120522613Y-116901736D01*
X120296092Y-117511461D01*
X109077000Y-117511461D01*
X109077000Y-117450778D01*
X108828086Y-116849847D01*
X108601707Y-116623468D01*
X120969073Y-116623468D01*
X121942000Y-117596395D01*
X122914927Y-116623468D01*
X122816264Y-116356613D01*
X122206539Y-116130092D01*
X121556540Y-116154144D01*
X121067736Y-116356613D01*
X120969073Y-116623468D01*
X108601707Y-116623468D01*
X108412725Y-116434486D01*
X108414927Y-116428532D01*
X107442000Y-115455605D01*
X106469073Y-116428532D01*
X106471275Y-116434486D01*
X106055914Y-116849847D01*
X105807000Y-117450778D01*
X100413569Y-117450778D01*
X100457000Y-117345928D01*
X100457000Y-116588072D01*
X100166981Y-115887904D01*
X99631096Y-115352019D01*
X98930928Y-115062000D01*
X98173072Y-115062000D01*
X97472904Y-115352019D01*
X96937019Y-115887904D01*
X96647000Y-116588072D01*
X90297000Y-116588072D01*
X90006981Y-115887904D01*
X89471096Y-115352019D01*
X88770928Y-115062000D01*
X88013072Y-115062000D01*
X87312904Y-115352019D01*
X86777019Y-115887904D01*
X86487000Y-116588072D01*
X78486000Y-116588072D01*
X78195981Y-115887904D01*
X77660096Y-115352019D01*
X76959928Y-115062000D01*
X76202072Y-115062000D01*
X75501904Y-115352019D01*
X74966019Y-115887904D01*
X74676000Y-116588072D01*
X68326000Y-116588072D01*
X68035981Y-115887904D01*
X67500096Y-115352019D01*
X66799928Y-115062000D01*
X66042072Y-115062000D01*
X65341904Y-115352019D01*
X64806019Y-115887904D01*
X64516000Y-116588072D01*
X55320000Y-116588072D01*
X55320000Y-111621750D01*
X70167500Y-111621750D01*
X70167500Y-112152250D01*
X70370513Y-112642367D01*
X70745633Y-113017487D01*
X71235750Y-113220500D01*
X71766250Y-113220500D01*
X72256367Y-113017487D01*
X72452666Y-112821188D01*
X73286417Y-112821188D01*
X73348071Y-113056800D01*
X73848480Y-113232927D01*
X74378199Y-113204148D01*
X74733929Y-113056800D01*
X74795583Y-112821188D01*
X74041000Y-112066605D01*
X73286417Y-112821188D01*
X72452666Y-112821188D01*
X72631487Y-112642367D01*
X72764275Y-112321789D01*
X72871200Y-112579929D01*
X73106812Y-112641583D01*
X73861395Y-111887000D01*
X74220605Y-111887000D01*
X74975188Y-112641583D01*
X75210800Y-112579929D01*
X75386927Y-112079520D01*
X75362057Y-111621750D01*
X92138500Y-111621750D01*
X92138500Y-112152250D01*
X92341513Y-112642367D01*
X92716633Y-113017487D01*
X93206750Y-113220500D01*
X93737250Y-113220500D01*
X94227367Y-113017487D01*
X94423666Y-112821188D01*
X95257417Y-112821188D01*
X95319071Y-113056800D01*
X95819480Y-113232927D01*
X96349199Y-113204148D01*
X96704929Y-113056800D01*
X96766583Y-112821188D01*
X96012000Y-112066605D01*
X95257417Y-112821188D01*
X94423666Y-112821188D01*
X94602487Y-112642367D01*
X94735275Y-112321789D01*
X94842200Y-112579929D01*
X95077812Y-112641583D01*
X95832395Y-111887000D01*
X96191605Y-111887000D01*
X96946188Y-112641583D01*
X97181800Y-112579929D01*
X97357927Y-112079520D01*
X97341438Y-111776000D01*
X105794560Y-111776000D01*
X105794560Y-113776000D01*
X105843843Y-114023765D01*
X105984191Y-114233809D01*
X106159671Y-114351062D01*
X106022613Y-114401736D01*
X105796092Y-115011461D01*
X105820144Y-115661460D01*
X106022613Y-116150264D01*
X106289468Y-116248927D01*
X107262395Y-115276000D01*
X107248253Y-115261858D01*
X107427858Y-115082253D01*
X107442000Y-115096395D01*
X107456143Y-115082253D01*
X107635748Y-115261858D01*
X107621605Y-115276000D01*
X108594532Y-116248927D01*
X108861387Y-116150264D01*
X109087908Y-115540539D01*
X109063856Y-114890540D01*
X108861387Y-114401736D01*
X108724329Y-114351062D01*
X108899809Y-114233809D01*
X109040157Y-114023765D01*
X109089440Y-113776000D01*
X109089440Y-112450778D01*
X120307000Y-112450778D01*
X120307000Y-113101222D01*
X120555914Y-113702153D01*
X121015847Y-114162086D01*
X121616778Y-114411000D01*
X122267222Y-114411000D01*
X122868153Y-114162086D01*
X123328086Y-113702153D01*
X123577000Y-113101222D01*
X123577000Y-112450778D01*
X123328086Y-111849847D01*
X123254239Y-111776000D01*
X130432560Y-111776000D01*
X130432560Y-113776000D01*
X130481843Y-114023765D01*
X130622191Y-114233809D01*
X130797671Y-114351062D01*
X130660613Y-114401736D01*
X130434092Y-115011461D01*
X130458144Y-115661460D01*
X130660613Y-116150264D01*
X130927468Y-116248927D01*
X131900395Y-115276000D01*
X131886253Y-115261858D01*
X132065858Y-115082253D01*
X132080000Y-115096395D01*
X132094143Y-115082253D01*
X132273748Y-115261858D01*
X132259605Y-115276000D01*
X133232532Y-116248927D01*
X133499387Y-116150264D01*
X133725908Y-115540539D01*
X133701856Y-114890540D01*
X133499387Y-114401736D01*
X133362329Y-114351062D01*
X133537809Y-114233809D01*
X133678157Y-114023765D01*
X133727440Y-113776000D01*
X133727440Y-112450778D01*
X144945000Y-112450778D01*
X144945000Y-113101222D01*
X145193914Y-113702153D01*
X145653847Y-114162086D01*
X146254778Y-114411000D01*
X146905222Y-114411000D01*
X147506153Y-114162086D01*
X147966086Y-113702153D01*
X148215000Y-113101222D01*
X148215000Y-112450778D01*
X147966086Y-111849847D01*
X147506153Y-111389914D01*
X146905222Y-111141000D01*
X146254778Y-111141000D01*
X145653847Y-111389914D01*
X145193914Y-111849847D01*
X144945000Y-112450778D01*
X133727440Y-112450778D01*
X133727440Y-111776000D01*
X133678157Y-111528235D01*
X133537809Y-111318191D01*
X133327765Y-111177843D01*
X133080000Y-111128560D01*
X131080000Y-111128560D01*
X130832235Y-111177843D01*
X130622191Y-111318191D01*
X130481843Y-111528235D01*
X130432560Y-111776000D01*
X123254239Y-111776000D01*
X122868153Y-111389914D01*
X122267222Y-111141000D01*
X121616778Y-111141000D01*
X121015847Y-111389914D01*
X120555914Y-111849847D01*
X120307000Y-112450778D01*
X109089440Y-112450778D01*
X109089440Y-111776000D01*
X109040157Y-111528235D01*
X108899809Y-111318191D01*
X108689765Y-111177843D01*
X108442000Y-111128560D01*
X106442000Y-111128560D01*
X106194235Y-111177843D01*
X105984191Y-111318191D01*
X105843843Y-111528235D01*
X105794560Y-111776000D01*
X97341438Y-111776000D01*
X97329148Y-111549801D01*
X97181800Y-111194071D01*
X96946188Y-111132417D01*
X96191605Y-111887000D01*
X95832395Y-111887000D01*
X95077812Y-111132417D01*
X94842200Y-111194071D01*
X94743962Y-111473184D01*
X94602487Y-111131633D01*
X94423666Y-110952812D01*
X95257417Y-110952812D01*
X96012000Y-111707395D01*
X96766583Y-110952812D01*
X96704929Y-110717200D01*
X96204520Y-110541073D01*
X95674801Y-110569852D01*
X95319071Y-110717200D01*
X95257417Y-110952812D01*
X94423666Y-110952812D01*
X94227367Y-110756513D01*
X93737250Y-110553500D01*
X93206750Y-110553500D01*
X92716633Y-110756513D01*
X92341513Y-111131633D01*
X92138500Y-111621750D01*
X75362057Y-111621750D01*
X75358148Y-111549801D01*
X75210800Y-111194071D01*
X74975188Y-111132417D01*
X74220605Y-111887000D01*
X73861395Y-111887000D01*
X73106812Y-111132417D01*
X72871200Y-111194071D01*
X72772962Y-111473184D01*
X72631487Y-111131633D01*
X72452666Y-110952812D01*
X73286417Y-110952812D01*
X74041000Y-111707395D01*
X74795583Y-110952812D01*
X74733929Y-110717200D01*
X74233520Y-110541073D01*
X73703801Y-110569852D01*
X73348071Y-110717200D01*
X73286417Y-110952812D01*
X72452666Y-110952812D01*
X72256367Y-110756513D01*
X71766250Y-110553500D01*
X71235750Y-110553500D01*
X70745633Y-110756513D01*
X70370513Y-111131633D01*
X70167500Y-111621750D01*
X55320000Y-111621750D01*
X55320000Y-108676000D01*
X112694560Y-108676000D01*
X112694560Y-110676000D01*
X112743843Y-110923765D01*
X112884191Y-111133809D01*
X113094235Y-111274157D01*
X113342000Y-111323440D01*
X116542000Y-111323440D01*
X116789765Y-111274157D01*
X116999809Y-111133809D01*
X117140157Y-110923765D01*
X117189440Y-110676000D01*
X117189440Y-108676000D01*
X137332560Y-108676000D01*
X137332560Y-110676000D01*
X137381843Y-110923765D01*
X137522191Y-111133809D01*
X137732235Y-111274157D01*
X137980000Y-111323440D01*
X141180000Y-111323440D01*
X141427765Y-111274157D01*
X141637809Y-111133809D01*
X141778157Y-110923765D01*
X141827440Y-110676000D01*
X141827440Y-108676000D01*
X141778157Y-108428235D01*
X141637809Y-108218191D01*
X141427765Y-108077843D01*
X141180000Y-108028560D01*
X137980000Y-108028560D01*
X137732235Y-108077843D01*
X137522191Y-108218191D01*
X137381843Y-108428235D01*
X137332560Y-108676000D01*
X117189440Y-108676000D01*
X117140157Y-108428235D01*
X116999809Y-108218191D01*
X116789765Y-108077843D01*
X116542000Y-108028560D01*
X113342000Y-108028560D01*
X113094235Y-108077843D01*
X112884191Y-108218191D01*
X112743843Y-108428235D01*
X112694560Y-108676000D01*
X55320000Y-108676000D01*
X55320000Y-102298431D01*
X98984000Y-102298431D01*
X98984000Y-103187569D01*
X99324259Y-104009026D01*
X99952974Y-104637741D01*
X100774431Y-104978000D01*
X101663569Y-104978000D01*
X102485026Y-104637741D01*
X103113741Y-104009026D01*
X103454000Y-103187569D01*
X103454000Y-102298431D01*
X139624000Y-102298431D01*
X139624000Y-103187569D01*
X139964259Y-104009026D01*
X140592974Y-104637741D01*
X141414431Y-104978000D01*
X142303569Y-104978000D01*
X143125026Y-104637741D01*
X143753741Y-104009026D01*
X144094000Y-103187569D01*
X144094000Y-102298431D01*
X143753741Y-101476974D01*
X143125026Y-100848259D01*
X142303569Y-100508000D01*
X141414431Y-100508000D01*
X140592974Y-100848259D01*
X139964259Y-101476974D01*
X139624000Y-102298431D01*
X103454000Y-102298431D01*
X103113741Y-101476974D01*
X102485026Y-100848259D01*
X101663569Y-100508000D01*
X100774431Y-100508000D01*
X99952974Y-100848259D01*
X99324259Y-101476974D01*
X98984000Y-102298431D01*
X55320000Y-102298431D01*
X55320000Y-74398119D01*
X72136000Y-74398119D01*
X72136000Y-74953881D01*
X72348680Y-75467337D01*
X72741663Y-75860320D01*
X72948513Y-75946000D01*
X72741663Y-76031680D01*
X72348680Y-76424663D01*
X72136000Y-76938119D01*
X72136000Y-77493881D01*
X72348680Y-78007337D01*
X72741663Y-78400320D01*
X72948513Y-78486000D01*
X72741663Y-78571680D01*
X72348680Y-78964663D01*
X72136000Y-79478119D01*
X72136000Y-80033881D01*
X72348680Y-80547337D01*
X72741663Y-80940320D01*
X72948513Y-81026000D01*
X72741663Y-81111680D01*
X72348680Y-81504663D01*
X72136000Y-82018119D01*
X72136000Y-82573881D01*
X72348680Y-83087337D01*
X72741663Y-83480320D01*
X72948513Y-83566000D01*
X72741663Y-83651680D01*
X72348680Y-84044663D01*
X72136000Y-84558119D01*
X72136000Y-85113881D01*
X72348680Y-85627337D01*
X72741663Y-86020320D01*
X72948513Y-86106000D01*
X72741663Y-86191680D01*
X72348680Y-86584663D01*
X72136000Y-87098119D01*
X72136000Y-87653881D01*
X72348680Y-88167337D01*
X72741663Y-88560320D01*
X72948513Y-88646000D01*
X72741663Y-88731680D01*
X72348680Y-89124663D01*
X72136000Y-89638119D01*
X72136000Y-90193881D01*
X72348680Y-90707337D01*
X72741663Y-91100320D01*
X72948513Y-91186000D01*
X72741663Y-91271680D01*
X72348680Y-91664663D01*
X72136000Y-92178119D01*
X72136000Y-92733881D01*
X72348680Y-93247337D01*
X72741663Y-93640320D01*
X72948513Y-93726000D01*
X72741663Y-93811680D01*
X72348680Y-94204663D01*
X72136000Y-94718119D01*
X72136000Y-95273881D01*
X72348680Y-95787337D01*
X72741663Y-96180320D01*
X73255119Y-96393000D01*
X73810881Y-96393000D01*
X74324337Y-96180320D01*
X74717320Y-95787337D01*
X74930000Y-95273881D01*
X74930000Y-94718119D01*
X74717320Y-94204663D01*
X74324337Y-93811680D01*
X74117487Y-93726000D01*
X74324337Y-93640320D01*
X74717320Y-93247337D01*
X74930000Y-92733881D01*
X74930000Y-92178119D01*
X74717320Y-91664663D01*
X74324337Y-91271680D01*
X74117487Y-91186000D01*
X74324337Y-91100320D01*
X74717320Y-90707337D01*
X74930000Y-90193881D01*
X74930000Y-89638119D01*
X74717320Y-89124663D01*
X74324337Y-88731680D01*
X74117487Y-88646000D01*
X74324337Y-88560320D01*
X74717320Y-88167337D01*
X74930000Y-87653881D01*
X74930000Y-87098119D01*
X74717320Y-86584663D01*
X74324337Y-86191680D01*
X74117487Y-86106000D01*
X74324337Y-86020320D01*
X74717320Y-85627337D01*
X74930000Y-85113881D01*
X74930000Y-84558119D01*
X92456000Y-84558119D01*
X92456000Y-85113881D01*
X92668680Y-85627337D01*
X93061663Y-86020320D01*
X93268513Y-86106000D01*
X93061663Y-86191680D01*
X92668680Y-86584663D01*
X92456000Y-87098119D01*
X92456000Y-87653881D01*
X92668680Y-88167337D01*
X93061663Y-88560320D01*
X93268513Y-88646000D01*
X93061663Y-88731680D01*
X92668680Y-89124663D01*
X92456000Y-89638119D01*
X92456000Y-90193881D01*
X92668680Y-90707337D01*
X93061663Y-91100320D01*
X93268513Y-91186000D01*
X93061663Y-91271680D01*
X92668680Y-91664663D01*
X92456000Y-92178119D01*
X92456000Y-92733881D01*
X92668680Y-93247337D01*
X93061663Y-93640320D01*
X93268513Y-93726000D01*
X93061663Y-93811680D01*
X92668680Y-94204663D01*
X92456000Y-94718119D01*
X92456000Y-95273881D01*
X92668680Y-95787337D01*
X93061663Y-96180320D01*
X93575119Y-96393000D01*
X94130881Y-96393000D01*
X94644337Y-96180320D01*
X95037320Y-95787337D01*
X95250000Y-95273881D01*
X95250000Y-94718119D01*
X95037320Y-94204663D01*
X94644337Y-93811680D01*
X94437487Y-93726000D01*
X94644337Y-93640320D01*
X95037320Y-93247337D01*
X95250000Y-92733881D01*
X95250000Y-92178119D01*
X95037320Y-91664663D01*
X94644337Y-91271680D01*
X94437487Y-91186000D01*
X94644337Y-91100320D01*
X95037320Y-90707337D01*
X95250000Y-90193881D01*
X95250000Y-89638119D01*
X95037320Y-89124663D01*
X94644337Y-88731680D01*
X94437487Y-88646000D01*
X94644337Y-88560320D01*
X95037320Y-88167337D01*
X95250000Y-87653881D01*
X95250000Y-87098119D01*
X95037320Y-86584663D01*
X94644337Y-86191680D01*
X94437487Y-86106000D01*
X94644337Y-86020320D01*
X95037320Y-85627337D01*
X95250000Y-85113881D01*
X95250000Y-84558119D01*
X95037320Y-84044663D01*
X94644337Y-83651680D01*
X94453353Y-83572572D01*
X94584143Y-83518397D01*
X94653608Y-83276213D01*
X93853000Y-82475605D01*
X93052392Y-83276213D01*
X93121857Y-83518397D01*
X93262393Y-83568535D01*
X93061663Y-83651680D01*
X92668680Y-84044663D01*
X92456000Y-84558119D01*
X74930000Y-84558119D01*
X74717320Y-84044663D01*
X74324337Y-83651680D01*
X74117487Y-83566000D01*
X74324337Y-83480320D01*
X74717320Y-83087337D01*
X74930000Y-82573881D01*
X74930000Y-82088302D01*
X92443856Y-82088302D01*
X92471638Y-82643368D01*
X92630603Y-83027143D01*
X92872787Y-83096608D01*
X93673395Y-82296000D01*
X94032605Y-82296000D01*
X94833213Y-83096608D01*
X95075397Y-83027143D01*
X95262144Y-82503698D01*
X95234362Y-81948632D01*
X95075397Y-81564857D01*
X94833213Y-81495392D01*
X94032605Y-82296000D01*
X93673395Y-82296000D01*
X92872787Y-81495392D01*
X92630603Y-81564857D01*
X92443856Y-82088302D01*
X74930000Y-82088302D01*
X74930000Y-82018119D01*
X74717320Y-81504663D01*
X74324337Y-81111680D01*
X74117487Y-81026000D01*
X74324337Y-80940320D01*
X74717320Y-80547337D01*
X74930000Y-80033881D01*
X74930000Y-79478119D01*
X74717320Y-78964663D01*
X74324337Y-78571680D01*
X74117487Y-78486000D01*
X74324337Y-78400320D01*
X74717320Y-78007337D01*
X74930000Y-77493881D01*
X74930000Y-76938119D01*
X74717320Y-76424663D01*
X74324337Y-76031680D01*
X74117487Y-75946000D01*
X74324337Y-75860320D01*
X74717320Y-75467337D01*
X74930000Y-74953881D01*
X74930000Y-74398119D01*
X74717320Y-73884663D01*
X74324337Y-73491680D01*
X74133353Y-73412572D01*
X74264143Y-73358397D01*
X74333608Y-73116213D01*
X73533000Y-72315605D01*
X72732392Y-73116213D01*
X72801857Y-73358397D01*
X72942393Y-73408535D01*
X72741663Y-73491680D01*
X72348680Y-73884663D01*
X72136000Y-74398119D01*
X55320000Y-74398119D01*
X55320000Y-71928302D01*
X72123856Y-71928302D01*
X72151638Y-72483368D01*
X72310603Y-72867143D01*
X72552787Y-72936608D01*
X73353395Y-72136000D01*
X73712605Y-72136000D01*
X74513213Y-72936608D01*
X74755397Y-72867143D01*
X74942144Y-72343698D01*
X74917840Y-71858119D01*
X92456000Y-71858119D01*
X92456000Y-72413881D01*
X92668680Y-72927337D01*
X93061663Y-73320320D01*
X93268513Y-73406000D01*
X93061663Y-73491680D01*
X92668680Y-73884663D01*
X92456000Y-74398119D01*
X92456000Y-74953881D01*
X92668680Y-75467337D01*
X93061663Y-75860320D01*
X93268513Y-75946000D01*
X93061663Y-76031680D01*
X92668680Y-76424663D01*
X92456000Y-76938119D01*
X92456000Y-77493881D01*
X92668680Y-78007337D01*
X93061663Y-78400320D01*
X93268513Y-78486000D01*
X93061663Y-78571680D01*
X92668680Y-78964663D01*
X92456000Y-79478119D01*
X92456000Y-80033881D01*
X92668680Y-80547337D01*
X93061663Y-80940320D01*
X93252647Y-81019428D01*
X93121857Y-81073603D01*
X93052392Y-81315787D01*
X93853000Y-82116395D01*
X94653608Y-81315787D01*
X94584143Y-81073603D01*
X94443607Y-81023465D01*
X94644337Y-80940320D01*
X95037320Y-80547337D01*
X95250000Y-80033881D01*
X95250000Y-79478119D01*
X95037320Y-78964663D01*
X94644337Y-78571680D01*
X94437487Y-78486000D01*
X94644337Y-78400320D01*
X95037320Y-78007337D01*
X95250000Y-77493881D01*
X95250000Y-76938119D01*
X95037320Y-76424663D01*
X94644337Y-76031680D01*
X94437487Y-75946000D01*
X94644337Y-75860320D01*
X95037320Y-75467337D01*
X95250000Y-74953881D01*
X95250000Y-74398119D01*
X95037320Y-73884663D01*
X94644337Y-73491680D01*
X94437487Y-73406000D01*
X94644337Y-73320320D01*
X95037320Y-72927337D01*
X95250000Y-72413881D01*
X95250000Y-71858119D01*
X95037320Y-71344663D01*
X94644337Y-70951680D01*
X94130881Y-70739000D01*
X93575119Y-70739000D01*
X93061663Y-70951680D01*
X92668680Y-71344663D01*
X92456000Y-71858119D01*
X74917840Y-71858119D01*
X74914362Y-71788632D01*
X74755397Y-71404857D01*
X74513213Y-71335392D01*
X73712605Y-72136000D01*
X73353395Y-72136000D01*
X72552787Y-71335392D01*
X72310603Y-71404857D01*
X72123856Y-71928302D01*
X55320000Y-71928302D01*
X55320000Y-71155787D01*
X72732392Y-71155787D01*
X73533000Y-71956395D01*
X74333608Y-71155787D01*
X74264143Y-70913603D01*
X73740698Y-70726856D01*
X73185632Y-70754638D01*
X72801857Y-70913603D01*
X72732392Y-71155787D01*
X55320000Y-71155787D01*
X55320000Y-55942000D01*
X61990560Y-55942000D01*
X61990560Y-57692000D01*
X62106449Y-58274613D01*
X62436472Y-58768528D01*
X62930387Y-59098551D01*
X63513000Y-59214440D01*
X65263000Y-59214440D01*
X65845613Y-59098551D01*
X66339528Y-58768528D01*
X66669551Y-58274613D01*
X66690560Y-58168994D01*
X66690560Y-61567000D01*
X66739843Y-61814765D01*
X66880191Y-62024809D01*
X67090235Y-62165157D01*
X67338000Y-62214440D01*
X70838000Y-62214440D01*
X71085765Y-62165157D01*
X71295809Y-62024809D01*
X71436157Y-61814765D01*
X71485440Y-61567000D01*
X71485440Y-59690000D01*
X89036908Y-59690000D01*
X89152161Y-60269418D01*
X89480375Y-60760625D01*
X89498619Y-60772816D01*
X89453235Y-60781843D01*
X89243191Y-60922191D01*
X89102843Y-61132235D01*
X89053560Y-61380000D01*
X89053560Y-63080000D01*
X89102843Y-63327765D01*
X89243191Y-63537809D01*
X89453235Y-63678157D01*
X89701000Y-63727440D01*
X91401000Y-63727440D01*
X91465901Y-63714531D01*
X105918001Y-78166632D01*
X105918000Y-84887957D01*
X105903073Y-84963000D01*
X105918000Y-85038043D01*
X105918000Y-85038047D01*
X105962212Y-85260316D01*
X106130629Y-85512371D01*
X106194253Y-85554883D01*
X106658482Y-86019113D01*
X106658482Y-86113898D01*
X106807359Y-86473318D01*
X107082446Y-86748405D01*
X107441866Y-86897282D01*
X107830898Y-86897282D01*
X108190318Y-86748405D01*
X108465405Y-86473318D01*
X108614282Y-86113898D01*
X108614282Y-85724866D01*
X108499056Y-85446686D01*
X110401100Y-87348731D01*
X110401100Y-87443516D01*
X110549977Y-87802936D01*
X110825064Y-88078023D01*
X111184484Y-88226900D01*
X111573516Y-88226900D01*
X111932936Y-88078023D01*
X112208023Y-87802936D01*
X112356900Y-87443516D01*
X112356900Y-87054484D01*
X112208023Y-86695064D01*
X111932936Y-86419977D01*
X111573516Y-86271100D01*
X111478731Y-86271100D01*
X108623090Y-83415460D01*
X108623090Y-82435539D01*
X108629212Y-82466316D01*
X108797629Y-82718371D01*
X108861253Y-82760884D01*
X122217118Y-96116749D01*
X122259629Y-96180371D01*
X122511683Y-96348788D01*
X122733952Y-96393000D01*
X122733957Y-96393000D01*
X122809000Y-96407927D01*
X122884043Y-96393000D01*
X126543957Y-96393000D01*
X126619000Y-96407927D01*
X126694043Y-96393000D01*
X126694048Y-96393000D01*
X126885590Y-96354900D01*
X127067516Y-96354900D01*
X127426936Y-96206023D01*
X127702023Y-95930936D01*
X127850900Y-95571516D01*
X127850900Y-95182484D01*
X127702023Y-94823064D01*
X127430459Y-94551500D01*
X127575023Y-94406936D01*
X127723900Y-94047516D01*
X127723900Y-93658484D01*
X127575023Y-93299064D01*
X127299936Y-93023977D01*
X126940516Y-92875100D01*
X126551484Y-92875100D01*
X126192064Y-93023977D01*
X125916977Y-93299064D01*
X125792739Y-93599000D01*
X122870631Y-93599000D01*
X118782521Y-89510890D01*
X143719524Y-89510890D01*
X143889355Y-89920924D01*
X144279642Y-90349183D01*
X144804108Y-90595486D01*
X145034000Y-90474819D01*
X145034000Y-89281000D01*
X145288000Y-89281000D01*
X145288000Y-90474819D01*
X145517892Y-90595486D01*
X146042358Y-90349183D01*
X146432645Y-89920924D01*
X146602476Y-89510890D01*
X146481155Y-89281000D01*
X145288000Y-89281000D01*
X145034000Y-89281000D01*
X143840845Y-89281000D01*
X143719524Y-89510890D01*
X118782521Y-89510890D01*
X110744000Y-81472370D01*
X110744000Y-80198630D01*
X115608100Y-85062731D01*
X115608100Y-85157516D01*
X115756977Y-85516936D01*
X116032064Y-85792023D01*
X116391484Y-85940900D01*
X116780516Y-85940900D01*
X117139936Y-85792023D01*
X117415023Y-85516936D01*
X117563900Y-85157516D01*
X117563900Y-85056539D01*
X117695846Y-85001885D01*
X117970933Y-84726798D01*
X118119810Y-84367378D01*
X118119810Y-84335592D01*
X118282936Y-84268023D01*
X118558023Y-83992936D01*
X118706900Y-83633516D01*
X118706900Y-83244484D01*
X118558023Y-82885064D01*
X118282936Y-82609977D01*
X117923516Y-82461100D01*
X117828731Y-82461100D01*
X113919000Y-78551370D01*
X113919000Y-72375959D01*
X114000064Y-72457023D01*
X114359484Y-72605900D01*
X114748516Y-72605900D01*
X115107936Y-72457023D01*
X115174959Y-72390000D01*
X141123370Y-72390000D01*
X143868998Y-75135629D01*
X143853191Y-75146191D01*
X143712843Y-75356235D01*
X143663560Y-75604000D01*
X143663560Y-77304000D01*
X143712843Y-77551765D01*
X143853191Y-77761809D01*
X144063235Y-77902157D01*
X144108619Y-77911184D01*
X144090375Y-77923375D01*
X143884158Y-78232000D01*
X143585043Y-78232000D01*
X143510000Y-78217073D01*
X143434957Y-78232000D01*
X143434952Y-78232000D01*
X143212683Y-78276212D01*
X142960629Y-78444629D01*
X142918118Y-78508251D01*
X141162370Y-80264000D01*
X134478959Y-80264000D01*
X134411936Y-80196977D01*
X134052516Y-80048100D01*
X133663484Y-80048100D01*
X133304064Y-80196977D01*
X133028977Y-80472064D01*
X132880100Y-80831484D01*
X132880100Y-81051168D01*
X132796064Y-81085977D01*
X132520977Y-81361064D01*
X132372100Y-81720484D01*
X132372100Y-82109516D01*
X132486169Y-82384901D01*
X132372100Y-82660287D01*
X132372100Y-83049319D01*
X132520977Y-83408739D01*
X132796064Y-83683826D01*
X133155484Y-83832703D01*
X133544516Y-83832703D01*
X133903936Y-83683826D01*
X133970959Y-83616803D01*
X138621844Y-83616803D01*
X138638064Y-83633023D01*
X138997484Y-83781900D01*
X139386516Y-83781900D01*
X139745936Y-83633023D01*
X140021023Y-83357936D01*
X140169900Y-82998516D01*
X140169900Y-82677000D01*
X144198692Y-82677000D01*
X144388761Y-82804000D01*
X144090375Y-83003375D01*
X143762161Y-83494582D01*
X143646908Y-84074000D01*
X143762161Y-84653418D01*
X144090375Y-85144625D01*
X144388761Y-85344000D01*
X144090375Y-85543375D01*
X143762161Y-86034582D01*
X143646908Y-86614000D01*
X143762161Y-87193418D01*
X144090375Y-87684625D01*
X144409478Y-87897843D01*
X144279642Y-87958817D01*
X143889355Y-88387076D01*
X143719524Y-88797110D01*
X143840845Y-89027000D01*
X145034000Y-89027000D01*
X145034000Y-89007000D01*
X145288000Y-89007000D01*
X145288000Y-89027000D01*
X146481155Y-89027000D01*
X146602476Y-88797110D01*
X146432645Y-88387076D01*
X146042358Y-87958817D01*
X145912522Y-87897843D01*
X146231625Y-87684625D01*
X146559839Y-87193418D01*
X146675092Y-86614000D01*
X146559839Y-86034582D01*
X146231625Y-85543375D01*
X145933239Y-85344000D01*
X146231625Y-85144625D01*
X146559839Y-84653418D01*
X146675092Y-84074000D01*
X146559839Y-83494582D01*
X146231625Y-83003375D01*
X145933239Y-82804000D01*
X146231625Y-82604625D01*
X146559839Y-82113418D01*
X146675092Y-81534000D01*
X146559839Y-80954582D01*
X146231625Y-80463375D01*
X145933239Y-80264000D01*
X146231625Y-80064625D01*
X146559839Y-79573418D01*
X146675092Y-78994000D01*
X146559839Y-78414582D01*
X146231625Y-77923375D01*
X146213381Y-77911184D01*
X146258765Y-77902157D01*
X146468809Y-77761809D01*
X146609157Y-77551765D01*
X146658440Y-77304000D01*
X146658440Y-75604000D01*
X146609157Y-75356235D01*
X146468809Y-75146191D01*
X146258765Y-75005843D01*
X146011000Y-74956560D01*
X145814561Y-74956560D01*
X145710371Y-74800629D01*
X145646750Y-74758119D01*
X142030883Y-71142253D01*
X141988371Y-71078629D01*
X141736317Y-70910212D01*
X141514048Y-70866000D01*
X141514043Y-70866000D01*
X141439000Y-70851073D01*
X141363957Y-70866000D01*
X115174959Y-70866000D01*
X115107936Y-70798977D01*
X114748516Y-70650100D01*
X114359484Y-70650100D01*
X114000064Y-70798977D01*
X113919000Y-70880041D01*
X113919000Y-70800630D01*
X116923124Y-67796506D01*
X118456000Y-67796506D01*
X118456000Y-68347494D01*
X118666853Y-68856540D01*
X119056460Y-69246147D01*
X119565506Y-69457000D01*
X120116494Y-69457000D01*
X120625540Y-69246147D01*
X121015147Y-68856540D01*
X121226000Y-68347494D01*
X121226000Y-67796506D01*
X123456000Y-67796506D01*
X123456000Y-68347494D01*
X123666853Y-68856540D01*
X124056460Y-69246147D01*
X124565506Y-69457000D01*
X125116494Y-69457000D01*
X125625540Y-69246147D01*
X126015147Y-68856540D01*
X126226000Y-68347494D01*
X126226000Y-67796506D01*
X126015147Y-67287460D01*
X125625540Y-66897853D01*
X125116494Y-66687000D01*
X124565506Y-66687000D01*
X124056460Y-66897853D01*
X123666853Y-67287460D01*
X123456000Y-67796506D01*
X121226000Y-67796506D01*
X121015147Y-67287460D01*
X120625540Y-66897853D01*
X120116494Y-66687000D01*
X119565506Y-66687000D01*
X119056460Y-66897853D01*
X118666853Y-67287460D01*
X118456000Y-67796506D01*
X116923124Y-67796506D01*
X123061199Y-61658431D01*
X139624000Y-61658431D01*
X139624000Y-62547569D01*
X139964259Y-63369026D01*
X140592974Y-63997741D01*
X141414431Y-64338000D01*
X142303569Y-64338000D01*
X143125026Y-63997741D01*
X143753741Y-63369026D01*
X144094000Y-62547569D01*
X144094000Y-61658431D01*
X143753741Y-60836974D01*
X143125026Y-60208259D01*
X142303569Y-59868000D01*
X141414431Y-59868000D01*
X140592974Y-60208259D01*
X139964259Y-60836974D01*
X139624000Y-61658431D01*
X123061199Y-61658431D01*
X125156631Y-59563000D01*
X136195957Y-59563000D01*
X136271000Y-59577927D01*
X136346043Y-59563000D01*
X136346048Y-59563000D01*
X136568317Y-59518788D01*
X136820371Y-59350371D01*
X136862883Y-59286747D01*
X137741782Y-58407848D01*
X137771119Y-58420000D01*
X138326881Y-58420000D01*
X138840337Y-58207320D01*
X139044444Y-58003213D01*
X139788392Y-58003213D01*
X139857857Y-58245397D01*
X140381302Y-58432144D01*
X140936368Y-58404362D01*
X141320143Y-58245397D01*
X141389608Y-58003213D01*
X140589000Y-57202605D01*
X139788392Y-58003213D01*
X139044444Y-58003213D01*
X139233320Y-57814337D01*
X139312428Y-57623353D01*
X139366603Y-57754143D01*
X139608787Y-57823608D01*
X140409395Y-57023000D01*
X140768605Y-57023000D01*
X141569213Y-57823608D01*
X141811397Y-57754143D01*
X141998144Y-57230698D01*
X141970362Y-56675632D01*
X141811397Y-56291857D01*
X141569213Y-56222392D01*
X140768605Y-57023000D01*
X140409395Y-57023000D01*
X139608787Y-56222392D01*
X139366603Y-56291857D01*
X139316465Y-56432393D01*
X139233320Y-56231663D01*
X139044444Y-56042787D01*
X139788392Y-56042787D01*
X140589000Y-56843395D01*
X141389608Y-56042787D01*
X141320143Y-55800603D01*
X140796698Y-55613856D01*
X140241632Y-55641638D01*
X139857857Y-55800603D01*
X139788392Y-56042787D01*
X139044444Y-56042787D01*
X138840337Y-55838680D01*
X138326881Y-55626000D01*
X137771119Y-55626000D01*
X137257663Y-55838680D01*
X136864680Y-56231663D01*
X136779000Y-56438513D01*
X136693320Y-56231663D01*
X136300337Y-55838680D01*
X135786881Y-55626000D01*
X135231119Y-55626000D01*
X134717663Y-55838680D01*
X134324680Y-56231663D01*
X134239000Y-56438513D01*
X134153320Y-56231663D01*
X133760337Y-55838680D01*
X133246881Y-55626000D01*
X132691119Y-55626000D01*
X132177663Y-55838680D01*
X131784680Y-56231663D01*
X131699000Y-56438513D01*
X131613320Y-56231663D01*
X131220337Y-55838680D01*
X130706881Y-55626000D01*
X130151119Y-55626000D01*
X129637663Y-55838680D01*
X129244680Y-56231663D01*
X129159000Y-56438513D01*
X129073320Y-56231663D01*
X128680337Y-55838680D01*
X128166881Y-55626000D01*
X127611119Y-55626000D01*
X127097663Y-55838680D01*
X126704680Y-56231663D01*
X126619000Y-56438513D01*
X126533320Y-56231663D01*
X126140337Y-55838680D01*
X125626881Y-55626000D01*
X125071119Y-55626000D01*
X124557663Y-55838680D01*
X124164680Y-56231663D01*
X124079000Y-56438513D01*
X123993320Y-56231663D01*
X123600337Y-55838680D01*
X123086881Y-55626000D01*
X122531119Y-55626000D01*
X122017663Y-55838680D01*
X121624680Y-56231663D01*
X121539000Y-56438513D01*
X121453320Y-56231663D01*
X121060337Y-55838680D01*
X120546881Y-55626000D01*
X119991119Y-55626000D01*
X119477663Y-55838680D01*
X119084680Y-56231663D01*
X118999000Y-56438513D01*
X118913320Y-56231663D01*
X118520337Y-55838680D01*
X118006881Y-55626000D01*
X117451119Y-55626000D01*
X116937663Y-55838680D01*
X116544680Y-56231663D01*
X116459000Y-56438513D01*
X116373320Y-56231663D01*
X115980337Y-55838680D01*
X115466881Y-55626000D01*
X114911119Y-55626000D01*
X114397663Y-55838680D01*
X114004680Y-56231663D01*
X113919000Y-56438513D01*
X113833320Y-56231663D01*
X113440337Y-55838680D01*
X112926881Y-55626000D01*
X112371119Y-55626000D01*
X111857663Y-55838680D01*
X111464680Y-56231663D01*
X111379000Y-56438513D01*
X111293320Y-56231663D01*
X110900337Y-55838680D01*
X110386881Y-55626000D01*
X109831119Y-55626000D01*
X109317663Y-55838680D01*
X108924680Y-56231663D01*
X108839000Y-56438513D01*
X108753320Y-56231663D01*
X108360337Y-55838680D01*
X107846881Y-55626000D01*
X107291119Y-55626000D01*
X106777663Y-55838680D01*
X106384680Y-56231663D01*
X106299000Y-56438513D01*
X106213320Y-56231663D01*
X105820337Y-55838680D01*
X105306881Y-55626000D01*
X104751119Y-55626000D01*
X104237663Y-55838680D01*
X103844680Y-56231663D01*
X103765572Y-56422647D01*
X103711397Y-56291857D01*
X103469213Y-56222392D01*
X102668605Y-57023000D01*
X103469213Y-57823608D01*
X103711397Y-57754143D01*
X103761535Y-57613607D01*
X103844680Y-57814337D01*
X104237663Y-58207320D01*
X104751119Y-58420000D01*
X105306881Y-58420000D01*
X105820337Y-58207320D01*
X106213320Y-57814337D01*
X106299000Y-57607487D01*
X106384680Y-57814337D01*
X106777663Y-58207320D01*
X107291119Y-58420000D01*
X107846881Y-58420000D01*
X108360337Y-58207320D01*
X108753320Y-57814337D01*
X108839000Y-57607487D01*
X108924680Y-57814337D01*
X109317663Y-58207320D01*
X109831119Y-58420000D01*
X109676042Y-58420000D01*
X109600999Y-58405073D01*
X109525956Y-58420000D01*
X109525952Y-58420000D01*
X109303683Y-58464212D01*
X109303682Y-58464213D01*
X109303681Y-58464213D01*
X109249641Y-58500322D01*
X109051629Y-58632629D01*
X109009116Y-58696254D01*
X102554370Y-65151000D01*
X99756631Y-65151000D01*
X98298000Y-63692370D01*
X98298000Y-62305042D01*
X98312927Y-62229999D01*
X98298000Y-62154956D01*
X98298000Y-62154952D01*
X98253788Y-61932683D01*
X98085371Y-61680629D01*
X98052150Y-61658431D01*
X98984000Y-61658431D01*
X98984000Y-62547569D01*
X99324259Y-63369026D01*
X99952974Y-63997741D01*
X100774431Y-64338000D01*
X101663569Y-64338000D01*
X102485026Y-63997741D01*
X103113741Y-63369026D01*
X103454000Y-62547569D01*
X103454000Y-61658431D01*
X103113741Y-60836974D01*
X102485026Y-60208259D01*
X101663569Y-59868000D01*
X100774431Y-59868000D01*
X99952974Y-60208259D01*
X99324259Y-60836974D01*
X98984000Y-61658431D01*
X98052150Y-61658431D01*
X98021749Y-61638118D01*
X96867343Y-60483713D01*
X97072486Y-60046892D01*
X96951819Y-59817000D01*
X95758000Y-59817000D01*
X95758000Y-59837000D01*
X95504000Y-59837000D01*
X95504000Y-59817000D01*
X95484000Y-59817000D01*
X95484000Y-59563000D01*
X95504000Y-59563000D01*
X95504000Y-58369845D01*
X95758000Y-58369845D01*
X95758000Y-59563000D01*
X96951819Y-59563000D01*
X97072486Y-59333108D01*
X96826183Y-58808642D01*
X96397924Y-58418355D01*
X95987890Y-58248524D01*
X95758000Y-58369845D01*
X95504000Y-58369845D01*
X95274110Y-58248524D01*
X94864076Y-58418355D01*
X94435817Y-58808642D01*
X94374843Y-58938478D01*
X94161625Y-58619375D01*
X93670418Y-58291161D01*
X93237256Y-58205000D01*
X92944744Y-58205000D01*
X92511582Y-58291161D01*
X92020375Y-58619375D01*
X91821000Y-58917761D01*
X91621625Y-58619375D01*
X91130418Y-58291161D01*
X90697256Y-58205000D01*
X90404744Y-58205000D01*
X89971582Y-58291161D01*
X89480375Y-58619375D01*
X89152161Y-59110582D01*
X89036908Y-59690000D01*
X71485440Y-59690000D01*
X71485440Y-58067000D01*
X71472753Y-58003213D01*
X101688392Y-58003213D01*
X101757857Y-58245397D01*
X102281302Y-58432144D01*
X102836368Y-58404362D01*
X103220143Y-58245397D01*
X103289608Y-58003213D01*
X102489000Y-57202605D01*
X101688392Y-58003213D01*
X71472753Y-58003213D01*
X71436157Y-57819235D01*
X71295809Y-57609191D01*
X71085765Y-57468843D01*
X70838000Y-57419560D01*
X67338000Y-57419560D01*
X67090235Y-57468843D01*
X66880191Y-57609191D01*
X66768731Y-57776001D01*
X66785440Y-57692000D01*
X66785440Y-56815302D01*
X101079856Y-56815302D01*
X101107638Y-57370368D01*
X101266603Y-57754143D01*
X101508787Y-57823608D01*
X102309395Y-57023000D01*
X101508787Y-56222392D01*
X101266603Y-56291857D01*
X101079856Y-56815302D01*
X66785440Y-56815302D01*
X66785440Y-56042787D01*
X101688392Y-56042787D01*
X102489000Y-56843395D01*
X103289608Y-56042787D01*
X103220143Y-55800603D01*
X102696698Y-55613856D01*
X102141632Y-55641638D01*
X101757857Y-55800603D01*
X101688392Y-56042787D01*
X66785440Y-56042787D01*
X66785440Y-55942000D01*
X66669551Y-55359387D01*
X66339528Y-54865472D01*
X65845613Y-54535449D01*
X65263000Y-54419560D01*
X63513000Y-54419560D01*
X62930387Y-54535449D01*
X62436472Y-54865472D01*
X62106449Y-55359387D01*
X61990560Y-55942000D01*
X55320000Y-55942000D01*
X55320000Y-53502964D01*
X55368810Y-53022431D01*
X56312000Y-53022431D01*
X56312000Y-53911569D01*
X56652259Y-54733026D01*
X57280974Y-55361741D01*
X58102431Y-55702000D01*
X58991569Y-55702000D01*
X59813026Y-55361741D01*
X60441741Y-54733026D01*
X60702810Y-54102750D01*
X66703000Y-54102750D01*
X66703000Y-55443309D01*
X66799673Y-55676698D01*
X66978301Y-55855327D01*
X67211690Y-55952000D01*
X68802250Y-55952000D01*
X68961000Y-55793250D01*
X68961000Y-53944000D01*
X69215000Y-53944000D01*
X69215000Y-55793250D01*
X69373750Y-55952000D01*
X70964310Y-55952000D01*
X71197699Y-55855327D01*
X71376327Y-55676698D01*
X71473000Y-55443309D01*
X71473000Y-54102750D01*
X71314250Y-53944000D01*
X69215000Y-53944000D01*
X68961000Y-53944000D01*
X66861750Y-53944000D01*
X66703000Y-54102750D01*
X60702810Y-54102750D01*
X60782000Y-53911569D01*
X60782000Y-53022431D01*
X60441741Y-52200974D01*
X60431458Y-52190691D01*
X66703000Y-52190691D01*
X66703000Y-53531250D01*
X66861750Y-53690000D01*
X68961000Y-53690000D01*
X68961000Y-51840750D01*
X69215000Y-51840750D01*
X69215000Y-53690000D01*
X71314250Y-53690000D01*
X71473000Y-53531250D01*
X71473000Y-53022431D01*
X150038000Y-53022431D01*
X150038000Y-53911569D01*
X150378259Y-54733026D01*
X151006974Y-55361741D01*
X151828431Y-55702000D01*
X152717569Y-55702000D01*
X153539026Y-55361741D01*
X154167741Y-54733026D01*
X154508000Y-53911569D01*
X154508000Y-53022431D01*
X154167741Y-52200974D01*
X153539026Y-51572259D01*
X152717569Y-51232000D01*
X151828431Y-51232000D01*
X151006974Y-51572259D01*
X150378259Y-52200974D01*
X150038000Y-53022431D01*
X71473000Y-53022431D01*
X71473000Y-52190691D01*
X71376327Y-51957302D01*
X71197699Y-51778673D01*
X70964310Y-51682000D01*
X69373750Y-51682000D01*
X69215000Y-51840750D01*
X68961000Y-51840750D01*
X68802250Y-51682000D01*
X67211690Y-51682000D01*
X66978301Y-51778673D01*
X66799673Y-51957302D01*
X66703000Y-52190691D01*
X60431458Y-52190691D01*
X59813026Y-51572259D01*
X58991569Y-51232000D01*
X58102431Y-51232000D01*
X57280974Y-51572259D01*
X56652259Y-52200974D01*
X56312000Y-53022431D01*
X55368810Y-53022431D01*
X55389489Y-52818859D01*
X55584309Y-52197188D01*
X55900153Y-51627392D01*
X56324117Y-51132743D01*
X56838888Y-50733446D01*
X57423432Y-50445816D01*
X58062349Y-50279390D01*
X58574269Y-50240000D01*
X152237036Y-50240000D01*
X152921141Y-50309489D01*
M02*
