 0 
SECTION
 2 
HEADER
 9 
$ACADVER
 1 
AC1004
 9 
$EXTMIN
 10 
0.0
 20 
0.0
 9 
$EXTMAX
 10 
3.408
 20 
1.15
 9 
$LIMMIN
 10 
0.0
 20 
0.0
 9 
$LIMMAX
 10 
3.408
 20 
1.15
 9 
$INSBASE
 10 
0.0
 20 
0.0
 9 
$VIEWCTR
 10 
1.704
 20 
0.575
 9 
$VIEWSIZE
 40 
1.15
 9 
$ORTHOMODE
 70 
 0 
 9 
$REGENMODE
 70 
 1 
 9 
$FILLMODE
 70 
 1 
 9 
$QTEXTMODE
 70 
 0 
 9 
$DRAGMODE
 70 
 2 
 9 
$LTSCALE
 40 
1.0
 9 
$OSMODE
 70 
 0 
 9 
$ATTMODE
 70 
 1 
 9 
$TEXTSIZE
 40 
0.2
 9 
$TRACEWID
 40 
0.05
 9 
$TEXTSTYLE
 7 
STANDARD
 9 
$CLAYER
 8 
0
 9 
$CELTYPE
 6 
BYLAYER
 9 
$CECOLOR
 62 
 256 
 9 
$DIMSCALE
 40 
1.0
 9 
$DIMLFAC
 40 
1.0
 9 
$LUNITS
 70 
 2 
 9 
$LUPREC
 70 
 4 
 9 
$AXISMODE
 70 
 0 
 9 
$AXISUNIT
 10 
0.0
 20 
0.0
 9 
$SKETCHINC
 40 
0.1
 9 
$MENU
 1 
acad
 9 
$ELEVATION
 40 
0.0
 9 
$THICKNESS
 40 
0.0
 9 
$VIEWDIR
 10 
0.0
 20 
0.0
 30 
1.0
 9 
$LIMCHECK
 70 
 0 
 9 
$BLIPMODE
 70 
 1 
 9 
$FASTZOOM
 70 
 1 
 9 
$SKPOLY
 70 
 0 
 9 
$ANGBASE
 50 
0.0
 9 
$ANGDIR
 70 
 0 
 9 
$PDMODE
 70 
 0 
 9 
$PDSIZE
 40 
0.0
 9 
$PLINEWID
 40 
0.0
 9 
$COORDS
 70 
 0 
 9 
$ATTDIA
 70 
 0 
 9 
$ATTREQ
 70 
 1 
 0 
ENDSEC
 0 
SECTION
 2 
TABLES
 0 
TABLE
 2 
LTYPE
 70 
 10 
 0 
LTYPE
 2 
CONTINUOUS
 70 
 64 
 3 
Solid line
 72 
 65 
 73 
 0 
 40 
0.0
 0 
ENDTAB
 0 
TABLE
 2 
LAYER
 70 
 153 
 0 
LAYER
 2 
0
 70 
 64 
 62 
 7 
 6 
CONTINUOUS
 0 
ENDTAB
 0 
ENDSEC
 0 
SECTION
 2 
BLOCKS
 0 
ENDSEC
 0 
SECTION
 2 
ENTITIES
 0 
LINE
 8 
0
 62 
 7 
 10 
0.0
 20 
1.15
 11 
3.4
 21 
1.15
 0 
LINE
 8 
0
 62 
 7 
 10 
3.4
 20 
1.15
 11 
3.4
 21 
0.0
 0 
LINE
 8 
0
 62 
 7 
 10 
3.4
 20 
0.0
 11 
0.0
 21 
0.0
 0 
LINE
 8 
0
 62 
 7 
 10 
0.0
 20 
0.0
 11 
0.0
 21 
1.15
 0 
LINE
 8 
0
 62 
 7 
 10 
1.284
 20 
0.912
 11 
1.359
 21 
0.912
 0 
LINE
 8 
0
 62 
 7 
 10 
1.359
 20 
0.912
 11 
1.359
 21 
0.837
 0 
LINE
 8 
0
 62 
 7 
 10 
1.359
 20 
0.837
 11 
1.284
 21 
0.837
 0 
LINE
 8 
0
 62 
 7 
 10 
1.284
 20 
0.837
 11 
1.284
 21 
0.912
 0 
CIRCLE
 8 
0
 62 
 7 
 10 
1.322
 20 
0.875
 40 
0.02
 0 
CIRCLE
 8 
0
 62 
 7 
 10 
1.322
 20 
0.975
 40 
0.038
 0 
CIRCLE
 8 
0
 62 
 7 
 10 
1.322
 20 
0.975
 40 
0.02
 0 
CIRCLE
 8 
0
 62 
 7 
 10 
1.322
 20 
1.075
 40 
0.038
 0 
CIRCLE
 8 
0
 62 
 7 
 10 
1.322
 20 
1.075
 40 
0.02
 0 
CIRCLE
 8 
0
 62 
 7 
 10 
1.002
 20 
1.075
 40 
0.038
 0 
CIRCLE
 8 
0
 62 
 7 
 10 
1.002
 20 
1.075
 40 
0.02
 0 
CIRCLE
 8 
0
 62 
 7 
 10 
0.902
 20 
1.075
 40 
0.038
 0 
CIRCLE
 8 
0
 62 
 7 
 10 
0.902
 20 
1.075
 40 
0.02
 0 
CIRCLE
 8 
0
 62 
 7 
 10 
0.802
 20 
1.075
 40 
0.038
 0 
CIRCLE
 8 
0
 62 
 7 
 10 
0.802
 20 
1.075
 40 
0.02
 0 
CIRCLE
 8 
0
 62 
 7 
 10 
0.702
 20 
1.075
 40 
0.038
 0 
CIRCLE
 8 
0
 62 
 7 
 10 
0.702
 20 
1.075
 40 
0.02
 0 
CIRCLE
 8 
0
 62 
 7 
 10 
0.602
 20 
1.075
 40 
0.038
 0 
CIRCLE
 8 
0
 62 
 7 
 10 
0.602
 20 
1.075
 40 
0.02
 0 
LINE
 8 
0
 62 
 7 
 10 
0.464
 20 
1.112
 11 
0.539
 21 
1.112
 0 
LINE
 8 
0
 62 
 7 
 10 
0.539
 20 
1.112
 11 
0.539
 21 
1.037
 0 
LINE
 8 
0
 62 
 7 
 10 
0.539
 20 
1.037
 11 
0.464
 21 
1.037
 0 
LINE
 8 
0
 62 
 7 
 10 
0.464
 20 
1.037
 11 
0.464
 21 
1.112
 0 
CIRCLE
 8 
0
 62 
 7 
 10 
0.502
 20 
1.075
 40 
0.02
 0 
CIRCLE
 8 
0
 62 
 7 
 10 
1.102
 20 
1.075
 40 
0.038
 0 
CIRCLE
 8 
0
 62 
 7 
 10 
1.102
 20 
1.075
 40 
0.02
 0 
CIRCLE
 8 
0
 62 
 7 
 10 
1.202
 20 
1.075
 40 
0.038
 0 
CIRCLE
 8 
0
 62 
 7 
 10 
1.202
 20 
1.075
 40 
0.02
 0 
CIRCLE
 8 
0
 62 
 7 
 10 
2.102
 20 
1.075
 40 
0.038
 0 
CIRCLE
 8 
0
 62 
 7 
 10 
2.102
 20 
1.075
 40 
0.02
 0 
CIRCLE
 8 
0
 62 
 7 
 10 
2.002
 20 
1.075
 40 
0.038
 0 
CIRCLE
 8 
0
 62 
 7 
 10 
2.002
 20 
1.075
 40 
0.02
 0 
CIRCLE
 8 
0
 62 
 7 
 10 
1.902
 20 
1.075
 40 
0.038
 0 
CIRCLE
 8 
0
 62 
 7 
 10 
1.902
 20 
1.075
 40 
0.02
 0 
CIRCLE
 8 
0
 62 
 7 
 10 
1.802
 20 
1.075
 40 
0.038
 0 
CIRCLE
 8 
0
 62 
 7 
 10 
1.802
 20 
1.075
 40 
0.02
 0 
CIRCLE
 8 
0
 62 
 7 
 10 
1.702
 20 
1.075
 40 
0.038
 0 
CIRCLE
 8 
0
 62 
 7 
 10 
1.702
 20 
1.075
 40 
0.02
 0 
LINE
 8 
0
 62 
 7 
 10 
1.564
 20 
1.112
 11 
1.639
 21 
1.112
 0 
LINE
 8 
0
 62 
 7 
 10 
1.639
 20 
1.112
 11 
1.639
 21 
1.037
 0 
LINE
 8 
0
 62 
 7 
 10 
1.639
 20 
1.037
 11 
1.564
 21 
1.037
 0 
LINE
 8 
0
 62 
 7 
 10 
1.564
 20 
1.037
 11 
1.564
 21 
1.112
 0 
CIRCLE
 8 
0
 62 
 7 
 10 
1.602
 20 
1.075
 40 
0.02
 0 
CIRCLE
 8 
0
 62 
 7 
 10 
2.202
 20 
1.075
 40 
0.038
 0 
CIRCLE
 8 
0
 62 
 7 
 10 
2.202
 20 
1.075
 40 
0.02
 0 
CIRCLE
 8 
0
 62 
 7 
 10 
2.302
 20 
1.075
 40 
0.038
 0 
CIRCLE
 8 
0
 62 
 7 
 10 
2.302
 20 
1.075
 40 
0.02
 0 
CIRCLE
 8 
0
 62 
 7 
 10 
1.002
 20 
0.175
 40 
0.038
 0 
CIRCLE
 8 
0
 62 
 7 
 10 
1.002
 20 
0.175
 40 
0.02
 0 
CIRCLE
 8 
0
 62 
 7 
 10 
0.902
 20 
0.175
 40 
0.038
 0 
CIRCLE
 8 
0
 62 
 7 
 10 
0.902
 20 
0.175
 40 
0.02
 0 
CIRCLE
 8 
0
 62 
 7 
 10 
0.802
 20 
0.175
 40 
0.038
 0 
CIRCLE
 8 
0
 62 
 7 
 10 
0.802
 20 
0.175
 40 
0.02
 0 
CIRCLE
 8 
0
 62 
 7 
 10 
0.702
 20 
0.175
 40 
0.038
 0 
CIRCLE
 8 
0
 62 
 7 
 10 
0.702
 20 
0.175
 40 
0.02
 0 
CIRCLE
 8 
0
 62 
 7 
 10 
0.602
 20 
0.175
 40 
0.038
 0 
CIRCLE
 8 
0
 62 
 7 
 10 
0.602
 20 
0.175
 40 
0.02
 0 
LINE
 8 
0
 62 
 7 
 10 
0.464
 20 
0.212
 11 
0.539
 21 
0.212
 0 
LINE
 8 
0
 62 
 7 
 10 
0.539
 20 
0.212
 11 
0.539
 21 
0.137
 0 
LINE
 8 
0
 62 
 7 
 10 
0.539
 20 
0.137
 11 
0.464
 21 
0.137
 0 
LINE
 8 
0
 62 
 7 
 10 
0.464
 20 
0.137
 11 
0.464
 21 
0.212
 0 
CIRCLE
 8 
0
 62 
 7 
 10 
0.502
 20 
0.175
 40 
0.02
 0 
CIRCLE
 8 
0
 62 
 7 
 10 
1.102
 20 
0.175
 40 
0.038
 0 
CIRCLE
 8 
0
 62 
 7 
 10 
1.102
 20 
0.175
 40 
0.02
 0 
CIRCLE
 8 
0
 62 
 7 
 10 
1.202
 20 
0.175
 40 
0.038
 0 
CIRCLE
 8 
0
 62 
 7 
 10 
1.202
 20 
0.175
 40 
0.02
 0 
CIRCLE
 8 
0
 62 
 7 
 10 
2.102
 20 
0.075
 40 
0.038
 0 
CIRCLE
 8 
0
 62 
 7 
 10 
2.102
 20 
0.075
 40 
0.02
 0 
CIRCLE
 8 
0
 62 
 7 
 10 
2.002
 20 
0.075
 40 
0.038
 0 
CIRCLE
 8 
0
 62 
 7 
 10 
2.002
 20 
0.075
 40 
0.02
 0 
CIRCLE
 8 
0
 62 
 7 
 10 
1.902
 20 
0.075
 40 
0.038
 0 
CIRCLE
 8 
0
 62 
 7 
 10 
1.902
 20 
0.075
 40 
0.02
 0 
CIRCLE
 8 
0
 62 
 7 
 10 
1.802
 20 
0.075
 40 
0.038
 0 
CIRCLE
 8 
0
 62 
 7 
 10 
1.802
 20 
0.075
 40 
0.02
 0 
CIRCLE
 8 
0
 62 
 7 
 10 
1.702
 20 
0.075
 40 
0.038
 0 
CIRCLE
 8 
0
 62 
 7 
 10 
1.702
 20 
0.075
 40 
0.02
 0 
LINE
 8 
0
 62 
 7 
 10 
1.564
 20 
0.112
 11 
1.639
 21 
0.112
 0 
LINE
 8 
0
 62 
 7 
 10 
1.639
 20 
0.112
 11 
1.639
 21 
0.037
 0 
LINE
 8 
0
 62 
 7 
 10 
1.639
 20 
0.037
 11 
1.564
 21 
0.037
 0 
LINE
 8 
0
 62 
 7 
 10 
1.564
 20 
0.037
 11 
1.564
 21 
0.112
 0 
CIRCLE
 8 
0
 62 
 7 
 10 
1.602
 20 
0.075
 40 
0.02
 0 
CIRCLE
 8 
0
 62 
 7 
 10 
2.202
 20 
0.075
 40 
0.038
 0 
CIRCLE
 8 
0
 62 
 7 
 10 
2.202
 20 
0.075
 40 
0.02
 0 
CIRCLE
 8 
0
 62 
 7 
 10 
2.302
 20 
0.075
 40 
0.038
 0 
CIRCLE
 8 
0
 62 
 7 
 10 
2.302
 20 
0.075
 40 
0.02
 0 
CIRCLE
 8 
0
 62 
 7 
 10 
2.102
 20 
0.975
 40 
0.038
 0 
CIRCLE
 8 
0
 62 
 7 
 10 
2.102
 20 
0.975
 40 
0.02
 0 
CIRCLE
 8 
0
 62 
 7 
 10 
2.002
 20 
0.975
 40 
0.038
 0 
CIRCLE
 8 
0
 62 
 7 
 10 
2.002
 20 
0.975
 40 
0.02
 0 
CIRCLE
 8 
0
 62 
 7 
 10 
1.902
 20 
0.975
 40 
0.038
 0 
CIRCLE
 8 
0
 62 
 7 
 10 
1.902
 20 
0.975
 40 
0.02
 0 
CIRCLE
 8 
0
 62 
 7 
 10 
1.802
 20 
0.975
 40 
0.038
 0 
CIRCLE
 8 
0
 62 
 7 
 10 
1.802
 20 
0.975
 40 
0.02
 0 
CIRCLE
 8 
0
 62 
 7 
 10 
1.702
 20 
0.975
 40 
0.038
 0 
CIRCLE
 8 
0
 62 
 7 
 10 
1.702
 20 
0.975
 40 
0.02
 0 
LINE
 8 
0
 62 
 7 
 10 
1.564
 20 
1.012
 11 
1.639
 21 
1.012
 0 
LINE
 8 
0
 62 
 7 
 10 
1.639
 20 
1.012
 11 
1.639
 21 
0.937
 0 
LINE
 8 
0
 62 
 7 
 10 
1.639
 20 
0.937
 11 
1.564
 21 
0.937
 0 
LINE
 8 
0
 62 
 7 
 10 
1.564
 20 
0.937
 11 
1.564
 21 
1.012
 0 
CIRCLE
 8 
0
 62 
 7 
 10 
1.602
 20 
0.975
 40 
0.02
 0 
CIRCLE
 8 
0
 62 
 7 
 10 
2.202
 20 
0.975
 40 
0.038
 0 
CIRCLE
 8 
0
 62 
 7 
 10 
2.202
 20 
0.975
 40 
0.02
 0 
CIRCLE
 8 
0
 62 
 7 
 10 
2.302
 20 
0.975
 40 
0.038
 0 
CIRCLE
 8 
0
 62 
 7 
 10 
2.302
 20 
0.975
 40 
0.02
 0 
CIRCLE
 8 
0
 62 
 7 
 10 
0.102
 20 
0.325
 40 
0.038
 0 
CIRCLE
 8 
0
 62 
 7 
 10 
0.102
 20 
0.325
 40 
0.02
 0 
CIRCLE
 8 
0
 62 
 7 
 10 
0.102
 20 
0.425
 40 
0.038
 0 
CIRCLE
 8 
0
 62 
 7 
 10 
0.102
 20 
0.425
 40 
0.02
 0 
CIRCLE
 8 
0
 62 
 7 
 10 
0.102
 20 
0.525
 40 
0.038
 0 
CIRCLE
 8 
0
 62 
 7 
 10 
0.102
 20 
0.525
 40 
0.02
 0 
CIRCLE
 8 
0
 62 
 7 
 10 
0.102
 20 
0.625
 40 
0.038
 0 
CIRCLE
 8 
0
 62 
 7 
 10 
0.102
 20 
0.625
 40 
0.02
 0 
CIRCLE
 8 
0
 62 
 7 
 10 
0.102
 20 
0.725
 40 
0.038
 0 
CIRCLE
 8 
0
 62 
 7 
 10 
0.102
 20 
0.725
 40 
0.02
 0 
CIRCLE
 8 
0
 62 
 7 
 10 
0.102
 20 
0.825
 40 
0.038
 0 
CIRCLE
 8 
0
 62 
 7 
 10 
0.102
 20 
0.825
 40 
0.02
 0 
CIRCLE
 8 
0
 62 
 7 
 10 
2.272
 20 
0.575
 40 
0.038
 0 
CIRCLE
 8 
0
 62 
 7 
 10 
2.272
 20 
0.575
 40 
0.02
 0 
CIRCLE
 8 
0
 62 
 7 
 10 
2.172
 20 
0.575
 40 
0.038
 0 
CIRCLE
 8 
0
 62 
 7 
 10 
2.172
 20 
0.575
 40 
0.02
 0 
CIRCLE
 8 
0
 62 
 7 
 10 
2.272
 20 
0.675
 40 
0.038
 0 
CIRCLE
 8 
0
 62 
 7 
 10 
2.272
 20 
0.675
 40 
0.02
 0 
LINE
 8 
0
 62 
 7 
 10 
2.134
 20 
0.712
 11 
2.209
 21 
0.712
 0 
LINE
 8 
0
 62 
 7 
 10 
2.209
 20 
0.712
 11 
2.209
 21 
0.637
 0 
LINE
 8 
0
 62 
 7 
 10 
2.209
 20 
0.637
 11 
2.134
 21 
0.637
 0 
LINE
 8 
0
 62 
 7 
 10 
2.134
 20 
0.637
 11 
2.134
 21 
0.712
 0 
CIRCLE
 8 
0
 62 
 7 
 10 
2.172
 20 
0.675
 40 
0.02
 0 
CIRCLE
 8 
0
 62 
 7 
 10 
2.172
 20 
0.475
 40 
0.038
 0 
CIRCLE
 8 
0
 62 
 7 
 10 
2.172
 20 
0.475
 40 
0.02
 0 
CIRCLE
 8 
0
 62 
 7 
 10 
2.272
 20 
0.475
 40 
0.038
 0 
CIRCLE
 8 
0
 62 
 7 
 10 
2.272
 20 
0.475
 40 
0.02
 0 
LINE
 8 
0
 62 
 7 
 10 
0.382
 20 
0.483
 11 
0.422
 21 
0.483
 0 
LINE
 8 
0
 62 
 7 
 10 
0.422
 20 
0.483
 11 
0.422
 21 
0.433
 0 
LINE
 8 
0
 62 
 7 
 10 
0.422
 20 
0.433
 11 
0.382
 21 
0.433
 0 
LINE
 8 
0
 62 
 7 
 10 
0.382
 20 
0.433
 11 
0.382
 21 
0.483
 0 
LINE
 8 
0
 62 
 7 
 10 
0.458
 20 
0.483
 11 
0.498
 21 
0.483
 0 
LINE
 8 
0
 62 
 7 
 10 
0.498
 20 
0.483
 11 
0.498
 21 
0.433
 0 
LINE
 8 
0
 62 
 7 
 10 
0.498
 20 
0.433
 11 
0.458
 21 
0.433
 0 
LINE
 8 
0
 62 
 7 
 10 
0.458
 20 
0.433
 11 
0.458
 21 
0.483
 0 
LINE
 8 
0
 62 
 7 
 10 
0.457
 20 
0.703
 11 
0.497
 21 
0.703
 0 
LINE
 8 
0
 62 
 7 
 10 
0.497
 20 
0.703
 11 
0.497
 21 
0.653
 0 
LINE
 8 
0
 62 
 7 
 10 
0.497
 20 
0.653
 11 
0.457
 21 
0.653
 0 
LINE
 8 
0
 62 
 7 
 10 
0.457
 20 
0.653
 11 
0.457
 21 
0.703
 0 
LINE
 8 
0
 62 
 7 
 10 
0.381
 20 
0.703
 11 
0.421
 21 
0.703
 0 
LINE
 8 
0
 62 
 7 
 10 
0.421
 20 
0.703
 11 
0.421
 21 
0.653
 0 
LINE
 8 
0
 62 
 7 
 10 
0.421
 20 
0.653
 11 
0.381
 21 
0.653
 0 
LINE
 8 
0
 62 
 7 
 10 
0.381
 20 
0.653
 11 
0.381
 21 
0.703
 0 
LINE
 8 
0
 62 
 7 
 10 
2.584
 20 
0.453
 11 
2.624
 21 
0.453
 0 
LINE
 8 
0
 62 
 7 
 10 
2.624
 20 
0.453
 11 
2.624
 21 
0.403
 0 
LINE
 8 
0
 62 
 7 
 10 
2.624
 20 
0.403
 11 
2.584
 21 
0.403
 0 
LINE
 8 
0
 62 
 7 
 10 
2.584
 20 
0.403
 11 
2.584
 21 
0.453
 0 
LINE
 8 
0
 62 
 7 
 10 
2.508
 20 
0.453
 11 
2.548
 21 
0.453
 0 
LINE
 8 
0
 62 
 7 
 10 
2.548
 20 
0.453
 11 
2.548
 21 
0.403
 0 
LINE
 8 
0
 62 
 7 
 10 
2.548
 20 
0.403
 11 
2.508
 21 
0.403
 0 
LINE
 8 
0
 62 
 7 
 10 
2.508
 20 
0.403
 11 
2.508
 21 
0.453
 0 
LINE
 8 
0
 62 
 7 
 10 
0.382
 20 
0.593
 11 
0.422
 21 
0.593
 0 
LINE
 8 
0
 62 
 7 
 10 
0.422
 20 
0.593
 11 
0.422
 21 
0.543
 0 
LINE
 8 
0
 62 
 7 
 10 
0.422
 20 
0.543
 11 
0.382
 21 
0.543
 0 
LINE
 8 
0
 62 
 7 
 10 
0.382
 20 
0.543
 11 
0.382
 21 
0.593
 0 
LINE
 8 
0
 62 
 7 
 10 
0.458
 20 
0.593
 11 
0.498
 21 
0.593
 0 
LINE
 8 
0
 62 
 7 
 10 
0.498
 20 
0.593
 11 
0.498
 21 
0.543
 0 
LINE
 8 
0
 62 
 7 
 10 
0.498
 20 
0.543
 11 
0.458
 21 
0.543
 0 
LINE
 8 
0
 62 
 7 
 10 
0.458
 20 
0.543
 11 
0.458
 21 
0.593
 0 
LINE
 8 
0
 62 
 7 
 10 
3.127
 20 
0.949
 11 
3.177
 21 
0.949
 0 
LINE
 8 
0
 62 
 7 
 10 
3.177
 20 
0.949
 11 
3.177
 21 
0.909
 0 
LINE
 8 
0
 62 
 7 
 10 
3.177
 20 
0.909
 11 
3.127
 21 
0.909
 0 
LINE
 8 
0
 62 
 7 
 10 
3.127
 20 
0.909
 11 
3.127
 21 
0.949
 0 
LINE
 8 
0
 62 
 7 
 10 
3.127
 20 
0.873
 11 
3.177
 21 
0.873
 0 
LINE
 8 
0
 62 
 7 
 10 
3.177
 20 
0.873
 11 
3.177
 21 
0.833
 0 
LINE
 8 
0
 62 
 7 
 10 
3.177
 20 
0.833
 11 
3.127
 21 
0.833
 0 
LINE
 8 
0
 62 
 7 
 10 
3.127
 20 
0.833
 11 
3.127
 21 
0.873
 0 
LINE
 8 
0
 62 
 7 
 10 
3.002
 20 
0.95
 11 
3.052
 21 
0.95
 0 
LINE
 8 
0
 62 
 7 
 10 
3.052
 20 
0.95
 11 
3.052
 21 
0.91
 0 
LINE
 8 
0
 62 
 7 
 10 
3.052
 20 
0.91
 11 
3.002
 21 
0.91
 0 
LINE
 8 
0
 62 
 7 
 10 
3.002
 20 
0.91
 11 
3.002
 21 
0.95
 0 
LINE
 8 
0
 62 
 7 
 10 
3.002
 20 
0.874
 11 
3.052
 21 
0.874
 0 
LINE
 8 
0
 62 
 7 
 10 
3.052
 20 
0.874
 11 
3.052
 21 
0.834
 0 
LINE
 8 
0
 62 
 7 
 10 
3.052
 20 
0.834
 11 
3.002
 21 
0.834
 0 
LINE
 8 
0
 62 
 7 
 10 
3.002
 20 
0.834
 11 
3.002
 21 
0.874
 0 
CIRCLE
 8 
0
 62 
 7 
 10 
1.002
 20 
0.075
 40 
0.038
 0 
CIRCLE
 8 
0
 62 
 7 
 10 
1.002
 20 
0.075
 40 
0.02
 0 
CIRCLE
 8 
0
 62 
 7 
 10 
0.902
 20 
0.075
 40 
0.038
 0 
CIRCLE
 8 
0
 62 
 7 
 10 
0.902
 20 
0.075
 40 
0.02
 0 
CIRCLE
 8 
0
 62 
 7 
 10 
0.802
 20 
0.075
 40 
0.038
 0 
CIRCLE
 8 
0
 62 
 7 
 10 
0.802
 20 
0.075
 40 
0.02
 0 
CIRCLE
 8 
0
 62 
 7 
 10 
0.702
 20 
0.075
 40 
0.038
 0 
CIRCLE
 8 
0
 62 
 7 
 10 
0.702
 20 
0.075
 40 
0.02
 0 
CIRCLE
 8 
0
 62 
 7 
 10 
0.602
 20 
0.075
 40 
0.038
 0 
CIRCLE
 8 
0
 62 
 7 
 10 
0.602
 20 
0.075
 40 
0.02
 0 
LINE
 8 
0
 62 
 7 
 10 
0.464
 20 
0.112
 11 
0.539
 21 
0.112
 0 
LINE
 8 
0
 62 
 7 
 10 
0.539
 20 
0.112
 11 
0.539
 21 
0.037
 0 
LINE
 8 
0
 62 
 7 
 10 
0.539
 20 
0.037
 11 
0.464
 21 
0.037
 0 
LINE
 8 
0
 62 
 7 
 10 
0.464
 20 
0.037
 11 
0.464
 21 
0.112
 0 
CIRCLE
 8 
0
 62 
 7 
 10 
0.502
 20 
0.075
 40 
0.02
 0 
CIRCLE
 8 
0
 62 
 7 
 10 
1.102
 20 
0.075
 40 
0.038
 0 
CIRCLE
 8 
0
 62 
 7 
 10 
1.102
 20 
0.075
 40 
0.02
 0 
CIRCLE
 8 
0
 62 
 7 
 10 
1.202
 20 
0.075
 40 
0.038
 0 
CIRCLE
 8 
0
 62 
 7 
 10 
1.202
 20 
0.075
 40 
0.02
 0 
LINE
 8 
0
 62 
 7 
 10 
2.702
 20 
0.841
 11 
2.782
 21 
0.841
 0 
LINE
 8 
0
 62 
 7 
 10 
2.782
 20 
0.841
 11 
2.782
 21 
0.815
 0 
LINE
 8 
0
 62 
 7 
 10 
2.782
 20 
0.815
 11 
2.702
 21 
0.815
 0 
LINE
 8 
0
 62 
 7 
 10 
2.702
 20 
0.815
 11 
2.702
 21 
0.841
 0 
LINE
 8 
0
 62 
 7 
 10 
2.556
 20 
0.841
 11 
2.636
 21 
0.841
 0 
LINE
 8 
0
 62 
 7 
 10 
2.636
 20 
0.841
 11 
2.636
 21 
0.815
 0 
LINE
 8 
0
 62 
 7 
 10 
2.636
 20 
0.815
 11 
2.556
 21 
0.815
 0 
LINE
 8 
0
 62 
 7 
 10 
2.556
 20 
0.815
 11 
2.556
 21 
0.841
 0 
LINE
 8 
0
 62 
 7 
 10 
2.819
 20 
0.624
 11 
2.899
 21 
0.624
 0 
LINE
 8 
0
 62 
 7 
 10 
2.899
 20 
0.624
 11 
2.899
 21 
0.598
 0 
LINE
 8 
0
 62 
 7 
 10 
2.899
 20 
0.598
 11 
2.819
 21 
0.598
 0 
LINE
 8 
0
 62 
 7 
 10 
2.819
 20 
0.598
 11 
2.819
 21 
0.624
 0 
LINE
 8 
0
 62 
 7 
 10 
2.673
 20 
0.624
 11 
2.753
 21 
0.624
 0 
LINE
 8 
0
 62 
 7 
 10 
2.753
 20 
0.624
 11 
2.753
 21 
0.598
 0 
LINE
 8 
0
 62 
 7 
 10 
2.753
 20 
0.598
 11 
2.673
 21 
0.598
 0 
LINE
 8 
0
 62 
 7 
 10 
2.673
 20 
0.598
 11 
2.673
 21 
0.624
 0 
LINE
 8 
0
 62 
 7 
 10 
2.784
 20 
0.296
 11 
2.869
 21 
0.296
 0 
LINE
 8 
0
 62 
 7 
 10 
2.869
 20 
0.296
 11 
2.869
 21 
0.211
 0 
LINE
 8 
0
 62 
 7 
 10 
2.869
 20 
0.211
 11 
2.784
 21 
0.211
 0 
LINE
 8 
0
 62 
 7 
 10 
2.784
 20 
0.211
 11 
2.784
 21 
0.296
 0 
LINE
 8 
0
 62 
 7 
 10 
2.448
 20 
0.296
 11 
2.533
 21 
0.296
 0 
LINE
 8 
0
 62 
 7 
 10 
2.533
 20 
0.296
 11 
2.533
 21 
0.211
 0 
LINE
 8 
0
 62 
 7 
 10 
2.533
 20 
0.211
 11 
2.448
 21 
0.211
 0 
LINE
 8 
0
 62 
 7 
 10 
2.448
 20 
0.211
 11 
2.448
 21 
0.296
 0 
CIRCLE
 8 
0
 62 
 7 
 10 
1.002
 20 
0.975
 40 
0.038
 0 
CIRCLE
 8 
0
 62 
 7 
 10 
1.002
 20 
0.975
 40 
0.02
 0 
CIRCLE
 8 
0
 62 
 7 
 10 
0.902
 20 
0.975
 40 
0.038
 0 
CIRCLE
 8 
0
 62 
 7 
 10 
0.902
 20 
0.975
 40 
0.02
 0 
CIRCLE
 8 
0
 62 
 7 
 10 
0.802
 20 
0.975
 40 
0.038
 0 
CIRCLE
 8 
0
 62 
 7 
 10 
0.802
 20 
0.975
 40 
0.02
 0 
CIRCLE
 8 
0
 62 
 7 
 10 
0.702
 20 
0.975
 40 
0.038
 0 
CIRCLE
 8 
0
 62 
 7 
 10 
0.702
 20 
0.975
 40 
0.02
 0 
CIRCLE
 8 
0
 62 
 7 
 10 
0.602
 20 
0.975
 40 
0.038
 0 
CIRCLE
 8 
0
 62 
 7 
 10 
0.602
 20 
0.975
 40 
0.02
 0 
LINE
 8 
0
 62 
 7 
 10 
0.464
 20 
1.012
 11 
0.539
 21 
1.012
 0 
LINE
 8 
0
 62 
 7 
 10 
0.539
 20 
1.012
 11 
0.539
 21 
0.937
 0 
LINE
 8 
0
 62 
 7 
 10 
0.539
 20 
0.937
 11 
0.464
 21 
0.937
 0 
LINE
 8 
0
 62 
 7 
 10 
0.464
 20 
0.937
 11 
0.464
 21 
1.012
 0 
CIRCLE
 8 
0
 62 
 7 
 10 
0.502
 20 
0.975
 40 
0.02
 0 
CIRCLE
 8 
0
 62 
 7 
 10 
1.102
 20 
0.975
 40 
0.038
 0 
CIRCLE
 8 
0
 62 
 7 
 10 
1.102
 20 
0.975
 40 
0.02
 0 
CIRCLE
 8 
0
 62 
 7 
 10 
1.202
 20 
0.975
 40 
0.038
 0 
CIRCLE
 8 
0
 62 
 7 
 10 
1.202
 20 
0.975
 40 
0.02
 0 
CIRCLE
 8 
0
 62 
 7 
 10 
2.102
 20 
0.175
 40 
0.038
 0 
CIRCLE
 8 
0
 62 
 7 
 10 
2.102
 20 
0.175
 40 
0.02
 0 
CIRCLE
 8 
0
 62 
 7 
 10 
2.002
 20 
0.175
 40 
0.038
 0 
CIRCLE
 8 
0
 62 
 7 
 10 
2.002
 20 
0.175
 40 
0.02
 0 
CIRCLE
 8 
0
 62 
 7 
 10 
1.902
 20 
0.175
 40 
0.038
 0 
CIRCLE
 8 
0
 62 
 7 
 10 
1.902
 20 
0.175
 40 
0.02
 0 
CIRCLE
 8 
0
 62 
 7 
 10 
1.802
 20 
0.175
 40 
0.038
 0 
CIRCLE
 8 
0
 62 
 7 
 10 
1.802
 20 
0.175
 40 
0.02
 0 
CIRCLE
 8 
0
 62 
 7 
 10 
1.702
 20 
0.175
 40 
0.038
 0 
CIRCLE
 8 
0
 62 
 7 
 10 
1.702
 20 
0.175
 40 
0.02
 0 
LINE
 8 
0
 62 
 7 
 10 
1.564
 20 
0.212
 11 
1.639
 21 
0.212
 0 
LINE
 8 
0
 62 
 7 
 10 
1.639
 20 
0.212
 11 
1.639
 21 
0.137
 0 
LINE
 8 
0
 62 
 7 
 10 
1.639
 20 
0.137
 11 
1.564
 21 
0.137
 0 
LINE
 8 
0
 62 
 7 
 10 
1.564
 20 
0.137
 11 
1.564
 21 
0.212
 0 
CIRCLE
 8 
0
 62 
 7 
 10 
1.602
 20 
0.175
 40 
0.02
 0 
CIRCLE
 8 
0
 62 
 7 
 10 
2.202
 20 
0.175
 40 
0.038
 0 
CIRCLE
 8 
0
 62 
 7 
 10 
2.202
 20 
0.175
 40 
0.02
 0 
CIRCLE
 8 
0
 62 
 7 
 10 
2.302
 20 
0.175
 40 
0.038
 0 
CIRCLE
 8 
0
 62 
 7 
 10 
2.302
 20 
0.175
 40 
0.02
 0 
LINE
 8 
0
 62 
 7 
 10 
2.433
 20 
0.644
 11 
2.539
 21 
0.644
 0 
LINE
 8 
0
 62 
 7 
 10 
2.539
 20 
0.644
 11 
2.539
 21 
0.577
 0 
LINE
 8 
0
 62 
 7 
 10 
2.539
 20 
0.577
 11 
2.433
 21 
0.577
 0 
LINE
 8 
0
 62 
 7 
 10 
2.433
 20 
0.577
 11 
2.433
 21 
0.644
 0 
LINE
 8 
0
 62 
 7 
 10 
2.532
 20 
0.628
 11 
2.626
 21 
0.628
 0 
LINE
 8 
0
 62 
 7 
 10 
2.626
 20 
0.628
 11 
2.626
 21 
0.593
 0 
LINE
 8 
0
 62 
 7 
 10 
2.626
 20 
0.593
 11 
2.532
 21 
0.593
 0 
LINE
 8 
0
 62 
 7 
 10 
2.532
 20 
0.593
 11 
2.532
 21 
0.628
 0 
LINE
 8 
0
 62 
 7 
 10 
2.566
 20 
0.688
 11 
2.625
 21 
0.688
 0 
LINE
 8 
0
 62 
 7 
 10 
2.625
 20 
0.688
 11 
2.625
 21 
0.653
 0 
LINE
 8 
0
 62 
 7 
 10 
2.625
 20 
0.653
 11 
2.566
 21 
0.653
 0 
LINE
 8 
0
 62 
 7 
 10 
2.566
 20 
0.653
 11 
2.566
 21 
0.688
 0 
LINE
 8 
0
 62 
 7 
 10 
2.566
 20 
0.57
 11 
2.625
 21 
0.57
 0 
LINE
 8 
0
 62 
 7 
 10 
2.625
 20 
0.57
 11 
2.625
 21 
0.535
 0 
LINE
 8 
0
 62 
 7 
 10 
2.625
 20 
0.535
 11 
2.566
 21 
0.535
 0 
LINE
 8 
0
 62 
 7 
 10 
2.566
 20 
0.535
 11 
2.566
 21 
0.57
 0 
LINE
 8 
0
 62 
 7 
 10 
1.376
 20 
0.238
 11 
1.427
 21 
0.238
 0 
LINE
 8 
0
 62 
 7 
 10 
1.427
 20 
0.238
 11 
1.427
 21 
0.037
 0 
LINE
 8 
0
 62 
 7 
 10 
1.427
 20 
0.037
 11 
1.376
 21 
0.037
 0 
LINE
 8 
0
 62 
 7 
 10 
1.376
 20 
0.037
 11 
1.376
 21 
0.238
 0 
LINE
 8 
0
 62 
 7 
 10 
1.31
 20 
0.238
 11 
1.341
 21 
0.238
 0 
LINE
 8 
0
 62 
 7 
 10 
1.341
 20 
0.238
 11 
1.341
 21 
0.037
 0 
LINE
 8 
0
 62 
 7 
 10 
1.341
 20 
0.037
 11 
1.31
 21 
0.037
 0 
LINE
 8 
0
 62 
 7 
 10 
1.31
 20 
0.037
 11 
1.31
 21 
0.238
 0 
LINE
 8 
0
 62 
 7 
 10 
1.464
 20 
0.238
 11 
1.495
 21 
0.238
 0 
LINE
 8 
0
 62 
 7 
 10 
1.495
 20 
0.238
 11 
1.495
 21 
0.037
 0 
LINE
 8 
0
 62 
 7 
 10 
1.495
 20 
0.037
 11 
1.464
 21 
0.037
 0 
LINE
 8 
0
 62 
 7 
 10 
1.464
 20 
0.037
 11 
1.464
 21 
0.238
 0 
LINE
 8 
0
 62 
 7 
 10 
0.574
 20 
0.45
 11 
0.63
 21 
0.45
 0 
LINE
 8 
0
 62 
 7 
 10 
0.63
 20 
0.45
 11 
0.63
 21 
0.394
 0 
LINE
 8 
0
 62 
 7 
 10 
0.63
 20 
0.394
 11 
0.574
 21 
0.394
 0 
LINE
 8 
0
 62 
 7 
 10 
0.574
 20 
0.394
 11 
0.574
 21 
0.45
 0 
CIRCLE
 8 
0
 62 
 7 
 10 
0.602
 20 
0.422
 40 
0.014
 0 
CIRCLE
 8 
0
 62 
 7 
 10 
0.702
 20 
0.422
 40 
0.028
 0 
CIRCLE
 8 
0
 62 
 7 
 10 
0.702
 20 
0.422
 40 
0.014
 0 
CIRCLE
 8 
0
 62 
 7 
 10 
0.802
 20 
0.422
 40 
0.028
 0 
CIRCLE
 8 
0
 62 
 7 
 10 
0.802
 20 
0.422
 40 
0.014
 0 
CIRCLE
 8 
0
 62 
 7 
 10 
0.902
 20 
0.422
 40 
0.028
 0 
CIRCLE
 8 
0
 62 
 7 
 10 
0.902
 20 
0.422
 40 
0.014
 0 
CIRCLE
 8 
0
 62 
 7 
 10 
1.002
 20 
0.422
 40 
0.028
 0 
CIRCLE
 8 
0
 62 
 7 
 10 
1.002
 20 
0.422
 40 
0.014
 0 
CIRCLE
 8 
0
 62 
 7 
 10 
1.102
 20 
0.422
 40 
0.028
 0 
CIRCLE
 8 
0
 62 
 7 
 10 
1.102
 20 
0.422
 40 
0.014
 0 
CIRCLE
 8 
0
 62 
 7 
 10 
1.202
 20 
0.422
 40 
0.028
 0 
CIRCLE
 8 
0
 62 
 7 
 10 
1.202
 20 
0.422
 40 
0.014
 0 
CIRCLE
 8 
0
 62 
 7 
 10 
1.302
 20 
0.422
 40 
0.028
 0 
CIRCLE
 8 
0
 62 
 7 
 10 
1.302
 20 
0.422
 40 
0.014
 0 
CIRCLE
 8 
0
 62 
 7 
 10 
1.402
 20 
0.422
 40 
0.028
 0 
CIRCLE
 8 
0
 62 
 7 
 10 
1.402
 20 
0.422
 40 
0.014
 0 
CIRCLE
 8 
0
 62 
 7 
 10 
1.502
 20 
0.422
 40 
0.028
 0 
CIRCLE
 8 
0
 62 
 7 
 10 
1.502
 20 
0.422
 40 
0.014
 0 
CIRCLE
 8 
0
 62 
 7 
 10 
1.602
 20 
0.422
 40 
0.028
 0 
CIRCLE
 8 
0
 62 
 7 
 10 
1.602
 20 
0.422
 40 
0.014
 0 
CIRCLE
 8 
0
 62 
 7 
 10 
1.702
 20 
0.422
 40 
0.028
 0 
CIRCLE
 8 
0
 62 
 7 
 10 
1.702
 20 
0.422
 40 
0.014
 0 
CIRCLE
 8 
0
 62 
 7 
 10 
1.802
 20 
0.422
 40 
0.028
 0 
CIRCLE
 8 
0
 62 
 7 
 10 
1.802
 20 
0.422
 40 
0.014
 0 
CIRCLE
 8 
0
 62 
 7 
 10 
1.902
 20 
0.422
 40 
0.028
 0 
CIRCLE
 8 
0
 62 
 7 
 10 
1.902
 20 
0.422
 40 
0.014
 0 
CIRCLE
 8 
0
 62 
 7 
 10 
1.902
 20 
0.722
 40 
0.028
 0 
CIRCLE
 8 
0
 62 
 7 
 10 
1.902
 20 
0.722
 40 
0.014
 0 
CIRCLE
 8 
0
 62 
 7 
 10 
1.802
 20 
0.722
 40 
0.028
 0 
CIRCLE
 8 
0
 62 
 7 
 10 
1.802
 20 
0.722
 40 
0.014
 0 
CIRCLE
 8 
0
 62 
 7 
 10 
1.702
 20 
0.722
 40 
0.028
 0 
CIRCLE
 8 
0
 62 
 7 
 10 
1.702
 20 
0.722
 40 
0.014
 0 
CIRCLE
 8 
0
 62 
 7 
 10 
1.602
 20 
0.722
 40 
0.028
 0 
CIRCLE
 8 
0
 62 
 7 
 10 
1.602
 20 
0.722
 40 
0.014
 0 
CIRCLE
 8 
0
 62 
 7 
 10 
1.502
 20 
0.722
 40 
0.028
 0 
CIRCLE
 8 
0
 62 
 7 
 10 
1.502
 20 
0.722
 40 
0.014
 0 
CIRCLE
 8 
0
 62 
 7 
 10 
1.402
 20 
0.722
 40 
0.028
 0 
CIRCLE
 8 
0
 62 
 7 
 10 
1.402
 20 
0.722
 40 
0.014
 0 
CIRCLE
 8 
0
 62 
 7 
 10 
1.302
 20 
0.722
 40 
0.028
 0 
CIRCLE
 8 
0
 62 
 7 
 10 
1.302
 20 
0.722
 40 
0.014
 0 
CIRCLE
 8 
0
 62 
 7 
 10 
1.202
 20 
0.722
 40 
0.028
 0 
CIRCLE
 8 
0
 62 
 7 
 10 
1.202
 20 
0.722
 40 
0.014
 0 
CIRCLE
 8 
0
 62 
 7 
 10 
1.102
 20 
0.722
 40 
0.028
 0 
CIRCLE
 8 
0
 62 
 7 
 10 
1.102
 20 
0.722
 40 
0.014
 0 
CIRCLE
 8 
0
 62 
 7 
 10 
1.002
 20 
0.722
 40 
0.028
 0 
CIRCLE
 8 
0
 62 
 7 
 10 
1.002
 20 
0.722
 40 
0.014
 0 
CIRCLE
 8 
0
 62 
 7 
 10 
0.902
 20 
0.722
 40 
0.028
 0 
CIRCLE
 8 
0
 62 
 7 
 10 
0.902
 20 
0.722
 40 
0.014
 0 
CIRCLE
 8 
0
 62 
 7 
 10 
0.802
 20 
0.722
 40 
0.028
 0 
CIRCLE
 8 
0
 62 
 7 
 10 
0.802
 20 
0.722
 40 
0.014
 0 
CIRCLE
 8 
0
 62 
 7 
 10 
0.702
 20 
0.722
 40 
0.028
 0 
CIRCLE
 8 
0
 62 
 7 
 10 
0.702
 20 
0.722
 40 
0.014
 0 
CIRCLE
 8 
0
 62 
 7 
 10 
0.602
 20 
0.722
 40 
0.028
 0 
CIRCLE
 8 
0
 62 
 7 
 10 
0.602
 20 
0.722
 40 
0.014
 0 
LINE
 8 
0
 62 
 7 
 10 
2.994
 20 
0.558
 11 
3.059
 21 
0.558
 0 
LINE
 8 
0
 62 
 7 
 10 
3.059
 20 
0.558
 11 
3.059
 21 
0.493
 0 
LINE
 8 
0
 62 
 7 
 10 
3.059
 20 
0.493
 11 
2.994
 21 
0.493
 0 
LINE
 8 
0
 62 
 7 
 10 
2.994
 20 
0.493
 11 
2.994
 21 
0.558
 0 
CIRCLE
 8 
0
 62 
 7 
 10 
3.027
 20 
0.525
 40 
0.018
 0 
CIRCLE
 8 
0
 62 
 7 
 10 
3.027
 20 
0.625
 40 
0.032
 0 
CIRCLE
 8 
0
 62 
 7 
 10 
3.027
 20 
0.625
 40 
0.018
 0 
LINE
 8 
0
 62 
 7 
 10 
1.272
 20 
1.125
 11 
1.272
 21 
0.825
 0 
LINE
 8 
0
 62 
 7 
 10 
1.372
 20 
0.825
 11 
1.272
 21 
0.825
 0 
LINE
 8 
0
 62 
 7 
 10 
1.372
 20 
1.125
 11 
1.272
 21 
1.125
 0 
LINE
 8 
0
 62 
 7 
 10 
1.372
 20 
1.125
 11 
1.372
 21 
0.825
 0 
LINE
 8 
0
 62 
 7 
 10 
1.278
 20 
0.815
 11 
1.297
 21 
0.815
 0 
LINE
 8 
0
 62 
 7 
 10 
1.297
 20 
0.815
 11 
1.297
 21 
0.783
 0 
LINE
 8 
0
 62 
 7 
 10 
1.297
 20 
0.783
 11 
1.291
 21 
0.777
 0 
LINE
 8 
0
 62 
 7 
 10 
1.291
 20 
0.777
 11 
1.278
 21 
0.777
 0 
LINE
 8 
0
 62 
 7 
 10 
1.278
 20 
0.777
 11 
1.272
 21 
0.783
 0 
LINE
 8 
0
 62 
 7 
 10 
1.316
 20 
0.809
 11 
1.323
 21 
0.815
 0 
LINE
 8 
0
 62 
 7 
 10 
1.323
 20 
0.815
 11 
1.323
 21 
0.777
 0 
LINE
 8 
0
 62 
 7 
 10 
1.316
 20 
0.777
 11 
1.329
 21 
0.777
 0 
LINE
 8 
0
 62 
 7 
 10 
1.348
 20 
0.809
 11 
1.354
 21 
0.815
 0 
LINE
 8 
0
 62 
 7 
 10 
1.354
 20 
0.815
 11 
1.367
 21 
0.815
 0 
LINE
 8 
0
 62 
 7 
 10 
1.367
 20 
0.815
 11 
1.373
 21 
0.809
 0 
LINE
 8 
0
 62 
 7 
 10 
1.373
 20 
0.809
 11 
1.373
 21 
0.802
 0 
LINE
 8 
0
 62 
 7 
 10 
1.373
 20 
0.802
 11 
1.367
 21 
0.796
 0 
LINE
 8 
0
 62 
 7 
 10 
1.367
 20 
0.796
 11 
1.354
 21 
0.796
 0 
LINE
 8 
0
 62 
 7 
 10 
1.354
 20 
0.796
 11 
1.348
 21 
0.79
 0 
LINE
 8 
0
 62 
 7 
 10 
1.348
 20 
0.79
 11 
1.348
 21 
0.777
 0 
LINE
 8 
0
 62 
 7 
 10 
1.348
 20 
0.777
 11 
1.373
 21 
0.777
 0 
LINE
 8 
0
 62 
 7 
 10 
0.452
 20 
1.025
 11 
1.252
 21 
1.025
 0 
LINE
 8 
0
 62 
 7 
 10 
1.252
 20 
1.125
 11 
0.452
 21 
1.125
 0 
LINE
 8 
0
 62 
 7 
 10 
0.452
 20 
1.025
 11 
0.452
 21 
1.125
 0 
LINE
 8 
0
 62 
 7 
 10 
1.252
 20 
1.025
 11 
1.252
 21 
1.125
 0 
LINE
 8 
0
 62 
 7 
 10 
1.552
 20 
1.025
 11 
2.352
 21 
1.025
 0 
LINE
 8 
0
 62 
 7 
 10 
2.352
 20 
1.125
 11 
1.552
 21 
1.125
 0 
LINE
 8 
0
 62 
 7 
 10 
1.552
 20 
1.025
 11 
1.552
 21 
1.125
 0 
LINE
 8 
0
 62 
 7 
 10 
2.352
 20 
1.025
 11 
2.352
 21 
1.125
 0 
LINE
 8 
0
 62 
 7 
 10 
0.452
 20 
0.125
 11 
1.252
 21 
0.125
 0 
LINE
 8 
0
 62 
 7 
 10 
1.252
 20 
0.225
 11 
0.452
 21 
0.225
 0 
LINE
 8 
0
 62 
 7 
 10 
0.452
 20 
0.125
 11 
0.452
 21 
0.225
 0 
LINE
 8 
0
 62 
 7 
 10 
1.252
 20 
0.125
 11 
1.252
 21 
0.225
 0 
LINE
 8 
0
 62 
 7 
 10 
1.552
 20 
0.025
 11 
2.352
 21 
0.025
 0 
LINE
 8 
0
 62 
 7 
 10 
2.352
 20 
0.125
 11 
1.552
 21 
0.125
 0 
LINE
 8 
0
 62 
 7 
 10 
1.552
 20 
0.025
 11 
1.552
 21 
0.125
 0 
LINE
 8 
0
 62 
 7 
 10 
2.352
 20 
0.025
 11 
2.352
 21 
0.125
 0 
LINE
 8 
0
 62 
 7 
 10 
1.552
 20 
0.925
 11 
2.352
 21 
0.925
 0 
LINE
 8 
0
 62 
 7 
 10 
2.352
 20 
1.025
 11 
1.552
 21 
1.025
 0 
LINE
 8 
0
 62 
 7 
 10 
1.552
 20 
0.925
 11 
1.552
 21 
1.025
 0 
LINE
 8 
0
 62 
 7 
 10 
2.352
 20 
0.925
 11 
2.352
 21 
1.025
 0 
LINE
 8 
0
 62 
 7 
 10 
0.052
 20 
0.875
 11 
0.052
 21 
0.275
 0 
LINE
 8 
0
 62 
 7 
 10 
0.152
 20 
0.275
 11 
0.152
 21 
0.875
 0 
LINE
 8 
0
 62 
 7 
 10 
0.052
 20 
0.875
 11 
0.152
 21 
0.875
 0 
LINE
 8 
0
 62 
 7 
 10 
0.052
 20 
0.275
 11 
0.152
 21 
0.275
 0 
LINE
 8 
0
 62 
 7 
 10 
0.078
 20 
0.265
 11 
0.097
 21 
0.265
 0 
LINE
 8 
0
 62 
 7 
 10 
0.097
 20 
0.265
 11 
0.097
 21 
0.233
 0 
LINE
 8 
0
 62 
 7 
 10 
0.097
 20 
0.233
 11 
0.091
 21 
0.227
 0 
LINE
 8 
0
 62 
 7 
 10 
0.091
 20 
0.227
 11 
0.078
 21 
0.227
 0 
LINE
 8 
0
 62 
 7 
 10 
0.078
 20 
0.227
 11 
0.072
 21 
0.233
 0 
LINE
 8 
0
 62 
 7 
 10 
0.116
 20 
0.259
 11 
0.123
 21 
0.265
 0 
LINE
 8 
0
 62 
 7 
 10 
0.123
 20 
0.265
 11 
0.123
 21 
0.227
 0 
LINE
 8 
0
 62 
 7 
 10 
0.116
 20 
0.227
 11 
0.129
 21 
0.227
 0 
LINE
 8 
0
 62 
 7 
 10 
2.122
 20 
0.725
 11 
2.122
 21 
0.425
 0 
LINE
 8 
0
 62 
 7 
 10 
2.322
 20 
0.425
 11 
2.322
 21 
0.725
 0 
LINE
 8 
0
 62 
 7 
 10 
2.122
 20 
0.725
 11 
2.322
 21 
0.725
 0 
LINE
 8 
0
 62 
 7 
 10 
2.122
 20 
0.425
 11 
2.322
 21 
0.425
 0 
LINE
 8 
0
 62 
 7 
 10 
0.42
 20 
0.413
 11 
0.362
 21 
0.413
 0 
LINE
 8 
0
 62 
 7 
 10 
0.362
 20 
0.413
 11 
0.362
 21 
0.503
 0 
LINE
 8 
0
 62 
 7 
 10 
0.362
 20 
0.503
 11 
0.42
 21 
0.503
 0 
LINE
 8 
0
 62 
 7 
 10 
0.46
 20 
0.413
 11 
0.518
 21 
0.413
 0 
LINE
 8 
0
 62 
 7 
 10 
0.518
 20 
0.413
 11 
0.518
 21 
0.503
 0 
LINE
 8 
0
 62 
 7 
 10 
0.518
 20 
0.503
 11 
0.46
 21 
0.503
 0 
LINE
 8 
0
 62 
 7 
 10 
0.318
 20 
0.455
 11 
0.312
 21 
0.449
 0 
LINE
 8 
0
 62 
 7 
 10 
0.312
 20 
0.449
 11 
0.312
 21 
0.436
 0 
LINE
 8 
0
 62 
 7 
 10 
0.312
 20 
0.436
 11 
0.318
 21 
0.43
 0 
LINE
 8 
0
 62 
 7 
 10 
0.318
 20 
0.43
 11 
0.344
 21 
0.43
 0 
LINE
 8 
0
 62 
 7 
 10 
0.344
 20 
0.43
 11 
0.35
 21 
0.436
 0 
LINE
 8 
0
 62 
 7 
 10 
0.35
 20 
0.436
 11 
0.35
 21 
0.449
 0 
LINE
 8 
0
 62 
 7 
 10 
0.35
 20 
0.449
 11 
0.344
 21 
0.455
 0 
LINE
 8 
0
 62 
 7 
 10 
0.318
 20 
0.474
 11 
0.312
 21 
0.481
 0 
LINE
 8 
0
 62 
 7 
 10 
0.312
 20 
0.481
 11 
0.35
 21 
0.481
 0 
LINE
 8 
0
 62 
 7 
 10 
0.35
 20 
0.474
 11 
0.35
 21 
0.487
 0 
LINE
 8 
0
 62 
 7 
 10 
0.459
 20 
0.633
 11 
0.517
 21 
0.633
 0 
LINE
 8 
0
 62 
 7 
 10 
0.517
 20 
0.633
 11 
0.517
 21 
0.723
 0 
LINE
 8 
0
 62 
 7 
 10 
0.517
 20 
0.723
 11 
0.459
 21 
0.723
 0 
LINE
 8 
0
 62 
 7 
 10 
0.419
 20 
0.633
 11 
0.361
 21 
0.633
 0 
LINE
 8 
0
 62 
 7 
 10 
0.361
 20 
0.633
 11 
0.361
 21 
0.723
 0 
LINE
 8 
0
 62 
 7 
 10 
0.361
 20 
0.723
 11 
0.419
 21 
0.723
 0 
LINE
 8 
0
 62 
 7 
 10 
0.318
 20 
0.673
 11 
0.312
 21 
0.667
 0 
LINE
 8 
0
 62 
 7 
 10 
0.312
 20 
0.667
 11 
0.312
 21 
0.654
 0 
LINE
 8 
0
 62 
 7 
 10 
0.312
 20 
0.654
 11 
0.318
 21 
0.648
 0 
LINE
 8 
0
 62 
 7 
 10 
0.318
 20 
0.648
 11 
0.344
 21 
0.648
 0 
LINE
 8 
0
 62 
 7 
 10 
0.344
 20 
0.648
 11 
0.35
 21 
0.654
 0 
LINE
 8 
0
 62 
 7 
 10 
0.35
 20 
0.654
 11 
0.35
 21 
0.667
 0 
LINE
 8 
0
 62 
 7 
 10 
0.35
 20 
0.667
 11 
0.344
 21 
0.673
 0 
LINE
 8 
0
 62 
 7 
 10 
0.318
 20 
0.686
 11 
0.312
 21 
0.692
 0 
LINE
 8 
0
 62 
 7 
 10 
0.312
 20 
0.692
 11 
0.312
 21 
0.705
 0 
LINE
 8 
0
 62 
 7 
 10 
0.312
 20 
0.705
 11 
0.318
 21 
0.711
 0 
LINE
 8 
0
 62 
 7 
 10 
0.318
 20 
0.711
 11 
0.325
 21 
0.711
 0 
LINE
 8 
0
 62 
 7 
 10 
0.325
 20 
0.711
 11 
0.331
 21 
0.705
 0 
LINE
 8 
0
 62 
 7 
 10 
0.331
 20 
0.705
 11 
0.331
 21 
0.692
 0 
LINE
 8 
0
 62 
 7 
 10 
0.331
 20 
0.692
 11 
0.337
 21 
0.686
 0 
LINE
 8 
0
 62 
 7 
 10 
0.337
 20 
0.686
 11 
0.35
 21 
0.686
 0 
LINE
 8 
0
 62 
 7 
 10 
0.35
 20 
0.686
 11 
0.35
 21 
0.711
 0 
LINE
 8 
0
 62 
 7 
 10 
2.586
 20 
0.383
 11 
2.644
 21 
0.383
 0 
LINE
 8 
0
 62 
 7 
 10 
2.644
 20 
0.383
 11 
2.644
 21 
0.473
 0 
LINE
 8 
0
 62 
 7 
 10 
2.644
 20 
0.473
 11 
2.586
 21 
0.473
 0 
LINE
 8 
0
 62 
 7 
 10 
2.546
 20 
0.383
 11 
2.488
 21 
0.383
 0 
LINE
 8 
0
 62 
 7 
 10 
2.488
 20 
0.383
 11 
2.488
 21 
0.473
 0 
LINE
 8 
0
 62 
 7 
 10 
2.488
 20 
0.473
 11 
2.546
 21 
0.473
 0 
LINE
 8 
0
 62 
 7 
 10 
2.438
 20 
0.423
 11 
2.432
 21 
0.417
 0 
LINE
 8 
0
 62 
 7 
 10 
2.432
 20 
0.417
 11 
2.432
 21 
0.404
 0 
LINE
 8 
0
 62 
 7 
 10 
2.432
 20 
0.404
 11 
2.438
 21 
0.398
 0 
LINE
 8 
0
 62 
 7 
 10 
2.438
 20 
0.398
 11 
2.464
 21 
0.398
 0 
LINE
 8 
0
 62 
 7 
 10 
2.464
 20 
0.398
 11 
2.47
 21 
0.404
 0 
LINE
 8 
0
 62 
 7 
 10 
2.47
 20 
0.404
 11 
2.47
 21 
0.417
 0 
LINE
 8 
0
 62 
 7 
 10 
2.47
 20 
0.417
 11 
2.464
 21 
0.423
 0 
LINE
 8 
0
 62 
 7 
 10 
2.457
 20 
0.461
 11 
2.457
 21 
0.436
 0 
LINE
 8 
0
 62 
 7 
 10 
2.457
 20 
0.436
 11 
2.451
 21 
0.436
 0 
LINE
 8 
0
 62 
 7 
 10 
2.451
 20 
0.436
 11 
2.432
 21 
0.455
 0 
LINE
 8 
0
 62 
 7 
 10 
2.432
 20 
0.455
 11 
2.47
 21 
0.455
 0 
LINE
 8 
0
 62 
 7 
 10 
0.42
 20 
0.523
 11 
0.362
 21 
0.523
 0 
LINE
 8 
0
 62 
 7 
 10 
0.362
 20 
0.523
 11 
0.362
 21 
0.613
 0 
LINE
 8 
0
 62 
 7 
 10 
0.362
 20 
0.613
 11 
0.42
 21 
0.613
 0 
LINE
 8 
0
 62 
 7 
 10 
0.46
 20 
0.523
 11 
0.518
 21 
0.523
 0 
LINE
 8 
0
 62 
 7 
 10 
0.518
 20 
0.523
 11 
0.518
 21 
0.613
 0 
LINE
 8 
0
 62 
 7 
 10 
0.518
 20 
0.613
 11 
0.46
 21 
0.613
 0 
LINE
 8 
0
 62 
 7 
 10 
0.35
 20 
0.543
 11 
0.312
 21 
0.543
 0 
LINE
 8 
0
 62 
 7 
 10 
0.312
 20 
0.543
 11 
0.312
 21 
0.562
 0 
LINE
 8 
0
 62 
 7 
 10 
0.312
 20 
0.562
 11 
0.318
 21 
0.568
 0 
LINE
 8 
0
 62 
 7 
 10 
0.318
 20 
0.568
 11 
0.325
 21 
0.568
 0 
LINE
 8 
0
 62 
 7 
 10 
0.325
 20 
0.568
 11 
0.331
 21 
0.562
 0 
LINE
 8 
0
 62 
 7 
 10 
0.331
 20 
0.562
 11 
0.331
 21 
0.543
 0 
LINE
 8 
0
 62 
 7 
 10 
0.331
 20 
0.549
 11 
0.35
 21 
0.568
 0 
LINE
 8 
0
 62 
 7 
 10 
0.318
 20 
0.587
 11 
0.312
 21 
0.594
 0 
LINE
 8 
0
 62 
 7 
 10 
0.312
 20 
0.594
 11 
0.35
 21 
0.594
 0 
LINE
 8 
0
 62 
 7 
 10 
0.35
 20 
0.587
 11 
0.35
 21 
0.6
 0 
LINE
 8 
0
 62 
 7 
 10 
3.197
 20 
0.911
 11 
3.197
 21 
0.969
 0 
LINE
 8 
0
 62 
 7 
 10 
3.197
 20 
0.969
 11 
3.107
 21 
0.969
 0 
LINE
 8 
0
 62 
 7 
 10 
3.107
 20 
0.969
 11 
3.107
 21 
0.911
 0 
LINE
 8 
0
 62 
 7 
 10 
3.197
 20 
0.871
 11 
3.197
 21 
0.813
 0 
LINE
 8 
0
 62 
 7 
 10 
3.197
 20 
0.813
 11 
3.107
 21 
0.813
 0 
LINE
 8 
0
 62 
 7 
 10 
3.107
 20 
0.813
 11 
3.107
 21 
0.871
 0 
LINE
 8 
0
 62 
 7 
 10 
3.26
 20 
0.858
 11 
3.222
 21 
0.858
 0 
LINE
 8 
0
 62 
 7 
 10 
3.222
 20 
0.858
 11 
3.222
 21 
0.877
 0 
LINE
 8 
0
 62 
 7 
 10 
3.222
 20 
0.877
 11 
3.228
 21 
0.883
 0 
LINE
 8 
0
 62 
 7 
 10 
3.228
 20 
0.883
 11 
3.235
 21 
0.883
 0 
LINE
 8 
0
 62 
 7 
 10 
3.235
 20 
0.883
 11 
3.241
 21 
0.877
 0 
LINE
 8 
0
 62 
 7 
 10 
3.241
 20 
0.877
 11 
3.241
 21 
0.858
 0 
LINE
 8 
0
 62 
 7 
 10 
3.241
 20 
0.864
 11 
3.26
 21 
0.883
 0 
LINE
 8 
0
 62 
 7 
 10 
3.228
 20 
0.896
 11 
3.222
 21 
0.902
 0 
LINE
 8 
0
 62 
 7 
 10 
3.222
 20 
0.902
 11 
3.222
 21 
0.915
 0 
LINE
 8 
0
 62 
 7 
 10 
3.222
 20 
0.915
 11 
3.228
 21 
0.921
 0 
LINE
 8 
0
 62 
 7 
 10 
3.228
 20 
0.921
 11 
3.235
 21 
0.921
 0 
LINE
 8 
0
 62 
 7 
 10 
3.235
 20 
0.921
 11 
3.241
 21 
0.915
 0 
LINE
 8 
0
 62 
 7 
 10 
3.241
 20 
0.915
 11 
3.241
 21 
0.902
 0 
LINE
 8 
0
 62 
 7 
 10 
3.241
 20 
0.902
 11 
3.247
 21 
0.896
 0 
LINE
 8 
0
 62 
 7 
 10 
3.247
 20 
0.896
 11 
3.26
 21 
0.896
 0 
LINE
 8 
0
 62 
 7 
 10 
3.26
 20 
0.896
 11 
3.26
 21 
0.921
 0 
LINE
 8 
0
 62 
 7 
 10 
3.072
 20 
0.912
 11 
3.072
 21 
0.97
 0 
LINE
 8 
0
 62 
 7 
 10 
3.072
 20 
0.97
 11 
2.982
 21 
0.97
 0 
LINE
 8 
0
 62 
 7 
 10 
2.982
 20 
0.97
 11 
2.982
 21 
0.912
 0 
LINE
 8 
0
 62 
 7 
 10 
3.072
 20 
0.872
 11 
3.072
 21 
0.814
 0 
LINE
 8 
0
 62 
 7 
 10 
3.072
 20 
0.814
 11 
2.982
 21 
0.814
 0 
LINE
 8 
0
 62 
 7 
 10 
2.982
 20 
0.814
 11 
2.982
 21 
0.872
 0 
LINE
 8 
0
 62 
 7 
 10 
0.452
 20 
0.025
 11 
1.252
 21 
0.025
 0 
LINE
 8 
0
 62 
 7 
 10 
1.252
 20 
0.125
 11 
0.452
 21 
0.125
 0 
LINE
 8 
0
 62 
 7 
 10 
0.452
 20 
0.025
 11 
0.452
 21 
0.125
 0 
LINE
 8 
0
 62 
 7 
 10 
1.252
 20 
0.025
 11 
1.252
 21 
0.125
 0 
LINE
 8 
0
 62 
 7 
 10 
2.749
 20 
0.914
 11 
2.749
 21 
0.737
 0 
LINE
 8 
0
 62 
 7 
 10 
2.628
 20 
0.913
 11 
2.592
 21 
0.88
 0 
LINE
 8 
0
 62 
 7 
 10 
2.634
 20 
0.805
 11 
2.634
 21 
0.785
 0 
LINE
 8 
0
 62 
 7 
 10 
2.628
 20 
0.737
 11 
2.592
 21 
0.773
 0 
LINE
 8 
0
 62 
 7 
 10 
2.644
 20 
0.795
 11 
2.624
 21 
0.795
 0 
CIRCLE
 8 
0
 62 
 7 
 10 
2.671
 20 
0.826
 40 
0.079
 0 
LINE
 8 
0
 62 
 7 
 10 
2.592
 20 
0.773
 11 
2.592
 21 
0.879
 0 
LINE
 8 
0
 62 
 7 
 10 
2.628
 20 
0.737
 11 
2.749
 21 
0.737
 0 
LINE
 8 
0
 62 
 7 
 10 
2.627
 20 
0.914
 11 
2.748
 21 
0.914
 0 
LINE
 8 
0
 62 
 7 
 10 
2.667
 20 
0.962
 11 
2.661
 21 
0.968
 0 
LINE
 8 
0
 62 
 7 
 10 
2.661
 20 
0.968
 11 
2.648
 21 
0.968
 0 
LINE
 8 
0
 62 
 7 
 10 
2.648
 20 
0.968
 11 
2.642
 21 
0.962
 0 
LINE
 8 
0
 62 
 7 
 10 
2.642
 20 
0.962
 11 
2.642
 21 
0.936
 0 
LINE
 8 
0
 62 
 7 
 10 
2.642
 20 
0.936
 11 
2.648
 21 
0.93
 0 
LINE
 8 
0
 62 
 7 
 10 
2.648
 20 
0.93
 11 
2.661
 21 
0.93
 0 
LINE
 8 
0
 62 
 7 
 10 
2.661
 20 
0.93
 11 
2.667
 21 
0.936
 0 
LINE
 8 
0
 62 
 7 
 10 
2.68
 20 
0.962
 11 
2.686
 21 
0.968
 0 
LINE
 8 
0
 62 
 7 
 10 
2.686
 20 
0.968
 11 
2.699
 21 
0.968
 0 
LINE
 8 
0
 62 
 7 
 10 
2.699
 20 
0.968
 11 
2.705
 21 
0.962
 0 
LINE
 8 
0
 62 
 7 
 10 
2.705
 20 
0.962
 11 
2.705
 21 
0.955
 0 
LINE
 8 
0
 62 
 7 
 10 
2.705
 20 
0.955
 11 
2.699
 21 
0.949
 0 
LINE
 8 
0
 62 
 7 
 10 
2.699
 20 
0.949
 11 
2.693
 21 
0.949
 0 
LINE
 8 
0
 62 
 7 
 10 
2.699
 20 
0.949
 11 
2.705
 21 
0.943
 0 
LINE
 8 
0
 62 
 7 
 10 
2.705
 20 
0.943
 11 
2.705
 21 
0.936
 0 
LINE
 8 
0
 62 
 7 
 10 
2.705
 20 
0.936
 11 
2.699
 21 
0.93
 0 
LINE
 8 
0
 62 
 7 
 10 
2.699
 20 
0.93
 11 
2.686
 21 
0.93
 0 
LINE
 8 
0
 62 
 7 
 10 
2.686
 20 
0.93
 11 
2.68
 21 
0.936
 0 
LINE
 8 
0
 62 
 7 
 10 
2.866
 20 
0.697
 11 
2.866
 21 
0.52
 0 
LINE
 8 
0
 62 
 7 
 10 
2.745
 20 
0.696
 11 
2.709
 21 
0.663
 0 
LINE
 8 
0
 62 
 7 
 10 
2.751
 20 
0.588
 11 
2.751
 21 
0.568
 0 
LINE
 8 
0
 62 
 7 
 10 
2.745
 20 
0.52
 11 
2.709
 21 
0.556
 0 
LINE
 8 
0
 62 
 7 
 10 
2.761
 20 
0.578
 11 
2.741
 21 
0.578
 0 
CIRCLE
 8 
0
 62 
 7 
 10 
2.788
 20 
0.609
 40 
0.079
 0 
LINE
 8 
0
 62 
 7 
 10 
2.709
 20 
0.556
 11 
2.709
 21 
0.662
 0 
LINE
 8 
0
 62 
 7 
 10 
2.745
 20 
0.52
 11 
2.866
 21 
0.52
 0 
LINE
 8 
0
 62 
 7 
 10 
2.744
 20 
0.697
 11 
2.865
 21 
0.697
 0 
LINE
 8 
0
 62 
 7 
 10 
2.787
 20 
0.5
 11 
2.781
 21 
0.506
 0 
LINE
 8 
0
 62 
 7 
 10 
2.781
 20 
0.506
 11 
2.768
 21 
0.506
 0 
LINE
 8 
0
 62 
 7 
 10 
2.768
 20 
0.506
 11 
2.762
 21 
0.5
 0 
LINE
 8 
0
 62 
 7 
 10 
2.762
 20 
0.5
 11 
2.762
 21 
0.474
 0 
LINE
 8 
0
 62 
 7 
 10 
2.762
 20 
0.474
 11 
2.768
 21 
0.468
 0 
LINE
 8 
0
 62 
 7 
 10 
2.768
 20 
0.468
 11 
2.781
 21 
0.468
 0 
LINE
 8 
0
 62 
 7 
 10 
2.781
 20 
0.468
 11 
2.787
 21 
0.474
 0 
LINE
 8 
0
 62 
 7 
 10 
2.825
 20 
0.506
 11 
2.8
 21 
0.506
 0 
LINE
 8 
0
 62 
 7 
 10 
2.8
 20 
0.506
 11 
2.8
 21 
0.493
 0 
LINE
 8 
0
 62 
 7 
 10 
2.8
 20 
0.493
 11 
2.819
 21 
0.493
 0 
LINE
 8 
0
 62 
 7 
 10 
2.819
 20 
0.493
 11 
2.825
 21 
0.487
 0 
LINE
 8 
0
 62 
 7 
 10 
2.825
 20 
0.487
 11 
2.825
 21 
0.474
 0 
LINE
 8 
0
 62 
 7 
 10 
2.825
 20 
0.474
 11 
2.819
 21 
0.468
 0 
LINE
 8 
0
 62 
 7 
 10 
2.819
 20 
0.468
 11 
2.806
 21 
0.468
 0 
LINE
 8 
0
 62 
 7 
 10 
2.806
 20 
0.468
 11 
2.8
 21 
0.474
 0 
LINE
 8 
0
 62 
 7 
 10 
2.777
 20 
0.175
 11 
2.777
 21 
0.332
 0 
LINE
 8 
0
 62 
 7 
 10 
2.777
 20 
0.332
 11 
2.54
 21 
0.332
 0 
LINE
 8 
0
 62 
 7 
 10 
2.54
 20 
0.332
 11 
2.54
 21 
0.175
 0 
LINE
 8 
0
 62 
 7 
 10 
2.54
 20 
0.175
 11 
2.777
 21 
0.175
 0 
LINE
 8 
0
 62 
 7 
 10 
2.637
 20 
0.262
 11 
2.631
 21 
0.268
 0 
LINE
 8 
0
 62 
 7 
 10 
2.631
 20 
0.268
 11 
2.618
 21 
0.268
 0 
LINE
 8 
0
 62 
 7 
 10 
2.618
 20 
0.268
 11 
2.612
 21 
0.262
 0 
LINE
 8 
0
 62 
 7 
 10 
2.612
 20 
0.262
 11 
2.612
 21 
0.255
 0 
LINE
 8 
0
 62 
 7 
 10 
2.612
 20 
0.255
 11 
2.618
 21 
0.249
 0 
LINE
 8 
0
 62 
 7 
 10 
2.618
 20 
0.249
 11 
2.631
 21 
0.249
 0 
LINE
 8 
0
 62 
 7 
 10 
2.631
 20 
0.249
 11 
2.637
 21 
0.243
 0 
LINE
 8 
0
 62 
 7 
 10 
2.637
 20 
0.243
 11 
2.637
 21 
0.236
 0 
LINE
 8 
0
 62 
 7 
 10 
2.637
 20 
0.236
 11 
2.631
 21 
0.23
 0 
LINE
 8 
0
 62 
 7 
 10 
2.631
 20 
0.23
 11 
2.618
 21 
0.23
 0 
LINE
 8 
0
 62 
 7 
 10 
2.618
 20 
0.23
 11 
2.612
 21 
0.236
 0 
LINE
 8 
0
 62 
 7 
 10 
2.65
 20 
0.268
 11 
2.65
 21 
0.23
 0 
LINE
 8 
0
 62 
 7 
 10 
2.65
 20 
0.23
 11 
2.663
 21 
0.243
 0 
LINE
 8 
0
 62 
 7 
 10 
2.663
 20 
0.243
 11 
2.675
 21 
0.23
 0 
LINE
 8 
0
 62 
 7 
 10 
2.675
 20 
0.23
 11 
2.675
 21 
0.268
 0 
LINE
 8 
0
 62 
 7 
 10 
2.663
 20 
0.243
 11 
2.663
 21 
0.249
 0 
LINE
 8 
0
 62 
 7 
 10 
2.694
 20 
0.262
 11 
2.701
 21 
0.268
 0 
LINE
 8 
0
 62 
 7 
 10 
2.701
 20 
0.268
 11 
2.701
 21 
0.23
 0 
LINE
 8 
0
 62 
 7 
 10 
2.694
 20 
0.23
 11 
2.707
 21 
0.23
 0 
LINE
 8 
0
 62 
 7 
 10 
0.452
 20 
0.925
 11 
1.252
 21 
0.925
 0 
LINE
 8 
0
 62 
 7 
 10 
1.252
 20 
1.025
 11 
0.452
 21 
1.025
 0 
LINE
 8 
0
 62 
 7 
 10 
0.452
 20 
0.925
 11 
0.452
 21 
1.025
 0 
LINE
 8 
0
 62 
 7 
 10 
1.252
 20 
0.925
 11 
1.252
 21 
1.025
 0 
LINE
 8 
0
 62 
 7 
 10 
1.552
 20 
0.125
 11 
2.352
 21 
0.125
 0 
LINE
 8 
0
 62 
 7 
 10 
2.352
 20 
0.225
 11 
1.552
 21 
0.225
 0 
LINE
 8 
0
 62 
 7 
 10 
1.552
 20 
0.125
 11 
1.552
 21 
0.225
 0 
LINE
 8 
0
 62 
 7 
 10 
2.352
 20 
0.125
 11 
2.352
 21 
0.225
 0 
LINE
 8 
0
 62 
 7 
 10 
2.571
 20 
0.513
 11 
2.571
 21 
0.71
 0 
LINE
 8 
0
 62 
 7 
 10 
2.571
 20 
0.71
 11 
2.472
 21 
0.71
 0 
LINE
 8 
0
 62 
 7 
 10 
2.472
 20 
0.71
 11 
2.472
 21 
0.513
 0 
LINE
 8 
0
 62 
 7 
 10 
2.472
 20 
0.513
 11 
2.571
 21 
0.513
 0 
LINE
 8 
0
 62 
 7 
 10 
2.482
 20 
0.768
 11 
2.482
 21 
0.736
 0 
LINE
 8 
0
 62 
 7 
 10 
2.482
 20 
0.736
 11 
2.488
 21 
0.73
 0 
LINE
 8 
0
 62 
 7 
 10 
2.488
 20 
0.73
 11 
2.501
 21 
0.73
 0 
LINE
 8 
0
 62 
 7 
 10 
2.501
 20 
0.73
 11 
2.507
 21 
0.736
 0 
LINE
 8 
0
 62 
 7 
 10 
2.507
 20 
0.736
 11 
2.507
 21 
0.768
 0 
LINE
 8 
0
 62 
 7 
 10 
2.52
 20 
0.762
 11 
2.526
 21 
0.768
 0 
LINE
 8 
0
 62 
 7 
 10 
2.526
 20 
0.768
 11 
2.539
 21 
0.768
 0 
LINE
 8 
0
 62 
 7 
 10 
2.539
 20 
0.768
 11 
2.545
 21 
0.762
 0 
LINE
 8 
0
 62 
 7 
 10 
2.545
 20 
0.762
 11 
2.545
 21 
0.755
 0 
LINE
 8 
0
 62 
 7 
 10 
2.545
 20 
0.755
 11 
2.539
 21 
0.749
 0 
LINE
 8 
0
 62 
 7 
 10 
2.539
 20 
0.749
 11 
2.526
 21 
0.749
 0 
LINE
 8 
0
 62 
 7 
 10 
2.526
 20 
0.749
 11 
2.52
 21 
0.743
 0 
LINE
 8 
0
 62 
 7 
 10 
2.52
 20 
0.743
 11 
2.52
 21 
0.73
 0 
LINE
 8 
0
 62 
 7 
 10 
2.52
 20 
0.73
 11 
2.545
 21 
0.73
 0 
LINE
 8 
0
 62 
 7 
 10 
1.302
 20 
0.238
 11 
1.502
 21 
0.238
 0 
LINE
 8 
0
 62 
 7 
 10 
1.502
 20 
0.038
 11 
1.502
 21 
0.238
 0 
LINE
 8 
0
 62 
 7 
 10 
1.502
 20 
0.038
 11 
1.302
 21 
0.038
 0 
LINE
 8 
0
 62 
 7 
 10 
1.302
 20 
0.038
 11 
1.302
 21 
0.238
 0 
LINE
 8 
0
 62 
 7 
 10 
1.372
 20 
0.288
 11 
1.372
 21 
0.282
 0 
LINE
 8 
0
 62 
 7 
 10 
1.372
 20 
0.282
 11 
1.385
 21 
0.269
 0 
LINE
 8 
0
 62 
 7 
 10 
1.385
 20 
0.269
 11 
1.397
 21 
0.282
 0 
LINE
 8 
0
 62 
 7 
 10 
1.397
 20 
0.282
 11 
1.397
 21 
0.288
 0 
LINE
 8 
0
 62 
 7 
 10 
1.385
 20 
0.25
 11 
1.385
 21 
0.269
 0 
LINE
 8 
0
 62 
 7 
 10 
1.416
 20 
0.282
 11 
1.423
 21 
0.288
 0 
LINE
 8 
0
 62 
 7 
 10 
1.423
 20 
0.288
 11 
1.423
 21 
0.25
 0 
LINE
 8 
0
 62 
 7 
 10 
1.416
 20 
0.25
 11 
1.429
 21 
0.25
 0 
LINE
 8 
0
 62 
 7 
 10 
0.562
 20 
0.547
 11 
0.562
 21 
0.487
 0 
LINE
 8 
0
 62 
 7 
 10 
0.562
 20 
0.487
 11 
1.942
 21 
0.487
 0 
LINE
 8 
0
 62 
 7 
 10 
1.942
 20 
0.487
 11 
1.942
 21 
0.657
 0 
LINE
 8 
0
 62 
 7 
 10 
1.942
 20 
0.657
 11 
0.562
 21 
0.657
 0 
LINE
 8 
0
 62 
 7 
 10 
0.562
 20 
0.657
 11 
0.562
 21 
0.597
 0 
LINE
 8 
0
 62 
 7 
 10 
0.562
 20 
0.597
 11 
0.612
 21 
0.597
 0 
LINE
 8 
0
 62 
 7 
 10 
0.612
 20 
0.597
 11 
0.612
 21 
0.547
 0 
LINE
 8 
0
 62 
 7 
 10 
0.612
 20 
0.547
 11 
0.562
 21 
0.547
 0 
LINE
 8 
0
 62 
 7 
 10 
1.202
 20 
0.6
 11 
1.202
 21 
0.568
 0 
LINE
 8 
0
 62 
 7 
 10 
1.202
 20 
0.568
 11 
1.208
 21 
0.562
 0 
LINE
 8 
0
 62 
 7 
 10 
1.208
 20 
0.562
 11 
1.221
 21 
0.562
 0 
LINE
 8 
0
 62 
 7 
 10 
1.221
 20 
0.562
 11 
1.227
 21 
0.568
 0 
LINE
 8 
0
 62 
 7 
 10 
1.227
 20 
0.568
 11 
1.227
 21 
0.6
 0 
LINE
 8 
0
 62 
 7 
 10 
1.246
 20 
0.594
 11 
1.253
 21 
0.6
 0 
LINE
 8 
0
 62 
 7 
 10 
1.253
 20 
0.6
 11 
1.253
 21 
0.562
 0 
LINE
 8 
0
 62 
 7 
 10 
1.246
 20 
0.562
 11 
1.259
 21 
0.562
 0 
LINE
 8 
0
 62 
 7 
 10 
2.977
 20 
0.425
 11 
3.402
 21 
0.425
 0 
LINE
 8 
0
 62 
 7 
 10 
3.402
 20 
0.425
 11 
3.402
 21 
0.725
 0 
LINE
 8 
0
 62 
 7 
 10 
3.402
 20 
0.725
 11 
2.977
 21 
0.725
 0 
LINE
 8 
0
 62 
 7 
 10 
2.977
 20 
0.725
 11 
2.977
 21 
0.425
 0 
LINE
 8 
0
 62 
 7 
 10 
3.402
 20 
0.525
 11 
3.127
 21 
0.525
 0 
LINE
 8 
0
 62 
 7 
 10 
3.127
 20 
0.525
 11 
3.127
 21 
0.625
 0 
LINE
 8 
0
 62 
 7 
 10 
3.127
 20 
0.625
 11 
3.402
 21 
0.625
 0 
LINE
 8 
0
 62 
 7 
 10 
3.308
 20 
0.775
 11 
3.327
 21 
0.775
 0 
LINE
 8 
0
 62 
 7 
 10 
3.327
 20 
0.775
 11 
3.327
 21 
0.743
 0 
LINE
 8 
0
 62 
 7 
 10 
3.327
 20 
0.743
 11 
3.321
 21 
0.737
 0 
LINE
 8 
0
 62 
 7 
 10 
3.321
 20 
0.737
 11 
3.308
 21 
0.737
 0 
LINE
 8 
0
 62 
 7 
 10 
3.308
 20 
0.737
 11 
3.302
 21 
0.743
 0 
LINE
 8 
0
 62 
 7 
 10 
3.34
 20 
0.769
 11 
3.34
 21 
0.775
 0 
LINE
 8 
0
 62 
 7 
 10 
3.34
 20 
0.775
 11 
3.365
 21 
0.775
 0 
LINE
 8 
0
 62 
 7 
 10 
3.365
 20 
0.775
 11 
3.365
 21 
0.769
 0 
LINE
 8 
0
 62 
 7 
 10 
3.365
 20 
0.769
 11 
3.346
 21 
0.75
 0 
LINE
 8 
0
 62 
 7 
 10 
3.346
 20 
0.75
 11 
3.346
 21 
0.737
 0 
LINE
 8 
0
 62 
 7 
 10 
2.965
 20 
0.839
 11 
2.927
 21 
0.839
 0 
LINE
 8 
0
 62 
 7 
 10 
2.927
 20 
0.839
 11 
2.927
 21 
0.858
 0 
LINE
 8 
0
 62 
 7 
 10 
2.927
 20 
0.858
 11 
2.933
 21 
0.864
 0 
LINE
 8 
0
 62 
 7 
 10 
2.933
 20 
0.864
 11 
2.94
 21 
0.864
 0 
LINE
 8 
0
 62 
 7 
 10 
2.94
 20 
0.864
 11 
2.946
 21 
0.858
 0 
LINE
 8 
0
 62 
 7 
 10 
2.946
 20 
0.858
 11 
2.946
 21 
0.839
 0 
LINE
 8 
0
 62 
 7 
 10 
2.927
 20 
0.877
 11 
2.965
 21 
0.877
 0 
LINE
 8 
0
 62 
 7 
 10 
2.965
 20 
0.877
 11 
2.952
 21 
0.89
 0 
LINE
 8 
0
 62 
 7 
 10 
2.952
 20 
0.89
 11 
2.965
 21 
0.902
 0 
LINE
 8 
0
 62 
 7 
 10 
2.965
 20 
0.902
 11 
2.927
 21 
0.902
 0 
LINE
 8 
0
 62 
 7 
 10 
2.952
 20 
0.89
 11 
2.946
 21 
0.89
 0 
LINE
 8 
0
 62 
 7 
 10 
2.965
 20 
0.915
 11 
2.927
 21 
0.915
 0 
LINE
 8 
0
 62 
 7 
 10 
2.927
 20 
0.915
 11 
2.927
 21 
0.934
 0 
LINE
 8 
0
 62 
 7 
 10 
2.927
 20 
0.934
 11 
2.933
 21 
0.94
 0 
LINE
 8 
0
 62 
 7 
 10 
2.933
 20 
0.94
 11 
2.94
 21 
0.94
 0 
LINE
 8 
0
 62 
 7 
 10 
2.94
 20 
0.94
 11 
2.946
 21 
0.934
 0 
LINE
 8 
0
 62 
 7 
 10 
2.946
 20 
0.934
 11 
2.946
 21 
0.915
 0 
LINE
 8 
0
 62 
 7 
 10 
2.946
 20 
0.921
 11 
2.965
 21 
0.94
 0 
LINE
 8 
0
 62 
 7 
 10 
1.091
 20 
0.827
 11 
1.117
 21 
0.827
 0 
LINE
 8 
0
 62 
 7 
 10 
1.104
 20 
0.814
 11 
1.104
 21 
0.839
 0 
LINE
 8 
0
 62 
 7 
 10 
1.085
 20 
0.877
 11 
1.085
 21 
0.852
 0 
LINE
 8 
0
 62 
 7 
 10 
1.085
 20 
0.852
 11 
1.098
 21 
0.852
 0 
LINE
 8 
0
 62 
 7 
 10 
1.098
 20 
0.852
 11 
1.098
 21 
0.871
 0 
LINE
 8 
0
 62 
 7 
 10 
1.098
 20 
0.871
 11 
1.104
 21 
0.877
 0 
LINE
 8 
0
 62 
 7 
 10 
1.104
 20 
0.877
 11 
1.117
 21 
0.877
 0 
LINE
 8 
0
 62 
 7 
 10 
1.117
 20 
0.877
 11 
1.123
 21 
0.871
 0 
LINE
 8 
0
 62 
 7 
 10 
1.123
 20 
0.871
 11 
1.123
 21 
0.858
 0 
LINE
 8 
0
 62 
 7 
 10 
1.123
 20 
0.858
 11 
1.117
 21 
0.852
 0 
LINE
 8 
0
 62 
 7 
 10 
1.085
 20 
0.89
 11 
1.104
 21 
0.89
 0 
LINE
 8 
0
 62 
 7 
 10 
1.104
 20 
0.89
 11 
1.117
 21 
0.903
 0 
LINE
 8 
0
 62 
 7 
 10 
1.117
 20 
0.903
 11 
1.104
 21 
0.915
 0 
LINE
 8 
0
 62 
 7 
 10 
1.104
 20 
0.915
 11 
1.085
 21 
0.915
 0 
LINE
 8 
0
 62 
 7 
 10 
1.117
 20 
0.903
 11 
1.123
 21 
0.903
 0 
LINE
 8 
0
 62 
 7 
 10 
2.22
 20 
0.814
 11 
2.182
 21 
0.814
 0 
LINE
 8 
0
 62 
 7 
 10 
2.182
 20 
0.814
 11 
2.182
 21 
0.833
 0 
LINE
 8 
0
 62 
 7 
 10 
2.182
 20 
0.833
 11 
2.188
 21 
0.839
 0 
LINE
 8 
0
 62 
 7 
 10 
2.188
 20 
0.839
 11 
2.195
 21 
0.839
 0 
LINE
 8 
0
 62 
 7 
 10 
2.195
 20 
0.839
 11 
2.201
 21 
0.833
 0 
LINE
 8 
0
 62 
 7 
 10 
2.201
 20 
0.833
 11 
2.201
 21 
0.814
 0 
LINE
 8 
0
 62 
 7 
 10 
2.201
 20 
0.82
 11 
2.22
 21 
0.839
 0 
LINE
 8 
0
 62 
 7 
 10 
2.188
 20 
0.877
 11 
2.182
 21 
0.871
 0 
LINE
 8 
0
 62 
 7 
 10 
2.182
 20 
0.871
 11 
2.182
 21 
0.858
 0 
LINE
 8 
0
 62 
 7 
 10 
2.182
 20 
0.858
 11 
2.188
 21 
0.852
 0 
LINE
 8 
0
 62 
 7 
 10 
2.188
 20 
0.852
 11 
2.195
 21 
0.852
 0 
LINE
 8 
0
 62 
 7 
 10 
2.195
 20 
0.852
 11 
2.201
 21 
0.858
 0 
LINE
 8 
0
 62 
 7 
 10 
2.201
 20 
0.858
 11 
2.201
 21 
0.871
 0 
LINE
 8 
0
 62 
 7 
 10 
2.201
 20 
0.871
 11 
2.207
 21 
0.877
 0 
LINE
 8 
0
 62 
 7 
 10 
2.207
 20 
0.877
 11 
2.214
 21 
0.877
 0 
LINE
 8 
0
 62 
 7 
 10 
2.214
 20 
0.877
 11 
2.22
 21 
0.871
 0 
LINE
 8 
0
 62 
 7 
 10 
2.22
 20 
0.871
 11 
2.22
 21 
0.858
 0 
LINE
 8 
0
 62 
 7 
 10 
2.22
 20 
0.858
 11 
2.214
 21 
0.852
 0 
LINE
 8 
0
 62 
 7 
 10 
2.182
 20 
0.89
 11 
2.182
 21 
0.915
 0 
LINE
 8 
0
 62 
 7 
 10 
2.182
 20 
0.903
 11 
2.22
 21 
0.903
 0 
LINE
 8 
0
 62 
 7 
 10 
1.188
 20 
0.839
 11 
1.182
 21 
0.833
 0 
LINE
 8 
0
 62 
 7 
 10 
1.182
 20 
0.833
 11 
1.182
 21 
0.82
 0 
LINE
 8 
0
 62 
 7 
 10 
1.182
 20 
0.82
 11 
1.188
 21 
0.814
 0 
LINE
 8 
0
 62 
 7 
 10 
1.188
 20 
0.814
 11 
1.214
 21 
0.814
 0 
LINE
 8 
0
 62 
 7 
 10 
1.214
 20 
0.814
 11 
1.22
 21 
0.82
 0 
LINE
 8 
0
 62 
 7 
 10 
1.22
 20 
0.82
 11 
1.22
 21 
0.839
 0 
LINE
 8 
0
 62 
 7 
 10 
1.22
 20 
0.839
 11 
1.207
 21 
0.839
 0 
LINE
 8 
0
 62 
 7 
 10 
1.207
 20 
0.839
 11 
1.207
 21 
0.833
 0 
LINE
 8 
0
 62 
 7 
 10 
1.22
 20 
0.852
 11 
1.182
 21 
0.852
 0 
LINE
 8 
0
 62 
 7 
 10 
1.182
 20 
0.852
 11 
1.207
 21 
0.877
 0 
LINE
 8 
0
 62 
 7 
 10 
1.182
 20 
0.877
 11 
1.22
 21 
0.877
 0 
LINE
 8 
0
 62 
 7 
 10 
1.182
 20 
0.89
 11 
1.182
 21 
0.909
 0 
LINE
 8 
0
 62 
 7 
 10 
1.182
 20 
0.909
 11 
1.188
 21 
0.915
 0 
LINE
 8 
0
 62 
 7 
 10 
1.188
 20 
0.915
 11 
1.214
 21 
0.915
 0 
LINE
 8 
0
 62 
 7 
 10 
1.214
 20 
0.915
 11 
1.22
 21 
0.909
 0 
LINE
 8 
0
 62 
 7 
 10 
1.22
 20 
0.909
 11 
1.22
 21 
0.89
 0 
LINE
 8 
0
 62 
 7 
 10 
1.182
 20 
0.896
 11 
1.22
 21 
0.896
 0 
LINE
 8 
0
 62 
 7 
 10 
1.688
 20 
0.839
 11 
1.682
 21 
0.833
 0 
LINE
 8 
0
 62 
 7 
 10 
1.682
 20 
0.833
 11 
1.682
 21 
0.82
 0 
LINE
 8 
0
 62 
 7 
 10 
1.682
 20 
0.82
 11 
1.688
 21 
0.814
 0 
LINE
 8 
0
 62 
 7 
 10 
1.688
 20 
0.814
 11 
1.714
 21 
0.814
 0 
LINE
 8 
0
 62 
 7 
 10 
1.714
 20 
0.814
 11 
1.72
 21 
0.82
 0 
LINE
 8 
0
 62 
 7 
 10 
1.72
 20 
0.82
 11 
1.72
 21 
0.839
 0 
LINE
 8 
0
 62 
 7 
 10 
1.72
 20 
0.839
 11 
1.707
 21 
0.839
 0 
LINE
 8 
0
 62 
 7 
 10 
1.707
 20 
0.839
 11 
1.707
 21 
0.833
 0 
LINE
 8 
0
 62 
 7 
 10 
1.72
 20 
0.852
 11 
1.682
 21 
0.852
 0 
LINE
 8 
0
 62 
 7 
 10 
1.682
 20 
0.852
 11 
1.707
 21 
0.877
 0 
LINE
 8 
0
 62 
 7 
 10 
1.682
 20 
0.877
 11 
1.72
 21 
0.877
 0 
LINE
 8 
0
 62 
 7 
 10 
1.682
 20 
0.89
 11 
1.682
 21 
0.909
 0 
LINE
 8 
0
 62 
 7 
 10 
1.682
 20 
0.909
 11 
1.688
 21 
0.915
 0 
LINE
 8 
0
 62 
 7 
 10 
1.688
 20 
0.915
 11 
1.714
 21 
0.915
 0 
LINE
 8 
0
 62 
 7 
 10 
1.714
 20 
0.915
 11 
1.72
 21 
0.909
 0 
LINE
 8 
0
 62 
 7 
 10 
1.72
 20 
0.909
 11 
1.72
 21 
0.89
 0 
LINE
 8 
0
 62 
 7 
 10 
1.682
 20 
0.896
 11 
1.72
 21 
0.896
 0 
LINE
 8 
0
 62 
 7 
 10 
2.32
 20 
0.778
 11 
2.295
 21 
0.778
 0 
LINE
 8 
0
 62 
 7 
 10 
2.295
 20 
0.778
 11 
2.282
 21 
0.791
 0 
LINE
 8 
0
 62 
 7 
 10 
2.282
 20 
0.791
 11 
2.295
 21 
0.803
 0 
LINE
 8 
0
 62 
 7 
 10 
2.295
 20 
0.803
 11 
2.32
 21 
0.803
 0 
LINE
 8 
0
 62 
 7 
 10 
2.307
 20 
0.778
 11 
2.307
 21 
0.803
 0 
LINE
 8 
0
 62 
 7 
 10 
2.32
 20 
0.816
 11 
2.282
 21 
0.816
 0 
LINE
 8 
0
 62 
 7 
 10 
2.282
 20 
0.816
 11 
2.282
 21 
0.835
 0 
LINE
 8 
0
 62 
 7 
 10 
2.282
 20 
0.835
 11 
2.288
 21 
0.841
 0 
LINE
 8 
0
 62 
 7 
 10 
2.288
 20 
0.841
 11 
2.295
 21 
0.841
 0 
LINE
 8 
0
 62 
 7 
 10 
2.295
 20 
0.841
 11 
2.301
 21 
0.835
 0 
LINE
 8 
0
 62 
 7 
 10 
2.301
 20 
0.835
 11 
2.301
 21 
0.816
 0 
LINE
 8 
0
 62 
 7 
 10 
2.301
 20 
0.822
 11 
2.32
 21 
0.841
 0 
LINE
 8 
0
 62 
 7 
 10 
2.282
 20 
0.879
 11 
2.282
 21 
0.854
 0 
LINE
 8 
0
 62 
 7 
 10 
2.282
 20 
0.854
 11 
2.32
 21 
0.854
 0 
LINE
 8 
0
 62 
 7 
 10 
2.32
 20 
0.854
 11 
2.32
 21 
0.879
 0 
LINE
 8 
0
 62 
 7 
 10 
2.301
 20 
0.854
 11 
2.301
 21 
0.873
 0 
LINE
 8 
0
 62 
 7 
 10 
2.282
 20 
0.917
 11 
2.282
 21 
0.892
 0 
LINE
 8 
0
 62 
 7 
 10 
2.282
 20 
0.892
 11 
2.32
 21 
0.892
 0 
LINE
 8 
0
 62 
 7 
 10 
2.301
 20 
0.892
 11 
2.301
 21 
0.911
 0 
LINE
 8 
0
 62 
 7 
 10 
1.888
 20 
0.839
 11 
1.882
 21 
0.833
 0 
LINE
 8 
0
 62 
 7 
 10 
1.882
 20 
0.833
 11 
1.882
 21 
0.82
 0 
LINE
 8 
0
 62 
 7 
 10 
1.882
 20 
0.82
 11 
1.888
 21 
0.814
 0 
LINE
 8 
0
 62 
 7 
 10 
1.888
 20 
0.814
 11 
1.914
 21 
0.814
 0 
LINE
 8 
0
 62 
 7 
 10 
1.914
 20 
0.814
 11 
1.92
 21 
0.82
 0 
LINE
 8 
0
 62 
 7 
 10 
1.92
 20 
0.82
 11 
1.92
 21 
0.839
 0 
LINE
 8 
0
 62 
 7 
 10 
1.92
 20 
0.839
 11 
1.907
 21 
0.839
 0 
LINE
 8 
0
 62 
 7 
 10 
1.907
 20 
0.839
 11 
1.907
 21 
0.833
 0 
LINE
 8 
0
 62 
 7 
 10 
1.92
 20 
0.852
 11 
1.882
 21 
0.852
 0 
LINE
 8 
0
 62 
 7 
 10 
1.882
 20 
0.852
 11 
1.907
 21 
0.877
 0 
LINE
 8 
0
 62 
 7 
 10 
1.882
 20 
0.877
 11 
1.92
 21 
0.877
 0 
LINE
 8 
0
 62 
 7 
 10 
1.882
 20 
0.89
 11 
1.882
 21 
0.909
 0 
LINE
 8 
0
 62 
 7 
 10 
1.882
 20 
0.909
 11 
1.888
 21 
0.915
 0 
LINE
 8 
0
 62 
 7 
 10 
1.888
 20 
0.915
 11 
1.914
 21 
0.915
 0 
LINE
 8 
0
 62 
 7 
 10 
1.914
 20 
0.915
 11 
1.92
 21 
0.909
 0 
LINE
 8 
0
 62 
 7 
 10 
1.92
 20 
0.909
 11 
1.92
 21 
0.89
 0 
LINE
 8 
0
 62 
 7 
 10 
1.882
 20 
0.896
 11 
1.92
 21 
0.896
 0 
LINE
 8 
0
 62 
 7 
 10 
1.588
 20 
0.827
 11 
1.614
 21 
0.827
 0 
LINE
 8 
0
 62 
 7 
 10 
1.601
 20 
0.814
 11 
1.601
 21 
0.839
 0 
LINE
 8 
0
 62 
 7 
 10 
1.582
 20 
0.877
 11 
1.582
 21 
0.852
 0 
LINE
 8 
0
 62 
 7 
 10 
1.582
 20 
0.852
 11 
1.595
 21 
0.852
 0 
LINE
 8 
0
 62 
 7 
 10 
1.595
 20 
0.852
 11 
1.595
 21 
0.871
 0 
LINE
 8 
0
 62 
 7 
 10 
1.595
 20 
0.871
 11 
1.601
 21 
0.877
 0 
LINE
 8 
0
 62 
 7 
 10 
1.601
 20 
0.877
 11 
1.614
 21 
0.877
 0 
LINE
 8 
0
 62 
 7 
 10 
1.614
 20 
0.877
 11 
1.62
 21 
0.871
 0 
LINE
 8 
0
 62 
 7 
 10 
1.62
 20 
0.871
 11 
1.62
 21 
0.858
 0 
LINE
 8 
0
 62 
 7 
 10 
1.62
 20 
0.858
 11 
1.614
 21 
0.852
 0 
LINE
 8 
0
 62 
 7 
 10 
1.582
 20 
0.89
 11 
1.601
 21 
0.89
 0 
LINE
 8 
0
 62 
 7 
 10 
1.601
 20 
0.89
 11 
1.614
 21 
0.903
 0 
LINE
 8 
0
 62 
 7 
 10 
1.614
 20 
0.903
 11 
1.601
 21 
0.915
 0 
LINE
 8 
0
 62 
 7 
 10 
1.601
 20 
0.915
 11 
1.582
 21 
0.915
 0 
LINE
 8 
0
 62 
 7 
 10 
1.614
 20 
0.903
 11 
1.62
 21 
0.903
 0 
LINE
 8 
0
 62 
 7 
 10 
1.988
 20 
0.827
 11 
2.014
 21 
0.827
 0 
LINE
 8 
0
 62 
 7 
 10 
2.001
 20 
0.814
 11 
2.001
 21 
0.839
 0 
LINE
 8 
0
 62 
 7 
 10 
1.982
 20 
0.877
 11 
1.982
 21 
0.852
 0 
LINE
 8 
0
 62 
 7 
 10 
1.982
 20 
0.852
 11 
1.995
 21 
0.852
 0 
LINE
 8 
0
 62 
 7 
 10 
1.995
 20 
0.852
 11 
1.995
 21 
0.871
 0 
LINE
 8 
0
 62 
 7 
 10 
1.995
 20 
0.871
 11 
2.001
 21 
0.877
 0 
LINE
 8 
0
 62 
 7 
 10 
2.001
 20 
0.877
 11 
2.014
 21 
0.877
 0 
LINE
 8 
0
 62 
 7 
 10 
2.014
 20 
0.877
 11 
2.02
 21 
0.871
 0 
LINE
 8 
0
 62 
 7 
 10 
2.02
 20 
0.871
 11 
2.02
 21 
0.858
 0 
LINE
 8 
0
 62 
 7 
 10 
2.02
 20 
0.858
 11 
2.014
 21 
0.852
 0 
LINE
 8 
0
 62 
 7 
 10 
1.982
 20 
0.89
 11 
2.001
 21 
0.89
 0 
LINE
 8 
0
 62 
 7 
 10 
2.001
 20 
0.89
 11 
2.014
 21 
0.903
 0 
LINE
 8 
0
 62 
 7 
 10 
2.014
 20 
0.903
 11 
2.001
 21 
0.915
 0 
LINE
 8 
0
 62 
 7 
 10 
2.001
 20 
0.915
 11 
1.982
 21 
0.915
 0 
LINE
 8 
0
 62 
 7 
 10 
2.014
 20 
0.903
 11 
2.02
 21 
0.903
 0 
LINE
 8 
0
 62 
 7 
 10 
0.191
 20 
0.337
 11 
0.185
 21 
0.343
 0 
LINE
 8 
0
 62 
 7 
 10 
0.185
 20 
0.343
 11 
0.172
 21 
0.343
 0 
LINE
 8 
0
 62 
 7 
 10 
0.172
 20 
0.343
 11 
0.166
 21 
0.337
 0 
LINE
 8 
0
 62 
 7 
 10 
0.166
 20 
0.337
 11 
0.166
 21 
0.311
 0 
LINE
 8 
0
 62 
 7 
 10 
0.166
 20 
0.311
 11 
0.172
 21 
0.305
 0 
LINE
 8 
0
 62 
 7 
 10 
0.172
 20 
0.305
 11 
0.191
 21 
0.305
 0 
LINE
 8 
0
 62 
 7 
 10 
0.191
 20 
0.305
 11 
0.191
 21 
0.318
 0 
LINE
 8 
0
 62 
 7 
 10 
0.191
 20 
0.318
 11 
0.185
 21 
0.318
 0 
LINE
 8 
0
 62 
 7 
 10 
0.204
 20 
0.305
 11 
0.204
 21 
0.343
 0 
LINE
 8 
0
 62 
 7 
 10 
0.204
 20 
0.343
 11 
0.229
 21 
0.318
 0 
LINE
 8 
0
 62 
 7 
 10 
0.229
 20 
0.343
 11 
0.229
 21 
0.305
 0 
LINE
 8 
0
 62 
 7 
 10 
0.242
 20 
0.343
 11 
0.261
 21 
0.343
 0 
LINE
 8 
0
 62 
 7 
 10 
0.261
 20 
0.343
 11 
0.267
 21 
0.337
 0 
LINE
 8 
0
 62 
 7 
 10 
0.267
 20 
0.337
 11 
0.267
 21 
0.311
 0 
LINE
 8 
0
 62 
 7 
 10 
0.267
 20 
0.311
 11 
0.261
 21 
0.305
 0 
LINE
 8 
0
 62 
 7 
 10 
0.261
 20 
0.305
 11 
0.242
 21 
0.305
 0 
LINE
 8 
0
 62 
 7 
 10 
0.248
 20 
0.343
 11 
0.248
 21 
0.305
 0 
LINE
 8 
0
 62 
 7 
 10 
0.299
 20 
0.343
 11 
0.286
 21 
0.33
 0 
LINE
 8 
0
 62 
 7 
 10 
0.286
 20 
0.33
 11 
0.286
 21 
0.318
 0 
LINE
 8 
0
 62 
 7 
 10 
0.286
 20 
0.318
 11 
0.299
 21 
0.305
 0 
LINE
 8 
0
 62 
 7 
 10 
0.318
 20 
0.343
 11 
0.337
 21 
0.343
 0 
LINE
 8 
0
 62 
 7 
 10 
0.337
 20 
0.343
 11 
0.343
 21 
0.337
 0 
LINE
 8 
0
 62 
 7 
 10 
0.343
 20 
0.337
 11 
0.343
 21 
0.33
 0 
LINE
 8 
0
 62 
 7 
 10 
0.343
 20 
0.33
 11 
0.337
 21 
0.324
 0 
LINE
 8 
0
 62 
 7 
 10 
0.337
 20 
0.324
 11 
0.343
 21 
0.318
 0 
LINE
 8 
0
 62 
 7 
 10 
0.343
 20 
0.318
 11 
0.343
 21 
0.311
 0 
LINE
 8 
0
 62 
 7 
 10 
0.343
 20 
0.311
 11 
0.337
 21 
0.305
 0 
LINE
 8 
0
 62 
 7 
 10 
0.337
 20 
0.305
 11 
0.318
 21 
0.305
 0 
LINE
 8 
0
 62 
 7 
 10 
0.324
 20 
0.343
 11 
0.324
 21 
0.305
 0 
LINE
 8 
0
 62 
 7 
 10 
0.324
 20 
0.324
 11 
0.337
 21 
0.324
 0 
LINE
 8 
0
 62 
 7 
 10 
0.356
 20 
0.343
 11 
0.356
 21 
0.305
 0 
LINE
 8 
0
 62 
 7 
 10 
0.356
 20 
0.305
 11 
0.381
 21 
0.305
 0 
LINE
 8 
0
 62 
 7 
 10 
0.394
 20 
0.343
 11 
0.394
 21 
0.305
 0 
LINE
 8 
0
 62 
 7 
 10 
0.419
 20 
0.343
 11 
0.4
 21 
0.324
 0 
LINE
 8 
0
 62 
 7 
 10 
0.394
 20 
0.324
 11 
0.4
 21 
0.324
 0 
LINE
 8 
0
 62 
 7 
 10 
0.4
 20 
0.324
 11 
0.419
 21 
0.305
 0 
LINE
 8 
0
 62 
 7 
 10 
0.438
 20 
0.343
 11 
0.451
 21 
0.33
 0 
LINE
 8 
0
 62 
 7 
 10 
0.451
 20 
0.33
 11 
0.451
 21 
0.318
 0 
LINE
 8 
0
 62 
 7 
 10 
0.451
 20 
0.318
 11 
0.438
 21 
0.305
 0 
LINE
 8 
0
 62 
 7 
 10 
0.191
 20 
0.437
 11 
0.185
 21 
0.443
 0 
LINE
 8 
0
 62 
 7 
 10 
0.185
 20 
0.443
 11 
0.172
 21 
0.443
 0 
LINE
 8 
0
 62 
 7 
 10 
0.172
 20 
0.443
 11 
0.166
 21 
0.437
 0 
LINE
 8 
0
 62 
 7 
 10 
0.166
 20 
0.437
 11 
0.166
 21 
0.411
 0 
LINE
 8 
0
 62 
 7 
 10 
0.166
 20 
0.411
 11 
0.172
 21 
0.405
 0 
LINE
 8 
0
 62 
 7 
 10 
0.172
 20 
0.405
 11 
0.185
 21 
0.405
 0 
LINE
 8 
0
 62 
 7 
 10 
0.185
 20 
0.405
 11 
0.191
 21 
0.411
 0 
LINE
 8 
0
 62 
 7 
 10 
0.204
 20 
0.443
 11 
0.229
 21 
0.443
 0 
LINE
 8 
0
 62 
 7 
 10 
0.217
 20 
0.443
 11 
0.217
 21 
0.405
 0 
LINE
 8 
0
 62 
 7 
 10 
0.267
 20 
0.437
 11 
0.261
 21 
0.443
 0 
LINE
 8 
0
 62 
 7 
 10 
0.261
 20 
0.443
 11 
0.248
 21 
0.443
 0 
LINE
 8 
0
 62 
 7 
 10 
0.248
 20 
0.443
 11 
0.242
 21 
0.437
 0 
LINE
 8 
0
 62 
 7 
 10 
0.242
 20 
0.437
 11 
0.242
 21 
0.43
 0 
LINE
 8 
0
 62 
 7 
 10 
0.242
 20 
0.43
 11 
0.248
 21 
0.424
 0 
LINE
 8 
0
 62 
 7 
 10 
0.248
 20 
0.424
 11 
0.261
 21 
0.424
 0 
LINE
 8 
0
 62 
 7 
 10 
0.261
 20 
0.424
 11 
0.267
 21 
0.418
 0 
LINE
 8 
0
 62 
 7 
 10 
0.267
 20 
0.418
 11 
0.267
 21 
0.411
 0 
LINE
 8 
0
 62 
 7 
 10 
0.267
 20 
0.411
 11 
0.261
 21 
0.405
 0 
LINE
 8 
0
 62 
 7 
 10 
0.261
 20 
0.405
 11 
0.248
 21 
0.405
 0 
LINE
 8 
0
 62 
 7 
 10 
0.248
 20 
0.405
 11 
0.242
 21 
0.411
 0 
LINE
 8 
0
 62 
 7 
 10 
0.166
 20 
0.543
 11 
0.166
 21 
0.524
 0 
LINE
 8 
0
 62 
 7 
 10 
0.166
 20 
0.524
 11 
0.179
 21 
0.511
 0 
LINE
 8 
0
 62 
 7 
 10 
0.179
 20 
0.511
 11 
0.191
 21 
0.524
 0 
LINE
 8 
0
 62 
 7 
 10 
0.191
 20 
0.524
 11 
0.191
 21 
0.543
 0 
LINE
 8 
0
 62 
 7 
 10 
0.179
 20 
0.511
 11 
0.179
 21 
0.505
 0 
LINE
 8 
0
 62 
 7 
 10 
0.229
 20 
0.537
 11 
0.223
 21 
0.543
 0 
LINE
 8 
0
 62 
 7 
 10 
0.223
 20 
0.543
 11 
0.21
 21 
0.543
 0 
LINE
 8 
0
 62 
 7 
 10 
0.21
 20 
0.543
 11 
0.204
 21 
0.537
 0 
LINE
 8 
0
 62 
 7 
 10 
0.204
 20 
0.537
 11 
0.204
 21 
0.511
 0 
LINE
 8 
0
 62 
 7 
 10 
0.204
 20 
0.511
 11 
0.21
 21 
0.505
 0 
LINE
 8 
0
 62 
 7 
 10 
0.21
 20 
0.505
 11 
0.223
 21 
0.505
 0 
LINE
 8 
0
 62 
 7 
 10 
0.223
 20 
0.505
 11 
0.229
 21 
0.511
 0 
LINE
 8 
0
 62 
 7 
 10 
0.267
 20 
0.537
 11 
0.261
 21 
0.543
 0 
LINE
 8 
0
 62 
 7 
 10 
0.261
 20 
0.543
 11 
0.248
 21 
0.543
 0 
LINE
 8 
0
 62 
 7 
 10 
0.248
 20 
0.543
 11 
0.242
 21 
0.537
 0 
LINE
 8 
0
 62 
 7 
 10 
0.242
 20 
0.537
 11 
0.242
 21 
0.511
 0 
LINE
 8 
0
 62 
 7 
 10 
0.242
 20 
0.511
 11 
0.248
 21 
0.505
 0 
LINE
 8 
0
 62 
 7 
 10 
0.248
 20 
0.505
 11 
0.261
 21 
0.505
 0 
LINE
 8 
0
 62 
 7 
 10 
0.261
 20 
0.505
 11 
0.267
 21 
0.511
 0 
LINE
 8 
0
 62 
 7 
 10 
0.166
 20 
0.653
 11 
0.191
 21 
0.653
 0 
LINE
 8 
0
 62 
 7 
 10 
0.179
 20 
0.653
 11 
0.179
 21 
0.615
 0 
LINE
 8 
0
 62 
 7 
 10 
0.204
 20 
0.653
 11 
0.204
 21 
0.647
 0 
LINE
 8 
0
 62 
 7 
 10 
0.204
 20 
0.647
 11 
0.229
 21 
0.621
 0 
LINE
 8 
0
 62 
 7 
 10 
0.229
 20 
0.621
 11 
0.229
 21 
0.615
 0 
LINE
 8 
0
 62 
 7 
 10 
0.229
 20 
0.653
 11 
0.229
 21 
0.647
 0 
LINE
 8 
0
 62 
 7 
 10 
0.229
 20 
0.647
 11 
0.204
 21 
0.621
 0 
LINE
 8 
0
 62 
 7 
 10 
0.204
 20 
0.621
 11 
0.204
 21 
0.615
 0 
LINE
 8 
0
 62 
 7 
 10 
0.267
 20 
0.647
 11 
0.261
 21 
0.653
 0 
LINE
 8 
0
 62 
 7 
 10 
0.261
 20 
0.653
 11 
0.248
 21 
0.653
 0 
LINE
 8 
0
 62 
 7 
 10 
0.248
 20 
0.653
 11 
0.242
 21 
0.647
 0 
LINE
 8 
0
 62 
 7 
 10 
0.242
 20 
0.647
 11 
0.242
 21 
0.621
 0 
LINE
 8 
0
 62 
 7 
 10 
0.242
 20 
0.621
 11 
0.248
 21 
0.615
 0 
LINE
 8 
0
 62 
 7 
 10 
0.248
 20 
0.615
 11 
0.261
 21 
0.615
 0 
LINE
 8 
0
 62 
 7 
 10 
0.261
 20 
0.615
 11 
0.267
 21 
0.621
 0 
LINE
 8 
0
 62 
 7 
 10 
0.267
 20 
0.621
 11 
0.267
 21 
0.647
 0 
LINE
 8 
0
 62 
 7 
 10 
0.166
 20 
0.705
 11 
0.166
 21 
0.743
 0 
LINE
 8 
0
 62 
 7 
 10 
0.166
 20 
0.743
 11 
0.185
 21 
0.743
 0 
LINE
 8 
0
 62 
 7 
 10 
0.185
 20 
0.743
 11 
0.191
 21 
0.737
 0 
LINE
 8 
0
 62 
 7 
 10 
0.191
 20 
0.737
 11 
0.191
 21 
0.73
 0 
LINE
 8 
0
 62 
 7 
 10 
0.191
 20 
0.73
 11 
0.185
 21 
0.724
 0 
LINE
 8 
0
 62 
 7 
 10 
0.185
 20 
0.724
 11 
0.166
 21 
0.724
 0 
LINE
 8 
0
 62 
 7 
 10 
0.172
 20 
0.724
 11 
0.191
 21 
0.705
 0 
LINE
 8 
0
 62 
 7 
 10 
0.204
 20 
0.743
 11 
0.204
 21 
0.737
 0 
LINE
 8 
0
 62 
 7 
 10 
0.204
 20 
0.737
 11 
0.229
 21 
0.711
 0 
LINE
 8 
0
 62 
 7 
 10 
0.229
 20 
0.711
 11 
0.229
 21 
0.705
 0 
LINE
 8 
0
 62 
 7 
 10 
0.229
 20 
0.743
 11 
0.229
 21 
0.737
 0 
LINE
 8 
0
 62 
 7 
 10 
0.229
 20 
0.737
 11 
0.204
 21 
0.711
 0 
LINE
 8 
0
 62 
 7 
 10 
0.204
 20 
0.711
 11 
0.204
 21 
0.705
 0 
LINE
 8 
0
 62 
 7 
 10 
0.248
 20 
0.743
 11 
0.261
 21 
0.743
 0 
LINE
 8 
0
 62 
 7 
 10 
0.248
 20 
0.705
 11 
0.261
 21 
0.705
 0 
LINE
 8 
0
 62 
 7 
 10 
0.255
 20 
0.743
 11 
0.255
 21 
0.705
 0 
LINE
 8 
0
 62 
 7 
 10 
0.166
 20 
0.843
 11 
0.185
 21 
0.843
 0 
LINE
 8 
0
 62 
 7 
 10 
0.185
 20 
0.843
 11 
0.191
 21 
0.837
 0 
LINE
 8 
0
 62 
 7 
 10 
0.191
 20 
0.837
 11 
0.191
 21 
0.811
 0 
LINE
 8 
0
 62 
 7 
 10 
0.191
 20 
0.811
 11 
0.185
 21 
0.805
 0 
LINE
 8 
0
 62 
 7 
 10 
0.185
 20 
0.805
 11 
0.166
 21 
0.805
 0 
LINE
 8 
0
 62 
 7 
 10 
0.172
 20 
0.843
 11 
0.172
 21 
0.805
 0 
LINE
 8 
0
 62 
 7 
 10 
0.204
 20 
0.843
 11 
0.229
 21 
0.843
 0 
LINE
 8 
0
 62 
 7 
 10 
0.217
 20 
0.843
 11 
0.217
 21 
0.805
 0 
LINE
 8 
0
 62 
 7 
 10 
0.242
 20 
0.805
 11 
0.242
 21 
0.843
 0 
LINE
 8 
0
 62 
 7 
 10 
0.242
 20 
0.843
 11 
0.261
 21 
0.843
 0 
LINE
 8 
0
 62 
 7 
 10 
0.261
 20 
0.843
 11 
0.267
 21 
0.837
 0 
LINE
 8 
0
 62 
 7 
 10 
0.267
 20 
0.837
 11 
0.267
 21 
0.83
 0 
LINE
 8 
0
 62 
 7 
 10 
0.267
 20 
0.83
 11 
0.261
 21 
0.824
 0 
LINE
 8 
0
 62 
 7 
 10 
0.261
 20 
0.824
 11 
0.242
 21 
0.824
 0 
LINE
 8 
0
 62 
 7 
 10 
0.248
 20 
0.824
 11 
0.267
 21 
0.805
 0 
LINE
 8 
0
 62 
 7 
 10 
0.299
 20 
0.843
 11 
0.286
 21 
0.83
 0 
LINE
 8 
0
 62 
 7 
 10 
0.286
 20 
0.83
 11 
0.286
 21 
0.818
 0 
LINE
 8 
0
 62 
 7 
 10 
0.286
 20 
0.818
 11 
0.299
 21 
0.805
 0 
LINE
 8 
0
 62 
 7 
 10 
0.343
 20 
0.837
 11 
0.337
 21 
0.843
 0 
LINE
 8 
0
 62 
 7 
 10 
0.337
 20 
0.843
 11 
0.324
 21 
0.843
 0 
LINE
 8 
0
 62 
 7 
 10 
0.324
 20 
0.843
 11 
0.318
 21 
0.837
 0 
LINE
 8 
0
 62 
 7 
 10 
0.318
 20 
0.837
 11 
0.318
 21 
0.811
 0 
LINE
 8 
0
 62 
 7 
 10 
0.318
 20 
0.811
 11 
0.324
 21 
0.805
 0 
LINE
 8 
0
 62 
 7 
 10 
0.324
 20 
0.805
 11 
0.343
 21 
0.805
 0 
LINE
 8 
0
 62 
 7 
 10 
0.343
 20 
0.805
 11 
0.343
 21 
0.818
 0 
LINE
 8 
0
 62 
 7 
 10 
0.343
 20 
0.818
 11 
0.337
 21 
0.818
 0 
LINE
 8 
0
 62 
 7 
 10 
0.356
 20 
0.805
 11 
0.356
 21 
0.843
 0 
LINE
 8 
0
 62 
 7 
 10 
0.356
 20 
0.843
 11 
0.375
 21 
0.843
 0 
LINE
 8 
0
 62 
 7 
 10 
0.375
 20 
0.843
 11 
0.381
 21 
0.837
 0 
LINE
 8 
0
 62 
 7 
 10 
0.381
 20 
0.837
 11 
0.381
 21 
0.83
 0 
LINE
 8 
0
 62 
 7 
 10 
0.381
 20 
0.83
 11 
0.375
 21 
0.824
 0 
LINE
 8 
0
 62 
 7 
 10 
0.375
 20 
0.824
 11 
0.356
 21 
0.824
 0 
LINE
 8 
0
 62 
 7 
 10 
0.362
 20 
0.824
 11 
0.381
 21 
0.805
 0 
LINE
 8 
0
 62 
 7 
 10 
0.394
 20 
0.805
 11 
0.394
 21 
0.843
 0 
LINE
 8 
0
 62 
 7 
 10 
0.394
 20 
0.843
 11 
0.419
 21 
0.818
 0 
LINE
 8 
0
 62 
 7 
 10 
0.419
 20 
0.843
 11 
0.419
 21 
0.805
 0 
LINE
 8 
0
 62 
 7 
 10 
0.438
 20 
0.843
 11 
0.451
 21 
0.83
 0 
LINE
 8 
0
 62 
 7 
 10 
0.451
 20 
0.83
 11 
0.451
 21 
0.818
 0 
LINE
 8 
0
 62 
 7 
 10 
0.451
 20 
0.818
 11 
0.438
 21 
0.805
 0 
LINE
 8 
0
 62 
 7 
 10 
1.014
 20 
0.884
 11 
0.988
 21 
0.884
 0 
LINE
 8 
0
 62 
 7 
 10 
0.988
 20 
0.884
 11 
0.982
 21 
0.89
 0 
LINE
 8 
0
 62 
 7 
 10 
0.982
 20 
0.89
 11 
0.982
 21 
0.903
 0 
LINE
 8 
0
 62 
 7 
 10 
0.982
 20 
0.903
 11 
0.988
 21 
0.909
 0 
LINE
 8 
0
 62 
 7 
 10 
0.988
 20 
0.909
 11 
1.014
 21 
0.909
 0 
LINE
 8 
0
 62 
 7 
 10 
1.014
 20 
0.909
 11 
1.02
 21 
0.903
 0 
LINE
 8 
0
 62 
 7 
 10 
1.02
 20 
0.903
 11 
1.02
 21 
0.89
 0 
LINE
 8 
0
 62 
 7 
 10 
1.02
 20 
0.89
 11 
1.014
 21 
0.884
 0 
LINE
 8 
0
 62 
 7 
 10 
1.014
 20 
0.884
 11 
0.988
 21 
0.909
 0 
LINE
 8 
0
 62 
 7 
 10 
0.888
 20 
0.89
 11 
0.882
 21 
0.897
 0 
LINE
 8 
0
 62 
 7 
 10 
0.882
 20 
0.897
 11 
0.92
 21 
0.897
 0 
LINE
 8 
0
 62 
 7 
 10 
0.92
 20 
0.89
 11 
0.92
 21 
0.903
 0 
LINE
 8 
0
 62 
 7 
 10 
0.788
 20 
0.884
 11 
0.782
 21 
0.89
 0 
LINE
 8 
0
 62 
 7 
 10 
0.782
 20 
0.89
 11 
0.782
 21 
0.903
 0 
LINE
 8 
0
 62 
 7 
 10 
0.782
 20 
0.903
 11 
0.788
 21 
0.909
 0 
LINE
 8 
0
 62 
 7 
 10 
0.788
 20 
0.909
 11 
0.795
 21 
0.909
 0 
LINE
 8 
0
 62 
 7 
 10 
0.795
 20 
0.909
 11 
0.801
 21 
0.903
 0 
LINE
 8 
0
 62 
 7 
 10 
0.801
 20 
0.903
 11 
0.801
 21 
0.89
 0 
LINE
 8 
0
 62 
 7 
 10 
0.801
 20 
0.89
 11 
0.807
 21 
0.884
 0 
LINE
 8 
0
 62 
 7 
 10 
0.807
 20 
0.884
 11 
0.82
 21 
0.884
 0 
LINE
 8 
0
 62 
 7 
 10 
0.82
 20 
0.884
 11 
0.82
 21 
0.909
 0 
LINE
 8 
0
 62 
 7 
 10 
0.688
 20 
0.884
 11 
0.682
 21 
0.89
 0 
LINE
 8 
0
 62 
 7 
 10 
0.682
 20 
0.89
 11 
0.682
 21 
0.903
 0 
LINE
 8 
0
 62 
 7 
 10 
0.682
 20 
0.903
 11 
0.688
 21 
0.909
 0 
LINE
 8 
0
 62 
 7 
 10 
0.688
 20 
0.909
 11 
0.695
 21 
0.909
 0 
LINE
 8 
0
 62 
 7 
 10 
0.695
 20 
0.909
 11 
0.701
 21 
0.903
 0 
LINE
 8 
0
 62 
 7 
 10 
0.701
 20 
0.903
 11 
0.701
 21 
0.897
 0 
LINE
 8 
0
 62 
 7 
 10 
0.701
 20 
0.903
 11 
0.707
 21 
0.909
 0 
LINE
 8 
0
 62 
 7 
 10 
0.707
 20 
0.909
 11 
0.714
 21 
0.909
 0 
LINE
 8 
0
 62 
 7 
 10 
0.714
 20 
0.909
 11 
0.72
 21 
0.903
 0 
LINE
 8 
0
 62 
 7 
 10 
0.72
 20 
0.903
 11 
0.72
 21 
0.89
 0 
LINE
 8 
0
 62 
 7 
 10 
0.72
 20 
0.89
 11 
0.714
 21 
0.884
 0 
LINE
 8 
0
 62 
 7 
 10 
2.927
 20 
0.608
 11 
2.927
 21 
0.655
 0 
LINE
 8 
0
 62 
 7 
 10 
2.572
 20 
0.12
 11 
2.572
 21 
0.158
 0 
LINE
 8 
0
 62 
 7 
 10 
2.572
 20 
0.158
 11 
2.591
 21 
0.158
 0 
LINE
 8 
0
 62 
 7 
 10 
2.591
 20 
0.158
 11 
2.597
 21 
0.152
 0 
LINE
 8 
0
 62 
 7 
 10 
2.597
 20 
0.152
 11 
2.597
 21 
0.145
 0 
LINE
 8 
0
 62 
 7 
 10 
2.597
 20 
0.145
 11 
2.591
 21 
0.139
 0 
LINE
 8 
0
 62 
 7 
 10 
2.591
 20 
0.139
 11 
2.572
 21 
0.139
 0 
LINE
 8 
0
 62 
 7 
 10 
2.578
 20 
0.139
 11 
2.597
 21 
0.12
 0 
LINE
 8 
0
 62 
 7 
 10 
2.635
 20 
0.158
 11 
2.61
 21 
0.158
 0 
LINE
 8 
0
 62 
 7 
 10 
2.61
 20 
0.158
 11 
2.61
 21 
0.12
 0 
LINE
 8 
0
 62 
 7 
 10 
2.61
 20 
0.12
 11 
2.635
 21 
0.12
 0 
LINE
 8 
0
 62 
 7 
 10 
2.61
 20 
0.139
 11 
2.629
 21 
0.139
 0 
LINE
 8 
0
 62 
 7 
 10 
2.673
 20 
0.152
 11 
2.667
 21 
0.158
 0 
LINE
 8 
0
 62 
 7 
 10 
2.667
 20 
0.158
 11 
2.654
 21 
0.158
 0 
LINE
 8 
0
 62 
 7 
 10 
2.654
 20 
0.158
 11 
2.648
 21 
0.152
 0 
LINE
 8 
0
 62 
 7 
 10 
2.648
 20 
0.152
 11 
2.648
 21 
0.145
 0 
LINE
 8 
0
 62 
 7 
 10 
2.648
 20 
0.145
 11 
2.654
 21 
0.139
 0 
LINE
 8 
0
 62 
 7 
 10 
2.654
 20 
0.139
 11 
2.667
 21 
0.139
 0 
LINE
 8 
0
 62 
 7 
 10 
2.667
 20 
0.139
 11 
2.673
 21 
0.133
 0 
LINE
 8 
0
 62 
 7 
 10 
2.673
 20 
0.133
 11 
2.673
 21 
0.126
 0 
LINE
 8 
0
 62 
 7 
 10 
2.673
 20 
0.126
 11 
2.667
 21 
0.12
 0 
LINE
 8 
0
 62 
 7 
 10 
2.667
 20 
0.12
 11 
2.654
 21 
0.12
 0 
LINE
 8 
0
 62 
 7 
 10 
2.654
 20 
0.12
 11 
2.648
 21 
0.126
 0 
LINE
 8 
0
 62 
 7 
 10 
2.711
 20 
0.158
 11 
2.686
 21 
0.158
 0 
LINE
 8 
0
 62 
 7 
 10 
2.686
 20 
0.158
 11 
2.686
 21 
0.12
 0 
LINE
 8 
0
 62 
 7 
 10 
2.686
 20 
0.12
 11 
2.711
 21 
0.12
 0 
LINE
 8 
0
 62 
 7 
 10 
2.686
 20 
0.139
 11 
2.705
 21 
0.139
 0 
LINE
 8 
0
 62 
 7 
 10 
2.724
 20 
0.158
 11 
2.749
 21 
0.158
 0 
LINE
 8 
0
 62 
 7 
 10 
2.737
 20 
0.158
 11 
2.737
 21 
0.12
 0 
LINE
 8 
0
 62 
 7 
 10 
2.925
 20 
0.546
 11 
2.925
 21 
0.5
 0 
LINE
 8 
0
 62 
 7 
 10 
2.902
 20 
0.523
 11 
2.949
 21 
0.523
 0 
LINE
 8 
0
 62 
 7 
 10 
2.372
 20 
0.028
 11 
2.372
 21 
0.047
 0 
LINE
 8 
0
 62 
 7 
 10 
2.372
 20 
0.047
 11 
2.378
 21 
0.053
 0 
LINE
 8 
0
 62 
 7 
 10 
2.378
 20 
0.053
 11 
2.404
 21 
0.053
 0 
LINE
 8 
0
 62 
 7 
 10 
2.404
 20 
0.053
 11 
2.41
 21 
0.047
 0 
LINE
 8 
0
 62 
 7 
 10 
2.41
 20 
0.047
 11 
2.41
 21 
0.028
 0 
LINE
 8 
0
 62 
 7 
 10 
2.372
 20 
0.034
 11 
2.41
 21 
0.034
 0 
LINE
 8 
0
 62 
 7 
 10 
2.372
 20 
0.072
 11 
2.372
 21 
0.085
 0 
LINE
 8 
0
 62 
 7 
 10 
2.41
 20 
0.072
 11 
2.41
 21 
0.085
 0 
LINE
 8 
0
 62 
 7 
 10 
2.372
 20 
0.079
 11 
2.41
 21 
0.079
 0 
LINE
 8 
0
 62 
 7 
 10 
2.378
 20 
0.129
 11 
2.372
 21 
0.123
 0 
LINE
 8 
0
 62 
 7 
 10 
2.372
 20 
0.123
 11 
2.372
 21 
0.11
 0 
LINE
 8 
0
 62 
 7 
 10 
2.372
 20 
0.11
 11 
2.378
 21 
0.104
 0 
LINE
 8 
0
 62 
 7 
 10 
2.378
 20 
0.104
 11 
2.404
 21 
0.104
 0 
LINE
 8 
0
 62 
 7 
 10 
2.404
 20 
0.104
 11 
2.41
 21 
0.11
 0 
LINE
 8 
0
 62 
 7 
 10 
2.41
 20 
0.11
 11 
2.41
 21 
0.129
 0 
LINE
 8 
0
 62 
 7 
 10 
2.41
 20 
0.129
 11 
2.397
 21 
0.129
 0 
LINE
 8 
0
 62 
 7 
 10 
2.397
 20 
0.129
 11 
2.397
 21 
0.123
 0 
LINE
 8 
0
 62 
 7 
 10 
2.372
 20 
0.148
 11 
2.372
 21 
0.161
 0 
LINE
 8 
0
 62 
 7 
 10 
2.41
 20 
0.148
 11 
2.41
 21 
0.161
 0 
LINE
 8 
0
 62 
 7 
 10 
2.372
 20 
0.155
 11 
2.41
 21 
0.155
 0 
LINE
 8 
0
 62 
 7 
 10 
2.372
 20 
0.18
 11 
2.372
 21 
0.205
 0 
LINE
 8 
0
 62 
 7 
 10 
2.372
 20 
0.193
 11 
2.41
 21 
0.193
 0 
LINE
 8 
0
 62 
 7 
 10 
2.41
 20 
0.218
 11 
2.385
 21 
0.218
 0 
LINE
 8 
0
 62 
 7 
 10 
2.385
 20 
0.218
 11 
2.372
 21 
0.231
 0 
LINE
 8 
0
 62 
 7 
 10 
2.372
 20 
0.231
 11 
2.385
 21 
0.243
 0 
LINE
 8 
0
 62 
 7 
 10 
2.385
 20 
0.243
 11 
2.41
 21 
0.243
 0 
LINE
 8 
0
 62 
 7 
 10 
2.397
 20 
0.218
 11 
2.397
 21 
0.243
 0 
LINE
 8 
0
 62 
 7 
 10 
2.372
 20 
0.256
 11 
2.41
 21 
0.256
 0 
LINE
 8 
0
 62 
 7 
 10 
2.41
 20 
0.256
 11 
2.41
 21 
0.281
 0 
LINE
 8 
0
 62 
 7 
 10 
1.601
 20 
0.246
 11 
1.595
 21 
0.24
 0 
LINE
 8 
0
 62 
 7 
 10 
1.595
 20 
0.24
 11 
1.588
 21 
0.24
 0 
LINE
 8 
0
 62 
 7 
 10 
1.588
 20 
0.24
 11 
1.582
 21 
0.246
 0 
LINE
 8 
0
 62 
 7 
 10 
1.582
 20 
0.246
 11 
1.582
 21 
0.259
 0 
LINE
 8 
0
 62 
 7 
 10 
1.582
 20 
0.259
 11 
1.588
 21 
0.265
 0 
LINE
 8 
0
 62 
 7 
 10 
1.588
 20 
0.265
 11 
1.595
 21 
0.265
 0 
LINE
 8 
0
 62 
 7 
 10 
1.595
 20 
0.265
 11 
1.601
 21 
0.259
 0 
LINE
 8 
0
 62 
 7 
 10 
1.601
 20 
0.259
 11 
1.601
 21 
0.246
 0 
LINE
 8 
0
 62 
 7 
 10 
1.601
 20 
0.246
 11 
1.607
 21 
0.24
 0 
LINE
 8 
0
 62 
 7 
 10 
1.607
 20 
0.24
 11 
1.614
 21 
0.24
 0 
LINE
 8 
0
 62 
 7 
 10 
1.614
 20 
0.24
 11 
1.62
 21 
0.246
 0 
LINE
 8 
0
 62 
 7 
 10 
1.62
 20 
0.246
 11 
1.62
 21 
0.259
 0 
LINE
 8 
0
 62 
 7 
 10 
1.62
 20 
0.259
 11 
1.614
 21 
0.265
 0 
LINE
 8 
0
 62 
 7 
 10 
1.614
 20 
0.265
 11 
1.607
 21 
0.265
 0 
LINE
 8 
0
 62 
 7 
 10 
1.607
 20 
0.265
 11 
1.601
 21 
0.259
 0 
LINE
 8 
0
 62 
 7 
 10 
1.695
 20 
0.265
 11 
1.701
 21 
0.259
 0 
LINE
 8 
0
 62 
 7 
 10 
1.701
 20 
0.259
 11 
1.701
 21 
0.246
 0 
LINE
 8 
0
 62 
 7 
 10 
1.701
 20 
0.246
 11 
1.695
 21 
0.24
 0 
LINE
 8 
0
 62 
 7 
 10 
1.695
 20 
0.24
 11 
1.688
 21 
0.24
 0 
LINE
 8 
0
 62 
 7 
 10 
1.688
 20 
0.24
 11 
1.682
 21 
0.246
 0 
LINE
 8 
0
 62 
 7 
 10 
1.682
 20 
0.246
 11 
1.682
 21 
0.259
 0 
LINE
 8 
0
 62 
 7 
 10 
1.682
 20 
0.259
 11 
1.688
 21 
0.265
 0 
LINE
 8 
0
 62 
 7 
 10 
1.688
 20 
0.265
 11 
1.707
 21 
0.265
 0 
LINE
 8 
0
 62 
 7 
 10 
1.707
 20 
0.265
 11 
1.72
 21 
0.253
 0 
LINE
 8 
0
 62 
 7 
 10 
1.72
 20 
0.253
 11 
1.72
 21 
0.246
 0 
LINE
 8 
0
 62 
 7 
 10 
1.688
 20 
0.278
 11 
1.682
 21 
0.284
 0 
LINE
 8 
0
 62 
 7 
 10 
1.682
 20 
0.284
 11 
1.695
 21 
0.297
 0 
LINE
 8 
0
 62 
 7 
 10 
1.695
 20 
0.297
 11 
1.688
 21 
0.303
 0 
LINE
 8 
0
 62 
 7 
 10 
1.788
 20 
0.246
 11 
1.782
 21 
0.253
 0 
LINE
 8 
0
 62 
 7 
 10 
1.782
 20 
0.253
 11 
1.82
 21 
0.253
 0 
LINE
 8 
0
 62 
 7 
 10 
1.82
 20 
0.246
 11 
1.82
 21 
0.259
 0 
LINE
 8 
0
 62 
 7 
 10 
1.814
 20 
0.278
 11 
1.788
 21 
0.278
 0 
LINE
 8 
0
 62 
 7 
 10 
1.788
 20 
0.278
 11 
1.782
 21 
0.284
 0 
LINE
 8 
0
 62 
 7 
 10 
1.782
 20 
0.284
 11 
1.782
 21 
0.297
 0 
LINE
 8 
0
 62 
 7 
 10 
1.782
 20 
0.297
 11 
1.788
 21 
0.303
 0 
LINE
 8 
0
 62 
 7 
 10 
1.788
 20 
0.303
 11 
1.814
 21 
0.303
 0 
LINE
 8 
0
 62 
 7 
 10 
1.814
 20 
0.303
 11 
1.82
 21 
0.297
 0 
LINE
 8 
0
 62 
 7 
 10 
1.82
 20 
0.297
 11 
1.82
 21 
0.284
 0 
LINE
 8 
0
 62 
 7 
 10 
1.82
 20 
0.284
 11 
1.814
 21 
0.278
 0 
LINE
 8 
0
 62 
 7 
 10 
1.814
 20 
0.278
 11 
1.788
 21 
0.303
 0 
LINE
 8 
0
 62 
 7 
 10 
1.788
 20 
0.316
 11 
1.782
 21 
0.322
 0 
LINE
 8 
0
 62 
 7 
 10 
1.782
 20 
0.322
 11 
1.795
 21 
0.335
 0 
LINE
 8 
0
 62 
 7 
 10 
1.795
 20 
0.335
 11 
1.788
 21 
0.341
 0 
LINE
 8 
0
 62 
 7 
 10 
1.888
 20 
0.246
 11 
1.882
 21 
0.253
 0 
LINE
 8 
0
 62 
 7 
 10 
1.882
 20 
0.253
 11 
1.92
 21 
0.253
 0 
LINE
 8 
0
 62 
 7 
 10 
1.92
 20 
0.246
 11 
1.92
 21 
0.259
 0 
LINE
 8 
0
 62 
 7 
 10 
1.888
 20 
0.284
 11 
1.882
 21 
0.291
 0 
LINE
 8 
0
 62 
 7 
 10 
1.882
 20 
0.291
 11 
1.92
 21 
0.291
 0 
LINE
 8 
0
 62 
 7 
 10 
1.92
 20 
0.284
 11 
1.92
 21 
0.297
 0 
LINE
 8 
0
 62 
 7 
 10 
1.888
 20 
0.316
 11 
1.882
 21 
0.322
 0 
LINE
 8 
0
 62 
 7 
 10 
1.882
 20 
0.322
 11 
1.895
 21 
0.335
 0 
LINE
 8 
0
 62 
 7 
 10 
1.895
 20 
0.335
 11 
1.888
 21 
0.341
 0 
LINE
 8 
0
 62 
 7 
 10 
1.988
 20 
0.246
 11 
1.982
 21 
0.253
 0 
LINE
 8 
0
 62 
 7 
 10 
1.982
 20 
0.253
 11 
2.02
 21 
0.253
 0 
LINE
 8 
0
 62 
 7 
 10 
2.02
 20 
0.246
 11 
2.02
 21 
0.259
 0 
LINE
 8 
0
 62 
 7 
 10 
1.988
 20 
0.278
 11 
1.982
 21 
0.284
 0 
LINE
 8 
0
 62 
 7 
 10 
1.982
 20 
0.284
 11 
1.982
 21 
0.297
 0 
LINE
 8 
0
 62 
 7 
 10 
1.982
 20 
0.297
 11 
1.988
 21 
0.303
 0 
LINE
 8 
0
 62 
 7 
 10 
1.988
 20 
0.303
 11 
1.995
 21 
0.303
 0 
LINE
 8 
0
 62 
 7 
 10 
1.995
 20 
0.303
 11 
2.001
 21 
0.297
 0 
LINE
 8 
0
 62 
 7 
 10 
2.001
 20 
0.297
 11 
2.001
 21 
0.284
 0 
LINE
 8 
0
 62 
 7 
 10 
2.001
 20 
0.284
 11 
2.007
 21 
0.278
 0 
LINE
 8 
0
 62 
 7 
 10 
2.007
 20 
0.278
 11 
2.02
 21 
0.278
 0 
LINE
 8 
0
 62 
 7 
 10 
2.02
 20 
0.278
 11 
2.02
 21 
0.303
 0 
LINE
 8 
0
 62 
 7 
 10 
2.088
 20 
0.246
 11 
2.082
 21 
0.253
 0 
LINE
 8 
0
 62 
 7 
 10 
2.082
 20 
0.253
 11 
2.12
 21 
0.253
 0 
LINE
 8 
0
 62 
 7 
 10 
2.12
 20 
0.246
 11 
2.12
 21 
0.259
 0 
LINE
 8 
0
 62 
 7 
 10 
2.088
 20 
0.278
 11 
2.082
 21 
0.284
 0 
LINE
 8 
0
 62 
 7 
 10 
2.082
 20 
0.284
 11 
2.082
 21 
0.297
 0 
LINE
 8 
0
 62 
 7 
 10 
2.082
 20 
0.297
 11 
2.088
 21 
0.303
 0 
LINE
 8 
0
 62 
 7 
 10 
2.088
 20 
0.303
 11 
2.095
 21 
0.303
 0 
LINE
 8 
0
 62 
 7 
 10 
2.095
 20 
0.303
 11 
2.101
 21 
0.297
 0 
LINE
 8 
0
 62 
 7 
 10 
2.101
 20 
0.297
 11 
2.101
 21 
0.291
 0 
LINE
 8 
0
 62 
 7 
 10 
2.101
 20 
0.297
 11 
2.107
 21 
0.303
 0 
LINE
 8 
0
 62 
 7 
 10 
2.107
 20 
0.303
 11 
2.114
 21 
0.303
 0 
LINE
 8 
0
 62 
 7 
 10 
2.114
 20 
0.303
 11 
2.12
 21 
0.297
 0 
LINE
 8 
0
 62 
 7 
 10 
2.12
 20 
0.297
 11 
2.12
 21 
0.284
 0 
LINE
 8 
0
 62 
 7 
 10 
2.12
 20 
0.284
 11 
2.114
 21 
0.278
 0 
LINE
 8 
0
 62 
 7 
 10 
2.188
 20 
0.253
 11 
2.214
 21 
0.253
 0 
LINE
 8 
0
 62 
 7 
 10 
2.201
 20 
0.24
 11 
2.201
 21 
0.265
 0 
LINE
 8 
0
 62 
 7 
 10 
2.182
 20 
0.303
 11 
2.182
 21 
0.278
 0 
LINE
 8 
0
 62 
 7 
 10 
2.182
 20 
0.278
 11 
2.195
 21 
0.278
 0 
LINE
 8 
0
 62 
 7 
 10 
2.195
 20 
0.278
 11 
2.195
 21 
0.297
 0 
LINE
 8 
0
 62 
 7 
 10 
2.195
 20 
0.297
 11 
2.201
 21 
0.303
 0 
LINE
 8 
0
 62 
 7 
 10 
2.201
 20 
0.303
 11 
2.214
 21 
0.303
 0 
LINE
 8 
0
 62 
 7 
 10 
2.214
 20 
0.303
 11 
2.22
 21 
0.297
 0 
LINE
 8 
0
 62 
 7 
 10 
2.22
 20 
0.297
 11 
2.22
 21 
0.284
 0 
LINE
 8 
0
 62 
 7 
 10 
2.22
 20 
0.284
 11 
2.214
 21 
0.278
 0 
LINE
 8 
0
 62 
 7 
 10 
2.182
 20 
0.316
 11 
2.201
 21 
0.316
 0 
LINE
 8 
0
 62 
 7 
 10 
2.201
 20 
0.316
 11 
2.214
 21 
0.329
 0 
LINE
 8 
0
 62 
 7 
 10 
2.214
 20 
0.329
 11 
2.201
 21 
0.341
 0 
LINE
 8 
0
 62 
 7 
 10 
2.201
 20 
0.341
 11 
2.182
 21 
0.341
 0 
LINE
 8 
0
 62 
 7 
 10 
2.214
 20 
0.329
 11 
2.22
 21 
0.329
 0 
LINE
 8 
0
 62 
 7 
 10 
0.607
 20 
0.909
 11 
0.607
 21 
0.884
 0 
LINE
 8 
0
 62 
 7 
 10 
0.607
 20 
0.884
 11 
0.601
 21 
0.884
 0 
LINE
 8 
0
 62 
 7 
 10 
0.601
 20 
0.884
 11 
0.582
 21 
0.903
 0 
LINE
 8 
0
 62 
 7 
 10 
0.582
 20 
0.903
 11 
0.62
 21 
0.903
 0 
LINE
 8 
0
 62 
 7 
 10 
0.482
 20 
0.909
 11 
0.482
 21 
0.884
 0 
LINE
 8 
0
 62 
 7 
 10 
0.482
 20 
0.884
 11 
0.495
 21 
0.884
 0 
LINE
 8 
0
 62 
 7 
 10 
0.495
 20 
0.884
 11 
0.495
 21 
0.903
 0 
LINE
 8 
0
 62 
 7 
 10 
0.495
 20 
0.903
 11 
0.501
 21 
0.909
 0 
LINE
 8 
0
 62 
 7 
 10 
0.501
 20 
0.909
 11 
0.514
 21 
0.909
 0 
LINE
 8 
0
 62 
 7 
 10 
0.514
 20 
0.909
 11 
0.52
 21 
0.903
 0 
LINE
 8 
0
 62 
 7 
 10 
0.52
 20 
0.903
 11 
0.52
 21 
0.89
 0 
LINE
 8 
0
 62 
 7 
 10 
0.52
 20 
0.89
 11 
0.514
 21 
0.884
 0 
LINE
 8 
0
 62 
 7 
 10 
0.688
 20 
0.24
 11 
0.682
 21 
0.246
 0 
LINE
 8 
0
 62 
 7 
 10 
0.682
 20 
0.246
 11 
0.682
 21 
0.259
 0 
LINE
 8 
0
 62 
 7 
 10 
0.682
 20 
0.259
 11 
0.688
 21 
0.265
 0 
LINE
 8 
0
 62 
 7 
 10 
0.688
 20 
0.265
 11 
0.695
 21 
0.265
 0 
LINE
 8 
0
 62 
 7 
 10 
0.695
 20 
0.265
 11 
0.701
 21 
0.259
 0 
LINE
 8 
0
 62 
 7 
 10 
0.701
 20 
0.259
 11 
0.701
 21 
0.246
 0 
LINE
 8 
0
 62 
 7 
 10 
0.701
 20 
0.246
 11 
0.707
 21 
0.24
 0 
LINE
 8 
0
 62 
 7 
 10 
0.707
 20 
0.24
 11 
0.72
 21 
0.24
 0 
LINE
 8 
0
 62 
 7 
 10 
0.72
 20 
0.24
 11 
0.72
 21 
0.265
 0 
LINE
 8 
0
 62 
 7 
 10 
0.788
 20 
0.24
 11 
0.782
 21 
0.246
 0 
LINE
 8 
0
 62 
 7 
 10 
0.782
 20 
0.246
 11 
0.782
 21 
0.259
 0 
LINE
 8 
0
 62 
 7 
 10 
0.782
 20 
0.259
 11 
0.788
 21 
0.265
 0 
LINE
 8 
0
 62 
 7 
 10 
0.788
 20 
0.265
 11 
0.795
 21 
0.265
 0 
LINE
 8 
0
 62 
 7 
 10 
0.795
 20 
0.265
 11 
0.801
 21 
0.259
 0 
LINE
 8 
0
 62 
 7 
 10 
0.801
 20 
0.259
 11 
0.801
 21 
0.253
 0 
LINE
 8 
0
 62 
 7 
 10 
0.801
 20 
0.259
 11 
0.807
 21 
0.265
 0 
LINE
 8 
0
 62 
 7 
 10 
0.807
 20 
0.265
 11 
0.814
 21 
0.265
 0 
LINE
 8 
0
 62 
 7 
 10 
0.814
 20 
0.265
 11 
0.82
 21 
0.259
 0 
LINE
 8 
0
 62 
 7 
 10 
0.82
 20 
0.259
 11 
0.82
 21 
0.246
 0 
LINE
 8 
0
 62 
 7 
 10 
0.82
 20 
0.246
 11 
0.814
 21 
0.24
 0 
LINE
 8 
0
 62 
 7 
 10 
0.788
 20 
0.278
 11 
0.782
 21 
0.284
 0 
LINE
 8 
0
 62 
 7 
 10 
0.782
 20 
0.284
 11 
0.795
 21 
0.297
 0 
LINE
 8 
0
 62 
 7 
 10 
0.795
 20 
0.297
 11 
0.788
 21 
0.303
 0 
LINE
 8 
0
 62 
 7 
 10 
0.907
 20 
0.265
 11 
0.907
 21 
0.24
 0 
LINE
 8 
0
 62 
 7 
 10 
0.907
 20 
0.24
 11 
0.901
 21 
0.24
 0 
LINE
 8 
0
 62 
 7 
 10 
0.901
 20 
0.24
 11 
0.882
 21 
0.259
 0 
LINE
 8 
0
 62 
 7 
 10 
0.882
 20 
0.259
 11 
0.92
 21 
0.259
 0 
LINE
 8 
0
 62 
 7 
 10 
0.982
 20 
0.265
 11 
0.982
 21 
0.24
 0 
LINE
 8 
0
 62 
 7 
 10 
0.982
 20 
0.24
 11 
0.995
 21 
0.24
 0 
LINE
 8 
0
 62 
 7 
 10 
0.995
 20 
0.24
 11 
0.995
 21 
0.259
 0 
LINE
 8 
0
 62 
 7 
 10 
0.995
 20 
0.259
 11 
1.001
 21 
0.265
 0 
LINE
 8 
0
 62 
 7 
 10 
1.001
 20 
0.265
 11 
1.014
 21 
0.265
 0 
LINE
 8 
0
 62 
 7 
 10 
1.014
 20 
0.265
 11 
1.02
 21 
0.259
 0 
LINE
 8 
0
 62 
 7 
 10 
1.02
 20 
0.259
 11 
1.02
 21 
0.246
 0 
LINE
 8 
0
 62 
 7 
 10 
1.02
 20 
0.246
 11 
1.014
 21 
0.24
 0 
LINE
 8 
0
 62 
 7 
 10 
0.988
 20 
0.278
 11 
0.982
 21 
0.284
 0 
LINE
 8 
0
 62 
 7 
 10 
0.982
 20 
0.284
 11 
0.995
 21 
0.297
 0 
LINE
 8 
0
 62 
 7 
 10 
0.995
 20 
0.297
 11 
0.988
 21 
0.303
 0 
LINE
 8 
0
 62 
 7 
 10 
1.082
 20 
0.259
 11 
1.082
 21 
0.253
 0 
LINE
 8 
0
 62 
 7 
 10 
1.082
 20 
0.253
 11 
1.095
 21 
0.24
 0 
LINE
 8 
0
 62 
 7 
 10 
1.095
 20 
0.24
 11 
1.114
 21 
0.24
 0 
LINE
 8 
0
 62 
 7 
 10 
1.114
 20 
0.24
 11 
1.12
 21 
0.246
 0 
LINE
 8 
0
 62 
 7 
 10 
1.12
 20 
0.246
 11 
1.12
 21 
0.259
 0 
LINE
 8 
0
 62 
 7 
 10 
1.12
 20 
0.259
 11 
1.114
 21 
0.265
 0 
LINE
 8 
0
 62 
 7 
 10 
1.114
 20 
0.265
 11 
1.107
 21 
0.265
 0 
LINE
 8 
0
 62 
 7 
 10 
1.107
 20 
0.265
 11 
1.101
 21 
0.259
 0 
LINE
 8 
0
 62 
 7 
 10 
1.101
 20 
0.259
 11 
1.101
 21 
0.246
 0 
LINE
 8 
0
 62 
 7 
 10 
1.101
 20 
0.246
 11 
1.107
 21 
0.24
 0 
LINE
 8 
0
 62 
 7 
 10 
1.088
 20 
0.278
 11 
1.082
 21 
0.284
 0 
LINE
 8 
0
 62 
 7 
 10 
1.082
 20 
0.284
 11 
1.095
 21 
0.297
 0 
LINE
 8 
0
 62 
 7 
 10 
1.095
 20 
0.297
 11 
1.088
 21 
0.303
 0 
LINE
 8 
0
 62 
 7 
 10 
1.188
 20 
0.24
 11 
1.182
 21 
0.24
 0 
LINE
 8 
0
 62 
 7 
 10 
1.182
 20 
0.24
 11 
1.182
 21 
0.265
 0 
LINE
 8 
0
 62 
 7 
 10 
1.182
 20 
0.265
 11 
1.188
 21 
0.265
 0 
LINE
 8 
0
 62 
 7 
 10 
1.188
 20 
0.265
 11 
1.207
 21 
0.246
 0 
LINE
 8 
0
 62 
 7 
 10 
1.207
 20 
0.246
 11 
1.22
 21 
0.246
 0 
LINE
 8 
0
 62 
 7 
 10 
0.514
 20 
0.24
 11 
0.488
 21 
0.24
 0 
LINE
 8 
0
 62 
 7 
 10 
0.488
 20 
0.24
 11 
0.482
 21 
0.246
 0 
LINE
 8 
0
 62 
 7 
 10 
0.482
 20 
0.246
 11 
0.482
 21 
0.259
 0 
LINE
 8 
0
 62 
 7 
 10 
0.482
 20 
0.259
 11 
0.488
 21 
0.265
 0 
LINE
 8 
0
 62 
 7 
 10 
0.488
 20 
0.265
 11 
0.514
 21 
0.265
 0 
LINE
 8 
0
 62 
 7 
 10 
0.514
 20 
0.265
 11 
0.52
 21 
0.259
 0 
LINE
 8 
0
 62 
 7 
 10 
0.52
 20 
0.259
 11 
0.52
 21 
0.246
 0 
LINE
 8 
0
 62 
 7 
 10 
0.52
 20 
0.246
 11 
0.514
 21 
0.24
 0 
LINE
 8 
0
 62 
 7 
 10 
0.514
 20 
0.24
 11 
0.488
 21 
0.265
 0 
LINE
 8 
0
 62 
 7 
 10 
0.501
 20 
0.278
 11 
0.501
 21 
0.303
 0 
LINE
 8 
0
 62 
 7 
 10 
0.52
 20 
0.316
 11 
0.482
 21 
0.316
 0 
LINE
 8 
0
 62 
 7 
 10 
0.482
 20 
0.316
 11 
0.482
 21 
0.335
 0 
LINE
 8 
0
 62 
 7 
 10 
0.482
 20 
0.335
 11 
0.488
 21 
0.341
 0 
LINE
 8 
0
 62 
 7 
 10 
0.488
 20 
0.341
 11 
0.495
 21 
0.341
 0 
LINE
 8 
0
 62 
 7 
 10 
0.495
 20 
0.341
 11 
0.501
 21 
0.335
 0 
LINE
 8 
0
 62 
 7 
 10 
0.501
 20 
0.335
 11 
0.501
 21 
0.316
 0 
LINE
 8 
0
 62 
 7 
 10 
0.501
 20 
0.322
 11 
0.52
 21 
0.341
 0 
LINE
 8 
0
 62 
 7 
 10 
0.482
 20 
0.354
 11 
0.488
 21 
0.354
 0 
LINE
 8 
0
 62 
 7 
 10 
0.488
 20 
0.354
 11 
0.514
 21 
0.379
 0 
LINE
 8 
0
 62 
 7 
 10 
0.514
 20 
0.379
 11 
0.52
 21 
0.379
 0 
LINE
 8 
0
 62 
 7 
 10 
0.482
 20 
0.379
 11 
0.488
 21 
0.379
 0 
LINE
 8 
0
 62 
 7 
 10 
0.488
 20 
0.379
 11 
0.514
 21 
0.354
 0 
LINE
 8 
0
 62 
 7 
 10 
0.514
 20 
0.354
 11 
0.52
 21 
0.354
 0 
LINE
 8 
0
 62 
 7 
 10 
0.588
 20 
0.246
 11 
0.582
 21 
0.253
 0 
LINE
 8 
0
 62 
 7 
 10 
0.582
 20 
0.253
 11 
0.62
 21 
0.253
 0 
LINE
 8 
0
 62 
 7 
 10 
0.62
 20 
0.246
 11 
0.62
 21 
0.259
 0 
LINE
 8 
0
 62 
 7 
 10 
0.601
 20 
0.278
 11 
0.601
 21 
0.303
 0 
LINE
 8 
0
 62 
 7 
 10 
0.582
 20 
0.316
 11 
0.582
 21 
0.341
 0 
LINE
 8 
0
 62 
 7 
 10 
0.582
 20 
0.329
 11 
0.62
 21 
0.329
 0 
LINE
 8 
0
 62 
 7 
 10 
0.582
 20 
0.354
 11 
0.588
 21 
0.354
 0 
LINE
 8 
0
 62 
 7 
 10 
0.588
 20 
0.354
 11 
0.614
 21 
0.379
 0 
LINE
 8 
0
 62 
 7 
 10 
0.614
 20 
0.379
 11 
0.62
 21 
0.379
 0 
LINE
 8 
0
 62 
 7 
 10 
0.582
 20 
0.379
 11 
0.588
 21 
0.379
 0 
LINE
 8 
0
 62 
 7 
 10 
0.588
 20 
0.379
 11 
0.614
 21 
0.354
 0 
LINE
 8 
0
 62 
 7 
 10 
0.614
 20 
0.354
 11 
0.62
 21 
0.354
 0 
LINE
 8 
0
 62 
 7 
 10 
1.788
 20 
0.827
 11 
1.814
 21 
0.827
 0 
LINE
 8 
0
 62 
 7 
 10 
1.801
 20 
0.814
 11 
1.801
 21 
0.839
 0 
LINE
 8 
0
 62 
 7 
 10 
1.782
 20 
0.877
 11 
1.782
 21 
0.852
 0 
LINE
 8 
0
 62 
 7 
 10 
1.782
 20 
0.852
 11 
1.795
 21 
0.852
 0 
LINE
 8 
0
 62 
 7 
 10 
1.795
 20 
0.852
 11 
1.795
 21 
0.871
 0 
LINE
 8 
0
 62 
 7 
 10 
1.795
 20 
0.871
 11 
1.801
 21 
0.877
 0 
LINE
 8 
0
 62 
 7 
 10 
1.801
 20 
0.877
 11 
1.814
 21 
0.877
 0 
LINE
 8 
0
 62 
 7 
 10 
1.814
 20 
0.877
 11 
1.82
 21 
0.871
 0 
LINE
 8 
0
 62 
 7 
 10 
1.82
 20 
0.871
 11 
1.82
 21 
0.858
 0 
LINE
 8 
0
 62 
 7 
 10 
1.82
 20 
0.858
 11 
1.814
 21 
0.852
 0 
LINE
 8 
0
 62 
 7 
 10 
1.782
 20 
0.89
 11 
1.801
 21 
0.89
 0 
LINE
 8 
0
 62 
 7 
 10 
1.801
 20 
0.89
 11 
1.814
 21 
0.903
 0 
LINE
 8 
0
 62 
 7 
 10 
1.814
 20 
0.903
 11 
1.801
 21 
0.915
 0 
LINE
 8 
0
 62 
 7 
 10 
1.801
 20 
0.915
 11 
1.782
 21 
0.915
 0 
LINE
 8 
0
 62 
 7 
 10 
1.814
 20 
0.903
 11 
1.82
 21 
0.903
 0 
LINE
 8 
0
 62 
 7 
 10 
2.088
 20 
0.839
 11 
2.082
 21 
0.833
 0 
LINE
 8 
0
 62 
 7 
 10 
2.082
 20 
0.833
 11 
2.082
 21 
0.82
 0 
LINE
 8 
0
 62 
 7 
 10 
2.082
 20 
0.82
 11 
2.088
 21 
0.814
 0 
LINE
 8 
0
 62 
 7 
 10 
2.088
 20 
0.814
 11 
2.114
 21 
0.814
 0 
LINE
 8 
0
 62 
 7 
 10 
2.114
 20 
0.814
 11 
2.12
 21 
0.82
 0 
LINE
 8 
0
 62 
 7 
 10 
2.12
 20 
0.82
 11 
2.12
 21 
0.839
 0 
LINE
 8 
0
 62 
 7 
 10 
2.12
 20 
0.839
 11 
2.107
 21 
0.839
 0 
LINE
 8 
0
 62 
 7 
 10 
2.107
 20 
0.839
 11 
2.107
 21 
0.833
 0 
LINE
 8 
0
 62 
 7 
 10 
2.12
 20 
0.852
 11 
2.082
 21 
0.852
 0 
LINE
 8 
0
 62 
 7 
 10 
2.082
 20 
0.852
 11 
2.107
 21 
0.877
 0 
LINE
 8 
0
 62 
 7 
 10 
2.082
 20 
0.877
 11 
2.12
 21 
0.877
 0 
LINE
 8 
0
 62 
 7 
 10 
2.082
 20 
0.89
 11 
2.082
 21 
0.909
 0 
LINE
 8 
0
 62 
 7 
 10 
2.082
 20 
0.909
 11 
2.088
 21 
0.915
 0 
LINE
 8 
0
 62 
 7 
 10 
2.088
 20 
0.915
 11 
2.114
 21 
0.915
 0 
LINE
 8 
0
 62 
 7 
 10 
2.114
 20 
0.915
 11 
2.12
 21 
0.909
 0 
LINE
 8 
0
 62 
 7 
 10 
2.12
 20 
0.909
 11 
2.12
 21 
0.89
 0 
LINE
 8 
0
 62 
 7 
 10 
2.082
 20 
0.896
 11 
2.12
 21 
0.896
 0 
LINE
 8 
0
 62 
 7 
 10 
2.288
 20 
0.265
 11 
2.282
 21 
0.259
 0 
LINE
 8 
0
 62 
 7 
 10 
2.282
 20 
0.259
 11 
2.282
 21 
0.246
 0 
LINE
 8 
0
 62 
 7 
 10 
2.282
 20 
0.246
 11 
2.288
 21 
0.24
 0 
LINE
 8 
0
 62 
 7 
 10 
2.288
 20 
0.24
 11 
2.314
 21 
0.24
 0 
LINE
 8 
0
 62 
 7 
 10 
2.314
 20 
0.24
 11 
2.32
 21 
0.246
 0 
LINE
 8 
0
 62 
 7 
 10 
2.32
 20 
0.246
 11 
2.32
 21 
0.265
 0 
LINE
 8 
0
 62 
 7 
 10 
2.32
 20 
0.265
 11 
2.307
 21 
0.265
 0 
LINE
 8 
0
 62 
 7 
 10 
2.307
 20 
0.265
 11 
2.307
 21 
0.259
 0 
LINE
 8 
0
 62 
 7 
 10 
2.32
 20 
0.278
 11 
2.282
 21 
0.278
 0 
LINE
 8 
0
 62 
 7 
 10 
2.282
 20 
0.278
 11 
2.307
 21 
0.303
 0 
LINE
 8 
0
 62 
 7 
 10 
2.282
 20 
0.303
 11 
2.32
 21 
0.303
 0 
LINE
 8 
0
 62 
 7 
 10 
2.282
 20 
0.316
 11 
2.282
 21 
0.335
 0 
LINE
 8 
0
 62 
 7 
 10 
2.282
 20 
0.335
 11 
2.288
 21 
0.341
 0 
LINE
 8 
0
 62 
 7 
 10 
2.288
 20 
0.341
 11 
2.314
 21 
0.341
 0 
LINE
 8 
0
 62 
 7 
 10 
2.314
 20 
0.341
 11 
2.32
 21 
0.335
 0 
LINE
 8 
0
 62 
 7 
 10 
2.32
 20 
0.335
 11 
2.32
 21 
0.316
 0 
LINE
 8 
0
 62 
 7 
 10 
2.282
 20 
0.322
 11 
2.32
 21 
0.322
 0 
LINE
 8 
0
 62 
 7 
 10 
2.078
 20 
0.692
 11 
2.085
 21 
0.698
 0 
LINE
 8 
0
 62 
 7 
 10 
2.085
 20 
0.698
 11 
2.085
 21 
0.66
 0 
LINE
 8 
0
 62 
 7 
 10 
2.078
 20 
0.66
 11 
2.091
 21 
0.66
 0 
LINE
 8 
0
 62 
 7 
 10 
2.352
 20 
0.692
 11 
2.358
 21 
0.698
 0 
LINE
 8 
0
 62 
 7 
 10 
2.358
 20 
0.698
 11 
2.371
 21 
0.698
 0 
LINE
 8 
0
 62 
 7 
 10 
2.371
 20 
0.698
 11 
2.377
 21 
0.692
 0 
LINE
 8 
0
 62 
 7 
 10 
2.377
 20 
0.692
 11 
2.377
 21 
0.685
 0 
LINE
 8 
0
 62 
 7 
 10 
2.377
 20 
0.685
 11 
2.371
 21 
0.679
 0 
LINE
 8 
0
 62 
 7 
 10 
2.371
 20 
0.679
 11 
2.358
 21 
0.679
 0 
LINE
 8 
0
 62 
 7 
 10 
2.358
 20 
0.679
 11 
2.352
 21 
0.673
 0 
LINE
 8 
0
 62 
 7 
 10 
2.352
 20 
0.673
 11 
2.352
 21 
0.66
 0 
LINE
 8 
0
 62 
 7 
 10 
2.352
 20 
0.66
 11 
2.377
 21 
0.66
 0 
LINE
 8 
0
 62 
 7 
 10 
2.072
 20 
0.592
 11 
2.078
 21 
0.598
 0 
LINE
 8 
0
 62 
 7 
 10 
2.078
 20 
0.598
 11 
2.091
 21 
0.598
 0 
LINE
 8 
0
 62 
 7 
 10 
2.091
 20 
0.598
 11 
2.097
 21 
0.592
 0 
LINE
 8 
0
 62 
 7 
 10 
2.097
 20 
0.592
 11 
2.097
 21 
0.585
 0 
LINE
 8 
0
 62 
 7 
 10 
2.097
 20 
0.585
 11 
2.091
 21 
0.579
 0 
LINE
 8 
0
 62 
 7 
 10 
2.091
 20 
0.579
 11 
2.085
 21 
0.579
 0 
LINE
 8 
0
 62 
 7 
 10 
2.091
 20 
0.579
 11 
2.097
 21 
0.573
 0 
LINE
 8 
0
 62 
 7 
 10 
2.097
 20 
0.573
 11 
2.097
 21 
0.566
 0 
LINE
 8 
0
 62 
 7 
 10 
2.097
 20 
0.566
 11 
2.091
 21 
0.56
 0 
LINE
 8 
0
 62 
 7 
 10 
2.091
 20 
0.56
 11 
2.078
 21 
0.56
 0 
LINE
 8 
0
 62 
 7 
 10 
2.078
 20 
0.56
 11 
2.072
 21 
0.566
 0 
LINE
 8 
0
 62 
 7 
 10 
2.377
 20 
0.573
 11 
2.352
 21 
0.573
 0 
LINE
 8 
0
 62 
 7 
 10 
2.352
 20 
0.573
 11 
2.352
 21 
0.579
 0 
LINE
 8 
0
 62 
 7 
 10 
2.352
 20 
0.579
 11 
2.371
 21 
0.598
 0 
LINE
 8 
0
 62 
 7 
 10 
2.371
 20 
0.598
 11 
2.371
 21 
0.56
 0 
LINE
 8 
0
 62 
 7 
 10 
2.097
 20 
0.498
 11 
2.072
 21 
0.498
 0 
LINE
 8 
0
 62 
 7 
 10 
2.072
 20 
0.498
 11 
2.072
 21 
0.485
 0 
LINE
 8 
0
 62 
 7 
 10 
2.072
 20 
0.485
 11 
2.091
 21 
0.485
 0 
LINE
 8 
0
 62 
 7 
 10 
2.091
 20 
0.485
 11 
2.097
 21 
0.479
 0 
LINE
 8 
0
 62 
 7 
 10 
2.097
 20 
0.479
 11 
2.097
 21 
0.466
 0 
LINE
 8 
0
 62 
 7 
 10 
2.097
 20 
0.466
 11 
2.091
 21 
0.46
 0 
LINE
 8 
0
 62 
 7 
 10 
2.091
 20 
0.46
 11 
2.078
 21 
0.46
 0 
LINE
 8 
0
 62 
 7 
 10 
2.078
 20 
0.46
 11 
2.072
 21 
0.466
 0 
LINE
 8 
0
 62 
 7 
 10 
2.371
 20 
0.498
 11 
2.365
 21 
0.498
 0 
LINE
 8 
0
 62 
 7 
 10 
2.365
 20 
0.498
 11 
2.352
 21 
0.485
 0 
LINE
 8 
0
 62 
 7 
 10 
2.352
 20 
0.485
 11 
2.352
 21 
0.466
 0 
LINE
 8 
0
 62 
 7 
 10 
2.352
 20 
0.466
 11 
2.358
 21 
0.46
 0 
LINE
 8 
0
 62 
 7 
 10 
2.358
 20 
0.46
 11 
2.371
 21 
0.46
 0 
LINE
 8 
0
 62 
 7 
 10 
2.371
 20 
0.46
 11 
2.377
 21 
0.466
 0 
LINE
 8 
0
 62 
 7 
 10 
2.377
 20 
0.466
 11 
2.377
 21 
0.473
 0 
LINE
 8 
0
 62 
 7 
 10 
2.377
 20 
0.473
 11 
2.371
 21 
0.479
 0 
LINE
 8 
0
 62 
 7 
 10 
2.371
 20 
0.479
 11 
2.358
 21 
0.479
 0 
LINE
 8 
0
 62 
 7 
 10 
2.358
 20 
0.479
 11 
2.352
 21 
0.473
 0 
LINE
 8 
0
 62 
 7 
 10 
0.43
 20 
0.918
 11 
0.405
 21 
0.918
 0 
LINE
 8 
0
 62 
 7 
 10 
0.405
 20 
0.918
 11 
0.392
 21 
0.931
 0 
LINE
 8 
0
 62 
 7 
 10 
0.392
 20 
0.931
 11 
0.405
 21 
0.943
 0 
LINE
 8 
0
 62 
 7 
 10 
0.405
 20 
0.943
 11 
0.43
 21 
0.943
 0 
LINE
 8 
0
 62 
 7 
 10 
0.417
 20 
0.918
 11 
0.417
 21 
0.943
 0 
LINE
 8 
0
 62 
 7 
 10 
0.43
 20 
0.956
 11 
0.392
 21 
0.956
 0 
LINE
 8 
0
 62 
 7 
 10 
0.392
 20 
0.956
 11 
0.417
 21 
0.981
 0 
LINE
 8 
0
 62 
 7 
 10 
0.392
 20 
0.981
 11 
0.43
 21 
0.981
 0 
LINE
 8 
0
 62 
 7 
 10 
0.43
 20 
0.994
 11 
0.405
 21 
0.994
 0 
LINE
 8 
0
 62 
 7 
 10 
0.405
 20 
0.994
 11 
0.392
 21 
1.007
 0 
LINE
 8 
0
 62 
 7 
 10 
0.392
 20 
1.007
 11 
0.405
 21 
1.019
 0 
LINE
 8 
0
 62 
 7 
 10 
0.405
 20 
1.019
 11 
0.43
 21 
1.019
 0 
LINE
 8 
0
 62 
 7 
 10 
0.417
 20 
0.994
 11 
0.417
 21 
1.019
 0 
LINE
 8 
0
 62 
 7 
 10 
0.392
 20 
1.032
 11 
0.43
 21 
1.032
 0 
LINE
 8 
0
 62 
 7 
 10 
0.43
 20 
1.032
 11 
0.43
 21 
1.057
 0 
LINE
 8 
0
 62 
 7 
 10 
0.398
 20 
1.095
 11 
0.392
 21 
1.089
 0 
LINE
 8 
0
 62 
 7 
 10 
0.392
 20 
1.089
 11 
0.392
 21 
1.076
 0 
LINE
 8 
0
 62 
 7 
 10 
0.392
 20 
1.076
 11 
0.398
 21 
1.07
 0 
LINE
 8 
0
 62 
 7 
 10 
0.398
 20 
1.07
 11 
0.424
 21 
1.07
 0 
LINE
 8 
0
 62 
 7 
 10 
0.424
 20 
1.07
 11 
0.43
 21 
1.076
 0 
LINE
 8 
0
 62 
 7 
 10 
0.43
 20 
1.076
 11 
0.43
 21 
1.089
 0 
LINE
 8 
0
 62 
 7 
 10 
0.43
 20 
1.089
 11 
0.424
 21 
1.095
 0 
LINE
 8 
0
 62 
 7 
 10 
0.424
 20 
1.095
 11 
0.398
 21 
1.095
 0 
LINE
 8 
0
 62 
 7 
 10 
0.398
 20 
1.133
 11 
0.392
 21 
1.127
 0 
LINE
 8 
0
 62 
 7 
 10 
0.392
 20 
1.127
 11 
0.392
 21 
1.114
 0 
LINE
 8 
0
 62 
 7 
 10 
0.392
 20 
1.114
 11 
0.398
 21 
1.108
 0 
LINE
 8 
0
 62 
 7 
 10 
0.398
 20 
1.108
 11 
0.424
 21 
1.108
 0 
LINE
 8 
0
 62 
 7 
 10 
0.424
 20 
1.108
 11 
0.43
 21 
1.114
 0 
LINE
 8 
0
 62 
 7 
 10 
0.43
 20 
1.114
 11 
0.43
 21 
1.133
 0 
LINE
 8 
0
 62 
 7 
 10 
0.43
 20 
1.133
 11 
0.417
 21 
1.133
 0 
LINE
 8 
0
 62 
 7 
 10 
0.417
 20 
1.133
 11 
0.417
 21 
1.127
 0 
LINE
 8 
0
 62 
 7 
 10 
0.392
 20 
0.028
 11 
0.392
 21 
0.047
 0 
LINE
 8 
0
 62 
 7 
 10 
0.392
 20 
0.047
 11 
0.398
 21 
0.053
 0 
LINE
 8 
0
 62 
 7 
 10 
0.398
 20 
0.053
 11 
0.424
 21 
0.053
 0 
LINE
 8 
0
 62 
 7 
 10 
0.424
 20 
0.053
 11 
0.43
 21 
0.047
 0 
LINE
 8 
0
 62 
 7 
 10 
0.43
 20 
0.047
 11 
0.43
 21 
0.028
 0 
LINE
 8 
0
 62 
 7 
 10 
0.392
 20 
0.034
 11 
0.43
 21 
0.034
 0 
LINE
 8 
0
 62 
 7 
 10 
0.392
 20 
0.072
 11 
0.392
 21 
0.085
 0 
LINE
 8 
0
 62 
 7 
 10 
0.43
 20 
0.072
 11 
0.43
 21 
0.085
 0 
LINE
 8 
0
 62 
 7 
 10 
0.392
 20 
0.079
 11 
0.43
 21 
0.079
 0 
LINE
 8 
0
 62 
 7 
 10 
0.398
 20 
0.129
 11 
0.392
 21 
0.123
 0 
LINE
 8 
0
 62 
 7 
 10 
0.392
 20 
0.123
 11 
0.392
 21 
0.11
 0 
LINE
 8 
0
 62 
 7 
 10 
0.392
 20 
0.11
 11 
0.398
 21 
0.104
 0 
LINE
 8 
0
 62 
 7 
 10 
0.398
 20 
0.104
 11 
0.424
 21 
0.104
 0 
LINE
 8 
0
 62 
 7 
 10 
0.424
 20 
0.104
 11 
0.43
 21 
0.11
 0 
LINE
 8 
0
 62 
 7 
 10 
0.43
 20 
0.11
 11 
0.43
 21 
0.129
 0 
LINE
 8 
0
 62 
 7 
 10 
0.43
 20 
0.129
 11 
0.417
 21 
0.129
 0 
LINE
 8 
0
 62 
 7 
 10 
0.417
 20 
0.129
 11 
0.417
 21 
0.123
 0 
LINE
 8 
0
 62 
 7 
 10 
0.392
 20 
0.148
 11 
0.392
 21 
0.161
 0 
LINE
 8 
0
 62 
 7 
 10 
0.43
 20 
0.148
 11 
0.43
 21 
0.161
 0 
LINE
 8 
0
 62 
 7 
 10 
0.392
 20 
0.155
 11 
0.43
 21 
0.155
 0 
LINE
 8 
0
 62 
 7 
 10 
0.392
 20 
0.18
 11 
0.392
 21 
0.205
 0 
LINE
 8 
0
 62 
 7 
 10 
0.392
 20 
0.193
 11 
0.43
 21 
0.193
 0 
LINE
 8 
0
 62 
 7 
 10 
0.43
 20 
0.218
 11 
0.405
 21 
0.218
 0 
LINE
 8 
0
 62 
 7 
 10 
0.405
 20 
0.218
 11 
0.392
 21 
0.231
 0 
LINE
 8 
0
 62 
 7 
 10 
0.392
 20 
0.231
 11 
0.405
 21 
0.243
 0 
LINE
 8 
0
 62 
 7 
 10 
0.405
 20 
0.243
 11 
0.43
 21 
0.243
 0 
LINE
 8 
0
 62 
 7 
 10 
0.417
 20 
0.218
 11 
0.417
 21 
0.243
 0 
LINE
 8 
0
 62 
 7 
 10 
0.392
 20 
0.256
 11 
0.43
 21 
0.256
 0 
LINE
 8 
0
 62 
 7 
 10 
0.43
 20 
0.256
 11 
0.43
 21 
0.281
 0 
LINE
 8 
0
 62 
 7 
 10 
1.392
 20 
0.82
 11 
1.411
 21 
0.82
 0 
LINE
 8 
0
 62 
 7 
 10 
1.411
 20 
0.82
 11 
1.424
 21 
0.833
 0 
LINE
 8 
0
 62 
 7 
 10 
1.424
 20 
0.833
 11 
1.411
 21 
0.845
 0 
LINE
 8 
0
 62 
 7 
 10 
1.411
 20 
0.845
 11 
1.392
 21 
0.845
 0 
LINE
 8 
0
 62 
 7 
 10 
1.424
 20 
0.833
 11 
1.43
 21 
0.833
 0 
LINE
 8 
0
 62 
 7 
 10 
1.392
 20 
0.858
 11 
1.424
 21 
0.858
 0 
LINE
 8 
0
 62 
 7 
 10 
1.424
 20 
0.858
 11 
1.43
 21 
0.864
 0 
LINE
 8 
0
 62 
 7 
 10 
1.43
 20 
0.864
 11 
1.43
 21 
0.877
 0 
LINE
 8 
0
 62 
 7 
 10 
1.43
 20 
0.877
 11 
1.424
 21 
0.883
 0 
LINE
 8 
0
 62 
 7 
 10 
1.424
 20 
0.883
 11 
1.392
 21 
0.883
 0 
LINE
 8 
0
 62 
 7 
 10 
1.398
 20 
0.921
 11 
1.392
 21 
0.915
 0 
LINE
 8 
0
 62 
 7 
 10 
1.392
 20 
0.915
 11 
1.392
 21 
0.902
 0 
LINE
 8 
0
 62 
 7 
 10 
1.392
 20 
0.902
 11 
1.398
 21 
0.896
 0 
LINE
 8 
0
 62 
 7 
 10 
1.398
 20 
0.896
 11 
1.405
 21 
0.896
 0 
LINE
 8 
0
 62 
 7 
 10 
1.405
 20 
0.896
 11 
1.411
 21 
0.902
 0 
LINE
 8 
0
 62 
 7 
 10 
1.411
 20 
0.902
 11 
1.411
 21 
0.915
 0 
LINE
 8 
0
 62 
 7 
 10 
1.411
 20 
0.915
 11 
1.417
 21 
0.921
 0 
LINE
 8 
0
 62 
 7 
 10 
1.417
 20 
0.921
 11 
1.424
 21 
0.921
 0 
LINE
 8 
0
 62 
 7 
 10 
1.424
 20 
0.921
 11 
1.43
 21 
0.915
 0 
LINE
 8 
0
 62 
 7 
 10 
1.43
 20 
0.915
 11 
1.43
 21 
0.902
 0 
LINE
 8 
0
 62 
 7 
 10 
1.43
 20 
0.902
 11 
1.424
 21 
0.896
 0 
LINE
 8 
0
 62 
 7 
 10 
1.392
 20 
0.934
 11 
1.392
 21 
0.953
 0 
LINE
 8 
0
 62 
 7 
 10 
1.392
 20 
0.953
 11 
1.398
 21 
0.959
 0 
LINE
 8 
0
 62 
 7 
 10 
1.398
 20 
0.959
 11 
1.405
 21 
0.959
 0 
LINE
 8 
0
 62 
 7 
 10 
1.405
 20 
0.959
 11 
1.411
 21 
0.953
 0 
LINE
 8 
0
 62 
 7 
 10 
1.411
 20 
0.953
 11 
1.417
 21 
0.959
 0 
LINE
 8 
0
 62 
 7 
 10 
1.417
 20 
0.959
 11 
1.424
 21 
0.959
 0 
LINE
 8 
0
 62 
 7 
 10 
1.424
 20 
0.959
 11 
1.43
 21 
0.953
 0 
LINE
 8 
0
 62 
 7 
 10 
1.43
 20 
0.953
 11 
1.43
 21 
0.934
 0 
LINE
 8 
0
 62 
 7 
 10 
1.392
 20 
0.94
 11 
1.43
 21 
0.94
 0 
LINE
 8 
0
 62 
 7 
 10 
1.411
 20 
0.94
 11 
1.411
 21 
0.953
 0 
LINE
 8 
0
 62 
 7 
 10 
2.178
 20 
0.414
 11 
2.191
 21 
0.414
 0 
LINE
 8 
0
 62 
 7 
 10 
2.178
 20 
0.376
 11 
2.191
 21 
0.376
 0 
LINE
 8 
0
 62 
 7 
 10 
2.185
 20 
0.414
 11 
2.185
 21 
0.376
 0 
LINE
 8 
0
 62 
 7 
 10 
2.235
 20 
0.408
 11 
2.229
 21 
0.414
 0 
LINE
 8 
0
 62 
 7 
 10 
2.229
 20 
0.414
 11 
2.216
 21 
0.414
 0 
LINE
 8 
0
 62 
 7 
 10 
2.216
 20 
0.414
 11 
2.21
 21 
0.408
 0 
LINE
 8 
0
 62 
 7 
 10 
2.21
 20 
0.408
 11 
2.21
 21 
0.401
 0 
LINE
 8 
0
 62 
 7 
 10 
2.21
 20 
0.401
 11 
2.216
 21 
0.395
 0 
LINE
 8 
0
 62 
 7 
 10 
2.216
 20 
0.395
 11 
2.229
 21 
0.395
 0 
LINE
 8 
0
 62 
 7 
 10 
2.229
 20 
0.395
 11 
2.235
 21 
0.389
 0 
LINE
 8 
0
 62 
 7 
 10 
2.235
 20 
0.389
 11 
2.235
 21 
0.382
 0 
LINE
 8 
0
 62 
 7 
 10 
2.235
 20 
0.382
 11 
2.229
 21 
0.376
 0 
LINE
 8 
0
 62 
 7 
 10 
2.229
 20 
0.376
 11 
2.216
 21 
0.376
 0 
LINE
 8 
0
 62 
 7 
 10 
2.216
 20 
0.376
 11 
2.21
 21 
0.382
 0 
LINE
 8 
0
 62 
 7 
 10 
2.248
 20 
0.376
 11 
2.248
 21 
0.414
 0 
LINE
 8 
0
 62 
 7 
 10 
2.248
 20 
0.414
 11 
2.267
 21 
0.414
 0 
LINE
 8 
0
 62 
 7 
 10 
2.267
 20 
0.414
 11 
2.273
 21 
0.408
 0 
LINE
 8 
0
 62 
 7 
 10 
2.273
 20 
0.408
 11 
2.273
 21 
0.401
 0 
LINE
 8 
0
 62 
 7 
 10 
2.273
 20 
0.401
 11 
2.267
 21 
0.395
 0 
LINE
 8 
0
 62 
 7 
 10 
2.267
 20 
0.395
 11 
2.248
 21 
0.395
 0 
LINE
 8 
0
 62 
 7 
 10 
2.982
 20 
0.74
 11 
2.982
 21 
0.778
 0 
LINE
 8 
0
 62 
 7 
 10 
2.982
 20 
0.778
 11 
3.001
 21 
0.778
 0 
LINE
 8 
0
 62 
 7 
 10 
3.001
 20 
0.778
 11 
3.007
 21 
0.772
 0 
LINE
 8 
0
 62 
 7 
 10 
3.007
 20 
0.772
 11 
3.007
 21 
0.765
 0 
LINE
 8 
0
 62 
 7 
 10 
3.007
 20 
0.765
 11 
3.001
 21 
0.759
 0 
LINE
 8 
0
 62 
 7 
 10 
3.001
 20 
0.759
 11 
2.982
 21 
0.759
 0 
LINE
 8 
0
 62 
 7 
 10 
3.045
 20 
0.772
 11 
3.039
 21 
0.778
 0 
LINE
 8 
0
 62 
 7 
 10 
3.039
 20 
0.778
 11 
3.026
 21 
0.778
 0 
LINE
 8 
0
 62 
 7 
 10 
3.026
 20 
0.778
 11 
3.02
 21 
0.772
 0 
LINE
 8 
0
 62 
 7 
 10 
3.02
 20 
0.772
 11 
3.02
 21 
0.746
 0 
LINE
 8 
0
 62 
 7 
 10 
3.02
 20 
0.746
 11 
3.026
 21 
0.74
 0 
LINE
 8 
0
 62 
 7 
 10 
3.026
 20 
0.74
 11 
3.039
 21 
0.74
 0 
LINE
 8 
0
 62 
 7 
 10 
3.039
 20 
0.74
 11 
3.045
 21 
0.746
 0 
LINE
 8 
0
 62 
 7 
 10 
3.045
 20 
0.746
 11 
3.045
 21 
0.772
 0 
LINE
 8 
0
 62 
 7 
 10 
3.058
 20 
0.778
 11 
3.058
 21 
0.74
 0 
LINE
 8 
0
 62 
 7 
 10 
3.058
 20 
0.74
 11 
3.071
 21 
0.753
 0 
LINE
 8 
0
 62 
 7 
 10 
3.071
 20 
0.753
 11 
3.083
 21 
0.74
 0 
LINE
 8 
0
 62 
 7 
 10 
3.083
 20 
0.74
 11 
3.083
 21 
0.778
 0 
LINE
 8 
0
 62 
 7 
 10 
3.071
 20 
0.753
 11 
3.071
 21 
0.759
 0 
LINE
 8 
0
 62 
 7 
 10 
3.121
 20 
0.778
 11 
3.096
 21 
0.778
 0 
LINE
 8 
0
 62 
 7 
 10 
3.096
 20 
0.778
 11 
3.096
 21 
0.74
 0 
LINE
 8 
0
 62 
 7 
 10 
3.096
 20 
0.74
 11 
3.121
 21 
0.74
 0 
LINE
 8 
0
 62 
 7 
 10 
3.096
 20 
0.759
 11 
3.115
 21 
0.759
 0 
LINE
 8 
0
 62 
 7 
 10 
3.134
 20 
0.74
 11 
3.134
 21 
0.778
 0 
LINE
 8 
0
 62 
 7 
 10 
3.134
 20 
0.778
 11 
3.153
 21 
0.778
 0 
LINE
 8 
0
 62 
 7 
 10 
3.153
 20 
0.778
 11 
3.159
 21 
0.772
 0 
LINE
 8 
0
 62 
 7 
 10 
3.159
 20 
0.772
 11 
3.159
 21 
0.765
 0 
LINE
 8 
0
 62 
 7 
 10 
3.159
 20 
0.765
 11 
3.153
 21 
0.759
 0 
LINE
 8 
0
 62 
 7 
 10 
3.153
 20 
0.759
 11 
3.134
 21 
0.759
 0 
LINE
 8 
0
 62 
 7 
 10 
3.14
 20 
0.759
 11 
3.159
 21 
0.74
 0 
LINE
 8 
0
 62 
 7 
 10 
0.073
 20 
0.931
 11 
0.048
 21 
0.931
 0 
LINE
 8 
0
 62 
 7 
 10 
0.048
 20 
0.931
 11 
0.048
 21 
0.893
 0 
LINE
 8 
0
 62 
 7 
 10 
0.048
 20 
0.912
 11 
0.067
 21 
0.912
 0 
LINE
 8 
0
 62 
 7 
 10 
0.086
 20 
0.931
 11 
0.111
 21 
0.931
 0 
LINE
 8 
0
 62 
 7 
 10 
0.099
 20 
0.931
 11 
0.099
 21 
0.893
 0 
LINE
 8 
0
 62 
 7 
 10 
0.124
 20 
0.931
 11 
0.143
 21 
0.931
 0 
LINE
 8 
0
 62 
 7 
 10 
0.143
 20 
0.931
 11 
0.149
 21 
0.925
 0 
LINE
 8 
0
 62 
 7 
 10 
0.149
 20 
0.925
 11 
0.149
 21 
0.899
 0 
LINE
 8 
0
 62 
 7 
 10 
0.149
 20 
0.899
 11 
0.143
 21 
0.893
 0 
LINE
 8 
0
 62 
 7 
 10 
0.143
 20 
0.893
 11 
0.124
 21 
0.893
 0 
LINE
 8 
0
 62 
 7 
 10 
0.13
 20 
0.931
 11 
0.13
 21 
0.893
 0 
LINE
 8 
0
 62 
 7 
 10 
0.168
 20 
0.931
 11 
0.181
 21 
0.931
 0 
LINE
 8 
0
 62 
 7 
 10 
0.168
 20 
0.893
 11 
0.181
 21 
0.893
 0 
LINE
 8 
0
 62 
 7 
 10 
0.175
 20 
0.931
 11 
0.175
 21 
0.893
 0 
LINE
 8 
0
 62 
 7 
 10 
3.014
 20 
0.334
 11 
3.021
 21 
0.34
 0 
LINE
 8 
0
 62 
 7 
 10 
3.021
 20 
0.34
 11 
3.021
 21 
0.302
 0 
LINE
 8 
0
 62 
 7 
 10 
3.014
 20 
0.302
 11 
3.027
 21 
0.302
 0 
LINE
 8 
0
 62 
 7 
 10 
3.084
 20 
0.321
 11 
3.109
 21 
0.321
 0 
LINE
 8 
0
 62 
 7 
 10 
3.16
 20 
0.302
 11 
3.16
 21 
0.34
 0 
LINE
 8 
0
 62 
 7 
 10 
3.16
 20 
0.34
 11 
3.173
 21 
0.327
 0 
LINE
 8 
0
 62 
 7 
 10 
3.173
 20 
0.327
 11 
3.173
 21 
0.321
 0 
LINE
 8 
0
 62 
 7 
 10 
3.173
 20 
0.327
 11 
3.185
 21 
0.34
 0 
LINE
 8 
0
 62 
 7 
 10 
3.185
 20 
0.34
 11 
3.185
 21 
0.302
 0 
LINE
 8 
0
 62 
 7 
 10 
3.204
 20 
0.34
 11 
3.217
 21 
0.34
 0 
LINE
 8 
0
 62 
 7 
 10 
3.204
 20 
0.302
 11 
3.217
 21 
0.302
 0 
LINE
 8 
0
 62 
 7 
 10 
3.211
 20 
0.34
 11 
3.211
 21 
0.302
 0 
LINE
 8 
0
 62 
 7 
 10 
3.261
 20 
0.334
 11 
3.255
 21 
0.34
 0 
LINE
 8 
0
 62 
 7 
 10 
3.255
 20 
0.34
 11 
3.242
 21 
0.34
 0 
LINE
 8 
0
 62 
 7 
 10 
3.242
 20 
0.34
 11 
3.236
 21 
0.334
 0 
LINE
 8 
0
 62 
 7 
 10 
3.236
 20 
0.334
 11 
3.236
 21 
0.327
 0 
LINE
 8 
0
 62 
 7 
 10 
3.236
 20 
0.327
 11 
3.242
 21 
0.321
 0 
LINE
 8 
0
 62 
 7 
 10 
3.242
 20 
0.321
 11 
3.255
 21 
0.321
 0 
LINE
 8 
0
 62 
 7 
 10 
3.255
 20 
0.321
 11 
3.261
 21 
0.315
 0 
LINE
 8 
0
 62 
 7 
 10 
3.261
 20 
0.315
 11 
3.261
 21 
0.308
 0 
LINE
 8 
0
 62 
 7 
 10 
3.261
 20 
0.308
 11 
3.255
 21 
0.302
 0 
LINE
 8 
0
 62 
 7 
 10 
3.255
 20 
0.302
 11 
3.242
 21 
0.302
 0 
LINE
 8 
0
 62 
 7 
 10 
3.242
 20 
0.302
 11 
3.236
 21 
0.308
 0 
LINE
 8 
0
 62 
 7 
 10 
3.299
 20 
0.334
 11 
3.293
 21 
0.34
 0 
LINE
 8 
0
 62 
 7 
 10 
3.293
 20 
0.34
 11 
3.28
 21 
0.34
 0 
LINE
 8 
0
 62 
 7 
 10 
3.28
 20 
0.34
 11 
3.274
 21 
0.334
 0 
LINE
 8 
0
 62 
 7 
 10 
3.274
 20 
0.334
 11 
3.274
 21 
0.308
 0 
LINE
 8 
0
 62 
 7 
 10 
3.274
 20 
0.308
 11 
3.28
 21 
0.302
 0 
LINE
 8 
0
 62 
 7 
 10 
3.28
 20 
0.302
 11 
3.293
 21 
0.302
 0 
LINE
 8 
0
 62 
 7 
 10 
3.293
 20 
0.302
 11 
3.299
 21 
0.308
 0 
LINE
 8 
0
 62 
 7 
 10 
3.299
 20 
0.308
 11 
3.299
 21 
0.334
 0 
LINE
 8 
0
 62 
 7 
 10 
3.008
 20 
0.282
 11 
3.014
 21 
0.288
 0 
LINE
 8 
0
 62 
 7 
 10 
3.014
 20 
0.288
 11 
3.027
 21 
0.288
 0 
LINE
 8 
0
 62 
 7 
 10 
3.027
 20 
0.288
 11 
3.033
 21 
0.282
 0 
LINE
 8 
0
 62 
 7 
 10 
3.033
 20 
0.282
 11 
3.033
 21 
0.275
 0 
LINE
 8 
0
 62 
 7 
 10 
3.033
 20 
0.275
 11 
3.027
 21 
0.269
 0 
LINE
 8 
0
 62 
 7 
 10 
3.027
 20 
0.269
 11 
3.014
 21 
0.269
 0 
LINE
 8 
0
 62 
 7 
 10 
3.014
 20 
0.269
 11 
3.008
 21 
0.263
 0 
LINE
 8 
0
 62 
 7 
 10 
3.008
 20 
0.263
 11 
3.008
 21 
0.25
 0 
LINE
 8 
0
 62 
 7 
 10 
3.008
 20 
0.25
 11 
3.033
 21 
0.25
 0 
LINE
 8 
0
 62 
 7 
 10 
3.084
 20 
0.269
 11 
3.109
 21 
0.269
 0 
LINE
 8 
0
 62 
 7 
 10 
3.16
 20 
0.288
 11 
3.16
 21 
0.269
 0 
LINE
 8 
0
 62 
 7 
 10 
3.16
 20 
0.269
 11 
3.173
 21 
0.256
 0 
LINE
 8 
0
 62 
 7 
 10 
3.173
 20 
0.256
 11 
3.185
 21 
0.269
 0 
LINE
 8 
0
 62 
 7 
 10 
3.185
 20 
0.269
 11 
3.185
 21 
0.288
 0 
LINE
 8 
0
 62 
 7 
 10 
3.173
 20 
0.256
 11 
3.173
 21 
0.25
 0 
LINE
 8 
0
 62 
 7 
 10 
3.223
 20 
0.282
 11 
3.217
 21 
0.288
 0 
LINE
 8 
0
 62 
 7 
 10 
3.217
 20 
0.288
 11 
3.204
 21 
0.288
 0 
LINE
 8 
0
 62 
 7 
 10 
3.204
 20 
0.288
 11 
3.198
 21 
0.282
 0 
LINE
 8 
0
 62 
 7 
 10 
3.198
 20 
0.282
 11 
3.198
 21 
0.256
 0 
LINE
 8 
0
 62 
 7 
 10 
3.198
 20 
0.256
 11 
3.204
 21 
0.25
 0 
LINE
 8 
0
 62 
 7 
 10 
3.204
 20 
0.25
 11 
3.217
 21 
0.25
 0 
LINE
 8 
0
 62 
 7 
 10 
3.217
 20 
0.25
 11 
3.223
 21 
0.256
 0 
LINE
 8 
0
 62 
 7 
 10 
3.261
 20 
0.282
 11 
3.255
 21 
0.288
 0 
LINE
 8 
0
 62 
 7 
 10 
3.255
 20 
0.288
 11 
3.242
 21 
0.288
 0 
LINE
 8 
0
 62 
 7 
 10 
3.242
 20 
0.288
 11 
3.236
 21 
0.282
 0 
LINE
 8 
0
 62 
 7 
 10 
3.236
 20 
0.282
 11 
3.236
 21 
0.256
 0 
LINE
 8 
0
 62 
 7 
 10 
3.236
 20 
0.256
 11 
3.242
 21 
0.25
 0 
LINE
 8 
0
 62 
 7 
 10 
3.242
 20 
0.25
 11 
3.255
 21 
0.25
 0 
LINE
 8 
0
 62 
 7 
 10 
3.255
 20 
0.25
 11 
3.261
 21 
0.256
 0 
LINE
 8 
0
 62 
 7 
 10 
3.008
 20 
0.23
 11 
3.014
 21 
0.236
 0 
LINE
 8 
0
 62 
 7 
 10 
3.014
 20 
0.236
 11 
3.027
 21 
0.236
 0 
LINE
 8 
0
 62 
 7 
 10 
3.027
 20 
0.236
 11 
3.033
 21 
0.23
 0 
LINE
 8 
0
 62 
 7 
 10 
3.033
 20 
0.23
 11 
3.033
 21 
0.223
 0 
LINE
 8 
0
 62 
 7 
 10 
3.033
 20 
0.223
 11 
3.027
 21 
0.217
 0 
LINE
 8 
0
 62 
 7 
 10 
3.027
 20 
0.217
 11 
3.021
 21 
0.217
 0 
LINE
 8 
0
 62 
 7 
 10 
3.027
 20 
0.217
 11 
3.033
 21 
0.211
 0 
LINE
 8 
0
 62 
 7 
 10 
3.033
 20 
0.211
 11 
3.033
 21 
0.204
 0 
LINE
 8 
0
 62 
 7 
 10 
3.033
 20 
0.204
 11 
3.027
 21 
0.198
 0 
LINE
 8 
0
 62 
 7 
 10 
3.027
 20 
0.198
 11 
3.014
 21 
0.198
 0 
LINE
 8 
0
 62 
 7 
 10 
3.014
 20 
0.198
 11 
3.008
 21 
0.204
 0 
LINE
 8 
0
 62 
 7 
 10 
3.084
 20 
0.217
 11 
3.109
 21 
0.217
 0 
LINE
 8 
0
 62 
 7 
 10 
3.185
 20 
0.23
 11 
3.179
 21 
0.236
 0 
LINE
 8 
0
 62 
 7 
 10 
3.179
 20 
0.236
 11 
3.166
 21 
0.236
 0 
LINE
 8 
0
 62 
 7 
 10 
3.166
 20 
0.236
 11 
3.16
 21 
0.23
 0 
LINE
 8 
0
 62 
 7 
 10 
3.16
 20 
0.23
 11 
3.16
 21 
0.223
 0 
LINE
 8 
0
 62 
 7 
 10 
3.16
 20 
0.223
 11 
3.166
 21 
0.217
 0 
LINE
 8 
0
 62 
 7 
 10 
3.166
 20 
0.217
 11 
3.179
 21 
0.217
 0 
LINE
 8 
0
 62 
 7 
 10 
3.179
 20 
0.217
 11 
3.185
 21 
0.211
 0 
LINE
 8 
0
 62 
 7 
 10 
3.185
 20 
0.211
 11 
3.185
 21 
0.204
 0 
LINE
 8 
0
 62 
 7 
 10 
3.185
 20 
0.204
 11 
3.179
 21 
0.198
 0 
LINE
 8 
0
 62 
 7 
 10 
3.179
 20 
0.198
 11 
3.166
 21 
0.198
 0 
LINE
 8 
0
 62 
 7 
 10 
3.166
 20 
0.198
 11 
3.16
 21 
0.204
 0 
LINE
 8 
0
 62 
 7 
 10 
3.223
 20 
0.23
 11 
3.217
 21 
0.236
 0 
LINE
 8 
0
 62 
 7 
 10 
3.217
 20 
0.236
 11 
3.204
 21 
0.236
 0 
LINE
 8 
0
 62 
 7 
 10 
3.204
 20 
0.236
 11 
3.198
 21 
0.23
 0 
LINE
 8 
0
 62 
 7 
 10 
3.198
 20 
0.23
 11 
3.198
 21 
0.204
 0 
LINE
 8 
0
 62 
 7 
 10 
3.198
 20 
0.204
 11 
3.204
 21 
0.198
 0 
LINE
 8 
0
 62 
 7 
 10 
3.204
 20 
0.198
 11 
3.217
 21 
0.198
 0 
LINE
 8 
0
 62 
 7 
 10 
3.217
 20 
0.198
 11 
3.223
 21 
0.204
 0 
LINE
 8 
0
 62 
 7 
 10 
3.236
 20 
0.236
 11 
3.236
 21 
0.198
 0 
LINE
 8 
0
 62 
 7 
 10 
3.261
 20 
0.236
 11 
3.242
 21 
0.217
 0 
LINE
 8 
0
 62 
 7 
 10 
3.236
 20 
0.217
 11 
3.242
 21 
0.217
 0 
LINE
 8 
0
 62 
 7 
 10 
3.242
 20 
0.217
 11 
3.261
 21 
0.198
 0 
LINE
 8 
0
 62 
 7 
 10 
3.033
 20 
0.159
 11 
3.008
 21 
0.159
 0 
LINE
 8 
0
 62 
 7 
 10 
3.008
 20 
0.159
 11 
3.008
 21 
0.165
 0 
LINE
 8 
0
 62 
 7 
 10 
3.008
 20 
0.165
 11 
3.027
 21 
0.184
 0 
LINE
 8 
0
 62 
 7 
 10 
3.027
 20 
0.184
 11 
3.027
 21 
0.146
 0 
LINE
 8 
0
 62 
 7 
 10 
3.084
 20 
0.165
 11 
3.109
 21 
0.165
 0 
LINE
 8 
0
 62 
 7 
 10 
3.16
 20 
0.146
 11 
3.16
 21 
0.184
 0 
LINE
 8 
0
 62 
 7 
 10 
3.16
 20 
0.184
 11 
3.173
 21 
0.171
 0 
LINE
 8 
0
 62 
 7 
 10 
3.173
 20 
0.171
 11 
3.173
 21 
0.165
 0 
LINE
 8 
0
 62 
 7 
 10 
3.173
 20 
0.171
 11 
3.185
 21 
0.184
 0 
LINE
 8 
0
 62 
 7 
 10 
3.185
 20 
0.184
 11 
3.185
 21 
0.146
 0 
LINE
 8 
0
 62 
 7 
 10 
3.223
 20 
0.178
 11 
3.217
 21 
0.184
 0 
LINE
 8 
0
 62 
 7 
 10 
3.217
 20 
0.184
 11 
3.204
 21 
0.184
 0 
LINE
 8 
0
 62 
 7 
 10 
3.204
 20 
0.184
 11 
3.198
 21 
0.178
 0 
LINE
 8 
0
 62 
 7 
 10 
3.198
 20 
0.178
 11 
3.198
 21 
0.152
 0 
LINE
 8 
0
 62 
 7 
 10 
3.198
 20 
0.152
 11 
3.204
 21 
0.146
 0 
LINE
 8 
0
 62 
 7 
 10 
3.204
 20 
0.146
 11 
3.217
 21 
0.146
 0 
LINE
 8 
0
 62 
 7 
 10 
3.217
 20 
0.146
 11 
3.223
 21 
0.152
 0 
LINE
 8 
0
 62 
 7 
 10 
3.223
 20 
0.152
 11 
3.223
 21 
0.178
 0 
LINE
 8 
0
 62 
 7 
 10 
3.261
 20 
0.178
 11 
3.255
 21 
0.184
 0 
LINE
 8 
0
 62 
 7 
 10 
3.255
 20 
0.184
 11 
3.242
 21 
0.184
 0 
LINE
 8 
0
 62 
 7 
 10 
3.242
 20 
0.184
 11 
3.236
 21 
0.178
 0 
LINE
 8 
0
 62 
 7 
 10 
3.236
 20 
0.178
 11 
3.236
 21 
0.171
 0 
LINE
 8 
0
 62 
 7 
 10 
3.236
 20 
0.171
 11 
3.242
 21 
0.165
 0 
LINE
 8 
0
 62 
 7 
 10 
3.242
 20 
0.165
 11 
3.255
 21 
0.165
 0 
LINE
 8 
0
 62 
 7 
 10 
3.255
 20 
0.165
 11 
3.261
 21 
0.159
 0 
LINE
 8 
0
 62 
 7 
 10 
3.261
 20 
0.159
 11 
3.261
 21 
0.152
 0 
LINE
 8 
0
 62 
 7 
 10 
3.261
 20 
0.152
 11 
3.255
 21 
0.146
 0 
LINE
 8 
0
 62 
 7 
 10 
3.255
 20 
0.146
 11 
3.242
 21 
0.146
 0 
LINE
 8 
0
 62 
 7 
 10 
3.242
 20 
0.146
 11 
3.236
 21 
0.152
 0 
LINE
 8 
0
 62 
 7 
 10 
3.28
 20 
0.184
 11 
3.293
 21 
0.184
 0 
LINE
 8 
0
 62 
 7 
 10 
3.28
 20 
0.146
 11 
3.293
 21 
0.146
 0 
LINE
 8 
0
 62 
 7 
 10 
3.287
 20 
0.184
 11 
3.287
 21 
0.146
 0 
LINE
 8 
0
 62 
 7 
 10 
3.033
 20 
0.132
 11 
3.008
 21 
0.132
 0 
LINE
 8 
0
 62 
 7 
 10 
3.008
 20 
0.132
 11 
3.008
 21 
0.119
 0 
LINE
 8 
0
 62 
 7 
 10 
3.008
 20 
0.119
 11 
3.027
 21 
0.119
 0 
LINE
 8 
0
 62 
 7 
 10 
3.027
 20 
0.119
 11 
3.033
 21 
0.113
 0 
LINE
 8 
0
 62 
 7 
 10 
3.033
 20 
0.113
 11 
3.033
 21 
0.1
 0 
LINE
 8 
0
 62 
 7 
 10 
3.033
 20 
0.1
 11 
3.027
 21 
0.094
 0 
LINE
 8 
0
 62 
 7 
 10 
3.027
 20 
0.094
 11 
3.014
 21 
0.094
 0 
LINE
 8 
0
 62 
 7 
 10 
3.014
 20 
0.094
 11 
3.008
 21 
0.1
 0 
LINE
 8 
0
 62 
 7 
 10 
3.084
 20 
0.113
 11 
3.109
 21 
0.113
 0 
LINE
 8 
0
 62 
 7 
 10 
3.16
 20 
0.094
 11 
3.16
 21 
0.132
 0 
LINE
 8 
0
 62 
 7 
 10 
3.16
 20 
0.132
 11 
3.179
 21 
0.132
 0 
LINE
 8 
0
 62 
 7 
 10 
3.179
 20 
0.132
 11 
3.185
 21 
0.126
 0 
LINE
 8 
0
 62 
 7 
 10 
3.185
 20 
0.126
 11 
3.185
 21 
0.119
 0 
LINE
 8 
0
 62 
 7 
 10 
3.185
 20 
0.119
 11 
3.179
 21 
0.113
 0 
LINE
 8 
0
 62 
 7 
 10 
3.179
 20 
0.113
 11 
3.16
 21 
0.113
 0 
LINE
 8 
0
 62 
 7 
 10 
3.166
 20 
0.113
 11 
3.185
 21 
0.094
 0 
LINE
 8 
0
 62 
 7 
 10 
3.223
 20 
0.132
 11 
3.198
 21 
0.132
 0 
LINE
 8 
0
 62 
 7 
 10 
3.198
 20 
0.132
 11 
3.198
 21 
0.094
 0 
LINE
 8 
0
 62 
 7 
 10 
3.198
 20 
0.094
 11 
3.223
 21 
0.094
 0 
LINE
 8 
0
 62 
 7 
 10 
3.198
 20 
0.113
 11 
3.217
 21 
0.113
 0 
LINE
 8 
0
 62 
 7 
 10 
3.261
 20 
0.126
 11 
3.255
 21 
0.132
 0 
LINE
 8 
0
 62 
 7 
 10 
3.255
 20 
0.132
 11 
3.242
 21 
0.132
 0 
LINE
 8 
0
 62 
 7 
 10 
3.242
 20 
0.132
 11 
3.236
 21 
0.126
 0 
LINE
 8 
0
 62 
 7 
 10 
3.236
 20 
0.126
 11 
3.236
 21 
0.119
 0 
LINE
 8 
0
 62 
 7 
 10 
3.236
 20 
0.119
 11 
3.242
 21 
0.113
 0 
LINE
 8 
0
 62 
 7 
 10 
3.242
 20 
0.113
 11 
3.255
 21 
0.113
 0 
LINE
 8 
0
 62 
 7 
 10 
3.255
 20 
0.113
 11 
3.261
 21 
0.107
 0 
LINE
 8 
0
 62 
 7 
 10 
3.261
 20 
0.107
 11 
3.261
 21 
0.1
 0 
LINE
 8 
0
 62 
 7 
 10 
3.261
 20 
0.1
 11 
3.255
 21 
0.094
 0 
LINE
 8 
0
 62 
 7 
 10 
3.255
 20 
0.094
 11 
3.242
 21 
0.094
 0 
LINE
 8 
0
 62 
 7 
 10 
3.242
 20 
0.094
 11 
3.236
 21 
0.1
 0 
LINE
 8 
0
 62 
 7 
 10 
3.299
 20 
0.132
 11 
3.274
 21 
0.132
 0 
LINE
 8 
0
 62 
 7 
 10 
3.274
 20 
0.132
 11 
3.274
 21 
0.094
 0 
LINE
 8 
0
 62 
 7 
 10 
3.274
 20 
0.094
 11 
3.299
 21 
0.094
 0 
LINE
 8 
0
 62 
 7 
 10 
3.274
 20 
0.113
 11 
3.293
 21 
0.113
 0 
LINE
 8 
0
 62 
 7 
 10 
3.312
 20 
0.132
 11 
3.337
 21 
0.132
 0 
LINE
 8 
0
 62 
 7 
 10 
3.325
 20 
0.132
 11 
3.325
 21 
0.094
 0 
LINE
 8 
0
 62 
 7 
 10 
3.027
 20 
0.078
 11 
3.021
 21 
0.078
 0 
LINE
 8 
0
 62 
 7 
 10 
3.021
 20 
0.078
 11 
3.008
 21 
0.065
 0 
LINE
 8 
0
 62 
 7 
 10 
3.008
 20 
0.065
 11 
3.008
 21 
0.046
 0 
LINE
 8 
0
 62 
 7 
 10 
3.008
 20 
0.046
 11 
3.014
 21 
0.04
 0 
LINE
 8 
0
 62 
 7 
 10 
3.014
 20 
0.04
 11 
3.027
 21 
0.04
 0 
LINE
 8 
0
 62 
 7 
 10 
3.027
 20 
0.04
 11 
3.033
 21 
0.046
 0 
LINE
 8 
0
 62 
 7 
 10 
3.033
 20 
0.046
 11 
3.033
 21 
0.053
 0 
LINE
 8 
0
 62 
 7 
 10 
3.033
 20 
0.053
 11 
3.027
 21 
0.059
 0 
LINE
 8 
0
 62 
 7 
 10 
3.027
 20 
0.059
 11 
3.014
 21 
0.059
 0 
LINE
 8 
0
 62 
 7 
 10 
3.014
 20 
0.059
 11 
3.008
 21 
0.053
 0 
LINE
 8 
0
 62 
 7 
 10 
3.084
 20 
0.059
 11 
3.109
 21 
0.059
 0 
LINE
 8 
0
 62 
 7 
 10 
3.185
 20 
0.072
 11 
3.179
 21 
0.078
 0 
LINE
 8 
0
 62 
 7 
 10 
3.179
 20 
0.078
 11 
3.166
 21 
0.078
 0 
LINE
 8 
0
 62 
 7 
 10 
3.166
 20 
0.078
 11 
3.16
 21 
0.072
 0 
LINE
 8 
0
 62 
 7 
 10 
3.16
 20 
0.072
 11 
3.16
 21 
0.046
 0 
LINE
 8 
0
 62 
 7 
 10 
3.16
 20 
0.046
 11 
3.166
 21 
0.04
 0 
LINE
 8 
0
 62 
 7 
 10 
3.166
 20 
0.04
 11 
3.185
 21 
0.04
 0 
LINE
 8 
0
 62 
 7 
 10 
3.185
 20 
0.04
 11 
3.185
 21 
0.053
 0 
LINE
 8 
0
 62 
 7 
 10 
3.185
 20 
0.053
 11 
3.179
 21 
0.053
 0 
LINE
 8 
0
 62 
 7 
 10 
3.198
 20 
0.04
 11 
3.198
 21 
0.078
 0 
LINE
 8 
0
 62 
 7 
 10 
3.198
 20 
0.078
 11 
3.223
 21 
0.053
 0 
LINE
 8 
0
 62 
 7 
 10 
3.223
 20 
0.078
 11 
3.223
 21 
0.04
 0 
LINE
 8 
0
 62 
 7 
 10 
3.236
 20 
0.078
 11 
3.255
 21 
0.078
 0 
LINE
 8 
0
 62 
 7 
 10 
3.255
 20 
0.078
 11 
3.261
 21 
0.072
 0 
LINE
 8 
0
 62 
 7 
 10 
3.261
 20 
0.072
 11 
3.261
 21 
0.046
 0 
LINE
 8 
0
 62 
 7 
 10 
3.261
 20 
0.046
 11 
3.255
 21 
0.04
 0 
LINE
 8 
0
 62 
 7 
 10 
3.255
 20 
0.04
 11 
3.236
 21 
0.04
 0 
LINE
 8 
0
 62 
 7 
 10 
3.242
 20 
0.078
 11 
3.242
 21 
0.04
 0 
LINE
 8 
0
 62 
 7 
 10 
2.988
 20 
0.398
 11 
2.975
 21 
0.398
 0 
LINE
 8 
0
 62 
 7 
 10 
2.975
 20 
0.398
 11 
2.975
 21 
0.358
 0 
LINE
 8 
0
 62 
 7 
 10 
2.975
 20 
0.358
 11 
2.988
 21 
0.358
 0 
LINE
 8 
0
 62 
 7 
 10 
3.015
 20 
0.398
 11 
3.028
 21 
0.398
 0 
LINE
 8 
0
 62 
 7 
 10 
3.015
 20 
0.358
 11 
3.028
 21 
0.358
 0 
LINE
 8 
0
 62 
 7 
 10 
3.021
 20 
0.398
 11 
3.021
 21 
0.358
 0 
LINE
 8 
0
 62 
 7 
 10 
3.075
 20 
0.391
 11 
3.068
 21 
0.398
 0 
LINE
 8 
0
 62 
 7 
 10 
3.068
 20 
0.398
 11 
3.055
 21 
0.398
 0 
LINE
 8 
0
 62 
 7 
 10 
3.055
 20 
0.398
 11 
3.048
 21 
0.391
 0 
LINE
 8 
0
 62 
 7 
 10 
3.048
 20 
0.391
 11 
3.048
 21 
0.385
 0 
LINE
 8 
0
 62 
 7 
 10 
3.048
 20 
0.385
 11 
3.055
 21 
0.378
 0 
LINE
 8 
0
 62 
 7 
 10 
3.055
 20 
0.378
 11 
3.068
 21 
0.378
 0 
LINE
 8 
0
 62 
 7 
 10 
3.068
 20 
0.378
 11 
3.075
 21 
0.371
 0 
LINE
 8 
0
 62 
 7 
 10 
3.075
 20 
0.371
 11 
3.075
 21 
0.365
 0 
LINE
 8 
0
 62 
 7 
 10 
3.075
 20 
0.365
 11 
3.068
 21 
0.358
 0 
LINE
 8 
0
 62 
 7 
 10 
3.068
 20 
0.358
 11 
3.055
 21 
0.358
 0 
LINE
 8 
0
 62 
 7 
 10 
3.055
 20 
0.358
 11 
3.048
 21 
0.365
 0 
LINE
 8 
0
 62 
 7 
 10 
3.088
 20 
0.358
 11 
3.088
 21 
0.398
 0 
LINE
 8 
0
 62 
 7 
 10 
3.088
 20 
0.398
 11 
3.108
 21 
0.398
 0 
LINE
 8 
0
 62 
 7 
 10 
3.108
 20 
0.398
 11 
3.115
 21 
0.391
 0 
LINE
 8 
0
 62 
 7 
 10 
3.115
 20 
0.391
 11 
3.115
 21 
0.385
 0 
LINE
 8 
0
 62 
 7 
 10 
3.115
 20 
0.385
 11 
3.108
 21 
0.378
 0 
LINE
 8 
0
 62 
 7 
 10 
3.108
 20 
0.378
 11 
3.088
 21 
0.378
 0 
LINE
 8 
0
 62 
 7 
 10 
3.168
 20 
0.358
 11 
3.168
 21 
0.398
 0 
LINE
 8 
0
 62 
 7 
 10 
3.168
 20 
0.398
 11 
3.188
 21 
0.398
 0 
LINE
 8 
0
 62 
 7 
 10 
3.188
 20 
0.398
 11 
3.195
 21 
0.391
 0 
LINE
 8 
0
 62 
 7 
 10 
3.195
 20 
0.391
 11 
3.195
 21 
0.385
 0 
LINE
 8 
0
 62 
 7 
 10 
3.195
 20 
0.385
 11 
3.188
 21 
0.378
 0 
LINE
 8 
0
 62 
 7 
 10 
3.188
 20 
0.378
 11 
3.168
 21 
0.378
 0 
LINE
 8 
0
 62 
 7 
 10 
3.215
 20 
0.398
 11 
3.228
 21 
0.398
 0 
LINE
 8 
0
 62 
 7 
 10 
3.215
 20 
0.358
 11 
3.228
 21 
0.358
 0 
LINE
 8 
0
 62 
 7 
 10 
3.221
 20 
0.398
 11 
3.221
 21 
0.358
 0 
LINE
 8 
0
 62 
 7 
 10 
3.248
 20 
0.358
 11 
3.248
 21 
0.398
 0 
LINE
 8 
0
 62 
 7 
 10 
3.248
 20 
0.398
 11 
3.275
 21 
0.371
 0 
LINE
 8 
0
 62 
 7 
 10 
3.275
 20 
0.398
 11 
3.275
 21 
0.358
 0 
LINE
 8 
0
 62 
 7 
 10 
3.315
 20 
0.391
 11 
3.308
 21 
0.398
 0 
LINE
 8 
0
 62 
 7 
 10 
3.308
 20 
0.398
 11 
3.295
 21 
0.398
 0 
LINE
 8 
0
 62 
 7 
 10 
3.295
 20 
0.398
 11 
3.288
 21 
0.391
 0 
LINE
 8 
0
 62 
 7 
 10 
3.288
 20 
0.391
 11 
3.288
 21 
0.385
 0 
LINE
 8 
0
 62 
 7 
 10 
3.288
 20 
0.385
 11 
3.295
 21 
0.378
 0 
LINE
 8 
0
 62 
 7 
 10 
3.295
 20 
0.378
 11 
3.308
 21 
0.378
 0 
LINE
 8 
0
 62 
 7 
 10 
3.308
 20 
0.378
 11 
3.315
 21 
0.371
 0 
LINE
 8 
0
 62 
 7 
 10 
3.315
 20 
0.371
 11 
3.315
 21 
0.365
 0 
LINE
 8 
0
 62 
 7 
 10 
3.315
 20 
0.365
 11 
3.308
 21 
0.358
 0 
LINE
 8 
0
 62 
 7 
 10 
3.308
 20 
0.358
 11 
3.295
 21 
0.358
 0 
LINE
 8 
0
 62 
 7 
 10 
3.295
 20 
0.358
 11 
3.288
 21 
0.365
 0 
LINE
 8 
0
 62 
 7 
 10 
3.335
 20 
0.398
 11 
3.348
 21 
0.398
 0 
LINE
 8 
0
 62 
 7 
 10 
3.348
 20 
0.398
 11 
3.348
 21 
0.358
 0 
LINE
 8 
0
 62 
 7 
 10 
3.348
 20 
0.358
 11 
3.335
 21 
0.358
 0 
LINE
 8 
0
 62 
 7 
 10 
2.408
 20 
1.138
 11 
2.408
 21 
1.1
 0 
LINE
 8 
0
 62 
 7 
 10 
2.433
 20 
1.138
 11 
2.433
 21 
1.1
 0 
LINE
 8 
0
 62 
 7 
 10 
2.408
 20 
1.119
 11 
2.433
 21 
1.119
 0 
LINE
 8 
0
 62 
 7 
 10 
2.471
 20 
1.119
 11 
2.465
 21 
1.125
 0 
LINE
 8 
0
 62 
 7 
 10 
2.465
 20 
1.125
 11 
2.452
 21 
1.125
 0 
LINE
 8 
0
 62 
 7 
 10 
2.452
 20 
1.125
 11 
2.446
 21 
1.119
 0 
LINE
 8 
0
 62 
 7 
 10 
2.446
 20 
1.119
 11 
2.446
 21 
1.106
 0 
LINE
 8 
0
 62 
 7 
 10 
2.446
 20 
1.106
 11 
2.452
 21 
1.1
 0 
LINE
 8 
0
 62 
 7 
 10 
2.452
 20 
1.1
 11 
2.465
 21 
1.1
 0 
LINE
 8 
0
 62 
 7 
 10 
2.465
 20 
1.1
 11 
2.471
 21 
1.106
 0 
LINE
 8 
0
 62 
 7 
 10 
2.471
 20 
1.106
 11 
2.471
 21 
1.119
 0 
LINE
 8 
0
 62 
 7 
 10 
2.484
 20 
1.138
 11 
2.484
 21 
1.1
 0 
LINE
 8 
0
 62 
 7 
 10 
2.484
 20 
1.113
 11 
2.497
 21 
1.125
 0 
LINE
 8 
0
 62 
 7 
 10 
2.497
 20 
1.125
 11 
2.503
 21 
1.125
 0 
LINE
 8 
0
 62 
 7 
 10 
2.503
 20 
1.125
 11 
2.509
 21 
1.119
 0 
LINE
 8 
0
 62 
 7 
 10 
2.509
 20 
1.119
 11 
2.509
 21 
1.106
 0 
LINE
 8 
0
 62 
 7 
 10 
2.509
 20 
1.106
 11 
2.503
 21 
1.1
 0 
LINE
 8 
0
 62 
 7 
 10 
2.503
 20 
1.1
 11 
2.49
 21 
1.1
 0 
LINE
 8 
0
 62 
 7 
 10 
2.49
 20 
1.1
 11 
2.484
 21 
1.106
 0 
LINE
 8 
0
 62 
 7 
 10 
2.522
 20 
1.138
 11 
2.522
 21 
1.1
 0 
LINE
 8 
0
 62 
 7 
 10 
2.522
 20 
1.113
 11 
2.535
 21 
1.125
 0 
LINE
 8 
0
 62 
 7 
 10 
2.535
 20 
1.125
 11 
2.541
 21 
1.125
 0 
LINE
 8 
0
 62 
 7 
 10 
2.541
 20 
1.125
 11 
2.547
 21 
1.119
 0 
LINE
 8 
0
 62 
 7 
 10 
2.547
 20 
1.119
 11 
2.547
 21 
1.106
 0 
LINE
 8 
0
 62 
 7 
 10 
2.547
 20 
1.106
 11 
2.541
 21 
1.1
 0 
LINE
 8 
0
 62 
 7 
 10 
2.541
 20 
1.1
 11 
2.528
 21 
1.1
 0 
LINE
 8 
0
 62 
 7 
 10 
2.528
 20 
1.1
 11 
2.522
 21 
1.106
 0 
LINE
 8 
0
 62 
 7 
 10 
2.56
 20 
1.125
 11 
2.56
 21 
1.106
 0 
LINE
 8 
0
 62 
 7 
 10 
2.56
 20 
1.106
 11 
2.566
 21 
1.1
 0 
LINE
 8 
0
 62 
 7 
 10 
2.566
 20 
1.1
 11 
2.573
 21 
1.1
 0 
LINE
 8 
0
 62 
 7 
 10 
2.573
 20 
1.1
 11 
2.585
 21 
1.113
 0 
LINE
 8 
0
 62 
 7 
 10 
2.585
 20 
1.125
 11 
2.585
 21 
1.094
 0 
LINE
 8 
0
 62 
 7 
 10 
2.585
 20 
1.094
 11 
2.579
 21 
1.087
 0 
LINE
 8 
0
 62 
 7 
 10 
2.579
 20 
1.087
 11 
2.56
 21 
1.087
 0 
LINE
 8 
0
 62 
 7 
 10 
2.598
 20 
1.138
 11 
2.598
 21 
1.1
 0 
LINE
 8 
0
 62 
 7 
 10 
2.598
 20 
1.113
 11 
2.611
 21 
1.125
 0 
LINE
 8 
0
 62 
 7 
 10 
2.611
 20 
1.125
 11 
2.617
 21 
1.125
 0 
LINE
 8 
0
 62 
 7 
 10 
2.617
 20 
1.125
 11 
2.623
 21 
1.119
 0 
LINE
 8 
0
 62 
 7 
 10 
2.623
 20 
1.119
 11 
2.623
 21 
1.106
 0 
LINE
 8 
0
 62 
 7 
 10 
2.623
 20 
1.106
 11 
2.617
 21 
1.1
 0 
LINE
 8 
0
 62 
 7 
 10 
2.617
 20 
1.1
 11 
2.604
 21 
1.1
 0 
LINE
 8 
0
 62 
 7 
 10 
2.604
 20 
1.1
 11 
2.598
 21 
1.106
 0 
LINE
 8 
0
 62 
 7 
 10 
2.661
 20 
1.119
 11 
2.655
 21 
1.125
 0 
LINE
 8 
0
 62 
 7 
 10 
2.655
 20 
1.125
 11 
2.642
 21 
1.125
 0 
LINE
 8 
0
 62 
 7 
 10 
2.642
 20 
1.125
 11 
2.636
 21 
1.119
 0 
LINE
 8 
0
 62 
 7 
 10 
2.636
 20 
1.119
 11 
2.636
 21 
1.106
 0 
LINE
 8 
0
 62 
 7 
 10 
2.636
 20 
1.106
 11 
2.642
 21 
1.1
 0 
LINE
 8 
0
 62 
 7 
 10 
2.642
 20 
1.1
 11 
2.655
 21 
1.1
 0 
LINE
 8 
0
 62 
 7 
 10 
2.655
 20 
1.1
 11 
2.661
 21 
1.106
 0 
LINE
 8 
0
 62 
 7 
 10 
2.661
 20 
1.106
 11 
2.661
 21 
1.119
 0 
LINE
 8 
0
 62 
 7 
 10 
2.68
 20 
1.138
 11 
2.68
 21 
1.106
 0 
LINE
 8 
0
 62 
 7 
 10 
2.68
 20 
1.106
 11 
2.687
 21 
1.1
 0 
LINE
 8 
0
 62 
 7 
 10 
2.687
 20 
1.1
 11 
2.693
 21 
1.1
 0 
LINE
 8 
0
 62 
 7 
 10 
2.693
 20 
1.1
 11 
2.699
 21 
1.106
 0 
LINE
 8 
0
 62 
 7 
 10 
2.674
 20 
1.125
 11 
2.693
 21 
1.125
 0 
LINE
 8 
0
 62 
 7 
 10 
2.725
 20 
1.138
 11 
2.725
 21 
1.132
 0 
LINE
 8 
0
 62 
 7 
 10 
2.718
 20 
1.1
 11 
2.731
 21 
1.1
 0 
LINE
 8 
0
 62 
 7 
 10 
2.718
 20 
1.119
 11 
2.725
 21 
1.119
 0 
LINE
 8 
0
 62 
 7 
 10 
2.725
 20 
1.119
 11 
2.725
 21 
1.1
 0 
LINE
 8 
0
 62 
 7 
 10 
2.775
 20 
1.119
 11 
2.769
 21 
1.125
 0 
LINE
 8 
0
 62 
 7 
 10 
2.769
 20 
1.125
 11 
2.756
 21 
1.125
 0 
LINE
 8 
0
 62 
 7 
 10 
2.756
 20 
1.125
 11 
2.75
 21 
1.119
 0 
LINE
 8 
0
 62 
 7 
 10 
2.75
 20 
1.119
 11 
2.75
 21 
1.106
 0 
LINE
 8 
0
 62 
 7 
 10 
2.75
 20 
1.106
 11 
2.756
 21 
1.1
 0 
LINE
 8 
0
 62 
 7 
 10 
2.756
 20 
1.1
 11 
2.769
 21 
1.1
 0 
LINE
 8 
0
 62 
 7 
 10 
2.769
 20 
1.1
 11 
2.775
 21 
1.106
 0 
LINE
 8 
0
 62 
 7 
 10 
2.813
 20 
1.125
 11 
2.794
 21 
1.125
 0 
LINE
 8 
0
 62 
 7 
 10 
2.794
 20 
1.125
 11 
2.788
 21 
1.119
 0 
LINE
 8 
0
 62 
 7 
 10 
2.788
 20 
1.119
 11 
2.794
 21 
1.113
 0 
LINE
 8 
0
 62 
 7 
 10 
2.794
 20 
1.113
 11 
2.807
 21 
1.113
 0 
LINE
 8 
0
 62 
 7 
 10 
2.807
 20 
1.113
 11 
2.813
 21 
1.106
 0 
LINE
 8 
0
 62 
 7 
 10 
2.813
 20 
1.106
 11 
2.807
 21 
1.1
 0 
LINE
 8 
0
 62 
 7 
 10 
2.807
 20 
1.1
 11 
2.788
 21 
1.1
 0 
LINE
 8 
0
 62 
 7 
 10 
2.864
 20 
1.132
 11 
2.889
 21 
1.106
 0 
LINE
 8 
0
 62 
 7 
 10 
2.902
 20 
1.106
 11 
2.902
 21 
1.132
 0 
LINE
 8 
0
 62 
 7 
 10 
2.902
 20 
1.132
 11 
2.908
 21 
1.138
 0 
LINE
 8 
0
 62 
 7 
 10 
2.908
 20 
1.138
 11 
2.921
 21 
1.138
 0 
LINE
 8 
0
 62 
 7 
 10 
2.921
 20 
1.138
 11 
2.927
 21 
1.132
 0 
LINE
 8 
0
 62 
 7 
 10 
2.927
 20 
1.132
 11 
2.927
 21 
1.106
 0 
LINE
 8 
0
 62 
 7 
 10 
2.927
 20 
1.106
 11 
2.921
 21 
1.1
 0 
LINE
 8 
0
 62 
 7 
 10 
2.921
 20 
1.1
 11 
2.908
 21 
1.1
 0 
LINE
 8 
0
 62 
 7 
 10 
2.908
 20 
1.1
 11 
2.902
 21 
1.106
 0 
LINE
 8 
0
 62 
 7 
 10 
2.902
 20 
1.106
 11 
2.927
 21 
1.132
 0 
LINE
 8 
0
 62 
 7 
 10 
2.94
 20 
1.106
 11 
2.965
 21 
1.132
 0 
LINE
 8 
0
 62 
 7 
 10 
2.408
 20 
1.063
 11 
2.408
 21 
1.025
 0 
LINE
 8 
0
 62 
 7 
 10 
2.433
 20 
1.063
 11 
2.433
 21 
1.025
 0 
LINE
 8 
0
 62 
 7 
 10 
2.408
 20 
1.044
 11 
2.433
 21 
1.044
 0 
LINE
 8 
0
 62 
 7 
 10 
2.471
 20 
1.044
 11 
2.465
 21 
1.05
 0 
LINE
 8 
0
 62 
 7 
 10 
2.465
 20 
1.05
 11 
2.452
 21 
1.05
 0 
LINE
 8 
0
 62 
 7 
 10 
2.452
 20 
1.05
 11 
2.446
 21 
1.044
 0 
LINE
 8 
0
 62 
 7 
 10 
2.446
 20 
1.044
 11 
2.446
 21 
1.031
 0 
LINE
 8 
0
 62 
 7 
 10 
2.446
 20 
1.031
 11 
2.452
 21 
1.025
 0 
LINE
 8 
0
 62 
 7 
 10 
2.452
 20 
1.025
 11 
2.465
 21 
1.025
 0 
LINE
 8 
0
 62 
 7 
 10 
2.465
 20 
1.025
 11 
2.471
 21 
1.031
 0 
LINE
 8 
0
 62 
 7 
 10 
2.471
 20 
1.031
 11 
2.471
 21 
1.044
 0 
LINE
 8 
0
 62 
 7 
 10 
2.484
 20 
1.063
 11 
2.484
 21 
1.025
 0 
LINE
 8 
0
 62 
 7 
 10 
2.484
 20 
1.038
 11 
2.497
 21 
1.05
 0 
LINE
 8 
0
 62 
 7 
 10 
2.497
 20 
1.05
 11 
2.503
 21 
1.05
 0 
LINE
 8 
0
 62 
 7 
 10 
2.503
 20 
1.05
 11 
2.509
 21 
1.044
 0 
LINE
 8 
0
 62 
 7 
 10 
2.509
 20 
1.044
 11 
2.509
 21 
1.031
 0 
LINE
 8 
0
 62 
 7 
 10 
2.509
 20 
1.031
 11 
2.503
 21 
1.025
 0 
LINE
 8 
0
 62 
 7 
 10 
2.503
 20 
1.025
 11 
2.49
 21 
1.025
 0 
LINE
 8 
0
 62 
 7 
 10 
2.49
 20 
1.025
 11 
2.484
 21 
1.031
 0 
LINE
 8 
0
 62 
 7 
 10 
2.522
 20 
1.063
 11 
2.522
 21 
1.025
 0 
LINE
 8 
0
 62 
 7 
 10 
2.522
 20 
1.038
 11 
2.535
 21 
1.05
 0 
LINE
 8 
0
 62 
 7 
 10 
2.535
 20 
1.05
 11 
2.541
 21 
1.05
 0 
LINE
 8 
0
 62 
 7 
 10 
2.541
 20 
1.05
 11 
2.547
 21 
1.044
 0 
LINE
 8 
0
 62 
 7 
 10 
2.547
 20 
1.044
 11 
2.547
 21 
1.031
 0 
LINE
 8 
0
 62 
 7 
 10 
2.547
 20 
1.031
 11 
2.541
 21 
1.025
 0 
LINE
 8 
0
 62 
 7 
 10 
2.541
 20 
1.025
 11 
2.528
 21 
1.025
 0 
LINE
 8 
0
 62 
 7 
 10 
2.528
 20 
1.025
 11 
2.522
 21 
1.031
 0 
LINE
 8 
0
 62 
 7 
 10 
2.56
 20 
1.05
 11 
2.56
 21 
1.031
 0 
LINE
 8 
0
 62 
 7 
 10 
2.56
 20 
1.031
 11 
2.566
 21 
1.025
 0 
LINE
 8 
0
 62 
 7 
 10 
2.566
 20 
1.025
 11 
2.573
 21 
1.025
 0 
LINE
 8 
0
 62 
 7 
 10 
2.573
 20 
1.025
 11 
2.585
 21 
1.038
 0 
LINE
 8 
0
 62 
 7 
 10 
2.585
 20 
1.05
 11 
2.585
 21 
1.019
 0 
LINE
 8 
0
 62 
 7 
 10 
2.585
 20 
1.019
 11 
2.579
 21 
1.012
 0 
LINE
 8 
0
 62 
 7 
 10 
2.579
 20 
1.012
 11 
2.56
 21 
1.012
 0 
LINE
 8 
0
 62 
 7 
 10 
2.617
 20 
1.063
 11 
2.623
 21 
1.063
 0 
LINE
 8 
0
 62 
 7 
 10 
2.623
 20 
1.063
 11 
2.623
 21 
1.025
 0 
LINE
 8 
0
 62 
 7 
 10 
2.623
 20 
1.044
 11 
2.617
 21 
1.05
 0 
LINE
 8 
0
 62 
 7 
 10 
2.617
 20 
1.05
 11 
2.604
 21 
1.05
 0 
LINE
 8 
0
 62 
 7 
 10 
2.604
 20 
1.05
 11 
2.598
 21 
1.044
 0 
LINE
 8 
0
 62 
 7 
 10 
2.598
 20 
1.044
 11 
2.598
 21 
1.031
 0 
LINE
 8 
0
 62 
 7 
 10 
2.598
 20 
1.031
 11 
2.604
 21 
1.025
 0 
LINE
 8 
0
 62 
 7 
 10 
2.604
 20 
1.025
 11 
2.611
 21 
1.025
 0 
LINE
 8 
0
 62 
 7 
 10 
2.611
 20 
1.025
 11 
2.623
 21 
1.038
 0 
LINE
 8 
0
 62 
 7 
 10 
2.636
 20 
1.05
 11 
2.636
 21 
1.031
 0 
LINE
 8 
0
 62 
 7 
 10 
2.636
 20 
1.031
 11 
2.642
 21 
1.025
 0 
LINE
 8 
0
 62 
 7 
 10 
2.642
 20 
1.025
 11 
2.649
 21 
1.025
 0 
LINE
 8 
0
 62 
 7 
 10 
2.649
 20 
1.025
 11 
2.661
 21 
1.038
 0 
LINE
 8 
0
 62 
 7 
 10 
2.661
 20 
1.05
 11 
2.661
 21 
1.025
 0 
LINE
 8 
0
 62 
 7 
 10 
2.687
 20 
1.063
 11 
2.687
 21 
1.057
 0 
LINE
 8 
0
 62 
 7 
 10 
2.68
 20 
1.025
 11 
2.693
 21 
1.025
 0 
LINE
 8 
0
 62 
 7 
 10 
2.68
 20 
1.044
 11 
2.687
 21 
1.044
 0 
LINE
 8 
0
 62 
 7 
 10 
2.687
 20 
1.044
 11 
2.687
 21 
1.025
 0 
LINE
 8 
0
 62 
 7 
 10 
2.712
 20 
1.05
 11 
2.712
 21 
1.025
 0 
LINE
 8 
0
 62 
 7 
 10 
2.712
 20 
1.038
 11 
2.725
 21 
1.05
 0 
LINE
 8 
0
 62 
 7 
 10 
2.725
 20 
1.05
 11 
2.731
 21 
1.05
 0 
LINE
 8 
0
 62 
 7 
 10 
2.731
 20 
1.05
 11 
2.737
 21 
1.044
 0 
LINE
 8 
0
 62 
 7 
 10 
2.737
 20 
1.044
 11 
2.737
 21 
1.025
 0 
LINE
 8 
0
 62 
 7 
 10 
2.775
 20 
1.044
 11 
2.769
 21 
1.05
 0 
LINE
 8 
0
 62 
 7 
 10 
2.769
 20 
1.05
 11 
2.756
 21 
1.05
 0 
LINE
 8 
0
 62 
 7 
 10 
2.756
 20 
1.05
 11 
2.75
 21 
1.044
 0 
LINE
 8 
0
 62 
 7 
 10 
2.75
 20 
1.044
 11 
2.75
 21 
1.031
 0 
LINE
 8 
0
 62 
 7 
 10 
2.75
 20 
1.031
 11 
2.756
 21 
1.025
 0 
LINE
 8 
0
 62 
 7 
 10 
2.756
 20 
1.025
 11 
2.769
 21 
1.025
 0 
LINE
 8 
0
 62 
 7 
 10 
2.769
 20 
1.025
 11 
2.775
 21 
1.031
 0 
LINE
 8 
0
 62 
 7 
 10 
2.775
 20 
1.031
 11 
2.775
 21 
1.044
 0 
LINE
 8 
0
 62 
 7 
 10 
2.826
 20 
1.025
 11 
2.826
 21 
1.063
 0 
LINE
 8 
0
 62 
 7 
 10 
2.826
 20 
1.063
 11 
2.839
 21 
1.05
 0 
LINE
 8 
0
 62 
 7 
 10 
2.839
 20 
1.05
 11 
2.839
 21 
1.044
 0 
LINE
 8 
0
 62 
 7 
 10 
2.839
 20 
1.05
 11 
2.851
 21 
1.063
 0 
LINE
 8 
0
 62 
 7 
 10 
2.851
 20 
1.063
 11 
2.851
 21 
1.025
 0 
LINE
 8 
0
 62 
 7 
 10 
2.877
 20 
1.063
 11 
2.877
 21 
1.057
 0 
LINE
 8 
0
 62 
 7 
 10 
2.87
 20 
1.025
 11 
2.883
 21 
1.025
 0 
LINE
 8 
0
 62 
 7 
 10 
2.87
 20 
1.044
 11 
2.877
 21 
1.044
 0 
LINE
 8 
0
 62 
 7 
 10 
2.877
 20 
1.044
 11 
2.877
 21 
1.025
 0 
LINE
 8 
0
 62 
 7 
 10 
2.902
 20 
1.05
 11 
2.902
 21 
1.025
 0 
LINE
 8 
0
 62 
 7 
 10 
2.902
 20 
1.038
 11 
2.915
 21 
1.05
 0 
LINE
 8 
0
 62 
 7 
 10 
2.915
 20 
1.05
 11 
2.921
 21 
1.05
 0 
LINE
 8 
0
 62 
 7 
 10 
2.921
 20 
1.05
 11 
2.927
 21 
1.044
 0 
LINE
 8 
0
 62 
 7 
 10 
2.927
 20 
1.044
 11 
2.927
 21 
1.025
 0 
LINE
 8 
0
 62 
 7 
 10 
2.953
 20 
1.063
 11 
2.953
 21 
1.057
 0 
LINE
 8 
0
 62 
 7 
 10 
2.946
 20 
1.025
 11 
2.959
 21 
1.025
 0 
LINE
 8 
0
 62 
 7 
 10 
2.946
 20 
1.044
 11 
2.953
 21 
1.044
 0 
LINE
 8 
0
 62 
 7 
 10 
2.953
 20 
1.044
 11 
2.953
 21 
1.025
 0 
LINE
 8 
0
 62 
 7 
 10 
3.016
 20 
1.063
 11 
3.016
 21 
1.044
 0 
LINE
 8 
0
 62 
 7 
 10 
3.016
 20 
1.044
 11 
3.029
 21 
1.031
 0 
LINE
 8 
0
 62 
 7 
 10 
3.029
 20 
1.031
 11 
3.041
 21 
1.044
 0 
LINE
 8 
0
 62 
 7 
 10 
3.041
 20 
1.044
 11 
3.041
 21 
1.063
 0 
LINE
 8 
0
 62 
 7 
 10 
3.029
 20 
1.031
 11 
3.029
 21 
1.025
 0 
LINE
 8 
0
 62 
 7 
 10 
3.054
 20 
1.057
 11 
3.06
 21 
1.063
 0 
LINE
 8 
0
 62 
 7 
 10 
3.06
 20 
1.063
 11 
3.073
 21 
1.063
 0 
LINE
 8 
0
 62 
 7 
 10 
3.073
 20 
1.063
 11 
3.079
 21 
1.057
 0 
LINE
 8 
0
 62 
 7 
 10 
3.079
 20 
1.057
 11 
3.079
 21 
1.05
 0 
LINE
 8 
0
 62 
 7 
 10 
3.079
 20 
1.05
 11 
3.073
 21 
1.044
 0 
LINE
 8 
0
 62 
 7 
 10 
3.073
 20 
1.044
 11 
3.067
 21 
1.044
 0 
LINE
 8 
0
 62 
 7 
 10 
3.073
 20 
1.044
 11 
3.079
 21 
1.038
 0 
LINE
 8 
0
 62 
 7 
 10 
3.079
 20 
1.038
 11 
3.079
 21 
1.031
 0 
LINE
 8 
0
 62 
 7 
 10 
3.079
 20 
1.031
 11 
3.073
 21 
1.025
 0 
LINE
 8 
0
 62 
 7 
 10 
3.073
 20 
1.025
 11 
3.06
 21 
1.025
 0 
LINE
 8 
0
 62 
 7 
 10 
3.06
 20 
1.025
 11 
3.054
 21 
1.031
 0 
LINE
 8 
0
 62 
 7 
 10 
3.105
 20 
1.025
 11 
3.098
 21 
1.025
 0 
LINE
 8 
0
 62 
 7 
 10 
3.098
 20 
1.025
 11 
3.098
 21 
1.031
 0 
LINE
 8 
0
 62 
 7 
 10 
3.098
 20 
1.031
 11 
3.105
 21 
1.031
 0 
LINE
 8 
0
 62 
 7 
 10 
3.105
 20 
1.031
 11 
3.105
 21 
1.025
 0 
LINE
 8 
0
 62 
 7 
 10 
3.13
 20 
1.031
 11 
3.13
 21 
1.057
 0 
LINE
 8 
0
 62 
 7 
 10 
3.13
 20 
1.057
 11 
3.136
 21 
1.063
 0 
LINE
 8 
0
 62 
 7 
 10 
3.136
 20 
1.063
 11 
3.149
 21 
1.063
 0 
LINE
 8 
0
 62 
 7 
 10 
3.149
 20 
1.063
 11 
3.155
 21 
1.057
 0 
LINE
 8 
0
 62 
 7 
 10 
3.155
 20 
1.057
 11 
3.155
 21 
1.031
 0 
LINE
 8 
0
 62 
 7 
 10 
3.155
 20 
1.031
 11 
3.149
 21 
1.025
 0 
LINE
 8 
0
 62 
 7 
 10 
3.149
 20 
1.025
 11 
3.136
 21 
1.025
 0 
LINE
 8 
0
 62 
 7 
 10 
3.136
 20 
1.025
 11 
3.13
 21 
1.031
 0 
LINE
 8 
0
 62 
 7 
 10 
3.13
 20 
1.031
 11 
3.155
 21 
1.057
 0 
LINE
 8 
0
 62 
 7 
 10 
1.392
 20 
0.998
 11 
1.411
 21 
0.998
 0 
LINE
 8 
0
 62 
 7 
 10 
1.411
 20 
0.998
 11 
1.424
 21 
1.011
 0 
LINE
 8 
0
 62 
 7 
 10 
1.424
 20 
1.011
 11 
1.411
 21 
1.023
 0 
LINE
 8 
0
 62 
 7 
 10 
1.411
 20 
1.023
 11 
1.392
 21 
1.023
 0 
LINE
 8 
0
 62 
 7 
 10 
1.424
 20 
1.011
 11 
1.43
 21 
1.011
 0 
LINE
 8 
0
 62 
 7 
 10 
1.392
 20 
1.061
 11 
1.392
 21 
1.036
 0 
LINE
 8 
0
 62 
 7 
 10 
1.392
 20 
1.036
 11 
1.43
 21 
1.036
 0 
LINE
 8 
0
 62 
 7 
 10 
1.43
 20 
1.036
 11 
1.43
 21 
1.061
 0 
LINE
 8 
0
 62 
 7 
 10 
1.411
 20 
1.036
 11 
1.411
 21 
1.055
 0 
LINE
 8 
0
 62 
 7 
 10 
1.392
 20 
1.074
 11 
1.398
 21 
1.074
 0 
LINE
 8 
0
 62 
 7 
 10 
1.398
 20 
1.074
 11 
1.424
 21 
1.099
 0 
LINE
 8 
0
 62 
 7 
 10 
1.424
 20 
1.099
 11 
1.43
 21 
1.099
 0 
LINE
 8 
0
 62 
 7 
 10 
1.392
 20 
1.099
 11 
1.398
 21 
1.099
 0 
LINE
 8 
0
 62 
 7 
 10 
1.398
 20 
1.099
 11 
1.424
 21 
1.074
 0 
LINE
 8 
0
 62 
 7 
 10 
1.424
 20 
1.074
 11 
1.43
 21 
1.074
 0 
LINE
 8 
0
 62 
 7 
 10 
1.392
 20 
1.112
 11 
1.392
 21 
1.137
 0 
LINE
 8 
0
 62 
 7 
 10 
1.392
 20 
1.125
 11 
1.43
 21 
1.125
 0 
LINE
 8 
0
 62 
 7 
 10 
1.428
 20 
0.98
 11 
1.378
 21 
0.98
 0 
LINE
 8 
0
 62 
 7 
 10 
1.451
 20 
0.873
 11 
1.445
 21 
0.88
 0 
LINE
 8 
0
 62 
 7 
 10 
1.445
 20 
0.88
 11 
1.483
 21 
0.88
 0 
LINE
 8 
0
 62 
 7 
 10 
1.483
 20 
0.873
 11 
1.483
 21 
0.886
 0 
LINE
 8 
0
 62 
 7 
 10 
1.451
 20 
0.967
 11 
1.445
 21 
0.973
 0 
LINE
 8 
0
 62 
 7 
 10 
1.445
 20 
0.973
 11 
1.445
 21 
0.986
 0 
LINE
 8 
0
 62 
 7 
 10 
1.445
 20 
0.986
 11 
1.451
 21 
0.992
 0 
LINE
 8 
0
 62 
 7 
 10 
1.451
 20 
0.992
 11 
1.458
 21 
0.992
 0 
LINE
 8 
0
 62 
 7 
 10 
1.458
 20 
0.992
 11 
1.464
 21 
0.986
 0 
LINE
 8 
0
 62 
 7 
 10 
1.464
 20 
0.986
 11 
1.464
 21 
0.973
 0 
LINE
 8 
0
 62 
 7 
 10 
1.464
 20 
0.973
 11 
1.47
 21 
0.967
 0 
LINE
 8 
0
 62 
 7 
 10 
1.47
 20 
0.967
 11 
1.483
 21 
0.967
 0 
LINE
 8 
0
 62 
 7 
 10 
1.483
 20 
0.967
 11 
1.483
 21 
0.992
 0 
LINE
 8 
0
 62 
 7 
 10 
1.451
 20 
1.067
 11 
1.445
 21 
1.073
 0 
LINE
 8 
0
 62 
 7 
 10 
1.445
 20 
1.073
 11 
1.445
 21 
1.086
 0 
LINE
 8 
0
 62 
 7 
 10 
1.445
 20 
1.086
 11 
1.451
 21 
1.092
 0 
LINE
 8 
0
 62 
 7 
 10 
1.451
 20 
1.092
 11 
1.458
 21 
1.092
 0 
LINE
 8 
0
 62 
 7 
 10 
1.458
 20 
1.092
 11 
1.464
 21 
1.086
 0 
LINE
 8 
0
 62 
 7 
 10 
1.464
 20 
1.086
 11 
1.464
 21 
1.08
 0 
LINE
 8 
0
 62 
 7 
 10 
1.464
 20 
1.086
 11 
1.47
 21 
1.092
 0 
LINE
 8 
0
 62 
 7 
 10 
1.47
 20 
1.092
 11 
1.477
 21 
1.092
 0 
LINE
 8 
0
 62 
 7 
 10 
1.477
 20 
1.092
 11 
1.483
 21 
1.086
 0 
LINE
 8 
0
 62 
 7 
 10 
1.483
 20 
1.086
 11 
1.483
 21 
1.073
 0 
LINE
 8 
0
 62 
 7 
 10 
1.483
 20 
1.073
 11 
1.477
 21 
1.067
 0 
ENDSEC
 0 
EOF
